<svg viewBox="0 0 330 200" xmlns="http://www.w3.org/2000/svg"><g><g><g><g><g><line x1="48.875" y1="177" x2="43.875" y2="177" style="visibility: inherit;" fill="rgb(0, 0, 0)" stroke="rgb(204, 204, 204)" stroke-width="1px"></line><line x1="48.875" y1="154.87499999999997" x2="43.875" y2="154.87499999999997" style="visibility: inherit;" fill="rgb(0, 0, 0)" stroke="rgb(204, 204, 204)" stroke-width="1px"></line><line x1="48.875" y1="132.75" x2="43.875" y2="132.75" style="visibility: inherit;" fill="rgb(0, 0, 0)" stroke="rgb(204, 204, 204)" stroke-width="1px"></line><line x1="48.875" y1="110.62499999999999" x2="43.875" y2="110.62499999999999" style="visibility: inherit;" fill="rgb(0, 0, 0)" stroke="rgb(204, 204, 204)" stroke-width="1px"></line><line x1="48.875" y1="88.49999999999999" x2="43.875" y2="88.49999999999999" style="visibility: inherit;" fill="rgb(0, 0, 0)" stroke="rgb(204, 204, 204)" stroke-width="1px"></line><line x1="48.875" y1="66.375" x2="43.875" y2="66.375" style="visibility: inherit;" fill="rgb(0, 0, 0)" stroke="rgb(204, 204, 204)" stroke-width="1px"></line><line x1="48.875" y1="44.24999999999997" x2="43.875" y2="44.24999999999997" style="visibility: inherit;" fill="rgb(0, 0, 0)" stroke="rgb(204, 204, 204)" stroke-width="1px"></line><line x1="48.875" y1="22.12500000000003" x2="43.875" y2="22.12500000000003" style="visibility: inherit;" fill="rgb(0, 0, 0)" stroke="rgb(204, 204, 204)" stroke-width="1px"></line><line x1="48.875" y1="0" x2="43.875" y2="0" style="visibility: inherit;" fill="rgb(0, 0, 0)" stroke="rgb(204, 204, 204)" stroke-width="1px"></line></g><g transform="translate(38.875, 0)"><text x="0" y="177" dx="0em" dy="0.3em" style="text-anchor: end; visibility: hidden; font-family: &quot;Helvetica Neue&quot;, sans-serif; font-size: 12px; font-weight: 200;" fill="rgb(50, 49, 63)" stroke="none" stroke-width="1px">0.35</text><text x="0" y="154.87499999999997" dx="0em" dy="0.3em" style="text-anchor: end; visibility: inherit; font-family: &quot;Helvetica Neue&quot;, sans-serif; font-size: 12px; font-weight: 200;" fill="rgb(50, 49, 63)" stroke="none" stroke-width="1px">0.4</text><text x="0" y="132.75" dx="0em" dy="0.3em" style="text-anchor: end; visibility: hidden; font-family: &quot;Helvetica Neue&quot;, sans-serif; font-size: 12px; font-weight: 200;" fill="rgb(50, 49, 63)" stroke="none" stroke-width="1px">0.45</text><text x="0" y="110.62499999999999" dx="0em" dy="0.3em" style="text-anchor: end; visibility: inherit; font-family: &quot;Helvetica Neue&quot;, sans-serif; font-size: 12px; font-weight: 200;" fill="rgb(50, 49, 63)" stroke="none" stroke-width="1px">0.5</text><text x="0" y="88.49999999999999" dx="0em" dy="0.3em" style="text-anchor: end; visibility: hidden; font-family: &quot;Helvetica Neue&quot;, sans-serif; font-size: 12px; font-weight: 200;" fill="rgb(50, 49, 63)" stroke="none" stroke-width="1px">0.55</text><text x="0" y="66.375" dx="0em" dy="0.3em" style="text-anchor: end; visibility: inherit; font-family: &quot;Helvetica Neue&quot;, sans-serif; font-size: 12px; font-weight: 200;" fill="rgb(50, 49, 63)" stroke="none" stroke-width="1px">0.6</text><text x="0" y="44.24999999999997" dx="0em" dy="0.3em" style="text-anchor: end; visibility: hidden; font-family: &quot;Helvetica Neue&quot;, sans-serif; font-size: 12px; font-weight: 200;" fill="rgb(50, 49, 63)" stroke="none" stroke-width="1px">0.65</text><text x="0" y="22.12500000000003" dx="0em" dy="0.3em" style="text-anchor: end; visibility: inherit; font-family: &quot;Helvetica Neue&quot;, sans-serif; font-size: 12px; font-weight: 200;" fill="rgb(50, 49, 63)" stroke="none" stroke-width="1px">0.7</text><text x="0" y="0" dx="0em" dy="0.3em" style="text-anchor: end; visibility: hidden; font-family: &quot;Helvetica Neue&quot;, sans-serif; font-size: 12px; font-weight: 200;" fill="rgb(50, 49, 63)" stroke="none" stroke-width="1px">0.75</text></g><line x1="48.875" y1="0" x2="48.875" y2="177" fill="rgb(0, 0, 0)" stroke="rgb(204, 204, 204)" stroke-width="1px"></line></g></g><g transform="translate(48, 0)" clip-path="url(#clip_0)"><clipPath id="clip_0"><rect width="281" height="177"></rect></clipPath><g><g><g><line x1="0" y1="0" x2="0" y2="177" fill="rgb(0, 0, 0)" stroke="rgb(60, 60, 60)" stroke-width="1px" opacity="0.25"></line><line x1="31.23611111111111" y1="0" x2="31.23611111111111" y2="177" fill="rgb(0, 0, 0)" stroke="rgb(60, 60, 60)" stroke-width="1px" opacity="0.25"></line><line x1="62.47222222222222" y1="0" x2="62.47222222222222" y2="177" fill="rgb(0, 0, 0)" stroke="rgb(60, 60, 60)" stroke-width="1px" opacity="0.25"></line><line x1="93.70833333333333" y1="0" x2="93.70833333333333" y2="177" fill="rgb(0, 0, 0)" stroke="rgb(60, 60, 60)" stroke-width="1px" opacity="0.25"></line><line x1="124.94444444444444" y1="0" x2="124.94444444444444" y2="177" fill="rgb(0, 0, 0)" stroke="rgb(60, 60, 60)" stroke-width="1px" opacity="0.25"></line><line x1="156.18055555555557" y1="0" x2="156.18055555555557" y2="177" fill="rgb(0, 0, 0)" stroke="rgb(60, 60, 60)" stroke-width="1px" opacity="0.25"></line><line x1="187.41666666666666" y1="0" x2="187.41666666666666" y2="177" fill="rgb(0, 0, 0)" stroke="rgb(60, 60, 60)" stroke-width="1px" opacity="0.25"></line><line x1="218.65277777777777" y1="0" x2="218.65277777777777" y2="177" fill="rgb(0, 0, 0)" stroke="rgb(60, 60, 60)" stroke-width="1px" opacity="0.25"></line><line x1="249.88888888888889" y1="0" x2="249.88888888888889" y2="177" fill="rgb(0, 0, 0)" stroke="rgb(60, 60, 60)" stroke-width="1px" opacity="0.25"></line><line x1="281.125" y1="0" x2="281.125" y2="177" fill="rgb(0, 0, 0)" stroke="rgb(60, 60, 60)" stroke-width="1px" opacity="0.25"></line></g><g><line x1="0" y1="177" x2="281.125" y2="177" fill="rgb(0, 0, 0)" stroke="rgb(60, 60, 60)" stroke-width="1px" opacity="0.25"></line><line x1="0" y1="154.87499999999997" x2="281.125" y2="154.87499999999997" fill="rgb(0, 0, 0)" stroke="rgb(60, 60, 60)" stroke-width="1px" opacity="0.25"></line><line x1="0" y1="132.75" x2="281.125" y2="132.75" fill="rgb(0, 0, 0)" stroke="rgb(60, 60, 60)" stroke-width="1px" opacity="0.25"></line><line x1="0" y1="110.62499999999999" x2="281.125" y2="110.62499999999999" fill="rgb(0, 0, 0)" stroke="rgb(60, 60, 60)" stroke-width="1px" opacity="0.25"></line><line x1="0" y1="88.49999999999999" x2="281.125" y2="88.49999999999999" fill="rgb(0, 0, 0)" stroke="rgb(60, 60, 60)" stroke-width="1px" opacity="0.25"></line><line x1="0" y1="66.375" x2="281.125" y2="66.375" fill="rgb(0, 0, 0)" stroke="rgb(60, 60, 60)" stroke-width="1px" opacity="0.25"></line><line x1="0" y1="44.24999999999997" x2="281.125" y2="44.24999999999997" fill="rgb(0, 0, 0)" stroke="rgb(60, 60, 60)" stroke-width="1px" opacity="0.25"></line><line x1="0" y1="22.12500000000003" x2="281.125" y2="22.12500000000003" fill="rgb(0, 0, 0)" stroke="rgb(60, 60, 60)" stroke-width="1px" opacity="0.25"></line><line x1="0" y1="0" x2="281.125" y2="0" fill="rgb(0, 0, 0)" stroke="rgb(60, 60, 60)" stroke-width="1px" opacity="0.25"></line></g></g></g><g><g><line x1="0" y1="331.875" x2="281.125" y2="331.875" fill="rgb(0, 0, 0)" stroke="rgb(153, 153, 153)" stroke-width="1.5px"></line></g></g><g><g><line x1="31.23611111111111" y1="0" x2="31.23611111111111" y2="177" fill="rgb(0, 0, 0)" stroke="rgb(153, 153, 153)" stroke-width="1.5px"></line></g></g><g><g><g><g><g><path stroke="rgb(204, 51, 17)" stroke-width="2px" d="M35.68725694444444,181.88969941217402L35.76534722222222,174.8728029401514L36.39006944444444,157.93320453198942L36.624340277777776,159.2856429669179L36.85861111111112,150.34531567135627L36.93670138888889,161.646053119714L37.01479166666666,152.786251702689L37.09288194444444,138.63441714515602L37.483333333333334,154.14787452063305L38.10805555555556,164.94091333523758L38.186145833333335,171.04265483477826L38.6546875,171.99110765717788L39.27940972222222,144.84615889416858L39.51368055555555,114.48967076476939L39.591770833333335,124.21093115221214L40.13840277777778,127.432187285989L40.37267361111111,121.13647210919459L40.52885416666667,131.66562227334984L41.153576388888894,133.09432696944359L41.38784722222222,145.2785916282911L41.465937499999995,139.52698862190212L42.168749999999996,138.50488984826768L42.324930555555554,130.28369839869325L42.403020833333336,135.28889865449955L42.48111111111111,136.7201762845589L43.027743055555554,138.38600900502894L43.418194444444445,132.98650876663763L43.574374999999996,130.46072334621078L43.65246527777777,134.2615875935411L43.96482638888889,136.28609402994024L44.35527777777777,121.26838614932157L44.433368055555555,122.69974604483484L44.66763888888889,120.94166064402228L45.136180555555555,120.24575280630842L45.21427083333333,122.06451739361754L45.37045138888889,128.85748285348456L45.60472222222222,136.69179718670884L45.76090277777777,118.68646991834939L45.838993055555555,124.2190491413242L45.99517361111111,126.36068142981355L46.151354166666664,107.39614878613212L46.22944444444445,109.42460304211663L46.77607638888889,112.03828224963605L47.40079861111111,126.53512516276064L47.47888888888889,131.77030747327822L47.556979166666665,140.20198392983454L47.86934027777778,128.5926405973206L48.650243055555556,120.87223853987274L48.72833333333333,124.35799140525948L48.88451388888889,126.99310686464962L49.196875,119.12668935224923L49.43114583333334,111.24379451135104L49.50923611111111,97.15563938057008L49.58732638888889,110.13336494586217L49.82159722222222,122.72198000562996L50.75868055555556,130.03403883584028L51.227222222222224,134.97527689580733L51.46149305555556,117.78075260427362L51.617673611111115,118.80551753942231L51.695763888888884,108.46437369885483L51.85194444444444,112.1290906673815L52.16430555555556,132.5809519533006L52.47666666666667,135.536525788527L52.632847222222225,133.31585326351004L53.023298611111116,126.41155051325129L54.1165625,101.85728190621352L54.50701388888889,82.33462034631145L54.58510416666666,83.38005136828644L54.897465277777776,98.62757811773432L54.97555555555556,124.42406600611574L55.28791666666666,116.7001074307988L55.36600694444444,123.80031089507517L55.5221875,123.62118938876972L55.756458333333335,132.9892557818519L56.14690972222222,133.99662896745366L56.225,122.4576239869175L56.30309027777778,117.50673753530845L56.69354166666667,121.44316272444166L56.771631944444444,124.18420145813606L56.84972222222222,137.7765981549262L57.08399305555555,156.40032727684013L57.78680555555555,136.72950726250073L57.94298611111111,125.5964036077217L58.41152777777778,144.66444011270738L58.880069444444445,141.01534381949742L58.95815972222222,135.1919783976307L59.42670138888889,143.06681596199456L59.66097222222223,126.4988409457194L59.973333333333336,143.1579585956089L60.285694444444445,145.54817671099616L60.441874999999996,130.00567617725918L60.75423611111111,134.87459235019438L60.83232638888889,152.4826964296517L60.91041666666667,141.42596373305423L61.06659722222223,132.9980194529635L61.45704861111111,134.5728543675388L61.847500000000004,139.33116103866368L61.92559027777777,136.19449735080403L62.003680555555555,116.72709453341486L63.17503472222222,98.34893964670371L63.721666666666664,103.59935935105246L64.19020833333333,121.75921205142356L64.2682986111111,120.36365159427652L64.42447916666666,104.42747180506898L64.58065972222222,106.12743779924695L64.89302083333334,121.32937958781231L65.59583333333333,113.81547022428697L65.7520138888889,103.90159921983832L65.83010416666667,99.94936190330954L66.064375,104.45721946527942L66.53291666666667,102.15113241893285L67.1576388888889,96.73679148806471L67.23572916666667,106.94477180035915L67.47,87.87740480537421L67.54809027777777,89.29982478401185L68.25090277777778,82.51309844840239L68.32899305555556,98.65760056965753L69.18798611111112,121.15499325867418L69.42225694444444,129.91712831423237L69.50034722222223,119.34049304107161L69.65652777777778,107.81793252098163L69.81270833333333,96.40967533271073L70.90597222222223,102.2446871118579L71.29642361111111,94.70254291992389L71.45260416666666,92.45145082414747L71.686875,97.41097480023265L71.84305555555555,90.26137930133557L72.23350694444444,96.5894491194404L72.31159722222223,90.59670392982463L72.78013888888889,91.1749937195319L72.93631944444444,81.47082436434852L73.01440972222223,89.67664497108714L73.17059027777778,84.99339268810424L73.24868055555555,107.63031095985691L73.48295138888889,106.51370162203384L73.63913194444444,115.6679482724337L74.02958333333332,111.718637911443L74.10767361111111,110.20759139535669L74.81048611111112,91.5346840267053L74.96666666666667,94.57085306910696L75.27902777777778,97.01089129130851L75.35711805555556,107.3213293271113L75.43520833333332,95.25236136417678L75.74756944444444,101.4183918041056L76.05993055555555,111.31050907981786L76.13802083333333,102.19289710171455L76.37229166666667,105.47338336734435L76.52847222222222,76.55133694427288L76.60656250000001,92.18645632277175L76.68465277777779,99.14643502241519L76.76274305555556,87.58767614368286L76.84083333333332,78.24568646910005L76.91892361111113,85.46262030459769L77.07510416666666,81.83236691151457L77.15319444444444,78.0563085245752L77.54364583333333,83.18018328950784L77.6217361111111,76.94117016676653L77.93409722222222,75.06531665971033L78.16836805555556,92.85041326433509L78.3245486111111,92.81685962766463L78.79309027777778,88.96591946178708L78.94927083333333,100.67588111575863L79.33972222222222,105.9542100180174L79.65208333333334,100.65114847117576L79.73017361111111,105.29090804632851L79.88635416666666,82.49697365031449L80.8234375,90.5838316539872L81.37006944444444,88.35540460705451L81.44815972222221,77.25294194912729L81.60434027777778,68.84961350140462L81.68243055555556,68.29560639487198L81.76052083333333,65.39311124102169L81.8386111111111,80.23773648271496L81.99479166666667,102.16609798627816L82.2290625,87.12174524520469L82.54142361111111,99.93012931737086L82.61951388888889,84.27976099725235L82.93187499999999,76.60703085706038L83.16614583333333,88.10519524124506L83.47850694444445,76.30900101487187L83.71277777777777,73.89490065946784L83.79086805555556,69.56156854614379L83.86895833333334,73.64313039055324L83.94704861111111,85.05122013611116L84.02513888888889,72.74472431971141L84.18131944444445,88.15680296202602L84.25940972222222,77.82501841175619L84.33749999999999,83.06150701396501L84.57177083333333,90.8436902567913L84.64986111111111,89.7544499757987L84.72795138888888,99.47901532191642L84.88413194444445,112.78219431721335L85.0403125,103.39310520936944L85.11840277777777,89.99167045384581L85.66503472222223,80.36421287316048L85.89930555555556,70.9705788389323L86.21166666666666,88.47056528898942L86.4459375,92.23935819252054L86.60211805555556,86.08219102969004L86.75829861111112,77.87054005831617L87.07065972222223,70.50768651706066L87.38302083333333,89.10010542358212L87.61729166666666,78.03678289583479L87.69538194444445,89.71647629458403L87.77347222222222,90.04515772651848L87.8515625,71.18570337051881L88.32010416666667,87.14407983037673L88.78864583333333,84.60426737435364L88.94482638888888,84.71140277128042L89.02291666666666,87.06728596532713L89.33527777777778,75.79264187243204L89.56954861111112,73.84456296817436L89.64763888888889,67.35201621088966L89.88190972222223,84.8130614699935L89.96000000000001,94.94490862739175L90.03809027777777,93.44596767933422L90.19427083333333,106.62129267758877L90.35045138888889,91.196031598489L90.81899305555555,84.0915180613044L91.05326388888889,79.76854821261426L91.13135416666667,83.54784476886186L91.36562500000001,90.60278009253734L91.44371527777778,94.10332710074182L91.52180555555555,104.21157574967617L91.67798611111111,104.03044763991878L91.75607638888889,83.67114045494583L92.22461805555555,96.21220641299358L92.53697916666667,110.95291869619054L92.61506944444444,83.26754103170968L92.77125000000001,85.15343612472499L92.92743055555556,74.10751519227198L93.08361111111111,66.0742987848769L93.16170138888889,68.79734990939203L93.23979166666666,79.34011511769712L93.31788194444444,78.50666637877715L93.39597222222221,63.67882308757365L93.63024305555555,66.7949314558271L93.78642361111112,68.80355081819077L93.94260416666667,73.09346450485339L94.17687500000001,73.22136898706881L94.33305555555556,77.04327458066062L94.41114583333332,64.17824109746408L94.48923611111113,71.4008691927993L94.95777777777778,62.38704335815926L95.03586805555555,65.89570040778646L95.1920486111111,82.74535235927303L95.42631944444445,72.39231006601929L95.73868055555556,64.6000175255506L95.97295138888889,78.44760069715791L96.20722222222221,68.82314914147742L96.2853125,80.57655926752498L96.44149305555555,98.13249222164399L96.5976736111111,73.96814752653272L96.75385416666667,72.52566784045115L97.14430555555556,78.16978633058673L97.3785763888889,77.26409697325592L97.53475694444444,77.93658395881396L98.70611111111111,61.630117656439225L99.01847222222221,61.34418014386277L99.17465277777778,56.22425635873668L99.25274305555556,46.79554450642701L99.56510416666667,73.53548358757277L99.72128472222222,71.08600730227818L99.799375,88.14290943460098L100.03364583333334,84.17595078180094L100.18982638888889,92.9356811024538L100.34600694444444,92.86621627675245L100.58027777777777,94.32316802422254L100.73645833333333,62.92986430215862L100.8145486111111,62.2008850424768L100.97072916666667,63.40480662878045L101.28309027777777,67.24861572680288L101.59545138888889,73.10161817370299L102.14208333333333,68.95521133123903L102.22017361111111,75.39764445411602L102.29826388888888,88.1760795199122L102.37635416666667,86.94918705721177L102.53253472222222,86.72401025116135L102.76680555555556,80.80789294373805L102.84489583333334,89.23382697422392L102.92298611111111,85.54479055356433L103.15725694444446,82.48882283420237L103.23534722222223,84.87550425321382L103.31343749999999,96.93326328867985L103.39152777777777,87.03559008046574L104.01625,75.48130432846898L104.09434027777777,85.04721617747997L104.32861111111112,98.42471027999905L104.87524305555554,89.32366254705063L105.10951388888888,94.20140148864904L105.73423611111112,111.79907442132665L105.81232638888889,96.22339547276515L105.96850694444446,87.76179510712636L106.04659722222223,89.99202286219605L106.12468750000001,88.54824528107648L106.35895833333333,91.54265382891654L106.43704861111111,74.68766164187052L106.59322916666666,87.13396854045068L106.74940972222223,84.81906531359L107.13986111111112,96.19561322394156L107.21795138888889,83.68021278299773L107.53031250000001,83.88367169331245L107.60840277777777,82.06024910945136L107.68649305555554,73.74963227473759L107.76458333333333,65.77306940295139L107.99885416666666,73.21410092197559L108.07694444444444,55.47996462871255L108.15503472222223,55.183958896932765L108.38930555555555,45.67505078848464L108.46739583333333,79.51135237417378L109.09211805555555,86.70715206504919L109.40447916666666,79.68579515004788L109.56065972222223,78.98968317618746L109.71684027777778,79.25257681912647L109.79493055555555,70.43096762362997L110.0292013888889,67.8555717555516L110.26347222222223,68.40752038287118L110.34156250000001,79.38550813750619L110.41965277777778,87.37038972232459L110.49774305555556,67.07125605496002L110.73201388888889,62.084337838603446L111.35673611111112,71.52108357436263L111.51291666666667,80.30612746528865L111.66909722222222,57.83698892386009L111.82527777777779,60.53957733983546L111.90336805555556,65.85996814653126L112.13763888888889,56.77846514037162L112.29381944444444,73.5345958045179L112.45,76.50407149619193L112.8404513888889,86.78059252635435L113.38708333333334,80.94941033444285L113.4651736111111,79.17328753186155L113.69944444444444,83.9018020517402L113.855625,89.07211145679788L114.32416666666667,74.66987974000357L114.40225694444445,73.78796593280065L114.5584375,67.88535377938406L114.71461805555556,58.29296899771009L115.02697916666666,64.51421864590235L115.33934027777778,65.31988589621298L115.49552083333333,86.68326758537715L115.88597222222222,67.9884121608378L115.9640625,61.22764890144117L116.04215277777779,79.55121663063672L116.58878472222221,73.94428555279914L116.66687499999999,63.77270402973856L117.13541666666667,72.18552000800355L117.44777777777779,65.28019277739277L117.52586805555556,62.79558651738019L117.60395833333334,79.00877268965631L118.30677083333333,84.90656216058485L118.46295138888888,67.8308513111672L118.69722222222222,63.902482649493265L119.16576388888889,53.84628740597253L119.24385416666668,55.511702106287984L119.55621527777777,70.60658228748493L119.79048611111111,58.70163978548912L119.86857638888888,46.761790224385635L119.94666666666667,43.52452487258455L120.1809375,37.86975002591814L121.03993055555556,53.99253759565954L121.27420138888888,66.39583846201303L121.50847222222222,59.488174738107915L121.5865625,69.57356239653755L121.66465277777777,78.09090486345964L121.89892361111112,75.4984437893526L121.97701388888889,67.84103479806757L122.05510416666667,58.71972260966406L123.22645833333334,44.05023835953773L123.46072916666667,58.86072112832487L123.61690972222223,60.668979845726625L123.69500000000001,58.634261883666625L123.85118055555554,70.54425239406262L123.92927083333333,68.84742915536309L124.16354166666666,68.32601970377766L124.3978125,73.93785545792105L124.47590277777778,73.78425627688121L124.63208333333334,52.749669848320224L124.78826388888889,59.099630176089605L124.94444444444444,76.31328288260839L125.10062500000001,63.370868703983675L125.33489583333333,63.85633930043129L125.49107638888889,70.87490656659452L125.64725694444444,74.22064971140296L125.8034375,75.50976569182436L125.95961805555555,73.20344117120958L126.11579861111112,72.27320246002706L126.89670138888889,52.87983043254398L127.2090625,64.1279129580318L127.52142361111112,72.19110532973166L127.5995138888889,71.34995439275478L127.67760416666667,66.86637573614347L127.83378472222223,62.01667066320557L128.06805555555556,84.98946482482422L128.3023263888889,68.47466465558334L128.45850694444445,53.40336332753732L128.6927777777778,78.00007712862156L129.16131944444444,76.08581049454963L129.3175,74.2374569965169L129.47368055555555,86.29180245356352L129.55177083333334,82.87319179032202L129.78604166666668,78.03779015334817L129.86413194444444,83.6603656971L129.94222222222223,68.075320813867L130.17649305555557,58.4024232589081L130.80121527777777,62.95645379798857L131.19166666666666,67.15891220436836L131.3478472222222,80.0320689574858L131.8163888888889,71.54652921533469L132.12875,65.30780606374671L132.2068402777778,56.15368737522081L132.28493055555555,64.20555611695833L132.36302083333334,51.88997960237258L132.8315625,39.2375230559563L133.06583333333333,57.24487601332993L133.61246527777777,61.094628802616185L133.76864583333332,54.6661081502907L134.00291666666666,61.39945611894561L134.08100694444445,78.44396022284285L134.3152777777778,65.5612401206747L134.39336805555556,71.60932505365938L134.78381944444445,72.63551720521885L134.8619097222222,79.39092337216161L134.94,72.84256588891283L135.17427083333334,87.20988506957966L135.40854166666668,77.38048228552985L135.48663194444444,82.5866861518088L135.56472222222223,71.25757446145195L135.6428125,68.32829415950289L135.72090277777778,72.83915877433485L136.18944444444446,68.86074042375006L136.65798611111111,62.595965481132964L137.12652777777777,58.28611506004971L137.4388888888889,54.42504473316576L137.59506944444445,77.32873155348246L137.98552083333334,70.6001079897448L138.29788194444444,67.57308791997222L138.84451388888888,70.79250693870897L139.00069444444446,74.19405073257275L139.23496527777777,73.68843376834386L139.39114583333333,68.04014808058261L139.46923611111112,68.3983229763479L139.70350694444446,61.68741268915957L139.78159722222222,42.21087606551063L139.93777777777777,56.577780078660325L140.01586805555556,76.72553076196365L140.2501388888889,66.03157719283494L141.57767361111112,64.57803040927166L141.6557638888889,83.80424308887434L141.73385416666667,77.7239763028104L141.81194444444446,82.08038176814789L142.12430555555554,61.939631376982206L142.35857638888888,68.18578128476172L142.67093749999998,61.50223180329341L142.74902777777777,76.01113620207039L142.82711805555556,43.58823038819628L143.13947916666666,59.3198973398399L143.21756944444445,55.54019453889079L143.2956597222222,61.42378415325848L143.4518402777778,63.7146373728488L143.60802083333334,45.1145497643694L143.7642013888889,57.919927458986294L143.92038194444444,73.48522330583612L144.54510416666668,86.4249440149157L144.93555555555554,67.85735601876308L145.01364583333336,65.90416338857489L145.71645833333332,75.41100130567838L145.7945486111111,74.23865238481692L146.65354166666665,83.15110289844232L147.04399305555557,95.1943979489348L147.2782638888889,87.53120260402807L147.35635416666668,96.36530981639176L147.59062500000002,89.5152292619893L147.74680555555557,71.1661536676138L147.82489583333336,44.28665817871385L148.44961805555553,45.40155834612068L148.52770833333332,59.58799914513125L148.6057986111111,57.76536790129002L148.68388888888887,67.55383102653296L148.9181597222222,66.14663403366725L149.07434027777776,51.43304575165939L149.15243055555555,45.75098323035738L149.23052083333334,62.52890710358918L149.85524305555555,56.98214563325105L150.24569444444447,68.46743811723623L150.32378472222223,49.92211991284509L150.55805555555557,45.82335373004804L151.10468749999998,72.32112482333498L151.26086805555553,73.54104057040401L152.04177083333335,65.62951514176478L152.43222222222224,45.71155201823683L152.5103125,46.08285183567506L152.66649305555555,60.66717639481246L152.74458333333334,61.693572431297426L153.21312500000002,61.13535084098059L153.29121527777778,58.79658888441017L153.75975694444446,68.74981862700997L153.83784722222225,69.05717529295097L154.54065972222222,52.099733993042776L154.85302083333332,69.48468056001023L155.0092013888889,64.44667855905146L155.3215625,67.58238947395472L156.02437500000002,61.34095308783046L156.18055555555557,51.63827221156592L156.4148263888889,49.992309692868204L156.57100694444446,62.405138184647925L156.6490972222222,74.58223084808661L157.0395486111111,68.18688786149784L157.27381944444443,64.06962118220783L157.66427083333332,52.42435003323831L157.8204513888889,60.949834376594296L158.1328125,52.58921247125916L158.28899305555555,45.220806845434L158.36708333333334,47.67471703792066L158.4451736111111,61.59093030038147L158.60135416666668,63.59246729458971L158.75753472222223,61.81118308690549L159.14798611111112,67.0137782644472L159.38225694444446,70.17868541188487L159.53843750000001,86.94958443944124L159.77270833333333,71.49879435005468L160.00697916666667,54.45807075084856L160.31934027777777,40.83488366354473L160.5536111111111,49.565018661910116L160.8659722222222,54.25534251218663L160.9440625,30.78023208907618L161.0221527777778,29.96388646204096L161.56878472222223,42.074603511326416L161.72496527777778,50.62639568652686L161.88114583333333,58.594899442231494L162.11541666666668,70.21122388031235L162.19350694444447,47.48997522584287L162.6620486111111,47.01112021918112L162.74013888888888,49.72941356846697L163.05249999999998,46.905410635167414L163.3648611111111,56.7679251120651L163.59913194444445,64.72615622795607L163.6772222222222,62.24861933777919L163.7553125,55.92362495654933L163.83340277777776,45.586369707549295L163.98958333333334,49.559196397283486L164.22385416666665,60.44766614712405L164.77048611111113,59.0147322408982L164.8485763888889,65.94699668840337L165.23902777777778,62.44132118198732L165.39520833333336,52.128363411268325L165.4732986111111,66.22550663986247L165.55138888888888,39.61297647737527L166.25420138888887,32.82854578842557L166.5665625,40.12917597263953L166.64465277777776,19.98851745825948L166.72274305555555,33.87703191937169L166.80083333333334,48.39107150853371L166.9570138888889,66.50182268035827L167.3474652777778,67.04306167967569L167.42555555555555,76.7151457822767L167.58173611111113,69.05359290578643L167.6598263888889,69.61212994181322L167.73791666666668,73.15196908428196L167.97218750000002,55.65728352614596L168.12836805555557,56.45581117956847L168.20645833333336,64.4494975309909L168.28454861111112,70.6164631665552L168.9873611111111,75.71299072628047L169.22163194444443,45.891425708084256L169.92444444444445,62.54280394264994L170.39298611111113,45.71246788471305L170.4710763888889,57.03531602364397L170.93961805555557,64.99152129496109L171.01770833333333,48.68892720702274L171.09579861111112,53.06958330489982L171.25197916666664,62.01250280629273L171.72052083333332,62.340334091727016L172.1890625,63.376941224422495L172.26715277777777,45.95890572100072L172.891875,42.06347781675569L172.9699652777778,46.062479962453324L173.20423611111113,57.285181253877354L173.43850694444444,59.46047506912177L173.75086805555557,69.03123499264495L173.90704861111112,55.285162575901595L174.2194097222222,63.21652665606801L174.68795138888888,57.1514338545302L175.0003125,69.92480494334096L175.07840277777777,81.82514678093074L175.3126736111111,57.55516136081387L175.46885416666666,41.730501260706035L175.703125,45.96946025273104L176.0154861111111,47.732112910633646L176.17166666666668,50.64311129229391L176.32784722222223,77.93963785396292L176.4059375,91.7141459311621L176.48402777777778,67.76377796683171L177.03065972222223,69.26384997101701L177.1868402777778,66.50768805582568L177.26493055555554,65.12073766612555L177.73347222222222,35.485023626229406L177.81156249999998,28.603034060323978L177.88965277777777,61.434170658066705L178.04583333333332,75.32742336671042L178.20201388888887,70.30327007341677L179.13909722222223,64.86258950929818L179.84190972222223,65.14510915935621L180.15427083333336,56.669785119656254L180.54472222222222,51.033636890389644L180.62281249999998,54.88758567722921L181.01326388888887,58.569084070636535L181.09135416666666,60.53124973923788L181.16944444444445,71.83369022459281L181.48180555555555,91.6963010242611L181.55989583333334,108.53345359629569L182.0284375,105.21014568368302L182.34079861111113,93.86837713217561L182.4188888888889,104.90447951731579L182.49697916666668,92.74911661969124L182.65315972222223,98.11676943317947L182.73125000000002,93.42587842950759L183.12170138888888,102.3743441963764L183.35597222222222,96.49783857253621L183.51215277777777,76.85050968877928L183.7464236111111,77.36144420237814L183.98069444444445,72.3527982636182L184.21496527777776,73.83156000398922L184.37114583333334,78.0069002438982L184.8396875,79.21688872154948L184.9177777777778,90.90548364863632L185.07395833333334,70.18947940198089L185.2301388888889,64.72052825169268L185.9329513888889,71.12055416510407L186.01104166666664,62.051963541542904L186.08913194444443,55.912904103777066L186.16722222222222,73.4459216357358L187.2604861111111,43.92578178412242L187.57284722222224,38.99070306877209L187.88520833333334,39.42765971577117L187.96329861111113,38.489810887312586L188.19756944444444,58.31861690481644L188.27565972222223,57.27741668105209L188.50993055555557,77.55945384192519L188.66611111111112,89.94130128436117L188.82229166666664,79.24734964259164L189.21274305555553,78.30275818280992L189.44701388888888,70.77923431737791L189.60319444444443,78.60473182644586L189.68128472222222,64.20892129448734L189.83746527777777,58.00685483281423L190.0717361111111,51.65965114870433L190.30600694444445,52.2078550746367L190.4621875,54.05914562286887L190.69645833333334,45.83866803253858L190.93072916666668,58.94001959803799L191.00881944444444,56.32114540960251L191.24309027777778,58.648127921973824L191.47736111111112,54.86858207497305L192.10208333333333,43.38407038756196L192.1801736111111,43.07711523239604L192.33635416666667,43.36627943196768L192.72680555555556,39.33969809340758L193.11725694444445,55.83259614543512L193.1953472222222,83.63316260121103L193.2734375,77.67161996568343L193.42961805555555,65.27528733852564L193.50770833333334,77.0745880057994L193.6638888888889,68.09918693605562L193.82006944444444,75.4556722158402L194.05434027777778,68.6181863376027L194.13243055555557,62.58770991733823L194.44479166666667,76.8553196750352L194.83524305555554,66.21188070549185L194.9914236111111,66.91396573885447L195.45996527777777,63.4481666070471L195.53805555555556,41.59099320067463L195.61614583333332,46.865926322302215L195.6942361111111,57.74209781704009L195.77232638888887,68.75823828111683L196.0065972222222,46.26292242128014L196.1627777777778,40.769749841203435L196.3970486111111,31.28060350484259L196.4751388888889,46.76459711591366L196.70940972222223,51.24487949490529L196.86559027777778,58.54283888983716L197.02177083333333,63.05840611367219L197.09986111111112,58.175992726736055L197.17795138888889,54.23315176931189L197.49031250000002,59.276094732088865L197.8026736111111,49.048268614651576L197.88076388888888,53.4746454468023L197.95885416666667,58.359079319873544L198.27121527777777,56.17653427042907L198.34930555555556,47.56477777670827L198.5054861111111,44.57447829551106L198.58357638888887,36.17620630685451L198.73975694444445,60.205919525766134L198.8178472222222,51.47904561861979L198.8959375,50.74118695798292L199.05211805555555,60.883277309791865L199.13020833333334,36.974417717967356L199.2863888888889,44.22260239822498L199.52065972222223,67.99538049163124L199.67684027777779,47.43958552516523L199.75493055555557,36.894316195470225L200.22347222222223,38.40672833861237L200.30156250000002,36.87669851268129L200.37965277777778,44.0531534426498L200.69201388888888,45.887673167770316L200.84819444444443,56.71092669271539L201.00437499999998,37.03274262012903L201.3167361111111,42.09807111061727L201.86336805555555,53.09157343648144L202.0976388888889,58.59044088090816L202.25381944444445,52.91120721796369L202.41,53.381812953348245L202.4880902777778,59.623050441381494L202.8004513888889,52.06494233014412L202.95663194444447,55.05112493635555L203.03472222222223,54.55455580116114L203.11281250000002,54.513359658484504L203.34708333333336,50.14646386657053L203.42517361111112,53.20189014407333L203.65944444444443,53.08937367994983L203.73753472222222,38.69233844995139L203.97180555555553,40.500274469373466L204.20607638888887,63.15364901418555L204.5184375,47.87836560127181L204.98697916666666,63.680899015170596L205.06506944444445,65.78154973453421L205.2993402777778,60.92299063364348L205.37743055555555,48.802739318368936L205.53361111111113,38.290497384165576L205.68979166666668,32.95586426359105L205.76788194444444,53.97747098983338L205.92406250000002,39.31205516803868L206.00215277777778,49.71052268593672L206.15833333333333,46.14026647477846L206.23642361111112,45.61956674855648L206.3145138888889,48.43749672771514L206.39260416666664,64.78845996022834L206.54878472222225,63.926234616998514L206.70496527777777,71.74631814608794L206.78305555555553,74.67510086566102L207.09541666666667,67.06876166027719L207.17350694444443,73.95551960087974L207.3296875,64.269028785331L207.56395833333332,56.868121613563844L207.7201388888889,57.465075725020014L207.9544097222222,54.21366362196272L208.89149305555557,58.02966945422925L209.20385416666667,59.41061009796404L209.43812499999999,36.778826533746354L209.82857638888888,40.447649967069395L209.98475694444443,37.89450270616706L210.21902777777777,39.473794774315934L210.68756944444445,33.4073249555243L210.7656597222222,37.59253162483057L210.9218402777778,45.838573803542175L211.1561111111111,56.81589545609839L211.39038194444444,46.75504983545713L211.46847222222223,52.85052985597474L211.5465625,41.51532912641059L212.24937500000001,36.40866884225187L212.3274652777778,36.11629008432379L212.40555555555554,41.72655826318356L212.48364583333333,47.099312278676535L212.63982638888888,46.112355907588324L212.79600694444443,48.28777993907278L213.03027777777777,53.720234663425344L213.42072916666666,41.42464937635572L213.5769097222222,42.831753026654184L213.655,49.26999564838998L213.7330902777778,54.72462305946701L213.81118055555555,53.879061219236604L214.43590277777778,52.202517913068164L215.13871527777775,44.10372765438848L215.52916666666667,53.41830272422487L216.15388888888887,58.82259117928898L216.23197916666666,49.56135187964291L216.46625,58.38152435076624L216.7786111111111,53.867688218667425L217.01288194444444,37.820972466417714L217.32524305555557,50.01201347348007L217.5595138888889,56.83135673902578L217.79378472222223,67.78472873867838L217.87187500000002,40.67199774564085L217.94996527777778,36.11789046514497L218.10614583333336,41.09518181555549L218.73086805555553,54.59531832500146L218.8870486111111,57.366320304655105L219.04322916666666,51.51020557438318L219.1994097222222,48.366536562174446L219.5898611111111,36.5940571215927L219.9803125,63.569625043104864L220.60503472222223,65.66439844562457L220.68312500000002,67.80198888417392L220.76121527777778,48.10799745581335L221.0735763888889,29.687679099212772L221.30784722222222,42.7035384101693L221.54211805555553,49.14141397017386L222.16684027777777,41.12653404675811L222.32302083333335,46.205012978332604L222.63538194444445,49.182702291737456L222.71347222222224,62.53234057946828L222.7915625,55.56132423474685L222.8696527777778,55.8555213665622L223.02583333333334,53.9496551785265L223.1820138888889,51.33009242018427L223.41628472222223,62.980919045212076L223.65055555555557,38.03855530142914L223.72864583333333,57.01232613158305L223.8848263888889,52.471193081331734L224.04100694444446,34.78143346678763L224.58763888888888,69.5276879511568L224.9,81.01391543402035L225.05618055555556,83.73854088457679L225.2123611111111,74.87959949774898L225.36854166666666,61.33704256178949L225.44663194444445,49.977198667299845L225.6028125,50.54585416732556L225.83708333333334,43.934572336782935L225.9932638888889,39.1355014429748L226.22753472222223,37.35105625309109L226.38371527777778,51.07263846109841L226.61798611111112,52.16096510237776L226.6960763888889,55.688504515566336L226.77416666666667,48.12663831620091L227.55506944444443,66.94724648182793L227.63315972222222,60.68684326997521L227.78934027777777,56.787585242933744L227.86743055555556,54.184490874020284L227.94552083333332,56.025765439634355L228.0236111111111,46.63126421020317L228.25788194444445,45.7055809023731L228.3359722222222,43.012430484458974L228.4921527777778,31.674979695895445L228.7264236111111,45.41315965009878L228.88260416666668,54.46993852945057L229.03878472222223,31.36846426303319L229.19496527777778,26.94044943556267L229.8977777777778,34.84859094563171L229.97586805555554,24.966777476924875L230.21013888888888,20.785923012052933L230.36631944444443,33.68550664660631L230.52249999999998,46.473790564997756L230.67868055555556,59.84386781386364L230.8348611111111,66.049780604433L230.91295138888887,42.08982757162505L231.1472222222222,45.26335335631046L231.6157638888889,48.776220600955924L231.69385416666668,45.73729200431896L232.00621527777778,27.919236202652456L232.24048611111112,36.017802226314075L232.47475694444447,29.180765311580387L232.63093750000002,38.394232488072845L232.70902777777775,28.662264940975234L233.02138888888888,46.22492194046862L233.33374999999998,48.46718144339499L233.56802083333332,54.155432652963256L233.6461111111111,35.29234926195926L233.72420138888887,68.4837501960515L233.80229166666666,44.408263726086574L234.0365625,29.48826304856013L234.3489236111111,42.564001988071595L234.50510416666665,31.102292961298474L234.81746527777779,42.61306990767659L234.89555555555557,32.018441972643984L235.05173611111113,52.530799160904195L235.1298263888889,53.012282222811265L235.52027777777778,48.4249201836013L235.7545486111111,34.68678602110285L235.83263888888888,42.534292867964155L235.98881944444443,52.38665016364196L236.14499999999998,40.814494024939165L236.30118055555553,50.08459039403607L236.37927083333332,45.9043885342694L236.61354166666666,50.38837898209195L236.69163194444445,55.82771866580546L236.8478125,52.74484061634958L237.08208333333334,60.14948769471894L237.1601736111111,48.21245929039631L237.31635416666666,53.170371415836286L237.78489583333334,45.49321500219264L238.01916666666668,49.91581998918865L238.25343750000002,61.3206685343648L238.33152777777778,45.690648481802015L238.6438888888889,66.81468106839411L239.11243055555553,46.86280904730171L240.12760416666666,41.100563755750755L240.4399652777778,34.188632935953166L240.59614583333334,26.31549148003583L240.98659722222223,26.545380045415868L241.22086805555557,56.50740283098335L241.37704861111112,68.41345857004232L241.68940972222225,44.46816021454276L242.07986111111111,55.992360199999496L242.39222222222222,44.274085215039065L242.70458333333332,32.37195345837293L242.93885416666666,40.65708555625923L243.64166666666668,42.919910835308144L244.11020833333333,13.438150576998197L244.8911111111111,14.668111498504487L244.96920138888888,45.71225040873858L245.04729166666667,35.00332113338098L245.2815625,39.2273985518967L245.35965277777777,49.35629952990742L245.75010416666666,48.41361319448785L245.9062847222222,37.32537767545122L246.21864583333334,34.06985998902164L246.2967361111111,52.62758589239981L246.3748263888889,61.83055458338305L246.45291666666668,56.2216510049775L246.53100694444444,63.989916007058326L246.60909722222223,49.86905041953119L246.6871875,41.18292476904506L247.31190972222223,49.254486836028775L247.54618055555554,65.16401748480362L248.01472222222222,61.31255817784049L248.32708333333332,60.889123751957285L249.1079861111111,51.25035421504917L249.1860763888889,40.54736397537198L249.26416666666668,59.78199983759286L249.81079861111112,53.03296759798266L250.20125000000002,55.115748614514686L250.43552083333336,51.23207185890962L250.59170138888888,58.882207836071785L250.66979166666667,46.55158368668563L250.74788194444443,53.44502876950263L250.82597222222222,54.82390028687094L251.13833333333332,49.54659004480703L251.76305555555555,37.311668631261966L251.84114583333334,49.620638392464144L252.07541666666665,49.107092083749706L252.23159722222223,49.369298494611684L252.3096875,42.12780742451815L252.46586805555557,34.768718711169186L252.85631944444447,51.02216197945573L253.40295138888888,41.36087902723489L253.55913194444443,50.29409234725675L253.79340277777777,63.113065332193614L253.94958333333332,64.42830060125554L254.3400347222222,42.92136260390973L254.57430555555555,35.379216900591246L254.8085763888889,28.336525399162866L255.5113888888889,41.52444996754792L255.58947916666668,44.81838392210284L255.82375000000002,63.09725038404633L256.05802083333333,44.91653658268078L256.2142013888889,41.92563615630405L256.29229166666664,34.57542259925799L256.7608333333333,44.27034699579593L256.9951041666667,42.196855686071586L257.0731944444444,50.58402379868217L257.229375,36.32882696698775L257.4636458333334,47.39123840517203L257.6198263888889,50.67570888630388L257.7760069444444,72.27319868583578L258.0102777777778,75.07060755598008L258.0883680555555,62.0982371527401L258.1664583333333,65.16702131977361L258.7130902777778,57.933500388566785L259.1035416666667,33.04032002645974L259.25972222222225,42.07712158416655L259.3378125,38.70506277593938L259.4159027777778,49.06170875378233L259.7282638888889,45.471244278834945L259.80635416666667,53.27600712972085L260.19680555555556,49.99351373551606L260.27489583333335,48.61240298294018L260.58725694444445,52.521413867133816L260.82152777777776,49.90400558975816L260.89961805555555,56.66512409608052L261.05579861111113,43.63924157476711L261.60243055555554,57.85038585577182L261.68052083333333,66.17259189554319L262.0709722222222,52.12224993150396L263.0080555555556,51.47978623533818L263.3985069444445,53.95517861738547L263.5546875,40.42589685854159L263.6327777777778,43.34578205070997L263.8670486111111,48.19777386738127L263.9451388888889,46.826841577012914L264.6479513888889,49.082926359247935L265.11649305555557,37.06369623331531L265.42885416666667,32.406814365317246" style="fill: none;" fill="none"></path></g></g></g></g><g opacity="0.2"><g><g><g><path stroke="rgb(204, 51, 17)" stroke-width="2px" d="M32.48555555555556,238.7121856212616L32.71982638888889,174.50113758444786L32.797916666666666,238.46605360507965L34.4378125,189.1660375893116L34.59399305555556,147.8640065342188L34.750173611111116,192.8051094710827L35.60916666666667,197.36234977841377L35.68725694444444,158.7174604833126L35.76534722222222,164.348099604249L36.39006944444444,132.5247359275818L36.624340277777776,161.31425611674786L36.85861111111112,136.93500123918056L36.93670138888889,178.59702542424202L37.01479166666666,139.49661254882812L37.09288194444444,117.40672565996647L37.483333333333334,177.41802088916302L38.186145833333335,180.1952614635229L38.6546875,173.41378636658192L39.27940972222222,104.12874475121497L39.51368055555555,68.9549446105957L39.591770833333335,138.7928205728531L40.13840277777778,132.26407125592232L40.37267361111111,111.69289961457251L40.52885416666667,147.4593472480774L41.153576388888894,135.23738399147987L41.38784722222222,163.55498850345612L41.465937499999995,130.89958414435387L42.168749999999996,136.97174169123173L42.324930555555554,117.95191124081612L42.403020833333336,142.79669903218746L42.48111111111111,138.8670927286148L43.027743055555554,140.88475808501244L43.418194444444445,124.8872584104538L43.574374999999996,126.67204521596432L43.65246527777777,139.96288396418095L43.96482638888889,139.32285368442535L44.35527777777777,98.74182432889937L44.433368055555555,124.84678588807583L44.66763888888889,118.30453254282475L45.136180555555555,119.2018910497427L45.21427083333333,124.79266427457333L45.37045138888889,139.04693104326725L45.60472222222222,148.44326868653297L45.76090277777777,91.67847901582716L45.838993055555555,132.51791797578335L45.99517361111111,129.57312986254692L46.151354166666664,78.94934982061386L46.22944444444445,112.46728442609309L46.77607638888889,115.958801060915L47.40079861111111,148.28038953244686L47.47888888888889,139.6230809390545L47.556979166666665,152.84949861466885L47.86934027777778,111.17862559854983L48.650243055555556,109.291635453701L48.72833333333333,129.58662070333958L48.88451388888889,130.94578005373478L49.196875,107.32706308364867L49.43114583333334,99.4194522500038L49.50923611111111,76.02340668439865L49.58732638888889,129.59995329380035L49.82159722222222,141.6049025952816L50.75868055555556,141.00212708115578L51.227222222222224,142.38713398575783L51.46149305555556,91.9889661669731L51.617673611111115,120.34266494214535L51.695763888888884,92.95265793800353L51.85194444444444,117.62616612017155L52.16430555555556,163.25874388217926L52.47666666666667,139.96988654136658L52.632847222222225,129.98484447598457L53.023298611111116,116.05509638786316L54.1165625,65.02587899565697L54.50701388888889,53.05062800645828L54.58510416666666,84.94819790124893L54.897465277777776,121.49886824190617L54.97555555555556,163.1187978386879L55.28791666666666,105.1141695678234L55.36600694444444,134.4506160914898L55.5221875,123.35250712931156L55.756458333333335,147.04135537147522L56.14690972222222,135.50768874585629L56.225,105.14911651611327L56.30309027777778,110.08040785789488L56.69354166666667,127.34780050814152L56.771631944444444,128.29575955867767L56.84972222222222,158.1651932001114L57.08399305555555,184.33592095971107L57.78680555555555,107.22327724099158L57.94298611111111,108.89674812555312L58.41152777777778,173.26649487018585L58.880069444444445,135.54169937968254L58.95815972222222,126.45693026483059L59.42670138888889,154.87907230854034L59.66097222222223,101.6468784213066L59.973333333333336,168.14663507044315L60.285694444444445,149.13350388407707L60.441874999999996,106.69192537665366L60.75423611111111,142.1779666095972L60.83232638888889,178.89485254883766L60.91041666666667,124.84086468815804L61.06659722222223,120.35610303282738L61.45704861111111,136.93510673940182L61.847500000000004,146.46862104535103L61.92559027777777,131.48950181901455L62.003680555555555,87.52599030733109L63.17503472222222,70.78170731663704L63.721666666666664,111.4749889075756L64.19020833333333,148.9989911019802L64.2682986111111,118.27031090855598L64.42447916666666,80.52320212125778L64.58065972222222,108.67738679051398L64.89302083333334,144.1322922706604L65.59583333333333,102.54460617899893L65.7520138888889,89.03079271316527L65.83010416666667,94.02100592851637L66.064375,111.2190058082342L66.53291666666667,98.6920018494129L67.1576388888889,88.61528009176253L67.23572916666667,122.25674226880074L67.47,59.27635431289673L67.54809027777777,91.43345475196837L68.25090277777778,72.33300894498825L68.32899305555556,122.87435375154018L69.18798611111112,154.90108229219913L69.42225694444444,143.06033089756966L69.50034722222223,103.47554013133048L69.65652777777778,90.53409174084662L69.81270833333333,79.29728955030441L70.90597222222223,110.9972047805786L71.29642361111111,83.38932663202286L71.45260416666666,89.07481268048285L71.686875,104.85026076436041L71.84305555555555,79.53698605298996L72.23350694444444,106.08155384659766L72.31159722222223,81.607586145401L72.78013888888889,92.04242840409277L72.93631944444444,66.91457033157349L73.01440972222223,101.98537588119505L73.17059027777778,77.96851426362991L73.24868055555555,141.585688367486L73.48295138888889,104.83878761529921L73.63913194444444,129.39931824803352L74.02958333333332,105.79467236995696L74.10767361111111,107.94102162122725L74.81048611111112,63.52532297372818L74.96666666666667,99.12510663270949L75.27902777777778,100.67094862461089L75.35711805555556,122.7869863808155L75.43520833333332,77.14890941977501L75.74756944444444,110.66743746399878L76.05993055555555,126.14868499338627L76.13802083333333,88.51647913455962L76.37229166666667,110.39411276578902L76.52847222222222,33.16826730966568L76.60656250000001,115.6391353905201L76.68465277777779,109.58640307188033L76.76274305555556,70.24953782558441L76.84083333333332,64.2327019572258L76.91892361111113,96.28802105784415L77.07510416666666,76.38698682188988L77.15319444444444,72.39222094416618L77.54364583333333,90.8659954369068L77.6217361111111,67.58265048265457L77.93409722222222,72.25153639912605L78.16836805555556,119.52805817127228L78.3245486111111,92.7665291726589L78.79309027777778,83.18950921297073L78.94927083333333,118.24082359671593L79.33972222222222,113.8717033714056L79.65208333333334,92.69655615091322L79.73017361111111,112.2505474090576L79.88635416666666,48.30607205629349L80.8234375,102.7141186594963L81.37006944444444,85.01276403665543L81.44815972222221,60.599247962236404L81.60434027777778,56.24462082982063L81.68243055555556,67.46459573507309L81.76052083333333,61.03936851024628L81.8386111111111,102.50467434525488L81.99479166666667,135.05864024162292L82.2290625,64.55521613359451L82.54142361111111,119.14270542562008L82.61951388888889,60.804208517074585L82.93187499999999,65.09793564677238L83.16614583333333,105.35244181752203L83.47850694444445,58.61470967531204L83.71277777777777,70.27375012636185L83.79086805555556,63.06157037615776L83.86895833333334,79.76547315716743L83.94704861111111,102.16335475444792L84.02513888888889,54.28498059511185L84.18131944444445,111.274920925498L84.25940972222222,62.327341586351395L84.33749999999999,90.91623991727828L84.57177083333333,102.5169651210308L84.64986111111111,88.12058955430984L84.72795138888888,114.06586334109306L84.88413194444445,132.73696281015873L85.0403125,89.3094715476036L85.11840277777777,69.88951832056046L85.66503472222223,65.92302650213242L85.89930555555556,56.88012778759003L86.21166666666666,114.72054496407509L86.4459375,97.89254754781722L86.60211805555556,76.84644028544426L86.75829861111112,65.55306360125542L87.07065972222223,59.46340620517731L87.38302083333333,116.9887337833643L87.61729166666666,61.441799104213715L87.69538194444445,107.23601639270781L87.77347222222222,90.53817987442015L87.8515625,42.89652183651924L88.32010416666667,111.08164452016352L88.78864583333333,80.79454869031906L88.94482638888888,84.87210586667061L89.02291666666666,90.60111075639723L89.33527777777778,58.88067573308945L89.56954861111112,70.9224446117878L89.64763888888889,57.613196074962616L89.88190972222223,111.00462935864924L89.96000000000001,110.14267936348914L90.03809027777777,91.19755625724791L90.19427083333333,126.38428017497063L90.35045138888889,68.05813997983932L90.81899305555555,73.4347477555275L91.05326388888889,73.28409343957901L91.13135416666667,89.21678960323332L91.36562500000001,101.1851830780506L91.44371527777778,99.35414761304854L91.52180555555555,119.37394872307777L91.67798611111111,103.75875547528265L91.75607638888889,53.13217967748642L92.22461805555555,115.02380535006523L92.53697916666667,133.06398712098598L92.61506944444444,41.7394745349884L92.77125000000001,87.9822787642479L92.92743055555556,57.53863379359245L93.08361111111111,54.024474173784256L93.16170138888889,72.8819265961647L93.23979166666666,95.15426293015479L93.31788194444444,77.25649327039719L93.39597222222221,41.43705815076828L93.63024305555555,71.46909400820732L93.78642361111112,71.8164798617363L93.94260416666667,79.52833503484726L94.17687500000001,73.413225710392L94.33305555555556,82.77613297104836L94.41114583333332,44.88069087266922L94.48923611111113,82.23481133580208L94.95777777777778,48.866304606199265L95.03586805555555,71.15868598222733L95.1920486111111,108.01983028650282L95.42631944444445,56.86274662613869L95.73868055555556,52.911578714847565L95.97295138888889,99.21897545456885L96.20722222222221,54.386471807956696L96.2853125,98.20667445659636L96.44149305555555,124.4663916528225L96.5976736111111,37.72163048386574L96.75385416666667,70.36194831132889L97.14430555555556,86.63596406579018L97.3785763888889,75.90556293725967L97.53475694444444,78.94531443715096L98.70611111111111,37.170418202877045L99.01847222222221,60.91527387499809L99.17465277777778,48.54437068104744L99.25274305555556,32.652476727962494L99.56510416666667,113.64539220929146L99.72128472222222,67.41179287433624L99.799375,113.72826263308525L100.03364583333334,78.22551280260086L100.18982638888889,106.07527658343314L100.34600694444444,92.76201903820036L100.58027777777777,96.50859564542769L100.73645833333333,15.839908719062805L100.8145486111111,61.1074161529541L100.97072916666667,65.21068900823593L101.28309027777777,73.01432937383652L101.59545138888889,81.88112184405327L102.14208333333333,62.73560106754303L102.22017361111111,85.06129413843155L102.29826388888888,107.34373211860655L102.37635416666667,85.10884836316109L102.53253472222222,86.38624504208565L102.76680555555556,71.93371698260307L102.84489583333334,101.87272801995276L102.92298611111111,80.011235922575L103.15725694444446,77.90487125515938L103.23534722222223,88.45552638173103L103.31343749999999,115.01990184187889L103.39152777777777,72.18908026814461L104.01625,58.149875700473785L104.09434027777777,99.39608395099638L104.32861111111112,118.49095143377781L104.87524305555554,75.67209094762802L105.10951388888888,101.51800990104674L105.73423611111112,138.19558382034302L105.81232638888889,72.85987704992294L105.96850694444446,75.06939455866814L106.04659722222223,93.33736449480055L106.12468750000001,86.38257890939713L106.35895833333333,96.03426665067671L106.43704861111111,49.40517336130142L106.59322916666666,105.80342888832091L106.74940972222223,81.34671047329903L107.13986111111112,113.26043508946896L107.21795138888889,64.90711212158203L107.53031250000001,84.18886005878448L107.60840277777777,79.32511523365974L107.68649305555554,61.28370702266693L107.76458333333333,53.808225095272064L107.99885416666666,84.37564820051193L108.07694444444444,28.878760188817978L108.15503472222223,54.739950299263L108.38930555555555,31.41168862581253L108.46739583333333,130.26580475270748L109.09211805555555,97.50085160136221L109.40447916666666,69.15375977754593L109.56065972222223,77.94551521539688L109.71684027777778,79.646917283535L109.79493055555555,57.19855383038521L110.0292013888889,63.99247795343399L110.26347222222223,69.23544332385063L110.34156250000001,95.85248976945876L110.41965277777778,99.34771209955214L110.49774305555556,36.62255555391312L110.73201388888889,54.6039605140686L111.35673611111112,85.6762021780014L111.51291666666667,93.48369330167769L111.66909722222222,24.133281111717224L111.82527777777779,64.59345996379852L111.90336805555556,73.84055435657501L112.13763888888889,43.156210631132126L112.29381944444444,98.66879180073737L112.45,80.95828503370285L112.8404513888889,102.19537407159804L113.38708333333334,72.20263704657555L113.4651736111111,76.50910332798958L113.69944444444444,90.99457383155821L113.855625,96.82757556438445L114.32416666666667,53.06653216481209L114.40225694444445,72.46509522199631L114.5584375,59.031435549259186L114.71461805555556,43.90439182519913L115.02697916666666,73.84609311819077L115.33934027777778,66.52838677167892L115.49552083333333,118.72834011912346L115.88597222222222,39.94612902402878L115.9640625,51.08650401234627L116.04215277777779,107.03656822443007L116.58878472222221,65.53388893604279L116.66687499999999,48.515331745147705L117.13541666666667,84.80474397540092L117.44777777777779,54.92220193147659L117.52586805555556,59.0686771273613L117.60395833333334,103.32855194807051L118.30677083333333,93.75324636697768L118.46295138888888,42.21728503704071L118.69722222222222,58.00992965698242L119.16576388888889,38.761994540691376L119.24385416666668,58.00982415676117L119.55621527777777,93.24890255928038L119.79048611111111,40.8442260324955L119.86857638888888,28.852015882730484L119.94666666666667,38.668626844882965L120.1809375,29.387587755918503L121.03993055555556,78.1767189502716L121.27420138888888,85.00078976154327L121.50847222222222,49.12667915225029L121.5865625,84.70164388418198L121.66465277777777,90.86691856384276L121.89892361111112,71.60975217819214L121.97701388888889,56.35492131114006L122.05510416666667,45.03775432705879L123.22645833333334,22.046011984348297L123.46072916666667,81.07644528150558L123.61690972222223,63.381367921829224L123.69500000000001,55.58218494057655L123.85118055555554,88.40923815965652L123.92927083333333,66.30219429731369L124.16354166666666,67.54390552639961L124.3978125,82.35560908913612L124.47590277777778,73.5538575053215L124.63208333333334,21.197790205478668L124.78826388888889,68.62457066774368L124.94444444444444,102.13376194238661L125.10062500000001,43.9572474360466L125.33489583333333,64.58454519510269L125.49107638888889,81.40275746583939L125.64725694444444,79.23926442861557L125.8034375,77.44343966245651L125.95961805555555,69.7439543902874L126.11579861111112,70.87784439325333L126.89670138888889,23.789772391319275L127.2090625,81.0000367462635L127.52142361111112,84.28589388728142L127.5995138888889,70.08822798728943L127.67760416666667,60.141007751226425L127.83378472222223,54.742113053798676L128.06805555555556,119.44865606725216L128.3023263888889,43.702464401721954L128.45850694444445,30.796411335468292L128.6927777777778,114.89514783024788L129.16131944444444,73.21441054344177L129.3175,71.46492674946785L129.47368055555555,104.37332063913344L129.55177083333334,77.74527579545975L129.78604166666668,70.78468769788742L129.86413194444444,92.09422901272772L129.94222222222223,44.69775348901749L130.17649305555557,43.8930769264698L130.80121527777777,69.78749960660934L131.19166666666666,73.46259981393814L131.3478472222222,99.341804087162L131.8163888888889,58.818219602108L132.12875,55.949721336364746L132.2068402777778,42.42250934243202L132.28493055555555,76.28335922956467L132.36302083333334,33.41661483049393L132.8315625,20.25883823633194L133.06583333333333,84.25590544939041L133.61246527777777,66.86925798654556L133.76864583333332,45.02332717180252L134.00291666666666,71.49947807192802L134.08100694444445,104.0107163786888L134.3152777777778,46.237159967422485L134.39336805555556,80.68145245313644L134.78381944444445,74.17480543255806L134.8619097222222,89.52403262257575L134.94,63.02002966403961L135.17427083333334,108.76086384057997L135.40854166666668,62.63637810945511L135.48663194444444,90.39599195122717L135.56472222222223,54.26390692591667L135.6428125,63.93437370657921L135.72090277777778,79.6054556965828L136.18944444444446,62.893112897872925L136.65798611111111,53.198803067207336L137.12652777777777,51.821339428424835L137.4388888888889,48.63343924283981L137.59506944444445,111.68426178395747L137.98552083333334,60.507172644138336L138.29788194444444,63.03255781531334L138.84451388888888,75.62163546681404L139.00069444444446,79.29636642336845L139.23496527777777,72.9300083220005L139.39114583333333,59.56771954894066L139.46923611111112,68.93558531999588L139.70350694444446,51.621047258377075L139.78159722222222,12.996071130037308L139.93777777777777,78.12813609838486L140.01586805555556,106.94715678691863L140.2501388888889,49.990646839141846L141.57767361111112,62.39771023392677L141.6557638888889,112.64356210827826L141.73385416666667,68.60357612371445L141.81194444444446,88.61498996615408L142.12430555555554,31.728505790233612L142.35857638888888,77.55500614643097L142.67093749999998,51.47690758109093L142.74902777777777,97.77449280023573L142.82711805555556,-5.046128332614899L143.13947916666666,82.91739776730537L143.21756944444445,49.870640337467194L143.2956597222222,70.24916857481003L143.4518402777778,67.15091720223427L143.60802083333334,17.214418351650238L143.7642013888889,77.12799400091171L143.92038194444444,96.83316707611083L144.54510416666668,105.83452507853507L144.93555555555554,40.005974024534225L145.01364583333336,62.97437444329262L145.71645833333332,89.67125818133353L145.7945486111111,72.48012900352478L146.65354166666665,96.51977866888045L147.04399305555557,113.25934052467346L147.2782638888889,76.03640958666801L147.35635416666668,109.61647063493727L147.59062500000002,79.24010843038559L147.74680555555557,43.64254027605057L147.82489583333336,3.9674149453639984L148.44961805555553,47.07390859723091L148.52770833333332,80.867660343647L148.6057986111111,55.03142103552818L148.68388888888887,82.23652571439743L148.9181597222222,64.03583854436874L149.07434027777776,29.362663328647614L149.15243055555555,37.22788944840431L149.23052083333334,87.69579291343689L149.85524305555555,48.66200342774391L150.24569444444447,85.69537684321404L150.32378472222223,22.104142606258392L150.55805555555557,39.67520445585251L151.10468749999998,112.0677814632654L151.26086805555553,75.37091419100761L152.04177083333335,53.762226998806L152.43222222222224,15.83460733294487L152.5103125,46.63980156183243L152.66649305555555,82.5436632335186L152.74458333333334,63.23316648602486L153.21312500000002,60.29801845550537L153.29121527777778,55.28844594955444L153.75975694444446,83.67966324090958L153.83784722222225,69.51821029186249L154.54065972222222,26.663572043180466L154.85302083333332,95.56210041046141L155.0092013888889,56.88967555761337L155.3215625,72.28595584630966L156.02437500000002,51.978798508644104L156.18055555555557,37.08425089716911L156.4148263888889,47.523365914821625L156.57100694444446,81.0243809223175L156.6490972222222,92.84786984324454L157.0395486111111,58.593873381614685L157.27381944444443,57.89372116327286L157.66427083333332,34.956443309783936L157.8204513888889,73.73806089162827L158.1328125,40.048279613256454L158.28899305555555,34.16819840669632L158.36708333333334,51.35558232665062L158.4451736111111,82.46525019407272L158.60135416666668,66.59477278590202L158.75753472222223,59.13925677537918L159.14798611111112,74.81767103075981L159.38225694444446,74.92604613304138L159.53843750000001,112.10593298077582L159.77270833333333,48.32260921597481L160.00697916666667,28.896985352039337L160.31934027777777,20.40010303258896L160.5536111111111,62.66022115945816L160.8659722222222,61.29082828760147L160.9440625,-4.432433545589447L161.0221527777778,28.73936802148819L161.56878472222223,60.24067908525467L161.72496527777778,63.45408394932747L161.88114583333333,70.5476550757885L162.11541666666668,87.63571053743362L162.19350694444447,13.408102244138718L162.6620486111111,46.29283770918846L162.74013888888888,53.80685359239578L163.05249999999998,42.66940623521805L163.3648611111111,71.56169682741165L163.59913194444445,76.66350290179253L163.6772222222222,58.532314002513885L163.7553125,46.43613338470459L163.83340277777776,30.080486834049225L163.98958333333334,55.518436431884766L164.22385416666665,76.78037077188492L164.77048611111113,56.86533138155937L164.8485763888889,76.3453933596611L165.23902777777778,57.18280792236328L165.39520833333336,36.658926755189896L165.4732986111111,87.37122148275375L165.55138888888888,-0.3058187663555145L166.25420138888887,22.651899755001068L166.5665625,51.080121248960495L166.64465277777776,-10.222470313310623L166.72274305555555,54.709803611040115L166.80083333333334,70.16213089227676L166.9570138888889,93.66794943809508L167.3474652777778,67.85492017865181L167.42555555555555,91.2232719361782L167.58173611111113,57.5612635910511L167.6598263888889,70.44993549585342L167.73791666666668,78.46172779798508L167.97218750000002,29.415255188941956L168.12836805555557,57.6536026597023L168.20645833333336,76.44002705812454L168.28454861111112,79.86691161990166L168.9873611111111,83.35778206586838L169.22163194444443,1.1590781807899475L169.92444444444445,87.51987129449844L170.39298611111113,20.466963797807693L170.4710763888889,74.0195882320404L170.93961805555557,76.92582920193672L171.01770833333333,24.235036075115204L171.09579861111112,59.64056745171547L171.25197916666664,75.42688205838203L171.72052083333332,62.83208101987839L172.1890625,64.93185192346573L172.26715277777777,19.831852465867996L172.891875,36.220335960388184L172.9699652777778,52.060983180999756L173.20423611111113,74.11923319101334L173.43850694444444,62.72341579198837L173.75086805555557,83.38737487792969L173.90704861111112,34.66605395078659L174.2194097222222,75.1135727763176L174.68795138888888,48.05379465222359L175.0003125,89.08486157655715L175.07840277777777,99.67565953731535L175.3126736111111,21.150183230638504L175.46885416666666,17.993511110544205L175.703125,52.32789874076843L176.0154861111111,50.37609189748764L176.17166666666668,55.00960886478424L176.32784722222223,118.88442769646645L176.4059375,112.37590804696082L176.48402777777778,31.83822602033615L177.03065972222223,71.51395797729492L177.1868402777778,62.37344518303871L177.26493055555554,63.040312081575394L177.73347222222222,-8.96854743361473L177.81156249999998,18.280049711465836L177.88965277777777,110.68087555468081L178.04583333333332,96.16730242967604L178.20201388888887,62.76704013347626L179.13909722222223,56.70156866312027L179.84190972222223,65.56888863444328L180.15427083333336,43.95679906010628L180.54472222222222,42.579414546489716L180.62281249999998,60.66850885748863L181.01326388888887,64.09133166074753L181.09135416666666,63.474498242139816L181.16944444444445,88.78735095262526L181.48180555555555,121.49021722376347L181.55989583333334,133.7891824543476L182.0284375,100.22518381476401L182.34079861111113,76.85572430491447L182.4188888888889,121.45863309502602L182.49697916666668,74.5160722732544L182.65315972222223,106.16824865341185L182.73125000000002,86.38954192399979L183.12170138888888,115.79704284667969L183.35597222222222,87.68308013677597L183.51215277777777,47.37951636314392L183.7464236111111,78.12784597277641L183.98069444444445,64.83982935547829L184.21496527777776,76.04970261454582L184.37114583333334,84.26991060376167L184.8396875,81.03187143802643L184.9177777777778,108.43837603926657L185.07395833333334,39.11547303199768L185.2301388888889,56.517101526260376L185.9329513888889,80.7205930352211L186.01104166666664,48.44907760620117L186.08913194444443,46.704314947128296L186.16722222222222,99.74544793367384L187.2604861111111,-0.3544279932975769L187.57284722222224,31.588084995746613L187.88520833333334,40.08309468626976L187.96329861111113,37.08303764462471L188.19756944444444,88.06182593107224L188.27565972222223,55.71561634540558L188.50993055555557,107.98250958323477L188.66611111111112,108.5140724480152L188.82229166666664,63.20642217993736L189.21274305555553,76.88587099313736L189.44701388888888,59.49394851922989L189.60319444444443,90.34297809004782L189.68128472222222,42.615205496549606L189.83746527777777,48.703755140304565L190.0717361111111,42.13884562253952L190.30600694444445,53.03016096353531L190.4621875,56.83608144521713L190.69645833333334,33.50795164704323L190.93072916666668,78.59204694628716L191.00881944444444,52.39283412694931L191.24309027777778,62.13860169053078L191.47736111111112,49.19926330447197L192.10208333333333,26.157302856445312L192.1801736111111,42.61668249964714L192.33635416666667,43.80002573132515L192.72680555555556,33.299826085567474L193.11725694444445,80.57194322347641L193.1953472222222,125.33401228487492L193.2734375,68.72930601239204L193.42961805555555,46.680788397789L193.50770833333334,94.77353900671004L193.6638888888889,54.63608533143997L193.82006944444444,86.49040013551712L194.05434027777778,58.361957520246506L194.13243055555557,53.54199528694153L194.44479166666667,98.25673431158064L194.83524305555554,50.246722251176834L194.9914236111111,67.96709328889847L195.45996527777777,58.24946790933609L195.53805555555556,8.805233091115952L195.61614583333332,54.778326004743576L195.6942361111111,74.05635505914688L195.77232638888887,85.28244897723198L196.0065972222222,12.51994863152504L196.1627777777778,32.52999097108841L196.3970486111111,17.04688400030136L196.4751388888889,69.9905875325203L196.70940972222223,57.96530306339264L196.86559027777778,69.48977798223495L197.02177083333333,69.83175694942474L197.09986111111112,50.85237264633179L197.17795138888889,48.31889033317566L197.49031250000002,66.84050917625427L197.8026736111111,33.706529438495636L197.88076388888888,60.114210695028305L197.95885416666667,65.68573012948036L198.27121527777777,52.90271669626236L198.34930555555556,34.64714303612709L198.5054861111111,40.08902907371521L198.58357638888887,23.578798323869705L198.73975694444445,96.25048935413359L198.8178472222222,38.38873475790024L198.8959375,49.634398967027664L199.05211805555555,76.09641283750534L199.13020833333334,1.111128330230713L199.2863888888889,55.09487941861153L199.52065972222223,103.65454763174056L199.67684027777779,16.605893075466156L199.75493055555557,21.076412200927734L200.22347222222223,40.67534655332565L200.30156250000002,34.58165377378464L200.37965277777778,54.817835837602615L200.69201388888888,48.6394527554512L200.84819444444443,72.94580698013306L201.00437499999998,7.515466511249542L201.3167361111111,49.696063846349716L201.86336805555555,69.58182692527771L202.0976388888889,66.8387420475483L202.25381944444445,44.39235672354698L202.41,54.087721556425095L202.4880902777778,68.9849066734314L202.8004513888889,40.72778016328812L202.95663194444447,59.53039884567261L203.03472222222223,53.8097020983696L203.11281250000002,54.45156544446945L203.34708333333336,43.59612017869949L203.42517361111112,57.78502956032753L203.65944444444443,52.92059898376465L203.73753472222222,17.096785604953766L203.97180555555553,43.212178498506546L204.20607638888887,97.13371083140372L204.5184375,24.96544048190117L204.98697916666666,87.38469913601875L205.06506944444445,68.93252581357956L205.2993402777778,53.635151982307434L205.37743055555555,30.622362345457077L205.53361111111113,22.522134482860565L205.68979166666668,24.95391458272934L205.76788194444444,85.50988107919693L205.92406250000002,17.313931435346603L206.00215277777778,65.30822396278381L206.15833333333333,40.784882158041L206.23642361111112,44.83851715922356L206.3145138888889,52.664391696453094L206.39260416666664,89.3149048089981L206.54878472222225,62.63289660215378L206.70496527777777,83.47644343972206L206.78305555555553,79.06827494502068L207.09541666666667,55.65925285220146L207.17350694444443,84.2856565117836L207.3296875,49.739292562007904L207.56395833333332,45.76676085591316L207.7201388888889,58.360506892204285L207.9544097222222,49.33654546737671L208.89149305555557,63.75367820262909L209.20385416666667,61.48202106356621L209.43812499999999,2.8311511874198914L209.82857638888888,45.950885117053986L209.98475694444443,34.064781814813614L210.21902777777777,41.84273287653923L210.68756944444445,24.307620227336884L210.7656597222222,43.8703416287899L210.9218402777778,58.2076370716095L211.1561111111111,73.28187793493271L211.39038194444444,31.66378140449524L211.46847222222223,61.993749886751175L211.5465625,24.512528032064438L212.24937500000001,28.748678416013718L212.3274652777778,35.677721947431564L212.40555555555554,50.14196053147316L212.48364583333333,55.15844330191612L212.63982638888888,44.63192135095596L212.79600694444443,51.550915986299515L213.03027777777777,61.868916749954224L213.42072916666666,22.98127144575119L213.5769097222222,44.9424085021019L213.655,58.92735958099365L213.7330902777778,62.90656417608261L213.81118055555555,52.610718458890915L214.43590277777778,49.68770295381546L215.13871527777775,31.955542266368866L215.52916666666667,67.39016532897949L216.15388888888887,66.92902386188507L216.23197916666666,35.669492930173874L216.46625,71.61178305745125L216.7786111111111,47.09693402051926L217.01288194444444,13.750898838043213L217.32524305555557,68.29857498407364L217.5595138888889,67.06037163734436L217.79378472222223,84.21478673815727L217.87187500000002,0.0029012560844421387L217.94996527777778,29.28672954440117L218.10614583333336,48.561118841171265L218.73086805555553,74.84552308917046L218.8870486111111,61.52282327413559L219.04322916666666,42.726033478975296L219.1994097222222,43.65103304386139L219.5898611111111,18.935337960720062L219.9803125,104.03297692537306L220.60503472222223,68.80655854940414L220.68312500000002,71.00837454199791L220.76121527777778,18.567010313272476L221.0735763888889,2.057201564311981L221.30784722222222,62.22732737660408L221.54211805555553,58.798227310180664L222.16684027777777,29.104214161634445L222.32302083333335,53.822731375694275L222.63538194444445,53.649236261844635L222.71347222222224,82.55679801106453L222.7915625,45.10479971766472L222.8696527777778,56.29681706428528L223.02583333333334,51.09085589647293L223.1820138888889,47.400748282670975L223.41628472222223,80.45715898275375L223.65055555555557,0.625009685754776L223.72864583333333,85.47298237681389L223.8848263888889,45.65949350595474L224.04100694444446,8.246794044971466L224.58763888888888,121.64706967771053L224.9,98.24325665831564L225.05618055555556,87.82547906041145L225.2123611111111,61.59118741750717L225.36854166666666,41.023207157850266L225.44663194444445,32.93743282556534L225.6028125,51.39883741736412L225.83708333333334,34.017649590969086L225.9932638888889,31.936895102262497L226.22753472222223,34.67438846826553L226.38371527777778,71.65501177310944L226.61798611111112,53.79345506429672L226.6960763888889,60.979813635349274L226.77416666666667,36.783839017152786L227.55506944444443,95.17815873026846L227.63315972222222,51.29623845219612L227.78934027777777,50.9386982023716L227.86743055555556,50.2798493206501L227.94552083333332,58.78767728805542L228.0236111111111,32.53951236605644L228.25788194444445,44.31705594062805L228.3359722222222,38.972704857587814L228.4921527777778,14.66880351305008L228.7264236111111,66.02042958140373L228.88260416666668,68.05510684847832L229.03878472222223,-3.283747136592865L229.19496527777778,20.29842719435692L229.8977777777778,46.71080321073532L229.97586805555554,10.144057273864746L230.21013888888888,14.51464131474495L230.36631944444443,53.034882098436356L230.52249999999998,65.65621644258499L230.67868055555556,79.8989836871624L230.8348611111111,75.35864979028702L230.91295138888887,6.149898022413254L231.1472222222222,50.02364203333855L231.6157638888889,54.04552146792412L231.69385416666668,41.178899109363556L232.00621527777778,1.192152500152588L232.24048611111112,48.16565126180649L232.47475694444447,18.925209939479828L232.63093750000002,52.21443325281143L232.70902777777775,14.064313620328903L233.02138888888888,72.56890743970871L233.33374999999998,51.830570697784424L233.56802083333332,62.687809467315674L233.6461111111111,6.997724175453186L233.72420138888887,118.2708515971899L233.80229166666666,8.295034021139145L234.0365625,7.1082620322704315L234.3489236111111,62.17761039733887L234.50510416666665,13.909729421138763L234.81746527777779,59.879235327243805L234.89555555555557,16.126500070095062L235.05173611111113,83.29933494329453L235.1298263888889,53.73450681567192L235.52027777777778,41.54387712478638L235.7545486111111,14.079584777355194L235.83263888888888,54.30555313825607L235.98881944444443,67.16518610715866L236.14499999999998,23.456259816884995L236.30118055555553,63.98973494768143L236.37927083333332,39.63408574461937L236.61354166666666,57.11436465382576L236.69163194444445,63.98672819137573L236.8478125,48.120523542165756L237.08208333333334,71.25645831227303L237.1601736111111,30.306916683912277L237.31635416666666,60.60723960399628L237.78489583333334,33.97748038172722L238.01916666666668,56.54972746968269L238.25343750000002,78.42794135212898L238.33152777777778,22.245618402957916L238.6438888888889,98.50072994828223L239.11243055555553,16.935001015663147L240.12760416666666,32.457195818424225L240.4399652777778,23.820736706256866L240.59614583333334,14.505779296159744L240.98659722222223,26.890212893486023L241.22086805555557,101.45043700933455L241.37704861111112,86.27254217863083L241.68940972222225,8.550212681293488L242.07986111111111,73.27866017818451L242.39222222222222,26.69667273759842L242.70458333333332,14.518755823373795L242.93885416666666,53.08478370308876L243.64166666666668,46.314148753881454L244.11020833333333,-30.784489810466766L244.8911111111111,16.513052880764008L244.96920138888888,92.2784587740898L245.04729166666667,18.939927220344543L245.2815625,45.563514679670334L245.35965277777777,64.54965099692345L245.75010416666666,46.999583691358566L245.9062847222222,20.693024396896362L246.21864583333334,29.18658345937729L246.2967361111111,80.46417474746704L246.3748263888889,75.63500761985779L246.45291666666668,47.808295637369156L246.53100694444444,75.64231351017952L246.60909722222223,28.687752038240433L246.6871875,28.153736293315887L247.31190972222223,61.361829936504364L247.54618055555554,89.02831345796584L248.01472222222222,55.53536921739578L248.32708333333332,60.25397211313248L249.1079861111111,36.79219990968704L249.1860763888889,24.49287861585617L249.26416666666668,88.63395363092421L249.81079861111112,42.90941923856735L250.20125000000002,58.239920139312744L250.43552083333336,45.406556725502014L250.59170138888888,70.35741180181503L250.66979166666667,28.05564746260643L250.74788194444443,63.785196393728256L250.82597222222222,56.89220756292343L251.13833333333332,41.6306246817112L251.76305555555555,18.959286510944366L251.84114583333334,68.08409303426743L252.07541666666665,48.33677262067795L252.23159722222223,49.762608110904694L252.3096875,31.2655708193779L252.46586805555557,23.730085641145706L252.85631944444447,75.40232688188553L253.40295138888888,26.868954598903656L253.55913194444443,63.69391232728958L253.79340277777777,82.34152480959892L253.94958333333332,66.40115350484848L254.3400347222222,10.660955607891083L254.57430555555555,24.06599834561348L254.8085763888889,17.77248814702034L255.5113888888889,61.30633682012558L255.58947916666668,49.75928485393524L255.82375000000002,90.5155500769615L256.05802083333333,17.6454658806324L256.2142013888889,37.43928551673889L256.29229166666664,23.55010226368904L256.7608333333333,58.812733590602875L256.9951041666667,39.08661872148514L257.0731944444444,63.16477596759796L257.229375,14.946031719446182L257.4636458333334,63.9848555624485L257.6198263888889,55.60241460800171L257.7760069444444,104.66943338513373L258.0102777777778,79.26672086119652L258.0883680555555,42.63968154788017L258.1664583333333,69.77019757032394L258.7130902777778,47.08321899175644L259.1035416666667,-4.299450516700745L259.25972222222225,55.632323920726776L259.3378125,33.64697456359863L259.4159027777778,64.59667772054672L259.7282638888889,40.08554756641388L259.80635416666667,64.98315140604973L260.19680555555556,45.06977364420891L260.27489583333335,46.540736854076385L260.58725694444445,58.384930193424225L260.82152777777776,45.97789317369461L260.89961805555555,66.80680185556412L261.05579861111113,24.10041779279709L261.60243055555554,79.1671022772789L261.68052083333333,78.6559009552002L262.0709722222222,31.046736985445023L263.0080555555556,50.51609069108963L263.3985069444445,57.66826719045639L263.5546875,20.13197422027588L263.6327777777778,47.725609838962555L263.8670486111111,55.47576159238815L263.9451388888889,44.77044314146042L264.6479513888889,52.4670535326004L265.11649305555557,19.034851044416428L265.42885416666667,25.42149156332016" style="fill: none;" fill="none"></path></g></g></g></g></g></g><g transform="translate(48, 177)" clip-path="url(#clip_1)"><clipPath id="clip_1"><rect width="281" height="23"></rect></clipPath><g><g><line x1="0" y1="0" x2="0" y2="5" style="visibility: inherit;" fill="rgb(0, 0, 0)" stroke="rgb(204, 204, 204)" stroke-width="1px"></line><line x1="31.23611111111111" y1="0" x2="31.23611111111111" y2="5" style="visibility: inherit;" fill="rgb(0, 0, 0)" stroke="rgb(204, 204, 204)" stroke-width="1px"></line><line x1="62.47222222222222" y1="0" x2="62.47222222222222" y2="5" style="visibility: inherit;" fill="rgb(0, 0, 0)" stroke="rgb(204, 204, 204)" stroke-width="1px"></line><line x1="93.70833333333333" y1="0" x2="93.70833333333333" y2="5" style="visibility: inherit;" fill="rgb(0, 0, 0)" stroke="rgb(204, 204, 204)" stroke-width="1px"></line><line x1="124.94444444444444" y1="0" x2="124.94444444444444" y2="5" style="visibility: inherit;" fill="rgb(0, 0, 0)" stroke="rgb(204, 204, 204)" stroke-width="1px"></line><line x1="156.18055555555557" y1="0" x2="156.18055555555557" y2="5" style="visibility: inherit;" fill="rgb(0, 0, 0)" stroke="rgb(204, 204, 204)" stroke-width="1px"></line><line x1="187.41666666666666" y1="0" x2="187.41666666666666" y2="5" style="visibility: inherit;" fill="rgb(0, 0, 0)" stroke="rgb(204, 204, 204)" stroke-width="1px"></line><line x1="218.65277777777777" y1="0" x2="218.65277777777777" y2="5" style="visibility: inherit;" fill="rgb(0, 0, 0)" stroke="rgb(204, 204, 204)" stroke-width="1px"></line><line x1="249.88888888888889" y1="0" x2="249.88888888888889" y2="5" style="visibility: inherit;" fill="rgb(0, 0, 0)" stroke="rgb(204, 204, 204)" stroke-width="1px"></line><line x1="281.125" y1="0" x2="281.125" y2="5" style="visibility: inherit;" fill="rgb(0, 0, 0)" stroke="rgb(204, 204, 204)" stroke-width="1px"></line></g><g transform="translate(0, 8)"><text x="0" y="0" dx="0em" dy="0.95em" style="text-anchor: middle; visibility: hidden; font-family: &quot;Helvetica Neue&quot;, sans-serif; font-size: 12px; font-weight: 200;" fill="rgb(50, 49, 63)" stroke="none" stroke-width="1px">-2k</text><text x="31.23611111111111" y="0" dx="0em" dy="0.95em" style="text-anchor: middle; visibility: inherit; font-family: &quot;Helvetica Neue&quot;, sans-serif; font-size: 12px; font-weight: 200;" fill="rgb(50, 49, 63)" stroke="none" stroke-width="1px">0</text><text x="62.47222222222222" y="0" dx="0em" dy="0.95em" style="text-anchor: middle; visibility: inherit; font-family: &quot;Helvetica Neue&quot;, sans-serif; font-size: 12px; font-weight: 200;" fill="rgb(50, 49, 63)" stroke="none" stroke-width="1px">2k</text><text x="93.70833333333333" y="0" dx="0em" dy="0.95em" style="text-anchor: middle; visibility: inherit; font-family: &quot;Helvetica Neue&quot;, sans-serif; font-size: 12px; font-weight: 200;" fill="rgb(50, 49, 63)" stroke="none" stroke-width="1px">4k</text><text x="124.94444444444444" y="0" dx="0em" dy="0.95em" style="text-anchor: middle; visibility: inherit; font-family: &quot;Helvetica Neue&quot;, sans-serif; font-size: 12px; font-weight: 200;" fill="rgb(50, 49, 63)" stroke="none" stroke-width="1px">6k</text><text x="156.18055555555557" y="0" dx="0em" dy="0.95em" style="text-anchor: middle; visibility: inherit; font-family: &quot;Helvetica Neue&quot;, sans-serif; font-size: 12px; font-weight: 200;" fill="rgb(50, 49, 63)" stroke="none" stroke-width="1px">8k</text><text x="187.41666666666666" y="0" dx="0em" dy="0.95em" style="text-anchor: middle; visibility: inherit; font-family: &quot;Helvetica Neue&quot;, sans-serif; font-size: 12px; font-weight: 200;" fill="rgb(50, 49, 63)" stroke="none" stroke-width="1px">10k</text><text x="218.65277777777777" y="0" dx="0em" dy="0.95em" style="text-anchor: middle; visibility: inherit; font-family: &quot;Helvetica Neue&quot;, sans-serif; font-size: 12px; font-weight: 200;" fill="rgb(50, 49, 63)" stroke="none" stroke-width="1px">12k</text><text x="249.88888888888889" y="0" dx="0em" dy="0.95em" style="text-anchor: middle; visibility: inherit; font-family: &quot;Helvetica Neue&quot;, sans-serif; font-size: 12px; font-weight: 200;" fill="rgb(50, 49, 63)" stroke="none" stroke-width="1px">14k</text><text x="281.125" y="0" dx="0em" dy="0.95em" style="text-anchor: middle; visibility: hidden; font-family: &quot;Helvetica Neue&quot;, sans-serif; font-size: 12px; font-weight: 200;" fill="rgb(50, 49, 63)" stroke="none" stroke-width="1px">16k</text></g><line x1="0" y1="0" x2="281.125" y2="0" fill="rgb(0, 0, 0)" stroke="rgb(204, 204, 204)" stroke-width="1px"></line></g></g></g></g></svg>