<svg viewBox="0 0 330 200" xmlns="http://www.w3.org/2000/svg"><g><g><g><g><g><line x1="48.875" y1="177" x2="43.875" y2="177" style="visibility: inherit;" fill="rgb(0, 0, 0)" stroke="rgb(204, 204, 204)" stroke-width="1px"></line><line x1="48.875" y1="159.29999999999998" x2="43.875" y2="159.29999999999998" style="visibility: inherit;" fill="rgb(0, 0, 0)" stroke="rgb(204, 204, 204)" stroke-width="1px"></line><line x1="48.875" y1="141.59999999999997" x2="43.875" y2="141.59999999999997" style="visibility: inherit;" fill="rgb(0, 0, 0)" stroke="rgb(204, 204, 204)" stroke-width="1px"></line><line x1="48.875" y1="123.89999999999995" x2="43.875" y2="123.89999999999995" style="visibility: inherit;" fill="rgb(0, 0, 0)" stroke="rgb(204, 204, 204)" stroke-width="1px"></line><line x1="48.875" y1="106.20000000000002" x2="43.875" y2="106.20000000000002" style="visibility: inherit;" fill="rgb(0, 0, 0)" stroke="rgb(204, 204, 204)" stroke-width="1px"></line><line x1="48.875" y1="88.5" x2="43.875" y2="88.5" style="visibility: inherit;" fill="rgb(0, 0, 0)" stroke="rgb(204, 204, 204)" stroke-width="1px"></line><line x1="48.875" y1="70.79999999999998" x2="43.875" y2="70.79999999999998" style="visibility: inherit;" fill="rgb(0, 0, 0)" stroke="rgb(204, 204, 204)" stroke-width="1px"></line><line x1="48.875" y1="53.099999999999966" x2="43.875" y2="53.099999999999966" style="visibility: inherit;" fill="rgb(0, 0, 0)" stroke="rgb(204, 204, 204)" stroke-width="1px"></line><line x1="48.875" y1="35.39999999999992" x2="43.875" y2="35.39999999999992" style="visibility: inherit;" fill="rgb(0, 0, 0)" stroke="rgb(204, 204, 204)" stroke-width="1px"></line><line x1="48.875" y1="17.699999999999903" x2="43.875" y2="17.699999999999903" style="visibility: inherit;" fill="rgb(0, 0, 0)" stroke="rgb(204, 204, 204)" stroke-width="1px"></line><line x1="48.875" y1="0" x2="43.875" y2="0" style="visibility: inherit;" fill="rgb(0, 0, 0)" stroke="rgb(204, 204, 204)" stroke-width="1px"></line></g><g transform="translate(38.875, 0)"><text x="0" y="177" dx="0em" dy="0.3em" style="text-anchor: end; visibility: hidden; font-family: &quot;Helvetica Neue&quot;, sans-serif; font-size: 12px; font-weight: 200;" fill="rgb(50, 49, 63)" stroke="none" stroke-width="1px">0.62</text><text x="0" y="159.29999999999998" dx="0em" dy="0.3em" style="text-anchor: end; visibility: inherit; font-family: &quot;Helvetica Neue&quot;, sans-serif; font-size: 12px; font-weight: 200;" fill="rgb(50, 49, 63)" stroke="none" stroke-width="1px">0.64</text><text x="0" y="141.59999999999997" dx="0em" dy="0.3em" style="text-anchor: end; visibility: hidden; font-family: &quot;Helvetica Neue&quot;, sans-serif; font-size: 12px; font-weight: 200;" fill="rgb(50, 49, 63)" stroke="none" stroke-width="1px">0.66</text><text x="0" y="123.89999999999995" dx="0em" dy="0.3em" style="text-anchor: end; visibility: inherit; font-family: &quot;Helvetica Neue&quot;, sans-serif; font-size: 12px; font-weight: 200;" fill="rgb(50, 49, 63)" stroke="none" stroke-width="1px">0.68</text><text x="0" y="106.20000000000002" dx="0em" dy="0.3em" style="text-anchor: end; visibility: hidden; font-family: &quot;Helvetica Neue&quot;, sans-serif; font-size: 12px; font-weight: 200;" fill="rgb(50, 49, 63)" stroke="none" stroke-width="1px">0.7</text><text x="0" y="88.5" dx="0em" dy="0.3em" style="text-anchor: end; visibility: inherit; font-family: &quot;Helvetica Neue&quot;, sans-serif; font-size: 12px; font-weight: 200;" fill="rgb(50, 49, 63)" stroke="none" stroke-width="1px">0.72</text><text x="0" y="70.79999999999998" dx="0em" dy="0.3em" style="text-anchor: end; visibility: hidden; font-family: &quot;Helvetica Neue&quot;, sans-serif; font-size: 12px; font-weight: 200;" fill="rgb(50, 49, 63)" stroke="none" stroke-width="1px">0.74</text><text x="0" y="53.099999999999966" dx="0em" dy="0.3em" style="text-anchor: end; visibility: inherit; font-family: &quot;Helvetica Neue&quot;, sans-serif; font-size: 12px; font-weight: 200;" fill="rgb(50, 49, 63)" stroke="none" stroke-width="1px">0.76</text><text x="0" y="35.39999999999992" dx="0em" dy="0.3em" style="text-anchor: end; visibility: hidden; font-family: &quot;Helvetica Neue&quot;, sans-serif; font-size: 12px; font-weight: 200;" fill="rgb(50, 49, 63)" stroke="none" stroke-width="1px">0.78</text><text x="0" y="17.699999999999903" dx="0em" dy="0.3em" style="text-anchor: end; visibility: inherit; font-family: &quot;Helvetica Neue&quot;, sans-serif; font-size: 12px; font-weight: 200;" fill="rgb(50, 49, 63)" stroke="none" stroke-width="1px">0.8</text><text x="0" y="0" dx="0em" dy="0.3em" style="text-anchor: end; visibility: hidden; font-family: &quot;Helvetica Neue&quot;, sans-serif; font-size: 12px; font-weight: 200;" fill="rgb(50, 49, 63)" stroke="none" stroke-width="1px">0.82</text></g><line x1="48.875" y1="0" x2="48.875" y2="177" fill="rgb(0, 0, 0)" stroke="rgb(204, 204, 204)" stroke-width="1px"></line></g></g><g transform="translate(48, 0)" clip-path="url(#clip_0)"><clipPath id="clip_0"><rect width="281" height="177"></rect></clipPath><g><g><g><line x1="0" y1="0" x2="0" y2="177" fill="rgb(0, 0, 0)" stroke="rgb(60, 60, 60)" stroke-width="1px" opacity="0.25"></line><line x1="31.23611111111111" y1="0" x2="31.23611111111111" y2="177" fill="rgb(0, 0, 0)" stroke="rgb(60, 60, 60)" stroke-width="1px" opacity="0.25"></line><line x1="62.47222222222222" y1="0" x2="62.47222222222222" y2="177" fill="rgb(0, 0, 0)" stroke="rgb(60, 60, 60)" stroke-width="1px" opacity="0.25"></line><line x1="93.70833333333333" y1="0" x2="93.70833333333333" y2="177" fill="rgb(0, 0, 0)" stroke="rgb(60, 60, 60)" stroke-width="1px" opacity="0.25"></line><line x1="124.94444444444444" y1="0" x2="124.94444444444444" y2="177" fill="rgb(0, 0, 0)" stroke="rgb(60, 60, 60)" stroke-width="1px" opacity="0.25"></line><line x1="156.18055555555557" y1="0" x2="156.18055555555557" y2="177" fill="rgb(0, 0, 0)" stroke="rgb(60, 60, 60)" stroke-width="1px" opacity="0.25"></line><line x1="187.41666666666666" y1="0" x2="187.41666666666666" y2="177" fill="rgb(0, 0, 0)" stroke="rgb(60, 60, 60)" stroke-width="1px" opacity="0.25"></line><line x1="218.65277777777777" y1="0" x2="218.65277777777777" y2="177" fill="rgb(0, 0, 0)" stroke="rgb(60, 60, 60)" stroke-width="1px" opacity="0.25"></line><line x1="249.88888888888889" y1="0" x2="249.88888888888889" y2="177" fill="rgb(0, 0, 0)" stroke="rgb(60, 60, 60)" stroke-width="1px" opacity="0.25"></line><line x1="281.125" y1="0" x2="281.125" y2="177" fill="rgb(0, 0, 0)" stroke="rgb(60, 60, 60)" stroke-width="1px" opacity="0.25"></line></g><g><line x1="0" y1="177" x2="281.125" y2="177" fill="rgb(0, 0, 0)" stroke="rgb(60, 60, 60)" stroke-width="1px" opacity="0.25"></line><line x1="0" y1="159.29999999999998" x2="281.125" y2="159.29999999999998" fill="rgb(0, 0, 0)" stroke="rgb(60, 60, 60)" stroke-width="1px" opacity="0.25"></line><line x1="0" y1="141.59999999999997" x2="281.125" y2="141.59999999999997" fill="rgb(0, 0, 0)" stroke="rgb(60, 60, 60)" stroke-width="1px" opacity="0.25"></line><line x1="0" y1="123.89999999999995" x2="281.125" y2="123.89999999999995" fill="rgb(0, 0, 0)" stroke="rgb(60, 60, 60)" stroke-width="1px" opacity="0.25"></line><line x1="0" y1="106.20000000000002" x2="281.125" y2="106.20000000000002" fill="rgb(0, 0, 0)" stroke="rgb(60, 60, 60)" stroke-width="1px" opacity="0.25"></line><line x1="0" y1="88.5" x2="281.125" y2="88.5" fill="rgb(0, 0, 0)" stroke="rgb(60, 60, 60)" stroke-width="1px" opacity="0.25"></line><line x1="0" y1="70.79999999999998" x2="281.125" y2="70.79999999999998" fill="rgb(0, 0, 0)" stroke="rgb(60, 60, 60)" stroke-width="1px" opacity="0.25"></line><line x1="0" y1="53.099999999999966" x2="281.125" y2="53.099999999999966" fill="rgb(0, 0, 0)" stroke="rgb(60, 60, 60)" stroke-width="1px" opacity="0.25"></line><line x1="0" y1="35.39999999999992" x2="281.125" y2="35.39999999999992" fill="rgb(0, 0, 0)" stroke="rgb(60, 60, 60)" stroke-width="1px" opacity="0.25"></line><line x1="0" y1="17.699999999999903" x2="281.125" y2="17.699999999999903" fill="rgb(0, 0, 0)" stroke="rgb(60, 60, 60)" stroke-width="1px" opacity="0.25"></line><line x1="0" y1="0" x2="281.125" y2="0" fill="rgb(0, 0, 0)" stroke="rgb(60, 60, 60)" stroke-width="1px" opacity="0.25"></line></g></g></g><g><g><line x1="0" y1="725.7" x2="281.125" y2="725.7" fill="rgb(0, 0, 0)" stroke="rgb(153, 153, 153)" stroke-width="1.5px"></line></g></g><g><g><line x1="31.23611111111111" y1="0" x2="31.23611111111111" y2="177" fill="rgb(0, 0, 0)" stroke="rgb(153, 153, 153)" stroke-width="1.5px"></line></g></g><g><g><g><g><g><path stroke="rgb(204, 51, 17)" stroke-width="2px" d="M35.76534722222222,200.16981779313562L36.39006944444444,157.37629262134988L36.624340277777776,167.3470925706757L36.85861111111112,148.04356552852596L36.93670138888889,172.9223217983263L37.01479166666666,145.9523524333653L37.09288194444444,113.96681848644852L37.483333333333334,141.91941015784926L38.10805555555556,143.3298520027392L38.186145833333335,147.27362529265386L38.6546875,149.4643148295896L39.27940972222222,125.35251744594291L39.51368055555555,87.07473553243395L39.591770833333335,104.08056377210889L40.13840277777778,113.51143985373781L40.37267361111111,124.88031260354657L40.52885416666667,120.863893687922L41.153576388888894,120.02386456696763L41.38784722222222,127.85360500601689L41.465937499999995,136.260014136612L42.168749999999996,134.39943981397553L42.324930555555554,130.34715066244092L42.403020833333336,127.75423523474058L42.48111111111111,148.36564387373193L43.027743055555554,143.21510571326237L43.418194444444445,123.68907214727945L43.574374999999996,128.0087893388995L43.65246527777777,131.88599214939842L43.96482638888889,143.29411048192705L44.35527777777777,106.05754973420352L44.433368055555555,112.93465916358335L44.66763888888889,110.51472049260704L45.136180555555555,113.84596852127436L45.21427083333333,115.21258111276693L45.37045138888889,127.1652907149825L45.60472222222222,144.73214867693304L45.76090277777777,115.47536449301404L45.838993055555555,133.66546524446522L45.99517361111111,134.94286118555868L46.151354166666664,104.9239332879089L46.22944444444445,128.12828468588125L46.77607638888889,117.07422454420964L47.40079861111111,122.24880352058565L47.47888888888889,136.68999278091533L47.556979166666665,145.46003775801157L47.86934027777778,136.9694779026859L48.650243055555556,117.98204995324322L48.72833333333333,123.2360299940712L48.88451388888889,111.3574638960246L49.196875,102.02486321195867L49.43114583333334,91.86684924164356L49.50923611111111,77.26619102119766L49.58732638888889,82.21626724218933L49.82159722222222,111.99619799980884L50.75868055555556,132.5472380812727L51.227222222222224,145.51702467058672L51.46149305555556,106.75916202220061L51.617673611111115,114.61289377303561L51.695763888888884,123.2549527650574L51.85194444444444,113.77797841104868L52.16430555555556,131.33355584068897L52.47666666666667,135.98798686935777L52.632847222222225,134.61553895160128L53.023298611111116,128.59445410063603L54.1165625,100.13156367475231L54.50701388888889,81.18546270092983L54.58510416666666,71.34901122785003L54.897465277777776,105.33536029658553L54.97555555555556,140.47015045643957L55.28791666666666,105.18495714283642L55.36600694444444,113.26097119102869L55.5221875,118.05039020210498L55.756458333333335,130.84167430776347L56.14690972222222,130.77621003853073L56.225,113.75333705941917L56.30309027777778,116.89891638875054L56.69354166666667,120.8372093875411L56.771631944444444,112.52400589699755L56.84972222222222,158.01618836829192L57.08399305555555,188.14208988731582L57.78680555555555,162.52251976242945L57.94298611111111,135.617683400579L58.41152777777778,177.09811622969372L58.880069444444445,149.67301511688265L58.95815972222222,141.54820971920032L59.42670138888889,155.39881395121773L59.66097222222223,127.41011626494142L59.973333333333336,163.32356328828456L60.285694444444445,158.86247205652785L60.441874999999996,146.40164239834542L60.75423611111111,147.17813151139495L60.83232638888889,176.01318217431592L60.91041666666667,170.47980798432283L61.06659722222223,145.95491420000218L61.45704861111111,139.57721731406104L61.847500000000004,144.42499617422612L61.92559027777777,148.20465221694107L62.003680555555555,106.3980193107783L63.17503472222222,79.25606785115353L63.721666666666664,85.84745945153682L64.19020833333333,113.9220503951194L64.2682986111111,99.84798171908149L64.42447916666666,77.56663789505059L64.58065972222222,73.61674365374024L64.89302083333334,111.29659010036333L65.59583333333333,94.5922459236595L65.7520138888889,77.06821498583636L65.83010416666667,98.21010841197295L66.064375,114.38605688850008L66.53291666666667,87.00941650652835L67.1576388888889,81.69159277310345L67.23572916666667,110.5646101762674L67.47,83.44174710570707L67.54809027777777,88.33780916010697L68.25090277777778,64.56736908123106L68.32899305555556,114.79422527888539L69.18798611111112,133.65711285554838L69.42225694444444,163.8127117078511L69.50034722222223,141.6034672976141L69.65652777777778,120.03900747302797L69.81270833333333,110.69299391271845L70.90597222222223,122.27265892125473L71.29642361111111,124.489912405594L71.45260416666666,125.18810717045298L71.686875,120.34619219648263L71.84305555555555,91.89192803113117L72.23350694444444,91.5887141001728L72.31159722222223,82.10727883890304L72.78013888888889,83.80746327826395L72.93631944444444,71.12412910335672L73.01440972222223,99.70779410286795L73.17059027777778,94.44501969864402L73.24868055555555,115.14023767978208L73.48295138888889,105.37615795058163L73.63913194444444,111.6969932551512L74.02958333333332,125.27717196436699L74.10767361111111,107.09653847391586L74.81048611111112,82.52687142953374L74.96666666666667,84.55789727845844L75.27902777777778,74.71401278781329L75.35711805555556,86.3601970041242L75.43520833333332,74.14479946162979L75.74756944444444,89.93091261307406L76.05993055555555,99.72218287420272L76.13802083333333,92.42376540441515L76.37229166666667,106.4401133009148L76.52847222222222,89.67657754590228L76.60656250000001,114.449501839698L76.68465277777779,113.5167082878474L76.76274305555556,82.34023494795102L76.84083333333332,63.718666720838186L76.91892361111113,86.61822494056872L77.07510416666666,74.72457111470133L77.15319444444444,76.01341548795835L77.54364583333333,75.82447569391327L77.6217361111111,77.14397362244841L77.93409722222222,67.28055093391372L78.16836805555556,105.11381887497679L78.3245486111111,103.63082902373183L78.79309027777778,90.3404547067959L78.94927083333333,118.0436830385016L79.33972222222222,123.89111454150002L79.65208333333334,92.28753840721194L79.73017361111111,106.50584531185953L79.88635416666666,71.35226844047261L80.8234375,74.9312435573026L81.37006944444444,81.9601871648839L81.44815972222221,82.39169898983309L81.60434027777778,70.63286488149437L81.68243055555556,66.91388231333421L81.76052083333333,70.68786076674651L81.8386111111111,81.63367114525907L81.99479166666667,105.97840885437643L82.2290625,106.46037545750806L82.54142361111111,102.53174097389149L82.61951388888889,91.33513984590871L82.93187499999999,63.7915409941084L83.16614583333333,91.690997351325L83.47850694444445,77.5680584413508L83.71277777777777,64.70440978900784L83.79086805555556,57.91688024935833L83.86895833333334,79.38995399914813L83.94704861111111,96.02099730755464L84.02513888888889,75.30557882181152L84.18131944444445,100.33080527896483L84.25940972222222,85.30158814498665L84.33749999999999,96.15441263621379L84.57177083333333,108.39050713601911L84.64986111111111,92.40610711707598L84.72795138888888,92.23437915881834L84.88413194444445,120.78497037553998L85.0403125,118.6314671639455L85.11840277777777,90.11507534288482L85.66503472222223,70.98940532268949L85.89930555555556,68.9820995668285L86.21166666666666,102.20490701316075L86.4459375,99.62026555608675L86.60211805555556,88.58030548138004L86.75829861111112,76.55853721644024L87.07065972222223,80.17619227138479L87.38302083333333,94.68060517053189L87.61729166666666,70.25194232785933L87.69538194444445,91.2616475219978L87.77347222222222,85.78114570828987L87.8515625,79.6622736838622L88.32010416666667,99.81570673389216L88.78864583333333,85.9196438622652L88.94482638888888,89.28016607237917L89.02291666666666,92.8171595875803L89.33527777777778,69.62552710916894L89.56954861111112,64.77476793137963L89.64763888888889,58.72819174771169L89.88190972222223,70.5245260849277L89.96000000000001,88.41196375695942L90.03809027777777,97.46577013974238L90.19427083333333,100.08849867728262L90.35045138888889,88.71725865213219L90.81899305555555,78.07004721646399L91.05326388888889,89.98577664187485L91.13135416666667,113.58848020250166L91.36562500000001,113.66035789021593L91.44371527777778,101.56631704907853L91.52180555555555,112.97214318240424L91.67798611111111,134.01075693204842L91.75607638888889,96.90538309237262L92.22461805555555,121.03440408123076L92.53697916666667,139.63130491383396L92.61506944444444,100.7764114273042L92.77125000000001,90.64716278388792L92.92743055555556,71.15061845585518L93.08361111111111,72.46428734663014L93.16170138888889,73.5685673439675L93.23979166666666,97.07959255958635L93.31788194444444,89.57043615689895L93.39597222222221,65.83725269145381L93.63024305555555,69.2692626732982L93.78642361111112,54.78035805811862L93.94260416666667,71.79064609402646L94.17687500000001,74.6183233415737L94.33305555555556,68.88372620556669L94.41114583333332,61.537729533993726L94.48923611111113,76.88812856703022L94.95777777777778,62.40004318731434L95.03586805555555,60.34467507944936L95.1920486111111,74.75698932615781L95.42631944444445,56.69634276275552L95.73868055555556,35.31018590000093L95.97295138888889,67.3044385902096L96.20722222222221,59.4839238448148L96.2853125,72.89547406454119L96.44149305555555,104.31061880361572L96.5976736111111,91.90729070527271L96.75385416666667,74.39662703050928L97.14430555555556,75.45490987881278L97.3785763888889,73.9055186068073L97.53475694444444,77.49215841502281L98.70611111111111,46.446113377871086L99.01847222222221,51.27097453955537L99.17465277777778,49.75496918608978L99.25274305555556,36.66958543926617L99.56510416666667,84.01497374814832L99.72128472222222,84.91694865013409L99.799375,105.14588857999594L100.03364583333334,85.51456171340433L100.18982638888889,98.81076278011018L100.34600694444444,104.30908052039156L100.58027777777777,100.31735177464492L100.73645833333333,54.14993512885097L100.8145486111111,62.16204853687482L100.97072916666667,54.512588957749614L101.28309027777777,79.85488738286666L101.59545138888889,83.01444107573138L102.14208333333333,86.31140613008087L102.22017361111111,96.11409347205488L102.29826388888888,110.2240901336021L102.37635416666667,104.86373553424751L102.53253472222222,94.8238950642924L102.76680555555556,98.51392365413787L102.84489583333334,104.84740794728916L102.92298611111111,98.58940282959182L103.15725694444446,99.99708428560758L103.23534722222223,95.7529532872382L103.31343749999999,121.54402401702069L103.39152777777777,91.03377861652649L104.01625,74.5643691281907L104.09434027777777,95.66121760251711L104.32861111111112,114.59861545588134L104.87524305555554,104.4647088862989L105.10951388888888,114.26518664941386L105.73423611111112,141.24148744931932L105.81232638888889,120.29241385096975L105.96850694444446,106.50781814357435L106.04659722222223,121.84408562720296L106.12468750000001,116.16240240419197L106.35895833333333,112.83066083243068L106.43704861111111,91.49507113725289L106.59322916666666,123.2141143872162L106.74940972222223,111.82891924821263L107.13986111111112,123.46344259049246L107.21795138888889,97.55513782182786L107.53031250000001,85.64499628352787L107.60840277777777,68.86925206546582L107.68649305555554,57.406075303343485L107.76458333333333,71.59255442177499L107.99885416666666,91.34958387586614L108.07694444444444,61.749283110935366L108.15503472222223,43.93291323413786L108.38930555555555,36.7198510994335L108.46739583333333,83.67989137827286L109.09211805555555,97.47115027820425L109.40447916666666,89.00464520880799L109.56065972222223,87.40154415863294L109.71684027777778,92.34670421658478L109.79493055555555,76.31791571365898L110.0292013888889,79.24867012731497L110.26347222222223,73.87444271702917L110.34156250000001,91.91098605906573L110.41965277777778,94.93999052116638L110.49774305555556,63.08874888938287L110.73201388888889,44.21331160379418L111.35673611111112,56.291374313312545L111.51291666666667,71.2187335464226L111.66909722222222,58.7701247962037L111.82527777777779,65.01493330667725L111.90336805555556,76.21055603426888L112.13763888888889,57.519298584474356L112.29381944444444,79.84325435114698L112.45,78.3998445937204L112.8404513888889,89.93079213793087L113.38708333333334,95.91167469796548L113.4651736111111,94.49223533139833L113.69944444444444,102.13587152758969L113.855625,102.59555979132487L114.32416666666667,81.32231955742732L114.40225694444445,67.29060035834246L114.5584375,63.59156433754883L114.71461805555556,58.74172680862972L115.02697916666666,80.3379009848131L115.33934027777778,83.3569149473484L115.49552083333333,108.41010646695945L115.88597222222222,85.01827109739212L115.9640625,87.09577556660788L116.04215277777779,117.82473707801711L116.58878472222221,86.58974021319509L116.66687499999999,58.73884018924208L117.13541666666667,80.39586103836523L117.44777777777779,67.40549565362825L117.52586805555556,59.361937199878014L117.60395833333334,100.00091147592501L118.30677083333333,116.67216656786698L118.46295138888888,83.3274529158026L118.69722222222222,74.61492981069985L119.16576388888889,66.89748412581503L119.24385416666668,61.82450658686291L119.55621527777777,88.2772104227979L119.79048611111111,70.88758806970348L119.86857638888888,46.79600921503683L119.94666666666667,30.339258504104436L120.1809375,27.938548350448457L121.03993055555556,61.83491496569816L121.27420138888888,81.86017997936543L121.50847222222222,67.60276658938007L121.5865625,70.72892325166278L121.66465277777777,94.01318634655127L121.89892361111112,84.67171901408464L121.97701388888889,74.35386943068279L122.05510416666667,59.06030519036159L123.22645833333334,33.36414020078004L123.46072916666667,38.006464276412856L123.61690972222223,52.02645068269956L123.69500000000001,52.4277685266852L123.85118055555554,60.584409634001176L123.92927083333333,51.985654501752336L124.16354166666666,60.44905419149177L124.3978125,74.88633513330323L124.47590277777778,84.13870313572225L124.63208333333334,45.8194183326205L124.78826388888889,46.21009358742475L124.94444444444444,89.69712074863097L125.10062500000001,56.62076175848945L125.33489583333333,66.75958624744591L125.49107638888889,82.50765070953474L125.64725694444444,78.15471834205681L125.8034375,84.21735591329985L125.95961805555555,83.08928246163042L126.11579861111112,95.3959497193259L126.89670138888889,56.09620766995917L127.2090625,63.410583030930596L127.52142361111112,68.50861283525903L127.5995138888889,79.98898587933233L127.67760416666667,63.677542252010355L127.83378472222223,62.53701000849372L128.06805555555556,113.18971022510509L128.3023263888889,89.322376664543L128.45850694444445,58.425823965110695L128.6927777777778,78.56446335699465L129.16131944444444,82.15939459077305L129.3175,81.7561794619071L129.47368055555555,106.75429211737553L129.55177083333334,99.7089306800475L129.78604166666668,93.9329705696648L129.86413194444444,95.5947896564809L129.94222222222223,81.98938448457758L130.17649305555557,64.55467643754972L130.80121527777777,56.973627848728285L131.19166666666666,59.58228140551077L131.3478472222222,78.15210470127003L131.8163888888889,64.85818513254486L132.12875,51.536685781599076L132.2068402777778,50.74670827682077L132.28493055555555,71.69536460098776L132.36302083333334,42.69413741503442L132.8315625,25.84474525972766L133.06583333333333,55.99207429244849L133.61246527777777,63.650129037825735L133.76864583333332,50.26751318319346L134.00291666666666,72.0750520440561L134.08100694444445,86.56787671402822L134.3152777777778,79.49510754678089L134.39336805555556,90.98479954203032L134.78381944444445,68.659547761679L134.8619097222222,83.08573343968409L134.94,81.76059641489992L135.17427083333334,96.70589401036267L135.40854166666668,76.87545787399866L135.48663194444444,94.79326782170456L135.56472222222223,75.86131884064389L135.6428125,51.70478271368803L135.72090277777778,67.63096363379753L136.18944444444446,46.81573269268392L136.65798611111111,49.652547969225154L137.12652777777777,54.40998684275334L137.4388888888889,52.40747318093881L137.59506944444445,81.66822546854559L137.98552083333334,70.5710699494775L138.29788194444444,58.60978691673854L138.84451388888888,65.92313488540994L139.00069444444446,76.90651109825336L139.23496527777777,74.84670028573728L139.39114583333333,73.17532998494185L139.46923611111112,68.94858984334395L139.70350694444446,58.865460830826265L139.78159722222222,36.176172927557644L139.93777777777777,58.689568450176196L140.01586805555556,97.78183141834941L140.2501388888889,70.65873732738137L141.57767361111112,53.815981479718914L141.6557638888889,81.16828702702198L141.73385416666667,89.62868838080202L141.81194444444446,88.4291852317359L142.12430555555554,60.014599161273594L142.35857638888888,74.07077315147293L142.67093749999998,74.11805395779346L142.74902777777777,93.52160137472951L142.82711805555556,38.07932523714541L143.13947916666666,68.1827940501394L143.21756944444445,61.23659649119509L143.2956597222222,62.238388797198056L143.4518402777778,65.9334691694703L143.60802083333334,52.2661719805793L143.7642013888889,67.29002157251814L143.92038194444444,94.02186968446246L144.54510416666668,108.57895364356324L144.93555555555554,70.85772189374136L145.01364583333336,71.28064249560451L145.71645833333332,78.61088549736267L145.7945486111111,60.48367905880883L146.65354166666665,65.95174487272428L147.04399305555557,86.23723662280757L147.2782638888889,94.27148819675281L147.35635416666668,124.99586716598414L147.59062500000002,116.9858301884302L147.74680555555557,80.10208592929652L147.82489583333336,48.907619064558816L148.44961805555553,39.25167774767229L148.52770833333332,61.244275929990664L148.6057986111111,60.03399062780335L148.68388888888887,62.38777180569052L148.9181597222222,69.50338247332974L149.07434027777776,46.667864130222796L149.15243055555555,51.35135928051707L149.23052083333334,69.01331331763885L149.85524305555555,67.78239173432722L150.24569444444447,89.365512296799L150.32378472222223,53.01523674323741L150.55805555555557,30.43949850556001L151.10468749999998,68.30834348772015L151.26086805555553,73.9266720090749L152.04177083333335,68.49333805766356L152.43222222222224,37.92125050858638L152.5103125,39.223595079397995L152.66649305555555,45.539754429230584L152.74458333333334,59.92838206694695L153.21312500000002,53.54818086389402L153.29121527777778,62.80540028431231L153.75975694444446,81.91568746577629L153.83784722222225,82.1753730726893L154.54065972222222,47.31044929222202L154.85302083333332,83.79707721350152L155.0092013888889,70.44010074304083L155.3215625,73.37251231769642L156.02437500000002,69.84302217066238L156.18055555555557,62.28539907395805L156.4148263888889,45.37134485399699L156.57100694444446,51.93959117982378L156.6490972222222,67.78237763555997L157.0395486111111,54.007653285933486L157.27381944444443,49.45136245362333L157.66427083333332,23.489857441618284L157.8204513888889,46.22082327272551L158.1328125,36.77916156808172L158.28899305555555,32.21691615795868L158.36708333333334,44.945985747669766L158.4451736111111,73.49331815319931L158.60135416666668,78.61098160790009L158.75753472222223,83.3778544381059L159.14798611111112,92.42942742078284L159.38225694444446,100.64182124357687L159.53843750000001,105.37258402479445L159.77270833333333,84.57240891917209L160.00697916666667,68.20814441003596L160.31934027777777,35.55870482419846L160.5536111111111,40.74201222595522L160.8659722222222,58.6089878150043L160.9440625,28.601656755698713L161.0221527777778,21.115376978452815L161.56878472222223,31.117250607809893L161.72496527777778,23.882000526429152L161.88114583333333,48.12425752201142L162.11541666666668,73.98145094226868L162.19350694444447,41.43182849592611L162.6620486111111,55.28272593323385L162.74013888888888,46.5078411644935L163.05249999999998,25.73433557905193L163.3648611111111,46.02929582928081L163.59913194444445,72.31006905755075L163.6772222222222,68.01855212521949L163.7553125,43.30458933634992L163.83340277777776,38.8222807605471L163.98958333333334,60.27370944258013L164.22385416666665,65.91708409450322L164.77048611111113,51.62065990246454L164.8485763888889,54.48459978268809L165.23902777777778,52.53301191429058L165.39520833333336,36.88601513445232L165.4732986111111,49.71409585797704L165.55138888888888,25.60011667921492L166.25420138888887,22.10295038052999L166.5665625,49.88389576332932L166.64465277777776,16.82742351089209L166.72274305555555,32.516456357206636L166.80083333333334,51.32070395920624L166.9570138888889,68.24337874873844L167.3474652777778,66.36518978967882L167.42555555555555,84.0445348542608L167.58173611111113,62.11435445557093L167.6598263888889,71.39027746444981L167.73791666666668,77.61957536176469L167.97218750000002,51.56216141483553L168.12836805555557,33.279741893418844L168.20645833333336,69.61213728082674L168.28454861111112,79.69934085066616L168.9873611111111,81.66382481965714L169.22163194444443,54.2591292566853L169.92444444444445,63.69553729217037L170.39298611111113,36.23660045338147L170.4710763888889,42.01266981525697L170.93961805555557,56.365216864129735L171.01770833333333,22.20877000151924L171.09579861111112,27.516858895175716L171.25197916666664,57.70474706146304L171.72052083333332,50.21922277720678L172.1890625,55.52961726255364L172.26715277777777,41.686620140475924L172.891875,45.19490544343171L172.9699652777778,47.0505163022529L173.20423611111113,42.79067214898171L173.43850694444444,54.749464996885706L173.75086805555557,67.65614572538824L173.90704861111112,59.8670189867848L174.2194097222222,70.96198581280916L174.68795138888888,63.02349559916621L175.0003125,82.2958838775966L175.07840277777777,75.29188980550838L175.3126736111111,40.40245410615964L175.46885416666666,29.78325391778199L175.703125,32.795556484275124L176.0154861111111,43.04552992976494L176.17166666666668,46.84958997724527L176.32784722222223,94.40046184157177L176.4059375,125.55087195452953L176.48402777777778,81.0162913287693L177.03065972222223,89.82194065839136L177.1868402777778,78.10072019451896L177.26493055555554,83.16652118893884L177.73347222222222,52.526828554465894L177.81156249999998,36.73827621650369L177.88965277777777,78.60570918388176L178.04583333333332,90.78127071658975L178.20201388888887,80.99067658305292L179.13909722222223,63.06694993329117L179.84190972222223,64.20052107424775L180.15427083333336,66.86491192013764L180.54472222222222,56.41419735807624L180.62281249999998,65.04476757084392L181.01326388888887,58.14917907735743L181.09135416666666,76.3405258084598L181.16944444444445,90.11050743492025L181.48180555555555,117.02772073406928L181.55989583333334,144.4583011702237L182.0284375,129.3024742314539L182.34079861111113,105.82421280081992L182.4188888888889,120.87202824315989L182.49697916666668,116.01815439439753L182.65315972222223,118.847827327114L182.73125000000002,108.58407930127483L183.12170138888888,113.90273535485092L183.35597222222222,106.43178122660535L183.51215277777777,85.23955620659008L183.7464236111111,78.97908343155747L183.98069444444445,49.40330861854294L184.21496527777776,75.43020202903591L184.37114583333334,82.23848330371766L184.8396875,94.72743089314213L184.9177777777778,93.19871592590755L185.07395833333334,60.7094907335611L185.2301388888889,55.12658179117268L185.9329513888889,71.92465677924767L186.01104166666664,56.52815234582313L186.08913194444443,39.29362831545282L186.16722222222222,71.06417121191268L187.2604861111111,38.81405893861913L187.57284722222224,37.13236682832033L187.88520833333334,21.752638924239818L187.96329861111113,35.56640920407696L188.19756944444444,60.29742945532283L188.27565972222223,57.629166091086105L188.50993055555557,107.73749571597676L188.66611111111112,124.54856399509967L188.82229166666664,99.82519595988786L189.21274305555553,93.73931678514597L189.44701388888888,81.38180552232814L189.60319444444443,94.72967900698511L189.68128472222222,63.88269271054941L189.83746527777777,76.45484501361292L190.0717361111111,56.39457320594458L190.30600694444445,67.561580182455L190.4621875,66.80950193961972L190.69645833333334,53.50469883776009L190.93072916666668,86.76913297949011L191.00881944444444,71.837034592496L191.24309027777778,65.47305990306536L191.47736111111112,60.55194457678783L192.10208333333333,42.59640541737545L192.1801736111111,31.306827139051364L192.33635416666667,33.02837998818853L192.72680555555556,46.05094764203727L193.11725694444445,58.156068434541794L193.1953472222222,98.78219327820862L193.2734375,83.6278847831101L193.42961805555555,67.39211180553492L193.50770833333334,98.0304990026095L193.6638888888889,95.24727513150798L193.82006944444444,85.51752480600133L194.05434027777778,72.8455390783182L194.13243055555557,63.80946473670194L194.44479166666667,85.42596543545835L194.83524305555554,74.58516221949635L194.9914236111111,71.97186605041725L195.45996527777777,61.42046010914751L195.53805555555556,27.405240185399634L195.61614583333332,25.21586984118204L195.6942361111111,40.61190017771946L195.77232638888887,50.28498109288353L196.0065972222222,32.18684721533862L196.1627777777778,21.69669016208894L196.3970486111111,16.3613397407928L196.4751388888889,49.78225249102111L196.70940972222223,59.990954296889285L196.86559027777778,71.05742594307802L197.02177083333333,59.26684227887472L197.09986111111112,59.609642935417185L197.17795138888889,57.637925362957716L197.49031250000002,67.34882656596493L197.8026736111111,56.34983330167766L197.88076388888888,55.696092212184865L197.95885416666667,66.53841841935187L198.27121527777777,65.34926100682657L198.34930555555556,58.21599369592329L198.5054861111111,45.447759807985165L198.58357638888887,33.393410461474076L198.73975694444445,70.3932456167511L198.8178472222222,58.24318197202513L198.8959375,63.69436330575839L199.05211805555555,66.98262734281477L199.13020833333334,28.849634455844438L199.2863888888889,27.64177857351578L199.52065972222223,70.90369429178405L199.67684027777779,40.64230782262899L199.75493055555557,24.726026339962516L200.22347222222223,22.916492182990623L200.30156250000002,30.7053659003858L200.37965277777778,25.190660364740154L200.69201388888888,29.1831064553935L200.84819444444443,62.262068558447254L201.00437499999998,34.800572405286175L201.3167361111111,41.67785779120186L201.86336805555555,66.35586202312507L202.0976388888889,84.90638211351033L202.25381944444445,62.58930492270832L202.41,55.22550554674174L202.4880902777778,66.64238713026826L202.8004513888889,45.32355610514148L202.95663194444447,49.519312314894606L203.03472222222223,61.65237270635771L203.11281250000002,61.4518423535968L203.34708333333336,49.886227139147834L203.42517361111112,50.12870117206134L203.65944444444443,44.74645929919933L203.73753472222222,33.37300349585573L203.97180555555553,26.73152979679321L204.20607638888887,74.34709919254438L204.5184375,39.27718816733628L204.98697916666666,70.39052083096674L205.06506944444445,63.38651859046087L205.2993402777778,65.69166629362745L205.37743055555555,49.613560996345484L205.53361111111113,38.983351355726654L205.68979166666668,21.38118363257354L205.76788194444444,40.783465037561115L205.92406250000002,42.3175750838617L206.00215277777778,57.70009584110372L206.15833333333333,47.28048748780128L206.23642361111112,44.82508463745609L206.3145138888889,61.31173639229122L206.39260416666664,73.2616991611194L206.54878472222225,75.25862117361251L206.70496527777777,105.30707588524362L206.78305555555553,101.67471668440547L207.09541666666667,87.305510199776L207.17350694444443,109.8661592034761L207.3296875,72.93299406220098L207.56395833333332,51.73181768804528L207.7201388888889,56.812944897113624L207.9544097222222,57.37519200807715L208.89149305555557,54.30600143054666L209.20385416666667,57.26175094473088L209.43812499999999,19.13647287862139L209.82857638888888,20.802472106079023L209.98475694444443,21.724824380552604L210.21902777777777,31.06501157264455L210.68756944444445,39.55942904937598L210.7656597222222,40.70518064968786L210.9218402777778,39.06073911948795L211.1561111111111,52.1146555469262L211.39038194444444,44.24878348146845L211.46847222222223,54.52510389110432L211.5465625,47.95674513114082L212.24937500000001,40.91469857175693L212.3274652777778,39.23561297583302L212.40555555555554,45.79280178265401L212.48364583333333,56.27329829523934L212.63982638888888,54.192727851807874L212.79600694444443,55.27982288357008L213.03027777777777,58.214809289910676L213.42072916666666,44.50233688315049L213.5769097222222,41.11427518820929L213.655,47.488898503161465L213.7330902777778,57.017035553083986L213.81118055555555,49.616948674456L214.43590277777778,54.52208504577622L215.13871527777775,45.79863590180955L215.52916666666667,35.50038699495835L216.15388888888887,44.85457282655267L216.23197916666666,37.293925799088555L216.46625,63.96433422872836L216.7786111111111,55.85384961789502L217.01288194444444,20.500716815147683L217.32524305555557,50.02180462941756L217.5595138888889,60.074972454698226L217.79378472222223,71.91556763171636L217.87187500000002,31.54250416946101L217.94996527777778,24.26712893600279L218.10614583333336,31.22777454826246L218.73086805555553,39.302373990851606L218.8870486111111,53.11302775945539L219.04322916666666,51.76625811818997L219.1994097222222,53.51486759521815L219.5898611111111,24.11582542621042L219.9803125,57.181262361782515L220.60503472222223,43.85412456737615L220.68312500000002,43.457592528740435L220.76121527777778,34.06065049748415L221.0735763888889,4.271100329046277L221.30784722222222,22.735022434404385L221.54211805555553,56.98844049978912L222.16684027777777,45.4732981884996L222.32302083333335,42.82066142824405L222.63538194444445,54.331974751157205L222.71347222222224,59.87264037990727L222.7915625,58.81065705814447L222.8696527777778,62.707339073410495L223.02583333333334,60.17786347460209L223.1820138888889,59.348503758856396L223.41628472222223,81.55535844466013L223.65055555555557,43.63022787750319L223.72864583333333,43.02122848141522L223.8848263888889,47.83238709991167L224.04100694444446,20.58693197861308L224.58763888888888,73.32934839901318L224.9,101.37158589468592L225.05618055555556,95.43979216638925L225.2123611111111,90.79554065360853L225.36854166666666,70.9130375927343L225.44663194444445,54.03175627146081L225.6028125,50.526439069234726L225.83708333333334,37.086827973439284L225.9932638888889,39.9591298508131L226.22753472222223,30.89393175169721L226.38371527777778,53.307736404686565L226.61798611111112,42.249963602989595L226.6960763888889,54.41801355455502L226.77416666666667,47.140949553097386L227.55506944444443,62.26224782100027L227.63315972222222,63.02236894864265L227.78934027777777,63.33093121587285L227.86743055555556,53.46850180470376L227.94552083333332,52.48178689863339L228.0236111111111,36.84470900288855L228.25788194444445,36.979742724845636L228.3359722222222,38.97825057932718L228.4921527777778,23.811886670762192L228.7264236111111,49.14628554020757L228.88260416666668,39.805758794751284L229.03878472222223,-0.3768033691606263L229.19496527777778,4.381537173488027L229.8977777777778,14.590455521522955L229.97586805555554,1.1931382878893828L230.21013888888888,8.312133535401443L230.36631944444443,36.66112877884885L230.52249999999998,59.19124700283632L230.67868055555556,56.71259368929634L230.8348611111111,72.96754270954946L230.91295138888887,43.2818286118746L231.1472222222222,57.0599938021803L231.6157638888889,61.35141247908493L231.69385416666668,51.325549359322935L232.00621527777778,16.449201061249596L232.24048611111112,31.720602394295184L232.47475694444447,28.669049578399893L232.63093750000002,38.68724863856522L232.70902777777775,26.90338245588231L233.02138888888888,43.26797459338712L233.33374999999998,49.321975580540865L233.56802083333332,53.165081214718626L233.6461111111111,29.416103553660236L233.72420138888887,74.82346286766976L233.80229166666666,40.261903138120374L234.0365625,34.562905537581L234.3489236111111,38.73274979322889L234.50510416666665,25.016677034674473L234.81746527777779,32.64679724024441L234.89555555555557,8.230581157485886L235.05173611111113,59.64677805964955L235.1298263888889,60.96141386070728L235.52027777777778,59.772973494761374L235.7545486111111,31.955024531503398L235.83263888888888,31.36282931507816L235.98881944444443,48.918242547161526L236.14499999999998,33.45634147003116L236.30118055555553,37.59819596573607L236.37927083333332,22.36925181367934L236.61354166666666,31.606183656566913L236.69163194444445,34.94988695175272L236.8478125,40.52773451918844L237.08208333333334,59.63938332149087L237.1601736111111,42.10856068938193L237.31635416666666,48.380490622575365L237.78489583333334,38.42615111449672L238.01916666666668,50.45205395567001L238.25343750000002,66.53866616456254L238.33152777777778,63.08071179609614L238.6438888888889,77.64885227812009L239.11243055555553,39.61465207178989L240.12760416666666,31.80402822637322L240.4399652777778,21.32651467408982L240.59614583333334,17.480796361483556L240.98659722222223,25.126087446521126L241.22086805555557,82.61660124511145L241.37704861111112,72.56590980559956L241.68940972222225,26.275028008641982L242.07986111111111,44.552105108751135L242.39222222222222,13.498393945606466L242.70458333333332,-2.254056512885171L242.93885416666666,10.307094376341695L243.64166666666668,30.511238675747023L244.11020833333333,-1.3107461038628117L244.8911111111111,-5.15877519985429L244.96920138888888,37.22842007791755L245.04729166666667,28.047401754353956L245.2815625,35.76463609712988L245.35965277777777,47.61190923796704L245.75010416666666,41.09059403864501L245.9062847222222,26.13640496330237L246.21864583333334,28.366854512672205L246.2967361111111,62.116501314628465L246.3748263888889,78.08525921773219L246.45291666666668,65.82246104878965L246.53100694444444,56.90548887731309L246.60909722222223,49.51843390275046L246.6871875,18.862770522886535L247.31190972222223,25.01410446956993L247.54618055555554,58.39452390191107L248.01472222222222,64.13635760019505L248.32708333333332,73.94852277201582L249.1079861111111,51.554483064187494L249.1860763888889,45.2893734789925L249.26416666666668,62.383987861695175L249.81079861111112,65.58882630218403L250.20125000000002,68.61448097914061L250.43552083333336,48.68416818076133L250.59170138888888,57.79741309221842L250.66979166666667,31.580942791320354L250.74788194444443,47.212393980990356L250.82597222222222,46.72631880627307L251.13833333333332,25.703880225337826L251.76305555555555,20.890343834589345L251.84114583333334,52.2011737213317L252.07541666666665,42.70981434975758L252.23159722222223,51.066108994452335L252.3096875,27.823107421856008L252.46586805555557,15.71054162291344L252.85631944444447,50.63500932757647L253.40295138888888,41.12040315094336L253.55913194444443,67.36295115246024L253.79340277777777,65.11347601469548L253.94958333333332,73.61818679843066L254.3400347222222,49.16132827683526L254.57430555555555,37.97102037003182L254.8085763888889,28.689614342037117L255.5113888888889,44.37132159136726L255.58947916666668,46.06471385993356L255.82375000000002,59.632300443874584L256.05802083333333,32.141038868085616L256.2142013888889,29.51829501465329L256.29229166666664,21.349302370997464L256.7608333333333,27.77732234457261L256.9951041666667,28.908894813413184L257.0731944444444,41.50723219177408L257.229375,30.576075941689567L257.4636458333334,42.244149016361035L257.6198263888889,62.267159470928036L257.7760069444444,84.63404005587836L258.0102777777778,85.69929069650614L258.0883680555555,71.1705476711538L258.1664583333333,68.25492782296814L258.7130902777778,62.09463386358068L259.1035416666667,15.658587654955625L259.25972222222225,24.14516215832674L259.3378125,29.433759272764036L259.4159027777778,56.947928588789665L259.7282638888889,46.33399019789809L259.80635416666667,50.86308261723585L260.19680555555556,36.58643582922974L260.27489583333335,44.67739238895632L260.58725694444445,50.84892558668649L260.82152777777776,44.70097334632044L260.89961805555555,53.31086919455983L261.05579861111113,35.20341569512638L261.60243055555554,50.608013386306425L261.68052083333333,64.15283892320232L262.0709722222222,36.637412897149574L263.0080555555556,47.81601514780513L263.3985069444445,51.25359804131976L263.5546875,37.11924740969178L263.6327777777778,47.18500622569945L263.8670486111111,37.84934457099092L263.9451388888889,40.8591077372769L264.6479513888889,45.71331012996072L265.11649305555557,27.81781192750944L265.42885416666667,28.687330847568603" style="fill: none;" fill="none"></path></g></g></g></g><g opacity="0.2"><g><g><g><path stroke="rgb(204, 51, 17)" stroke-width="2px" d="M32.48555555555556,320.338398885727L32.71982638888889,172.575L32.797916666666666,318.0732300102711L34.12545138888889,292.1553599059582L34.4378125,153.3473209261894L34.59399305555556,145.9196305990219L34.750173611111116,245.85091717243196L35.60916666666667,240.5303300142288L35.68725694444444,149.18570644855498L35.76534722222222,184.51540954113005L36.39006944444444,93.18835176229474L36.624340277777776,182.3029644012451L36.85861111111112,119.08865607976912L36.93670138888889,210.24016149044036L37.01479166666666,105.49759007692334L37.09288194444444,65.98865396976468L37.483333333333334,183.84822614192962L38.10805555555556,145.44551260471343L38.186145833333335,153.18928159475325L38.6546875,152.75034792423247L39.27940972222222,89.1848293662071L39.51368055555555,29.658070278167685L39.591770833333335,129.58930410146712L40.13840277777778,127.6577533006668L40.37267361111111,141.93362123966216L40.52885416666667,114.83926541805266L41.153576388888894,118.76382089853286L41.38784722222222,139.5982155919075L41.465937499999995,148.86962778568267L42.168749999999996,131.60857833623885L42.324930555555554,124.268716943264L42.403020833333336,123.86486209630965L42.48111111111111,179.28275681734084L43.027743055555554,135.48929847478865L43.418194444444445,94.40002180337903L43.574374999999996,134.48836512565612L43.65246527777777,137.70179636478423L43.96482638888889,160.40628798007964L44.35527777777777,50.2027086138725L44.433368055555555,123.25032330751418L44.66763888888889,106.8848124861717L45.136180555555555,118.84284056425093L45.21427083333333,117.26249999999999L45.37045138888889,145.09435511827468L45.60472222222222,171.08243561983107L45.76090277777777,71.59018821716306L45.838993055555555,160.9506163716316L45.99517361111111,136.85895509719847L46.151354166666664,59.89554144144056L46.22944444444445,162.9348117828369L46.77607638888889,100.49313433170316L47.40079861111111,130.01067198514937L47.47888888888889,158.3517766714096L47.556979166666665,158.6151052236557L47.86934027777778,124.23363811969756L48.650243055555556,89.50090802907941L48.72833333333333,131.1170000553131L48.88451388888889,93.53961474895475L49.196875,88.02596218585965L49.43114583333334,76.62982828617093L49.50923611111111,55.365203690528844L49.58732638888889,89.64138157367704L49.82159722222222,156.6660941362381L50.75868055555556,163.3737982034683L51.227222222222224,164.9717045545578L51.46149305555556,48.62236804962157L51.617673611111115,126.39349139928817L51.695763888888884,136.2180412530899L51.85194444444444,99.56251688003537L52.16430555555556,157.66692198514937L52.47666666666667,142.96963341236113L52.632847222222225,132.55686707496642L53.023298611111116,119.56282682418822L54.1165625,57.43722803592679L54.50701388888889,52.7663112401962L54.58510416666666,56.59433401823041L54.897465277777776,156.3148838996887L54.97555555555556,193.1723356962204L55.28791666666666,52.25716717243192L55.36600694444444,125.3749922633171L55.5221875,125.23451871871947L55.756458333333335,150.02860046625136L56.14690972222222,130.6780136346817L56.225,88.21902759075162L56.30309027777778,121.61728538274764L56.69354166666667,126.74464888572692L56.771631944444444,100.05420066118238L56.84972222222222,226.25446207523345L57.08399305555555,233.33094216585158L57.78680555555555,124.09316457509993L57.94298611111111,95.26042885780332L58.41152777777778,239.31876547336577L58.880069444444445,108.53536344766614L58.95815972222222,129.36100162267684L59.42670138888889,176.17472029924392L59.66097222222223,85.42706973552701L59.973333333333336,217.1937338232994L60.285694444444445,152.1708352088928L60.441874999999996,127.71039791107177L60.75423611111111,148.34286518096923L60.83232638888889,219.26575816869735L60.91041666666667,162.17974669933318L61.06659722222223,109.1675735235214L61.45704861111111,130.01067198514937L61.847500000000004,151.6966644644737L61.92559027777777,153.87413628101348L62.003680555555555,43.68806995153423L63.17503472222222,38.54314066171642L63.721666666666664,95.73454685211179L64.19020833333333,156.03393681049346L64.2682986111111,78.7368787050247L64.42447916666666,44.14462215900417L64.58065972222222,67.69190229177472L64.89302083333334,167.816359770298L65.59583333333333,69.53572965860364L65.7520138888889,50.78216857910154L65.83010416666667,129.92294855117797L66.064375,138.64997960329055L66.53291666666667,45.94445593357085L67.1576388888889,73.71485717296598L67.23572916666667,153.87413628101348L67.47,42.757452499866446L67.54809027777777,95.68190224170682L68.25090277777778,28.911708962917288L68.32899305555556,190.13450957536696L69.18798611111112,161.9514442205429L69.42225694444444,209.04610998630523L69.50034722222223,108.28960068225858L69.65652777777778,87.69231773614881L69.81270833333333,96.67397357225416L70.90597222222223,139.64215643405913L71.29642361111111,127.81579263210295L71.45260416666666,126.23539931774138L71.686875,113.08331973552703L71.84305555555555,49.21053178310392L72.23350694444444,91.13389320373533L72.31159722222223,67.88512594699857L72.78013888888889,86.35773993730542L72.93631944444444,52.09912784099576L73.01440972222223,142.5832916021347L73.17059027777778,86.55085809230802L73.24868055555555,146.18306465148925L73.48295138888889,90.73003835678098L73.63913194444444,121.1782462120056L74.02958333333332,145.6474400281906L74.10767361111111,79.82558823823926L74.81048611111112,45.672370862960804L74.96666666666667,87.60443605184552L75.27902777777778,59.948186051845525L75.35711805555556,103.82947332859037L75.43520833333332,55.82170314788816L75.74756944444444,113.61008234024047L76.05993055555555,114.40908826589583L76.13802083333333,81.47613919973371L76.37229166666667,127.4646351456642L76.52847222222222,64.53127391338346L76.60656250000001,151.60888828039168L76.68465277777779,112.11751796007155L76.76274305555556,35.5755249381065L76.84083333333332,35.786314380168875L76.91892361111113,120.96756227016448L77.07510416666666,56.88409037590024L77.15319444444444,77.94668204784391L77.54364583333333,75.54106600284574L77.6217361111111,79.12322051525113L77.93409722222222,52.48541690111158L78.16836805555556,161.8637207865715L78.3245486111111,101.4063442468643L78.79309027777778,70.40489323139188L78.94927083333333,159.59852553606032L79.33972222222222,132.6622617959976L79.65208333333334,44.88217420578002L79.73017361111111,127.83330566883086L79.88635416666666,18.621903133392294L80.8234375,80.29970623254773L81.37006944444444,92.50360257625577L81.44815972222221,83.03896672725675L81.60434027777778,52.994613718986486L81.68243055555556,61.33540846109388L81.76052083333333,76.34882844686506L81.8386111111111,98.05238671302793L81.99479166666667,142.49551541805266L82.2290625,107.18332536220548L82.54142361111111,96.63878924846647L82.61951388888889,74.54023815393445L82.93187499999999,22.476142716407736L83.16614583333333,133.5401818871498L83.47850694444445,56.38365007638929L83.71277777777777,45.40893681049346L83.79086805555556,47.735585939884174L83.86895833333334,111.59956462383269L83.94704861111111,120.96756227016448L84.02513888888889,44.23245109319683L84.18131944444445,137.86864496469497L84.25940972222222,62.75776244401929L84.33749999999999,112.4336493730545L84.57177083333333,126.74464888572692L84.64986111111111,68.42950708866117L84.72795138888888,91.9767872214317L84.88413194444445,163.61085720062255L85.0403125,115.40121234655379L85.11840277777777,47.34048761129378L85.66503472222223,42.300900292396506L85.89930555555556,65.97114093303678L86.21166666666666,152.03911818265914L86.4459375,95.74330337047574L86.60211805555556,72.02036536931989L86.75829861111112,58.525884819030736L87.07065972222223,85.6026748538017L87.38302083333333,116.43722451925277L87.61729166666666,33.60894806385036L87.69538194444445,122.77620531320571L87.77347222222222,77.5603929877281L87.8515625,70.48396564722059L88.32010416666667,130.04585630893706L88.78864583333333,65.0755495548248L88.94482638888888,94.32094938755033L89.02291666666666,98.12264986038205L89.33527777777778,34.83807839155193L89.56954861111112,57.498629164695714L89.64763888888889,49.658327472209905L89.88190972222223,88.21902759075162L89.96000000000001,115.24312026500701L90.03809027777777,111.04647971391677L90.19427083333333,104.02259148359296L90.35045138888889,71.66039861440656L90.81899305555555,62.09923006296155L91.05326388888889,107.85937077999112L91.13135416666667,148.99253554344176L91.36562500000001,113.76817442178725L91.44371527777778,83.42525578737256L91.52180555555555,130.08088238239287L91.67798611111111,165.56867755651473L91.75607638888889,41.247322332859L92.22461805555555,157.22793556451796L92.53697916666667,167.5266561627388L92.61506944444444,42.494071197509726L92.77125000000001,75.45328981876371L92.92743055555556,41.90580196380611L93.08361111111111,74.43479068279264L93.16170138888889,75.22498733997342L93.23979166666666,132.34613038301467L93.31788194444444,78.30670155286786L93.39597222222221,30.237477493286093L93.63024305555555,74.41727764606473L93.78642361111112,33.047001135349234L93.94260416666667,97.30607814788816L94.17687500000001,78.85983921289441L94.33305555555556,60.28183050155637L94.41114583333332,50.51873452663419L94.48923611111113,99.91372711658475L94.95777777777778,40.66791511774059L95.03586805555555,57.261622917652105L95.1920486111111,96.37546069622037L95.42631944444445,29.60537291765209L95.73868055555556,3.2309506058692534L95.97295138888889,115.2958176255226L96.20722222222221,47.753151726722706L96.2853125,93.01279939413068L96.44149305555555,151.43333591222762L96.5976736111111,73.3022985577583L96.75385416666667,48.13063151836394L97.14430555555556,77.04233415126798L97.3785763888889,71.58143169879911L97.53475694444444,82.87211812734601L98.70611111111111,-0.12295417785651352L99.01847222222221,58.50826628208158L99.17465277777778,47.48096115589141L99.25274305555556,17.041509819030722L99.56510416666667,155.03305621147155L99.72128472222222,86.26991100311277L99.799375,135.48929847478865L100.03364583333334,56.06757141351697L100.18982638888889,118.7550643801689L100.34600694444444,112.55655713081359L100.58027777777777,94.32975865602491L100.73645833333333,-15.101189839840004L100.8145486111111,74.1802186489105L100.97072916666667,43.0383995890617L101.28309027777777,117.86833502054213L101.59545138888889,87.75377161502836L102.14208333333333,91.25685371160505L102.22017361111111,110.81812448501586L102.29826388888888,131.38908512592315L102.37635416666667,96.82320363521573L102.53253472222222,79.76413435935972L102.76680555555556,104.04896653890607L102.84489583333334,114.34763438701629L102.92298611111111,89.20239515304563L103.15725694444446,102.10860646963117L103.23534722222223,89.38675678968427L103.31343749999999,160.23063011169432L103.39152777777777,45.268410515785206L104.01625,49.86025489568708L104.09434027777777,127.3064903140068L104.32861111111112,143.00471223592757L104.87524305555554,89.26384903192518L105.10951388888888,128.96590329408644L105.73423611111112,181.70593864917754L105.81232638888889,88.86880345344541L105.96850694444446,85.83092458248136L106.04659722222223,144.84848685264586L106.12468750000001,107.63987756967542L106.35895833333333,107.83304847478864L106.43704861111111,59.49168659448621L106.59322916666666,170.79267926216124L106.74940972222223,94.75112653970716L107.13986111111112,140.91522760391234L107.21795138888889,58.692680668830846L107.53031250000001,67.77978397607801L107.60840277777777,43.70563573837276L107.68649305555554,40.211310160160025L107.76458333333333,92.87227309942243L107.99885416666666,120.98512805700301L108.07694444444444,17.348831963539084L108.15503472222223,17.208358418941458L108.38930555555555,25.900257897376974L108.46739583333333,154.11995179653167L109.09211805555555,118.15803862810134L109.40447916666666,76.30488760471341L109.56065972222223,84.99689258337018L109.71684027777778,99.76444430351255L109.79493055555555,52.27473295927045L110.0292013888889,83.6448017477989L110.26347222222223,65.81310160160062L110.34156250000001,118.96580107212066L110.41965277777778,99.4834972143173L110.49774305555556,15.311886441707571L110.73201388888889,15.900155675411185L111.35673611111112,74.40846837759015L111.51291666666667,93.60977239608762L111.66909722222222,40.09721167087551L111.82527777777779,74.38214607238767L111.90336805555556,93.0039901256561L112.13763888888889,29.48241240978237L112.29381944444444,113.32918800115584L112.45,76.23472995758054L112.8404513888889,107.2272134542465L113.38708333333334,104.88299853801725L113.4651736111111,92.36307628154752L113.69944444444444,113.60132582187651L113.855625,103.28509218692777L114.32416666666667,49.41245920658109L114.40225694444445,46.24302155971526L114.5584375,58.04301030635831L114.71461805555556,51.466970515251134L115.02697916666666,112.73216224908828L115.33934027777778,87.8854358911514L115.49552083333333,145.98989374637603L115.88597222222222,49.930518043041204L115.9640625,90.2120322704315L116.04215277777779,163.9181793451309L116.58878472222221,39.73724491596218L116.66687499999999,16.962490153312643L117.13541666666667,112.88139231204985L117.44777777777779,47.919947576522816L117.52586805555556,47.296599519252766L117.60395833333334,160.95937288999556L118.30677083333333,141.67904920578002L118.46295138888888,33.310382437705954L118.69722222222222,61.54614515304563L119.16576388888889,55.32131559848783L119.24385416666668,54.21504027843473L119.55621527777777,127.95626617670058L119.79048611111111,44.80315454006194L119.86857638888888,10.658640933036764L119.94666666666667,5.654132437705954L120.1809375,24.33748311996456L121.03993055555556,112.67946488857268L121.27420138888888,111.89807749986647L121.50847222222222,46.21664650440215L121.5865625,75.41815824508664L121.66465277777777,128.93958098888396L121.89892361111112,70.65951801538465L121.97701388888889,58.877095055580114L122.05510416666667,36.11995882987972L123.22645833333334,-5.180107283592292L123.46072916666667,44.96995038986205L123.61690972222223,73.05643029212949L123.69500000000001,53.02974529266355L123.85118055555554,72.81937129497526L123.92927083333333,39.08752180337902L124.16354166666666,73.1441537261009L124.3978125,96.54225654602048L124.47590277777778,98.01725513935087L124.63208333333334,-11.659508872032234L124.78826388888889,46.796106469631184L124.94444444444444,154.92766149044036L125.10062500000001,7.006223273277243L125.33489583333333,81.96782298088071L125.49107638888889,106.12974740266797L125.64725694444444,71.62531979084012L125.8034375,93.31131227016446L125.95961805555555,81.39717228412626L126.11579861111112,113.85595060586928L126.89670138888889,-2.8534054040909496L127.2090625,74.38214607238767L127.52142361111112,76.15565754175184L127.5995138888889,97.20954544544217L127.67760416666667,39.21037681102749L127.83378472222223,60.82621164321897L128.06805555555556,189.1687605500221L128.3023263888889,53.521376323699926L128.45850694444445,12.08099491596218L128.6927777777778,108.77242244482038L129.16131944444444,87.55179144144056L129.3175,81.15135676860807L129.47368055555555,144.2514611005783L129.55177083333334,89.14088852405546L129.78604166666668,85.26903040409086L129.86413194444444,98.08751828670499L129.94222222222223,61.58127672672269L130.17649305555557,38.40261436700817L130.80121527777777,45.60205496549605L131.19166666666666,63.495261740684484L131.3478472222222,106.00683964490888L131.8163888888889,44.91730577945708L132.12875,31.55443675518032L132.2068402777778,49.561742019653295L132.28493055555555,103.11834908723829L132.36302083333334,-0.8077033638954845L132.8315625,0.5706570267676909L133.06583333333333,101.21306784152982L133.61246527777777,75.13721115589139L133.76864583333332,30.193589401245077L134.00291666666666,104.78636033535001L134.08100694444445,108.30711371898649L134.3152777777778,68.88595379590986L134.39336805555556,108.21933753490445L134.78381944444445,35.17167009115215L134.8619097222222,104.72501195669172L134.94,79.77289087772367L135.17427083333334,119.12384040355681L135.40854166666668,47.129803669452656L135.48663194444444,121.66998274326323L135.56472222222223,47.463395369052876L135.6428125,15.469978523254355L135.72090277777778,91.52023501396177L136.18944444444446,15.592886281013449L136.65798611111111,53.90777088403699L137.12652777777777,61.54614515304563L137.4388888888889,49.40370268821714L137.59506944444445,125.55935389995574L137.98552083333334,53.925336670875524L138.29788194444444,40.667862367629965L138.84451388888888,76.89315683841703L139.00069444444446,93.38157541751859L139.23496527777777,71.75698406696317L139.39114583333333,70.6682745337486L139.46923611111112,62.60847963094709L139.70350694444446,43.740767312049826L139.78159722222222,2.1422410726546843L139.93777777777777,92.45966173410413L140.01586805555556,156.42022587060927L140.2501388888889,29.974096190929373L141.57767361111112,28.55184770822521L141.6557638888889,122.19674534797667L141.73385416666667,102.3192904114723L141.81194444444446,86.62993050813672L142.12430555555554,17.3927200555801L142.35857638888888,95.15503413677213L142.67093749999998,74.18897516727445L142.74902777777777,122.6269225001335L142.82711805555556,-45.08408896923072L143.13947916666666,113.33799726963042L143.21756944444445,50.8173001527786L143.2956597222222,63.74107725620267L143.4518402777778,71.47608972787854L143.60802083333334,31.765226197242697L143.7642013888889,89.8257959604263L143.92038194444444,134.11964185237883L144.54510416666668,130.41457958221434L144.93555555555554,14.275874269008597L145.01364583333336,71.91502339839933L145.71645833333332,89.60624999999997L145.7945486111111,33.29286940097805L146.65354166666665,74.15384359359739L147.04399305555557,116.66547424793242L147.2782638888889,106.32286555767057L147.35635416666668,171.08243561983107L147.59062500000002,104.97077472209928L147.74680555555557,24.77646954059597L147.82489583333336,2.1159187674522L148.44961805555553,24.767765772342642L148.52770833333332,94.2331732034683L148.6057986111111,58.218562674522374L148.68388888888887,65.91844357252118L148.9181597222222,80.17679847478864L149.07434027777776,12.4145866155624L149.15243055555555,58.37660200595853L149.23052083333334,95.50624437332151L149.85524305555555,65.93600935935972L150.24569444444447,121.74019314050673L150.32378472222223,-1.5101765871048656L150.55805555555557,-3.4241088509560313L151.10468749999998,125.11161096096038L151.26086805555553,82.35416479110715L152.04177083333335,60.343337130546544L152.43222222222224,-7.9368808150292125L152.5103125,41.1771119356155L152.66649305555555,55.01399345397947L152.74458333333334,81.5113235235214L153.21312500000002,43.97787905931469L153.29121527777778,76.69122941493985L153.75975694444446,110.58111823797223L153.83784722222225,82.5649014830589L154.54065972222222,-4.986936378479072L154.85302083333332,138.52701909542083L155.0092013888889,50.404636037349675L155.3215625,77.77112967967985L156.02437500000002,64.54878695011136L156.18055555555557,50.94896442890165L156.4148263888889,20.00026352405544L156.57100694444446,61.79196066856382L156.6490972222222,91.54655731916425L157.0395486111111,33.34556676149364L157.27381944444443,42.616926205158194L157.66427083333332,-15.452400076389381L157.8204513888889,80.31727201938627L158.1328125,22.616669011115988L158.28899305555555,25.37354804277416L158.36708333333334,64.03959013223646L158.4451736111111,116.31431676149367L158.60135416666668,86.2874767899513L158.75753472222223,90.52816368341443L159.14798611111112,106.00678689479825L159.38225694444446,112.96041197776793L159.53843750000001,112.46872819662093L159.77270833333333,53.37214626073835L160.00697916666667,43.66174764633175L160.31934027777777,-13.415454554557869L160.5536111111111,48.51697332859038L160.8659722222222,85.40945119857786L160.9440625,-16.40933983325965L161.0221527777778,9.885957312583884L161.56878472222223,46.12006105184554L161.72496527777778,13.02912540435787L161.88114583333333,84.48764301538465L162.11541666666668,112.76724107265471L162.19350694444447,-7.392605173587867L162.6620486111111,76.05907208919523L162.74013888888888,33.34551401138302L163.05249999999998,-5.425922799110481L163.3648611111111,76.47173620462415L163.59913194444445,111.73122889995574L163.6772222222222,61.58127672672269L163.7553125,6.2336451530456145L163.83340277777776,32.09881789684292L163.98958333333334,92.45085246562955L164.22385416666665,74.38214607238767L164.77048611111113,30.176023614406546L164.8485763888889,58.7805096030235L165.23902777777778,49.60563011169431L165.39520833333336,13.415519964694937L165.4732986111111,68.95621694326398L165.55138888888888,-10.57085208892829L166.25420138888887,16.857200932502707L166.5665625,91.5553138375282L166.64465277777776,-32.75728486776359L166.72274305555555,56.05000562667844L166.80083333333334,79.52707536220548L166.9570138888889,93.62739093303678L167.3474652777778,63.54790635108945L167.42555555555555,110.5635524511337L167.58173611111113,29.219083857536276L167.6598263888889,85.30416197776792L167.73791666666668,86.96352220773694L167.97218750000002,12.476040494441946L168.12836805555557,5.856112611293753L168.20645833333336,124.11073036193847L168.28454861111112,94.83014620542524L168.9873611111111,84.61055077314374L169.22163194444443,13.15208591222759L169.92444444444445,77.85014934539792L170.39298611111113,-4.951804804802009L170.4710763888889,50.67677385807035L170.93961805555557,77.89403743743894L171.01770833333333,-29.025900292396614L171.09579861111112,35.47899223566051L171.25197916666664,102.98657931089399L171.72052083333332,38.99093635082241L172.1890625,63.49520899057386L172.26715277777777,20.922124457359274L172.891875,50.45733339786527L172.9699652777778,49.833932590484594L173.20423611111113,36.40090591907497L173.43850694444444,72.68765426874158L173.75086805555557,87.01616681814191L173.90704861111112,48.183328878879536L174.2194097222222,87.60443605184552L174.68795138888888,51.11576027870176L175.0003125,111.2044662952423L175.07840277777777,64.78589869737623L175.3126736111111,-11.931699442863533L175.46885416666666,13.85445363521572L175.703125,37.31401033401485L176.0154861111111,58.42049009799955L176.17166666666668,52.5556800484657L176.32784722222223,165.7267696380615L176.4059375,172.2764871239662L176.48402777777778,14.21442039012905L177.03065972222223,103.03041465282438L177.1868402777778,60.51888949871061L177.26493055555554,90.76522268056867L177.73347222222222,6.5672896027564605L177.81156249999998,13.055447709560354L177.88965277777777,141.40685863494872L178.04583333333332,109.04461301565168L178.20201388888887,66.30478538274762L179.13909722222223,36.18135995864864L179.84190972222223,65.90087778568265L180.15427083333336,70.86149818897245L180.54472222222222,40.73812551498409L180.62281249999998,77.99062288999555L181.01326388888887,47.805796337127674L181.09135416666666,103.6275459051132L181.16944444444445,110.76547987461089L181.48180555555555,157.40354068279265L181.55989583333334,185.60417182445525L182.0284375,106.56873382329938L182.34079861111113,70.60682065486905L182.4188888888889,143.4437514066696L182.49697916666668,108.73734362125394L182.65315972222223,123.09233672618865L182.73125000000002,93.188457262516L183.12170138888888,121.88071943521498L183.35597222222222,95.22535003423688L183.51215277777777,53.45121867656705L183.7464236111111,69.58837426900861L183.98069444444445,5.039646399021109L184.21496527777776,114.47054214477538L184.37114583333334,92.45090521574018L184.8396875,113.46085227727889L184.9177777777778,90.90564347505567L185.07395833333334,11.975652945041617L185.2301388888889,46.75221837759017L185.9329513888889,97.12176926136014L186.01104166666664,33.4333956956863L186.08913194444443,13.441842269897421L186.16722222222222,118.71998555660247L187.2604861111111,-9.561109471321174L187.57284722222224,34.609828662872275L187.88520833333334,-1.3169529318810191L187.96329861111113,56.28706462383268L188.19756944444444,97.39395983219144L188.27565972222223,53.626771044731115L188.50993055555557,182.89999015331267L188.66611111111112,149.76516641378402L188.82229166666664,62.740143907070134L189.21274305555553,84.61049802303312L189.44701388888888,62.84553862810132L189.60319444444443,114.75148923397063L189.68128472222222,17.612213265895804L189.83746527777777,95.31307346820829L190.0717361111111,26.304165494441946L190.30600694444445,84.31209064722059L190.4621875,65.68138457536695L190.69645833333334,33.547494184970816L190.93072916666668,136.66578419208525L191.00881944444444,49.43888701200483L191.24309027777778,55.92709786891935L191.47736111111112,53.1702715873718L192.10208333333333,15.663096678256949L192.1801736111111,14.372459721565207L192.33635416666667,35.610709261894186L192.72680555555556,65.58479912281034L193.11725694444445,76.31374962329862L193.1953472222222,159.7213805437088L193.2734375,60.89642204046247L193.42961805555555,43.03845233917232L193.50770833333334,143.98807979822158L193.6638888888889,91.07243932485578L193.82006944444444,70.92289931774137L194.05434027777778,53.83756048679349L194.13243055555557,50.25535322427747L194.44479166666667,117.85071648359298L194.83524305555554,58.32395739555356L194.9914236111111,68.05192179679868L195.45996527777777,45.593351197242725L195.53805555555556,-23.617589700222084L195.61614583333332,21.931814324855765L195.6942361111111,63.70594568252561L195.77232638888887,64.79460246562955L196.0065972222222,5.039646399021109L196.1627777777778,5.961454582214316L196.3970486111111,8.358314108848532L196.4751388888889,99.9136216163635L196.70940972222223,75.3040070056915L196.86559027777778,87.65713341236112L197.02177083333333,41.580966782569845L197.09986111111112,60.12384392023084L197.17795138888889,54.68034900426862L197.49031250000002,81.91517837047574L197.8026736111111,39.851343405246695L197.88076388888888,54.715480577945684L197.95885416666667,82.80190773010251L198.27121527777777,63.56552488803861L198.34930555555556,47.51609272956847L198.5054861111111,26.295408976077994L198.58357638888887,15.311886441707571L198.73975694444445,125.89299834966658L198.8178472222222,40.01808650493618L198.8959375,71.87113530635831L199.05211805555555,71.91502339839933L199.13020833333334,-28.34985487461097L199.2863888888889,25.82999475002285L199.52065972222223,135.7965678691864L199.67684027777779,-4.749771881103584L199.75493055555557,0.8516041159629424L200.22347222222223,20.202190947532614L200.30156250000002,42.38867647647854L200.37965277777778,16.918602061271628L200.69201388888888,35.171775591373404L200.84819444444443,111.88051171302794L201.00437499999998,-6.391671824455329L201.3167361111111,51.9937858700752L201.86336805555555,103.3728683710098L202.0976388888889,112.73216224908828L202.25381944444445,29.113689136505087L202.41,44.17980648279186L202.4880902777778,83.76770950555799L202.8004513888889,13.345309567451437L202.95663194444447,55.812946629524205L203.03472222222223,79.85196329355237L203.11281250000002,61.151046824455236L203.34708333333336,32.537804317474325L203.42517361111112,50.49241222143171L203.65944444444443,36.67309648990627L203.73753472222222,16.31281979084011L203.97180555555553,16.769319248199423L204.20607638888887,145.77045328617095L204.5184375,-13.327678370475837L204.98697916666666,117.06051982641219L205.06506944444445,52.88051522970197L205.2993402777778,69.1493878483772L205.37743055555555,25.49640305042263L205.53361111111113,23.03803689479824L205.68979166666668,-5.022067952156135L205.76788194444444,69.8868871450424L205.92406250000002,44.61874015331267L206.00215277777778,80.77387697696683L206.15833333333333,31.651074957847555L206.23642361111112,41.14198036193844L206.3145138888889,86.04171402454374L206.39260416666664,91.18664331436155L206.54878472222225,78.25400419235227L206.70496527777777,150.3797579526901L206.78305555555553,96.22617788314817L207.09541666666667,65.7517004728317L207.17350694444443,143.70713270902633L207.3296875,17.53324635028835L207.56395833333332,19.93005312681194L207.7201388888889,64.43463571071622L207.9544097222222,58.218562674522374L208.89149305555557,49.70221556425092L209.20385416666667,61.69537521600721L209.43812499999999,-38.051444220542976L209.82857638888888,23.301470947265585L209.98475694444443,23.10835279226299L210.21902777777777,45.07529236078261L210.68756944444445,52.301055264472936L210.7656597222222,42.4238080501556L210.9218402777778,36.59407682418819L211.1561111111111,71.69553018808362L211.39038194444444,32.44997538328167L211.46847222222223,69.93958450555799L211.5465625,38.10420699119564L212.24937500000001,30.351628732681235L212.3274652777778,36.71698458194729L212.40555555555554,55.628584992885564L212.48364583333333,71.9940430641174L212.63982638888888,51.07187218666074L212.79600694444443,56.91046543121335L213.03027777777777,62.617288899421666L213.42072916666666,23.933628273010214L213.5769097222222,36.03218264579769L213.655,57.05083347558973L213.7330902777778,71.30924112796781L213.81118055555555,38.51681835651394L214.43590277777778,61.879789602756475L215.13871527777775,32.71346218585964L215.52916666666667,20.053013634681662L216.15388888888887,58.885851573944066L216.23197916666666,25.95295525789257L216.46625,103.969946873188L216.7786111111111,43.68812270164486L217.01288194444444,-32.528982388973304L217.32524305555557,94.30343635082242L217.5595138888889,75.1547241926193L217.79378472222223,89.67646039724347L217.87187500000002,-29.017091023922035L217.94996527777778,13.35406608581539L218.10614583333336,41.66874296665188L218.73086805555553,51.41427315473554L218.8870486111111,73.82900841236112L219.04322916666666,49.746103656291936L219.1994097222222,56.13778181076047L219.5898611111111,-19.982737827301094L219.9803125,106.77941776514051L220.60503472222223,23.863417875766714L220.68312500000002,42.86279447078701L220.76121527777778,19.96523745059963L221.0735763888889,-40.413224923610755L221.30784722222222,50.43090559244153L221.54211805555553,108.36856759786603L222.16684027777777,28.200584721565207L222.32302083333335,38.84170628786083L222.63538194444445,71.59894473552701L222.71347222222224,68.18363882303235L222.7915625,57.21768207550046L222.8696527777778,68.55236209630964L223.02583333333334,56.38365007638929L223.1820138888889,58.10446418523786L223.41628472222223,114.86564047336577L223.65055555555557,-13.257467973232337L223.72864583333333,42.107729387283285L223.8848263888889,55.04912502765653L224.04100694444446,-20.281250703334877L224.58763888888888,152.44297302961348L224.9,143.43494213819503L225.05618055555556,86.54210157394407L225.2123611111111,83.82916338443754L225.36854166666666,41.08928300142284L225.44663194444445,28.70983428955074L225.6028125,45.26846326589583L225.83708333333334,16.927411329746207L225.9932638888889,44.26758266687392L226.22753472222223,17.29613460302349L226.38371527777778,86.9284433841705L226.61798611111112,25.66330440044399L226.6960763888889,72.67008848190305L226.77416666666667,36.22535355091091L227.55506944444443,84.94419522285459L227.63315972222222,64.16255064010618L227.78934027777777,63.79377461671827L227.86743055555556,38.674857687950094L227.94552083333332,51.00171453952787L228.0236111111111,13.3890921592712L228.25788194444445,37.18229330778118L228.3359722222222,41.97601236104961L228.4921527777778,1.062340807914694L228.7264236111111,87.14788384437558L228.88260416666668,25.794968676567038L229.03878472222223,-60.65064661502845L229.19496527777778,11.51904798746105L229.8977777777778,29.903833043575247L229.97586805555554,-18.902837562561103L230.21013888888888,18.990626406669577L230.36631944444443,79.18462164402005L230.52249999999998,92.98642433881757L230.67868055555556,52.994613718986486L230.8348611111111,97.34996623992917L230.91295138888887,-1.2467425346375194L231.1472222222222,77.72724158763883L231.6157638888889,67.78854049444196L231.69385416666668,36.28675467967983L232.00621527777778,-35.86532138586051L232.24048611111112,54.62770439386365L232.47475694444447,24.091720354556998L232.63093750000002,53.714547228813146L232.70902777777775,9.227583181858023L233.02138888888888,67.81486279964444L233.33374999999998,58.40297706127164L233.56802083333332,58.92973966598508L233.6461111111111,-6.207362937927314L233.72420138888887,142.93450183868407L233.80229166666666,-11.580436456203529L234.0365625,26.014409136772116L234.3489236111111,44.98751617670058L234.50510416666665,4.442567896842917L234.81746527777779,44.0919775485992L234.89555555555557,-28.393742966651985L235.05173611111113,136.7710734128952L235.1298263888889,62.93336756229398L235.52027777777778,57.99031294584272L235.7545486111111,-9.771898913383552L235.83263888888888,30.47453649044033L235.98881944444443,75.25136239528653L236.14499999999998,10.263489854335745L236.30118055555553,43.810977709293326L236.37927083333332,-0.47416441440589097L236.61354166666666,45.461581420898426L236.69163194444445,39.96544189453121L236.8478125,48.89450587034224L237.08208333333334,88.30685652494428L237.1601736111111,15.812326741218527L237.31635416666666,57.788385522365544L237.78489583333334,23.494641852378805L238.01916666666668,68.49090821743009L238.25343750000002,90.66858447790143L238.33152777777778,57.89378024339673L238.6438888888889,99.50106300115583L239.11243055555553,-17.4366482377053L240.12760416666666,20.0880924582481L240.4399652777778,5.610244345664938L240.59614583333334,11.71221889257427L240.98659722222223,36.594024074077566L241.22086805555557,168.85237194299697L241.37704861111112,57.48987264633176L241.68940972222225,-43.16129468679435L242.07986111111111,71.96772075891492L242.39222222222222,-33.08217279911048L242.70458333333332,-25.882732200622627L242.93885416666666,29.14882071018215L243.64166666666668,60.817455124855016L244.11020833333333,-49.04372327327735L244.8911111111111,-10.930818843841621L244.96920138888888,100.80921299457547L245.04729166666667,14.275874269008597L245.2815625,47.34048761129378L245.35965277777777,65.38281894922254L245.75010416666666,31.30862123966213L245.9062847222222,3.7051213502883513L246.21864583333334,31.712528836727103L246.2967361111111,112.74097151756285L246.3748263888889,102.03839607238767L246.45291666666668,47.42826379537581L246.53100694444444,43.530030620098074L246.60909722222223,38.437851440906485L246.6871875,-27.1207245469094L247.31190972222223,34.24110538959499L247.54618055555554,108.46515305042264L248.01472222222222,72.74910814762113L248.32708333333332,88.66677052974698L249.1079861111111,17.96342350244518L249.1860763888889,35.891709101200064L249.26416666666668,88.02590943574903L249.81079861111112,70.3960839629173L250.20125000000002,73.15296299457547L250.43552083333336,18.788698983192404L250.59170138888888,71.46728045940397L250.66979166666667,-7.7437626600266185L250.74788194444443,70.65957076549527L250.82597222222222,45.99720604419707L251.13833333333332,-5.8297776460648265L251.76305555555555,13.670039248466452L251.84114583333334,99.16741855144498L252.07541666666665,28.472775292396506L252.23159722222223,63.60055096149442L252.3096875,-7.04139493703849L252.46586805555557,-2.4583070755005565L252.85631944444447,103.02171088457105L253.40295138888888,26.848493885993918L253.55913194444443,106.72677315473554L253.79340277777777,61.73926330804822L253.94958333333332,86.37525297403333L254.3400347222222,12.476040494441946L254.57430555555555,21.18555850982662L254.8085763888889,14.767505300044974L255.5113888888889,67.89388246536252L255.58947916666668,48.60480226278304L255.82375000000002,79.98368031978605L256.05802083333333,-9.095853495597908L256.2142013888889,25.58417923450466L256.29229166666664,9.095813405513724L256.7608333333333,37.419352304935416L256.9951041666667,30.606253516674002L257.0731944444444,60.404738259315465L257.229375,14.179341566562613L257.4636458333334,59.74625862836835L257.6198263888889,92.3016751527786L257.7760069444444,118.18436093330382L258.0102777777778,87.29716665744779L258.0883680555555,49.37743313312528L258.1664583333333,63.88149805068967L258.7130902777778,52.854192924499486L259.1035416666667,-53.99548165798194L259.25972222222225,36.875023913383444L259.3378125,37.36665494441982L259.4159027777778,98.21918256282804L259.7282638888889,30.41308261156078L259.80635416666667,57.6567212462425L260.19680555555556,15.171465647220572L260.27489583333335,56.81382722854612L260.58725694444445,60.10622538328168L260.82152777777776,35.47904498577114L260.89961805555555,66.22571296691892L261.05579861111113,8.042235445976218L261.60243055555554,73.7149099230766L261.68052083333333,84.47007722854612L262.0709722222222,-4.635726141929695L263.0080555555556,64.58391852378843L263.3985069444445,56.40997238159177L263.5546875,15.917721462249716L263.6327777777778,62.28364444971082L263.8670486111111,23.845852088928183L263.9451388888889,45.37375248670577L264.6479513888889,52.994613718986486L265.11649305555557,0.9745646238326628L265.42885416666667,29.99160922765728" style="fill: none;" fill="none"></path></g></g></g></g></g></g><g transform="translate(48, 177)" clip-path="url(#clip_1)"><clipPath id="clip_1"><rect width="281" height="23"></rect></clipPath><g><g><line x1="0" y1="0" x2="0" y2="5" style="visibility: inherit;" fill="rgb(0, 0, 0)" stroke="rgb(204, 204, 204)" stroke-width="1px"></line><line x1="31.23611111111111" y1="0" x2="31.23611111111111" y2="5" style="visibility: inherit;" fill="rgb(0, 0, 0)" stroke="rgb(204, 204, 204)" stroke-width="1px"></line><line x1="62.47222222222222" y1="0" x2="62.47222222222222" y2="5" style="visibility: inherit;" fill="rgb(0, 0, 0)" stroke="rgb(204, 204, 204)" stroke-width="1px"></line><line x1="93.70833333333333" y1="0" x2="93.70833333333333" y2="5" style="visibility: inherit;" fill="rgb(0, 0, 0)" stroke="rgb(204, 204, 204)" stroke-width="1px"></line><line x1="124.94444444444444" y1="0" x2="124.94444444444444" y2="5" style="visibility: inherit;" fill="rgb(0, 0, 0)" stroke="rgb(204, 204, 204)" stroke-width="1px"></line><line x1="156.18055555555557" y1="0" x2="156.18055555555557" y2="5" style="visibility: inherit;" fill="rgb(0, 0, 0)" stroke="rgb(204, 204, 204)" stroke-width="1px"></line><line x1="187.41666666666666" y1="0" x2="187.41666666666666" y2="5" style="visibility: inherit;" fill="rgb(0, 0, 0)" stroke="rgb(204, 204, 204)" stroke-width="1px"></line><line x1="218.65277777777777" y1="0" x2="218.65277777777777" y2="5" style="visibility: inherit;" fill="rgb(0, 0, 0)" stroke="rgb(204, 204, 204)" stroke-width="1px"></line><line x1="249.88888888888889" y1="0" x2="249.88888888888889" y2="5" style="visibility: inherit;" fill="rgb(0, 0, 0)" stroke="rgb(204, 204, 204)" stroke-width="1px"></line><line x1="281.125" y1="0" x2="281.125" y2="5" style="visibility: inherit;" fill="rgb(0, 0, 0)" stroke="rgb(204, 204, 204)" stroke-width="1px"></line></g><g transform="translate(0, 8)"><text x="0" y="0" dx="0em" dy="0.95em" style="text-anchor: middle; visibility: hidden; font-family: &quot;Helvetica Neue&quot;, sans-serif; font-size: 12px; font-weight: 200;" fill="rgb(50, 49, 63)" stroke="none" stroke-width="1px">-2k</text><text x="31.23611111111111" y="0" dx="0em" dy="0.95em" style="text-anchor: middle; visibility: inherit; font-family: &quot;Helvetica Neue&quot;, sans-serif; font-size: 12px; font-weight: 200;" fill="rgb(50, 49, 63)" stroke="none" stroke-width="1px">0</text><text x="62.47222222222222" y="0" dx="0em" dy="0.95em" style="text-anchor: middle; visibility: inherit; font-family: &quot;Helvetica Neue&quot;, sans-serif; font-size: 12px; font-weight: 200;" fill="rgb(50, 49, 63)" stroke="none" stroke-width="1px">2k</text><text x="93.70833333333333" y="0" dx="0em" dy="0.95em" style="text-anchor: middle; visibility: inherit; font-family: &quot;Helvetica Neue&quot;, sans-serif; font-size: 12px; font-weight: 200;" fill="rgb(50, 49, 63)" stroke="none" stroke-width="1px">4k</text><text x="124.94444444444444" y="0" dx="0em" dy="0.95em" style="text-anchor: middle; visibility: inherit; font-family: &quot;Helvetica Neue&quot;, sans-serif; font-size: 12px; font-weight: 200;" fill="rgb(50, 49, 63)" stroke="none" stroke-width="1px">6k</text><text x="156.18055555555557" y="0" dx="0em" dy="0.95em" style="text-anchor: middle; visibility: inherit; font-family: &quot;Helvetica Neue&quot;, sans-serif; font-size: 12px; font-weight: 200;" fill="rgb(50, 49, 63)" stroke="none" stroke-width="1px">8k</text><text x="187.41666666666666" y="0" dx="0em" dy="0.95em" style="text-anchor: middle; visibility: inherit; font-family: &quot;Helvetica Neue&quot;, sans-serif; font-size: 12px; font-weight: 200;" fill="rgb(50, 49, 63)" stroke="none" stroke-width="1px">10k</text><text x="218.65277777777777" y="0" dx="0em" dy="0.95em" style="text-anchor: middle; visibility: inherit; font-family: &quot;Helvetica Neue&quot;, sans-serif; font-size: 12px; font-weight: 200;" fill="rgb(50, 49, 63)" stroke="none" stroke-width="1px">12k</text><text x="249.88888888888889" y="0" dx="0em" dy="0.95em" style="text-anchor: middle; visibility: inherit; font-family: &quot;Helvetica Neue&quot;, sans-serif; font-size: 12px; font-weight: 200;" fill="rgb(50, 49, 63)" stroke="none" stroke-width="1px">14k</text><text x="281.125" y="0" dx="0em" dy="0.95em" style="text-anchor: middle; visibility: hidden; font-family: &quot;Helvetica Neue&quot;, sans-serif; font-size: 12px; font-weight: 200;" fill="rgb(50, 49, 63)" stroke="none" stroke-width="1px">16k</text></g><line x1="0" y1="0" x2="281.125" y2="0" fill="rgb(0, 0, 0)" stroke="rgb(204, 204, 204)" stroke-width="1px"></line></g></g></g></g></svg>