<svg viewBox="0 0 330 200" xmlns="http://www.w3.org/2000/svg"><g><g><g><g><g><line x1="48.875" y1="177" x2="43.875" y2="177" style="visibility: inherit;" fill="rgb(0, 0, 0)" stroke="rgb(204, 204, 204)" stroke-width="1px"></line><line x1="48.875" y1="164.35714285714286" x2="43.875" y2="164.35714285714286" style="visibility: inherit;" fill="rgb(0, 0, 0)" stroke="rgb(204, 204, 204)" stroke-width="1px"></line><line x1="48.875" y1="151.7142857142857" x2="43.875" y2="151.7142857142857" style="visibility: inherit;" fill="rgb(0, 0, 0)" stroke="rgb(204, 204, 204)" stroke-width="1px"></line><line x1="48.875" y1="139.07142857142858" x2="43.875" y2="139.07142857142858" style="visibility: inherit;" fill="rgb(0, 0, 0)" stroke="rgb(204, 204, 204)" stroke-width="1px"></line><line x1="48.875" y1="126.42857142857142" x2="43.875" y2="126.42857142857142" style="visibility: inherit;" fill="rgb(0, 0, 0)" stroke="rgb(204, 204, 204)" stroke-width="1px"></line><line x1="48.875" y1="113.78571428571429" x2="43.875" y2="113.78571428571429" style="visibility: inherit;" fill="rgb(0, 0, 0)" stroke="rgb(204, 204, 204)" stroke-width="1px"></line><line x1="48.875" y1="101.14285714285714" x2="43.875" y2="101.14285714285714" style="visibility: inherit;" fill="rgb(0, 0, 0)" stroke="rgb(204, 204, 204)" stroke-width="1px"></line><line x1="48.875" y1="88.49999999999999" x2="43.875" y2="88.49999999999999" style="visibility: inherit;" fill="rgb(0, 0, 0)" stroke="rgb(204, 204, 204)" stroke-width="1px"></line><line x1="48.875" y1="75.85714285714286" x2="43.875" y2="75.85714285714286" style="visibility: inherit;" fill="rgb(0, 0, 0)" stroke="rgb(204, 204, 204)" stroke-width="1px"></line><line x1="48.875" y1="63.21428571428571" x2="43.875" y2="63.21428571428571" style="visibility: inherit;" fill="rgb(0, 0, 0)" stroke="rgb(204, 204, 204)" stroke-width="1px"></line><line x1="48.875" y1="50.57142857142857" x2="43.875" y2="50.57142857142857" style="visibility: inherit;" fill="rgb(0, 0, 0)" stroke="rgb(204, 204, 204)" stroke-width="1px"></line><line x1="48.875" y1="37.928571428571416" x2="43.875" y2="37.928571428571416" style="visibility: inherit;" fill="rgb(0, 0, 0)" stroke="rgb(204, 204, 204)" stroke-width="1px"></line><line x1="48.875" y1="25.28571428571425" x2="43.875" y2="25.28571428571425" style="visibility: inherit;" fill="rgb(0, 0, 0)" stroke="rgb(204, 204, 204)" stroke-width="1px"></line><line x1="48.875" y1="12.64285714285711" x2="43.875" y2="12.64285714285711" style="visibility: inherit;" fill="rgb(0, 0, 0)" stroke="rgb(204, 204, 204)" stroke-width="1px"></line><line x1="48.875" y1="0" x2="43.875" y2="0" style="visibility: inherit;" fill="rgb(0, 0, 0)" stroke="rgb(204, 204, 204)" stroke-width="1px"></line></g><g transform="translate(38.875, 0)"><text x="0" y="177" dx="0em" dy="0.3em" style="text-anchor: end; visibility: hidden; font-family: &quot;Helvetica Neue&quot;, sans-serif; font-size: 12px; font-weight: 200;" fill="rgb(50, 49, 63)" stroke="none" stroke-width="1px">0.45</text><text x="0" y="164.35714285714286" dx="0em" dy="0.3em" style="text-anchor: end; visibility: inherit; font-family: &quot;Helvetica Neue&quot;, sans-serif; font-size: 12px; font-weight: 200;" fill="rgb(50, 49, 63)" stroke="none" stroke-width="1px">0.5</text><text x="0" y="151.7142857142857" dx="0em" dy="0.3em" style="text-anchor: end; visibility: hidden; font-family: &quot;Helvetica Neue&quot;, sans-serif; font-size: 12px; font-weight: 200;" fill="rgb(50, 49, 63)" stroke="none" stroke-width="1px">0.55</text><text x="0" y="139.07142857142858" dx="0em" dy="0.3em" style="text-anchor: end; visibility: inherit; font-family: &quot;Helvetica Neue&quot;, sans-serif; font-size: 12px; font-weight: 200;" fill="rgb(50, 49, 63)" stroke="none" stroke-width="1px">0.6</text><text x="0" y="126.42857142857142" dx="0em" dy="0.3em" style="text-anchor: end; visibility: hidden; font-family: &quot;Helvetica Neue&quot;, sans-serif; font-size: 12px; font-weight: 200;" fill="rgb(50, 49, 63)" stroke="none" stroke-width="1px">0.65</text><text x="0" y="113.78571428571429" dx="0em" dy="0.3em" style="text-anchor: end; visibility: inherit; font-family: &quot;Helvetica Neue&quot;, sans-serif; font-size: 12px; font-weight: 200;" fill="rgb(50, 49, 63)" stroke="none" stroke-width="1px">0.7</text><text x="0" y="101.14285714285714" dx="0em" dy="0.3em" style="text-anchor: end; visibility: hidden; font-family: &quot;Helvetica Neue&quot;, sans-serif; font-size: 12px; font-weight: 200;" fill="rgb(50, 49, 63)" stroke="none" stroke-width="1px">0.75</text><text x="0" y="88.49999999999999" dx="0em" dy="0.3em" style="text-anchor: end; visibility: inherit; font-family: &quot;Helvetica Neue&quot;, sans-serif; font-size: 12px; font-weight: 200;" fill="rgb(50, 49, 63)" stroke="none" stroke-width="1px">0.8</text><text x="0" y="75.85714285714286" dx="0em" dy="0.3em" style="text-anchor: end; visibility: hidden; font-family: &quot;Helvetica Neue&quot;, sans-serif; font-size: 12px; font-weight: 200;" fill="rgb(50, 49, 63)" stroke="none" stroke-width="1px">0.85</text><text x="0" y="63.21428571428571" dx="0em" dy="0.3em" style="text-anchor: end; visibility: inherit; font-family: &quot;Helvetica Neue&quot;, sans-serif; font-size: 12px; font-weight: 200;" fill="rgb(50, 49, 63)" stroke="none" stroke-width="1px">0.9</text><text x="0" y="50.57142857142857" dx="0em" dy="0.3em" style="text-anchor: end; visibility: hidden; font-family: &quot;Helvetica Neue&quot;, sans-serif; font-size: 12px; font-weight: 200;" fill="rgb(50, 49, 63)" stroke="none" stroke-width="1px">0.95</text><text x="0" y="37.928571428571416" dx="0em" dy="0.3em" style="text-anchor: end; visibility: inherit; font-family: &quot;Helvetica Neue&quot;, sans-serif; font-size: 12px; font-weight: 200;" fill="rgb(50, 49, 63)" stroke="none" stroke-width="1px">1</text><text x="0" y="25.28571428571425" dx="0em" dy="0.3em" style="text-anchor: end; visibility: hidden; font-family: &quot;Helvetica Neue&quot;, sans-serif; font-size: 12px; font-weight: 200;" fill="rgb(50, 49, 63)" stroke="none" stroke-width="1px">1.05</text><text x="0" y="12.64285714285711" dx="0em" dy="0.3em" style="text-anchor: end; visibility: inherit; font-family: &quot;Helvetica Neue&quot;, sans-serif; font-size: 12px; font-weight: 200;" fill="rgb(50, 49, 63)" stroke="none" stroke-width="1px">1.1</text><text x="0" y="0" dx="0em" dy="0.3em" style="text-anchor: end; visibility: hidden; font-family: &quot;Helvetica Neue&quot;, sans-serif; font-size: 12px; font-weight: 200;" fill="rgb(50, 49, 63)" stroke="none" stroke-width="1px">1.15</text></g><line x1="48.875" y1="0" x2="48.875" y2="177" fill="rgb(0, 0, 0)" stroke="rgb(204, 204, 204)" stroke-width="1px"></line></g></g><g transform="translate(48, 0)" clip-path="url(#clip_0)"><clipPath id="clip_0"><rect width="281" height="177"></rect></clipPath><g><g><g><line x1="0" y1="0" x2="0" y2="177" fill="rgb(0, 0, 0)" stroke="rgb(60, 60, 60)" stroke-width="1px" opacity="0.25"></line><line x1="31.23611111111111" y1="0" x2="31.23611111111111" y2="177" fill="rgb(0, 0, 0)" stroke="rgb(60, 60, 60)" stroke-width="1px" opacity="0.25"></line><line x1="62.47222222222222" y1="0" x2="62.47222222222222" y2="177" fill="rgb(0, 0, 0)" stroke="rgb(60, 60, 60)" stroke-width="1px" opacity="0.25"></line><line x1="93.70833333333333" y1="0" x2="93.70833333333333" y2="177" fill="rgb(0, 0, 0)" stroke="rgb(60, 60, 60)" stroke-width="1px" opacity="0.25"></line><line x1="124.94444444444444" y1="0" x2="124.94444444444444" y2="177" fill="rgb(0, 0, 0)" stroke="rgb(60, 60, 60)" stroke-width="1px" opacity="0.25"></line><line x1="156.18055555555557" y1="0" x2="156.18055555555557" y2="177" fill="rgb(0, 0, 0)" stroke="rgb(60, 60, 60)" stroke-width="1px" opacity="0.25"></line><line x1="187.41666666666666" y1="0" x2="187.41666666666666" y2="177" fill="rgb(0, 0, 0)" stroke="rgb(60, 60, 60)" stroke-width="1px" opacity="0.25"></line><line x1="218.65277777777777" y1="0" x2="218.65277777777777" y2="177" fill="rgb(0, 0, 0)" stroke="rgb(60, 60, 60)" stroke-width="1px" opacity="0.25"></line><line x1="249.88888888888889" y1="0" x2="249.88888888888889" y2="177" fill="rgb(0, 0, 0)" stroke="rgb(60, 60, 60)" stroke-width="1px" opacity="0.25"></line><line x1="281.125" y1="0" x2="281.125" y2="177" fill="rgb(0, 0, 0)" stroke="rgb(60, 60, 60)" stroke-width="1px" opacity="0.25"></line></g><g><line x1="0" y1="177" x2="281.125" y2="177" fill="rgb(0, 0, 0)" stroke="rgb(60, 60, 60)" stroke-width="1px" opacity="0.25"></line><line x1="0" y1="164.35714285714286" x2="281.125" y2="164.35714285714286" fill="rgb(0, 0, 0)" stroke="rgb(60, 60, 60)" stroke-width="1px" opacity="0.25"></line><line x1="0" y1="151.7142857142857" x2="281.125" y2="151.7142857142857" fill="rgb(0, 0, 0)" stroke="rgb(60, 60, 60)" stroke-width="1px" opacity="0.25"></line><line x1="0" y1="139.07142857142858" x2="281.125" y2="139.07142857142858" fill="rgb(0, 0, 0)" stroke="rgb(60, 60, 60)" stroke-width="1px" opacity="0.25"></line><line x1="0" y1="126.42857142857142" x2="281.125" y2="126.42857142857142" fill="rgb(0, 0, 0)" stroke="rgb(60, 60, 60)" stroke-width="1px" opacity="0.25"></line><line x1="0" y1="113.78571428571429" x2="281.125" y2="113.78571428571429" fill="rgb(0, 0, 0)" stroke="rgb(60, 60, 60)" stroke-width="1px" opacity="0.25"></line><line x1="0" y1="101.14285714285714" x2="281.125" y2="101.14285714285714" fill="rgb(0, 0, 0)" stroke="rgb(60, 60, 60)" stroke-width="1px" opacity="0.25"></line><line x1="0" y1="88.49999999999999" x2="281.125" y2="88.49999999999999" fill="rgb(0, 0, 0)" stroke="rgb(60, 60, 60)" stroke-width="1px" opacity="0.25"></line><line x1="0" y1="75.85714285714286" x2="281.125" y2="75.85714285714286" fill="rgb(0, 0, 0)" stroke="rgb(60, 60, 60)" stroke-width="1px" opacity="0.25"></line><line x1="0" y1="63.21428571428571" x2="281.125" y2="63.21428571428571" fill="rgb(0, 0, 0)" stroke="rgb(60, 60, 60)" stroke-width="1px" opacity="0.25"></line><line x1="0" y1="50.57142857142857" x2="281.125" y2="50.57142857142857" fill="rgb(0, 0, 0)" stroke="rgb(60, 60, 60)" stroke-width="1px" opacity="0.25"></line><line x1="0" y1="37.928571428571416" x2="281.125" y2="37.928571428571416" fill="rgb(0, 0, 0)" stroke="rgb(60, 60, 60)" stroke-width="1px" opacity="0.25"></line><line x1="0" y1="25.28571428571425" x2="281.125" y2="25.28571428571425" fill="rgb(0, 0, 0)" stroke="rgb(60, 60, 60)" stroke-width="1px" opacity="0.25"></line><line x1="0" y1="12.64285714285711" x2="281.125" y2="12.64285714285711" fill="rgb(0, 0, 0)" stroke="rgb(60, 60, 60)" stroke-width="1px" opacity="0.25"></line><line x1="0" y1="0" x2="281.125" y2="0" fill="rgb(0, 0, 0)" stroke="rgb(60, 60, 60)" stroke-width="1px" opacity="0.25"></line></g></g></g><g><g><line x1="0" y1="290.7857142857143" x2="281.125" y2="290.7857142857143" fill="rgb(0, 0, 0)" stroke="rgb(153, 153, 153)" stroke-width="1.5px"></line></g></g><g><g><line x1="31.23611111111111" y1="0" x2="31.23611111111111" y2="177" fill="rgb(0, 0, 0)" stroke="rgb(153, 153, 153)" stroke-width="1.5px"></line></g></g><g><g><g><g><g><path stroke="rgb(204, 51, 17)" stroke-width="2px" d="M36.624340277777776,-6.19096091303237L36.85861111111112,8.451537642646826L36.93670138888889,8.390697156594825L37.01479166666666,18.25298743718517L37.09288194444444,21.141806943201203L37.483333333333334,18.04430173202138L38.10805555555556,0.8695705364511355L38.186145833333335,-3.539713980340764L38.6546875,-4.789991673161921L39.27940972222222,5.091408051657197L39.51368055555555,36.05448696983626L39.591770833333335,23.748148270733026L40.13840277777778,23.29030855076263L40.37267361111111,32.084898245836996L40.52885416666667,32.5187697597994L41.153576388888894,34.07002955205127L41.38784722222222,30.114196012222408L41.465937499999995,22.028154304798676L42.168749999999996,23.534322290921097L42.324930555555554,28.301875244722538L42.403020833333336,34.09046618518957L42.48111111111111,28.625195885377963L43.027743055555554,32.38839653393214L43.418194444444445,29.215539304219618L43.574374999999996,29.082854166586372L43.65246527777777,35.81807509044867L43.96482638888889,8.337345137030553L44.35527777777777,30.68419572458518L44.433368055555555,31.0961196501126L44.66763888888889,31.075231100435587L45.136180555555555,44.08554882472359L45.21427083333333,51.04642948650759L45.37045138888889,39.67933297156446L45.60472222222222,22.438233436841074L45.76090277777777,32.29439436639478L45.838993055555555,30.786578388482752L45.99517361111111,23.6682151420016L46.151354166666664,39.451071107743815L46.22944444444445,43.99669147478792L46.77607638888889,49.43355052013989L47.40079861111111,32.1049526507328L47.47888888888889,32.988480443807134L47.556979166666665,28.83914987745976L47.86934027777778,43.97504547282776L48.650243055555556,55.10387189500078L48.72833333333333,40.050985747735666L48.88451388888889,40.02063542256414L49.196875,58.74227278534654L49.43114583333334,56.86629808266554L49.50923611111111,62.58675524697742L49.58732638888889,63.90024750210752L49.82159722222222,56.549163557329635L50.75868055555556,44.26058861193249L51.227222222222224,29.433328526394973L51.46149305555556,49.27936835291064L51.617673611111115,45.68058178630429L51.695763888888884,69.28730936786847L51.85194444444444,51.31613526649919L52.16430555555556,31.29409520060122L52.47666666666667,27.82567770958977L52.632847222222225,41.85298576846057L53.023298611111116,40.83038638000858L54.1165625,57.80102488122347L54.50701388888889,80.80970288093921L54.58510416666666,81.75822468947706L54.897465277777776,59.63574130063343L54.97555555555556,55.247154357667995L55.28791666666666,56.351272172455595L55.36600694444444,48.39277721022472L55.5221875,46.27284348694283L55.756458333333335,44.07161318984592L56.14690972222222,51.06551022026264L56.225,66.69633619006467L56.30309027777778,65.2357752119745L56.69354166666667,69.3813757570021L56.771631944444444,56.945169129542165L56.84972222222222,32.89715854014682L57.08399305555555,-41.67092159322323L57.78680555555555,-17.296440612009576L57.94298611111111,14.007344641419792L58.41152777777778,1.8513262533228385L58.880069444444445,14.427180775928178L58.95815972222222,18.99635741902196L59.42670138888889,16.533700262265228L59.66097222222223,31.721101774768925L59.973333333333336,25.461967531100214L60.285694444444445,21.985960085288696L60.441874999999996,40.07210643578193L60.75423611111111,49.41576805491131L60.83232638888889,24.13404430615236L60.91041666666667,31.469865110662425L61.06659722222223,25.973923665287458L61.45704861111111,27.082120380573343L61.847500000000004,21.867251850231213L61.92559027777777,34.301590742336515L62.003680555555555,46.68714334893804L63.17503472222222,67.62261777630879L63.721666666666664,69.17940344008379L64.19020833333333,58.51468405651025L64.2682986111111,53.9622389271334L64.42447916666666,70.38034609523268L64.58065972222222,69.12374921608647L64.89302083333334,55.81493921601836L65.59583333333333,64.12355350142585L65.7520138888889,70.66266196012589L65.83010416666667,75.72853768832398L66.064375,71.7531484423096L66.53291666666667,87.90875286379972L67.1576388888889,96.82023830553177L67.23572916666667,88.35727720889193L67.47,96.76758326635121L67.54809027777777,91.83789506539064L68.25090277777778,101.43727913659855L68.32899305555556,90.20487514405106L69.18798611111112,75.92135909870741L69.42225694444444,68.36165824764824L69.50034722222223,77.10935853773951L69.65652777777778,77.3796704428385L69.81270833333333,86.80439721106573L70.90597222222223,81.08050389452798L71.29642361111111,81.71312909087808L71.45260416666666,72.1893682968011L71.686875,70.1911250134854L71.84305555555555,71.81352624606951L72.23350694444444,69.2503282829549L72.31159722222223,90.90181028017811L72.78013888888889,100.93167601158439L72.93631944444444,113.93327603928662L73.01440972222223,106.71473624310062L73.17059027777778,115.97743644544751L73.24868055555555,86.97041093588291L73.48295138888889,91.20237994786923L73.63913194444444,80.83843215208206L74.02958333333332,67.09411174851373L74.10767361111111,85.26938677479879L74.81048611111112,83.54962365674156L74.96666666666667,92.11731531784383L75.27902777777778,89.73756105725944L75.35711805555556,82.06912927046405L75.43520833333332,86.12327820701675L75.74756944444444,80.4886298507477L76.05993055555555,70.87328416202901L76.13802083333333,80.72173267318611L76.37229166666667,70.24605676105759L76.52847222222222,85.59099383354015L76.60656250000001,90.05130820819208L76.68465277777779,81.35908839143964L76.76274305555556,87.2523510551994L76.84083333333332,102.62020669558913L76.91892361111113,98.0777289588578L77.07510416666666,104.79960024386894L77.15319444444444,107.87607112289476L77.54364583333333,103.43594903888619L77.6217361111111,98.19082794700026L77.93409722222222,107.36504173176435L78.16836805555556,95.74198285450137L78.3245486111111,91.64603079214025L78.79309027777778,97.85277675388566L78.94927083333333,85.40987999744772L79.33972222222222,84.1502316445563L79.65208333333334,91.75623342610406L79.73017361111111,93.33024156818989L79.88635416666666,109.18121280083608L80.8234375,96.04839759610965L81.37006944444444,100.03523470231475L81.44815972222221,108.06444890233453L81.60434027777778,112.25426919164661L81.68243055555556,112.11958132498337L81.76052083333333,124.17345831069784L81.8386111111111,110.09225000391181L81.99479166666667,92.14441169853588L82.2290625,91.63022773511841L82.54142361111111,66.34792803980064L82.61951388888889,88.37360977002561L82.93187499999999,102.73766301706864L83.16614583333333,111.17251252314706L83.47850694444445,91.67988550515587L83.71277777777777,104.51675802891707L83.79086805555556,111.45513228431497L83.86895833333334,117.77798750995404L83.94704861111111,108.97224930779564L84.02513888888889,102.40762375677907L84.18131944444445,98.47802393112606L84.25940972222222,107.08440165802257L84.33749999999999,103.72702365227333L84.57177083333333,97.79197351230427L84.64986111111111,99.28206493569502L84.72795138888888,89.33583942719156L84.88413194444445,76.67513994291423L85.0403125,92.34779479452966L85.11840277777777,92.16939341037867L85.66503472222223,95.62152612981266L85.89930555555556,95.21602228151L86.21166666666666,90.93330338687868L86.4459375,100.07930281982948L86.60211805555556,108.94709339702378L86.75829861111112,114.2711738933408L87.07065972222223,115.96127343624818L87.38302083333333,92.35822502131964L87.61729166666666,101.95401491053612L87.69538194444445,105.53055812741519L87.77347222222222,99.80101311272927L87.8515625,102.02537446402299L88.32010416666667,87.6666283916401L88.78864583333333,91.70933346558272L88.94482638888888,98.39403058482972L89.02291666666666,108.31457939297503L89.33527777777778,114.62270968118209L89.56954861111112,94.90665999711605L89.64763888888889,104.30550739222542L89.88190972222223,99.34370145404037L89.96000000000001,95.67152817626157L90.03809027777777,87.75092607656165L90.19427083333333,77.65690775720844L90.35045138888889,95.62418726176875L90.81899305555555,99.25438296934198L91.05326388888889,100.80599185141634L91.13135416666667,92.97201085617627L91.36562500000001,95.01868092308163L91.44371527777778,96.15767694799221L91.52180555555555,97.68425644552437L91.67798611111111,90.04047684993922L91.75607638888889,112.63121680181884L92.22461805555555,99.98665217189418L92.53697916666667,71.85764579892073L92.61506944444444,87.36442109043203L92.77125000000001,94.7276499379223L92.92743055555556,109.52824984924976L93.08361111111111,113.23786309494197L93.16170138888889,116.22080914457808L93.23979166666666,114.29208583317586L93.31788194444444,120.73485267058163L93.39597222222221,123.76091789796186L93.63024305555555,120.03781953297309L93.78642361111112,115.76349580619654L93.94260416666667,105.3565456376224L94.17687500000001,92.6247931594529L94.33305555555556,99.7179251970917L94.41114583333332,114.27906603161344L94.48923611111113,112.45506384185971L94.95777777777778,113.46792997588786L95.03586805555555,112.4125682828175L95.1920486111111,109.4707049967683L95.42631944444445,113.71931063697045L95.73868055555556,121.67553518921744L95.97295138888889,104.612134809983L96.20722222222221,118.60301616616294L96.2853125,105.63097702757864L96.44149305555555,89.95847714209083L96.5976736111111,102.70738918257157L96.75385416666667,90.37979325456855L97.14430555555556,90.5092235953672L97.3785763888889,88.96701934556829L97.53475694444444,96.62061307289316L98.70611111111111,108.29496901904413L99.01847222222221,109.35761118252285L99.17465277777778,113.0381544336544L99.25274305555556,125.61038203353598L99.56510416666667,112.15603367192779L99.72128472222222,107.76327237224804L99.799375,99.01507745909144L100.03364583333334,70.92152240199033L100.18982638888889,75.70082011244577L100.34600694444444,79.34446439483605L100.58027777777777,87.98264660952081L100.73645833333333,105.01494290285717L100.8145486111111,110.40273006045298L100.97072916666667,123.37626792616874L101.28309027777777,115.32342086127025L101.59545138888889,115.49074113474094L102.14208333333333,117.61202319412622L102.22017361111111,99.24552835706673L102.29826388888888,92.51137598564509L102.37635416666667,100.306996585192L102.53253472222222,89.61085258967809L102.76680555555556,96.74682181675941L102.84489583333334,82.77417029925583L102.92298611111111,96.91531671278715L103.15725694444446,110.62914412732744L103.23534722222223,99.45401471224065L103.31343749999999,70.42611510546416L103.39152777777777,87.25709830772865L104.01625,111.1339930103199L104.09434027777777,98.64522299631861L104.32861111111112,80.96122438758697L104.87524305555554,86.35096466315694L105.10951388888888,88.06464106901231L105.73423611111112,89.88668483448556L105.81232638888889,103.875251366128L105.96850694444446,101.56388066445132L106.04659722222223,98.53463079898728L106.12468750000001,90.07572740877033L106.35895833333333,102.09869168992599L106.43704861111111,112.83388075791967L106.59322916666666,91.72879600094231L106.74940972222223,95.1840086638632L107.13986111111112,95.32964119074956L107.21795138888889,105.12858133086775L107.53031250000001,109.4471871988982L107.60840277777777,116.47819188798385L107.68649305555554,124.00038040106163L107.76458333333333,113.6763594209915L107.99885416666666,105.08152742742097L108.07694444444444,125.92949231089025L108.15503472222223,125.86343461219421L108.38930555555555,115.80209886142836L108.46739583333333,86.34831155859113L109.09211805555555,82.57920799141164L109.40447916666666,93.708689991402L109.56065972222223,83.08492165006669L109.71684027777778,94.92588273149074L109.79493055555555,104.09376036459157L110.0292013888889,112.86336608557839L110.26347222222223,116.95527072191456L110.34156250000001,113.67860456882336L110.41965277777778,111.56307187765746L110.49774305555556,126.6459971850509L110.73201388888889,128.4601071093573L111.35673611111112,115.8522329117456L111.51291666666667,112.20704658456525L111.66909722222222,119.93247031943727L111.82527777777779,129.71071566039927L111.90336805555556,123.70316684779291L112.13763888888889,133.79005235923813L112.29381944444444,116.10940249430655L112.45,102.61713689878381L112.8404513888889,101.01607576115094L113.38708333333334,113.02432807660287L113.4651736111111,114.89658088227108L113.69944444444444,111.3500406292336L113.855625,113.34121888731886L114.32416666666667,118.97494109441962L114.40225694444445,115.3760514393797L114.5584375,122.03405236642234L114.71461805555556,133.73596360009458L115.02697916666666,128.48484231748824L115.33934027777778,127.76468364513815L115.49552083333333,119.1599203593546L115.88597222222222,129.91067356151427L115.9640625,126.27286878311172L116.04215277777779,106.87356863837987L116.58878472222221,118.46083286230125L116.66687499999999,131.94286534766684L117.13541666666667,110.87308968736639L117.44777777777779,119.20917765705704L117.52586805555556,121.43789879497669L117.60395833333334,109.74597472473337L118.30677083333333,106.71760732929236L118.46295138888888,110.9357963774905L118.69722222222222,113.22814064894519L119.16576388888889,120.40719275450776L119.24385416666668,122.21167648301167L119.55621527777777,112.16184471612274L119.79048611111111,111.39974653206188L119.86857638888888,124.93501210925703L119.94666666666667,136.48123915282665L120.1809375,140.00549001269206L121.03993055555556,106.79957925541798L121.27420138888888,114.45222320458309L121.50847222222222,122.0409924882711L121.5865625,110.01095159467992L121.66465277777777,90.71923456644889L121.89892361111112,102.78895010811185L121.97701388888889,114.10126734106426L122.05510416666667,119.25791966089247L123.22645833333334,133.25628732117627L123.46072916666667,124.15745719271753L123.61690972222223,125.45413405553354L123.69500000000001,115.35816002572518L123.85118055555554,115.54855793952483L123.92927083333333,118.5167766159575L124.16354166666666,107.04679563233344L124.3978125,115.77202145893543L124.47590277777778,112.30787999670352L124.63208333333334,126.56825658481846L124.78826388888889,123.74936428207218L124.94444444444444,116.13004983984268L125.10062500000001,126.51968869367656L125.33489583333333,111.7177165760278L125.49107638888889,108.07932761478214L125.64725694444444,119.61985947589748L125.8034375,121.6895105543347L125.95961805555555,117.46100018636056L126.11579861111112,118.47328312355256L126.89670138888889,130.30957194916334L127.2090625,123.8783375205853L127.52142361111112,123.77526005400767L127.5995138888889,104.24543966059588L127.67760416666667,114.9803335976881L127.83378472222223,117.91974173091117L128.06805555555556,92.51102091134942L128.3023263888889,108.97249937128127L128.45850694444445,121.19776108647902L128.6927777777778,98.2555543043772L129.16131944444444,108.25606010479517L129.3175,103.9891785101035L129.47368055555555,111.91164799427622L129.55177083333334,116.03270710133606L129.78604166666668,107.5042858944294L129.86413194444444,100.11697692344616L129.94222222222223,102.11259945008602L130.17649305555557,120.03523652759118L130.80121527777777,118.28565598134352L131.19166666666666,125.42705937473184L131.3478472222222,122.28789906990308L131.8163888888889,114.62754837193016L132.12875,116.20836385030873L132.2068402777778,123.86291742969861L132.28493055555555,119.68362569514781L132.36302083333334,134.88408796270159L132.8315625,138.5676013213875L133.06583333333333,130.18469134975652L133.61246527777777,122.25953700888519L133.76864583333332,117.96033196043845L134.00291666666666,117.28560035462306L134.08100694444445,110.77499335769744L134.3152777777778,112.56900505708586L134.39336805555556,111.62760881646064L134.78381944444445,100.8732221028167L134.8619097222222,87.90147217432691L134.94,94.50785662296862L135.17427083333334,95.38965808574147L135.40854166666668,101.16322730487288L135.48663194444444,98.59897165088985L135.56472222222223,113.72679461081023L135.6428125,115.87414945472509L135.72090277777778,105.18826313458563L136.18944444444446,103.36311533238103L136.65798611111111,118.33509543222976L137.12652777777777,127.72767860785514L137.4388888888889,131.41793103360087L137.59506944444445,119.57084420016889L137.98552083333334,119.58161440137488L138.29788194444444,122.96241368438878L138.84451388888888,115.82507623187351L139.00069444444446,114.98166748682219L139.23496527777777,109.81657572609774L139.39114583333333,102.4551971879671L139.46923611111112,107.49029163028078L139.70350694444446,97.43774279231421L139.78159722222222,124.52460180173786L139.93777777777777,112.7443016470784L140.01586805555556,110.05018484174524L140.2501388888889,122.83630353472503L141.57767361111112,118.70246984944437L141.6557638888889,107.87182712614525L141.73385416666667,125.07091324705728L141.81194444444446,124.49214986413884L142.12430555555554,138.6376139710215L142.35857638888888,135.53243166658768L142.67093749999998,142.37307848008567L142.74902777777777,132.31241606159267L142.82711805555556,153.85295354415928L143.13947916666666,130.29894380367628L143.21756944444445,128.24511963314484L143.2956597222222,116.71236227180847L143.4518402777778,117.25246572799685L143.60802083333334,122.13595799220494L143.7642013888889,102.3825713509238L143.92038194444444,101.02593649112679L144.54510416666668,97.34338647364248L144.93555555555554,116.90556937938987L145.01364583333336,128.37987008554802L145.71645833333332,122.07991905897126L145.7945486111111,110.85725146295756L146.65354166666665,108.96507414437609L147.04399305555557,106.01528451936666L147.2782638888889,109.11474029905504L147.35635416666668,100.89222182274577L147.59062500000002,103.32282512365497L147.74680555555557,108.91770609349096L147.82489583333336,128.087640838036L148.44961805555553,130.43803020660056L148.52770833333332,120.92166619846464L148.6057986111111,131.24465010289182L148.68388888888887,123.29336866656949L148.9181597222222,117.47011151180953L149.07434027777776,116.27302363588473L149.15243055555555,115.06508711194857L149.23052083333334,115.06652240626391L149.85524305555555,119.39588283190272L150.24569444444447,103.69079018901415L150.32378472222223,117.7181308685834L150.55805555555557,132.82746931257984L151.10468749999998,120.89632188797168L151.26086805555553,119.9249501233792L152.04177083333335,124.42810584509775L152.43222222222224,131.69322747658904L152.5103125,126.07876168208338L152.66649305555555,115.26971225876392L152.74458333333334,118.49126753344831L153.21312500000002,120.5647450787194L153.29121527777778,116.09117778638918L153.75975694444446,100.12481275583968L153.83784722222225,109.39040783107251L154.54065972222222,136.69040647014532L154.85302083333332,127.20046128549907L155.0092013888889,137.0113130910321L155.3215625,132.91023880006472L156.02437500000002,111.30622339276862L156.18055555555557,117.10219960229628L156.4148263888889,121.08352778444905L156.57100694444446,114.34258271850138L156.6490972222222,104.28553395541987L157.0395486111111,103.27841435458606L157.27381944444443,114.53922799153364L157.66427083333332,127.48166437529039L157.8204513888889,124.94203942254404L158.1328125,126.09644483893813L158.28899305555555,133.6815863435506L158.36708333333334,130.25438882874823L158.4451736111111,118.47548944419759L158.60135416666668,113.60499599206702L158.75753472222223,119.43503444739562L159.14798611111112,111.28652638149148L159.38225694444446,109.31374908657007L159.53843750000001,118.52944449032881L159.77270833333333,118.13346290598491L160.00697916666667,134.19178778790683L160.31934027777777,144.62043375291375L160.5536111111111,135.88098793849406L160.8659722222222,119.954705646528L160.9440625,146.54812589681595L161.0221527777778,163.97494457430085L161.56878472222223,143.85611311696692L161.72496527777778,152.95649012899318L161.88114583333333,138.5051712639259L162.11541666666668,114.11004822535075L162.19350694444447,128.71174580674452L162.6620486111111,124.16789633865662L162.74013888888888,125.90580742005665L163.05249999999998,123.76786708415332L163.3648611111111,119.01729855287542L163.59913194444445,122.71311353397307L163.6772222222222,126.6670276499336L163.7553125,131.33717696697212L163.83340277777776,124.76786276086304L163.98958333333334,134.5437988338206L164.22385416666665,120.88251744067105L164.77048611111113,118.93027655779298L164.8485763888889,113.08656837215834L165.23902777777778,118.70924746283097L165.39520833333336,124.82036260112474L165.4732986111111,119.43985719630587L165.55138888888888,132.7046627709238L166.25420138888887,141.68305202520557L166.5665625,135.8986731779377L166.64465277777776,147.97402192935434L166.72274305555555,140.53752499009508L166.80083333333334,130.7405831237328L166.9570138888889,118.49903651593279L167.3474652777778,111.5041100566958L167.42555555555555,105.52382064119082L167.58173611111113,109.5762021011844L167.6598263888889,109.62913150333627L167.73791666666668,120.26181663377186L167.97218750000002,123.62811230686877L168.12836805555557,128.68969017562952L168.20645833333336,115.9431165389366L168.28454861111112,110.85557229795653L168.9873611111111,115.44477040797489L169.22163194444443,136.00957814166384L169.92444444444445,121.42768195285633L170.39298611111113,136.49691321943456L170.4710763888889,124.18278973567467L170.93961805555557,124.1611187806094L171.01770833333333,131.45253555478837L171.09579861111112,142.11235934284355L171.25197916666664,129.9803409308273L171.72052083333332,122.01906793892853L172.1890625,129.99380842878418L172.26715277777777,139.1035890785609L172.891875,131.8682617175092L172.9699652777778,134.06986950799882L173.20423611111113,142.17477572369185L173.43850694444444,132.8633547841253L173.75086805555557,120.97416617471146L173.90704861111112,131.63990882293427L174.2194097222222,129.52881433520344L174.68795138888888,118.8687434857874L175.0003125,105.49195630772219L175.07840277777777,100.67676816324095L175.3126736111111,121.63435860155131L175.46885416666666,133.58831836304216L175.703125,138.91452474819596L176.0154861111111,137.92067202158384L176.17166666666668,135.09415202276475L176.32784722222223,119.30723258644848L176.4059375,105.59821615349698L176.48402777777778,127.4249120611124L177.03065972222223,122.15442020218039L177.1868402777778,127.84526356768883L177.26493055555554,125.19547218338585L177.73347222222222,141.10612476876088L177.81156249999998,146.29779875880902L177.88965277777777,127.36241290930764L178.04583333333332,116.29529190212229L178.20201388888887,111.05937795728289L179.13909722222223,123.60628520610408L179.84190972222223,125.36205427828631L180.15427083333336,137.37151475538732L180.54472222222222,139.00774393297047L180.62281249999998,125.45449289996085L181.01326388888887,122.41747953655944L181.09135416666666,99.30046783101422L181.16944444444445,99.40655031841399L181.48180555555555,42.5977132535746L181.55989583333334,15.628985710802993L182.0284375,33.71582465129603L182.34079861111113,62.537443100812254L182.4188888888889,56.17844616820264L182.49697916666668,85.35787446170957L182.65315972222223,95.5652054991802L182.73125000000002,86.11417240011147L183.12170138888888,87.95645238225131L183.35597222222222,86.96402382923135L183.51215277777777,99.48622909316916L183.7464236111111,97.15355420274948L183.98069444444445,98.2569329748357L184.21496527777776,107.44136456820482L184.37114583333334,104.50064797164013L184.8396875,107.39460138314713L184.9177777777778,103.72572083714711L185.07395833333334,122.73316830235015L185.2301388888889,134.37345087601545L185.9329513888889,117.74807556400694L186.01104166666664,119.83008483436276L186.08913194444443,122.32608598275354L186.16722222222222,118.4935381792474L187.2604861111111,125.31535968335544L187.57284722222224,134.5938608033866L187.88520833333334,138.9517179394098L187.96329861111113,136.16438080626148L188.19756944444444,119.01769438837418L188.27565972222223,129.79993955423248L188.50993055555557,109.63136698936452L188.66611111111112,107.4782974847259L188.82229166666664,112.75390484074791L189.21274305555553,109.636628592849L189.44701388888888,119.2493711261989L189.60319444444443,107.41170641050411L189.68128472222222,111.25840885797544L189.83746527777777,117.45978637722206L190.0717361111111,130.7830380553088L190.30600694444445,142.52745561326037L190.4621875,143.6133557044365L190.69645833333334,142.83452978798564L190.93072916666668,125.64104830323092L191.00881944444444,128.21040677827514L191.24309027777778,117.53641650218063L191.47736111111112,121.72207426000327L192.10208333333333,136.15720640657696L192.1801736111111,136.2709772836042L192.33635416666667,136.27755533760026L192.72680555555556,121.24914941594996L193.11725694444445,110.68108381019489L193.1953472222222,89.00133216407062L193.2734375,90.7561874220909L193.42961805555555,111.82478341043837L193.50770833333334,102.68334046437565L193.6638888888889,116.57953451364344L193.82006944444444,115.52905151164852L194.05434027777778,115.4575933681337L194.13243055555557,122.14638617093951L194.44479166666667,114.48721383059802L194.83524305555554,115.68979761456889L194.9914236111111,117.79333446893361L195.45996527777777,116.30959328013901L195.53805555555556,130.24809192247707L195.61614583333332,130.93894976070322L195.6942361111111,123.38958433341604L195.77232638888887,114.92173224645117L196.0065972222222,132.45253375743184L196.1627777777778,136.01338961551912L196.3970486111111,148.70321384822665L196.4751388888889,130.34801491182822L196.70940972222223,122.33645521621399L196.86559027777778,123.85358849009741L197.02177083333333,124.23463714453669L197.09986111111112,126.98361236566444L197.17795138888889,130.57598000168713L197.49031250000002,129.81699012841443L197.8026736111111,130.05905515285866L197.88076388888888,128.83467220947384L197.95885416666667,128.53085108978124L198.27121527777777,132.9804763033373L198.34930555555556,138.44602538041286L198.5054861111111,147.1471739685911L198.58357638888887,158.6001952489329L198.73975694444445,138.70558908326956L198.8178472222222,144.77105156626422L198.8959375,139.5119098802318L199.05211805555555,128.6921955096668L199.13020833333334,145.4061955540148L199.2863888888889,138.40407466463847L199.52065972222223,110.23663638405138L199.67684027777779,126.69519266111931L199.75493055555557,131.37847365342122L200.22347222222223,129.93965293834702L200.30156250000002,139.25771663281805L200.37965277777778,136.91901956273352L200.69201388888888,137.90719593585615L200.84819444444443,133.24253741941078L201.00437499999998,138.39331058118051L201.3167361111111,132.22735386590713L201.86336805555555,130.59592780258305L202.0976388888889,127.08600128506109L202.25381944444445,136.46710840778812L202.41,137.6161187439483L202.4880902777778,126.25438538657983L202.8004513888889,138.3023463353698L202.95663194444447,130.19981869507086L203.03472222222223,138.93059493059582L203.11281250000002,129.46544057870142L203.34708333333336,141.3384619774219L203.42517361111112,131.10065200629046L203.65944444444443,128.6007500060247L203.73753472222222,148.4455834267389L203.97180555555553,149.51142542928423L204.20607638888887,128.33517890793064L204.5184375,137.37973038073426L204.98697916666666,124.83999061415221L205.06506944444445,121.42958229508348L205.2993402777778,125.99528334147968L205.37743055555555,132.27574956693874L205.53361111111113,143.34739364721977L205.68979166666668,157.31395526849394L205.76788194444444,130.22635461676302L205.92406250000002,142.41562298750645L206.00215277777778,139.88454842117034L206.15833333333333,143.31256188394872L206.23642361111112,142.22085150147825L206.3145138888889,142.33073804758055L206.39260416666664,120.91118820213796L206.54878472222225,121.83751590415805L206.70496527777777,109.10382342641249L206.78305555555553,110.55472477685795L207.09541666666667,120.62014641325791L207.17350694444443,116.62822132938915L207.3296875,125.24909192446017L207.56395833333332,135.01314065359492L207.7201388888889,125.50312960362196L207.9544097222222,130.51064632748734L208.89149305555557,130.1176392937611L209.20385416666667,128.25541351977733L209.43812499999999,142.6661130489675L209.82857638888888,148.24879428414255L209.98475694444443,142.6294795587014L210.21902777777777,138.57917464290733L210.68756944444445,144.52951329742393L210.7656597222222,140.18081562566897L210.9218402777778,130.65635292013798L211.1561111111111,127.61214512583376L211.39038194444444,138.29381710970173L211.46847222222223,123.98248038869787L211.5465625,126.81339458676051L212.24937500000001,139.9214363475894L212.3274652777778,143.07980610525425L212.40555555555554,138.57251990452042L212.48364583333333,141.43380934196065L212.63982638888888,131.92255617157176L212.79600694444443,119.97495978119449L213.03027777777777,129.8188672536589L213.42072916666666,138.44064274615766L213.5769097222222,147.45752118852056L213.655,140.89708674957433L213.7330902777778,141.98181070180496L213.81118055555555,145.8578712370075L214.43590277777778,144.20173629337157L215.13871527777775,138.46134717251167L215.52916666666667,143.31284326902215L216.15388888888887,132.7731077757378L216.23197916666666,126.38525497409528L216.46625,117.20933085888605L216.7786111111111,130.16578459353946L217.01288194444444,148.63242377322223L217.32524305555557,146.70218631060564L217.5595138888889,149.13666999597334L217.79378472222223,137.56474907552592L217.87187500000002,144.47794735388052L217.94996527777778,144.7902399911988L218.10614583333336,142.168964569071L218.73086805555553,138.49885491729577L218.8870486111111,131.0439933959123L219.04322916666666,139.24145411222605L219.1994097222222,139.38986765264275L219.5898611111111,133.00676054650683L219.9803125,87.58680403254624L220.60503472222223,100.48132366125532L220.68312500000002,99.2506914609613L220.76121527777778,117.20800634893004L221.0735763888889,130.2465566300542L221.30784722222222,126.0587156953329L221.54211805555553,134.20736312179395L222.16684027777777,130.02798767358948L222.32302083333335,124.53637606101054L222.63538194444445,120.54273237107289L222.71347222222224,125.16304635765437L222.7915625,129.27305592667713L222.8696527777778,132.78267588530403L223.02583333333334,133.23399941938345L223.1820138888889,125.93526720806578L223.41628472222223,124.56503284882848L223.65055555555557,137.93909846235974L223.72864583333333,126.53008358940707L223.8848263888889,143.50426141948068L224.04100694444446,146.69894440149744L224.58763888888888,134.5056240850077L224.9,126.0840076621405L225.05618055555556,127.90998983478737L225.2123611111111,124.59914235444862L225.36854166666666,130.5019102685826L225.44663194444445,138.50606157568728L225.6028125,140.62675482146523L225.83708333333334,139.9632175946134L225.9932638888889,140.9002337156644L226.22753472222223,149.65351070925487L226.38371527777778,137.79112852790888L226.61798611111112,134.4413110633003L226.6960763888889,130.43030444498703L226.77416666666667,133.07775790181407L227.55506944444443,121.23591315304088L227.63315972222222,110.86188496256209L227.78934027777777,113.27414418946877L227.86743055555556,121.49655513409056L227.94552083333332,114.55355242244087L228.0236111111111,127.7721676821894L228.25788194444445,125.8785172050996L228.3359722222222,136.75000641533836L228.4921527777778,140.07096219788596L228.7264236111111,127.78350800540974L228.88260416666668,126.69846284718898L229.03878472222223,140.53738474021733L229.19496527777778,151.77502758689664L229.8977777777778,135.91295201754195L229.97586805555554,152.96837897490548L230.21013888888888,139.69039841357096L230.36631944444443,138.87334801388008L230.52249999999998,128.6567087475109L230.67868055555556,119.3223277817925L230.8348611111111,125.00691921230147L230.91295138888887,142.74380231500686L231.1472222222222,132.78293865425857L231.6157638888889,123.82430900379958L231.69385416666668,133.26880757869532L232.00621527777778,148.52564563583368L232.24048611111112,149.4036600279955L232.47475694444447,153.9649357814196L232.63093750000002,143.9850361358287L232.70902777777775,154.9579419040521L233.02138888888888,138.2102240205397L233.33374999999998,143.3702760999895L233.56802083333332,145.7208005842011L233.6461111111111,157.20615430384947L233.72420138888887,123.44301000490404L233.80229166666666,146.8807468914835L234.0365625,155.18647103588017L234.3489236111111,155.62081435370584L234.50510416666665,153.4216435001041L234.81746527777779,135.0325247042538L234.89555555555557,151.570255176954L235.05173611111113,131.7982314856672L235.1298263888889,130.8213017584832L235.52027777777778,138.6018359543056L235.7545486111111,155.24267123740228L235.83263888888888,152.67959703565424L235.98881944444443,128.9028363899891L236.14499999999998,138.9980591496019L236.30118055555553,145.23230657680816L236.37927083333332,145.15676131582933L236.61354166666666,145.95312095297808L236.69163194444445,141.02225990661043L236.8478125,145.38330642919576L237.08208333333334,146.05857352851615L237.1601736111111,142.45159654538247L237.31635416666666,133.46204038436318L237.78489583333334,152.02202340860515L238.01916666666668,149.22842112464178L238.25343750000002,131.7752201241913L238.33152777777778,127.61105526667524L238.6438888888889,114.21399766740785L239.11243055555553,134.54621644851403L240.12760416666666,145.09427332559468L240.4399652777778,142.92027793420613L240.59614583333334,151.29394651025774L240.98659722222223,160.21986836705184L241.22086805555557,120.23317769050175L241.37704861111112,113.0533771141572L241.68940972222225,141.00120072849668L242.07986111111111,128.86606559499376L242.39222222222222,149.57924215232467L242.70458333333332,145.46699521341148L242.93885416666666,146.94061082924057L243.64166666666668,143.08410062813124L244.11020833333333,167.09543864468466L244.8911111111111,163.80945344974154L244.96920138888888,153.02954637448008L245.04729166666667,154.52630214697984L245.2815625,138.22664397243778L245.35965277777777,133.55056997110916L245.75010416666666,133.11701665928817L245.9062847222222,134.53235478594985L246.21864583333334,134.42074001837256L246.2967361111111,132.0398559051406L246.3748263888889,116.26905264465776L246.45291666666668,121.37167803394912L246.53100694444444,121.28305886101454L246.60909722222223,126.40243660499547L246.6871875,134.24063559057822L247.31190972222223,129.2109967996202L247.54618055555554,125.48087603114887L248.01472222222222,132.4876915010724L248.32708333333332,126.49670360216408L249.1079861111111,141.49422193944656L249.1860763888889,143.6421454035056L249.26416666666668,139.33156265343672L249.81079861111112,137.0312271175028L250.20125000000002,134.4950568573874L250.43552083333336,145.0153006696736L250.59170138888888,132.48101403277468L250.66979166666667,136.30635181642384L250.74788194444443,146.71022914906712L250.82597222222222,138.10361040781447L251.13833333333332,141.80452735428605L251.76305555555555,153.91571120741722L251.84114583333334,127.79394058351798L252.07541666666665,123.4568890399214L252.23159722222223,120.8025289472966L252.3096875,137.31510729005677L252.46586805555557,141.8438129296262L252.85631944444447,124.27023904572648L253.40295138888888,142.62492933558997L253.55913194444443,138.3068643151122L253.79340277777777,130.92216759212343L253.94958333333332,133.6715378735855L254.3400347222222,148.21499316880332L254.57430555555555,146.74777965454084L254.8085763888889,153.57568956865137L255.5113888888889,148.46665501098366L255.58947916666668,139.40190692331427L255.82375000000002,125.31771282562377L256.05802083333333,135.38946629716784L256.2142013888889,142.54485242713932L256.29229166666664,143.0171494348101L256.7608333333333,130.85163416047408L256.9951041666667,137.4547161230501L257.0731944444444,134.78034818328615L257.229375,149.74098633110555L257.4636458333334,138.26303455204643L257.6198263888889,142.13678567988205L257.7760069444444,121.6870110526065L258.0102777777778,129.37857788171647L258.0883680555555,135.45477441512173L258.1664583333333,143.6234857635314L258.7130902777778,138.66634989786408L259.1035416666667,144.2547195358428L259.25972222222225,148.86584049994156L259.3378125,158.17371368215834L259.4159027777778,149.07680374438806L259.7282638888889,143.4141923243546L259.80635416666667,139.31054564870428L260.19680555555556,135.68292985635077L260.27489583333335,137.77370567316626L260.58725694444445,133.31835450305576L260.82152777777776,126.18783179608266L260.89961805555555,120.14259443777883L261.05579861111113,132.0607287668216L261.60243055555554,90.06843073096611L261.68052083333333,84.19923955413883L262.0709722222222,113.15046386334923L263.0080555555556,120.51784229865703L263.3985069444445,126.61122555403814L263.5546875,135.34459532676624L263.6327777777778,137.94555025581752L263.8670486111111,141.53186611872883L263.9451388888889,145.96514313544017L264.6479513888889,134.95146078371684L265.11649305555557,148.3348861843567L265.42885416666667,152.39828382025058" style="fill: none;" fill="none"></path></g></g></g></g><g opacity="0.2"><g><g><g><path stroke="rgb(204, 51, 17)" stroke-width="2px" d="M32.48555555555556,-78.76392715317866L32.71982638888889,13.515458515712169L32.797916666666666,-78.50756161553522L35.60916666666667,-39.6221092087882L35.68725694444444,6.7251628467014655L35.76534722222222,-23.227404969079174L36.39006944444444,29.68701471601213L36.624340277777776,-14.3827487060002L36.85861111111112,30.414996385574312L36.93670138888889,8.299437148230396L37.01479166666666,33.04635276113237L37.09288194444444,25.47502388272966L37.483333333333334,13.398051840918384L38.10805555555556,-24.892499889646274L38.6546875,-6.665407521384111L39.27940972222222,19.913504362106295L39.51368055555555,82.49909918648856L39.591770833333335,5.288641691207857L40.13840277777778,22.603549003601046L40.37267361111111,45.276782410485396L40.52885416666667,33.16957701955522L41.153576388888894,36.39691921642847L41.38784722222222,24.180445739201105L41.465937499999995,9.899091788700616L42.168749999999996,25.7935742650713L42.324930555555554,35.4532046658652L42.403020833333336,42.77335258892603L42.48111111111111,20.427290439605684L43.027743055555554,38.03319750513347L43.418194444444445,24.456253460475352L43.574374999999996,28.88382646015711L43.65246527777777,45.92090647561207L43.96482638888889,-32.88374979155407L44.35527777777777,64.20447160516466L44.433368055555555,31.71400553839544L44.66763888888889,31.0438982759203L45.136180555555555,63.601025411060874L45.21427083333333,61.48775047915322L45.37045138888889,22.628688199179493L45.60472222222222,-3.4234158652169526L45.76090277777777,47.078635760716L45.838993055555555,28.524854421615572L45.99517361111111,12.99067027228216L46.151354166666664,63.12535505635397L46.22944444444445,50.81512202535356L46.77607638888889,57.58883908816746L47.40079861111111,6.1120558466229795L47.47888888888889,34.31377213341847L47.556979166666665,22.615154027938814L47.86934027777778,66.6788888658796L48.650243055555556,71.79711152826036L48.72833333333333,17.471656526838018L48.88451388888889,39.975109934806795L49.196875,86.82472882952008L49.43114583333334,54.05233602864401L49.50923611111111,71.16744099344525L49.58732638888889,65.87048588480268L49.82159722222222,45.52253764016285L50.75868055555556,25.827726193836725L51.227222222222224,7.192438398088711L51.46149305555556,79.04842809268406L51.617673611111115,40.28240193639482L51.695763888888884,104.69740074021475L51.85194444444444,24.359374114445245L52.16430555555556,1.2610351017542882L52.47666666666667,22.623051473072564L52.632847222222225,62.89394785676683L53.023298611111116,39.29648729733057L54.1165625,83.25698263304574L54.50701388888889,115.32271988051278L54.58510416666666,83.1810074022838L54.897465277777776,26.45201621736797L54.97555555555556,48.664273943219854L55.28791666666666,58.007448894636966L55.36600694444444,36.455034766878384L55.5221875,43.09294290202001L55.756458333333335,40.76976774420055L56.14690972222222,61.55635576588766L56.225,90.14257514476776L56.30309027777778,63.044933744839255L56.69354166666667,75.59977657454354L56.771631944444444,38.2908591883523L56.84972222222222,-3.1748573439462007L57.08399305555555,-153.5230417932783L57.78680555555555,19.26528085981093L57.94298611111111,60.96302252156393L58.41152777777778,-16.38270132882255L58.880069444444445,33.29096255983623L58.95815972222222,25.850122383662608L59.42670138888889,12.839714527130099L59.66097222222223,54.5022040435246L59.973333333333336,16.07326616559706L60.285694444444445,16.77194891657146L60.441874999999996,67.20132596152169L60.75423611111111,63.43126048360551L60.83232638888889,-13.788541316986112L60.91041666666667,42.47359631742748L61.06659722222223,17.730011497225064L61.45704861111111,28.744415453502086L61.847500000000004,14.04494905471799L61.92559027777777,52.95309908049447L62.003680555555555,65.26547225884029L63.17503472222222,99.02582941736495L63.721666666666664,71.51458193574632L64.19020833333333,42.51760498114993L64.2682986111111,47.13357123306818L64.42447916666666,95.00750684738159L64.58065972222222,67.2388538973672L64.89302083333334,35.85172421591619L65.59583333333333,76.58647492953709L65.7520138888889,80.47132464817592L65.83010416666667,83.32735128062112L66.064375,65.79006457328796L66.53291666666667,112.14215949603489L67.1576388888889,110.18746646812984L67.23572916666667,75.66283556393215L67.47,109.38304235254014L67.54809027777777,84.4433627639498L68.25090277777778,115.83635524341038L68.32899305555556,73.35626915522984L69.18798611111112,54.49608503069196L69.42225694444444,57.02210697105953L69.50034722222223,90.23090897287642L69.65652777777778,77.78513830048698L69.81270833333333,100.94148736340658L70.90597222222223,72.49466391972133L71.29642361111111,82.66206688540322L71.45260416666666,57.90372710568563L71.686875,67.19376008851188L71.84305555555555,74.24712809494564L72.23350694444444,65.40553133828298L72.31159722222223,123.37903327601296L72.78013888888889,115.9764746086938L72.93631944444444,133.43567608083998L73.01440972222223,95.88692654882158L73.17059027777778,129.87148674896787L73.24868055555555,43.459872671536004L73.48295138888889,97.55033346584864L73.63913194444444,65.29251045840127L74.02958333333332,46.477631143161204L74.10767361111111,112.53229931422642L74.81048611111112,80.96997897965568L74.96666666666667,104.96885280949728L75.27902777777778,86.16792966638292L75.35711805555556,70.566481590271L75.43520833333332,92.20450161184584L75.74756944444444,72.03665731634412L76.05993055555555,56.45026562895093L76.13802083333333,95.49440543992178L76.37229166666667,54.53254289286477L76.52847222222222,108.608399442264L76.60656250000001,96.74177977016993L76.68465277777779,68.320758666311L76.76274305555556,96.09224505083901L76.84083333333332,125.6719901561737L76.91892361111113,91.26401235376085L77.07510416666666,114.88240717138564L77.15319444444444,112.4907774414335L77.54364583333333,96.7757659128734L77.6217361111111,90.32314630917139L77.93409722222222,121.12636240891048L78.16836805555556,78.30739453860691L78.3245486111111,85.50210269859859L78.79309027777778,107.16289569650377L78.94927083333333,66.74553486279079L79.33972222222222,82.26075911521912L79.65208333333334,103.16523609842574L79.73017361111111,95.69125378131866L79.88635416666666,132.95766964980535L80.8234375,76.34917478902L81.37006944444444,106.0154903616224L81.44815972222221,120.10827020236424L81.60434027777778,118.53899962561471L81.68243055555556,111.91754952498844L81.76052083333333,142.25427378926958L81.8386111111111,88.97043754373277L81.99479166666667,65.22265424047197L82.2290625,90.8589517899922L82.54142361111111,28.42447849682398L82.61951388888889,121.412132365363L82.93187499999999,124.2837428876332L83.16614583333333,123.82478678226471L83.47850694444445,62.44094497816903L83.71277777777777,123.77206681455885L83.79086805555556,121.8626936674118L83.86895833333334,127.26227034841264L83.94704861111111,95.76364200455801L84.02513888888889,92.56068543025425L84.18131944444445,92.58362419264657L84.25940972222222,119.99396824836731L84.33749999999999,98.6909566436495L84.57177083333333,88.88939830235071L84.64986111111111,101.51720207078115L84.72795138888888,74.41650116443634L84.88413194444445,57.68409071649823L85.0403125,115.85677707195282L85.11840277777777,91.90179133415222L85.66503472222223,100.79972520896366L85.89930555555556,94.60776650905609L86.21166666666666,84.50922504493168L86.4459375,113.79830196925572L86.60211805555556,122.2487792628152L86.75829861111112,122.2572946378163L87.07065972222223,118.49642275060927L87.38302083333333,56.95365239892686L87.61729166666666,116.3476997443608L87.69538194444445,110.89537295273372L87.77347222222222,91.20669559070042L87.8515625,105.36191649096352L88.32010416666667,66.1285092830658L88.78864583333333,97.77339107649667L88.94482638888888,108.42107626370021L89.02291666666666,123.19540260519301L89.33527777777778,124.0849051134927L89.56954861111112,65.33258547101701L89.64763888888889,118.40377848488944L89.88190972222223,91.90099254676274L89.96000000000001,90.16326825959341L90.03809027777777,75.87002292701176L90.19427083333333,62.515880278178614L90.35045138888889,122.57510651860918L90.81899305555555,104.69967653070177L91.05326388888889,103.13340517452785L91.13135416666667,81.22103936331612L91.36562500000001,98.08868602343968L91.44371527777778,97.86617098535811L91.52180555555555,99.9741256918226L91.67798611111111,78.5748074565615L91.75607638888889,146.51732672963823L92.22461805555555,81.01980522700718L92.53697916666667,29.664136239460504L92.61506944444444,110.62458402769906L92.77125000000001,105.77249320915767L92.92743055555556,131.729149716241L93.08361111111111,118.80228296348027L93.16170138888889,120.69522821903229L93.23979166666666,111.39900086607253L93.31788194444444,130.39900292669023L93.39597222222221,128.3000157390322L93.63024305555555,114.45317198548997L93.78642361111112,109.35201021603176L93.94260416666667,89.74612038476126L94.17687500000001,73.52716444219861L94.33305555555556,110.35762325354985L94.41114583333332,136.12077728339605L94.48923611111113,109.71906055722917L94.95777777777778,114.98722917693001L95.03586805555555,110.82952574321202L95.1920486111111,105.05791006769454L95.42631944444445,120.0922190972737L95.73868055555556,133.60987201758795L95.97295138888889,79.01703424113137L96.20722222222221,139.5893382004329L96.2853125,86.17291831970215L96.44149305555555,66.44972731385911L96.5976736111111,121.83075724329268L96.75385416666667,71.88839936256409L97.14430555555556,90.70336910656519L97.3785763888889,86.65371297086988L97.53475694444444,108.10100366388048L98.70611111111111,125.80650293827057L99.01847222222221,110.95157442774092L99.17465277777778,118.55896931035178L99.25274305555556,144.46872343335832L99.56510416666667,91.97451112951552L99.72128472222222,101.17413042272841L99.799375,85.89278508935655L100.03364583333334,28.781189816338667L100.18982638888889,82.86976667812893L100.34600694444444,84.80993081842149L100.58027777777777,100.93991993154799L100.73645833333333,130.56338734286172L100.8145486111111,118.48441079684666L100.97072916666667,142.83657472474235L101.28309027777777,103.24415026392256L101.59545138888889,115.74172154494694L102.14208333333333,120.7939462832042L102.22017361111111,71.69578610147748L102.29826388888888,82.41014742851257L102.37635416666667,112.00042748451233L102.53253472222222,73.5666365964072L102.76680555555556,107.45077565738133L102.84489583333334,61.81519302300045L102.92298611111111,118.1270363330841L103.15725694444446,131.19988524913788L103.23534722222223,82.69132058961051L103.31343749999999,26.884265695299405L103.39152777777777,112.50357311112539L104.01625,146.94933506420682L104.09434027777777,79.91206797531673L104.32861111111112,54.43522647448948L104.87524305555554,94.43557507651192L105.10951388888888,90.63515567779541L105.73423611111112,92.61975048269545L105.81232638888889,124.85810116359166L105.96850694444446,98.09682461193628L106.04659722222223,93.99075600079127L106.12468750000001,77.38737232344491L106.35895833333333,120.13313811165946L106.43704861111111,128.93666435991014L106.59322916666666,60.07116886547634L106.74940972222223,100.36682765824453L107.13986111111112,95.5480899810791L107.21795138888889,119.82699154104506L107.53031250000001,115.92509600094387L107.60840277777777,127.02469892161233L107.68649305555554,135.28366317067827L107.76458333333333,98.19032795088631L107.99885416666666,92.18927943706512L108.07694444444444,157.20143963609422L108.15503472222223,125.76434806415013L108.38930555555555,100.71009523527962L108.46739583333333,42.167630604335216L109.09211805555555,76.92555264064244L109.40447916666666,110.4029129913875L109.56065972222223,67.1492691380637L109.71684027777778,112.68732435362679L109.79493055555555,117.84557681424278L110.0292013888889,126.01777466705867L110.26347222222223,123.09312767641885L110.34156250000001,108.76360533918654L110.41965277777778,108.38977284090859L110.49774305555556,149.27038514614105L110.73201388888889,131.18127199581693L111.35673611111112,96.9404216153281L111.51291666666667,106.7392670937947L111.66909722222222,131.5206059217453L111.82527777777779,144.37808367184232L111.90336805555556,114.69184362888336L112.13763888888889,148.920380626406L112.29381944444444,89.58842769690922L112.45,82.3787385054997L112.8404513888889,98.61448405470168L113.38708333333334,131.03670654978072L113.4651736111111,117.70496009077345L113.69944444444444,106.03023024967739L113.855625,116.32798627444676L114.32416666666667,127.42552440507072L114.40225694444445,109.9777169568198L114.5584375,132.02105375698636L114.71461805555556,151.28883045060294L115.02697916666666,120.60816039357866L115.33934027777778,126.68444563661302L115.49552083333333,106.25277543067932L115.88597222222222,146.03680336475372L115.9640625,120.81616161550795L116.04215277777779,77.77461842128209L116.58878472222221,135.84172919818334L116.66687499999999,152.1659140757152L117.13541666666667,79.26842619691575L117.44777777777779,131.713309611593L117.52586805555556,124.78098050185612L117.60395833333334,92.20808861936843L118.30677083333333,102.17505623613084L118.46295138888888,117.26307994978768L118.69722222222222,116.66665705612728L119.16576388888889,131.1757709128516L119.24385416666668,124.91840207576752L119.55621527777777,97.08709706578935L119.79048611111111,110.25659925597054L119.86857638888888,145.23791047504972L119.94666666666667,153.80057971818107L120.1809375,145.29186630249023L121.03993055555556,56.990713119506836L121.27420138888888,125.93118912833077L121.50847222222222,133.4241464138031L121.5865625,91.96589025429316L121.66465277777777,61.78165902410234L121.89892361111112,120.89352342060634L121.97701388888889,131.0697431904929L122.05510416666667,126.99289814063481L123.22645833333334,154.25383881160192L123.46072916666667,110.50921200002944L123.61690972222223,127.39914934975761L123.69500000000001,100.21419898101261L123.85118055555554,115.83415481022426L123.92927083333333,122.96910463060652L124.16354166666666,89.84182415689742L124.3978125,128.85986019883836L124.47590277777778,107.11166780335562L124.63208333333334,147.95882146699088L124.78826388888889,119.5210258279528L124.94444444444444,104.70107817649841L125.10062500000001,142.10414697442735L125.33489583333333,89.51475839955465L125.49107638888889,102.62174417291368L125.64725694444444,136.9306572675705L125.8034375,124.79398717199052L125.95961805555555,111.11823463439941L126.11579861111112,119.99170752934047L126.89670138888889,148.06400518757957L127.2090625,114.23148587771824L127.52142361111112,123.62064385414124L127.5995138888889,74.95070907047817L127.67760416666667,131.08267450332642L127.83378472222223,122.32885393074581L128.06805555555556,54.397939682006836L128.3023263888889,133.66471706117903L128.45850694444445,139.5356536592756L128.6927777777778,63.84224413122449L129.16131944444444,123.2568188054221L129.3175,97.58885611806596L129.47368055555555,123.79535222053528L129.55177083333334,122.21429576192583L129.78604166666668,94.71165408406938L129.86413194444444,89.03601346697127L129.94222222222223,105.10603324004582L130.17649305555557,146.91919214384896L130.80121527777777,115.66128516197205L131.19166666666666,136.13916446481431L131.3478472222222,117.57915861266L131.8163888888889,103.13702232497079L132.12875,118.57958706787655L132.2068402777778,135.34474779878343L132.28493055555555,113.41468809332167L132.36302083333334,157.6847813640322L132.8315625,144.09287135941642L133.06583333333333,117.61032639231001L133.61246527777777,110.37180549757821L133.76864583333332,111.51152438776833L134.00291666666666,116.27350294589996L134.08100694444445,101.00908286230904L134.3152777777778,115.26002260616848L134.39336805555556,110.21551445552281L134.78381944444445,84.74164203235081L134.8619097222222,68.44384728159223L134.94,104.41743329593113L135.17427083333334,96.71236027990068L135.40854166666668,109.82358113356999L135.48663194444444,94.75258816991533L135.56472222222223,136.41852905069078L135.6428125,119.0951817205974L135.72090277777778,89.15943365437643L136.18944444444446,100.6253936290741L136.65798611111111,140.79306558200292L137.12652777777777,141.8165533712932L137.4388888888889,136.9533096722194L137.59506944444445,101.80021395002092L137.98552083333334,119.59776970318386L138.29788194444444,128.0336126089096L138.84451388888888,105.11907005310059L139.00069444444446,113.71655436924526L139.23496527777777,102.06893808501107L139.39114583333333,91.41312938077108L139.46923611111112,115.0429332937513L139.70350694444446,82.35891953536442L139.78159722222222,165.15489031587327L139.93777777777777,95.0738514150892L140.01586805555556,106.00900963374546L140.2501388888889,142.01548157419478L141.57767361111112,112.5017193215234L141.6557638888889,91.62586304119654L141.73385416666667,150.86954242842538L141.81194444444446,123.62400478976113L142.12430555555554,159.8558101313455L142.35857638888888,130.87465820993697L142.67093749999998,152.63404870033264L142.74902777777777,117.22142243385315L142.82711805555556,186.1637597680092L143.13947916666666,94.96792919295174L143.21756944444445,125.16438337734768L143.2956597222222,99.41322622980391L143.4518402777778,118.0626209122794L143.60802083333334,129.46119638851712L143.7642013888889,72.75249138900212L143.92038194444444,98.99098420143127L144.54510416666668,91.81956144741602L144.93555555555554,146.24884373801095L145.01364583333336,145.5913211447852L145.71645833333332,112.62999251910618L145.7945486111111,94.02325006893702L146.65354166666665,106.1268081665039L147.04399305555557,101.5906000818525L147.2782638888889,113.7639239685876L147.35635416666668,88.5584441082818L147.59062500000002,106.96873007501875L147.74680555555557,117.31002754824502L147.82489583333336,156.8425429548536L148.44961805555553,133.96361425944738L148.52770833333332,106.64712018626076L148.6057986111111,146.7291259595326L148.68388888888887,111.36644651208604L148.9181597222222,108.73522577966963L149.07434027777776,114.47739182199751L149.15243055555555,113.25318232604435L149.23052083333334,115.0686753477369L149.85524305555555,125.88992347036088L150.24569444444447,80.13315122468131L150.32378472222223,138.7591418879373L150.55805555555557,155.4914769785745L151.10468749999998,102.9996007510594L151.26086805555553,118.46789247649056L152.04177083333335,131.1828394276755L152.43222222222224,142.59090992382596L152.5103125,117.65706299032485L152.66649305555555,99.05613812378473L152.74458333333334,123.3236004454749L153.21312500000002,123.67496139662606L153.29121527777778,109.38082684789384L153.75975694444446,76.17526521001543L153.83784722222225,123.28880044392177L154.54065972222222,177.64040442875455L154.85302083333332,112.96554350852966L155.0092013888889,151.72759079933167L155.3215625,126.75862736361367L156.02437500000002,78.90020028182438L156.18055555555557,125.79616391658783L156.4148263888889,127.05552005767822L156.57100694444446,104.23116511957986L156.6490972222222,89.19996081079756L157.0395486111111,101.76773495333535L157.27381944444443,131.43044844695498L157.66427083333332,146.89531895092557L157.8204513888889,121.13260199342454L158.1328125,127.82805296352932L158.28899305555555,145.05929860046933L158.36708333333334,125.11359255654472L158.4451736111111,100.80714036737169L158.60135416666668,106.29925581387111L158.75753472222223,128.18009213038852L159.14798611111112,99.06376428263528L159.38225694444446,106.35458314418793L159.53843750000001,132.35298759596688L159.77270833333333,117.53949052946908L160.00697916666667,158.2792751107897L160.31934027777777,160.2634027004242L160.5536111111111,122.77181921686446L160.8659722222222,96.06528220857894L160.9440625,186.43825627224786L161.0221527777778,190.11517259052823L161.56878472222223,113.67786593096596L161.72496527777778,166.6070556470326L161.88114583333333,116.82819296632493L162.11541666666668,77.5173636674881L162.19350694444447,150.6142921788352L162.6620486111111,117.35212213652474L162.74013888888888,128.51267404215676L163.05249999999998,120.5609565802983L163.3648611111111,111.89144575595856L163.59913194444445,128.2568360056196L163.6772222222222,132.59789882387435L163.7553125,138.34240094252996L163.83340277777776,114.91389145169939L163.98958333333334,149.20770294325692L164.22385416666665,100.3905953509467L164.77048611111113,116.00191523347581L164.8485763888889,104.3210060937064L165.23902777777778,127.14326609883989L165.39520833333336,133.98703530856542L165.4732986111111,111.36909908907754L165.55138888888888,152.60187113285065L166.25420138888887,155.1506359066282L166.5665625,127.22210490703583L166.64465277777776,166.08704505647933L166.72274305555555,129.3827795812062L166.80083333333334,116.04517032418931L166.9570138888889,100.13671660423279L167.3474652777778,101.01172036784035L167.42555555555555,96.55338651793343L167.58173611111113,115.65477429117476L167.6598263888889,109.70852560656411L167.73791666666668,136.21084432942527L167.97218750000002,128.67755581651414L168.12836805555557,136.28205697877067L168.20645833333336,96.82325608389718L168.28454861111112,103.22425593648637L168.9873611111111,122.3285675730024L169.22163194444443,166.85678974219732L169.92444444444445,99.55483766964502L170.39298611111113,159.10076011930192L170.4710763888889,105.71160451003483L170.93961805555557,124.12861234801156L171.01770833333333,142.38966071605682L171.09579861111112,158.1020950249263L171.25197916666664,111.782313312803L171.72052083333332,110.07715845108032L172.1890625,141.95591916356767L172.26715277777777,152.76826005322593L172.891875,121.01527067593166L172.9699652777778,137.37228119373322L173.20423611111113,154.33213504723142L173.43850694444444,118.89622337477547L173.75086805555557,103.14038326059068L173.90704861111112,147.63852279526847L174.2194097222222,126.36217260360718L174.68795138888888,102.87863721166337L175.0003125,85.42677554062435L175.07840277777777,93.45398594651903L175.3126736111111,153.07074425901686L175.46885416666666,151.51925800527846L175.703125,146.90383432592665L176.0154861111111,136.4298929316657L176.17166666666668,130.85437202453613L176.32784722222223,95.62685343197413L176.4059375,85.03469150406974L176.48402777777778,160.16495592253548L177.03065972222223,114.24868241378239L177.1868402777778,136.38152861595154L177.26493055555554,121.22078510693142L177.73347222222222,164.97210364682334L177.81156249999998,154.08530974388123L177.88965277777777,98.95933413505554L178.04583333333332,99.69461039134434L178.20201388888887,103.2055070400238L179.13909722222223,142.4266460793359L179.84190972222223,127.99570788655961L180.15427083333336,155.38570547103882L180.54472222222222,141.46208769934518L180.62281249999998,105.12461635044643L181.01326388888887,117.86195949145726L181.09135416666666,64.62495027269635L181.16944444444445,99.56567404951369L181.48180555555555,-42.61554234368461L181.55989583333334,-24.824105603354326L182.0284375,60.84608306203569L182.34079861111113,105.76987077508653L182.4188888888889,46.63995076928819L182.49697916666668,129.1270169019699L182.65315972222223,110.87620205538613L182.73125000000002,71.93762275150844L183.12170138888888,90.71987235546112L183.35597222222222,85.47538099970136L183.51215277777777,118.26953698907579L183.7464236111111,93.65454186711992L183.98069444444445,99.91200113296509L184.21496527777776,121.2180119582585L184.37114583333334,100.08957307679312L184.8396875,111.73553150040762L184.9177777777778,98.22240001814706L185.07395833333334,151.24433950015478L185.2301388888889,151.83387473651342L185.9329513888889,92.81001259599412L186.01104166666664,122.9530987398965L186.08913194444443,126.0700877053397L186.16722222222222,112.74471647398812L187.2604861111111,135.54809193951743L187.57284722222224,148.5116124834333L187.88520833333334,145.4885036434446L187.96329861111113,131.98337510653903L188.19756944444444,93.29766476154327L188.27565972222223,145.97330730301994L188.50993055555557,79.3785081420626L188.66611111111112,104.24869322776794L188.82229166666664,120.66731587478093L189.21274305555553,104.96071422100067L189.44701388888888,133.66848492622375L189.60319444444443,89.65520933696202L189.68128472222222,117.02846252918243L189.83746527777777,126.76185265609196L190.0717361111111,150.76791557243894L190.30600694444445,160.14408195018768L190.4621875,145.2422058412007L190.69645833333334,141.66629091330938L190.93072916666668,99.85082607609884L191.00881944444444,132.06444449084145L191.24309027777778,101.52543108803884L191.47736111111112,128.00056089673723L192.10208333333333,157.8099046264376L192.1801736111111,136.44163359914506L192.33635416666667,136.28742241859436L192.72680555555556,98.70654053347451L193.11725694444445,94.82898540156228L193.1953472222222,56.48170469488416L193.2734375,93.38847030912126L193.42961805555555,143.4276773929596L193.50770833333334,88.97117604528154L193.6638888888889,137.4238255875451L193.82006944444444,113.95332700865609L194.05434027777778,115.35040615286147L194.13243055555557,132.17957537514823L194.44479166666667,102.9984553200858L194.83524305555554,117.49367329052517L194.9914236111111,120.94863975048065L195.45996527777777,114.08398149694716L195.53805555555556,151.15583988598416L195.61614583333332,131.97523651804244L195.6942361111111,112.06553619248525L195.77232638888887,102.21995411600386L196.0065972222222,158.7487360239029L196.1627777777778,141.35467340265L196.3970486111111,167.73795019728797L196.4751388888889,102.81521650723049L196.70940972222223,110.3191156727927L196.86559027777778,126.1292884009225L197.02177083333333,124.80621012619564L197.09986111111112,131.1070751973561L197.17795138888889,135.9645314557212L197.49031250000002,128.67850531850542L197.8026736111111,130.42215268952506L197.88076388888888,126.99809779439653L197.95885416666667,128.07511941024234L198.27121527777777,139.6549141236714L198.34930555555556,146.64434899602617L198.5054861111111,160.19889685085843L198.58357638888887,175.77972716944558L198.73975694444445,108.86367983477456L198.8178472222222,153.86924529075623L198.8959375,131.6231973511832L199.05211805555555,112.46262395381927L199.13020833333334,170.4771956205368L199.2863888888889,127.90089333057404L199.52065972222223,67.98547896317073L199.67684027777779,151.3830270767212L199.75493055555557,138.40339514187406L200.22347222222223,127.78142186573574L200.30156250000002,153.2348121745246L200.37965277777778,133.41097395760673L200.69201388888888,139.38946049554008L200.84819444444443,126.2455496447427L201.00437499999998,146.11947032383512L201.3167361111111,122.97841879299709L201.86336805555555,128.1487887075969L202.0976388888889,121.82111150877816L202.25381944444445,150.53876909187863L202.41,139.33963424818856L202.4880902777778,109.21178535052708L202.8004513888889,156.37428775855474L202.95663194444447,118.04602723462241L203.03472222222223,152.02675928388322L203.11281250000002,115.26770905085972L203.34708333333336,159.14799407550268L203.42517361111112,115.74393704959324L203.65944444444443,124.85089700562614L203.73753472222222,178.21283355781011L203.97180555555553,151.1101884331022L204.20607638888887,96.57080912590027L204.5184375,150.94655758993966L204.98697916666666,106.03038096427917L205.06506944444445,116.31396981648037L205.2993402777778,132.84383491107397L205.37743055555555,141.6964489051274L205.53361111111113,159.95485976764135L205.68979166666668,178.26379770040512L205.76788194444444,89.5949536391667L205.92406250000002,160.6995255436216L206.00215277777778,136.08793657166618L206.15833333333333,148.4545820781163L206.23642361111112,140.58328592777252L206.3145138888889,142.4955678667341L206.39260416666664,88.78186343397414L206.54878472222225,123.2270074571882L206.70496527777777,90.00328470979417L206.78305555555553,112.7310768025262L207.09541666666667,135.7182788678578L207.17350694444443,110.64033370358602L207.3296875,138.18039781706673L207.56395833333332,149.65921374729703L207.7201388888889,111.23811302866255L207.9544097222222,138.02192141328538L208.89149305555557,129.5281287431717L209.20385416666667,125.46207485880171L209.43812499999999,164.28216234275274L209.82857638888888,156.62281613690513L209.98475694444443,134.20050747053963L210.21902777777777,132.50371726921628L210.68756944444445,153.45502127919877L210.7656597222222,133.65776911803655L210.9218402777778,116.36965886184147L211.1561111111111,123.0458334343774L211.39038194444444,154.3163250855037L211.46847222222223,102.51547530719212L211.5465625,131.05976588385445L212.24937500000001,159.58349898883276L212.3274652777778,147.81736074175154L212.40555555555554,131.81159060341972L212.48364583333333,145.725743498121L212.63982638888888,117.65567641598838L212.79600694444443,102.05356519562856L213.03027777777777,144.58472846235549L213.42072916666666,151.37330598490578L213.5769097222222,160.98283885206496L213.655,131.05643509115492L213.7330902777778,143.60889663015092L213.81118055555555,151.67196203981126L214.43590277777778,141.7175338779177L215.13871527777775,129.85076349122184L215.52916666666667,150.59008741378784L216.15388888888887,116.9635045358113L216.23197916666666,116.80347577163151L216.46625,103.44544468607222L216.7786111111111,149.60046519551958L217.01288194444444,176.33238254274642L217.32524305555557,143.8068301166807L217.5595138888889,152.78839552402496L217.79378472222223,120.20686769485474L217.87187500000002,154.84774477141244L217.94996527777778,145.25867894717626L218.10614583333336,138.2370514358793L218.73086805555553,132.99369043963296L218.8870486111111,119.86170111383711L219.04322916666666,151.53764518669675L219.1994097222222,139.61248796326774L219.5898611111111,123.43209988730294L219.9803125,19.456869261605362L220.60503472222223,119.82310310431889L220.68312500000002,97.40474316052027L220.76121527777778,144.14397868088315L221.0735763888889,149.8043820517404L221.30784722222222,119.77695429325104L221.54211805555553,146.4303342614855L222.16684027777777,123.75892450128282L222.32302083333335,116.29895864214217L222.63538194444445,114.55226683616638L222.71347222222224,132.09351733752658L222.7915625,135.43807028021132L222.8696527777778,138.04710582324438L223.02583333333334,133.91098472050257L223.1820138888889,114.98716889108931L223.41628472222223,122.50968130997249L223.65055555555557,158.00019688265664L223.72864583333333,109.41656127997807L223.8848263888889,168.96552816459112L224.04100694444446,151.49096887452262L224.58763888888888,116.21564361027309L224.9,113.45158302783966L225.05618055555556,130.64896309375763L225.2123611111111,119.63287113394057L225.36854166666666,139.3560621397836L225.44663194444445,150.51228853634427L225.6028125,143.80779469013214L225.83708333333334,138.9679117543357L225.9932638888889,142.30575789724077L226.22753472222223,162.78342619964056L226.38371527777778,119.99755525588989L226.61798611111112,129.4165848663875L226.6960763888889,124.41379451751709L226.77416666666667,137.04893808705467L227.55506944444443,103.47314602988106L227.63315972222222,95.30084267684391L227.78934027777777,116.89253302982875L227.86743055555556,133.8301715510232L227.94552083333332,104.13904835496629L228.0236111111111,147.60009057181222L228.25788194444445,123.03804148946489L228.3359722222222,153.05724023069655L228.4921527777778,145.05239587170738L228.7264236111111,109.35232671669552L228.88260416666668,125.07089510985783L229.03878472222223,161.29576757975988L229.19496527777778,168.6314918569156L229.8977777777778,112.11983866350991L229.97586805555554,178.5515194109508L230.21013888888888,119.77342757156917L230.36631944444443,137.6477724143437L230.52249999999998,113.33174984795707L230.67868055555556,105.32075633321489L230.8348611111111,133.53380635806494L230.91295138888887,169.349126969065L231.1472222222222,117.84164316313607L231.6157638888889,110.38636452811105L231.69385416666668,147.43555544103896L232.00621527777778,171.41090272154128L232.24048611111112,150.72068161623818L232.47475694444447,160.8068494115557L232.63093750000002,129.01518666744232L232.70902777777775,171.41730055638723L233.02138888888888,113.08864719527108L233.33374999999998,151.11035421916418L233.56802083333332,149.24658731051855L233.6461111111111,174.43418488332205L233.72420138888887,72.79829355648586L233.80229166666666,182.0373522213527L234.0365625,167.6450572524752L234.3489236111111,156.27232933044434L234.50510416666665,150.1228872197015L234.81746527777779,107.44884651047842L234.89555555555557,176.37685088600432L235.05173611111113,102.14019594873702L235.1298263888889,129.3559071677072L235.52027777777778,150.27263724803925L235.7545486111111,180.20392416204726L235.83263888888888,148.83498573303223L235.98881944444443,93.23769542149134L236.14499999999998,154.14089328902108L236.30118055555553,154.58367771761758L236.37927083333332,145.0434434243611L236.61354166666666,147.14766040870123L236.69163194444445,133.62596833705902L236.8478125,151.92487621307373L237.08208333333334,147.07147417749678L237.1601736111111,137.04113107068198L237.31635416666666,119.97770614283425L237.78489583333334,179.8619979449681L238.01916666666668,145.03801769869668L238.25343750000002,105.59541862351553L238.33152777777778,121.36480798040117L238.6438888888889,94.11841126850672L239.11243055555553,165.04454462017333L240.12760416666666,160.91635864121574L240.4399652777778,139.65928484712327L240.59614583333334,163.85444937433516L240.98659722222223,173.60875115224295L241.22086805555557,60.253141675676616L241.37704861111112,102.28367624964034L241.68940972222225,182.92293615000588L242.07986111111111,110.66336289473942L242.39222222222222,180.64900698832105L242.70458333333332,139.29862480504173L242.93885416666666,149.15103425298418L243.64166666666668,137.29933532646723L244.11020833333333,203.11244566951478L244.8911111111111,158.88047565732683L244.96920138888888,136.85968576158797L245.04729166666667,156.77143580572945L245.2815625,113.7771567106247L245.35965277777777,126.53645896911621L245.75010416666666,132.46668669155667L245.9062847222222,136.65536197594233L246.21864583333334,134.2533178670066L246.2967361111111,128.4685297352927L246.3748263888889,92.6128477539335L246.45291666666668,129.02561611788613L246.53100694444444,121.15013010161263L246.60909722222223,134.08150322096688L246.6871875,145.9979340689523L247.31190972222223,121.66653861318315L247.54618055555554,119.88569487844194L248.01472222222222,142.9979147059577L248.32708333333332,117.51022175380162L249.1079861111111,163.99049944537026L249.1860763888889,146.86403059959412L249.26416666666668,132.86568852833338L249.81079861111112,133.5807238136019L250.20125000000002,130.69080146721433L250.43552083333336,160.79566638810294L250.59170138888888,113.67958407742637L250.66979166666667,142.04435849189758L250.74788194444443,162.31604514803206L250.82597222222222,125.1936822959355L251.13833333333332,147.35590277399336L251.76305555555555,172.08248698711395L251.84114583333334,88.61128464766911L252.07541666666665,116.95131172452653L252.23159722222223,116.82098880835942L252.3096875,162.08397480419706L252.46586805555557,148.63687138898032L252.85631944444447,97.90987821987696L253.40295138888888,170.1569647703852L253.55913194444443,131.82976678439547L253.79340277777777,119.8451225076403L253.94958333333332,137.79559329577856L254.3400347222222,170.03017611163003L254.57430555555555,144.5469593831471L254.8085763888889,163.81755443981717L255.5113888888889,140.8031031744821L255.58947916666668,125.80478479181016L255.82375000000002,104.19142167908804L256.05802083333333,150.49709650448392L256.2142013888889,153.27793162209647L256.29229166666664,143.7255949463163L256.7608333333333,112.60336124897003L256.9951041666667,147.35933906691415L257.0731944444444,130.76879627364022L257.229375,172.18194355283464L257.4636458333334,121.04610688345772L257.6198263888889,147.94741237163544L257.7760069444444,91.01234911169325L258.0102777777778,140.91592812538147L258.0883680555555,144.56906921522958L258.1664583333333,155.8765527861459L258.7130902777778,131.23064609936307L259.1035416666667,152.63727399281095L259.25972222222225,155.78252194608962L259.3378125,172.13552345548356L259.4159027777778,135.4314388377326L259.7282638888889,134.92027519430434L259.80635416666667,133.15507563522883L260.19680555555556,130.24150616782052L260.27489583333335,140.90986939838956L260.58725694444445,126.63532774788993L260.82152777777776,115.49204773562295L260.89961805555555,111.07473840032304L261.05579861111113,149.9379302603858L261.60243055555554,27.079983677182867L261.68052083333333,75.39545278889793L262.0709722222222,156.57730032716478L263.0080555555556,131.56890995161874L263.3985069444445,135.75130043710982L263.5546875,148.44464998585838L263.6327777777778,141.84698264939445L263.8670486111111,146.91133991309576L263.9451388888889,152.6150586605072L264.6479513888889,118.43093725613186L265.11649305555557,168.41002428531647L265.42885416666667,158.49338027409146" style="fill: none;" fill="none"></path></g></g></g></g></g></g><g transform="translate(48, 177)" clip-path="url(#clip_1)"><clipPath id="clip_1"><rect width="281" height="23"></rect></clipPath><g><g><line x1="0" y1="0" x2="0" y2="5" style="visibility: inherit;" fill="rgb(0, 0, 0)" stroke="rgb(204, 204, 204)" stroke-width="1px"></line><line x1="31.23611111111111" y1="0" x2="31.23611111111111" y2="5" style="visibility: inherit;" fill="rgb(0, 0, 0)" stroke="rgb(204, 204, 204)" stroke-width="1px"></line><line x1="62.47222222222222" y1="0" x2="62.47222222222222" y2="5" style="visibility: inherit;" fill="rgb(0, 0, 0)" stroke="rgb(204, 204, 204)" stroke-width="1px"></line><line x1="93.70833333333333" y1="0" x2="93.70833333333333" y2="5" style="visibility: inherit;" fill="rgb(0, 0, 0)" stroke="rgb(204, 204, 204)" stroke-width="1px"></line><line x1="124.94444444444444" y1="0" x2="124.94444444444444" y2="5" style="visibility: inherit;" fill="rgb(0, 0, 0)" stroke="rgb(204, 204, 204)" stroke-width="1px"></line><line x1="156.18055555555557" y1="0" x2="156.18055555555557" y2="5" style="visibility: inherit;" fill="rgb(0, 0, 0)" stroke="rgb(204, 204, 204)" stroke-width="1px"></line><line x1="187.41666666666666" y1="0" x2="187.41666666666666" y2="5" style="visibility: inherit;" fill="rgb(0, 0, 0)" stroke="rgb(204, 204, 204)" stroke-width="1px"></line><line x1="218.65277777777777" y1="0" x2="218.65277777777777" y2="5" style="visibility: inherit;" fill="rgb(0, 0, 0)" stroke="rgb(204, 204, 204)" stroke-width="1px"></line><line x1="249.88888888888889" y1="0" x2="249.88888888888889" y2="5" style="visibility: inherit;" fill="rgb(0, 0, 0)" stroke="rgb(204, 204, 204)" stroke-width="1px"></line><line x1="281.125" y1="0" x2="281.125" y2="5" style="visibility: inherit;" fill="rgb(0, 0, 0)" stroke="rgb(204, 204, 204)" stroke-width="1px"></line></g><g transform="translate(0, 8)"><text x="0" y="0" dx="0em" dy="0.95em" style="text-anchor: middle; visibility: hidden; font-family: &quot;Helvetica Neue&quot;, sans-serif; font-size: 12px; font-weight: 200;" fill="rgb(50, 49, 63)" stroke="none" stroke-width="1px">-2k</text><text x="31.23611111111111" y="0" dx="0em" dy="0.95em" style="text-anchor: middle; visibility: inherit; font-family: &quot;Helvetica Neue&quot;, sans-serif; font-size: 12px; font-weight: 200;" fill="rgb(50, 49, 63)" stroke="none" stroke-width="1px">0</text><text x="62.47222222222222" y="0" dx="0em" dy="0.95em" style="text-anchor: middle; visibility: inherit; font-family: &quot;Helvetica Neue&quot;, sans-serif; font-size: 12px; font-weight: 200;" fill="rgb(50, 49, 63)" stroke="none" stroke-width="1px">2k</text><text x="93.70833333333333" y="0" dx="0em" dy="0.95em" style="text-anchor: middle; visibility: inherit; font-family: &quot;Helvetica Neue&quot;, sans-serif; font-size: 12px; font-weight: 200;" fill="rgb(50, 49, 63)" stroke="none" stroke-width="1px">4k</text><text x="124.94444444444444" y="0" dx="0em" dy="0.95em" style="text-anchor: middle; visibility: inherit; font-family: &quot;Helvetica Neue&quot;, sans-serif; font-size: 12px; font-weight: 200;" fill="rgb(50, 49, 63)" stroke="none" stroke-width="1px">6k</text><text x="156.18055555555557" y="0" dx="0em" dy="0.95em" style="text-anchor: middle; visibility: inherit; font-family: &quot;Helvetica Neue&quot;, sans-serif; font-size: 12px; font-weight: 200;" fill="rgb(50, 49, 63)" stroke="none" stroke-width="1px">8k</text><text x="187.41666666666666" y="0" dx="0em" dy="0.95em" style="text-anchor: middle; visibility: inherit; font-family: &quot;Helvetica Neue&quot;, sans-serif; font-size: 12px; font-weight: 200;" fill="rgb(50, 49, 63)" stroke="none" stroke-width="1px">10k</text><text x="218.65277777777777" y="0" dx="0em" dy="0.95em" style="text-anchor: middle; visibility: inherit; font-family: &quot;Helvetica Neue&quot;, sans-serif; font-size: 12px; font-weight: 200;" fill="rgb(50, 49, 63)" stroke="none" stroke-width="1px">12k</text><text x="249.88888888888889" y="0" dx="0em" dy="0.95em" style="text-anchor: middle; visibility: inherit; font-family: &quot;Helvetica Neue&quot;, sans-serif; font-size: 12px; font-weight: 200;" fill="rgb(50, 49, 63)" stroke="none" stroke-width="1px">14k</text><text x="281.125" y="0" dx="0em" dy="0.95em" style="text-anchor: middle; visibility: hidden; font-family: &quot;Helvetica Neue&quot;, sans-serif; font-size: 12px; font-weight: 200;" fill="rgb(50, 49, 63)" stroke="none" stroke-width="1px">16k</text></g><line x1="0" y1="0" x2="281.125" y2="0" fill="rgb(0, 0, 0)" stroke="rgb(204, 204, 204)" stroke-width="1px"></line></g></g></g></g></svg>