<svg viewBox="0 0 330 200" xmlns="http://www.w3.org/2000/svg"><g><g><g><g><g><line x1="48.875" y1="177" x2="43.875" y2="177" style="visibility: inherit;" fill="rgb(0, 0, 0)" stroke="rgb(204, 204, 204)" stroke-width="1px"></line><line x1="48.875" y1="165.2" x2="43.875" y2="165.2" style="visibility: inherit;" fill="rgb(0, 0, 0)" stroke="rgb(204, 204, 204)" stroke-width="1px"></line><line x1="48.875" y1="153.39999999999998" x2="43.875" y2="153.39999999999998" style="visibility: inherit;" fill="rgb(0, 0, 0)" stroke="rgb(204, 204, 204)" stroke-width="1px"></line><line x1="48.875" y1="141.59999999999997" x2="43.875" y2="141.59999999999997" style="visibility: inherit;" fill="rgb(0, 0, 0)" stroke="rgb(204, 204, 204)" stroke-width="1px"></line><line x1="48.875" y1="129.79999999999995" x2="43.875" y2="129.79999999999995" style="visibility: inherit;" fill="rgb(0, 0, 0)" stroke="rgb(204, 204, 204)" stroke-width="1px"></line><line x1="48.875" y1="118.00000000000003" x2="43.875" y2="118.00000000000003" style="visibility: inherit;" fill="rgb(0, 0, 0)" stroke="rgb(204, 204, 204)" stroke-width="1px"></line><line x1="48.875" y1="106.20000000000002" x2="43.875" y2="106.20000000000002" style="visibility: inherit;" fill="rgb(0, 0, 0)" stroke="rgb(204, 204, 204)" stroke-width="1px"></line><line x1="48.875" y1="94.4" x2="43.875" y2="94.4" style="visibility: inherit;" fill="rgb(0, 0, 0)" stroke="rgb(204, 204, 204)" stroke-width="1px"></line><line x1="48.875" y1="82.6" x2="43.875" y2="82.6" style="visibility: inherit;" fill="rgb(0, 0, 0)" stroke="rgb(204, 204, 204)" stroke-width="1px"></line><line x1="48.875" y1="70.79999999999998" x2="43.875" y2="70.79999999999998" style="visibility: inherit;" fill="rgb(0, 0, 0)" stroke="rgb(204, 204, 204)" stroke-width="1px"></line><line x1="48.875" y1="58.999999999999986" x2="43.875" y2="58.999999999999986" style="visibility: inherit;" fill="rgb(0, 0, 0)" stroke="rgb(204, 204, 204)" stroke-width="1px"></line><line x1="48.875" y1="47.20000000000002" x2="43.875" y2="47.20000000000002" style="visibility: inherit;" fill="rgb(0, 0, 0)" stroke="rgb(204, 204, 204)" stroke-width="1px"></line><line x1="48.875" y1="35.400000000000034" x2="43.875" y2="35.400000000000034" style="visibility: inherit;" fill="rgb(0, 0, 0)" stroke="rgb(204, 204, 204)" stroke-width="1px"></line><line x1="48.875" y1="23.600000000000023" x2="43.875" y2="23.600000000000023" style="visibility: inherit;" fill="rgb(0, 0, 0)" stroke="rgb(204, 204, 204)" stroke-width="1px"></line><line x1="48.875" y1="11.800000000000011" x2="43.875" y2="11.800000000000011" style="visibility: inherit;" fill="rgb(0, 0, 0)" stroke="rgb(204, 204, 204)" stroke-width="1px"></line><line x1="48.875" y1="0" x2="43.875" y2="0" style="visibility: inherit;" fill="rgb(0, 0, 0)" stroke="rgb(204, 204, 204)" stroke-width="1px"></line></g><g transform="translate(38.875, 0)"><text x="0" y="177" dx="0em" dy="0.3em" style="text-anchor: end; visibility: hidden; font-family: &quot;Helvetica Neue&quot;, sans-serif; font-size: 12px; font-weight: 200;" fill="rgb(50, 49, 63)" stroke="none" stroke-width="1px">0.48</text><text x="0" y="165.2" dx="0em" dy="0.3em" style="text-anchor: end; visibility: inherit; font-family: &quot;Helvetica Neue&quot;, sans-serif; font-size: 12px; font-weight: 200;" fill="rgb(50, 49, 63)" stroke="none" stroke-width="1px">0.5</text><text x="0" y="153.39999999999998" dx="0em" dy="0.3em" style="text-anchor: end; visibility: hidden; font-family: &quot;Helvetica Neue&quot;, sans-serif; font-size: 12px; font-weight: 200;" fill="rgb(50, 49, 63)" stroke="none" stroke-width="1px">0.52</text><text x="0" y="141.59999999999997" dx="0em" dy="0.3em" style="text-anchor: end; visibility: hidden; font-family: &quot;Helvetica Neue&quot;, sans-serif; font-size: 12px; font-weight: 200;" fill="rgb(50, 49, 63)" stroke="none" stroke-width="1px">0.54</text><text x="0" y="129.79999999999995" dx="0em" dy="0.3em" style="text-anchor: end; visibility: inherit; font-family: &quot;Helvetica Neue&quot;, sans-serif; font-size: 12px; font-weight: 200;" fill="rgb(50, 49, 63)" stroke="none" stroke-width="1px">0.56</text><text x="0" y="118.00000000000003" dx="0em" dy="0.3em" style="text-anchor: end; visibility: hidden; font-family: &quot;Helvetica Neue&quot;, sans-serif; font-size: 12px; font-weight: 200;" fill="rgb(50, 49, 63)" stroke="none" stroke-width="1px">0.58</text><text x="0" y="106.20000000000002" dx="0em" dy="0.3em" style="text-anchor: end; visibility: hidden; font-family: &quot;Helvetica Neue&quot;, sans-serif; font-size: 12px; font-weight: 200;" fill="rgb(50, 49, 63)" stroke="none" stroke-width="1px">0.6</text><text x="0" y="94.4" dx="0em" dy="0.3em" style="text-anchor: end; visibility: inherit; font-family: &quot;Helvetica Neue&quot;, sans-serif; font-size: 12px; font-weight: 200;" fill="rgb(50, 49, 63)" stroke="none" stroke-width="1px">0.62</text><text x="0" y="82.6" dx="0em" dy="0.3em" style="text-anchor: end; visibility: hidden; font-family: &quot;Helvetica Neue&quot;, sans-serif; font-size: 12px; font-weight: 200;" fill="rgb(50, 49, 63)" stroke="none" stroke-width="1px">0.64</text><text x="0" y="70.79999999999998" dx="0em" dy="0.3em" style="text-anchor: end; visibility: hidden; font-family: &quot;Helvetica Neue&quot;, sans-serif; font-size: 12px; font-weight: 200;" fill="rgb(50, 49, 63)" stroke="none" stroke-width="1px">0.66</text><text x="0" y="58.999999999999986" dx="0em" dy="0.3em" style="text-anchor: end; visibility: inherit; font-family: &quot;Helvetica Neue&quot;, sans-serif; font-size: 12px; font-weight: 200;" fill="rgb(50, 49, 63)" stroke="none" stroke-width="1px">0.68</text><text x="0" y="47.20000000000002" dx="0em" dy="0.3em" style="text-anchor: end; visibility: hidden; font-family: &quot;Helvetica Neue&quot;, sans-serif; font-size: 12px; font-weight: 200;" fill="rgb(50, 49, 63)" stroke="none" stroke-width="1px">0.7</text><text x="0" y="35.400000000000034" dx="0em" dy="0.3em" style="text-anchor: end; visibility: hidden; font-family: &quot;Helvetica Neue&quot;, sans-serif; font-size: 12px; font-weight: 200;" fill="rgb(50, 49, 63)" stroke="none" stroke-width="1px">0.72</text><text x="0" y="23.600000000000023" dx="0em" dy="0.3em" style="text-anchor: end; visibility: inherit; font-family: &quot;Helvetica Neue&quot;, sans-serif; font-size: 12px; font-weight: 200;" fill="rgb(50, 49, 63)" stroke="none" stroke-width="1px">0.74</text><text x="0" y="11.800000000000011" dx="0em" dy="0.3em" style="text-anchor: end; visibility: hidden; font-family: &quot;Helvetica Neue&quot;, sans-serif; font-size: 12px; font-weight: 200;" fill="rgb(50, 49, 63)" stroke="none" stroke-width="1px">0.76</text><text x="0" y="0" dx="0em" dy="0.3em" style="text-anchor: end; visibility: hidden; font-family: &quot;Helvetica Neue&quot;, sans-serif; font-size: 12px; font-weight: 200;" fill="rgb(50, 49, 63)" stroke="none" stroke-width="1px">0.78</text></g><line x1="48.875" y1="0" x2="48.875" y2="177" fill="rgb(0, 0, 0)" stroke="rgb(204, 204, 204)" stroke-width="1px"></line></g></g><g transform="translate(48, 0)" clip-path="url(#clip_0)"><clipPath id="clip_0"><rect width="281" height="177"></rect></clipPath><g><g><g><line x1="0" y1="0" x2="0" y2="177" fill="rgb(0, 0, 0)" stroke="rgb(60, 60, 60)" stroke-width="1px" opacity="0.25"></line><line x1="31.23611111111111" y1="0" x2="31.23611111111111" y2="177" fill="rgb(0, 0, 0)" stroke="rgb(60, 60, 60)" stroke-width="1px" opacity="0.25"></line><line x1="62.47222222222222" y1="0" x2="62.47222222222222" y2="177" fill="rgb(0, 0, 0)" stroke="rgb(60, 60, 60)" stroke-width="1px" opacity="0.25"></line><line x1="93.70833333333333" y1="0" x2="93.70833333333333" y2="177" fill="rgb(0, 0, 0)" stroke="rgb(60, 60, 60)" stroke-width="1px" opacity="0.25"></line><line x1="124.94444444444444" y1="0" x2="124.94444444444444" y2="177" fill="rgb(0, 0, 0)" stroke="rgb(60, 60, 60)" stroke-width="1px" opacity="0.25"></line><line x1="156.18055555555557" y1="0" x2="156.18055555555557" y2="177" fill="rgb(0, 0, 0)" stroke="rgb(60, 60, 60)" stroke-width="1px" opacity="0.25"></line><line x1="187.41666666666666" y1="0" x2="187.41666666666666" y2="177" fill="rgb(0, 0, 0)" stroke="rgb(60, 60, 60)" stroke-width="1px" opacity="0.25"></line><line x1="218.65277777777777" y1="0" x2="218.65277777777777" y2="177" fill="rgb(0, 0, 0)" stroke="rgb(60, 60, 60)" stroke-width="1px" opacity="0.25"></line><line x1="249.88888888888889" y1="0" x2="249.88888888888889" y2="177" fill="rgb(0, 0, 0)" stroke="rgb(60, 60, 60)" stroke-width="1px" opacity="0.25"></line><line x1="281.125" y1="0" x2="281.125" y2="177" fill="rgb(0, 0, 0)" stroke="rgb(60, 60, 60)" stroke-width="1px" opacity="0.25"></line></g><g><line x1="0" y1="177" x2="281.125" y2="177" fill="rgb(0, 0, 0)" stroke="rgb(60, 60, 60)" stroke-width="1px" opacity="0.25"></line><line x1="0" y1="165.2" x2="281.125" y2="165.2" fill="rgb(0, 0, 0)" stroke="rgb(60, 60, 60)" stroke-width="1px" opacity="0.25"></line><line x1="0" y1="153.39999999999998" x2="281.125" y2="153.39999999999998" fill="rgb(0, 0, 0)" stroke="rgb(60, 60, 60)" stroke-width="1px" opacity="0.25"></line><line x1="0" y1="141.59999999999997" x2="281.125" y2="141.59999999999997" fill="rgb(0, 0, 0)" stroke="rgb(60, 60, 60)" stroke-width="1px" opacity="0.25"></line><line x1="0" y1="129.79999999999995" x2="281.125" y2="129.79999999999995" fill="rgb(0, 0, 0)" stroke="rgb(60, 60, 60)" stroke-width="1px" opacity="0.25"></line><line x1="0" y1="118.00000000000003" x2="281.125" y2="118.00000000000003" fill="rgb(0, 0, 0)" stroke="rgb(60, 60, 60)" stroke-width="1px" opacity="0.25"></line><line x1="0" y1="106.20000000000002" x2="281.125" y2="106.20000000000002" fill="rgb(0, 0, 0)" stroke="rgb(60, 60, 60)" stroke-width="1px" opacity="0.25"></line><line x1="0" y1="94.4" x2="281.125" y2="94.4" fill="rgb(0, 0, 0)" stroke="rgb(60, 60, 60)" stroke-width="1px" opacity="0.25"></line><line x1="0" y1="82.6" x2="281.125" y2="82.6" fill="rgb(0, 0, 0)" stroke="rgb(60, 60, 60)" stroke-width="1px" opacity="0.25"></line><line x1="0" y1="70.79999999999998" x2="281.125" y2="70.79999999999998" fill="rgb(0, 0, 0)" stroke="rgb(60, 60, 60)" stroke-width="1px" opacity="0.25"></line><line x1="0" y1="58.999999999999986" x2="281.125" y2="58.999999999999986" fill="rgb(0, 0, 0)" stroke="rgb(60, 60, 60)" stroke-width="1px" opacity="0.25"></line><line x1="0" y1="47.20000000000002" x2="281.125" y2="47.20000000000002" fill="rgb(0, 0, 0)" stroke="rgb(60, 60, 60)" stroke-width="1px" opacity="0.25"></line><line x1="0" y1="35.400000000000034" x2="281.125" y2="35.400000000000034" fill="rgb(0, 0, 0)" stroke="rgb(60, 60, 60)" stroke-width="1px" opacity="0.25"></line><line x1="0" y1="23.600000000000023" x2="281.125" y2="23.600000000000023" fill="rgb(0, 0, 0)" stroke="rgb(60, 60, 60)" stroke-width="1px" opacity="0.25"></line><line x1="0" y1="11.800000000000011" x2="281.125" y2="11.800000000000011" fill="rgb(0, 0, 0)" stroke="rgb(60, 60, 60)" stroke-width="1px" opacity="0.25"></line><line x1="0" y1="0" x2="281.125" y2="0" fill="rgb(0, 0, 0)" stroke="rgb(60, 60, 60)" stroke-width="1px" opacity="0.25"></line></g></g></g><g><g><line x1="0" y1="460.19999999999993" x2="281.125" y2="460.19999999999993" fill="rgb(0, 0, 0)" stroke="rgb(153, 153, 153)" stroke-width="1.5px"></line></g></g><g><g><line x1="31.23611111111111" y1="0" x2="31.23611111111111" y2="177" fill="rgb(0, 0, 0)" stroke="rgb(153, 153, 153)" stroke-width="1.5px"></line></g></g><g><g><g><g><g><path stroke="rgb(204, 51, 17)" stroke-width="2px" d="M36.624340277777776,181.89829276992702L36.85861111111112,173.65026290170943L36.93670138888889,189.9907514925351L37.01479166666666,179.0910875119088L37.09288194444444,167.0118486227519L37.483333333333334,179.4216462203574L38.6546875,200.65755215139484L39.27940972222222,171.8556431453989L39.51368055555555,136.57949481602788L39.591770833333335,146.2576990397735L40.13840277777778,145.57461321494662L40.37267361111111,133.46309899098037L40.52885416666667,149.41221785072022L41.153576388888894,149.63066985935183L41.38784722222222,167.49450668489243L41.465937499999995,154.3342051069511L42.168749999999996,156.05829396720165L42.324930555555554,147.58719140610424L42.403020833333336,152.86231653420467L42.48111111111111,156.67357343144997L43.027743055555554,153.93830603616405L43.418194444444445,150.18299149865794L43.574374999999996,143.12784063888233L43.65246527777777,147.728368049273L43.96482638888889,149.50535209982158L44.35527777777777,135.62487605081316L44.433368055555555,137.46472987931259L44.66763888888889,136.59494403720245L45.136180555555555,134.40141449284118L45.21427083333333,138.29695142932354L45.37045138888889,143.91205293195608L45.60472222222222,149.82140442763435L45.76090277777777,128.34115310808005L45.838993055555555,134.3330265110743L45.99517361111111,137.960911888243L46.151354166666664,117.18384744307896L46.22944444444445,118.1330872439236L46.77607638888889,119.91540540116382L47.40079861111111,140.66785300765878L47.47888888888889,146.77681003686465L47.556979166666665,154.53941194699212L47.86934027777778,140.04539836219553L48.650243055555556,133.76750541670077L48.72833333333333,139.01466635312408L48.88451388888889,141.35990929750068L49.196875,131.5242762860505L49.43114583333334,125.13122324805538L49.50923611111111,106.90594898141077L49.58732638888889,124.42190122173218L49.82159722222222,135.5214720032572L50.75868055555556,141.03397693288085L51.227222222222224,149.749829166244L51.46149305555556,129.74045224255957L51.617673611111115,133.56648469010975L51.695763888888884,116.06434057259551L51.85194444444444,124.93470932784078L52.16430555555556,151.56248926247596L52.47666666666667,149.59333045438194L52.632847222222225,147.73988316032444L53.023298611111116,137.84337402804593L54.1165625,111.25547417535716L54.50701388888889,85.7456661542317L54.58510416666666,90.48572364807488L54.897465277777776,107.55532357788297L54.97555555555556,141.0365245729459L55.28791666666666,135.06690855442122L55.36600694444444,139.74513106595654L55.5221875,138.45250884205805L55.756458333333335,149.6431644696636L56.14690972222222,152.81756122223396L56.225,137.87441880769643L56.30309027777778,132.38299324552486L56.69354166666667,127.19169406438034L56.771631944444444,133.54501081194974L56.84972222222222,144.30589250020088L57.08399305555555,168.88853409345091L57.78680555555555,146.46811933073485L57.94298611111111,139.04698052139932L58.41152777777778,159.43985254127892L58.880069444444445,155.35224392032097L58.95815972222222,150.60523180255575L59.42670138888889,161.11397851043506L59.66097222222223,140.54143453439212L59.973333333333336,158.51736353397445L60.285694444444445,162.40319239711803L60.441874999999996,145.9858093286517L60.75423611111111,147.18147771984118L60.83232638888889,170.51555198567974L60.91041666666667,154.59222325645604L61.06659722222223,150.00171602822968L61.45704861111111,149.98436876450558L61.847500000000004,155.70772863098728L61.92559027777777,153.16213267724953L62.003680555555555,133.19728917170312L63.17503472222222,112.95836281233281L63.721666666666664,118.12167122514991L64.19020833333333,138.65745024294822L64.2682986111111,138.9166834903429L64.42447916666666,118.60250784353437L64.58065972222222,117.08316949722779L64.89302083333334,133.10128546069632L65.59583333333333,124.0592657870684L65.7520138888889,114.16222313801251L65.83010416666667,107.07677407598379L66.064375,109.08605656824044L66.53291666666667,111.07829198003728L67.1576388888889,105.91475509143423L67.23572916666667,118.45162508092255L67.47,98.01430350543221L67.54809027777777,100.60023676634528L68.25090277777778,91.22042646456183L68.32899305555556,105.76257898359546L69.18798611111112,128.58699039667275L69.42225694444444,137.22450523882765L69.50034722222223,128.0082032806257L69.65652777777778,119.3504812125313L69.81270833333333,105.17474073671984L70.90597222222223,110.59984106602484L71.29642361111111,93.89323253382572L71.45260416666666,97.50481934398013L71.686875,102.37593903451918L71.84305555555555,97.54666559165574L72.23350694444444,103.35862305799634L72.31159722222223,94.8912720670671L72.78013888888889,96.95641959132973L72.93631944444444,86.52662096752063L73.01440972222223,94.953190989097L73.17059027777778,90.07746877360344L73.24868055555555,111.89926454358101L73.48295138888889,118.86289168437006L73.63913194444444,131.3010741581898L74.02958333333332,124.34175172986869L74.10767361111111,120.36282475198674L74.81048611111112,100.48852555874207L74.96666666666667,98.21700528695115L75.27902777777778,105.34352712770655L75.35711805555556,114.51972857558937L75.43520833333332,100.76850812580713L75.74756944444444,110.97166355697229L76.05993055555555,122.37779563097904L76.13802083333333,110.39064191716163L76.37229166666667,109.81712410293369L76.52847222222222,72.67996598626584L76.60656250000001,91.66018618431931L76.68465277777779,101.60611621193438L76.76274305555556,90.4472747114441L76.84083333333332,83.60448050183903L76.91892361111113,91.44629609872614L77.07510416666666,88.66167154961653L77.15319444444444,83.54922640236516L77.54364583333333,92.64230561680976L77.6217361111111,81.6764951063834L77.93409722222222,76.73589143715157L78.16836805555556,97.3223717591873L78.3245486111111,98.71710544000332L78.79309027777778,96.40024863463795L78.94927083333333,105.48264918078277L79.33972222222222,115.06209963649094L79.65208333333334,108.43614129358279L79.73017361111111,115.08058429320901L79.88635416666666,90.20639856672436L80.8234375,99.06215746889207L81.37006944444444,93.95228941732465L81.44815972222221,86.28110106166488L81.60434027777778,72.58253877268008L81.68243055555556,72.00063274923431L81.76052083333333,64.73538696422261L81.8386111111111,86.71318812640956L81.99479166666667,112.37180957956585L82.2290625,93.38308180906459L82.54142361111111,108.14651500188165L82.61951388888889,89.40568890454084L82.93187499999999,81.74801790166923L83.16614583333333,97.5599151626171L83.47850694444445,82.69317144482979L83.71277777777777,80.7220168538669L83.79086805555556,75.9665520732271L83.86895833333334,77.7021530285279L83.94704861111111,91.58304526178834L84.02513888888889,81.40149644952294L84.18131944444445,98.89255872214596L84.25940972222222,87.09831907537439L84.33749999999999,92.88703493468084L84.57177083333333,91.93526163692542L84.64986111111111,92.2492038476185L84.72795138888888,101.8049900858233L84.88413194444445,117.40224018148359L85.0403125,106.56246034653053L85.11840277777777,94.87968505114954L85.66503472222223,84.6109914391675L85.89930555555556,75.10173278388015L86.21166666666666,97.81686812720675L86.4459375,103.28428341675985L86.60211805555556,97.6000130565714L86.75829861111112,77.88952598999448L87.07065972222223,69.25205530423229L87.38302083333333,89.47233816682281L87.61729166666666,80.90533634125583L87.69538194444445,92.48883338510625L87.77347222222222,92.30272784554745L87.8515625,71.57384555055962L88.32010416666667,95.83125146218697L88.78864583333333,91.4401481437001L88.94482638888888,94.19741959377014L89.02291666666666,100.21122040631703L89.33527777777778,86.62755057264766L89.56954861111112,82.03374706416966L89.64763888888889,71.11581310933614L89.88190972222223,92.26928423706167L89.96000000000001,101.69997527398748L90.03809027777777,103.79498628972819L90.19427083333333,120.71976042389187L90.35045138888889,96.38302963614056L90.81899305555555,91.11565073990583L91.05326388888889,83.64493449606749L91.13135416666667,84.91267474221141L91.36562500000001,96.44316127614348L91.44371527777778,102.50923647592167L91.52180555555555,110.85014025515139L91.67798611111111,108.16595299807682L91.75607638888889,86.58908770422634L92.22461805555555,102.51316034043128L92.53697916666667,119.68844757106478L92.61506944444444,86.84168027893652L92.77125000000001,93.0584987393376L92.92743055555556,79.95953212209679L93.08361111111111,68.56016959445556L93.16170138888889,69.78386365471408L93.23979166666666,78.30983409820871L93.31788194444444,77.3053344627552L93.39597222222221,64.36180960061152L93.63024305555555,69.78875055147408L93.78642361111112,76.15880338569403L93.94260416666667,79.52195132386633L94.17687500000001,78.85206018335785L94.33305555555556,85.12039808778265L94.41114583333332,67.73973322599109L94.48923611111113,70.32411139898876L94.95777777777778,59.35362037714346L95.03586805555555,66.45606893000611L95.1920486111111,87.95863741932872L95.42631944444445,78.33249120174983L95.73868055555556,73.63144279157602L95.97295138888889,86.60968287846728L96.20722222222221,72.80310891187962L96.2853125,90.75075361083015L96.44149305555555,104.85330215543546L96.5976736111111,73.20420982986712L96.75385416666667,74.16002139657748L97.14430555555556,82.51822899585967L97.3785763888889,82.2067709184051L97.53475694444444,80.52850274421935L98.70611111111111,65.85320044146876L99.01847222222221,60.48970354430021L99.17465277777778,55.17381087322316L99.25274305555556,46.73984520542197L99.56510416666667,76.4941449505542L99.72128472222222,74.20009307995167L99.799375,92.43180647930338L100.03364583333334,88.54825036669273L100.18982638888889,101.0828446730643L100.34600694444444,92.09997657922925L100.58027777777777,100.59163723461637L100.73645833333333,64.87830404563432L100.8145486111111,62.854762893460304L100.97072916666667,64.41035661074048L101.28309027777777,65.61998275382832L101.59545138888889,77.82733345188808L102.14208333333333,73.09889219378299L102.22017361111111,81.49525186404506L102.29826388888888,101.2432589160497L102.37635416666667,99.25983067197171L102.53253472222222,97.7747951069031L102.76680555555556,95.08098598710018L102.84489583333334,95.07080775017329L102.92298611111111,93.58970924803486L103.15725694444446,88.19410882823986L103.23534722222223,84.87479600449397L103.31343749999999,100.91097358429427L103.39152777777777,90.27603278377056L104.01625,74.6845051206255L104.09434027777777,87.37966929895303L104.32861111111112,105.79001717461716L104.87524305555554,95.56344262059667L105.10951388888888,102.09378411827173L105.73423611111112,126.31078018699698L105.81232638888889,106.43368427011141L105.96850694444446,97.99826024086933L106.04659722222223,89.62646514720716L106.12468750000001,93.30587627498504L106.35895833333333,101.18875965361713L106.43704861111111,83.7560300689037L106.59322916666666,92.9958437646088L106.74940972222223,90.64026928214174L107.13986111111112,102.30526655356852L107.21795138888889,85.50760687733154L107.53031250000001,82.67288132992067L107.60840277777777,87.00317011646435L107.68649305555554,76.1530895183802L107.76458333333333,70.40628602685454L107.99885416666666,80.26365270246221L108.07694444444444,60.64652683037015L108.15503472222223,62.64290484486514L108.38930555555555,44.97478822170791L108.46739583333333,85.00153322278916L109.09211805555555,95.33286519086045L109.40447916666666,92.2391626836996L109.56065972222223,91.54653828633676L109.71684027777778,85.0343027954867L109.79493055555555,76.22670129093945L110.0292013888889,72.17128829928292L110.26347222222223,72.13082772238288L110.34156250000001,86.15182396497272L110.41965277777778,99.08775073007311L110.49774305555556,71.48910709926825L110.73201388888889,62.232350835259766L111.35673611111112,80.14718702856064L111.51291666666667,89.87999501361463L111.66909722222222,59.024944516027034L111.82527777777779,60.293304169180416L111.90336805555556,70.0190254282966L112.13763888888889,55.302790016652054L112.29381944444444,75.17000921888408L112.45,75.79839885904347L112.8404513888889,92.72820635720463L113.38708333333334,85.13691649964076L113.4651736111111,78.09806250888484L113.69944444444444,78.62050173377023L113.855625,94.97869211730377L114.32416666666667,77.93220908103598L114.40225694444445,79.11098911439306L114.5584375,65.01909403130368L114.71461805555556,57.00645304277509L115.02697916666666,69.59450453135355L115.33934027777778,62.65253342636217L115.49552083333333,89.67541057019103L115.88597222222222,66.16246587603491L115.9640625,58.41359126191858L116.04215277777779,77.54220175994355L116.58878472222221,77.27087748678275L116.66687499999999,68.02864948172414L117.13541666666667,78.11830480133916L117.44777777777779,70.11043770334376L117.52586805555556,68.22292516244205L117.60395833333334,80.6323135042951L118.30677083333333,86.07383617310316L118.46295138888888,67.21374977438799L118.69722222222222,71.53269005780908L119.16576388888889,60.65237930873327L119.24385416666668,64.08863248979623L119.55621527777777,78.04872748467669L119.79048611111111,62.64451414354656L119.86857638888888,48.46892239336972L119.94666666666667,45.3063517480183L120.1809375,37.4924272864514L121.03993055555556,58.96774767932021L121.27420138888888,64.87128693995905L121.50847222222222,46.68172938786768L121.5865625,68.71904776074182L121.66465277777777,78.54893146978428L121.89892361111112,72.89267439738877L121.97701388888889,67.843649815893L122.05510416666667,56.81647429429047L123.22645833333334,41.46487726189224L123.46072916666667,62.73725143800691L123.61690972222223,58.42111852485249L123.69500000000001,59.34099507044738L123.85118055555554,75.13458016223305L123.92927083333333,73.46630677882786L124.16354166666666,70.99502133192992L124.3978125,78.4886730889223L124.47590277777778,74.04356565831554L124.63208333333334,47.57280981277495L124.78826388888889,59.58424907049583L124.94444444444444,80.85277291489268L125.10062500000001,67.75221005173101L125.33489583333333,66.25077860290753L125.49107638888889,72.88879674395889L125.64725694444444,80.77216180873496L125.8034375,86.51595357365957L125.95961805555555,76.0738137728426L126.11579861111112,76.34066752472239L126.89670138888889,56.75217929290963L127.2090625,69.74631545309559L127.52142361111112,74.11750036575997L127.5995138888889,80.75550753413802L127.67760416666667,76.1013603886316L127.83378472222223,68.35943472149074L128.06805555555556,92.476776507867L128.3023263888889,76.0868898602561L128.45850694444445,55.239635041489336L128.6927777777778,86.37489501186262L129.16131944444444,80.78409335820703L129.3175,80.00267836218372L129.47368055555555,90.6127029989081L129.55177083333334,87.47317597949012L129.78604166666668,81.42667423774898L129.86413194444444,91.20488324099838L129.94222222222223,72.99654561957155L130.17649305555557,59.0559809892204L130.80121527777777,65.87476985268755L131.19166666666666,71.6306819284735L131.3478472222222,90.36571115522254L131.8163888888889,79.6221987191955L132.12875,73.14331585551022L132.2068402777778,61.4876531790776L132.28493055555555,59.00121095842616L132.36302083333334,50.8858588687569L132.8315625,35.85790471029219L133.06583333333333,53.47307353372531L133.61246527777777,59.65696669790243L133.76864583333332,49.085554778415556L134.00291666666666,54.362431661986435L134.08100694444445,79.27661253494207L134.3152777777778,65.83956912924168L134.39336805555556,70.57706599574873L134.78381944444445,76.95957480634202L134.8619097222222,85.23045654037563L134.94,80.98243646466113L135.17427083333334,92.31500593092072L135.40854166666668,88.16678965131061L135.48663194444444,94.21645699047811L135.56472222222223,79.16994709315159L135.6428125,77.61536736096299L135.72090277777778,84.91921872857421L136.18944444444446,81.79541387416846L136.65798611111111,70.31724888716893L137.12652777777777,61.749309369532824L137.4388888888889,56.58513867652928L137.59506944444445,81.05274687168901L137.98552083333334,66.69219555114448L138.29788194444444,66.95864578756533L138.84451388888888,70.65852662010688L139.00069444444446,76.2873360686523L139.23496527777777,73.01073685008419L139.39114583333333,70.798947736729L139.46923611111112,66.20110014266304L139.70350694444446,65.77898235313019L139.78159722222222,40.77849664683296L139.93777777777777,57.70376784321762L140.01586805555556,75.91288778494061L140.2501388888889,69.10560122794067L141.57767361111112,65.90622141639086L141.6557638888889,84.74428252863696L141.73385416666667,69.0710220890511L141.81194444444446,80.76656147463736L142.12430555555554,57.63770328416601L142.35857638888888,65.88538836988316L142.67093749999998,62.803435113146946L142.74902777777777,76.65483421928586L142.82711805555556,40.633735177796495L143.13947916666666,54.470233229328L143.21756944444445,56.4460293266349L143.2956597222222,65.08844549019177L143.4518402777778,64.2755746087971L143.60802083333334,37.6803453279461L143.7642013888889,56.64791660266671L143.92038194444444,70.56874996159999L144.54510416666668,88.45959531387409L144.93555555555554,68.54686498594712L145.01364583333336,62.63033683748499L145.71645833333332,75.10875909597554L145.7945486111111,78.67887056989002L146.65354166666665,92.47342282487466L147.04399305555557,105.56850401612232L147.2782638888889,92.02166784317558L147.35635416666668,99.20779538936173L147.59062500000002,88.79522803775522L147.74680555555557,72.91103015036613L147.82489583333336,46.02467001969356L148.44961805555553,49.051454986898506L148.52770833333332,59.5044774137547L148.6057986111111,58.71971867100059L148.68388888888887,72.92627927312648L148.9181597222222,72.06639295488237L149.07434027777776,52.024297347483895L149.15243055555555,44.07984480787388L149.23052083333334,64.10957955318135L149.85524305555555,55.01851413129235L150.24569444444447,71.1808420793919L150.32378472222223,48.674057177109034L150.55805555555557,42.971094596029815L151.10468749999998,74.8837746832618L151.26086805555553,70.07080548607405L152.04177083333335,57.24902466775835L152.43222222222224,34.39858465577282L152.5103125,41.682470810324645L152.66649305555555,62.08114165062351L152.74458333333334,61.75007719275142L153.21312500000002,62.715049691657924L153.29121527777778,55.75514211396025L153.75975694444446,66.65697972142488L153.83784722222225,68.51084812261935L154.54065972222222,48.71094344006943L154.85302083333332,67.10129291264393L155.0092013888889,58.993261118222335L155.3215625,65.97760795801226L156.02437500000002,61.023231816585934L156.18055555555557,49.46283185499672L156.4148263888889,51.22908006201844L156.57100694444446,66.72744859987894L156.6490972222222,84.07340766510008L157.0395486111111,72.94598254156497L157.27381944444443,69.79315045709843L157.66427083333332,54.46255168935916L157.8204513888889,62.95483526242529L158.1328125,51.8017646637723L158.28899305555555,47.2077168373564L158.36708333333334,45.33629433085318L158.4451736111111,61.55288045745972L158.60135416666668,63.91486548150708L158.75753472222223,54.7378086779423L159.14798611111112,62.923308909768295L159.38225694444446,66.49073316385415L159.53843750000001,86.79943708497328L159.77270833333333,69.30439472626476L160.00697916666667,54.20207365292808L160.31934027777777,41.02707264863554L160.5536111111111,53.42791063095987L160.8659722222222,53.18903824869312L160.9440625,22.899547064206047L161.0221527777778,21.803046567381017L161.56878472222223,41.27069200941358L161.72496527777778,56.154153458287894L161.88114583333333,65.63444914818439L162.11541666666668,74.35456225395576L162.19350694444447,48.225324880602244L162.6620486111111,46.44555166931286L162.74013888888888,51.50010471565331L163.05249999999998,52.6644979585577L163.3648611111111,58.755095478854685L163.59913194444445,57.6074918538106L163.6772222222222,54.39505491911008L163.7553125,48.92759613429689L163.83340277777776,40.1896084847163L163.98958333333334,41.83485500705905L164.22385416666665,55.125354322747356L164.77048611111113,54.32926578578714L164.8485763888889,70.88200697933054L165.23902777777778,68.70225442906866L165.39520833333336,56.102461017731784L165.4732986111111,75.25647886131044L165.55138888888888,40.4994353075852L166.25420138888887,32.8874422132987L166.5665625,41.4149619519722L166.64465277777776,19.57175032258104L166.72274305555555,34.06470935797728L166.80083333333334,50.168260181284126L166.9570138888889,73.31845329543123L167.3474652777778,73.34357535326588L167.42555555555555,84.04186825921599L167.58173611111113,74.73686596018351L167.6598263888889,74.57155414260788L167.73791666666668,71.80098891638137L167.97218750000002,51.078374941244235L168.12836805555557,60.99923437064555L168.20645833333336,64.21480702177091L168.28454861111112,66.08563315639141L168.9873611111111,73.77305593829897L169.22163194444443,34.716140625128475L169.92444444444445,57.80301733329851L170.39298611111113,38.860962249725844L170.4710763888889,58.01185106390108L170.93961805555557,67.61765806647173L171.01770833333333,55.75139416201132L171.09579861111112,58.39471069421296L171.25197916666664,66.01182472852425L171.72052083333332,64.38709202377535L172.1890625,61.99342915873851L172.26715277777777,45.505233539707234L172.891875,37.52980378959583L172.9699652777778,40.700191023910065L173.20423611111113,54.51010673699615L173.43850694444444,59.64939249907637L173.75086805555557,70.15714112612427L173.90704861111112,52.71428129966749L174.2194097222222,59.110384432647834L174.68795138888888,50.54165636073007L175.0003125,66.16749100309876L175.07840277777777,84.9010442806617L175.3126736111111,57.856735491355394L175.46885416666666,37.991813320875195L175.703125,45.795718447542214L176.0154861111111,45.561399545774435L176.17166666666668,45.82350958258249L176.32784722222223,77.18522311252559L176.4059375,99.90280541063666L176.48402777777778,64.85835197616412L177.03065972222223,70.82417879014491L177.1868402777778,64.67569641059211L177.26493055555554,68.82985916486722L177.73347222222222,35.36513840884771L177.81156249999998,23.579073479955213L177.88965277777777,66.9032725448518L178.04583333333332,79.14751208037785L178.20201388888887,79.29933457976973L179.13909722222223,71.85153700236317L179.84190972222223,69.12008136584666L180.15427083333336,54.64870967194028L180.54472222222222,48.04727942064159L180.62281249999998,50.75669385859223L181.01326388888887,55.75846213501008L181.09135416666666,56.18412203312704L181.16944444444445,67.82276677799692L181.48180555555555,92.86650836773198L181.55989583333334,117.47324248020342L182.0284375,113.99644942679699L182.34079861111113,98.68452825783908L182.4188888888889,112.58932025098333L182.49697916666668,92.30082800187782L182.65315972222223,96.61492742894957L182.73125000000002,93.5234802400998L183.12170138888888,110.37536255812238L183.35597222222222,100.83855274376626L183.51215277777777,80.59590873633239L183.7464236111111,77.20198768564711L183.98069444444445,74.54284614913846L184.21496527777776,70.9057772123408L184.37114583333334,72.48362000248385L184.8396875,70.95794909156295L184.9177777777778,89.15198448751525L185.07395833333334,70.63397059592106L185.2301388888889,64.01370181174573L185.9329513888889,67.30884591538609L186.01104166666664,59.57670481561959L186.08913194444443,58.83797433590496L186.16722222222222,80.8966672385669L187.2604861111111,45.66056592732289L187.57284722222224,32.78593061131008L187.88520833333334,37.78128296471698L187.96329861111113,35.43572403870266L188.19756944444444,57.01262468506246L188.27565972222223,55.12447742944569L188.50993055555557,79.27497029975424L188.66611111111112,94.41848119184597L188.82229166666664,78.4717202954604L189.21274305555553,77.21049797851526L189.44701388888888,70.02462330531291L189.60319444444443,81.51199576777941L189.68128472222222,65.9844124932452L189.83746527777777,62.64980947371512L190.0717361111111,54.04432587740533L190.30600694444445,42.93186417649815L190.4621875,45.44217493671556L190.69645833333334,35.98420166574948L190.93072916666668,55.80115483047385L191.00881944444444,52.55736219073427L191.24309027777778,57.29776096335114L191.47736111111112,52.8653264331285L192.10208333333333,43.601143930403225L192.1801736111111,39.59959262731539L192.33635416666667,40.607528727786956L192.72680555555556,30.49397430988384L193.11725694444445,57.269157737328044L193.1953472222222,91.4276120053729L193.2734375,84.58600176972148L193.42961805555555,66.3865999364972L193.50770833333334,78.08129699612377L193.6638888888889,61.940605666546375L193.82006944444444,76.97297963756817L194.05434027777778,67.21072009836732L194.13243055555557,63.04143824836666L194.44479166666667,75.96179301417503L194.83524305555554,67.1940216283598L194.9914236111111,71.53725493792287L195.45996527777777,62.3080675699925L195.53805555555556,40.62983716598836L195.61614583333332,41.97019754571727L195.6942361111111,52.62177629186513L195.77232638888887,68.13666400738832L196.0065972222222,40.505045832564065L196.1627777777778,41.56756872497175L196.3970486111111,28.51332001305923L196.4751388888889,46.870216043098594L196.70940972222223,49.57518436867227L196.86559027777778,52.57250971292399L197.02177083333333,65.92738508877125L197.09986111111112,58.10863764582254L197.17795138888889,52.58156016050681L197.49031250000002,57.41059188472566L197.8026736111111,48.22004876868331L197.88076388888888,51.4175795026803L197.95885416666667,59.46554826427604L198.27121527777777,57.35012209134763L198.34930555555556,39.82308535884303L198.5054861111111,39.250245105686645L198.58357638888887,28.24204405514172L198.73975694444445,65.75132354001865L198.8178472222222,56.13467619836726L198.8959375,43.34089099657771L199.05211805555555,56.06175131852767L199.13020833333334,34.32539725336633L199.2863888888889,44.71968529721022L199.52065972222223,73.34348947346167L199.67684027777779,44.8817241390941L199.75493055555557,31.10821446659554L200.22347222222223,36.807428679957354L200.30156250000002,31.051504498776467L200.37965277777778,40.074589022431724L200.69201388888888,40.95572823073499L200.84819444444443,51.99905614010109L201.00437499999998,29.12741609067686L201.3167361111111,37.66755295068609L201.86336805555555,50.65832236451263L202.0976388888889,52.70027894879787L202.25381944444445,52.10627741757283L202.41,55.093220710416105L202.4880902777778,59.753445367610155L202.8004513888889,50.92985612666355L202.95663194444447,55.46902653763149L203.03472222222223,46.769457161363704L203.11281250000002,52.5700857805829L203.34708333333336,47.3315589337123L203.42517361111112,55.5553039305552L203.65944444444443,52.96706161934996L203.73753472222222,31.780229656927986L203.97180555555553,32.21905659260344L204.20607638888887,58.63197519434682L204.5184375,46.76612643512004L204.98697916666666,59.37884402818629L205.06506944444445,70.56840971319167L205.2993402777778,59.179464626361664L205.37743055555555,39.76878319743258L205.53361111111113,29.44050817109934L205.68979166666668,28.857927329646287L205.76788194444444,55.484475931708076L205.92406250000002,39.928175431003666L206.00215277777778,49.5235683617059L206.15833333333333,41.92385717493673L206.23642361111112,40.81272016204824L206.3145138888889,38.11380829237356L206.39260416666664,60.890501133337395L206.54878472222225,55.21762294753481L206.70496527777777,67.18668494215062L206.78305555555553,70.53078369134937L207.09541666666667,63.98457913776798L207.17350694444443,70.19220639455651L207.3296875,56.767004382540776L207.56395833333332,54.710203754860146L207.7201388888889,51.54223398921371L207.9544097222222,51.50979071472578L208.89149305555557,54.80087949284611L209.20385416666667,57.49663380532682L209.43812499999999,35.9729785951925L209.82857638888888,41.299604923305054L209.98475694444443,37.153370188937885L210.21902777777777,39.86089631036896L210.68756944444445,26.82438383648386L210.7656597222222,31.07407893508423L210.9218402777778,41.84174429517836L211.1561111111111,49.8569525715223L211.39038194444444,35.699444694311126L211.46847222222223,44.593556768292586L211.5465625,32.4594687072005L212.24937500000001,27.50623821780482L212.3274652777778,31.122634007724514L212.40555555555554,38.63524181973483L212.48364583333333,37.82344315130439L212.63982638888888,40.21377698468518L212.79600694444443,43.04806368760677L213.03027777777777,51.31823295362244L213.42072916666666,38.75594596151984L213.5769097222222,33.95550270607754L213.655,47.21828980762177L213.7330902777778,49.177627422323354L213.81118055555555,49.66489028090862L214.43590277777778,48.482256436077535L215.13871527777775,34.54684485896095L215.52916666666667,54.98088456811709L216.15388888888887,64.50436538709519L216.23197916666666,48.683439249118095L216.46625,57.0875612987995L216.7786111111111,57.065855108137114L217.01288194444444,39.057841521760906L217.32524305555557,47.05109092608757L217.5595138888889,52.06008068213269L217.79378472222223,65.78383281403426L217.87187500000002,36.5530705891469L217.94996527777778,34.02683053746338L218.10614583333336,39.328862471190206L218.73086805555553,55.67739544558948L218.8870486111111,60.26782721905964L219.04322916666666,54.05735268252526L219.1994097222222,44.674568097933786L219.5898611111111,34.13055637427843L219.9803125,64.99991221278117L220.60503472222223,70.63050994783171L220.68312500000002,76.02469648307277L220.76121527777778,53.07878242841791L221.0735763888889,30.18262338466303L221.30784722222222,46.75733592883856L221.54211805555553,47.22939705596036L222.16684027777777,37.784655264292155L222.32302083333335,48.33579653458233L222.63538194444445,50.56924657080434L222.71347222222224,61.61153893979706L222.7915625,55.011097157670974L222.8696527777778,48.49415379325984L223.02583333333334,51.0412202498939L223.1820138888889,45.82425424466288L223.41628472222223,56.07676364070035L223.65055555555557,28.893294035708095L223.72864583333333,58.635971920082014L223.8848263888889,44.293798747294574L224.04100694444446,28.559338492532618L224.58763888888888,71.48817036770586L224.9,88.47743050469643L225.05618055555556,91.63312309392504L225.2123611111111,75.8593309295667L225.36854166666666,60.691713670044734L225.44663194444445,47.33001751133773L225.6028125,48.753004880124195L225.83708333333334,47.44346603117813L225.9932638888889,44.691091997399525L226.22753472222223,41.79410383163366L226.38371527777778,52.118131028762306L226.61798611111112,53.297545096368125L226.6960763888889,55.529348200017566L226.77416666666667,47.084283276471126L227.55506944444443,65.48143599752937L227.63315972222222,59.339508933570116L227.78934027777777,57.67954900905261L227.86743055555556,51.93078808691959L227.94552083333332,54.69293442670619L228.0236111111111,40.64026868405415L228.25788194444445,41.54331474818272L228.3359722222222,37.79126931498939L228.4921527777778,30.410311830464025L228.7264236111111,37.470345700039246L228.88260416666668,50.45804544225564L229.03878472222223,29.815936188311696L229.19496527777778,18.142417328602875L229.8977777777778,25.30767499509261L229.97586805555554,18.757383775131814L230.21013888888888,11.729708480487432L230.36631944444443,23.0333815191091L230.52249999999998,41.85908266627197L230.67868055555556,62.69516969635133L230.8348611111111,68.92690156527784L230.91295138888887,41.552814170291526L231.1472222222222,44.40169075284629L231.6157638888889,41.88268036815066L231.69385416666668,38.80262651427114L232.00621527777778,19.364640779397092L232.24048611111112,22.99268567270113L232.47475694444447,13.760479548609709L232.63093750000002,23.907674304864685L232.70902777777775,18.540158200396235L233.02138888888888,42.83659604557343L233.33374999999998,35.69916534523958L233.56802083333332,43.118397598867375L233.6461111111111,24.969651420953767L233.72420138888887,65.59067574026759L233.80229166666666,43.1566261034165L234.0365625,15.943567279634124L234.3489236111111,27.49558618763521L234.50510416666665,22.036795281764483L234.81746527777779,38.23151623689927L234.89555555555557,31.543064405225465L235.05173611111113,55.45667554003167L235.1298263888889,47.515951143873764L235.52027777777778,42.96455661962813L235.7545486111111,27.352058489980607L235.83263888888888,36.274570302881216L235.98881944444443,43.65092456621974L236.14499999999998,31.22193737675579L236.30118055555553,48.42983565717833L236.37927083333332,44.20124110454262L236.61354166666666,50.153518376791155L236.69163194444445,56.88560103538255L236.8478125,47.357184576765405L237.08208333333334,48.130156645641165L237.1601736111111,42.00325666514959L237.31635416666666,46.6222333398338L237.78489583333334,32.82442979615189L238.01916666666668,44.01575723529612L238.25343750000002,53.79527885938144L238.33152777777778,33.57190091624534L238.6438888888889,68.5559187651555L239.11243055555553,50.31133172517302L240.12760416666666,43.22298985961251L240.4399652777778,29.06406256582244L240.59614583333334,21.100174104129735L240.98659722222223,21.706769253585037L241.22086805555557,50.086352296932475L241.37704861111112,68.10681700483794L241.68940972222225,44.25659020290277L242.07986111111111,57.496162964972854L242.39222222222222,43.741014982505504L242.70458333333332,32.07905931070084L242.93885416666666,42.06076798197407L243.64166666666668,42.379240692596284L244.11020833333333,3.5483807497862756L244.8911111111111,2.325687614300449L244.96920138888888,37.483739337455404L245.04729166666667,29.17691064425179L245.2815625,39.30103591291828L245.35965277777777,50.327283525518936L245.75010416666666,49.29644639018318L245.9062847222222,30.51904909326518L246.21864583333334,27.56881335564782L246.2967361111111,37.13042254440978L246.3748263888889,52.30269484515786L246.45291666666668,48.8919736480463L246.53100694444444,58.989699531540225L246.60909722222223,47.84936545905171L246.6871875,37.59237892280041L247.31190972222223,48.974321244061116L247.54618055555554,69.67316465729482L248.01472222222222,61.05146437855967L248.32708333333332,53.67531825764422L249.1079861111111,53.07525147475863L249.1860763888889,32.40236760543621L249.26416666666668,52.84198149542114L249.81079861111112,47.43851397812426L250.20125000000002,50.20180146205462L250.43552083333336,51.04968698685187L250.59170138888888,63.110242394595275L250.66979166666667,48.92863812207517L250.74788194444443,53.05552145814495L250.82597222222222,49.86108490094894L251.13833333333332,47.35443759599542L251.76305555555555,24.495713361735426L251.84114583333334,34.790205107113906L252.07541666666665,39.72133640884229L252.23159722222223,44.77780972265529L252.3096875,40.14168695892889L252.46586805555557,33.67251330069297L252.85631944444447,53.00470105559587L253.40295138888888,49.03455832332948L253.55913194444443,50.41489190775499L253.79340277777777,69.5822658522031L253.94958333333332,65.77545211691266L254.3400347222222,42.66110479103682L254.57430555555555,34.93832035104728L254.8085763888889,17.91466150307832L255.5113888888889,35.28296450629341L255.58947916666668,37.93326421174112L255.82375000000002,60.12662444348754L256.05802083333333,39.278827468369116L256.2142013888889,30.982083849795913L256.29229166666664,25.76757651608483L256.7608333333333,42.7316565206128L256.9951041666667,41.568999539046104L257.0731944444444,49.16417287482534L257.229375,34.513484594188355L257.4636458333334,45.21416716871394L257.6198263888889,40.6376134508713L257.7760069444444,70.05840327941561L258.0102777777778,73.09901213290208L258.0883680555555,58.60939996505927L258.1664583333333,64.97469204583855L258.7130902777778,56.06203026008065L259.1035416666667,32.227770085522224L259.25972222222225,41.98610336982529L259.3378125,34.92666652323794L259.4159027777778,44.68711390091181L259.7282638888889,36.54725877519368L259.80635416666667,43.23390663192225L260.19680555555556,46.62312050655814L260.27489583333335,40.38026900765496L260.58725694444445,46.959555294973796L260.82152777777776,46.48212425402585L260.89961805555555,54.02956345851291L261.05579861111113,39.4321732042734L261.60243055555554,57.9354885577264L261.68052083333333,69.1287987613143L262.0709722222222,56.12894573589929L263.0080555555556,48.230693647746875L263.3985069444445,49.98175027220526L263.5546875,36.87236961751623L263.6327777777778,37.38849466937447L263.8670486111111,43.827620021686926L263.9451388888889,42.43026340018869L264.6479513888889,47.34435449130032L265.11649305555557,29.830098765413112L265.42885416666667,20.618621316742917" style="fill: none;" fill="none"></path></g></g></g></g><g opacity="0.2"><g><g><g><path stroke="rgb(204, 51, 17)" stroke-width="2px" d="M34.4378125,222.15137560367583L34.59399305555556,176.5902786374092L34.750173611111116,221.98749859333037L35.68725694444444,183.43263615369796L35.76534722222222,176.01667393445967L36.39006944444444,150.44997889995574L36.624340277777776,187.81666268110274L36.85861111111112,161.27838094234465L36.93670138888889,214.50129081010817L37.01479166666666,162.74166901111602L37.09288194444444,148.89304180145263L37.483333333333334,198.03631086349486L38.6546875,202.2681709051132L39.27940972222222,128.65278918743132L39.51368055555555,83.66527934074402L39.591770833333335,160.77500422000884L40.13840277777778,144.5499845266342L40.37267361111111,115.29582817554473L40.52885416666667,173.33589572906493L41.153576388888894,149.95834786891936L41.38784722222222,194.2902617573738L41.465937499999995,134.59375281333922L42.168749999999996,158.64442725181578L42.324930555555554,134.88053758144378L42.403020833333336,160.77500422000884L42.48111111111111,162.39045877456664L43.027743055555554,149.83540494441985L43.418194444444445,144.55001969337462L43.574374999999996,132.5451143503189L43.65246527777777,154.6291591644287L43.96482638888889,152.17082817554473L44.35527777777777,114.80416197776795L44.433368055555555,140.22451062202452L44.66763888888889,135.29026527404784L45.136180555555555,131.1111201763153L45.21427083333333,144.14025683403014L45.37045138888889,152.3347051858902L45.60472222222222,158.68543167114257L45.76090277777777,96.12077612876892L45.838993055555555,143.32083661556243L45.99517361111111,143.40273995399474L46.151354166666664,86.01825077533722L46.22944444444445,119.55694694519043L46.77607638888889,122.58888263702391L47.40079861111111,171.79652441740035L47.47888888888889,155.9402455806732L47.556979166666665,166.18331481218337L47.86934027777778,118.3043779850006L48.650243055555556,124.35066599845887L48.72833333333333,146.88540775775908L48.88451388888889,144.87777371406554L49.196875,116.77082676887511L49.43114583333334,115.54164369106292L49.50923611111111,79.56803758144379L49.58732638888889,150.69582958221434L49.82159722222222,152.17082817554473L50.75868055555556,149.30273432731627L51.227222222222224,162.82360751628875L51.46149305555556,99.72638685703278L51.617673611111115,139.30553336143493L51.695763888888884,89.81112439632416L51.85194444444444,138.2402624607086L52.16430555555556,191.5041591644287L52.47666666666667,146.6395922422409L52.632847222222225,144.95971221923827L53.023298611111116,122.99861032962798L54.1165625,71.37362439632416L54.50701388888889,47.480954122543324L54.58510416666666,97.59580988883972L54.897465277777776,133.1597234725952L54.97555555555556,191.2583260655403L55.28791666666666,126.1124845266342L55.36600694444444,146.76246483325957L55.5221875,136.51357550621032L55.756458333333335,166.42914791107177L56.14690972222222,157.57915635108947L56.225,115.4597051858902L56.30309027777778,124.14585490226744L56.69354166666667,119.40474529266356L56.771631944444444,143.07498593330382L56.84972222222222,160.4472150325775L57.08399305555555,205.76249648332595L57.78680555555555,112.83749718666077L57.94298611111111,127.91527230739592L58.41152777777778,190.02916057109832L58.880069444444445,149.22083098888396L58.95815972222222,143.4847136259079L59.42670138888889,176.87709857225417L59.66097222222223,109.68261857032776L59.973333333333336,185.48125703334807L60.285694444444445,168.23193569183348L60.441874999999996,121.35973472595215L60.75423611111111,148.97498030662535L60.83232638888889,205.51666338443755L60.91041666666667,130.70723016262053L61.06659722222223,143.1159551858902L61.45704861111111,149.95834786891936L61.847500000000004,164.29276843070983L61.92559027777777,149.34373874664306L62.003680555555555,103.25002391338349L63.17503472222222,82.59997327327729L63.721666666666664,125.8666338443756L64.19020833333333,169.46111876964568L64.2682986111111,139.30553336143493L64.42447916666666,88.13124437332154L64.58065972222222,114.80416197776795L64.89302083333334,157.12845940589904L65.59583333333333,110.49623627662659L65.7520138888889,99.31665916442871L65.83010416666667,96.44860048294068L66.064375,112.09998030662537L66.53291666666667,114.06664509773253L67.1576388888889,98.16944975852967L67.23572916666667,137.25693006515502L67.47,67.35832114219666L67.54809027777777,104.47913665771485L68.25090277777778,77.1507110118866L68.32899305555556,127.575807762146L69.18798611111112,162.82360751628875L69.42225694444444,150.18077750205993L69.50034722222223,114.18375034332274L69.65652777777778,106.36389811038971L69.81270833333333,83.91113002300263L70.90597222222223,118.7374915599823L71.29642361111111,68.83331973552704L71.45260416666666,102.92219955921173L71.686875,109.68261857032776L71.84305555555555,90.30275542736054L72.23350694444444,112.07655925750733L72.31159722222223,82.19024558067322L72.78013888888889,100.0541408777237L72.93631944444444,70.88192303180695L73.01440972222223,107.59304602146149L73.17059027777778,82.76388545036316L73.24868055555555,144.63195819854735L73.48295138888889,129.30833239555358L73.63913194444444,149.95834786891936L74.02958333333332,113.90276808738709L74.10767361111111,114.39443428516387L74.81048611111112,70.67707676887512L74.96666666666667,94.80972487926483L75.27902777777778,116.03330988883972L75.35711805555556,128.28403074741362L75.43520833333332,80.14167745113373L75.74756944444444,126.27639670372008L76.05993055555555,139.48699374198912L76.13802083333333,92.40991134643555L76.37229166666667,108.9568473815918L76.52847222222222,16.974228811264055L76.60656250000001,120.13051648139954L76.68465277777779,116.52501125335692L76.76274305555556,73.70901246070862L76.84083333333332,73.34028918743134L76.91892361111113,103.2090194940567L77.07510416666666,84.48473472595215L77.15319444444444,75.88055868148804L77.54364583333333,106.28192443847657L77.6217361111111,65.22777934074402L77.93409722222222,69.32498593330384L78.16836805555556,128.2020922422409L78.3245486111111,100.80920596122742L78.79309027777778,92.92496342658997L78.94927083333333,119.10625L79.33972222222222,129.4312753200531L79.65208333333334,98.49720377922058L79.73017361111111,125.0472487926483L79.88635416666666,52.89511997699738L80.8234375,112.34579582214356L81.37006944444444,86.28748733997345L81.44815972222221,74.77431852817536L81.60434027777778,52.034695339202884L81.68243055555556,71.12777371406555L81.76052083333333,53.837518286705034L81.8386111111111,119.67988986968993L81.99479166666667,150.85974175930022L82.2290625,64.89999015331269L82.54142361111111,130.29166479110717L82.61951388888889,61.294449758529666L82.93187499999999,70.26151139736176L83.16614583333333,121.277761054039L83.47850694444445,60.39305586814881L83.71277777777777,77.76528496742249L83.79086805555556,68.83335490226746L83.86895833333334,80.30555446147919L83.94704861111111,112.40438361167908L84.02513888888889,66.12917323112488L84.18131944444445,125.12915213108063L84.25940972222222,69.40695960521698L84.33749999999999,101.57010872364044L84.57177083333333,90.50760169029236L84.64986111111111,92.72011716365814L84.72795138888888,116.13866944313048L84.88413194444445,140.79811532497405L85.0403125,90.30279059410095L85.11840277777777,77.355522108078L85.66503472222223,69.20795102119446L85.89930555555556,60.8378448009491L86.21166666666666,131.88957114219664L86.4459375,111.48540635108948L86.60211805555556,89.07360751628876L86.75829861111112,48.32379539012908L87.07065972222223,56.29584927558899L87.38302083333333,119.80276246070862L87.61729166666666,68.05483360290528L87.69538194444445,109.86407895088196L87.77347222222222,92.02356953620911L87.8515625,40.48052210807802L88.32010416666667,132.21736032962798L88.78864583333333,84.85349316596985L88.94482638888888,98.33332676887512L89.02291666666666,109.23192162513733L89.33527777777778,66.25204582214357L89.56954861111112,75.14304180145264L89.64763888888889,54.73891217708589L89.88190972222223,123.99949092864989L89.96000000000001,115.84601182937621L90.03809027777777,106.93750281333924L90.19427083333333,146.10692162513732L90.35045138888889,59.87793345451357L90.81899305555555,83.21458239555359L91.05326388888889,72.43886013031006L91.13135416666667,86.81428511142731L91.36562500000001,113.73889107704163L91.44371527777778,111.60834927558899L91.52180555555555,123.36149592399597L91.67798611111111,104.13967211246491L91.75607638888889,54.223789763450625L92.22461805555555,126.39926929473877L92.53697916666667,145.45137841701506L92.61506944444444,37.57152934074401L92.77125000000001,102.38372642993927L92.92743055555556,60.31108219623566L93.08361111111111,51.46112580299379L93.16170138888889,71.61940474510193L93.23979166666666,91.09878976345063L93.31788194444444,75.7985850095749L93.39597222222221,44.946522307395924L93.63024305555555,77.92916197776795L93.78642361111112,85.71388263702393L93.94260416666667,84.56667323112488L94.17687500000001,77.84722347259522L94.33305555555556,94.52290494441986L94.41114583333332,41.66873593330382L94.48923611111113,74.20067865848542L94.95777777777778,42.89788384437563L95.03586805555555,77.10974175930023L95.1920486111111,120.21249015331269L95.42631944444445,63.89327187538149L95.73868055555556,66.57987017631531L95.97295138888889,106.07704300880432L96.20722222222221,52.09324796199799L96.2853125,117.67222065925597L96.44149305555555,126.00712497234345L96.5976736111111,25.730571341514604L96.75385416666667,75.59373874664307L97.14430555555556,95.05554039478302L97.3785763888889,81.73958380222321L97.53475694444444,78.01110048294068L98.70611111111111,43.84024698734282L99.01847222222221,52.444458198547366L99.17465277777778,47.19997186660768L99.25274305555556,34.08889670372011L99.56510416666667,121.12559456825257L99.72128472222222,70.75901527404785L99.799375,119.77937657833098L100.03364583333334,82.7229161977768L100.18982638888889,119.88473613262177L100.34600694444444,78.62567443847657L100.58027777777777,113.32912821769715L100.73645833333333,11.308304262161272L100.8145486111111,59.81945116519928L100.97072916666667,66.74374718666077L101.28309027777777,67.43442196846009L101.59545138888889,96.13835949897766L102.14208333333333,66.00623030662538L102.22017361111111,94.08979136943817L102.29826388888888,130.8652694940567L102.37635416666667,96.2846883058548L102.53253472222222,95.54724175930023L102.76680555555556,91.04027230739594L102.84489583333334,95.05554039478302L102.92298611111111,91.36806149482727L103.15725694444446,80.10070819854737L103.23534722222223,79.89582676887512L103.31343749999999,124.96523995399474L103.39152777777777,74.32362158298493L104.01625,51.2972136259079L104.09434027777777,106.4224155664444L104.32861111111112,133.4055389881134L104.87524305555554,80.22358078956604L105.10951388888888,111.88929636478424L105.73423611111112,162.63627429008483L105.81232638888889,76.61804039478302L105.96850694444446,85.34512419700623L106.04659722222223,77.06877250671387L106.12468750000001,98.82499296665192L106.35895833333333,113.01308472156525L106.43704861111111,57.60693569183351L106.59322916666666,106.8555643081665L106.74940972222223,87.10690755844116L107.13986111111112,119.80276246070862L107.21795138888889,60.31111736297609L107.53031250000001,78.42079300880432L107.60840277777777,93.49860329627991L107.68649305555554,59.87796862125397L107.76458333333333,61.78608078956604L107.99885416666666,95.04970271587372L108.07694444444444,31.220838022232044L108.15503472222223,65.63747186660767L108.38930555555555,18.472613286972063L108.46739583333333,145.041650724411L109.09211805555555,110.82986314296723L109.40447916666666,87.59860892295838L109.56065972222223,90.50760169029236L109.71684027777778,75.26594955921173L109.79493055555555,63.01529903411867L110.0292013888889,66.0881688117981L110.26347222222223,72.07013685703278L110.34156250000001,107.18331832885742L110.41965277777778,118.49164087772368L110.49774305555556,30.0911416530609L110.73201388888889,48.34721643924712L111.35673611111112,107.01944131851197L111.51291666666667,104.47920699119568L111.66909722222222,12.742368769645708L111.82527777777779,62.195843648910525L111.90336805555556,84.60760731697083L112.13763888888889,33.2284368991852L112.29381944444444,104.97083802223206L112.45,76.74098331928253L112.8404513888889,118.1229176044464L113.38708333333334,73.74998171329499L113.4651736111111,67.53978152275086L113.69944444444444,79.40416057109833L113.855625,119.51597769260407L114.32416666666667,52.36248452663422L114.40225694444445,80.87915916442871L114.5584375,43.881251406669634L114.71461805555556,44.98749155998232L115.02697916666666,88.4765817642212L115.33934027777778,52.239576768875125L115.49552083333333,130.20972628593444L115.88597222222222,30.89304883480071L115.9640625,46.790279340744036L116.04215277777779,106.2351175069809L116.58878472222221,76.86389107704163L116.66687499999999,54.16530747413637L117.13541666666667,93.25278778076172L117.44777777777779,58.09863705635071L117.52586805555556,65.39165635108948L117.60395833333334,99.24639601707459L118.30677083333333,94.23612017631531L118.46295138888888,38.923620176315296L118.69722222222222,78.01110048294068L119.16576388888889,44.331913185119646L119.24385416666668,69.24301226139069L119.55621527777777,98.98886997699738L119.79048611111111,39.53819413185121L119.86857638888888,27.20553476810457L119.94666666666667,40.56249577999117L120.1809375,25.77154059410094L121.03993055555556,91.18072826862335L121.27420138888888,73.72659583091736L121.50847222222222,19.397393059730547L121.5865625,101.7750253200531L121.66465277777777,93.29375703334809L121.89892361111112,64.40828878879547L121.97701388888889,60.270112943649295L122.05510416666667,40.275711011886585L123.22645833333334,18.437481713295L123.46072916666667,94.64581270217896L123.61690972222223,51.94691915512085L123.69500000000001,60.720809888839725L123.85118055555554,98.8249577999115L123.92927083333333,70.9638967037201L124.16354166666666,67.28809316158295L124.3978125,89.72915072441101L124.47590277777778,67.3759045124054L124.63208333333334,7.866676044464128L124.78826388888889,77.60140795707703L124.94444444444444,112.75555868148804L125.10062500000001,48.10136575698854L125.33489583333333,63.998631429672244L125.49107638888889,82.84582395553589L125.64725694444444,92.59720940589905L125.8034375,95.13164122104645L125.95961805555555,60.41060407161714L126.11579861111112,76.74094815254212L126.89670138888889,27.36944694519042L127.2090625,89.23751969337464L127.52142361111112,80.67427773475647L127.5995138888889,90.71251828670502L127.67760416666667,69.12013967037201L127.83378472222223,56.74654622077942L128.06805555555556,128.65278918743132L128.3023263888889,51.50205988883974L128.45850694444445,23.968752813339222L128.6927777777778,133.07778496742247L129.16131944444444,72.3978908777237L129.3175,78.8305558681488L129.47368055555555,106.52773995399475L129.55177083333334,82.76388545036316L129.78604166666668,72.35692162513733L129.86413194444444,105.8721967458725L129.94222222222223,45.68403918743135L130.17649305555557,38.14513404369353L130.80121527777777,76.10295314788819L131.19166666666666,80.26455004215241L131.3478472222222,118.46825499534607L131.8163888888889,63.506930065155046L132.12875,63.4249915599823L132.2068402777778,44.00415916442873L132.28493055555555,55.27154762744904L132.36302083333334,38.71283073425292L132.8315625,13.315973472595232L133.06583333333333,79.89582676887512L133.61246527777777,68.9328064441681L133.76864583333332,33.2284368991852L134.00291666666666,62.27774698734285L134.08100694444445,116.64788384437561L134.3152777777778,45.684004020690935L134.39336805555556,77.68331129550934L134.78381944444445,86.53333802223206L134.8619097222222,97.63677914142609L134.94,74.61040635108948L135.17427083333334,109.31386013031006L135.40854166666668,81.94446523189545L135.48663194444444,103.29095799922943L135.56472222222223,56.60018224716187L135.6428125,75.28349776268006L135.72090277777778,95.87499577999115L136.18944444444446,77.10970659255982L136.65798611111111,53.10000140666962L137.12652777777777,48.8974000930786L137.4388888888889,48.83888263702394L137.59506944444445,117.75415916442871L137.98552083333334,45.151368570327776L138.29788194444444,67.35832114219666L138.84451388888888,76.20834786891938L139.00069444444446,84.73055024147034L139.23496527777777,68.09583802223206L139.39114583333333,67.48126406669617L139.46923611111112,59.30432875156404L139.70350694444446,65.14580566883087L139.78159722222222,3.277768087387102L139.93777777777777,83.0916746377945L140.01586805555556,103.22656769752503L140.2501388888889,58.89467139244081L141.57767361111112,61.107151699066165L141.6557638888889,113.00137419700623L141.73385416666667,45.56113142967226L141.81194444444446,98.30987055301667L142.12430555555554,22.94441599845888L142.35857638888888,78.25691599845887L142.67093749999998,58.180505228042605L142.74902777777777,97.43193287849427L142.82711805555556,-13.397913384437544L143.13947916666666,75.22498030662537L143.21756944444445,59.40972347259523L143.2956597222222,78.05206973552704L143.4518402777778,63.05626828670502L143.60802083333334,-2.2124985933303947L143.7642013888889,85.09927351474762L143.92038194444444,91.45L144.54510416666668,115.29586334228516L144.93555555555554,38.67776949405672L145.01364583333336,53.75554461479189L145.71645833333332,93.82639248371125L145.7945486111111,84.03403778076172L146.65354166666665,113.16525120735167L147.04399305555557,125.21112580299378L147.2782638888889,71.7014135837555L147.35635416666668,109.98698670864106L147.59062500000002,73.17637701034546L147.74680555555557,49.08473331928255L147.82489583333336,5.695129823684709L148.44961805555553,53.591632437706L148.52770833333332,75.184011054039L148.6057986111111,57.542580556869524L148.68388888888887,94.23612017631531L148.9181597222222,70.77656347751618L149.07434027777776,21.961153936386125L149.15243055555555,32.16316599845885L149.23052083333334,94.15418167114258L149.85524305555555,41.38191599845888L150.24569444444447,95.42433400154114L150.32378472222223,14.91387982368471L150.55805555555557,34.416650724411L151.10468749999998,122.75279481410979L151.26086805555553,62.851351690292375L152.04177083333335,38.016353440284746L152.43222222222224,0.12292463779451168L152.5103125,52.60830004215241L152.66649305555555,92.67914791107178L152.74458333333334,61.2534805059433L153.21312500000002,64.16250844001772L153.29121527777778,45.31528074741365L153.75975694444446,83.00973613262177L153.83784722222225,71.29165072441101L154.54065972222222,19.011086416244524L154.85302083333332,94.68681712150574L155.0092013888889,46.83121342658998L155.3215625,76.45412821769715L156.02437500000002,53.591667604446414L156.18055555555557,32.122231912612904L156.4148263888889,53.87845237255098L156.57100694444446,89.97500140666962L156.6490972222222,110.09234626293183L157.0395486111111,56.254844856262224L157.27381944444443,65.06390233039858L157.66427083333332,31.466653537750233L157.8204513888889,75.69326062202454L158.1328125,35.072158765792864L158.28899305555555,40.31664509773253L158.36708333333334,42.529160571098345L158.4451736111111,85.87775964736939L158.60135416666668,67.45784301757813L158.75753472222223,40.9722234725952L159.14798611111112,75.20155925750733L159.38225694444446,71.84186954498291L159.53843750000001,117.26249296665192L159.77270833333333,43.06183118820192L160.00697916666667,31.54859204292299L160.31934027777777,21.264571142196672L160.5536111111111,72.02916760444641L160.8659722222222,52.830729675292986L160.9440625,-22.534689712524425L161.0221527777778,20.15829582214357L161.56878472222223,70.47216017246247L161.72496527777778,78.47934563159943L161.88114583333333,79.85489268302918L162.11541666666668,87.43473191261292L162.19350694444447,9.031468820571916L162.6620486111111,43.775891852378834L162.74013888888888,59.0819342851639L163.05249999999998,54.411087822914126L163.3648611111111,67.89099175930023L163.59913194444445,55.88608641624451L163.6772222222222,49.57639951705933L163.7553125,40.726407957077015L163.83340277777776,27.082627010345476L163.98958333333334,44.30272479057314L164.22385416666665,75.06110329627991L164.77048611111113,53.13513298034668L164.8485763888889,95.7111187696457L165.23902777777778,65.43262560367586L165.39520833333336,37.202770900726335L165.4732986111111,103.98750562667847L165.55138888888888,-11.636130023002607L166.25420138888887,21.469452571868914L166.5665625,54.20624155998232L166.64465277777776,-13.193067121505749L166.72274305555555,55.804147911071794L166.80083333333334,74.32358641624451L166.9570138888889,108.04374296665192L167.3474652777778,73.3812584400177L167.42555555555555,100.08930761814118L167.58173611111113,60.77936251163483L167.6598263888889,74.32358641624451L167.73791666666668,67.64514107704163L167.97218750000002,19.99445397853853L168.12836805555557,75.88052351474762L168.20645833333336,69.03816599845887L168.28454861111112,68.89187235832215L168.9873611111111,85.30419011116028L169.22163194444443,-23.869232344627363L169.92444444444445,92.43333239555359L170.39298611111113,10.447879624366777L170.4710763888889,86.73818428516388L170.93961805555557,82.02636857032776L171.01770833333333,37.95199830532076L171.09579861111112,62.35968549251557L171.25197916666664,77.43749577999115L171.72052083333332,61.94999296665192L172.1890625,58.402934861183184L172.26715277777777,20.772940111160295L172.891875,25.5666591644287L172.9699652777778,45.45577187538146L173.20423611111113,75.22498030662537L173.43850694444444,67.35832114219666L173.75086805555557,85.91876406669617L173.90704861111112,26.549991559982317L174.2194097222222,68.70453913211823L174.68795138888888,37.68856425285341L175.0003125,89.60624296665192L175.07840277777777,113.00137419700623L175.3126736111111,17.290272307395952L175.46885416666666,8.194430065155046L175.703125,57.50157613754273L176.0154861111111,45.20992119312288L176.17166666666668,46.21667463779451L176.32784722222223,124.22779340744017L176.4059375,133.97917885780333L176.48402777777778,12.291671824455278L177.03065972222223,79.77291901111603L177.1868402777778,55.45297284126282L177.26493055555554,75.06110329627991L177.73347222222222,-14.831942725181563L177.81156249999998,5.899976086616533L177.88965277777777,131.88957114219664L178.04583333333332,97.513871383667L178.20201388888887,79.52706832885742L179.13909722222223,60.679840636253374L179.84190972222223,65.02289791107178L180.15427083333336,32.941652131080616L180.54472222222222,38.14513404369353L180.62281249999998,54.82081551551819L181.01326388888887,63.26111454963686L181.09135416666666,56.82261188030243L181.16944444444445,85.28073389530182L181.48180555555555,130.43212075233458L181.55989583333334,154.3833436489105L182.0284375,108.78125984668732L182.34079861111113,75.71664650440216L182.4188888888889,133.44650824069976L182.49697916666668,61.86808962821962L182.65315972222223,103.08607656955719L182.73125000000002,88.88630945682526L183.12170138888888,135.65318603515624L183.35597222222222,86.53333802223206L183.51215277777777,50.2319427251816L183.7464236111111,72.11110610961914L183.98069444444445,70.55413384437561L184.21496527777776,65.45017380714417L184.37114583333334,74.85038418769837L184.8396875,68.66944272518158L184.9177777777778,116.44303758144378L185.07395833333334,42.85694975852968L185.2301388888889,54.08329863548279L185.9329513888889,72.25156207084656L186.01104166666664,47.97849316596984L186.08913194444443,57.72987861633301L186.16722222222222,113.98470659255982L187.2604861111111,-7.193586039543163L187.57284722222224,13.473977637290972L187.88520833333334,45.27431149482726L187.96329861111113,31.91738564968111L188.19756944444444,89.37797565460205L188.27565972222223,52.292256546020525L188.50993055555557,115.50070960521697L188.66611111111112,117.13374752998351L188.82229166666664,54.55157895088196L189.21274305555553,75.31866450309754L189.44701388888888,59.24581129550934L189.60319444444443,98.74305446147919L189.68128472222222,42.693037581443775L189.83746527777777,57.647904944419864L190.0717361111111,41.13610048294069L190.30600694444445,26.263171625137318L190.4621875,49.20764107704164L190.69645833333334,21.79724175930025L190.93072916666668,85.52658457756043L191.00881944444444,47.691673231124895L191.24309027777778,64.40835912227631L191.47736111111112,46.21667463779451L192.10208333333333,29.704870176315325L192.1801736111111,33.59726567268373L192.33635416666667,42.11943287849425L192.72680555555556,15.323642683029192L193.11725694444445,97.43193287849427L193.1953472222222,142.66529340744017L193.2734375,74.32358641624451L193.42961805555555,39.087497186660784L193.50770833333334,95.62334258556366L193.6638888888889,37.729568672180164L193.82006944444444,99.52154059410095L194.05434027777778,52.56733078956604L194.13243055555557,56.7875154733658L194.44479166666667,95.34232516288758L194.83524305555554,54.042364549636844L194.9914236111111,78.05210490226746L195.45996527777777,48.46428651809694L195.53805555555556,8.112491559982317L195.61614583333332,43.980738115310686L195.6942361111111,68.59914441108704L195.77232638888887,91.40899558067322L196.0065972222222,-0.9423814296722526L196.1627777777778,43.16135306358336L196.3970486111111,8.931946945190447L196.4751388888889,74.40556008815766L196.70940972222223,53.63263685703279L196.86559027777778,57.068497729301455L197.02177083333333,85.95969815254212L197.09986111111112,46.38051648139955L197.17795138888889,44.29094393253325L197.49031250000002,64.6541394710541L197.8026736111111,34.43423409461977L197.88076388888888,56.213875603675845L197.95885416666667,71.53750140666962L198.27121527777777,54.17698283195496L198.34930555555556,13.532530260086077L198.5054861111111,38.390984725952165L198.58357638888887,11.729742479324358L198.73975694444445,122.01524276733397L198.8178472222222,41.709705185890215L198.8959375,24.15021319389342L199.05211805555555,75.14304180145264L199.13020833333334,1.7208661556244067L199.2863888888889,60.31111736297609L199.52065972222223,116.27919573783873L199.67684027777779,2.1890761375427417L199.75493055555557,10.447949957847612L200.22347222222223,45.35625000000002L200.30156250000002,22.417618227005022L200.37965277777778,53.60921580791475L200.69201388888888,42.27743704319002L200.84819444444443,68.5640480041504L201.00437499999998,-5.180043983459456L201.3167361111111,50.477758240699785L201.86336805555555,70.14447648525238L202.0976388888889,55.76321382522585L202.25381944444445,51.21527512073517L202.41,59.573635649681094L202.4880902777778,66.74378235340119L202.8004513888889,37.69447226524355L202.95663194444447,62.277782154083255L203.03472222222223,33.72010309696199L203.11281250000002,61.271028709411624L203.34708333333336,39.47376866340639L203.42517361111112,67.8909214258194L203.65944444444443,49.08469815254212L203.73753472222222,-0.000018286705000036818L203.97180555555553,32.87729699611663L204.20607638888887,98.25135309696198L204.5184375,28.967353296279896L204.98697916666666,78.29792041778565L205.06506944444445,87.35275824069977L205.2993402777778,42.096046996116655L205.37743055555555,10.652761054039019L205.53361111111113,13.948095631599443L205.68979166666668,27.984056067466753L205.76788194444444,95.42429883480072L205.92406250000002,16.593724679946916L206.00215277777778,63.9166577577591L206.15833333333333,30.524290394783037L206.23642361111112,39.14601464271544L206.3145138888889,34.06544048786162L206.39260416666664,95.05554039478302L206.54878472222225,46.70830566883089L206.70496527777777,85.1402779340744L206.78305555555553,75.5469318151474L207.09541666666667,54.16527230739594L207.17350694444443,79.50364727973938L207.3296875,36.6292013645172L207.56395833333332,51.625002813339236L207.7201388888889,46.790279340744036L207.9544097222222,51.46112580299379L208.89149305555557,59.73751266002657L209.20385416666667,61.540265274047854L209.43812499999999,3.687495779991167L209.82857638888888,49.28954441547394L209.98475694444443,30.934018087387102L210.21902777777777,43.92218549251558L210.68756944444445,7.269615125656145L210.7656597222222,37.44862158298491L210.9218402777778,57.99324233531952L211.1561111111111,61.87976498603821L211.39038194444444,14.46318287849428L211.46847222222223,57.93472487926485L211.5465625,14.258336615562456L212.24937500000001,20.07639248371126L212.3274652777778,36.547227692604054L212.40555555555554,49.90415353775026L212.48364583333333,36.60574514865877L212.63982638888888,43.79927773475649L212.79600694444443,47.299493741989124L213.03027777777777,63.72348685264588L213.42072916666666,19.9125154733658L213.5769097222222,26.75483782291414L213.655,67.11247045993805L213.7330902777778,52.11663384437561L213.81118055555555,50.39578456878664L214.43590277777778,46.70830566883089L215.13871527777775,13.64372749328615L215.52916666666667,85.6319441318512L216.15388888888887,78.78958661556244L216.23197916666666,24.952050042152422L216.46625,69.69374437332154L216.7786111111111,57.03329582214356L217.01288194444444,12.045821142196672L217.32524305555557,59.04096503257752L217.5595138888889,59.57356531620027L217.79378472222223,86.3694610118866L217.87187500000002,-7.2930727481842155L217.94996527777778,30.237470459938038L218.10614583333336,47.28191037178041L218.73086805555553,80.20019490718842L218.8870486111111,67.15347487926483L219.04322916666666,44.74164087772368L219.1994097222222,30.600391221046436L219.5898611111111,18.31453878879549L219.9803125,111.30394597053528L220.60503472222223,79.07640655040741L220.68312500000002,84.11597628593445L220.76121527777778,18.659911346435564L221.0735763888889,-4.16161518096925L221.30784722222222,71.61940474510193L221.54211805555553,47.93748874664308L222.16684027777777,23.617542576789845L222.32302083333335,64.16250844001772L222.63538194444445,53.91942162513733L222.71347222222224,78.17497749328614L222.7915625,45.11043448448183L222.8696527777778,38.718738746643055L223.02583333333334,54.86181993484499L223.1820138888889,37.998805236816395L223.41628472222223,71.45552773475647L223.65055555555557,-11.881910371780407L223.72864583333333,103.24998874664307L223.8848263888889,22.78053898811342L224.04100694444446,4.9576481103897265L224.58763888888888,135.8814181804657L224.9,113.96132071018219L225.05618055555556,96.36666197776795L225.2123611111111,52.19864268302918L225.36854166666666,37.940287780761736L225.44663194444445,27.28747327327727L225.6028125,50.887485933303836L225.83708333333334,45.47915775775911L225.9932638888889,40.562530946731584L226.22753472222223,37.44862158298491L226.38371527777778,67.60417182445526L226.61798611111112,55.0666661977768L226.6960763888889,58.877052855491655L226.77416666666667,34.416685891151445L227.55506944444443,93.07716507911682L227.63315972222222,50.12661833763123L227.78934027777777,55.18960912227632L227.86743055555556,43.30764670372011L227.94552083333332,58.83615393638611L228.0236111111111,19.561270070076006L228.25788194444445,42.89788384437563L228.3359722222222,32.1632011651993L228.4921527777778,19.33887560367586L228.7264236111111,48.06039650440218L228.88260416666668,69.93959505558014L229.03878472222223,-1.1472276926040479L229.19496527777778,0.6321390390396289L229.8977777777778,36.05556149482729L229.97586805555554,8.931946945190447L230.21013888888888,1.18819553852083L230.36631944444443,39.98889107704164L230.52249999999998,70.0976343870163L230.67868055555556,93.94930024147034L230.8348611111111,78.2744993686676L230.91295138888887,0.4916830778122119L231.1472222222222,48.675005626678455L231.6157638888889,38.104164791107195L231.69385416666668,34.18254573345183L232.00621527777778,-9.792337822914106L232.24048611111112,28.434753012657183L232.47475694444447,-0.08782963752747719L232.63093750000002,39.12846643924715L232.70902777777775,10.48888404369356L233.02138888888888,79.28125281333924L233.33374999999998,24.993019294738787L233.56802083333332,54.247245979309085L233.6461111111111,-2.253467845916731L233.72420138888887,126.52221221923827L233.80229166666666,9.50555164813997L234.0365625,-24.87602095603941L234.3489236111111,44.82361454963683L234.50510416666665,13.848608922958391L234.81746527777779,62.52359766960144L234.89555555555557,21.51038665771486L235.05173611111113,91.32709224224091L235.1298263888889,35.60486454963686L235.52027777777778,36.13746483325957L235.7545486111111,3.9333112955093554L235.83263888888888,49.65833802223207L235.98881944444443,54.71545596122742L236.14499999999998,12.578456592559832L236.30118055555553,74.2416830778122L236.37927083333332,37.858349275589006L236.61354166666666,59.0819342851639L236.69163194444445,66.98372502326966L236.8478125,33.06455988883971L237.08208333333334,49.28961474895479L237.1601736111111,32.81290669441225L237.31635416666666,53.55069835186005L237.78489583333334,12.127724480628984L238.01916666666668,60.80274839401247L238.25343750000002,68.46456129550934L238.33152777777778,3.2368340015411547L238.6438888888889,121.03194553852082L239.11243055555553,22.94445116519927L240.12760416666666,32.590477061271685L240.4399652777778,7.825671625137346L240.59614583333334,9.154341411590593L240.98659722222223,22.616661977767933L241.22086805555557,92.65572686195374L241.37704861111112,95.13751406669617L241.68940972222225,8.481250000000017L242.07986111111111,77.355522108078L242.39222222222222,23.10829300880431L242.70458333333332,14.586125802993791L242.93885416666666,57.03333098888399L243.64166666666668,42.85694975852968L244.11020833333333,-54.697909164428665L244.8911111111111,0.4916479110717944L244.96920138888888,90.22081692218781L245.04729166666667,16.716667604446428L245.2815625,54.48722381591797L245.35965277777777,66.86665494441986L245.75010416666666,47.750190687179554L245.9062847222222,2.3529531478882006L246.21864583333334,23.14345974922182L246.2967361111111,51.47283632755281L246.3748263888889,75.06110329627991L246.45291666666668,43.775891852378834L246.53100694444444,74.13628835678101L246.60909722222223,31.138864350318897L246.6871875,22.20689911842345L247.31190972222223,66.04723472595215L247.54618055555554,100.72142977714539L248.01472222222222,48.11891396045684L248.32708333333332,42.611099076271074L249.1079861111111,52.175151300430315L249.1860763888889,1.3930418014526538L249.26416666666668,83.50140233039856L249.81079861111112,39.33331270217897L250.20125000000002,54.34673268795014L250.43552083333336,52.321515274047854L250.59170138888888,81.20107550621033L250.66979166666667,27.656231713295L250.74788194444443,59.24584646224976L250.82597222222222,45.06943006515502L251.13833333333332,43.59446663856508L251.76305555555555,-9.792372989654552L251.84114583333334,50.2319427251816L252.07541666666665,47.118033361434925L252.23159722222223,52.36251969337465L252.3096875,33.18750281333925L252.46586805555557,23.968752813339222L252.85631944444447,82.00298268795014L253.40295138888888,43.07934422492983L253.55913194444443,52.48539228439331L253.79340277777777,98.33332676887512L253.94958333333332,60.065231513977054L254.3400347222222,7.989583802223223L254.57430555555555,23.354143691062944L254.8085763888889,-7.620826768875105L255.5113888888889,61.335419011116045L255.58947916666668,41.90871376991274L255.82375000000002,93.41666479110718L256.05802083333333,8.007132005691545L256.2142013888889,18.536968421936052L256.29229166666664,17.945815515518206L256.7608333333333,68.17777652740479L256.9951041666667,39.825014066696156L257.0731944444444,60.55693287849428L257.229375,12.53745217323305L257.4636458333334,61.26519103050232L257.6198263888889,33.77278287410735L257.7760069444444,114.18958802223206L258.0102777777778,77.65992541313172L258.0883680555555,36.874981713295L258.1664583333333,74.52263016700745L258.7130902777778,42.693037581443775L259.1035416666667,-3.5236201763152906L259.25972222222225,56.62360329627991L259.3378125,24.33751125335695L259.4159027777778,59.32778496742249L259.7282638888889,24.337476086616505L259.80635416666667,53.26387841701508L260.19680555555556,51.70694131851198L260.27489583333335,31.01599175930025L260.58725694444445,56.82848472595215L260.82152777777776,45.76597769260408L260.89961805555555,65.35072226524353L261.05579861111113,17.53608782291414L261.60243055555554,85.69046158790589L261.68052083333333,85.91876406669617L262.0709722222222,36.62916619777681L263.0080555555556,36.383315515518206L263.3985069444445,52.60833520889284L263.5546875,17.208298635482805L263.6327777777778,38.16268224716188L263.8670486111111,53.48630805015566L263.9451388888889,40.3342284679413L264.6479513888889,54.71549112796785L265.11649305555557,3.5587151765823535L265.42885416666667,6.80140514373781" style="fill: none;" fill="none"></path></g></g></g></g></g><g><g><span fill="rgb(0, 0, 0)" stroke="none" stroke-width="1px">Alt + Scroll to Zoom</span></g></g></g><g transform="translate(48, 177)" clip-path="url(#clip_1)"><clipPath id="clip_1"><rect width="281" height="23"></rect></clipPath><g><g><line x1="0" y1="0" x2="0" y2="5" style="visibility: inherit;" fill="rgb(0, 0, 0)" stroke="rgb(204, 204, 204)" stroke-width="1px"></line><line x1="31.23611111111111" y1="0" x2="31.23611111111111" y2="5" style="visibility: inherit;" fill="rgb(0, 0, 0)" stroke="rgb(204, 204, 204)" stroke-width="1px"></line><line x1="62.47222222222222" y1="0" x2="62.47222222222222" y2="5" style="visibility: inherit;" fill="rgb(0, 0, 0)" stroke="rgb(204, 204, 204)" stroke-width="1px"></line><line x1="93.70833333333333" y1="0" x2="93.70833333333333" y2="5" style="visibility: inherit;" fill="rgb(0, 0, 0)" stroke="rgb(204, 204, 204)" stroke-width="1px"></line><line x1="124.94444444444444" y1="0" x2="124.94444444444444" y2="5" style="visibility: inherit;" fill="rgb(0, 0, 0)" stroke="rgb(204, 204, 204)" stroke-width="1px"></line><line x1="156.18055555555557" y1="0" x2="156.18055555555557" y2="5" style="visibility: inherit;" fill="rgb(0, 0, 0)" stroke="rgb(204, 204, 204)" stroke-width="1px"></line><line x1="187.41666666666666" y1="0" x2="187.41666666666666" y2="5" style="visibility: inherit;" fill="rgb(0, 0, 0)" stroke="rgb(204, 204, 204)" stroke-width="1px"></line><line x1="218.65277777777777" y1="0" x2="218.65277777777777" y2="5" style="visibility: inherit;" fill="rgb(0, 0, 0)" stroke="rgb(204, 204, 204)" stroke-width="1px"></line><line x1="249.88888888888889" y1="0" x2="249.88888888888889" y2="5" style="visibility: inherit;" fill="rgb(0, 0, 0)" stroke="rgb(204, 204, 204)" stroke-width="1px"></line><line x1="281.125" y1="0" x2="281.125" y2="5" style="visibility: inherit;" fill="rgb(0, 0, 0)" stroke="rgb(204, 204, 204)" stroke-width="1px"></line></g><g transform="translate(0, 8)"><text x="0" y="0" dx="0em" dy="0.95em" style="text-anchor: middle; visibility: hidden; font-family: &quot;Helvetica Neue&quot;, sans-serif; font-size: 12px; font-weight: 200;" fill="rgb(50, 49, 63)" stroke="none" stroke-width="1px">-2k</text><text x="31.23611111111111" y="0" dx="0em" dy="0.95em" style="text-anchor: middle; visibility: inherit; font-family: &quot;Helvetica Neue&quot;, sans-serif; font-size: 12px; font-weight: 200;" fill="rgb(50, 49, 63)" stroke="none" stroke-width="1px">0</text><text x="62.47222222222222" y="0" dx="0em" dy="0.95em" style="text-anchor: middle; visibility: inherit; font-family: &quot;Helvetica Neue&quot;, sans-serif; font-size: 12px; font-weight: 200;" fill="rgb(50, 49, 63)" stroke="none" stroke-width="1px">2k</text><text x="93.70833333333333" y="0" dx="0em" dy="0.95em" style="text-anchor: middle; visibility: inherit; font-family: &quot;Helvetica Neue&quot;, sans-serif; font-size: 12px; font-weight: 200;" fill="rgb(50, 49, 63)" stroke="none" stroke-width="1px">4k</text><text x="124.94444444444444" y="0" dx="0em" dy="0.95em" style="text-anchor: middle; visibility: inherit; font-family: &quot;Helvetica Neue&quot;, sans-serif; font-size: 12px; font-weight: 200;" fill="rgb(50, 49, 63)" stroke="none" stroke-width="1px">6k</text><text x="156.18055555555557" y="0" dx="0em" dy="0.95em" style="text-anchor: middle; visibility: inherit; font-family: &quot;Helvetica Neue&quot;, sans-serif; font-size: 12px; font-weight: 200;" fill="rgb(50, 49, 63)" stroke="none" stroke-width="1px">8k</text><text x="187.41666666666666" y="0" dx="0em" dy="0.95em" style="text-anchor: middle; visibility: inherit; font-family: &quot;Helvetica Neue&quot;, sans-serif; font-size: 12px; font-weight: 200;" fill="rgb(50, 49, 63)" stroke="none" stroke-width="1px">10k</text><text x="218.65277777777777" y="0" dx="0em" dy="0.95em" style="text-anchor: middle; visibility: inherit; font-family: &quot;Helvetica Neue&quot;, sans-serif; font-size: 12px; font-weight: 200;" fill="rgb(50, 49, 63)" stroke="none" stroke-width="1px">12k</text><text x="249.88888888888889" y="0" dx="0em" dy="0.95em" style="text-anchor: middle; visibility: inherit; font-family: &quot;Helvetica Neue&quot;, sans-serif; font-size: 12px; font-weight: 200;" fill="rgb(50, 49, 63)" stroke="none" stroke-width="1px">14k</text><text x="281.125" y="0" dx="0em" dy="0.95em" style="text-anchor: middle; visibility: hidden; font-family: &quot;Helvetica Neue&quot;, sans-serif; font-size: 12px; font-weight: 200;" fill="rgb(50, 49, 63)" stroke="none" stroke-width="1px">16k</text></g><line x1="0" y1="0" x2="281.125" y2="0" fill="rgb(0, 0, 0)" stroke="rgb(204, 204, 204)" stroke-width="1px"></line></g></g></g></g></svg>