<svg viewBox="0 0 330 200" xmlns="http://www.w3.org/2000/svg"><g><g><g><g><g><line x1="48.875" y1="177" x2="43.875" y2="177" style="visibility: inherit;" fill="rgb(0, 0, 0)" stroke="rgb(204, 204, 204)" stroke-width="1px"></line><line x1="48.875" y1="157.33333333333331" x2="43.875" y2="157.33333333333331" style="visibility: inherit;" fill="rgb(0, 0, 0)" stroke="rgb(204, 204, 204)" stroke-width="1px"></line><line x1="48.875" y1="137.66666666666666" x2="43.875" y2="137.66666666666666" style="visibility: inherit;" fill="rgb(0, 0, 0)" stroke="rgb(204, 204, 204)" stroke-width="1px"></line><line x1="48.875" y1="118" x2="43.875" y2="118" style="visibility: inherit;" fill="rgb(0, 0, 0)" stroke="rgb(204, 204, 204)" stroke-width="1px"></line><line x1="48.875" y1="98.33333333333331" x2="43.875" y2="98.33333333333331" style="visibility: inherit;" fill="rgb(0, 0, 0)" stroke="rgb(204, 204, 204)" stroke-width="1px"></line><line x1="48.875" y1="78.66666666666669" x2="43.875" y2="78.66666666666669" style="visibility: inherit;" fill="rgb(0, 0, 0)" stroke="rgb(204, 204, 204)" stroke-width="1px"></line><line x1="48.875" y1="59" x2="43.875" y2="59" style="visibility: inherit;" fill="rgb(0, 0, 0)" stroke="rgb(204, 204, 204)" stroke-width="1px"></line><line x1="48.875" y1="39.33333333333337" x2="43.875" y2="39.33333333333337" style="visibility: inherit;" fill="rgb(0, 0, 0)" stroke="rgb(204, 204, 204)" stroke-width="1px"></line><line x1="48.875" y1="19.666666666666686" x2="43.875" y2="19.666666666666686" style="visibility: inherit;" fill="rgb(0, 0, 0)" stroke="rgb(204, 204, 204)" stroke-width="1px"></line><line x1="48.875" y1="0" x2="43.875" y2="0" style="visibility: inherit;" fill="rgb(0, 0, 0)" stroke="rgb(204, 204, 204)" stroke-width="1px"></line></g><g transform="translate(38.875, 0)"><text x="0" y="177" dx="0em" dy="0.3em" style="text-anchor: end; visibility: hidden; font-family: &quot;Helvetica Neue&quot;, sans-serif; font-size: 12px; font-weight: 200;" fill="rgb(50, 49, 63)" stroke="none" stroke-width="1px">0.35</text><text x="0" y="157.33333333333331" dx="0em" dy="0.3em" style="text-anchor: end; visibility: inherit; font-family: &quot;Helvetica Neue&quot;, sans-serif; font-size: 12px; font-weight: 200;" fill="rgb(50, 49, 63)" stroke="none" stroke-width="1px">0.4</text><text x="0" y="137.66666666666666" dx="0em" dy="0.3em" style="text-anchor: end; visibility: hidden; font-family: &quot;Helvetica Neue&quot;, sans-serif; font-size: 12px; font-weight: 200;" fill="rgb(50, 49, 63)" stroke="none" stroke-width="1px">0.45</text><text x="0" y="118" dx="0em" dy="0.3em" style="text-anchor: end; visibility: inherit; font-family: &quot;Helvetica Neue&quot;, sans-serif; font-size: 12px; font-weight: 200;" fill="rgb(50, 49, 63)" stroke="none" stroke-width="1px">0.5</text><text x="0" y="98.33333333333331" dx="0em" dy="0.3em" style="text-anchor: end; visibility: hidden; font-family: &quot;Helvetica Neue&quot;, sans-serif; font-size: 12px; font-weight: 200;" fill="rgb(50, 49, 63)" stroke="none" stroke-width="1px">0.55</text><text x="0" y="78.66666666666669" dx="0em" dy="0.3em" style="text-anchor: end; visibility: inherit; font-family: &quot;Helvetica Neue&quot;, sans-serif; font-size: 12px; font-weight: 200;" fill="rgb(50, 49, 63)" stroke="none" stroke-width="1px">0.6</text><text x="0" y="59" dx="0em" dy="0.3em" style="text-anchor: end; visibility: hidden; font-family: &quot;Helvetica Neue&quot;, sans-serif; font-size: 12px; font-weight: 200;" fill="rgb(50, 49, 63)" stroke="none" stroke-width="1px">0.65</text><text x="0" y="39.33333333333337" dx="0em" dy="0.3em" style="text-anchor: end; visibility: inherit; font-family: &quot;Helvetica Neue&quot;, sans-serif; font-size: 12px; font-weight: 200;" fill="rgb(50, 49, 63)" stroke="none" stroke-width="1px">0.7</text><text x="0" y="19.666666666666686" dx="0em" dy="0.3em" style="text-anchor: end; visibility: hidden; font-family: &quot;Helvetica Neue&quot;, sans-serif; font-size: 12px; font-weight: 200;" fill="rgb(50, 49, 63)" stroke="none" stroke-width="1px">0.75</text><text x="0" y="0" dx="0em" dy="0.3em" style="text-anchor: end; visibility: hidden; font-family: &quot;Helvetica Neue&quot;, sans-serif; font-size: 12px; font-weight: 200;" fill="rgb(50, 49, 63)" stroke="none" stroke-width="1px">0.8</text></g><line x1="48.875" y1="0" x2="48.875" y2="177" fill="rgb(0, 0, 0)" stroke="rgb(204, 204, 204)" stroke-width="1px"></line></g></g><g transform="translate(48, 0)" clip-path="url(#clip_0)"><clipPath id="clip_0"><rect width="281" height="177"></rect></clipPath><g><g><g><line x1="0" y1="0" x2="0" y2="177" fill="rgb(0, 0, 0)" stroke="rgb(60, 60, 60)" stroke-width="1px" opacity="0.25"></line><line x1="31.23611111111111" y1="0" x2="31.23611111111111" y2="177" fill="rgb(0, 0, 0)" stroke="rgb(60, 60, 60)" stroke-width="1px" opacity="0.25"></line><line x1="62.47222222222222" y1="0" x2="62.47222222222222" y2="177" fill="rgb(0, 0, 0)" stroke="rgb(60, 60, 60)" stroke-width="1px" opacity="0.25"></line><line x1="93.70833333333333" y1="0" x2="93.70833333333333" y2="177" fill="rgb(0, 0, 0)" stroke="rgb(60, 60, 60)" stroke-width="1px" opacity="0.25"></line><line x1="124.94444444444444" y1="0" x2="124.94444444444444" y2="177" fill="rgb(0, 0, 0)" stroke="rgb(60, 60, 60)" stroke-width="1px" opacity="0.25"></line><line x1="156.18055555555557" y1="0" x2="156.18055555555557" y2="177" fill="rgb(0, 0, 0)" stroke="rgb(60, 60, 60)" stroke-width="1px" opacity="0.25"></line><line x1="187.41666666666666" y1="0" x2="187.41666666666666" y2="177" fill="rgb(0, 0, 0)" stroke="rgb(60, 60, 60)" stroke-width="1px" opacity="0.25"></line><line x1="218.65277777777777" y1="0" x2="218.65277777777777" y2="177" fill="rgb(0, 0, 0)" stroke="rgb(60, 60, 60)" stroke-width="1px" opacity="0.25"></line><line x1="249.88888888888889" y1="0" x2="249.88888888888889" y2="177" fill="rgb(0, 0, 0)" stroke="rgb(60, 60, 60)" stroke-width="1px" opacity="0.25"></line><line x1="281.125" y1="0" x2="281.125" y2="177" fill="rgb(0, 0, 0)" stroke="rgb(60, 60, 60)" stroke-width="1px" opacity="0.25"></line></g><g><line x1="0" y1="177" x2="281.125" y2="177" fill="rgb(0, 0, 0)" stroke="rgb(60, 60, 60)" stroke-width="1px" opacity="0.25"></line><line x1="0" y1="157.33333333333331" x2="281.125" y2="157.33333333333331" fill="rgb(0, 0, 0)" stroke="rgb(60, 60, 60)" stroke-width="1px" opacity="0.25"></line><line x1="0" y1="137.66666666666666" x2="281.125" y2="137.66666666666666" fill="rgb(0, 0, 0)" stroke="rgb(60, 60, 60)" stroke-width="1px" opacity="0.25"></line><line x1="0" y1="118" x2="281.125" y2="118" fill="rgb(0, 0, 0)" stroke="rgb(60, 60, 60)" stroke-width="1px" opacity="0.25"></line><line x1="0" y1="98.33333333333331" x2="281.125" y2="98.33333333333331" fill="rgb(0, 0, 0)" stroke="rgb(60, 60, 60)" stroke-width="1px" opacity="0.25"></line><line x1="0" y1="78.66666666666669" x2="281.125" y2="78.66666666666669" fill="rgb(0, 0, 0)" stroke="rgb(60, 60, 60)" stroke-width="1px" opacity="0.25"></line><line x1="0" y1="59" x2="281.125" y2="59" fill="rgb(0, 0, 0)" stroke="rgb(60, 60, 60)" stroke-width="1px" opacity="0.25"></line><line x1="0" y1="39.33333333333337" x2="281.125" y2="39.33333333333337" fill="rgb(0, 0, 0)" stroke="rgb(60, 60, 60)" stroke-width="1px" opacity="0.25"></line><line x1="0" y1="19.666666666666686" x2="281.125" y2="19.666666666666686" fill="rgb(0, 0, 0)" stroke="rgb(60, 60, 60)" stroke-width="1px" opacity="0.25"></line><line x1="0" y1="0" x2="281.125" y2="0" fill="rgb(0, 0, 0)" stroke="rgb(60, 60, 60)" stroke-width="1px" opacity="0.25"></line></g></g></g><g><g><line x1="0" y1="314.66666666666663" x2="281.125" y2="314.66666666666663" fill="rgb(0, 0, 0)" stroke="rgb(153, 153, 153)" stroke-width="1.5px"></line></g></g><g><g><line x1="31.23611111111111" y1="0" x2="31.23611111111111" y2="177" fill="rgb(0, 0, 0)" stroke="rgb(153, 153, 153)" stroke-width="1.5px"></line></g></g><g><g><g><g><g><path stroke="rgb(204, 51, 17)" stroke-width="2px" d="M31.626562500000002,142.58333333333331L32.01701388888889,142.58333333333331L32.40746527777778,123.76955782312923L32.797916666666666,121.11810661764707L33.18836805555556,130.4281459634513L33.57881944444445,130.37088256355173L33.96927083333333,160.687878049637L34.359722222222224,140.41588945332066L34.750173611111116,136.32497332960273L35.140625,152.9766252295319L35.531076388888884,173.4770166208219L35.921527777777776,164.70600753410616L36.31197916666667,170.61465495740143L36.70243055555556,165.0167845230781L37.09288194444444,173.6069654911246L37.483333333333334,178.75848839907795L38.26423611111111,191.05446409174036L38.6546875,176.5817965489511L39.04513888888889,173.28387620085098L39.43559027777778,126.58596797746955L39.82604166666667,140.7112891762045L40.21649305555555,120.38851375347176L40.60694444444444,103.04413405297659L40.997395833333336,117.45509350097282L41.38784722222222,118.93734514713108L41.77829861111111,160.00292664866737L42.168749999999996,136.88031857705323L42.55920138888889,174.28058554406425L42.94965277777778,170.7326389357365L43.34010416666667,153.99434425168036L43.730555555555554,157.15612927248242L44.121006944444446,159.84923449801906L44.51145833333333,148.02620702673443L44.90190972222222,154.90196600866307L45.29236111111111,155.7496466365191L45.682812500000004,185.13391425476397L46.07326388888889,138.39516027658618L46.46371527777778,116.36116310548893L46.854166666666664,124.27463482836998L47.24461805555556,145.64573597448575L47.63506944444445,144.42077491743532L48.02552083333333,147.90008198955684L48.41597222222222,148.58290499702417L48.80642361111111,143.6076799521956L49.196875,128.60402536438392L49.58732638888889,119.445748551621L49.97777777777778,113.29522753379877L50.368229166666666,104.68824825646091L50.75868055555556,131.55263372658513L51.14913194444444,143.6911027058484L51.53958333333333,157.38926336915438L51.930034722222224,130.39546814209166L52.320486111111116,148.61584829478946L52.7109375,159.62612310562918L53.101388888888884,141.25873981821474L53.491840277777776,135.46714932267497L53.88229166666667,116.7739381544443L54.27274305555556,122.18102955933368L54.66319444444444,111.37766267527661L55.053645833333334,85.18215253553423L55.44409722222222,115.16643571814927L55.83454861111111,95.22843821820213L56.225,94.41008291230557L56.61545138888889,102.51933523169735L57.00590277777778,151.32271381309585L57.39635416666667,134.48171816721134L57.78680555555555,148.25807584000376L58.17725694444444,150.76436609828124L58.567708333333336,133.35067520223248L58.95815972222222,135.73262859393466L59.34861111111111,148.5871932566721L59.739062499999996,113.09569713635591L60.12951388888889,103.25742015737305L60.51996527777778,88.0674148489913L60.91041666666667,109.85816820998274L61.300868055555554,113.89532591823307L61.691319444444446,140.0424868539387L62.08177083333333,155.71517407151543L62.47222222222222,110.42672616989901L62.86267361111111,114.45497744133962L63.253125000000004,112.59520243516101L63.64357638888889,133.65897247936647L64.03402777777778,114.05014003364039L64.42447916666666,110.71341735351757L64.81493055555556,124.16376201845412L65.20538194444444,144.09640431724313L65.59583333333333,169.47927049193177L65.98628472222222,173.84550112521683L66.37673611111111,139.09857096296173L66.76718749999999,124.96205560776565L67.1576388888889,157.35871567972285L67.54809027777777,158.70649969566534L67.93854166666667,137.17945099664928L68.32899305555556,117.23941091374476L68.71944444444445,151.25793025300453L69.10989583333333,167.595232868625L69.50034722222223,180.16031356519457L69.89079861111111,168.40729612429536L70.28125,153.395175121146L70.67170138888889,127.12492944911176L71.06215277777777,122.16384780872892L71.45260416666666,145.40942417265393L71.84305555555555,153.92501842189682L72.23350694444444,137.6819929473133L72.62395833333333,148.07110120013542L73.01440972222223,116.37599405341462L73.40486111111112,100.09041020488608L73.79531250000001,59.39868931700312L74.18576388888889,84.47810560502325L74.57621527777778,79.85907933337124L74.96666666666667,82.00433023704667L75.35711805555556,87.59942523598816L75.74756944444444,110.13928268726755L76.13802083333333,144.73462974851978L76.52847222222222,119.99315612212212L76.91892361111113,137.55145047920183L77.309375,119.1951586811775L77.6998263888889,124.96048107995792L78.09027777777779,123.70591994476837L78.48072916666666,91.82990528157865L78.87118055555555,99.48842069910872L79.26163194444445,109.18749936465565L79.65208333333334,101.7241404853909L80.04253472222221,68.24559602753214L80.4329861111111,63.79815037418939L80.8234375,76.11380907318711L81.21388888888887,88.27939155353143L81.60434027777778,97.28007043194592L81.99479166666667,90.20931067143968L82.38524305555556,71.68510699714274L82.77569444444444,77.53698970742059L83.16614583333333,99.65340688546716L83.55659722222222,92.7883383436216L83.94704861111111,95.52140998859484L84.33749999999999,132.26469794920652L84.72795138888888,112.79215585397624L85.11840277777777,104.72979205771452L85.50885416666667,119.87120856796207L85.89930555555556,92.15129817697112L86.28975694444445,74.06776267591741L86.68020833333334,33.0152631022749L87.07065972222223,74.1266200990409L87.46111111111111,70.88548890258456L87.8515625,69.409071744515L88.24201388888889,60.843855655809364L88.63246527777777,38.31689224836438L89.02291666666666,60.04463389434743L89.41336805555555,70.93511366994177L89.80381944444444,72.18593169938123L90.19427083333333,88.2171120744383L90.58472222222223,85.70804939874623L90.97517361111112,88.5729748698589L91.36562500000001,90.97870377058887L91.75607638888889,139.76261770340864L92.14652777777778,92.16127078302539L92.53697916666667,79.88010330538656L92.92743055555556,94.14473427657708L93.31788194444444,99.53498954767643L93.70833333333333,89.43952266689934L94.09878472222222,94.30815491865154L94.48923611111113,65.76266947859574L94.8796875,55.34702095671925L95.2701388888889,44.04048577120565L95.66059027777779,46.18461231691043L96.05104166666666,63.251239293629325L96.44149305555555,75.09888880678872L96.83194444444445,70.5167411082716L97.22239583333334,67.65820114893103L97.61284722222221,109.10047468194794L98.0032986111111,107.08806321213304L98.39375,76.70838910652992L98.78420138888887,77.16392360317981L99.17465277777778,79.63803518328038L99.56510416666667,79.29631674595456L99.95555555555556,71.55238991761874L100.34600694444444,81.0473116106868L100.73645833333333,99.2622456789263L101.12690972222222,116.1536378685781L101.51736111111111,126.61625533645245L101.90781249999999,127.54012096729812L102.29826388888888,93.98994648937547L102.68871527777777,97.92809023350974L103.07916666666667,87.94467476541101L103.46961805555556,66.97050877134582L103.86006944444445,63.67304829589871L104.25052083333334,74.91494071383684L104.64097222222223,78.10134270131238L105.03142361111111,99.19598903461088L105.421875,77.96680441421543L105.81232638888889,67.10230237000549L106.20277777777777,65.93731068225719L106.59322916666666,38.95365294606697L106.98368055555555,61.72219551875915L107.37413194444444,72.62062193517718L107.76458333333333,99.07607988654476L108.15503472222223,79.95517040176533L108.54548611111112,65.01753793289274L108.93593750000001,68.1827387300929L109.32638888888889,79.52498239007396L109.71684027777778,92.90150130029598L110.10729166666667,106.00015399596738L110.49774305555556,61.961207884997066L110.88819444444444,81.87937038249765L111.27864583333333,63.549838199855856L111.66909722222222,86.76588284252605L112.05954861111113,81.23175505367033L112.45,94.8464646075196L112.8404513888889,92.35470398271244L113.23090277777779,58.69060454371072L113.62135416666666,82.78896353405219L114.01180555555555,103.42892742412192L114.40225694444445,77.04149004771452L114.79270833333334,68.8415606952954L115.18315972222221,43.45890208108716L115.5736111111111,87.80681981259681L115.9640625,88.17774044839994L116.35451388888887,63.723312811266155L116.74496527777778,91.94271364780909L117.13541666666667,62.376730547185616L117.52586805555556,78.07047964682336L117.91631944444444,85.62932503352656L118.30677083333333,83.2813008077746L118.69722222222222,82.46560382730597L119.08767361111111,97.7719507210662L119.47812499999999,100.40020955363173L119.86857638888888,90.42688809688444L120.25902777777777,65.63470964544354L120.64947916666667,50.19749432949226L121.03993055555556,54.70182805546919L121.43038194444445,62.85178451511544L121.82083333333334,55.95736492141059L122.21128472222223,53.56886589803682L122.60173611111111,80.90216483441027L122.9921875,67.92701425810871L123.38263888888889,79.87883028185496L123.77309027777777,67.59397233801762L124.16354166666666,82.44950658447155L124.55399305555555,67.16970395068296L124.94444444444444,58.32959514669558L125.33489583333333,62.5310904213507L125.72534722222223,81.55014031899289L126.11579861111112,84.34569072190317L126.50625000000001,53.22963227905865L126.89670138888889,53.290159516004934L127.28715277777778,79.5018731747875L127.67760416666667,84.30297492314234L128.06805555555556,82.0484478694331L128.45850694444445,76.10684712462412L128.84895833333331,70.94982738335601L129.2394097222222,71.10217150274717L129.62986111111113,74.40892462863806L130.02031250000002,79.98291927735576L130.41076388888888,85.35641823308012L130.80121527777777,66.197975155292L131.19166666666666,89.35370206628923L131.58211805555555,66.47359660344132L131.97256944444445,59.22304997688617L132.36302083333334,62.20870098578587L132.75347222222223,66.21648712818418L133.14392361111112,68.02804125864067L133.53437499999998,92.16867577345424L133.92482638888887,83.49009372777496L134.3152777777778,41.75913363687249L134.70572916666669,91.68802075778677L135.09618055555555,69.43502842502934L135.48663194444444,72.86234456966605L135.87708333333333,67.41105717820102L136.26753472222222,70.60218736173016L136.65798611111111,72.0798319775341L137.0484375,81.27012078355617L137.4388888888889,57.93984899753852L137.82934027777776,71.03798764050715L138.21979166666665,60.94712882698005L138.61024305555557,65.97462873534614L139.00069444444446,77.49773812021569L139.39114583333333,61.57642315065317L139.78159722222222,74.54664664806198L140.1720486111111,58.49465840662285L140.5625,52.79679504397373L140.9529513888889,64.3309844296944L141.34340277777778,48.21340067953497L141.73385416666667,58.91970707438763L142.12430555555554,71.40738105056111L142.51475694444443,74.0925794876263L142.90520833333332,66.08887727479014L143.2956597222222,86.85332636487405L143.6861111111111,88.16755262485299L144.0765625,82.07274754526902L144.46701388888889,92.91613375156734L144.85746527777775,79.91158286934863L145.24791666666667,96.14589146100943L145.63836805555556,96.08436197036585L146.02881944444445,106.38024379011442L146.41927083333334,65.13926363704475L146.80972222222223,63.52641961207715L147.20017361111113,68.69283366142147L147.59062500000002,91.69347953759689L147.98107638888888,67.14387550331986L148.37152777777777,27.175215441253783L148.76197916666666,72.77655904189764L149.15243055555555,96.8751952053866L149.54288194444445,71.8917875410176L149.93333333333334,65.42395703719399L150.32378472222223,66.47553943431184L150.71423611111112,65.6392949511755L151.10468749999998,50.52801828921727L151.49513888888887,79.70199720069306L151.88559027777777,73.01326136591756L152.27604166666666,76.96033509256078L152.66649305555555,113.41747321892757L153.05694444444444,111.31715434914217L153.44739583333333,94.32362594281864L153.83784722222225,107.44655571426091L154.22829861111111,104.98750937409285L154.61875,118.49620766099544L155.0092013888889,86.69058039976905L155.3996527777778,104.83339317953838L155.79010416666668,72.40558521141364L156.18055555555557,70.97668446018153L156.57100694444446,99.40082726228545L156.96145833333333,81.08653256902087L157.35190972222222,100.7685862080792L157.7423611111111,71.82412385721244L158.1328125,53.864319513912434L158.5232638888889,74.0556308293395L158.91371527777778,75.24449586057978L159.30416666666667,94.75040049066733L159.69461805555554,56.05420408275083L160.08506944444443,56.2491891163172L160.47552083333332,58.005062773480915L160.8659722222222,52.50303766408855L161.2564236111111,56.74070898659603L161.646875,46.49998594900515L162.03732638888889,55.66745099373986L162.42777777777775,47.60416513054568L162.81822916666667,71.76673212072647L163.20868055555556,80.61400868746477L163.59913194444445,71.64062680951461L163.98958333333334,29.87326622497065L164.38003472222223,26.11839917793486L164.77048611111113,13.282944000728577L165.16093750000002,40.18564030943378L165.55138888888888,58.85583113085072L165.94184027777777,61.254772717460995L166.33229166666666,55.38936799449026L166.72274305555555,66.33916634926577L167.11319444444445,62.326519790943706L167.50364583333334,88.96628432889158L167.89409722222223,59.60755462697766L168.28454861111112,57.61638379445644L168.67499999999998,67.01983027667387L169.06545138888887,73.78570527838025L169.45590277777777,79.2343915482741L169.84635416666666,64.91286215267866L170.23680555555555,74.12919773111115L170.62725694444444,61.52196370829763L171.01770833333333,61.44968634011124L171.40815972222225,55.78727497952249L171.79861111111111,34.78348235068955L172.1890625,46.764530728925706L172.5795138888889,60.3682390316344L172.9699652777778,68.90506950998405L173.36041666666668,40.03192996969287L173.75086805555557,54.83026596699436L174.14131944444446,52.5648243713038L174.53177083333333,41.27857939527374L174.92222222222222,46.72825937346187L175.3126736111111,42.78695374851765L175.703125,30.72931644593882L176.0935763888889,40.164566135060085L176.48402777777778,18.85428898472665L176.87447916666667,46.71256588859805L177.26493055555554,80.47197897611132L177.65538194444443,62.04984842565497L178.04583333333332,56.350279634158895L178.4362847222222,65.27683069604306L178.8267361111111,53.588314387983104L179.2171875,49.08817298439304L179.60763888888889,60.26402115361188L179.99809027777775,89.9139619958577L180.38854166666667,87.38171428196694L180.77899305555556,65.54013467879932L181.16944444444445,30.80185545912491L181.55989583333334,57.59593267499076L181.95034722222223,48.66760745401385L182.34079861111113,42.639462113908166L182.73125000000002,65.91595984331639L183.12170138888888,100.6411088834119L183.51215277777777,94.03651447275752L183.90260416666666,104.05894686686678L184.29305555555555,110.7279565448027L184.68350694444445,108.82936797824269L185.07395833333334,96.7642837024933L185.46440972222223,110.40936297916609L185.85486111111112,89.19005723045211L186.24531249999998,68.3420744930463L186.63576388888887,96.72746816842299L187.02621527777777,62.34442348223054L187.41666666666666,80.89184594317945L187.80711805555555,69.18510006366971L188.19756944444444,76.77059188583775L188.58802083333333,92.9813963200606L188.97847222222225,117.45788366949303L189.36892361111111,111.44695367429105L189.759375,111.88298597741193L190.1498263888889,103.09170170709332L190.5402777777778,121.22961995652221L190.93072916666668,100.59887808353247L191.32118055555557,75.56196312382146L191.71163194444446,75.82051308318573L192.10208333333333,107.34865647573031L192.49253472222222,87.57215476444617L192.8829861111111,61.72106938607253L193.2734375,84.8881965620126L193.6638888888889,82.83662372486624L194.05434027777778,78.32789599293572L194.44479166666667,101.17372042771638L194.83524305555554,97.85237748724101L195.22569444444443,72.91512102664635L195.61614583333332,56.57922929196232L196.0065972222222,69.20706004501587L196.3970486111111,45.87899257303002L196.7875,72.26125988301075L197.17795138888889,64.33453058165173L197.56840277777775,76.0142083582989L197.95885416666667,53.475191681645995L198.34930555555556,93.70733754380306L198.73975694444445,74.57994807885346L199.13020833333334,51.272306965547344L199.52065972222223,62.604652591600555L199.91111111111113,59.633164009285736L200.30156250000002,80.35767868409519L200.69201388888888,73.12572082231421L201.08246527777777,56.65876582672185L201.47291666666666,96.92859658048539L201.86336805555555,87.00160114236269L202.25381944444445,75.76973637104587L202.64427083333334,46.77294980780616L203.03472222222223,47.948946734048945L203.42517361111112,52.60349788255178L203.81562499999998,47.38908062370626L204.20607638888887,29.978682450405813L204.59652777777777,54.26128771222754L204.98697916666666,90.13640017301118L205.37743055555555,70.47073024306857L205.76788194444444,53.09909731026987L206.15833333333333,51.30761111901107L206.54878472222225,75.95546450491292L206.93923611111111,102.51296066209996L207.3296875,87.72999986985518L207.7201388888889,52.35704861270902L208.1105902777778,49.39518797906749L208.50104166666668,39.14267146892854L208.89149305555557,24.70306418125338L209.28194444444446,35.79962253839483L209.67239583333333,26.068665537858237L210.06284722222222,38.58564814346488L210.4532986111111,47.56302225043845L210.84375,61.31558612654888L211.2342013888889,96.22639267248087L211.62465277777778,83.52101620397274L212.01510416666667,118.66499174651288L212.40555555555554,93.48788893828858L212.79600694444443,82.31495683556834L213.18645833333332,47.750080210960135L213.5769097222222,79.97068045715268L213.9673611111111,80.1046354980058L214.3578125,57.89611275657735L214.74826388888889,36.048785016922494L215.13871527777775,37.22212681332525L215.52916666666667,72.81105073984044L215.91961805555556,61.38663044390427L216.31006944444445,50.92642146041402L216.70052083333334,30.930447119615934L217.09097222222223,96.56937813250765L217.48142361111113,71.17760773989686L217.87187500000002,55.162125200985614L218.26232638888888,39.65283192651992L218.65277777777777,67.71392450406664L219.04322916666666,60.513540929602655L219.43368055555555,73.8308752850972L219.82413194444445,68.17946897802447L220.21458333333334,87.87355529581129L220.60503472222223,99.59636040120098L220.99548611111112,121.5907531952189L221.38593749999998,71.20630668652015L221.77638888888887,80.52748417289229L222.16684027777777,74.75723541238608L222.55729166666666,92.17920662040729L222.94774305555555,112.77789079989127L223.33819444444444,120.67308216797392L223.72864583333333,117.63717513187972L224.11909722222225,107.73045030973901L224.50954861111111,85.39753277943068L224.9,106.74222170419813L225.2904513888889,83.85246784154965L225.6809027777778,78.84375577766335L226.07135416666668,68.93958304881232L226.46180555555557,76.32670883273589L226.85225694444446,107.85528601766926L227.24270833333333,81.57031393187027L227.63315972222222,64.4570021319595L228.0236111111111,30.807540239187517L228.4140625,32.157538498218315L228.8045138888889,60.75060340848094L229.19496527777778,57.75591885101713L229.58541666666667,53.00910624097935L229.97586805555554,81.58086012342264L230.36631944444443,65.11888477725996L230.75677083333332,79.8094282479478L231.1472222222222,89.84121750581618L231.5376736111111,72.26028543385878L231.928125,75.36912838820426L232.31857638888889,55.42940460962342L232.70902777777775,50.302087835405004L233.09947916666667,62.319084579905095L233.48993055555556,98.51420241305843L233.88038194444445,50.91407825376359L234.27083333333334,50.12145568028551L234.66128472222223,68.32922109621042L235.05173611111113,84.91974862808351L235.44218750000002,99.55660572287061L235.83263888888888,98.19321852507164L236.22309027777777,76.99053661176747L236.61354166666666,65.20543182779859L237.00399305555555,94.84548256927435L237.39444444444445,97.9887643543901L237.78489583333334,94.52104264227678L238.17534722222223,64.25151947574693L238.56579861111112,108.57048763098446L238.95624999999998,92.12933169958269L239.34670138888887,94.67336785291003L239.73715277777777,70.57069112953167L240.12760416666666,105.93130669254036L240.51805555555555,118.18841437453808L240.90850694444444,104.18248994323483L241.29895833333333,119.5428272992742L241.68940972222225,63.859025961778855L242.07986111111111,71.74875266151963L242.4703125,59.43814173617362L242.8607638888889,54.455473466386806L243.2512152777778,64.88915798882867L243.64166666666668,33.689053474785254L244.03211805555557,60.63936134512508L244.42256944444446,41.50318900149233L244.81302083333333,39.48021343192164L245.20347222222222,67.04844516222103L245.5939236111111,47.4870021762714L245.984375,54.21495390865789L246.3748263888889,51.54008220593283L246.76527777777778,37.854211626212674L247.15572916666667,25.662526975727644L247.54618055555554,53.201216346416814L247.93663194444443,85.79335153483984L248.32708333333332,39.676010920903906L248.7175347222222,82.71195330280176L249.1079861111111,89.39753693376845L249.4984375,106.082970981011L249.88888888888889,74.5757118488605L250.27934027777775,76.43061146091948L250.66979166666667,86.93985106717469L251.06024305555556,81.33612661066209L251.45069444444445,81.14242462616694L251.84114583333334,51.16720259369329L252.23159722222223,50.03920419323987L252.62204861111113,62.80130467002718L253.01250000000002,57.67522974720673L253.40295138888888,70.87921609030806L253.79340277777777,66.4553061815896L254.18385416666666,55.23191342112219L254.57430555555555,50.948408770701064L254.96475694444445,50.42301280189005L255.35520833333334,40.41492129299115L255.74565972222223,54.40450583060425L256.1361111111111,44.34905306196123L256.5265625,54.79832010087915L256.9170138888889,25.995658727194154L257.3074652777778,40.50850884817359L257.69791666666663,84.19478445471714L258.0883680555555,71.21369589103097L258.4788194444444,54.43456709821719L258.8692708333333,58.88296373152555L259.25972222222225,84.05940484681024L259.65017361111114,69.54039945410668L260.04062500000003,84.24169909680079L260.4310763888889,71.5227941099258L260.82152777777776,49.469233271884036L261.21197916666665,65.1751885239723L261.60243055555554,71.66436445461366L261.99288194444443,58.731953881661056L262.3833333333333,70.87330029555953L262.7737847222222,97.30968990811981L263.1642361111111,65.48766496314177L263.5546875,81.9037050875042L263.9451388888889,44.05385641686209L264.3355902777778,60.41194514691088L264.7260416666667,99.18049948370009L265.11649305555557,90.86570188773997" style="fill: none;" fill="none"></path></g></g></g></g><g opacity="0.2"><g><g><g><path stroke="rgb(204, 51, 17)" stroke-width="2px" d="M31.626562500000002,142.58333333333331L32.01701388888889,142.58333333333331L32.40746527777778,105.70833333333333L32.797916666666666,118L33.18836805555556,142.58333333333331L33.57881944444445,130.29166666666666L33.96927083333333,204.04166666666666L34.359722222222224,110.85913546880086L34.750173611111116,130.29166666666666L35.140625,177.70238765080768L35.531076388888884,204.04166666666666L35.921527777777776,151.5972253481547L36.31197916666667,179.45833333333331L36.70243055555556,156.63094568252563L37.09288194444444,186.48213950792947L37.87378472222222,234.67328079541522L38.26423611111111,175.94643024603525L38.6546875,154.875L39.04513888888889,168.33729712168375L39.43559027777778,56.541666666666686L39.82604166666667,161.89880617459613L40.21649305555555,89.9047518571218L40.60694444444444,77.02776996294658L40.997395833333336,139.07143024603525L41.38784722222222,121.16071629524231L41.77829861111111,221.60119382540384L42.168749999999996,102.19644196828206L42.55920138888889,230.38095154364902L42.94965277777778,165.41072098414102L43.34010416666667,128.8869077761968L43.730555555555554,161.89880617459613L44.121006944444446,163.88889201482135L44.51145833333333,130.29166666666666L44.90190972222222,165.21560418605804L45.29236111111111,157.0211675564448L45.682812500000004,229.21031522750854L46.07326388888889,68.2870297431946L46.46371527777778,83.3101674715678L46.854166666666664,136.14484238624573L47.24461805555556,177.70238765080768L47.63506944444445,142.58333333333331L48.02552083333333,153.11904259522754L48.41597222222222,149.60713950792947L48.80642361111111,136.14484238624573L49.196875,106.09854348500569L49.58732638888889,105.70833333333333L49.97777777777778,104.06944600741069L50.368229166666666,91.77777934074402L50.75868055555556,171.84921193122864L51.14913194444444,161.89880617459613L51.53958333333333,177.93650436401367L51.930034722222224,89.9047753016154L52.320486111111116,175.94641852378845L52.7109375,176.14153532187143L53.101388888888884,113.70766488711038L53.491840277777776,126.77976357936859L53.88229166666667,88.7341214021047L54.27274305555556,130.29166666666666L54.66319444444444,95.1726123491923L55.053645833333334,45.88888732592267L55.44409722222222,160.1428604920705L55.83454861111111,65.32144196828207L56.225,93.1825499534607L56.61545138888889,114.68321371078491L57.00590277777778,224.52778168519336L57.39635416666667,109.2202246983846L57.78680555555555,168.9226123491923L58.17725694444444,154.52380148569742L58.567708333333336,107.23013885815938L58.95815972222222,139.30555868148804L59.34861111111111,167.8690402507782L59.739062499999996,59.85845295588176L60.12951388888889,88.50000468889873L60.51996527777778,65.28240688641867L60.91041666666667,142.5442982514699L61.300868055555554,119.95106248060861L61.691319444444446,179.26322825749713L62.08177083333333,179.22420489788055L62.47222222222222,42.494054317474394L62.86267361111111,120.49735434850056L63.253125000000004,109.80553992589314L63.64357638888889,165.25462754567462L64.03402777777778,84.63689136505127L64.42447916666666,105.70833333333333L64.81493055555556,144.33927901585895L65.20538194444444,173.99536776542664L65.59583333333333,207.55356975396472L65.98628472222222,180.39484707514444L66.37673611111111,86.97817571957907L66.76718749999999,103.75728257497151L67.1576388888889,205.9537057876587L67.54809027777777,160.72817571957904L67.93854166666667,104.8888779481252L68.32899305555556,87.32935078938802L68.71944444444445,202.28570926189423L69.50034722222223,199.00793461004892L69.89079861111111,150.77776996294656L70.28125,130.876993616422L70.67170138888889,87.7195609410604L71.06215277777777,114.72222534815471L71.45260416666666,180.27778871854144L71.84305555555555,166.6984097957611L72.23350694444444,113.31745473543803L72.62395833333333,163.6547635793686L73.01440972222223,68.83333333333334L73.40486111111112,75.66203443209331L73.79531250000001,-1.6388920148213515L74.18576388888889,122.09723003705344L74.57621527777778,72.93053992589316L74.96666666666667,85.22220659255981L75.35711805555556,95.99206773440044L75.74756944444444,143.9490688641866L76.13802083333333,196.62765034039813L76.52847222222222,82.88094568252563L76.91892361111113,163.88889201482135L77.309375,91.66072098414104L77.6998263888889,133.60846467812854L78.09027777777779,121.82407824198405L78.48072916666666,44.015883286794036L78.87118055555555,110.97619382540385L79.26163194444445,123.73611736297607L79.65208333333334,90.52910216649374L80.04253472222221,18.02777934074402L80.4329861111111,57.12698189417523L80.8234375,94.58729712168376L81.21388888888887,106.52776527404785L81.60434027777778,110.78108874956767L81.99479166666667,79.60317103068036L82.38524305555556,43.89880148569745L82.77569444444444,86.31481377283733L83.16614583333333,132.82803265253702L83.55659722222222,82.49073553085329L83.94704861111111,99.62101745605469L84.33749999999999,187.379629890124L84.72795138888888,83.58334271113078L85.11840277777777,92.63624636332194L85.50885416666667,142.58333333333331L85.89930555555556,50.57143259048463L86.28975694444445,46.94245942433676L86.68020833333334,-28.563486258188874L87.07065972222223,135.79365559418997L87.46111111111111,66.02379210790001L87.8515625,67.1944460074107L88.24201388888889,47.996031522750854L88.63246527777777,4.526447137196868L89.02291666666666,92.63624636332194L89.41336805555555,87.27083333333334L89.80381944444444,74.06215874354045L90.19427083333333,112.26388263702393L90.58472222222223,81.94445538520814L90.97517361111112,92.87036307652792L91.36562500000001,94.58729712168376L91.75607638888889,212.93848860263824L92.14652777777778,20.75925040245056L92.53697916666667,61.45835208892822L92.92743055555556,115.54168073336282L93.31788194444444,107.62037245432536L93.70833333333333,74.29632234573366L94.09878472222222,101.61110329627991L94.48923611111113,22.94444131851199L94.8796875,39.72354817390442L95.2701388888889,27.08068299293521L95.66059027777779,49.40080213546754L96.05104166666666,88.85117975870769L96.44149305555555,92.87036307652792L96.83194444444445,63.64351956049603L97.22239583333334,63.37039120992026L97.61284722222221,171.26388498147327L98.0032986111111,104.06944600741069L98.39375,31.138877948125213L98.78420138888887,77.84722534815472L99.17465277777778,83.3492025534312L99.56510416666667,78.78373908996582L99.95555555555556,59.93649967511496L100.34600694444444,95.28969415028891L100.73645833333333,126.5846467812856L101.12690972222222,141.49072615305582L101.51736111111111,142.31018153826395L101.90781249999999,128.9259194135666L102.29826388888888,43.66468477249148L102.68871527777777,103.8353058497111L103.07916666666667,72.96955156326295L103.46961805555556,35.509259780248016L103.86006944444445,58.72685758272807L104.25052083333334,91.77777934074402L104.64097222222223,82.88094568252563L105.03142361111111,130.8379585345586L105.421875,46.123027483622224L105.81232638888889,50.8055493036906L106.20277777777777,64.18982315063478L106.59322916666666,-1.5218336582183838L106.98368055555555,95.87500937779745L107.37413194444444,88.96826155980428L107.76458333333333,138.75926681359607L108.15503472222223,51.273806174596174L108.54548611111112,42.61108922958374L108.93593750000001,72.93053992589316L109.32638888888889,96.53834788004558L109.71684027777778,112.96627966562907L110.10729166666667,125.64813303947449L110.49774305555556,-4.097211281458527L110.88819444444444,111.75661412874858L111.27864583333333,36.05553992589316L111.66909722222222,121.58994980653128L112.05954861111113,72.93056337038676L112.45,115.26852893829346L112.8404513888889,88.61706304550171L113.23090277777779,8.194455385208158L113.62135416666666,118.9365020195643L114.01180555555555,134.38887325922647L114.40225694444445,37.46033398310345L114.79270833333334,56.541666666666686L115.18315972222221,5.384914159774809L115.5736111111111,154.32869640986124L115.9640625,88.7341214021047L116.35451388888887,27.0416713555654L116.74496527777778,134.2718149026235L117.13541666666667,18.027755896250426L117.52586805555556,101.61110329627991L117.91631944444444,96.96759311358134L118.30677083333333,79.75926446914673L118.69722222222222,81.242058356603L119.08767361111111,120.73147106170654L119.47812499999999,104.34259780248006L119.86857638888888,75.4669059117635L120.25902777777777,28.446441968282073L120.64947916666667,27.0416713555654L121.03993055555556,61.458328644434616L121.43038194444445,75.07671920458476L121.82083333333334,45.61573553085327L122.21128472222223,49.98611736297609L122.60173611111111,121.90211323897043L122.9921875,48.4642883936564L123.38263888888889,97.80655431747437L123.77309027777777,49.166685422261565L124.16354166666666,104.73280795415243L124.55399305555555,44.25000000000003L124.94444444444444,45.06943194071454L125.33489583333333,68.83333333333334L125.72534722222223,110.07871516545615L126.11579861111112,88.53901632626852L126.50625000000001,6.5555446147918985L126.89670138888889,53.38095037142436L127.28715277777778,118.81944366296133L127.67760416666667,91.50462754567465L128.06805555555556,78.66665728886923L128.45850694444445,67.1944460074107L128.84895833333331,63.21429777145386L129.2394097222222,71.33068768183392L129.62986111111113,79.36905431747437L130.02031250000002,88.34391125043234L130.41076388888888,93.41666666666667L130.80121527777777,37.46031053860983L131.19166666666666,124.08729243278503L131.58211805555555,32.153438409169524L131.97256944444445,48.347230037053436L132.36302083333334,66.68717749913533L132.75347222222223,72.22816634178162L133.14392361111112,70.74537245432538L133.53437499999998,128.37962754567462L133.92482638888887,70.47222065925598L134.3152777777778,-20.837306499481173L134.70572916666669,166.5813514391581L135.09618055555555,36.05553992589316L135.48663194444444,78.0033187866211L135.87708333333333,59.23412609100342L136.26753472222222,75.38888263702394L136.65798611111111,74.29629890124005L137.0484375,95.05555399258932L137.4388888888889,22.94444131851199L137.82934027777776,90.68519560496013L138.21979166666665,45.81084060668945L138.61024305555557,73.51587859789531L139.00069444444446,94.78240219751994L139.39114583333333,37.69445069630942L139.78159722222222,94.00198189417522L140.1720486111111,34.41667604446411L140.5625,44.25000000000003L140.9529513888889,81.63226850827536L141.34340277777778,24.037025054295867L141.73385416666667,74.97916666666667L142.12430555555554,90.13889201482137L142.51475694444443,78.12037714322409L142.90520833333332,54.0833239555359L143.2956597222222,118L143.6861111111111,90.13889201482137L144.0765625,72.93053992589316L144.46701388888889,109.18121306101482L144.85746527777775,60.40475654602051L145.24791666666667,120.49735434850056L145.63836805555556,95.99206773440044L146.02881944444445,121.82406651973724L146.41927083333334,3.2777934074401855L146.80972222222223,61.107153574625656L147.20017361111113,76.44245473543803L147.59062500000002,126.19444835186005L147.98107638888888,30.319469451904297L148.37152777777777,-32.77777465184525L148.76197916666666,141.17857444286346L149.15243055555555,133.02314945062L149.54288194444445,34.41667604446411L149.93333333333334,55.72221128145854L150.32378472222223,68.05291302998862L150.71423611111112,64.38492822647095L151.10468749999998,27.861103296279907L151.49513888888887,123.46296556790669L151.88559027777777,62.98015761375429L152.27604166666666,82.88094568252563L152.66649305555555,168.10318040847778L153.05694444444444,108.16667604446411L153.44739583333333,68.83333333333334L153.83784722222225,127.13095037142436L154.22829861111111,101.29893986384074L154.61875,138.75925509134927L155.0092013888889,38.982139507929475L155.3996527777778,132.0476123491923L155.79010416666668,23.7638732592265L156.18055555555557,68.83333333333334L156.57100694444446,142.03704146544138L156.96145833333333,53.61509052912396L157.35190972222222,130.29166666666666L157.7423611111111,28.40743033091229L158.1328125,26.924612998962402L158.5232638888889,104.34259780248006L158.91371527777778,77.02779340744019L159.30416666666667,124.00925743579865L159.69461805555554,-1.9900905291239326L160.08506944444443,56.541666666666686L160.47552083333332,60.6388732592265L160.8659722222222,44.25000000000003L161.2564236111111,63.09721597035728L161.646875,31.138901392618834L162.03732638888889,69.41864856084189L162.42777777777775,35.509236335754395L162.81822916666667,108.01058260599773L163.20868055555556,93.88492353757223L163.59913194444445,58.180553992589324L163.98958333333334,-32.77777465184525L164.38003472222223,20.486098607381194L164.77048611111113,-5.970238765080751L165.16093750000002,80.53968477249146L165.55138888888888,86.86111736297607L165.94184027777777,64.85318509737652L166.33229166666666,46.59126091003421L166.72274305555555,82.76386388142905L167.11319444444445,56.30754995346069L167.50364583333334,128.9259311358134L167.89409722222223,15.569460074106871L168.28454861111112,54.62962754567465L168.67499999999998,81.125L169.06545138888887,83.93451778093974L169.45590277777777,87.40742095311482L169.84635416666666,43.43056805928549L170.23680555555555,87.95370109875996L170.62725694444444,42.61111267407736L171.01770833333333,61.34127028783165L171.40815972222225,47.29365793863931L171.79861111111111,3.2777934074401855L172.1890625,64.73610329627992L172.5795138888889,80.77380148569745L172.9699652777778,81.71031522750854L173.36041666666668,-3.2777793407440186L173.75086805555557,77.02776996294658L174.14131944444446,49.166661977767944L174.53177083333333,24.349211931228638L174.92222222222222,54.90277934074402L175.3126736111111,36.87499531110129L175.703125,12.642860492070525L176.0935763888889,54.31744066874187L176.48402777777778,-13.1111267407735L176.87447916666667,88.4999812444051L177.26493055555554,131.11109860738117L177.65538194444443,34.41665259997052L178.04583333333332,47.8009264469147L178.4362847222222,78.66665728886923L178.8267361111111,36.05553992589316L179.2171875,42.337960879007994L179.60763888888889,77.02779340744019L179.99809027777775,134.38887325922647L180.38854166666667,83.58334271113078L180.77899305555556,32.77776527404785L181.16944444444445,-21.30556337038675L181.55989583333334,97.78704849878947L181.95034722222223,35.27511962254843L182.34079861111113,33.5972441037496L182.73125000000002,100.83070643742879L183.12170138888888,152.72883244355518L183.51215277777777,84.12962285677592L183.90260416666666,119.0925954580307L184.29305555555555,120.73147106170654L184.68350694444445,105.98148512840271L185.07395833333334,78.66665728886923L185.46440972222223,130.8769818941752L185.85486111111112,57.361098607381194L186.24531249999998,37.07010038693747L186.63576388888887,139.30555868148804L187.02621527777777,10.769856452941895L187.41666666666666,108.71297963460286L187.80711805555555,51.62498124440512L188.19756944444444,88.14882961908977L188.58802083333333,117.29760297139487L188.97847222222225,154.17261469364166L189.36892361111111,102.43055868148804L189.759375,112.53703443209331L190.1498263888889,89.9047753016154L190.5402777777778,148.4364973306656L190.93072916666668,69.65276527404785L191.32118055555557,38.006590684254974L191.71163194444446,76.20833802223206L192.10208333333333,154.6408715645472L192.49253472222222,57.90740219751994L192.8829861111111,22.94444131851199L193.2734375,119.63888732592264L193.6638888888889,79.75926446914673L194.05434027777778,71.56480439503989L194.44479166666667,135.4424570798874L194.83524305555554,92.87036307652792L195.22569444444443,35.509236335754395L195.61614583333332,32.07539168993634L196.0065972222222,88.14880617459616L196.3970486111111,10.88689136505127L196.7875,111.83466084798178L197.17795138888889,52.444436629613264L197.56840277777775,93.53372502326965L197.95885416666667,19.666666666666686L198.34930555555556,154.05555633703867L198.73975694444445,45.888863881429046L199.13020833333334,16.310845295588194L199.52065972222223,79.60317103068036L199.91111111111113,55.1759311358134L200.30156250000002,111.4444506963094L200.69201388888888,62.277784029642746L201.08246527777777,31.958333333333343L201.47291666666666,157.33334271113077L201.86336805555555,72.11110798517863L202.25381944444445,58.92193921407066L202.64427083333334,3.277769962946593L203.03472222222223,49.712942123413086L203.42517361111112,59.58532460530601L203.81562499999998,39.56745473543802L204.20607638888887,3.8630851904551378L204.59652777777777,90.68519560496013L204.98697916666666,143.9490688641866L205.37743055555555,40.97222534815472L205.76788194444444,27.041647911071806L206.15833333333333,48.6203818321228L206.54878472222225,112.92724458376567L206.93923611111111,142.34920489788055L207.3296875,65.55555868148804L207.7201388888889,-0.7023782730102539L208.1105902777778,44.952397028605134L208.50104166666668,23.763896703720093L208.89149305555557,3.043653249740629L209.28194444444446,52.44446007410687L209.67239583333333,11.472230037053436L210.06284722222222,57.3611220518748L210.4532986111111,61.02908341089885L210.84375,81.94443194071451L211.2342013888889,148.59260249137878L211.62465277777778,64.46295150121054L212.01510416666667,171.38095506032306L212.40555555555554,55.72223472595215L212.79600694444443,65.55555868148804L213.18645833333332,-4.09723472595212L213.5769097222222,128.30158082644147L213.9673611111111,80.30556805928548L214.3578125,24.58332864443463L214.74826388888889,3.2777934074401855L215.13871527777775,38.982139507929475L215.52916666666667,126.19443662961325L215.91961805555556,44.25000000000003L216.31006944444445,35.23610798517865L216.70052083333334,0.936485608418792L217.09097222222223,195.02777465184528L217.48142361111113,33.08995215098065L217.87187500000002,31.138901392618834L218.26232638888888,16.38889201482138L218.65277777777777,109.80556337038676L219.04322916666666,49.71296556790671L219.43368055555555,93.80687681833903L219.82413194444445,59.702359517415374L220.21458333333334,117.41468477249146L220.60503472222223,117.18056805928549L220.99548611111112,154.58234238624573L221.38593749999998,-4.370363076527866L221.77638888888887,94.50925040245056L222.16684027777777,66.10186227162681L222.55729166666666,118.31216343243918L222.94774305555555,143.67591706911722L223.33819444444444,132.51586922009784L223.72864583333333,113.08331457773843L224.11909722222225,92.87036307652792L224.50954861111111,51.89815648396812L224.9,138.75925509134927L225.2904513888889,49.51783704757692L225.6809027777778,71.33068768183392L226.07135416666668,54.0833239555359L226.46180555555557,87.40739750862122L226.85225694444446,155.14815179506937L227.24270833333333,42.14285580317181L227.63315972222222,38.78703443209332L228.0236111111111,-19.66665259997049L228.4140625,34.182535886764555L228.8045138888889,103.64020077387492L229.19496527777778,53.26389201482138L229.58541666666667,45.88888732592267L229.97586805555554,124.43849094708762L230.36631944444443,40.42592175801596L230.75677083333332,101.84524345397949L231.1472222222222,104.88890139261882L231.5376736111111,45.88888732592267L231.928125,80.0323928197225L232.31857638888889,25.519818941752135L232.70902777777775,42.61111267407736L233.09947916666667,80.34457969665527L233.48993055555556,152.8068791627884L233.88038194444445,-20.48610798517859L234.27083333333334,48.93252182006839L234.66128472222223,95.64086922009787L235.05173611111113,109.80553992589314L235.44218750000002,121.51189136505127L235.83263888888888,96.14813772837321L236.22309027777777,45.186513741811126L236.61354166666666,47.527774651845306L237.00399305555555,139.30555868148804L237.39444444444445,102.7036870320638L237.78489583333334,89.31946007410686L238.17534722222223,18.847234725952177L238.56579861111112,175.04893986384073L238.95624999999998,67.46759780248007L239.34670138888887,98.489422082901L239.73715277777777,34.41667604446411L240.12760416666666,158.9722300370534L240.51805555555555,136.57407589753467L240.90850694444444,83.17360329627991L241.29895833333333,142.58333333333331L241.68940972222225,-19.666676044464083L242.07986111111111,83.58334271113078L242.4703125,40.97222534815472L242.8607638888889,46.98147106170654L243.2512152777778,80.53968477249146L243.64166666666668,-13.111103296279907L244.03211805555557,101.06482315063477L244.42256944444446,12.798930486043304L244.81302083333333,36.44575007756552L245.20347222222222,108.40079275767009L245.5939236111111,18.144837697347015L245.984375,64.30688150723778L246.3748263888889,47.527774651845306L246.76527777777778,17.325405756632506L247.15572916666667,7.375L247.54618055555554,94.50925040245056L247.93663194444443,134.68155431747437L248.32708333333332,-29.49999999999997L248.7175347222222,147.2658668756485L249.1079861111111,99.4259123802185L249.4984375,131.1111220518748L249.88888888888889,27.314823150634766L250.27934027777775,79.21296087900798L250.66979166666667,102.70371047655742L251.06024305555556,72.93053992589316L251.45069444444445,80.85187164942425L251.84114583333334,6.20436954498291L252.23159722222223,48.34720659255984L252.62204861111113,81.94445538520814L253.01250000000002,49.98611736297609L253.40295138888888,90.68519560496013L253.79340277777777,59.81944131851196L254.18385416666666,38.39682428042093L254.57430555555555,44.523151795069396L254.96475694444445,49.63491884867351L255.35520833333334,25.40278402964276L255.74565972222223,75.38888263702394L256.1361111111111,29.265873908996582L256.5265625,70.47222065925598L256.9170138888889,-17.208333333333314L257.3074652777778,62.277784029642746L257.69791666666663,149.72419786453247L258.0883680555555,51.74206304550172L258.4788194444444,29.265873908996582L258.8692708333333,65.55555868148804L259.25972222222225,121.82406651973724L259.65017361111114,47.7618913650513L260.04062500000003,106.29364856084187L260.4310763888889,52.444436629613264L260.82152777777776,16.38889201482138L261.21197916666665,88.7341214021047L261.60243055555554,81.39812835057576L261.99288194444443,39.333338022232056L262.3833333333333,89.08531991640727L262.7737847222222,136.96427432696024L263.1642361111111,17.75462754567468L263.5546875,106.52776527404785L263.9451388888889,-12.720916589101108L264.3355902777778,84.94907824198404L264.7260416666667,157.33333098888397L265.11649305555557,78.39350549379986" style="fill: none;" fill="none"></path></g></g></g></g></g></g><g transform="translate(48, 177)" clip-path="url(#clip_1)"><clipPath id="clip_1"><rect width="281" height="23"></rect></clipPath><g><g><line x1="0" y1="0" x2="0" y2="5" style="visibility: inherit;" fill="rgb(0, 0, 0)" stroke="rgb(204, 204, 204)" stroke-width="1px"></line><line x1="31.23611111111111" y1="0" x2="31.23611111111111" y2="5" style="visibility: inherit;" fill="rgb(0, 0, 0)" stroke="rgb(204, 204, 204)" stroke-width="1px"></line><line x1="62.47222222222222" y1="0" x2="62.47222222222222" y2="5" style="visibility: inherit;" fill="rgb(0, 0, 0)" stroke="rgb(204, 204, 204)" stroke-width="1px"></line><line x1="93.70833333333333" y1="0" x2="93.70833333333333" y2="5" style="visibility: inherit;" fill="rgb(0, 0, 0)" stroke="rgb(204, 204, 204)" stroke-width="1px"></line><line x1="124.94444444444444" y1="0" x2="124.94444444444444" y2="5" style="visibility: inherit;" fill="rgb(0, 0, 0)" stroke="rgb(204, 204, 204)" stroke-width="1px"></line><line x1="156.18055555555557" y1="0" x2="156.18055555555557" y2="5" style="visibility: inherit;" fill="rgb(0, 0, 0)" stroke="rgb(204, 204, 204)" stroke-width="1px"></line><line x1="187.41666666666666" y1="0" x2="187.41666666666666" y2="5" style="visibility: inherit;" fill="rgb(0, 0, 0)" stroke="rgb(204, 204, 204)" stroke-width="1px"></line><line x1="218.65277777777777" y1="0" x2="218.65277777777777" y2="5" style="visibility: inherit;" fill="rgb(0, 0, 0)" stroke="rgb(204, 204, 204)" stroke-width="1px"></line><line x1="249.88888888888889" y1="0" x2="249.88888888888889" y2="5" style="visibility: inherit;" fill="rgb(0, 0, 0)" stroke="rgb(204, 204, 204)" stroke-width="1px"></line><line x1="281.125" y1="0" x2="281.125" y2="5" style="visibility: inherit;" fill="rgb(0, 0, 0)" stroke="rgb(204, 204, 204)" stroke-width="1px"></line></g><g transform="translate(0, 8)"><text x="0" y="0" dx="0em" dy="0.95em" style="text-anchor: middle; visibility: hidden; font-family: &quot;Helvetica Neue&quot;, sans-serif; font-size: 12px; font-weight: 200;" fill="rgb(50, 49, 63)" stroke="none" stroke-width="1px">-2k</text><text x="31.23611111111111" y="0" dx="0em" dy="0.95em" style="text-anchor: middle; visibility: inherit; font-family: &quot;Helvetica Neue&quot;, sans-serif; font-size: 12px; font-weight: 200;" fill="rgb(50, 49, 63)" stroke="none" stroke-width="1px">0</text><text x="62.47222222222222" y="0" dx="0em" dy="0.95em" style="text-anchor: middle; visibility: inherit; font-family: &quot;Helvetica Neue&quot;, sans-serif; font-size: 12px; font-weight: 200;" fill="rgb(50, 49, 63)" stroke="none" stroke-width="1px">2k</text><text x="93.70833333333333" y="0" dx="0em" dy="0.95em" style="text-anchor: middle; visibility: inherit; font-family: &quot;Helvetica Neue&quot;, sans-serif; font-size: 12px; font-weight: 200;" fill="rgb(50, 49, 63)" stroke="none" stroke-width="1px">4k</text><text x="124.94444444444444" y="0" dx="0em" dy="0.95em" style="text-anchor: middle; visibility: inherit; font-family: &quot;Helvetica Neue&quot;, sans-serif; font-size: 12px; font-weight: 200;" fill="rgb(50, 49, 63)" stroke="none" stroke-width="1px">6k</text><text x="156.18055555555557" y="0" dx="0em" dy="0.95em" style="text-anchor: middle; visibility: inherit; font-family: &quot;Helvetica Neue&quot;, sans-serif; font-size: 12px; font-weight: 200;" fill="rgb(50, 49, 63)" stroke="none" stroke-width="1px">8k</text><text x="187.41666666666666" y="0" dx="0em" dy="0.95em" style="text-anchor: middle; visibility: inherit; font-family: &quot;Helvetica Neue&quot;, sans-serif; font-size: 12px; font-weight: 200;" fill="rgb(50, 49, 63)" stroke="none" stroke-width="1px">10k</text><text x="218.65277777777777" y="0" dx="0em" dy="0.95em" style="text-anchor: middle; visibility: inherit; font-family: &quot;Helvetica Neue&quot;, sans-serif; font-size: 12px; font-weight: 200;" fill="rgb(50, 49, 63)" stroke="none" stroke-width="1px">12k</text><text x="249.88888888888889" y="0" dx="0em" dy="0.95em" style="text-anchor: middle; visibility: inherit; font-family: &quot;Helvetica Neue&quot;, sans-serif; font-size: 12px; font-weight: 200;" fill="rgb(50, 49, 63)" stroke="none" stroke-width="1px">14k</text><text x="281.125" y="0" dx="0em" dy="0.95em" style="text-anchor: middle; visibility: hidden; font-family: &quot;Helvetica Neue&quot;, sans-serif; font-size: 12px; font-weight: 200;" fill="rgb(50, 49, 63)" stroke="none" stroke-width="1px">16k</text></g><line x1="0" y1="0" x2="281.125" y2="0" fill="rgb(0, 0, 0)" stroke="rgb(204, 204, 204)" stroke-width="1px"></line></g></g></g></g></svg>