<svg viewBox="0 0 330 200" xmlns="http://www.w3.org/2000/svg"><g><g><g><g><g><line x1="39.15625" y1="177" x2="34.15625" y2="177" style="visibility: inherit;" fill="rgb(0, 0, 0)" stroke="rgb(204, 204, 204)" stroke-width="1px"></line><line x1="39.15625" y1="154.875" x2="34.15625" y2="154.875" style="visibility: inherit;" fill="rgb(0, 0, 0)" stroke="rgb(204, 204, 204)" stroke-width="1px"></line><line x1="39.15625" y1="132.74999999999997" x2="34.15625" y2="132.74999999999997" style="visibility: inherit;" fill="rgb(0, 0, 0)" stroke="rgb(204, 204, 204)" stroke-width="1px"></line><line x1="39.15625" y1="110.62500000000001" x2="34.15625" y2="110.62500000000001" style="visibility: inherit;" fill="rgb(0, 0, 0)" stroke="rgb(204, 204, 204)" stroke-width="1px"></line><line x1="39.15625" y1="88.49999999999999" x2="34.15625" y2="88.49999999999999" style="visibility: inherit;" fill="rgb(0, 0, 0)" stroke="rgb(204, 204, 204)" stroke-width="1px"></line><line x1="39.15625" y1="66.37500000000001" x2="34.15625" y2="66.37500000000001" style="visibility: inherit;" fill="rgb(0, 0, 0)" stroke="rgb(204, 204, 204)" stroke-width="1px"></line><line x1="39.15625" y1="44.25" x2="34.15625" y2="44.25" style="visibility: inherit;" fill="rgb(0, 0, 0)" stroke="rgb(204, 204, 204)" stroke-width="1px"></line><line x1="39.15625" y1="22.12499999999997" x2="34.15625" y2="22.12499999999997" style="visibility: inherit;" fill="rgb(0, 0, 0)" stroke="rgb(204, 204, 204)" stroke-width="1px"></line><line x1="39.15625" y1="0" x2="34.15625" y2="0" style="visibility: inherit;" fill="rgb(0, 0, 0)" stroke="rgb(204, 204, 204)" stroke-width="1px"></line></g><g transform="translate(29.15625, 0)"><text x="0" y="177" dx="0em" dy="0.3em" style="text-anchor: end; visibility: hidden; font-family: &quot;Helvetica Neue&quot;, sans-serif; font-size: 12px; font-weight: 200;" fill="rgb(50, 49, 63)" stroke="none" stroke-width="1px">0.9</text><text x="0" y="154.875" dx="0em" dy="0.3em" style="text-anchor: end; visibility: inherit; font-family: &quot;Helvetica Neue&quot;, sans-serif; font-size: 12px; font-weight: 200;" fill="rgb(50, 49, 63)" stroke="none" stroke-width="1px">1</text><text x="0" y="132.74999999999997" dx="0em" dy="0.3em" style="text-anchor: end; visibility: hidden; font-family: &quot;Helvetica Neue&quot;, sans-serif; font-size: 12px; font-weight: 200;" fill="rgb(50, 49, 63)" stroke="none" stroke-width="1px">1.1</text><text x="0" y="110.62500000000001" dx="0em" dy="0.3em" style="text-anchor: end; visibility: inherit; font-family: &quot;Helvetica Neue&quot;, sans-serif; font-size: 12px; font-weight: 200;" fill="rgb(50, 49, 63)" stroke="none" stroke-width="1px">1.2</text><text x="0" y="88.49999999999999" dx="0em" dy="0.3em" style="text-anchor: end; visibility: hidden; font-family: &quot;Helvetica Neue&quot;, sans-serif; font-size: 12px; font-weight: 200;" fill="rgb(50, 49, 63)" stroke="none" stroke-width="1px">1.3</text><text x="0" y="66.37500000000001" dx="0em" dy="0.3em" style="text-anchor: end; visibility: inherit; font-family: &quot;Helvetica Neue&quot;, sans-serif; font-size: 12px; font-weight: 200;" fill="rgb(50, 49, 63)" stroke="none" stroke-width="1px">1.4</text><text x="0" y="44.25" dx="0em" dy="0.3em" style="text-anchor: end; visibility: hidden; font-family: &quot;Helvetica Neue&quot;, sans-serif; font-size: 12px; font-weight: 200;" fill="rgb(50, 49, 63)" stroke="none" stroke-width="1px">1.5</text><text x="0" y="22.12499999999997" dx="0em" dy="0.3em" style="text-anchor: end; visibility: inherit; font-family: &quot;Helvetica Neue&quot;, sans-serif; font-size: 12px; font-weight: 200;" fill="rgb(50, 49, 63)" stroke="none" stroke-width="1px">1.6</text><text x="0" y="0" dx="0em" dy="0.3em" style="text-anchor: end; visibility: hidden; font-family: &quot;Helvetica Neue&quot;, sans-serif; font-size: 12px; font-weight: 200;" fill="rgb(50, 49, 63)" stroke="none" stroke-width="1px">1.7</text></g><line x1="39.15625" y1="0" x2="39.15625" y2="177" fill="rgb(0, 0, 0)" stroke="rgb(204, 204, 204)" stroke-width="1px"></line></g></g><g transform="translate(39, 0)" clip-path="url(#clip_0)"><clipPath id="clip_0"><rect width="290" height="177"></rect></clipPath><g><g><g><line x1="0" y1="0" x2="0" y2="177" fill="rgb(0, 0, 0)" stroke="rgb(60, 60, 60)" stroke-width="1px" opacity="0.25"></line><line x1="32.31597222222222" y1="0" x2="32.31597222222222" y2="177" fill="rgb(0, 0, 0)" stroke="rgb(60, 60, 60)" stroke-width="1px" opacity="0.25"></line><line x1="64.63194444444444" y1="0" x2="64.63194444444444" y2="177" fill="rgb(0, 0, 0)" stroke="rgb(60, 60, 60)" stroke-width="1px" opacity="0.25"></line><line x1="96.94791666666666" y1="0" x2="96.94791666666666" y2="177" fill="rgb(0, 0, 0)" stroke="rgb(60, 60, 60)" stroke-width="1px" opacity="0.25"></line><line x1="129.26388888888889" y1="0" x2="129.26388888888889" y2="177" fill="rgb(0, 0, 0)" stroke="rgb(60, 60, 60)" stroke-width="1px" opacity="0.25"></line><line x1="161.57986111111111" y1="0" x2="161.57986111111111" y2="177" fill="rgb(0, 0, 0)" stroke="rgb(60, 60, 60)" stroke-width="1px" opacity="0.25"></line><line x1="193.89583333333331" y1="0" x2="193.89583333333331" y2="177" fill="rgb(0, 0, 0)" stroke="rgb(60, 60, 60)" stroke-width="1px" opacity="0.25"></line><line x1="226.21180555555557" y1="0" x2="226.21180555555557" y2="177" fill="rgb(0, 0, 0)" stroke="rgb(60, 60, 60)" stroke-width="1px" opacity="0.25"></line><line x1="258.52777777777777" y1="0" x2="258.52777777777777" y2="177" fill="rgb(0, 0, 0)" stroke="rgb(60, 60, 60)" stroke-width="1px" opacity="0.25"></line><line x1="290.84375" y1="0" x2="290.84375" y2="177" fill="rgb(0, 0, 0)" stroke="rgb(60, 60, 60)" stroke-width="1px" opacity="0.25"></line></g><g><line x1="0" y1="177" x2="290.84375" y2="177" fill="rgb(0, 0, 0)" stroke="rgb(60, 60, 60)" stroke-width="1px" opacity="0.25"></line><line x1="0" y1="154.875" x2="290.84375" y2="154.875" fill="rgb(0, 0, 0)" stroke="rgb(60, 60, 60)" stroke-width="1px" opacity="0.25"></line><line x1="0" y1="132.74999999999997" x2="290.84375" y2="132.74999999999997" fill="rgb(0, 0, 0)" stroke="rgb(60, 60, 60)" stroke-width="1px" opacity="0.25"></line><line x1="0" y1="110.62500000000001" x2="290.84375" y2="110.62500000000001" fill="rgb(0, 0, 0)" stroke="rgb(60, 60, 60)" stroke-width="1px" opacity="0.25"></line><line x1="0" y1="88.49999999999999" x2="290.84375" y2="88.49999999999999" fill="rgb(0, 0, 0)" stroke="rgb(60, 60, 60)" stroke-width="1px" opacity="0.25"></line><line x1="0" y1="66.37500000000001" x2="290.84375" y2="66.37500000000001" fill="rgb(0, 0, 0)" stroke="rgb(60, 60, 60)" stroke-width="1px" opacity="0.25"></line><line x1="0" y1="44.25" x2="290.84375" y2="44.25" fill="rgb(0, 0, 0)" stroke="rgb(60, 60, 60)" stroke-width="1px" opacity="0.25"></line><line x1="0" y1="22.12499999999997" x2="290.84375" y2="22.12499999999997" fill="rgb(0, 0, 0)" stroke="rgb(60, 60, 60)" stroke-width="1px" opacity="0.25"></line><line x1="0" y1="0" x2="290.84375" y2="0" fill="rgb(0, 0, 0)" stroke="rgb(60, 60, 60)" stroke-width="1px" opacity="0.25"></line></g></g></g><g><g><line x1="0" y1="376.125" x2="290.84375" y2="376.125" fill="rgb(0, 0, 0)" stroke="rgb(153, 153, 153)" stroke-width="1.5px"></line></g></g><g><g><line x1="32.31597222222222" y1="0" x2="32.31597222222222" y2="177" fill="rgb(0, 0, 0)" stroke="rgb(153, 153, 153)" stroke-width="1.5px"></line></g></g><g><g><g><g><g><path stroke="rgb(204, 51, 17)" stroke-width="2px" d="M32.719921875000004,30.39059418439865L33.12387152777778,23.312122777104378L33.527821180555556,42.21445881529726L33.93177083333333,38.46114972189949L34.33572048611111,56.857430663272595L34.73967013888889,41.92346029450954L35.143619791666666,10.23790235018592L35.54756944444444,28.036526009018473L35.951519097222224,24.52280070432917L36.35546875,31.32021128565998L36.759418402777776,11.889020985862743L37.16336805555555,3.069733119487296L37.567317708333334,-15.461277771523783L37.97126736111111,39.35999215671819L38.37521701388889,25.831686477866242L38.77916666666667,2.1314359454351006L39.183116319444444,13.980737021951995L39.58706597222222,23.549506740378774L39.991015625,46.404264283623434L40.39496527777778,32.0036528686521L40.798914930555554,73.59992137613305L41.20286458333333,69.52221142337746L41.606814236111106,55.015688769255746L42.01076388888888,58.10668142119157L42.41471354166667,58.74322192130613L42.81866319444445,6.01299367824376L43.22261284722222,-9.271374166300262L43.6265625,32.640472936994655L44.030512152777774,-18.17817187670886L44.43446180555556,31.965682300770254L44.83841145833333,46.2300013823687L45.24236111111111,33.820927378789435L45.64631076388889,64.32063394828124L46.05026041666667,69.57236856989795L46.45421006944444,44.87626666752192L46.858159722222226,45.76210289276008L47.262109375,26.595932490685158L47.66605902777778,48.25716549277405L48.07000868055555,-3.760078748005782L48.47395833333333,9.429279655004422L48.87790798611112,33.98893060853055L49.281857638888894,42.71726426645915L49.68580729166667,25.652287830937723L50.089756944444446,45.55503169048646L50.49370659722222,63.78081978360811L50.89765625,96.64602228012018L51.30160590277778,126.39561951275532L51.705555555555556,133.5367044934199L52.10950520833333,109.31343384522744L52.51345486111111,92.09804618308063L52.91740451388889,95.97631738157439L53.321354166666666,55.286007985779605L53.72530381944445,67.85478775819881L54.129253472222224,71.29228691531036L54.533203125,-2.93988244375592L54.937152777777776,24.791959556107173L55.34110243055555,42.71872660647108L55.745052083333334,34.54709764200501L56.14900173611111,36.29622571395683L56.55295138888889,83.84922948317075L56.95690104166667,79.3557066848059L57.360850694444444,49.977489848743105L57.76480034722222,59.79528180349489L58.16875,57.85024454348452L58.57269965277778,92.24996317716356L58.976649305555554,35.98820383126673L59.38059895833333,26.84237698778594L59.784548611111106,38.82639272251777L60.18849826388888,51.381847114795775L60.59244791666667,59.8287516662087L60.99639756944445,56.228363217628356L61.40034722222222,46.705522907803214L61.804296875,73.35060393394812L62.208246527777774,55.545193180929346L62.61219618055556,60.58834776013535L63.01614583333333,31.521505753573393L63.42009548611111,57.558389878497536L63.82404513888889,35.322673258916126L64.22799479166666,53.39610746963953L64.63194444444444,70.3575139252194L65.03589409722223,82.62728173779537L65.43984375000001,96.28177697209767L65.84379340277778,88.12946198432594L66.24774305555556,126.13484802871318L66.65169270833333,117.09714755433421L67.05564236111111,97.13208137165086L67.4595920138889,76.33747482425318L67.86354166666666,45.78665564135514L68.26749131944445,53.12770176932693L68.67144097222221,57.76580143574169L69.075390625,67.43376392485673L69.47934027777778,48.624705257189134L69.88328993055556,79.95688623319377L70.28723958333333,93.83714150268025L70.69118923611111,125.2210809163939L71.09513888888888,93.49630824164691L71.49908854166667,62.50317390821067L71.90303819444445,76.50815932787468L72.30698784722222,100.09172511599667L72.7109375,110.38161149324303L73.11488715277778,48.25714768589333L73.51883680555555,48.316592297678L73.92278645833333,1.7342643986492021L74.3267361111111,0.1752943545787673L74.73068576388889,30.122686144722024L75.13463541666667,67.16768177569658L75.53858506944445,66.17053564918487L75.94253472222222,113.9775535376814L76.346484375,137.00524330806417L76.75043402777779,97.8566526929836L77.15438368055555,91.56983690025218L77.55833333333334,65.4030361089814L77.9622829861111,64.88769742928194L78.36623263888889,41.83783713032153L78.77018229166666,46.47263297468038L79.17413194444444,58.44547045844561L79.57808159722224,13.411996690140768L79.98203125,58.18564644319213L80.38598090277779,66.0860976747417L80.78993055555556,82.00637456010246L81.19388020833334,78.78068094390905L81.59782986111111,85.21059886776375L82.00177951388889,63.1108426342187L82.40572916666666,92.71636179028616L82.80967881944444,119.08784251176517L83.21362847222221,136.21830596186638L83.617578125,120.51290288959699L84.02152777777776,89.23550121423457L84.42547743055556,82.01460352204354L84.82942708333334,80.63679905332391L85.23337673611111,104.63828524111071L85.6373263888889,133.59794373606658L86.04127604166666,79.13057796534905L86.44522569444445,45.44235708938248L86.84917534722221,98.45204302445774L87.253125,77.27488387093378L87.65707465277778,96.48574966469668L88.06102430555555,107.94571960138835L88.46497395833333,50.84519634346697L88.86892361111111,56.993049631717994L89.2728732638889,55.46070335519505L89.67682291666667,126.67567926771756L90.08077256944445,81.10765779094285L90.48472222222222,54.19546065376038L90.888671875,39.122430024420254L91.29262152777778,83.84087029568855L91.69657118055555,129.93185439987485L92.10052083333333,125.49170560409725L92.5044704861111,111.93870639067949L92.90842013888889,124.2538203433875L93.31236979166667,48.44469683383247L93.71631944444445,63.74473660596807L94.12026909722222,71.00772649889348L94.52421875,74.96132798698636L94.92816840277779,-3.406769396620433L95.33211805555555,49.420102571393585L95.73606770833334,92.11267206367584L96.1400173611111,45.52654203949413L96.54396701388889,52.217866177428064L96.94791666666666,37.469878861348775L97.35186631944444,47.95263051333484L97.75581597222224,87.66029948796306L98.159765625,121.52818961027546L98.56371527777779,147.34284243037274L98.96766493055556,102.59275909095982L99.37161458333334,53.01351987022146L99.77556423611111,75.65348270355456L100.17951388888889,107.6590544868636L100.58346354166666,116.59083271557856L100.98741319444444,99.46177844127874L101.39136284722221,96.4275479669622L101.7953125,132.88732713790247L102.19926215277776,42.29755865533062L102.60321180555556,28.931166523688518L103.00716145833334,41.91030628323168L103.41111111111111,103.8131105532623L103.8150607638889,97.47819941224911L104.21901041666666,80.30028887380516L104.62296006944445,75.91307556503627L105.02690972222221,46.794537233553L105.430859375,86.7152180953274L105.83480902777778,94.06563704511225L106.23875868055555,77.88205532610836L106.64270833333333,92.94104778993378L107.04665798611111,89.01968679564148L107.4506076388889,115.42671053848832L107.85455729166667,99.85821808124882L108.25850694444445,96.84388647523704L108.66245659722222,94.42514808206072L109.06640625,94.44040032165235L109.47035590277778,95.73244490585917L109.87430555555555,113.45811790443776L110.27825520833333,148.2029808653433L110.6822048611111,110.28391219932077L111.08615451388889,143.63876521443268L111.49010416666667,90.55166036996212L111.89405381944445,125.22400205202678L112.29800347222222,131.32200024645195L112.701953125,130.88949003291526L113.10590277777779,128.6352490214848L113.50985243055555,79.45075035264152L113.91380208333334,54.2044755945805L114.3177517361111,98.28370149911663L114.72170138888889,64.73698537338505L115.12565104166666,94.3330667781158L115.52960069444444,64.49587330623413L115.93355034722224,49.718041225695245L116.3375,41.527186944737224L116.74144965277779,62.793967982920506L117.14539930555556,91.0063691620782L117.54934895833334,92.64002304582326L117.95329861111111,88.71053047960119L118.35724826388889,87.41555976858801L118.76119791666666,94.03838396067063L119.16514756944444,134.6330831765809L119.56909722222221,46.11462518690101L119.973046875,34.945564252841876L120.37699652777776,96.0037073211124L120.78094618055556,36.85988497234882L121.18489583333334,78.35492970643939L121.58884548611111,25.575477445712693L121.9927951388889,51.260374417657275L122.39674479166666,70.66146811887897L122.80069444444445,110.10207619097997L123.20464409722221,82.36372648374541L123.60859375,89.01468021092595L124.01254340277778,116.43552228461377L124.41649305555555,133.44397149473832L124.82044270833333,145.3155647158051L125.22439236111111,112.6747065567627L125.6283420138889,90.14373928211059L126.03229166666667,123.82429100216578L126.43624131944445,127.2080797501871L126.84019097222222,92.73414759328776L127.244140625,50.88438666159402L127.64809027777778,41.18986373123218L128.05203993055557,54.833362084488215L128.45598958333332,66.38274484983693L128.8599392361111,103.9105984038807L129.26388888888889,122.70026729504444L129.66783854166667,106.55169152021513L130.07178819444445,94.09675225496358L130.47573784722223,79.17009256410637L130.87968750000002,108.30212422685642L131.28363715277777,142.15170705602657L131.68758680555555,81.22091642788702L132.09153645833334,84.69975491626057L132.49548611111112,47.733481957095876L132.89943576388887,97.38856563185334L133.30338541666666,61.48615331181692L133.70733506944444,76.94292666154385L134.11128472222222,75.5716807463007L134.515234375,50.36283135522825L134.9191840277778,51.72682650154482L135.32313368055557,80.73048334876091L135.72708333333333,49.023347816225225L136.1310329861111,100.65423157295962L136.5349826388889,131.3544680683695L136.93893229166667,128.46458334975733L137.34288194444443,97.90686322005564L137.7468315972222,61.559682516765434L138.15078125,76.47541031152716L138.55473090277778,87.16047332829658L138.95868055555556,140.00290756312862L139.36263020833334,72.32712803416169L139.76657986111113,78.07982903798056L140.17052951388888,80.88460668372889L140.57447916666666,69.77837775020464L140.97842881944445,59.93836632888714L141.38237847222223,78.27489211273911L141.78632812499998,94.278277672009L142.19027777777777,143.44851513902924L142.59422743055555,123.77747924447405L142.99817708333333,82.0745336015245L143.40212673611111,82.2809497236741L143.8060763888889,80.80449819085192L144.21002604166668,108.50769967745059L144.61397569444443,124.54548694437932L145.01792534722222,171.80274683085793L145.421875,162.89987897782154L145.82582465277778,122.95918135588545L146.22977430555557,147.81052223292102L146.63372395833332,122.7552634683079L147.0376736111111,104.56018217842737L147.44162326388889,101.80285811687088L147.84557291666667,106.76620770850525L148.24952256944442,83.34166879271712L148.6534722222222,101.13308398017438L149.057421875,112.44745433383676L149.46137152777777,125.08059890302118L149.86532118055553,123.62015058536585L150.26927083333334,65.40674794876134L150.67322048611112,88.95541120269033L151.0771701388889,40.45026719986279L151.48111979166669,116.28091861259267L151.88506944444444,107.1586271610935L152.28901909722222,75.14379147810216L152.69296875,62.648111797109095L153.0969184027778,89.5733794788926L153.50086805555557,151.69462778689916L153.90481770833333,91.1522663862851L154.3087673611111,34.143784369906626L154.7127170138889,61.158606198955084L155.11666666666667,80.46232718678024L155.52061631944443,102.3379631665451L155.9245659722222,121.73237890166658L156.328515625,165.15255249835621L156.73246527777778,44.86274665175418L157.13641493055556,50.965754554143786L157.54036458333331,78.36826353399233L157.9443142361111,34.65221346097158L158.34826388888888,2.638006285887741L158.75221354166666,24.882861015833498L159.15616319444447,42.818970178149414L159.56011284722223,54.49555469428435L159.9640625,49.06779792830305L160.3680121527778,97.57615672901247L160.77196180555558,72.9153896531759L161.17591145833333,121.32446011074174L161.57986111111111,92.54181290964954L161.9838107638889,69.58853731930657L162.38776041666668,45.02871014106509L162.79171006944443,22.18018442051553L163.19565972222222,67.7488159040031L163.599609375,77.68163538571694L164.00355902777778,61.76153068898023L164.40750868055557,59.65235022996603L164.81145833333332,58.94159376796924L165.2154079861111,116.99613331065683L165.61935763888889,112.82936567250556L166.02330729166667,123.50080726256171L166.42725694444442,95.60623603886486L166.8312065972222,105.95946031705215L167.23515625,108.53210145172883L167.63910590277777,132.43920103274235L168.04305555555553,156.92178939320115L168.44700520833334,145.3960988315193L168.85095486111112,126.57685188008833L169.2549045138889,111.94213884802753L169.65885416666669,162.88097727139055L170.06280381944444,160.35597163342987L170.46675347222222,159.44223511161542L170.870703125,141.35043525661314L171.2746527777778,112.88745281675628L171.67860243055557,144.94090538966162L172.08255208333333,142.42244996874032L172.4865017361111,137.1448394670993L172.8904513888889,122.84878052561939L173.29440104166667,63.88594859414967L173.69835069444443,63.27571019872234L174.1023003472222,80.85016463604096L174.50625,87.95525578502726L174.91019965277778,86.72321540024232L175.31414930555556,71.91614856664154L175.71809895833331,62.3749691387642L176.1220486111111,76.01539679411822L176.52599826388888,83.15309119250641L176.92994791666666,84.43992354885502L177.33389756944447,132.73982516178944L177.73784722222223,172.0692270591823L178.141796875,136.75985960930396L178.5457465277778,144.8460984275926L178.94969618055558,125.31583328522376L179.35364583333333,158.94002349065025L179.75759548611111,172.0462126903908L180.1615451388889,157.60836103994706L180.56549479166668,151.43985463046468L180.96944444444443,101.83272436179776L181.37339409722222,98.76487628768719L181.77734375,92.6112972983768L182.18129340277778,66.13594457441867L182.58524305555557,121.50878430565777L182.98919270833332,122.29009928202976L183.3931423611111,80.83003028569429L183.79709201388889,121.13806546531802L184.20104166666667,126.1254913377922L184.60499131944442,100.23948734808928L185.0089409722222,102.31921623831373L185.412890625,139.79575042537084L185.81684027777777,95.07696972257634L186.22078993055553,26.841063368122207L186.62473958333334,53.47397267091297L187.02868923611112,106.1940120534183L187.4326388888889,124.19054353690632L187.83658854166669,104.81263504300406L188.24053819444444,91.46327178403077L188.64448784722222,97.55334694817266L189.0484375,79.4690398075259L189.4523871527778,34.377198213224204L189.85633680555557,67.10098732345378L190.26028645833333,77.06275785465881L190.6642361111111,59.26861582100301L191.0681857638889,56.648032545446824L191.47213541666667,68.47836738789051L191.87608506944443,73.66848074176292L192.2800347222222,106.4289127277039L192.683984375,142.55828241626634L193.08793402777778,102.20786149573452L193.49188368055556,143.13802425427514L193.89583333333331,115.05533061244061L194.2997829861111,150.14475517760496L194.70373263888888,148.2923126536058L195.10768229166666,110.98937603935278L195.51163194444447,70.33076629105017L195.91558159722223,56.34356651939636L196.31953125,78.36879614733267L196.7234809027778,76.9629325612939L197.12743055555558,105.75527056125142L197.53138020833333,126.49057949225505L197.93532986111111,103.08335409546137L198.3392795138889,131.51002137651588L198.74322916666668,83.2349147843751L199.14717881944443,108.15405718370873L199.55112847222222,129.6615637474334L199.955078125,147.6129186947987L200.35902777777778,91.30963444708857L200.76297743055557,113.18747062682556L201.16692708333332,116.91101146459249L201.5708767361111,110.56662812661926L201.97482638888889,98.60879782934067L202.37877604166667,123.92070365607188L202.78272569444442,96.71503612196112L203.1866753472222,123.38868332383431L203.590625,82.70316120670674L203.99457465277777,111.00335603169464L204.39852430555553,96.98280261285221L204.80247395833334,110.61253683762021L205.20642361111112,96.10157364008587L205.6103732638889,157.39233526824572L206.01432291666669,79.69044336818845L206.41827256944444,95.0918544002962L206.82222222222222,114.26018743923855L207.226171875,33.396028406688885L207.6301215277778,64.90079065994581L208.03407118055557,59.97749914429282L208.43802083333333,53.14150644362985L208.8419704861111,104.72064879549156L209.2459201388889,85.02910410769348L209.64986979166667,107.58648697976808L210.05381944444443,126.64153755572163L210.4577690972222,60.684717076222384L210.86171875,71.61262065005319L211.26566840277778,130.02856097717296L211.66961805555556,106.20413287937174L212.07356770833331,94.74162946021276L212.4775173611111,77.22325904295276L212.88146701388888,118.13046515062707L213.28541666666666,156.4017232780174L213.68936631944447,148.2793760135481L214.09331597222223,66.32017374245576L214.497265625,76.90817506437456L214.9012152777778,120.77731346085642L215.30516493055558,90.8141383349596L215.70911458333333,102.98265773175352L216.11306423611111,136.04590004752987L216.5170138888889,115.85259883446042L216.92096354166668,146.27162233497228L217.32491319444443,146.44278304282145L217.72886284722222,112.02973168196269L218.1328125,95.14173885048622L218.53676215277778,62.850446831352656L218.94071180555557,98.99380210111569L219.34466145833332,20.501257270992L219.7486111111111,70.28993845607054L220.15256076388889,91.49395133629568L220.55651041666667,125.57634003505186L220.96046006944442,125.1902971836631L221.3644097222222,117.42549147443205L221.768359375,86.5515332712902L222.17230902777777,109.29672434891306L222.57625868055553,149.45819680073882L222.98020833333334,84.7609245549382L223.38415798611112,82.31571423833017L223.7881076388889,96.43074917688637L224.19205729166669,148.5419095152299L224.59600694444444,55.47882102690221L224.99995659722222,95.77101823545742L225.40390625,82.37402581487449L225.8078559027778,113.23523894139738L226.21180555555557,85.61036895029906L226.61575520833333,93.73398770280576L227.0197048611111,104.00452692143854L227.4236545138889,100.12981260319198L227.82760416666667,100.89697394668845L228.23155381944443,16.279381429551734L228.6355034722222,47.9557507249109L229.039453125,111.16786356046157L229.44340277777778,97.39292268320534L229.84735243055556,98.67695198276411L230.25130208333331,97.16980968605743L230.6552517361111,36.750022093601615L231.05920138888888,51.476257348148565L231.46315104166666,55.7073358440927L231.86710069444447,15.286609348328795L232.27105034722223,69.82701369325629L232.675,60.37545395016859L233.0789496527778,78.7858298070442L233.48289930555558,81.3539309410579L233.88684895833333,82.71041943480535L234.29079861111111,64.74586394935825L234.6947482638889,85.4941626757978L235.09869791666668,71.66297349754565L235.50264756944443,120.22201118125672L235.90659722222222,154.1803764060387L236.310546875,156.53888010711964L236.71449652777778,100.23855653841196L237.11844618055557,107.43143057488734L237.52239583333332,110.94075350560745L237.9263454861111,63.335170510995425L238.33029513888889,54.811397840731146L238.73424479166667,39.09481565365357L239.13819444444442,44.640485597903506L239.5421440972222,99.85288582638202L239.94609375,109.1995421910006L240.35004340277777,133.06648567698707L240.75399305555553,117.96238158573094L241.15794270833334,95.29211024301881L241.56189236111112,77.03316767130873L241.9658420138889,124.04085803696267L242.36979166666669,134.80689758460971L242.77374131944444,85.09479586125168L243.17769097222222,90.70240054035635L243.581640625,76.24814477863583L243.9855902777778,23.480011995450724L244.38953993055557,56.044407067189226L244.79348958333333,85.21503496020414L245.1974392361111,30.924120782908034L245.6013888888889,63.99656799977795L246.00533854166667,55.2654913040744L246.40928819444443,103.59292099909466L246.8132378472222,42.23902626059345L247.2171875,58.0098459435814L247.62113715277778,45.589133710462676L248.02508680555556,77.32912071394846L248.42903645833331,29.85864162354423L248.8329861111111,27.46239162629098L249.23693576388888,79.52478497710976L249.64088541666666,6.368000754637421L250.04483506944447,111.85530160005267L250.44878472222223,115.95741597494707L250.852734375,134.41149478960767L251.2566840277778,79.46507917528591L251.66063368055558,58.004666439802904L252.06458333333333,138.4515513134667L252.46853298611111,81.32044579700643L252.8724826388889,84.41854857275494L253.27643229166668,103.12438186925417L253.68038194444443,78.43768488718128L254.08433159722222,137.1519569954458L254.48828125,98.99381730563542L254.89223090277778,125.83919665579256L255.29618055555557,137.1702393493906L255.70013020833332,163.6153482676658L256.10407986111113,146.7590196419426L256.50802951388886,66.09583191208051L256.91197916666664,144.29662864882954L257.3159288194444,135.53423233913907L257.7198784722222,101.13148278050141L258.123828125,118.16798161299536L258.52777777777777,128.22027875680632L258.93172743055555,138.94834754287544L259.33567708333334,90.92779975783431L259.7396267361111,109.77824499399425L260.1435763888889,47.16943396443705L260.5475260416667,96.86861315557114L260.95147569444447,84.54593069069836L261.35542534722225,98.98244809337409L261.75937500000003,113.24017467038601L262.16332465277776,89.19699355326158L262.56727430555554,99.34683392263688L262.9712239583333,99.7262538183763L263.3751736111111,121.27079516107048L263.7791232638889,84.80030132206804L264.1830729166667,132.89731457753498L264.58702256944446,106.05164836003492L264.99097222222224,88.83962966295545L265.39492187499997,76.18303685958665L265.79887152777775,94.31580598101307L266.20282118055553,105.45099953976445L266.6067708333333,53.81537027458654L267.0107204861111,52.472380872370636L267.4146701388889,19.553828534961838L267.81861979166666,65.14291931240626L268.22256944444445,48.46116167932075L268.62651909722223,61.7208033480008L269.03046875,100.60607238875386L269.4344184027778,130.0186410919819L269.8383680555556,140.18216541862452L270.24231770833336,101.56023432884197L270.64626736111114,84.07655490680679L271.05021701388887,116.30437326576796L271.45416666666665,103.41184916583587L271.85811631944443,42.94611087136204L272.2620659722222,110.70850683863603L272.666015625,79.78148064384244L273.0699652777778,132.38619278889524L273.47391493055557,60.169913607964716L273.87786458333335,0.3900135505973026L274.28181423611113,52.498444268034646" style="fill: none;" fill="none"></path></g></g></g></g><g opacity="0.2"><g><g><g><path stroke="rgb(204, 51, 17)" stroke-width="2px" d="M32.719921875000004,30.39059418439865L33.12387152777778,19.065039932727814L33.527821180555556,60.36070141196251L33.93177083333333,34.04725822806358L34.33572048611111,80.87561506032944L34.73967013888889,21.26440304517746L35.143619791666666,-35.07295247912407L35.54756944444444,53.98709017038345L35.951519097222224,19.340738385915756L36.35546875,41.41357380151749L36.759418402777776,-17.0815249979496L37.567317708333334,-43.197287142276764L37.97126736111111,121.48449647426605L38.37521701388889,5.55512997508049L38.77916666666667,-33.402224600315094L39.183116319444444,31.749674409627914L39.58706597222222,37.900231808423996L39.991015625,80.68291890621185L40.39496527777778,10.404052019119263L40.798914930555554,135.99204289913177L41.20286458333333,63.40578067302704L41.606814236111106,33.256191194057465L42.01076388888888,62.743133783340454L42.41471354166667,59.69802814722061L42.81866319444445,-73.08212381601336L43.22261284722222,-32.19788682460785L43.6265625,95.5081792473793L44.030512152777774,-94.40609228610998L44.43446180555556,107.18143585324287L44.83841145833333,67.62647527456284L45.24236111111111,15.207318842411041L45.64631076388889,110.0701901614666L46.05026041666667,77.44997012615204L46.45421006944444,7.83211487531662L46.858159722222226,47.090857207775116L47.262109375,-2.1533228158950806L47.66605902777778,80.74901479482651L48.07000868055555,-81.78594481945044L48.47395833333333,29.213317215442657L48.87790798611112,70.82840698957443L49.281857638888894,55.80976474285126L49.68580729166667,0.05482318997383118L50.089756944444446,75.4091474711895L50.49370659722222,91.1195019185543L50.89765625,145.94382601976395L51.30160590277778,171.02001535892487L51.705555555555556,144.24833196401596L52.10950520833333,72.9785278737545L52.51345486111111,66.27496469020844L52.91740451388889,101.79372417926788L53.321354166666666,-5.749456107616425L53.72530381944445,86.70795741677284L54.129253472222224,76.44853565096855L54.533203125,-114.28813648223883L54.937152777777776,66.38972255587578L55.34110243055555,69.60887718200684L55.745052083333334,22.289654195308685L56.14900173611111,38.919917821884155L56.55295138888889,155.17873513698578L56.95690104166667,72.61542248725891L57.360850694444444,5.9101645946502686L57.76480034722222,74.5219697356224L58.16875,54.932688653469086L58.57269965277778,143.84954112768173L58.976649305555554,-48.40443518757823L59.38059895833333,13.123636722564697L59.784548611111106,56.80241632461548L60.18849826388888,70.21502870321274L60.59244791666667,72.4991084933281L60.99639756944445,50.82778054475784L61.40034722222222,32.42126244306564L61.804296875,113.31822547316551L62.208246527777774,28.83707705140114L62.61219618055556,68.1530796289444L63.01614583333333,-12.078757256269455L63.42009548611111,96.61371606588364L63.82404513888889,1.9690983295440674L64.22799479166666,80.50625878572464L64.63194444444444,95.79962360858917L65.03589409722223,101.03193345665932L65.43984375000001,116.76351982355118L65.84379340277778,75.90098950266838L66.24774305555556,183.142927095294L66.65169270833333,103.54059684276581L67.05564236111111,67.18448209762573L67.4595920138889,45.14556500315666L67.86354166666666,-0.03957313299179077L68.26749131944445,64.13927096128464L68.67144097222221,64.72295093536377L69.075390625,81.93570765852928L69.47934027777778,20.411117255687714L69.88328993055556,126.95515769720078L70.28723958333333,114.65752440690994L70.69118923611111,172.29699003696442L71.09513888888888,45.90914922952652L71.49908854166667,16.01347240805626L71.90303819444445,97.51563745737076L72.30698784722222,135.46707379817963L72.7109375,125.81644105911255L73.11488715277778,-44.929548025131254L73.51883680555555,48.40575921535492L73.92278645833333,-68.13922744989398L74.3267361111111,-2.1631607115268707L74.73068576388889,75.04377382993698L75.13463541666667,122.73517522215843L75.53858506944445,64.67481645941734L75.94253472222222,185.68808037042618L76.346484375,171.5467779636383L76.75043402777779,39.133766770362854L77.15438368055555,82.13961321115494L77.55833333333334,26.15283492207527L77.9622829861111,64.11468940973282L78.36623263888889,7.263046681880951L78.77018229166666,53.42482674121857L79.17413194444444,76.40472668409348L79.57808159722224,-54.13821396231654L79.98203125,125.34612107276917L80.38598090277779,77.93677452206612L80.78993055555556,105.88678988814354L81.19388020833334,73.94214051961899L81.59782986111111,94.85547575354576L82.00177951388889,29.961208283901215L82.40572916666666,137.12464052438736L82.80967881944444,158.64506359398365L83.21362847222221,161.9140011370182L83.617578125,96.95479828119278L84.02152777777776,42.31939870119095L84.42547743055556,71.18325698375702L84.82942708333334,78.57009235024452L85.23337673611111,140.6405145227909L85.6373263888889,177.03743147850037L86.84917534722221,177.96657192707062L87.253125,45.50914514064789L87.65707465277778,125.30204835534096L88.06102430555555,125.13567450642586L88.46497395833333,-34.80558854341507L88.86892361111111,66.21482956409454L89.2728732638889,53.162183940410614L89.67682291666667,233.4981431365013L90.08077256944445,12.755625575780869L90.48472222222222,13.827164947986603L90.888671875,16.512884080410004L91.29262152777778,150.91853070259094L91.69657118055555,199.06833055615425L92.10052083333333,118.83148241043091L92.5044704861111,91.60920757055283L92.90842013888889,142.7264912724495L93.31236979166667,-65.26898843050006L93.71631944444445,86.6947962641716L94.12026909722222,81.90221133828163L94.52421875,80.89173021912575L94.92816840277779,-120.9589154720307L95.33211805555555,128.6604105234146L95.73606770833334,156.15152630209923L96.1400173611111,-24.352652996778488L96.54396701388889,62.25485238432884L96.94791666666666,15.34789788722992L97.35186631944444,63.676757991313934L97.75581597222224,147.2218029499054L98.159765625,172.3300247937441L98.56371527777779,186.06482166051865L98.96766493055556,35.467634081840515L99.37161458333334,-21.355338960886L99.77556423611111,109.61342695355415L100.17951388888889,155.6674121618271L100.58346354166666,129.98850005865097L100.98741319444444,73.76819702982903L101.39136284722221,91.87620225548744L101.7953125,187.57699589431286L102.19926215277776,-93.58709406852728L102.60321180555556,8.88157832622528L103.00716145833334,61.37901592254639L103.41111111111111,196.66731695830822L103.8150607638889,87.97583270072937L104.21901041666666,54.53342306613922L104.62296006944445,69.33225560188293L105.02690972222221,3.116729736328125L105.430859375,146.59623938798904L105.83480902777778,105.0912654697895L106.23875868055555,53.60668274760246L106.64270833333333,115.529536485672L107.04665798611111,83.13764530420303L107.4506076388889,155.0372461527586L107.85455729166667,76.50547939538956L108.25850694444445,92.32238906621933L108.66245659722222,90.79704049229622L109.06640625,94.46327868103981L109.47035590277778,97.67051178216934L109.87430555555555,140.0466274023056L110.27825520833333,200.32027530670166L110.6822048611111,53.405309200286865L111.08615451388889,193.6710447371006L111.49010416666667,10.921003103256226L111.89405381944445,177.2325145751238L112.29800347222222,140.46899753808975L112.701953125,130.24072471261024L113.10590277777779,125.25388750433922L113.50985243055555,5.6740023493766785L113.91380208333334,16.335063457489014L114.3177517361111,164.4025403559208L114.72170138888889,14.41691118478775L115.12565104166666,138.72718888521194L115.52960069444444,19.74008309841156L115.93355034722224,27.55129310488701L116.3375,29.24090552330017L116.74144965277779,94.69413954019547L117.14539930555556,133.32497093081474L117.54934895833334,95.09050387144089L117.95329861111111,82.8162916302681L118.35724826388889,85.47310370206833L118.76119791666666,103.97262024879456L119.16514756944444,195.52513200044632L119.56909722222221,-86.66306179761892L119.973046875,18.191972851753235L120.37699652777776,187.59092192351818L120.78094618055556,-51.85584855079654L121.18489583333334,140.59749680757523L121.58884548611111,-53.59370094537738L121.9927951388889,89.78771987557411L122.39674479166666,99.76310867071152L122.80069444444445,169.2629882991314L123.20464409722221,40.756201922893524L123.60859375,98.99111080169678L124.01254340277778,157.56678539514542L124.41649305555555,158.95664530992508L124.82044270833333,163.12295454740524L125.22439236111111,63.71341931819916L125.6283420138889,56.347288370132446L126.03229166666667,174.3451185822487L126.43624131944445,132.28376287221909L126.84019097222222,41.02324935793877L127.244140625,-11.890254735946655L127.64809027777778,26.648079335689545L128.05203993055557,75.29860961437225L128.45598958333332,83.70681899785995L128.8599392361111,160.20237873494625L129.26388888888889,150.88477063179016L129.66783854166667,82.32882785797119L130.07178819444445,75.41434335708618L130.47573784722223,56.78010302782059L130.87968750000002,152.0001717209816L131.28363715277777,192.9260812997818L131.68758680555555,-10.17526951432228L132.09153645833334,89.91801264882088L132.49548611111112,-7.715927481651306L132.89943576388887,171.87119114398956L133.30338541666666,7.632534831762314L133.70733506944444,100.12808668613434L134.11128472222222,73.51481187343597L134.515234375,12.549557268619537L134.9191840277778,53.772819221019745L135.32313368055557,124.23596861958504L135.72708333333333,1.4626445174217224L136.1310329861111,178.10055720806122L136.5349826388889,177.40482281148434L136.93893229166667,124.12975627183914L137.34288194444443,52.07028302550316L137.7468315972222,7.038911461830139L138.15078125,98.84900200366974L138.55473090277778,103.18806785345078L138.95868055555556,219.26655891537666L139.36263020833334,-29.186541259288788L139.76657986111113,86.7088805437088L140.17052951388888,85.09177315235138L140.57447916666666,53.119034349918365L140.97842881944445,45.17834919691086L141.38237847222223,105.779680788517L141.78632812499998,118.28335601091385L142.19027777777777,217.20387133955956L142.59422743055555,94.2709254026413L142.99817708333333,19.52011513710022L143.40212673611111,82.5905739068985L143.8060763888889,78.58982089161873L144.21002604166668,150.06250190734863L144.61397569444443,148.60216784477234L145.01792534722222,242.68863666057587L145.421875,149.54557719826698L145.82582465277778,63.04813492298126L146.22977430555557,185.0875335484743L146.63372395833332,85.17237532138824L147.0376736111111,77.26756024360657L147.44162326388889,97.66687202453613L147.84557291666667,114.2112320959568L148.24952256944442,48.20486041903496L148.6534722222222,127.82020676136017L149.057421875,129.4190098643303L149.46137152777777,144.0303157567978L149.86532118055553,121.4294781088829L150.26927083333334,-21.913356006145477L150.67322048611112,124.27840608358383L151.0771701388889,-32.30744880437851L151.48111979166669,230.02689573168755L151.88506944444444,93.47518998384476L152.28901909722222,27.12153795361519L152.69296875,43.90459227561951L153.0969184027778,129.96128100156784L153.50086805555557,244.876500248909L153.90481770833333,0.338724285364151L154.3087673611111,-51.36893865466121L154.7127170138889,101.68083894252777L155.11666666666667,109.41790866851807L155.52061631944443,135.15141713619232L155.9245659722222,150.82400250434875L156.328515625,230.28281289339066L156.73246527777778,-135.57196211814886L157.13641493055556,60.120266407728195L157.54036458333331,119.4720270037651L157.9443142361111,-30.92186164855957L158.34826388888888,-45.383304476738004L158.75221354166666,58.250143110752106L159.15616319444447,69.72313392162323L159.56011284722223,72.01043146848679L159.9640625,40.92616277933121L160.3680121527778,170.3386949300766L160.77196180555558,35.92423903942108L161.17591145833333,193.93806579709053L161.57986111111111,49.367842108011246L161.9838107638889,35.158623933792114L162.38776041666668,8.188969373703003L162.79171006944443,-12.092604160308838L163.19565972222222,136.1017631292343L163.599609375,92.58086460828781L164.00355902777778,37.88137364387512L164.40750868055557,56.48857954144478L164.81145833333332,57.87545907497406L165.2154079861111,204.07794262468815L165.61935763888889,106.57921421527863L166.02330729166667,139.50796964764595L166.42725694444442,53.76437920331955L166.8312065972222,121.48929673433304L167.23515625,112.39106315374374L167.63910590277777,168.29985040426254L168.04305555555553,193.6456719338894L168.44700520833334,128.1075629889965L168.85095486111112,98.3479814529419L169.2549045138889,89.9900692999363L169.65885416666669,239.289234906435L170.06280381944444,156.56846317648888L170.46675347222222,158.07163032889366L170.870703125,114.21273547410965L171.2746527777778,70.19297915697098L171.67860243055557,193.02108424901962L172.08255208333333,138.64476683735847L172.4865017361111,129.22842371463776L172.8904513888889,101.4046921133995L173.29440104166667,-24.55829930305481L173.69835069444443,62.360352605581284L174.1023003472222,107.21184629201889L174.50625,98.61289250850677L174.91019965277778,84.8751548230648L175.31414930555556,49.70554831624031L175.71809895833331,48.06319999694824L176.1220486111111,96.4760382771492L176.52599826388888,93.85963279008865L176.92994791666666,86.37017208337784L177.33389756944447,205.18967758119106L177.73784722222223,231.06332990527153L178.141796875,83.79580843448639L178.5457465277778,156.97545665502548L178.94969618055558,96.02043557167053L179.35364583333333,209.37630879878998L179.75759548611111,191.70549649000168L180.1615451388889,135.95158356428146L180.56549479166668,142.18709501624107L180.96944444444443,27.422028958797455L181.37339409722222,94.1631041765213L181.77734375,83.38092881441116L182.18129340277778,26.42291548848152L182.58524305555557,204.56804390251637L182.98919270833332,123.46207174658775L183.3931423611111,18.6399267911911L183.79709201388889,181.6001182347536L184.20104166666667,133.60663014650345L184.60499131944442,61.41048136353493L185.0089409722222,105.43880957365036L185.412890625,196.01055170595646L185.81684027777777,27.998798668384552L186.22078993055553,-75.51279616355899L186.62473958333334,93.42333662509918L187.02868923611112,185.27407112717628L187.4326388888889,151.18534076213837L187.83658854166669,75.74577230215073L188.24053819444444,71.43922689557076L188.64448784722222,106.68845969438553L189.0484375,52.34257909655571L189.4523871527778,-33.26056417822838L189.85633680555557,116.18667098879814L190.26028645833333,92.00541365146637L190.6642361111111,32.57740277051926L191.0681857638889,52.7171576321125L191.47213541666667,86.22386965155602L191.87608506944443,81.45365077257156L192.2800347222222,155.56956070661545L192.683984375,196.75233694911003L193.08793402777778,41.68223011493683L193.49188368055556,204.53326839208603L193.89583333333331,72.93129014968872L194.2997829861111,202.77889202535152L194.70373263888888,145.51364886760712L195.10768229166666,55.03497111797333L195.51163194444447,9.342851668596268L195.91558159722223,35.36276686191559L196.31953125,111.40664058923721L196.7234809027778,74.85413718223572L197.12743055555558,148.94377756118774L197.53138020833333,157.59354288876057L197.93532986111111,67.97251600027084L198.3392795138889,174.1500222980976L198.74322916666668,10.82225489616394L199.14717881944443,145.53277078270912L199.55112847222222,161.92282359302044L199.955078125,174.53995111584663L200.35902777777778,6.8547080755233765L200.76297743055557,146.00422489643097L201.16692708333332,122.4963227212429L201.5708767361111,101.05005311965942L201.97482638888889,80.67205238342285L202.37877604166667,161.8885623961687L202.78272569444442,55.90653482079506L203.1866753472222,163.39915412664413L203.590625,21.674878031015396L203.99457465277777,153.45364826917648L204.39852430555553,75.95197248458862L204.80247395833334,131.05713817477226L205.20642361111112,74.33512884378433L205.6103732638889,249.32847771048546L206.01432291666669,-36.862394481897354L206.41827256944444,118.19397094845772L206.82222222222222,143.01268699765205L207.226171875,-87.90021014213568L207.6301215277778,112.15793403983116L208.03407118055557,52.59256187081337L208.43802083333333,42.887517392635345L208.8419704861111,182.08936232328415L209.2459201388889,55.4917870759964L209.64986979166667,141.42256128787994L210.05381944444443,155.22411341965199L210.4577690972222,-38.25051364302635L210.86171875,88.00447601079941L211.26566840277778,217.6524714678526L211.66961805555556,70.46749073266983L212.07356770833331,77.5478743314743L212.4775173611111,50.94570341706276L212.88146701388888,179.49127431213856L213.28541666666666,213.80861046910286L213.68936631944447,136.09585511684418L214.09331597222223,-56.61862966418269L214.497265625,92.79017704725266L214.9012152777778,186.58102105557919L215.30516493055558,45.86937564611435L215.70911458333333,121.23543682694435L216.11306423611111,185.64076352119446L216.5170138888889,85.56264701485634L216.92096354166668,191.9001575857401L217.32491319444443,146.69952410459518L217.72886284722222,60.41015464067459L218.1328125,69.80974960327148L218.53676215277778,14.413508802652359L218.94071180555557,153.2088350057602L219.34466145833332,-97.23755997419363L219.7486111111111,144.97296023368835L220.15256076388889,123.29997065663338L220.55651041666667,176.69992308318615L220.96046006944442,124.61123290657997L221.3644097222222,105.7782829105854L221.768359375,40.24059596657753L222.17230902777777,143.4145109653473L222.57625868055553,209.70040547847748L222.98020833333334,-12.284983813762665L223.38415798611112,78.6478987634182L223.7881076388889,117.60330158472061L224.19205729166669,226.70865002274513L224.59600694444444,-84.11581170558935L224.99995659722222,156.20931404829025L225.40390625,62.278537184000015L225.8078559027778,159.52705863118172L226.21180555555557,44.17306396365166L226.61575520833333,105.91941583156586L227.0197048611111,119.41033574938774L227.4236545138889,94.31774112582207L227.82760416666667,102.04771596193314L228.23155381944443,-110.64700734615332L228.6355034722222,95.47030466794968L229.039453125,205.98603281378746L229.44340277777778,76.73051136732101L229.84735243055556,100.6029959321022L230.25130208333331,94.90909624099731L230.6552517361111,-53.87965929508212L231.05920138888888,73.56561022996902L231.46315104166666,62.05395358800888L231.86710069444447,-45.344480395317106L232.27105034722223,151.63762021064758L232.675,46.19811433553696L233.0789496527778,106.40139359235764L233.48289930555558,85.2060826420784L233.88684895833333,84.74515217542648L234.29079861111111,37.79903072118759L234.6947482638889,116.61661076545715L235.09869791666668,50.91618973016739L235.50264756944443,193.06056770682335L235.90659722222222,205.11792424321175L236.310546875,160.076635658741L236.71449652777778,15.788071185350418L237.11844618055557,118.22074162960052L237.52239583333332,116.20473790168762L237.9263454861111,-8.073203980922699L238.33029513888889,42.02573883533478L238.73424479166667,15.519942373037338L239.13819444444442,52.95899051427841L239.5421440972222,182.6714861690998L239.94609375,123.21952673792839L240.35004340277777,168.86690090596676L240.75399305555553,95.30622544884682L241.15794270833334,61.2867032289505L241.56189236111112,49.64475381374359L241.9658420138889,194.5523935854435L242.36979166666669,150.95595690608025L242.77374131944444,10.5266432762146L243.17769097222222,99.11380755901337L243.581640625,54.56676113605499L243.9855902777778,-55.67218717932704L244.38953993055557,104.89099967479706L244.79348958333333,128.9709767997265L245.1974392361111,-50.51225048303607L245.6013888888889,113.60523882508278L246.00533854166667,42.16887626051903L246.40928819444443,176.08406554162502L246.8132378472222,-49.79181584715846L247.2171875,81.66607546806335L247.62113715277778,26.95806536078453L248.02508680555556,124.93910121917725L248.42903645833331,-41.34707701206207L248.8329861111111,23.868016630411148L249.23693576388888,157.61837500333786L249.64088541666666,-103.3671755790711L250.04483506944447,270.0862528681755L250.44878472222223,122.11058753728867L250.852734375,162.0926130115986L251.2566840277778,-2.954544246196747L251.66063368055558,25.81404733657837L252.06458333333333,259.1218786239624L252.46853298611111,-4.376212477684021L252.8724826388889,89.06570273637772L253.27643229166668,131.183131814003L253.68038194444443,41.40763941407204L254.08433159722222,225.22336515784264L254.48828125,41.7566077709198L254.89223090277778,166.10726568102837L255.29618055555557,154.16680338978767L255.70013020833332,203.28301164507866L256.10407986111113,121.4745267033577L256.50802951388886,-54.89894968271258L256.91197916666664,261.597823753953L257.3159288194444,122.39063787460327L257.7198784722222,49.52735844254494L258.123828125,143.7227298617363L258.52777777777777,143.29872447252274L258.93172743055555,155.04045072197914L259.33567708333334,18.896978080272675L259.7396267361111,138.05391284823418L260.1435763888889,-46.74378257989886L260.5475260416667,171.4173819422722L260.95147569444447,66.06190699338913L261.35542534722225,120.6372241973877L261.75937500000003,134.62676453590393L262.16332465277776,53.13222187757492L262.56727430555554,114.57159447669983L262.9712239583333,100.2953836619854L263.3751736111111,153.58760717511177L263.7791232638889,30.0945605635643L264.1830729166667,205.04283446073532L264.58702256944446,65.78314903378487L264.99097222222224,63.02160161733627L265.39492187499997,57.198147654533386L265.79887152777775,121.5149596631527L266.20282118055553,122.15378987789154L266.6067708333333,-23.63807362318039L267.0107204861111,50.45789676904678L267.4146701388889,-29.823999971151352L267.81861979166666,133.52655547857285L268.22256944444445,23.43852522969246L268.62651909722223,81.61026585102081L269.03046875,158.93397594988346L269.4344184027778,174.13749414682388L269.8383680555556,155.4274519085884L270.24231770833336,43.62733769416809L270.64626736111114,57.85103577375412L271.05021701388887,164.6461008042097L271.45416666666665,84.0730630159378L271.85811631944443,-47.75249657034877L272.2620659722222,212.35210078954697L272.666015625,33.390941351652145L273.0699652777778,211.2932610064745L273.87786458333335,-89.27983653545385L274.28181423611113,130.6610903441906" style="fill: none;" fill="none"></path></g></g></g></g></g></g><g transform="translate(39, 177)" clip-path="url(#clip_1)"><clipPath id="clip_1"><rect width="290" height="23"></rect></clipPath><g><g><line x1="0" y1="0" x2="0" y2="5" style="visibility: inherit;" fill="rgb(0, 0, 0)" stroke="rgb(204, 204, 204)" stroke-width="1px"></line><line x1="32.31597222222222" y1="0" x2="32.31597222222222" y2="5" style="visibility: inherit;" fill="rgb(0, 0, 0)" stroke="rgb(204, 204, 204)" stroke-width="1px"></line><line x1="64.63194444444444" y1="0" x2="64.63194444444444" y2="5" style="visibility: inherit;" fill="rgb(0, 0, 0)" stroke="rgb(204, 204, 204)" stroke-width="1px"></line><line x1="96.94791666666666" y1="0" x2="96.94791666666666" y2="5" style="visibility: inherit;" fill="rgb(0, 0, 0)" stroke="rgb(204, 204, 204)" stroke-width="1px"></line><line x1="129.26388888888889" y1="0" x2="129.26388888888889" y2="5" style="visibility: inherit;" fill="rgb(0, 0, 0)" stroke="rgb(204, 204, 204)" stroke-width="1px"></line><line x1="161.57986111111111" y1="0" x2="161.57986111111111" y2="5" style="visibility: inherit;" fill="rgb(0, 0, 0)" stroke="rgb(204, 204, 204)" stroke-width="1px"></line><line x1="193.89583333333331" y1="0" x2="193.89583333333331" y2="5" style="visibility: inherit;" fill="rgb(0, 0, 0)" stroke="rgb(204, 204, 204)" stroke-width="1px"></line><line x1="226.21180555555557" y1="0" x2="226.21180555555557" y2="5" style="visibility: inherit;" fill="rgb(0, 0, 0)" stroke="rgb(204, 204, 204)" stroke-width="1px"></line><line x1="258.52777777777777" y1="0" x2="258.52777777777777" y2="5" style="visibility: inherit;" fill="rgb(0, 0, 0)" stroke="rgb(204, 204, 204)" stroke-width="1px"></line><line x1="290.84375" y1="0" x2="290.84375" y2="5" style="visibility: inherit;" fill="rgb(0, 0, 0)" stroke="rgb(204, 204, 204)" stroke-width="1px"></line></g><g transform="translate(0, 8)"><text x="0" y="0" dx="0em" dy="0.95em" style="text-anchor: middle; visibility: hidden; font-family: &quot;Helvetica Neue&quot;, sans-serif; font-size: 12px; font-weight: 200;" fill="rgb(50, 49, 63)" stroke="none" stroke-width="1px">-2k</text><text x="32.31597222222222" y="0" dx="0em" dy="0.95em" style="text-anchor: middle; visibility: inherit; font-family: &quot;Helvetica Neue&quot;, sans-serif; font-size: 12px; font-weight: 200;" fill="rgb(50, 49, 63)" stroke="none" stroke-width="1px">0</text><text x="64.63194444444444" y="0" dx="0em" dy="0.95em" style="text-anchor: middle; visibility: inherit; font-family: &quot;Helvetica Neue&quot;, sans-serif; font-size: 12px; font-weight: 200;" fill="rgb(50, 49, 63)" stroke="none" stroke-width="1px">2k</text><text x="96.94791666666666" y="0" dx="0em" dy="0.95em" style="text-anchor: middle; visibility: inherit; font-family: &quot;Helvetica Neue&quot;, sans-serif; font-size: 12px; font-weight: 200;" fill="rgb(50, 49, 63)" stroke="none" stroke-width="1px">4k</text><text x="129.26388888888889" y="0" dx="0em" dy="0.95em" style="text-anchor: middle; visibility: inherit; font-family: &quot;Helvetica Neue&quot;, sans-serif; font-size: 12px; font-weight: 200;" fill="rgb(50, 49, 63)" stroke="none" stroke-width="1px">6k</text><text x="161.57986111111111" y="0" dx="0em" dy="0.95em" style="text-anchor: middle; visibility: inherit; font-family: &quot;Helvetica Neue&quot;, sans-serif; font-size: 12px; font-weight: 200;" fill="rgb(50, 49, 63)" stroke="none" stroke-width="1px">8k</text><text x="193.89583333333331" y="0" dx="0em" dy="0.95em" style="text-anchor: middle; visibility: inherit; font-family: &quot;Helvetica Neue&quot;, sans-serif; font-size: 12px; font-weight: 200;" fill="rgb(50, 49, 63)" stroke="none" stroke-width="1px">10k</text><text x="226.21180555555557" y="0" dx="0em" dy="0.95em" style="text-anchor: middle; visibility: inherit; font-family: &quot;Helvetica Neue&quot;, sans-serif; font-size: 12px; font-weight: 200;" fill="rgb(50, 49, 63)" stroke="none" stroke-width="1px">12k</text><text x="258.52777777777777" y="0" dx="0em" dy="0.95em" style="text-anchor: middle; visibility: inherit; font-family: &quot;Helvetica Neue&quot;, sans-serif; font-size: 12px; font-weight: 200;" fill="rgb(50, 49, 63)" stroke="none" stroke-width="1px">14k</text><text x="290.84375" y="0" dx="0em" dy="0.95em" style="text-anchor: middle; visibility: hidden; font-family: &quot;Helvetica Neue&quot;, sans-serif; font-size: 12px; font-weight: 200;" fill="rgb(50, 49, 63)" stroke="none" stroke-width="1px">16k</text></g><line x1="0" y1="0" x2="290.84375" y2="0" fill="rgb(0, 0, 0)" stroke="rgb(204, 204, 204)" stroke-width="1px"></line></g></g></g></g></svg>