<svg viewBox="0 0 330 200" xmlns="http://www.w3.org/2000/svg"><g><g><g><g><g><line x1="48.875" y1="177" x2="43.875" y2="177" style="visibility: inherit;" fill="rgb(0, 0, 0)" stroke="rgb(204, 204, 204)" stroke-width="1px"></line><line x1="48.875" y1="154.875" x2="43.875" y2="154.875" style="visibility: inherit;" fill="rgb(0, 0, 0)" stroke="rgb(204, 204, 204)" stroke-width="1px"></line><line x1="48.875" y1="132.74999999999997" x2="43.875" y2="132.74999999999997" style="visibility: inherit;" fill="rgb(0, 0, 0)" stroke="rgb(204, 204, 204)" stroke-width="1px"></line><line x1="48.875" y1="110.62499999999999" x2="43.875" y2="110.62499999999999" style="visibility: inherit;" fill="rgb(0, 0, 0)" stroke="rgb(204, 204, 204)" stroke-width="1px"></line><line x1="48.875" y1="88.49999999999999" x2="43.875" y2="88.49999999999999" style="visibility: inherit;" fill="rgb(0, 0, 0)" stroke="rgb(204, 204, 204)" stroke-width="1px"></line><line x1="48.875" y1="66.37499999999996" x2="43.875" y2="66.37499999999996" style="visibility: inherit;" fill="rgb(0, 0, 0)" stroke="rgb(204, 204, 204)" stroke-width="1px"></line><line x1="48.875" y1="44.25" x2="43.875" y2="44.25" style="visibility: inherit;" fill="rgb(0, 0, 0)" stroke="rgb(204, 204, 204)" stroke-width="1px"></line><line x1="48.875" y1="22.12499999999997" x2="43.875" y2="22.12499999999997" style="visibility: inherit;" fill="rgb(0, 0, 0)" stroke="rgb(204, 204, 204)" stroke-width="1px"></line><line x1="48.875" y1="0" x2="43.875" y2="0" style="visibility: inherit;" fill="rgb(0, 0, 0)" stroke="rgb(204, 204, 204)" stroke-width="1px"></line></g><g transform="translate(38.875, 0)"><text x="0" y="177" dx="0em" dy="0.3em" style="text-anchor: end; visibility: hidden; font-family: &quot;Helvetica Neue&quot;, sans-serif; font-size: 12px; font-weight: 200;" fill="rgb(50, 49, 63)" stroke="none" stroke-width="1px">0.3</text><text x="0" y="154.875" dx="0em" dy="0.3em" style="text-anchor: end; visibility: inherit; font-family: &quot;Helvetica Neue&quot;, sans-serif; font-size: 12px; font-weight: 200;" fill="rgb(50, 49, 63)" stroke="none" stroke-width="1px">0.35</text><text x="0" y="132.74999999999997" dx="0em" dy="0.3em" style="text-anchor: end; visibility: hidden; font-family: &quot;Helvetica Neue&quot;, sans-serif; font-size: 12px; font-weight: 200;" fill="rgb(50, 49, 63)" stroke="none" stroke-width="1px">0.4</text><text x="0" y="110.62499999999999" dx="0em" dy="0.3em" style="text-anchor: end; visibility: inherit; font-family: &quot;Helvetica Neue&quot;, sans-serif; font-size: 12px; font-weight: 200;" fill="rgb(50, 49, 63)" stroke="none" stroke-width="1px">0.45</text><text x="0" y="88.49999999999999" dx="0em" dy="0.3em" style="text-anchor: end; visibility: hidden; font-family: &quot;Helvetica Neue&quot;, sans-serif; font-size: 12px; font-weight: 200;" fill="rgb(50, 49, 63)" stroke="none" stroke-width="1px">0.5</text><text x="0" y="66.37499999999996" dx="0em" dy="0.3em" style="text-anchor: end; visibility: inherit; font-family: &quot;Helvetica Neue&quot;, sans-serif; font-size: 12px; font-weight: 200;" fill="rgb(50, 49, 63)" stroke="none" stroke-width="1px">0.55</text><text x="0" y="44.25" dx="0em" dy="0.3em" style="text-anchor: end; visibility: hidden; font-family: &quot;Helvetica Neue&quot;, sans-serif; font-size: 12px; font-weight: 200;" fill="rgb(50, 49, 63)" stroke="none" stroke-width="1px">0.6</text><text x="0" y="22.12499999999997" dx="0em" dy="0.3em" style="text-anchor: end; visibility: inherit; font-family: &quot;Helvetica Neue&quot;, sans-serif; font-size: 12px; font-weight: 200;" fill="rgb(50, 49, 63)" stroke="none" stroke-width="1px">0.65</text><text x="0" y="0" dx="0em" dy="0.3em" style="text-anchor: end; visibility: hidden; font-family: &quot;Helvetica Neue&quot;, sans-serif; font-size: 12px; font-weight: 200;" fill="rgb(50, 49, 63)" stroke="none" stroke-width="1px">0.7</text></g><line x1="48.875" y1="0" x2="48.875" y2="177" fill="rgb(0, 0, 0)" stroke="rgb(204, 204, 204)" stroke-width="1px"></line></g></g><g transform="translate(48, 0)" clip-path="url(#clip_0)"><clipPath id="clip_0"><rect width="281" height="177"></rect></clipPath><g><g><g><line x1="0" y1="0" x2="0" y2="177" fill="rgb(0, 0, 0)" stroke="rgb(60, 60, 60)" stroke-width="1px" opacity="0.25"></line><line x1="31.23611111111111" y1="0" x2="31.23611111111111" y2="177" fill="rgb(0, 0, 0)" stroke="rgb(60, 60, 60)" stroke-width="1px" opacity="0.25"></line><line x1="62.47222222222222" y1="0" x2="62.47222222222222" y2="177" fill="rgb(0, 0, 0)" stroke="rgb(60, 60, 60)" stroke-width="1px" opacity="0.25"></line><line x1="93.70833333333333" y1="0" x2="93.70833333333333" y2="177" fill="rgb(0, 0, 0)" stroke="rgb(60, 60, 60)" stroke-width="1px" opacity="0.25"></line><line x1="124.94444444444444" y1="0" x2="124.94444444444444" y2="177" fill="rgb(0, 0, 0)" stroke="rgb(60, 60, 60)" stroke-width="1px" opacity="0.25"></line><line x1="156.18055555555557" y1="0" x2="156.18055555555557" y2="177" fill="rgb(0, 0, 0)" stroke="rgb(60, 60, 60)" stroke-width="1px" opacity="0.25"></line><line x1="187.41666666666666" y1="0" x2="187.41666666666666" y2="177" fill="rgb(0, 0, 0)" stroke="rgb(60, 60, 60)" stroke-width="1px" opacity="0.25"></line><line x1="218.65277777777777" y1="0" x2="218.65277777777777" y2="177" fill="rgb(0, 0, 0)" stroke="rgb(60, 60, 60)" stroke-width="1px" opacity="0.25"></line><line x1="249.88888888888889" y1="0" x2="249.88888888888889" y2="177" fill="rgb(0, 0, 0)" stroke="rgb(60, 60, 60)" stroke-width="1px" opacity="0.25"></line><line x1="281.125" y1="0" x2="281.125" y2="177" fill="rgb(0, 0, 0)" stroke="rgb(60, 60, 60)" stroke-width="1px" opacity="0.25"></line></g><g><line x1="0" y1="177" x2="281.125" y2="177" fill="rgb(0, 0, 0)" stroke="rgb(60, 60, 60)" stroke-width="1px" opacity="0.25"></line><line x1="0" y1="154.875" x2="281.125" y2="154.875" fill="rgb(0, 0, 0)" stroke="rgb(60, 60, 60)" stroke-width="1px" opacity="0.25"></line><line x1="0" y1="132.74999999999997" x2="281.125" y2="132.74999999999997" fill="rgb(0, 0, 0)" stroke="rgb(60, 60, 60)" stroke-width="1px" opacity="0.25"></line><line x1="0" y1="110.62499999999999" x2="281.125" y2="110.62499999999999" fill="rgb(0, 0, 0)" stroke="rgb(60, 60, 60)" stroke-width="1px" opacity="0.25"></line><line x1="0" y1="88.49999999999999" x2="281.125" y2="88.49999999999999" fill="rgb(0, 0, 0)" stroke="rgb(60, 60, 60)" stroke-width="1px" opacity="0.25"></line><line x1="0" y1="66.37499999999996" x2="281.125" y2="66.37499999999996" fill="rgb(0, 0, 0)" stroke="rgb(60, 60, 60)" stroke-width="1px" opacity="0.25"></line><line x1="0" y1="44.25" x2="281.125" y2="44.25" fill="rgb(0, 0, 0)" stroke="rgb(60, 60, 60)" stroke-width="1px" opacity="0.25"></line><line x1="0" y1="22.12499999999997" x2="281.125" y2="22.12499999999997" fill="rgb(0, 0, 0)" stroke="rgb(60, 60, 60)" stroke-width="1px" opacity="0.25"></line><line x1="0" y1="0" x2="281.125" y2="0" fill="rgb(0, 0, 0)" stroke="rgb(60, 60, 60)" stroke-width="1px" opacity="0.25"></line></g></g></g><g><g><line x1="0" y1="309.75" x2="281.125" y2="309.75" fill="rgb(0, 0, 0)" stroke="rgb(153, 153, 153)" stroke-width="1.5px"></line></g></g><g><g><line x1="31.23611111111111" y1="0" x2="31.23611111111111" y2="177" fill="rgb(0, 0, 0)" stroke="rgb(153, 153, 153)" stroke-width="1.5px"></line></g></g><g><g><g><g><g><path stroke="rgb(204, 51, 17)" stroke-width="2px" d="M31.626562500000002,180.6874912083149L32.01701388888889,146.1171787083149L32.40746527777778,154.348207736806L32.797916666666666,145.2698703596697L33.18836805555556,128.64410060103324L33.57881944444445,138.87635280266522L33.96927083333333,173.53348844302522L34.359722222222224,150.94061891096064L34.750173611111116,151.7853810862977L35.140625,152.28675676209002L35.531076388888884,163.68841542253523L35.921527777777776,153.87292956060355L36.31197916666667,164.6127812113068L36.70243055555556,126.76300454901647L37.09288194444444,140.96447829078508L37.483333333333334,153.16963018196327L37.87378472222222,160.49051729080722L38.26423611111111,157.50650380152965L38.6546875,152.0285684775933L39.04513888888889,152.42965223413955L39.43559027777778,152.67029310273657L39.82604166666667,149.1271292259153L40.21649305555555,139.62619898715752L40.60694444444444,139.0882189531444L40.997395833333336,135.44667101886097L41.38784722222222,135.10550027100464L41.77829861111111,155.55082073652395L42.168749999999996,154.54298830633624L42.55920138888889,169.9174641430698L42.94965277777778,152.10047103029532L43.34010416666667,146.01965681159152L43.730555555555554,167.26179577754476L44.121006944444446,157.88207701862683L44.51145833333333,152.2542460499321L44.90190972222222,158.09629421371417L45.29236111111111,164.18277588767225L45.682812500000004,172.99716523548517L46.07326388888889,154.31705047859785L46.46371527777778,140.89647849892177L46.854166666666664,142.06288710091226L47.24461805555556,139.0752304998141L47.63506944444445,137.28263654068877L48.02552083333333,139.89458192516742L48.41597222222222,134.08674563742022L48.80642361111111,123.22704562298631L49.196875,115.92105005786257L49.58732638888889,90.20262300040707L49.97777777777778,72.55906887650445L50.368229166666666,71.56044835923727L50.75868055555556,91.85710352126443L51.14913194444444,105.26425859614966L51.53958333333333,119.45438790495209L51.930034722222224,122.74450598463994L52.320486111111116,127.48420183245193L52.7109375,148.9499003194935L53.101388888888884,127.2282746972459L53.491840277777776,136.07446270834512L53.88229166666667,126.63217375666436L54.27274305555556,151.01992573732653L54.66319444444444,126.01195544239471L55.053645833333334,107.62696727655229L55.44409722222222,122.71576135481563L55.83454861111111,120.09195681288938L56.225,130.93225964829392L56.61545138888889,112.48435719564591L57.00590277777778,138.29061220738316L57.39635416666667,154.32749232442993L57.78680555555555,130.1036407637108L58.17725694444444,134.1121858648961L58.567708333333336,112.91731433227687L58.95815972222222,120.11288824769872L59.34861111111111,128.3635656958402L59.739062499999996,92.13688238415604L60.12951388888889,91.17379211159638L60.51996527777778,72.89594427807387L60.91041666666667,93.1500637535051L61.300868055555554,103.09003754876824L61.691319444444446,133.7602746392654L62.08177083333333,126.71866478355923L62.47222222222222,100.36869887013553L62.86267361111111,97.62300689518044L63.253125000000004,109.64567737877123L63.64357638888889,118.5186557239279L64.03402777777778,105.03619484102637L64.42447916666666,116.85921514627881L64.81493055555556,120.2655308461043L65.20538194444444,131.15931710099298L65.59583333333333,128.84558674392176L65.98628472222222,140.73235169468563L66.37673611111111,138.27690925847438L66.76718749999999,126.35573006064263L67.1576388888889,133.33843803638555L67.54809027777777,137.52806282183133L67.93854166666667,106.85433769309878L68.32899305555556,82.55010824253773L68.71944444444445,121.8050614288486L69.10989583333333,141.67053685730914L69.50034722222223,134.41481930104624L69.89079861111111,118.99889404229957L70.28125,121.54933290870571L70.67170138888889,107.71501875633945L71.06215277777777,107.40400949546665L71.45260416666666,117.72677682893854L71.84305555555555,134.3068970862471L72.23350694444444,114.7549762739803L72.62395833333333,107.94048752272519L73.01440972222223,94.63304251363512L73.40486111111112,94.02357374984405L73.79531250000001,66.00164776658048L74.18576388888889,91.96349358329192L74.57621527777778,97.95309439163812L74.96666666666667,90.48434960163479L75.35711805555556,101.12185413430241L75.74756944444444,120.04186072224442L76.13802083333333,122.70190189644137L76.52847222222222,109.51280909397862L76.91892361111113,113.39935270916618L77.309375,108.9708616254997L77.6998263888889,106.31376697529981L78.09027777777779,103.9820108885147L78.48072916666666,90.66003963199718L78.87118055555555,117.32935547141707L79.26163194444445,107.39552490895079L79.65208333333334,88.03731564870529L80.04253472222221,57.80051438922317L80.4329861111111,52.50322272130626L80.8234375,79.8081818744467L81.21388888888887,86.23490631132876L81.60434027777778,91.07427688568566L81.99479166666667,84.51331613141139L82.38524305555556,78.20620245741507L82.77569444444444,60.19872147444907L83.16614583333333,77.66506387355341L83.55659722222222,78.31154184080606L83.94704861111111,54.73067510448365L84.33749999999999,90.73215998603384L84.72795138888888,99.67262873884128L85.11840277777777,97.66191174886278L85.50885416666667,109.97631606043369L85.89930555555556,100.15662765849225L86.28975694444445,100.7793899795329L86.68020833333334,53.46137695437169L87.07065972222223,61.33099518373905L87.46111111111111,64.82360414359151L87.8515625,72.45040896948088L88.24201388888889,59.81816087613052L88.63246527777777,38.103396525678306L89.02291666666666,51.308465582547896L89.41336805555555,58.07258708621164L89.80381944444444,55.49354521837894L90.19427083333333,73.67425002102293L90.58472222222223,85.01288697984361L90.97517361111112,92.3077265612277L91.36562500000001,88.85309568595841L91.75607638888889,112.68060565323802L92.14652777777778,60.9708612819384L92.53697916666667,56.49502098917189L92.92743055555556,77.65534147238267L93.31788194444444,77.93695347675997L93.70833333333333,60.03717208605599L94.09878472222222,73.57334198773854L94.48923611111113,48.814829148179L94.8796875,40.351399598911854L95.2701388888889,45.475424264905115L95.66059027777779,58.997747525595L96.05104166666666,70.92156682313819L96.44149305555555,73.03627108276689L96.83194444444445,90.28426264966012L97.22239583333334,80.35180055644797L97.61284722222221,104.81420357553176L98.0032986111111,91.89685454087264L98.39375,51.81936272452357L98.78420138888887,57.27287115138816L99.17465277777778,55.01371565748485L99.56510416666667,61.03322587781683L99.95555555555556,61.572016515574106L100.34600694444444,76.39946131601407L100.73645833333333,91.68759052571342L101.12690972222222,83.7750500954192L101.51736111111111,101.76710682612665L101.90781249999999,120.06026268900636L102.29826388888888,94.5299040967298L102.68871527777777,96.42002520525887L103.07916666666667,95.2186816725995L103.46961805555556,65.48953999244367L103.86006944444445,48.77586444117543L104.25052083333334,69.45926936804005L104.64097222222223,80.76305810415L105.03142361111111,101.31200246693642L105.421875,83.2809585135099L105.81232638888889,60.78523005252582L106.20277777777777,63.881553525957486L106.59322916666666,62.42059550001203L106.98368055555555,73.46693828889116L107.37413194444444,73.58015804999103L107.76458333333333,78.81059553332943L108.15503472222223,63.72207009856592L108.54548611111112,53.10614841022904L108.93593750000001,56.93868834280261L109.32638888888889,69.56321300568159L109.71684027777778,103.62646970452055L110.10729166666667,109.13004450381507L110.49774305555556,58.10302529561943L110.88819444444444,72.10556341903461L111.27864583333333,54.694584534746724L111.66909722222222,75.59174896251096L112.05954861111113,68.77067789418064L112.45,88.20779179920288L112.8404513888889,79.10591804617364L113.23090277777779,40.08854942103457L113.62135416666666,72.35937789428374L114.01180555555555,101.49375384657466L114.40225694444445,86.95458751683763L114.79270833333334,88.31025180676775L115.18315972222221,65.64657009517663L115.5736111111111,91.38169205710597L115.9640625,77.32276171758954L116.35451388888887,57.21032252499572L116.74496527777778,92.95744773500627L117.13541666666667,65.36196160765563L117.52586805555556,82.36092485458899L117.91631944444444,89.05717850608377L118.30677083333333,88.09680780698504L118.69722222222222,59.495580464182154L119.08767361111111,92.42338982795349L119.47812499999999,81.88111347898644L119.86857638888888,86.06512583461284L120.25902777777777,72.41199732522298L120.64947916666667,54.878444878459746L121.03993055555556,62.42706200373219L121.43038194444445,82.68957522447135L121.82083333333334,63.87207049688831L122.21128472222223,70.58887292481145L122.60173611111111,73.32832797489571L122.9921875,84.66485493255855L123.38263888888889,100.39578760786773L123.77309027777777,66.87496834471179L124.16354166666666,90.88956375404807L124.55399305555555,61.66290726354488L124.94444444444444,60.35190844589931L125.33489583333333,65.71115069421806L125.72534722222223,79.74335415263582L126.11579861111112,85.70434172212842L126.50625000000001,50.1934346154914L126.89670138888889,36.016057252620755L127.28715277777778,64.38463259323547L127.67760416666667,59.772445753718074L128.06805555555556,68.80513294667284L128.45850694444445,52.71432625132964L128.84895833333331,61.128601377476244L129.2394097222222,44.05216645316423L129.62986111111113,65.70317909190737L130.02031250000002,76.54273738902619L130.41076388888888,78.92876180673726L130.80121527777777,80.17600427070307L131.19166666666666,93.09310396909146L131.58211805555555,52.168368008133356L131.97256944444445,22.57392856263911L132.36302083333334,27.697329978846312L132.75347222222223,56.32048073452877L133.14392361111112,68.57770745183329L133.53437499999998,96.15183081165135L133.92482638888887,67.89317244252666L134.3152777777778,43.68590276218117L134.70572916666669,110.77820803091919L135.09618055555555,101.62108820298907L135.48663194444444,102.76432052623984L135.87708333333333,88.45442682130192L136.26753472222222,87.85807510389718L136.65798611111111,70.78359576567313L137.0484375,68.37045333686054L137.4388888888889,45.93893257321463L137.82934027777776,61.67273313725917L138.21979166666665,71.66614058569033L138.61024305555557,79.87468294474459L139.00069444444446,89.22480941517937L139.39114583333333,57.15214219512811L139.78159722222222,61.33294588817519L140.1720486111111,39.74975627954814L140.5625,54.82485798773773L140.9529513888889,73.94907255040175L141.34340277777778,43.63194634358024L141.73385416666667,23.96667202615697L142.12430555555554,59.61333596291516L142.51475694444443,63.79299806107505L142.90520833333332,60.89246362775222L143.2956597222222,65.29797395664245L143.6861111111111,71.62878718732472L144.0765625,62.1522666857164L144.46701388888889,88.36323325309279L144.85746527777775,73.29918854518607L145.24791666666667,85.83263461043758L145.63836805555556,90.34124590903711L146.02881944444445,101.2818338093173L146.41927083333334,38.644102395594786L146.80972222222223,57.971880448472916L147.20017361111113,55.43313178575781L147.59062500000002,74.27892635558098L147.98107638888888,36.454865660035864L148.37152777777777,3.4354179893518904L148.76197916666666,37.46125079361116L149.15243055555555,68.14029202561085L149.54288194444445,54.159175215366474L149.93333333333334,59.598630129219885L150.32378472222223,77.05918300087558L150.71423611111112,70.20426542720377L151.10468749999998,32.74577555156455L151.49513888888887,54.67871040759509L151.88559027777777,71.89472800289407L152.27604166666666,66.24517482396847L152.66649305555555,96.28876898215346L153.05694444444444,82.28635595754464L153.44739583333333,89.07389632174775L153.83784722222225,91.91724801247958L154.22829861111111,103.33368401638057L154.61875,110.92104491538636L155.0092013888889,94.57762343255777L155.3996527777778,104.74553180675565L155.79010416666668,76.12231908405339L156.18055555555557,94.59422068097898L156.57100694444446,100.76069790302937L156.96145833333333,91.67724902736678L157.35190972222222,98.04474478547294L157.7423611111111,59.8101743434937L158.1328125,63.911101089422175L158.5232638888889,96.73207825809972L158.91371527777778,101.18299484485541L159.30416666666667,107.23375606080387L159.69461805555554,66.55275363648232L160.08506944444443,60.476292627598596L160.47552083333332,59.14827698322878L160.8659722222222,66.95563309104887L161.2564236111111,79.62963126129891L161.646875,72.11527875677932L162.03732638888889,98.95041373739357L162.42777777777775,61.336911626873714L162.81822916666667,78.10215189946787L163.20868055555556,68.74045663412272L163.59913194444445,68.53177116713441L163.98958333333334,17.150311293610997L164.38003472222223,5.865182556157777L164.77048611111113,17.16285390701617L165.16093750000002,37.33937291530799L165.55138888888888,53.501535726952724L165.94184027777777,58.650929876189295L166.33229166666666,61.9863924312716L166.72274305555555,70.37933756876738L167.11319444444445,67.17968353014442L167.50364583333334,85.54114814031868L167.89409722222223,74.74030685084311L168.28454861111112,53.69418833051472L168.67499999999998,59.135265811648026L169.06545138888887,70.88115948698882L169.45590277777777,74.24119920886731L169.84635416666666,51.62998989437328L170.23680555555555,48.59898060091919L170.62725694444444,40.46771653609622L171.01770833333333,48.618129921657726L171.40815972222225,37.283382876338266L171.79861111111111,15.732527615798489L172.1890625,27.631185580595115L172.5795138888889,39.687038820566954L172.9699652777778,59.21222329234017L173.36041666666668,20.53150298652008L173.75086805555557,34.07514897857283L174.14131944444446,49.20758516713485L174.53177083333333,33.58079406693278L174.92222222222222,44.79326693460166L175.3126736111111,65.96345664408696L175.703125,70.36869546977813L176.0935763888889,77.62121728186685L176.48402777777778,38.21439305022284L176.87447916666667,43.947383720129295L177.26493055555554,84.81530171540349L177.65538194444443,61.214183842581335L178.04583333333332,52.584763118888034L178.4362847222222,49.98835294798917L178.8267361111111,68.15863149378244L179.2171875,54.170178896269476L179.60763888888889,66.4271087444313L179.99809027777775,87.85522299387978L180.38854166666667,73.78455794679478L180.77899305555556,74.01657701031775L181.16944444444445,25.726608183958604L181.55989583333334,63.619300119268004L181.95034722222223,53.29032303821273L182.34079861111113,67.37419382292764L182.73125000000002,83.19951981043062L183.12170138888888,118.75304322680972L183.51215277777777,99.27682241941179L183.90260416666666,86.36191740718293L184.29305555555555,94.77652614764456L184.68350694444445,109.1669561830287L185.07395833333334,80.9876715998128L185.46440972222223,110.91135366322249L185.85486111111112,89.65515022016555L186.24531249999998,75.6722556265413L186.63576388888887,88.17835689259883L187.02621527777777,60.6507641355593L187.41666666666666,73.51129369022836L187.80711805555555,41.77135157634251L188.19756944444444,58.0044764402475L188.58802083333333,87.90269008415734L188.97847222222225,104.01541999064563L189.36892361111111,103.34050199438738L189.759375,102.19805189996724L190.1498263888889,88.6063283266411L190.5402777777778,88.68671530376588L190.93072916666668,78.77869116002745L191.32118055555557,77.13596469601642L191.71163194444446,66.82621926331906L192.10208333333333,101.67698296466106L192.49253472222222,63.39428434704922L192.8829861111111,47.09727987012377L193.2734375,48.90836088872618L193.6638888888889,40.864060300687896L194.05434027777778,41.2351065981984L194.44479166666667,70.22022804669142L194.83524305555554,87.11963823468449L195.22569444444443,86.74991145748473L195.61614583333332,54.78923057924851L196.0065972222222,36.666389461822206L196.3970486111111,38.96233016041924L196.7875,52.13989387624271L197.17795138888889,59.30893280907159L197.56840277777775,76.88535933377555L197.95885416666667,53.260384611381355L198.34930555555556,83.94998076682879L198.73975694444445,52.58248846009727L199.13020833333334,49.74115153715226L199.52065972222223,63.216565218956546L199.91111111111113,62.02160251581148L200.30156250000002,83.6754615094869L200.69201388888888,65.38548430124573L201.08246527777777,65.78128847074301L201.47291666666666,85.68543646688335L201.86336805555555,76.05605237457198L202.25381944444445,78.57529691918516L202.64427083333334,30.92018518485918L203.03472222222223,31.827111110915496L203.42517361111112,46.01501947988851L203.81562499999998,58.8298525235044L204.20607638888887,30.87290729409378L204.59652777777777,63.87999543145847L204.98697916666666,79.25924725887509L205.37743055555555,77.424298355325L205.76788194444444,65.87541000207897L206.15833333333333,54.76691782570259L206.54878472222225,78.21639647541268L206.93923611111111,104.4548378852476L207.3296875,97.15102069780049L207.7201388888889,62.083463532953374L208.1105902777778,61.58757811977203L208.50104166666668,38.05879265185433L208.89149305555557,29.34986361334461L209.28194444444446,57.312000915227785L209.67239583333333,30.699706175815123L210.06284722222222,45.70732089214985L210.4532986111111,70.81397176583683L210.84375,80.83838024616286L211.2342013888889,96.19469012546564L211.62465277777778,60.66681337194454L212.01510416666667,97.24383485816013L212.40555555555554,73.83379880489166L212.79600694444443,53.8877722495869L213.18645833333332,56.67016334975216L213.5769097222222,76.80343438174992L213.9673611111111,48.54038669459027L214.3578125,40.55547850008011L214.74826388888889,43.139537100048045L215.13871527777775,64.9712187433548L215.52916666666667,89.13272772933887L215.91961805555556,69.70463382426409L216.31006944444445,56.15134770407383L216.70052083333334,42.540812842453136L217.09097222222223,97.30782150769508L217.48142361111113,71.29094853129551L217.87187500000002,51.44019060210327L218.26232638888888,49.05578337237799L218.65277777777777,51.92721650675273L219.04322916666666,31.156332014056034L219.43368055555555,44.875042175085525L219.82413194444445,51.26252530505131L220.21458333333334,84.59501342469378L220.60503472222223,78.78200453814222L220.99548611111112,90.04420623955937L221.38593749999998,47.75777655707486L221.77638888888887,66.6359134725731L222.16684027777777,53.62529245686541L222.55729166666666,67.57517547411926L222.94774305555555,82.09093627335552L223.33819444444444,85.3920610606785L223.72864583333333,91.79773171306346L224.11909722222225,98.46822353339607L224.50954861111111,77.88718412003762L224.9,74.75731750537062L225.2904513888889,75.09188487654389L225.6809027777778,62.017627409252285L226.07135416666668,73.71683066556022L226.46180555555557,74.46759277265767L226.85225694444446,94.83055214692055L227.24270833333333,99.98062529926835L227.63315972222222,71.41962166288694L228.0236111111111,25.889280734415053L228.4140625,32.496064923974956L228.8045138888889,68.418473459943L229.19496527777778,48.426089702644276L229.58541666666667,54.37647918379203L229.97586805555554,94.76026075193818L230.36631944444443,84.88115293448885L230.75677083333332,107.71619246402811L231.1472222222222,99.04637956618923L231.5376736111111,60.059966075418345L231.928125,46.624374310969046L232.31857638888889,43.70795909213945L232.70902777777775,68.99977369694666L233.09947916666667,73.11235718481991L233.48993055555556,100.83928720088751L233.88038194444445,33.95357865054578L234.27083333333334,58.353394728655616L234.66128472222223,83.01099458441433L235.05173611111113,80.28992773953257L235.44218750000002,91.56353587426648L235.83263888888888,82.96312855790796L236.22309027777777,85.17787713474478L236.61354166666666,68.06923331419492L237.00399305555555,79.9290364718429L237.39444444444445,66.76367188310574L237.78489583333334,61.445705943202654L238.17534722222223,41.845548565921604L238.56579861111112,88.77816012843692L238.95624999999998,67.27939537372733L239.34670138888887,88.7968037736806L239.73715277777777,67.7822442419763L240.12760416666666,100.65268105074381L240.51805555555555,105.37911003711591L240.90850694444444,81.48058891226512L241.29895833333333,104.5696051056961L241.68940972222225,46.5167595467436L242.07986111111111,44.012134606925684L242.4703125,53.44894133525372L242.8607638888889,62.552695790036196L243.2512152777778,77.8482812101267L243.64166666666668,37.85896872607594L244.03211805555557,55.349756235645586L244.42256944444446,46.484853741387354L244.81302083333333,36.249243233716356L245.20347222222222,73.12871495134586L245.5939236111111,42.05103280095432L245.984375,43.42228869168858L246.3748263888889,39.08253659945066L246.76527777777778,47.049522663005234L247.15572916666667,14.58596289446831L247.54618055555554,31.1224059122257L247.93663194444443,63.906776294556394L248.32708333333332,14.74405874338575L248.7175347222222,54.20268630103364L249.1079861111111,53.2769678182369L249.4984375,53.968264493165364L249.88888888888889,56.47262208033679L250.27934027777775,63.13774225931812L250.66979166666667,62.711818586715765L251.06024305555556,64.54584396536868L251.45069444444445,66.75250286254715L251.84114583333334,55.78482567306418L252.23159722222223,67.21152462384737L252.62204861111113,83.40920351041338L253.01250000000002,77.3330192929088L253.40295138888888,84.2581460813033L253.79340277777777,83.74238975878637L254.18385416666666,64.25793315193702L254.57430555555555,56.99226551784068L254.96475694444445,56.68910579403038L255.35520833333334,29.58845925640938L255.74565972222223,56.103078015517454L256.1361111111111,43.986849622649714L256.5265625,58.59627597136661L256.9170138888889,38.1077648794851L257.3074652777778,42.03965330101258L257.69791666666663,64.68004338727714L258.0883680555555,64.37468801013418L258.4788194444444,65.42064731163852L258.8692708333333,63.58988838698308L259.25972222222225,94.44976577941082L259.65017361111114,88.38235243429838L260.04062500000003,64.46066849392712L260.4310763888889,45.80557010747228L260.82152777777776,35.841673053367316L261.21197916666665,64.2800073486944L261.60243055555554,73.35342342033266L261.99288194444443,43.766219546641594L262.3833333333333,72.72223172798495L262.7737847222222,97.71666861900532L263.1642361111111,65.75917018251921L263.5546875,83.95133556006735L263.9451388888889,37.83329430269231L264.3355902777778,52.13851777939219L264.7260416666667,78.66748742597234L265.11649305555557,67.42027662001209" style="fill: none;" fill="none"></path></g></g></g></g><g opacity="0.2"><g><g><g><path stroke="rgb(204, 51, 17)" stroke-width="2px" d="M31.626562500000002,180.6874912083149L32.01701388888889,125.3749912083149L32.40746527777778,162.24999560415745L32.797916666666666,134.59374560415745L33.18836805555556,106.93749560415743L33.57881944444445,153.0312412083149L33.96927083333333,223.0937469229102L34.359722222222224,117.99999824166298L34.750173611111116,153.0312412083149L35.140625,153.0312412083149L35.531076388888884,180.6874912083149L35.921527777777776,139.2031162083149L36.31197916666667,180.6874912083149L36.70243055555556,70.06249120831488L37.09288194444444,162.24999560415745L37.483333333333334,171.46875L37.87378472222222,171.46875L38.26423611111111,153.0312412083149L38.6546875,143.8125L39.04513888888889,153.0312412083149L39.43559027777778,153.0312412083149L39.82604166666667,143.8125L40.21649305555555,125.3749912083149L40.60694444444444,138.28125527501106L40.997395833333336,129.984375L41.38784722222222,134.59374560415745L41.77829861111111,186.2187491208315L42.168749999999996,153.0312412083149L42.55920138888889,192.97916373610497L42.94965277777778,125.3749912083149L43.34010416666667,136.8984375L43.730555555555554,199.125L44.121006944444446,143.8125L44.51145833333333,143.8125L44.90190972222222,166.8593662083149L45.29236111111111,173.31249824166298L45.682812500000004,186.2187491208315L46.07326388888889,126.29687851667404L46.46371527777778,120.76562060415745L46.854166666666664,143.8125L47.24461805555556,134.59374560415745L47.63506944444445,134.59374560415745L48.02552083333333,143.8125L48.41597222222222,125.3749912083149L48.80642361111111,106.93749560415743L49.196875,104.9620567113161L49.58732638888889,51.62498241662978L49.97777777777778,46.093737691640825L50.368229166666666,70.0625175833702L50.75868055555556,122.30208626389503L51.14913194444444,125.3749912083149L51.53958333333333,140.73958186805248L51.930034722222224,127.67968310415745L52.320486111111116,134.59374560415745L52.7109375,181.14844805002213L53.101388888888884,94.64583626389502L53.491840277777776,149.34374472498894L53.88229166666667,112.46874032914637L54.27274305555556,187.6015537083149L54.66319444444444,88.49999999999999L55.053645833333334,80.04948502779006L55.44409722222222,145.34895247220993L55.83454861111111,116.15625L56.225,147.19271390140057L56.61545138888889,84.81250351667403L57.00590277777778,176.99999472498894L57.39635416666667,178.3828125L57.78680555555555,93.7678634226322L58.17725694444444,140.12500351667404L58.567708333333336,81.12500703334807L58.95815972222222,130.9062491208315L59.34861111111111,140.73958186805248L59.739062499999996,37.79685741662976L60.12951388888889,89.72915670275687L60.51996527777778,45.47917252779004L60.91041666666667,123.53124296665192L61.300868055555554,117.99999824166298L61.691319444444446,179.76563027501106L62.08177083333333,116.15625L62.47222222222222,60.843749999999986L62.86267361111111,93.50446893274783L63.253125000000004,127.67968310415745L63.64357638888889,131.82812324166298L64.03402777777778,84.81250351667403L64.42447916666666,134.59374560415745L64.81493055555556,125.37500439584255L65.20538194444444,147.49999648332596L65.59583333333333,125.3749912083149L65.98628472222222,158.5624991208315L66.37673611111111,134.59374560415745L66.76718749999999,108.47396126389502L67.1576388888889,143.8125L67.54809027777777,143.8125L67.93854166666667,60.843749999999986L68.32899305555556,46.09376406669614L68.71944444444445,180.6874912083149L69.10989583333333,171.46875L69.50034722222223,123.53124296665192L69.89079861111111,95.87500615417956L70.28125,125.3749912083149L70.67170138888889,86.96354752779006L71.06215277777777,106.93749560415743L71.45260416666666,133.21092782914639L71.84305555555555,159.17707747220993L72.23350694444444,85.42709505558012L72.62395833333333,97.71875439584254L73.01440972222223,74.67187499999999L73.40486111111112,93.10937060415743L73.79531250000001,23.968758791685076L74.18576388888889,130.90626230835915L74.57621527777778,106.93749560415743L74.96666666666667,79.28123241662978L75.35711805555556,117.07811093330383L75.74756944444444,148.42187060415745L76.13802083333333,126.69196365773678L76.52847222222222,89.72916989028452L76.91892361111113,119.22916813194752L77.309375,102.32812499999999L77.6998263888889,102.32812499999999L78.09027777777779,100.484376758337L78.48072916666666,70.67708274722098L78.87118055555555,157.33332923054695L79.26163194444445,92.49477906525134L79.65208333333334,59.00000175833701L80.04253472222221,12.445312499999972L80.4329861111111,44.557285219430895L80.8234375,120.76562060415745L81.21388888888887,95.8749929666519L81.60434027777778,98.33333274722098L81.99479166666667,74.67187499999999L82.38524305555556,68.74553194642066L82.77569444444444,33.18749999999997L83.16614583333333,103.86457747220992L83.55659722222222,79.28125879168509L83.94704861111111,19.35937499999997L84.33749999999999,144.73438730835915L84.72795138888888,113.08333186805248L85.11840277777777,94.64583626389502L85.50885416666667,128.44792252779007L85.89930555555556,85.42709505558012L86.28975694444445,101.71353346109389L86.68020833333334,-17.515642583370237L87.07065972222223,73.13542252779006L87.46111111111111,70.0625175833702L87.8515625,83.89061620831488L88.24201388888889,40.86978873610494L88.63246527777777,5.531249999999972L89.02291666666666,71.11606916785239L89.41336805555555,68.21876934170722L89.80381944444444,51.62498241662978L90.19427083333333,100.94530722498892L90.58472222222223,102.0208424180746L90.97517361111112,103.24998593330382L91.36562500000001,83.67114937305449L91.75607638888889,148.42187060415745L92.14652777777778,-16.59375527501109L92.53697916666667,49.78126055002211L92.92743055555556,109.39582219719885L93.31788194444444,78.35937148332594L93.70833333333333,33.18749999999997L94.09878472222222,93.8775968402624L94.48923611111113,11.677059888839693L94.8796875,27.656255275011034L95.2701388888889,53.16146126389502L95.66059027777779,79.28123241662978L96.05104166666666,88.80729576945303L96.44149305555555,76.20832747220992L96.83194444444445,116.15625L97.22239583333334,65.45310741662978L97.61284722222221,141.50780810415745L98.0032986111111,72.52083098888396L98.39375,-8.296875000000028L98.78420138888887,65.45313379168509L99.17465277777778,51.62498241662978L99.56510416666667,70.06249120831488L99.95555555555556,62.380202472209916L100.34600694444444,98.64062851667403L100.73645833333333,114.61978434026241L101.12690972222222,71.90623944997786L101.51736111111111,128.7551919221878L101.90781249999999,147.49999648332596L102.29826388888888,56.23436620831488L102.68871527777777,99.25520686805247L103.07916666666667,93.41666637361048L103.46961805555556,20.895827472209902L103.86006944444445,23.705351114273043L104.25052083333334,100.484376758337L104.64097222222223,97.71874120831488L105.03142361111111,132.13541901111603L105.421875,56.234392583370195L105.81232638888889,27.041637361049624L106.20277777777777,68.52603873610495L106.59322916666666,60.22915846109389L106.98368055555555,90.03645247220992L107.37413194444444,73.74998769164084L107.76458333333333,86.656251758337L108.15503472222223,41.08928194642064L108.54548611111112,37.182265877723665L108.93593750000001,62.687498241662965L109.32638888888889,88.49999999999999L109.71684027777778,154.721354752779L110.10729166666667,117.38540670275688L110.49774305555556,-18.43750351667407L110.88819444444444,93.10937060415743L111.27864583333333,28.578116208314867L111.66909722222222,106.93749560415743L112.05954861111113,58.53907129168509L112.45,117.36346265673637L112.8404513888889,65.45310741662978L113.23090277777779,-18.43750351667407L113.62135416666666,120.76562060415745L114.01180555555555,145.19531777501106L114.40225694444445,65.14583802223204L114.79270833333334,90.34374824166296L115.18315972222221,31.65104752779004L115.5736111111111,129.984375L115.9640625,56.23436620831488L116.35451388888887,27.041663736104937L116.74496527777778,146.57813555002213L117.13541666666667,23.968732416629763L117.52586805555556,107.85936972498892L117.91631944444444,99.10155898332594L118.30677083333333,86.656251758337L118.69722222222222,16.593739449977846L119.08767361111111,141.8151038736105L119.47812499999999,66.06769895553587L119.86857638888888,92.34114436805247L120.25902777777777,51.93230456113814L120.64947916666667,28.578116208314867L121.03993055555556,73.74998769164084L121.43038194444445,113.08334505558014L121.82083333333334,35.645813405513735L122.21128472222223,80.66407656669615L122.60173611111111,77.43751055002211L122.9921875,101.66964536905287L123.38263888888889,123.99218662083149L123.77309027777777,16.593739449977846L124.16354166666666,126.91145686805248L124.55399305555555,17.82292252779004L124.94444444444444,58.38541021943091L125.33489583333333,73.75001406669615L125.72534722222223,100.7916593402624L126.11579861111112,94.64582307636736L126.50625000000001,-3.0729260444641397L126.89670138888889,14.749991208314867L127.28715277777778,106.93749560415743L127.67760416666667,52.85416549444197L128.06805555555556,82.35416373610495L128.45850694444445,28.578116208314867L128.84895833333331,73.75001406669615L129.2394097222222,18.43751406669614L129.62986111111113,98.17969805002211L130.02031250000002,92.80207483470438L130.41076388888888,82.50779843330382L130.80121527777777,82.0468679666519L131.19166666666666,112.46875351667403L131.58211805555555,-9.218735933303861L131.97256944444445,-21.817730605602293L132.36302083333334,35.382432103157015L132.75347222222223,99.25520686805247L133.14392361111112,86.96354752779006L133.53437499999998,137.51301585137844L133.92482638888887,25.505184888839693L134.3152777777778,7.374998241662951L134.70572916666669,211.41666593402624L135.09618055555555,87.88540846109389L135.48663194444444,104.47916901111601L135.87708333333333,66.98958626389502L136.26753472222222,86.96354752779006L136.65798611111111,45.17187675833699L137.0484375,64.75073969364165L137.4388888888889,12.29165142774579L137.82934027777776,85.27343398332594L138.21979166666665,86.656251758337L138.61024305555557,92.18749648332594L139.00069444444446,103.24999912083148L139.39114583333333,9.043141365051241L139.78159722222222,67.6041514277458L140.1720486111111,7.374971866607638L140.5625,77.43751055002211L140.9529513888889,102.63539439439772L141.34340277777778,-1.843742966651945L141.73385416666667,-5.531239449977903L142.12430555555554,113.08333186805248L142.51475694444443,70.06249120831488L142.90520833333332,56.54166197776793L143.2956597222222,71.90623944997786L143.6861111111111,81.12500703334807L144.0765625,47.937485933303805L144.46701388888889,127.67968310415745L144.85746527777775,50.703121483325944L145.24791666666667,104.63280370831488L145.63836805555556,97.10416285693644L146.02881944444445,117.69271565973759L146.41927083333334,-55.31249472498894L146.80972222222223,86.96354752779006L147.20017361111113,51.62500879168509L147.59062500000002,102.54761821031569L147.98107638888888,-20.281225383281736L148.37152777777777,-46.09375351667404L148.76197916666666,88.49999999999999L149.15243055555555,114.1588538736105L149.54288194444445,33.18749999999997L149.93333333333334,67.75781249999999L150.32378472222223,103.25001230835913L150.71423611111112,59.92188906669615L151.10468749999998,-23.441959261894254L151.49513888888887,87.57811269164084L151.88559027777777,97.71875439584254L152.27604166666666,57.770845055580125L152.66649305555555,141.35416021943092L153.05694444444444,61.282736420631394L153.44739583333333,99.25520686805247L153.83784722222225,96.1822755485773L154.22829861111111,120.45833802223206L154.61875,122.30208626389503L155.0092013888889,70.06249120831488L155.3996527777778,119.99739436805248L155.79010416666668,33.18749999999997L156.18055555555557,122.30207307636738L156.57100694444446,110.01041373610495L156.96145833333333,78.0520757138729L157.35190972222222,107.5959884226322L157.7423611111111,2.4583186805247976L158.1328125,70.06249120831488L158.5232638888889,145.96354401111603L158.91371527777778,107.85936972498892L159.30416666666667,116.30989788472652L159.69461805555554,5.531249999999972L160.08506944444443,51.36160111427306L160.47552083333332,57.15625351667403L160.8659722222222,78.66666725277899L161.2564236111111,98.64062851667403L161.646875,60.843749999999986L162.03732638888889,139.2031162083149L162.42777777777775,4.916658461093874L162.81822916666667,103.25001230835913L163.20868055555556,54.69791373610495L163.59913194444445,68.2187429666519L163.98958333333334,-59.92187851667404L164.38003472222223,-11.062510550022154L164.77048611111113,34.109360933303805L165.16093750000002,67.6041514277458L165.55138888888888,77.74477994441985L165.94184027777777,66.37502110004424L166.33229166666666,66.98958626389502L166.72274305555555,82.96875527501105L167.11319444444445,62.380202472209916L167.50364583333334,113.08334505558014L167.89409722222223,58.53904491662978L168.28454861111112,22.125010550022097L168.67499999999998,67.29688203334807L169.06545138888887,88.49999999999999L169.45590277777777,79.28125879168509L169.84635416666666,17.71317592263219L170.23680555555555,44.05246666073796L170.62725694444444,28.27082043886182L171.01770833333333,60.843749999999986L171.40815972222225,20.281262308359118L171.79861111111111,-16.59375527501109L172.1890625,45.47917252779004L172.5795138888889,57.77081868052481L172.9699652777778,88.49999999999999L173.36041666666668,-37.48957747220996L173.75086805555557,54.3906179666519L174.14131944444446,71.90623944997786L174.53177083333333,10.140607416629763L174.92222222222222,61.61197623610495L175.3126736111111,97.71874120831488L175.703125,76.97655370831488L176.0935763888889,88.49999999999999L176.48402777777778,-20.895843297243147L176.87447916666667,52.54686972498892L177.26493055555554,146.1171787083149L177.65538194444443,25.812507033348055L178.04583333333332,39.640632033348055L178.4362847222222,46.093737691640825L178.8267361111111,95.41404931247233L179.2171875,33.18749999999997L179.60763888888889,84.81250351667403L179.99809027777775,119.99739436805248L180.38854166666667,52.67856037616728L180.77899305555556,74.36460560560225L181.16944444444445,-46.70834505558014L181.55989583333334,120.45833802223206L181.95034722222223,37.79685741662976L182.34079861111113,88.49999999999999L182.73125000000002,106.93750879168509L183.12170138888888,172.08332835137844L183.51215277777777,70.06249120831488L183.90260416666666,66.98955988883971L184.29305555555555,107.398439258337L184.68350694444445,130.75260123610497L185.07395833333334,38.71874472498891L185.46440972222223,155.79687675833702L185.85486111111112,57.770845055580125L186.24531249999998,54.69791373610495L186.63576388888887,106.93750879168509L187.02621527777777,19.35937499999997L187.41666666666666,92.80208802223204L187.80711805555555,-5.838561594486265L188.19756944444444,82.35416373610495L188.58802083333333,132.75001055002213L188.97847222222225,128.18451485037804L189.36892361111111,102.32812499999999L189.759375,100.484376758337L190.1498263888889,68.2187429666519L190.5402777777778,88.80729576945303L190.93072916666668,63.91665494441985L191.32118055555557,74.67187499999999L191.71163194444446,51.36160111427306L192.10208333333333,153.95312851667404L192.49253472222222,5.97023642063138L192.8829861111111,22.651773154735537L193.2734375,51.62498241662978L193.6638888888889,28.79760941863057L194.05434027777778,41.79167604446408L194.44479166666667,113.69791021943092L194.83524305555554,112.46875351667403L195.22569444444443,86.19532129168509L195.61614583333332,6.848209261894198L196.0065972222222,9.48212778568265L196.3970486111111,42.40624120831487L196.7875,71.90623944997786L197.17795138888889,70.06249120831488L197.56840277777775,103.24999912083148L197.95885416666667,17.82292252779004L198.34930555555556,129.984375L198.73975694444445,5.531249999999972L199.13020833333334,45.47914615273473L199.52065972222223,83.42968574166296L199.91111111111113,60.22915846109389L200.30156250000002,116.15625L200.69201388888888,37.950518488883944L201.08246527777777,66.37499472498892L201.47291666666666,115.5416584610939L201.86336805555555,61.61197623610495L202.25381944444445,82.35416373610495L202.64427083333334,-40.56248241662982L203.03472222222223,33.18749999999997L203.42517361111112,67.29688203334807L203.81562499999998,78.05210208892821L204.20607638888887,-11.062510550022154L204.59652777777777,113.39062763750553L204.98697916666666,102.32812499999999L205.37743055555555,74.67187499999999L205.76788194444444,48.5520774722099L206.15833333333333,38.104179561138125L206.54878472222225,113.39061444997787L206.93923611111111,143.8125L207.3296875,86.19529491662978L207.7201388888889,9.48212778568265L208.1105902777778,60.843749999999986L208.50104166666668,2.7656144499778463L208.89149305555557,16.28647005558011L209.28194444444446,99.25520686805247L209.67239583333333,-9.218735933303861L210.06284722222222,68.2187429666519L210.4532986111111,108.47394807636736L210.84375,95.8749929666519L211.2342013888889,119.22915494441986L211.62465277777778,7.374998241662951L212.01510416666667,152.1093670874834L212.40555555555554,38.71874472498891L212.79600694444443,23.968732416629763L213.18645833333332,60.843749999999986L213.5769097222222,107.00334092974661L213.9673611111111,6.145815163850756L214.3578125,28.578116208314867L214.74826388888889,47.01562499999997L215.13871527777775,97.71874120831488L215.52916666666667,125.3749912083149L215.91961805555556,40.56249296665189L216.31006944444445,35.821418523788424L216.70052083333334,22.125010550022097L217.09097222222223,179.458334505558L217.48142361111113,32.26563906669614L217.87187500000002,21.664053708314867L218.26232638888888,45.47917252779004L218.65277777777777,56.23436620831488L219.04322916666666,0.000005275011034200361L219.43368055555555,65.45310741662978L219.82413194444445,60.843749999999986L220.21458333333334,134.59374560415745L220.60503472222223,70.06249120831488L220.99548611111112,106.93750879168509L221.38593749999998,-15.671867966651945L221.77638888888887,94.95311884582041L222.16684027777777,34.109360933303805L222.55729166666666,88.49999999999999L222.94774305555555,103.86457747220992L223.33819444444444,90.34374824166296L223.72864583333333,101.40623769164084L224.11909722222225,108.47396126389502L224.50954861111111,47.01562499999997L224.9,70.0625175833702L225.2904513888889,75.59373593330382L225.6809027777778,42.40624120831487L226.07135416666668,91.26563555002211L226.46180555555557,75.59373593330382L226.85225694444446,125.3749912083149L227.24270833333333,107.70573502779006L227.63315972222222,28.578116208314867L228.0236111111111,-42.4062306582928L228.4140625,42.40624120831487L228.8045138888889,122.30208626389503L229.19496527777778,18.43751406669614L229.58541666666667,63.30206340551375L229.97586805555554,155.33593310415745L230.36631944444443,70.06249120831488L230.75677083333332,141.96875175833702L231.1472222222222,86.04166021943091L231.5376736111111,1.5803458392619802L231.928125,26.470986664295168L232.31857638888889,39.333336263895006L232.70902777777775,106.93749560415743L233.09947916666667,79.28123241662978L233.48993055555556,142.42968222498894L233.88038194444445,-66.37498417496681L234.27083333333334,94.95311884582041L234.66128472222223,119.99739436805248L235.05173611111113,76.20832747220992L235.44218750000002,108.47394807636736L235.83263888888888,70.0625175833702L236.22309027777777,88.49999999999999L236.61354166666666,42.40626758337018L237.00399305555555,97.71874120831488L237.39444444444445,47.01562499999997L237.78489583333334,53.46875703334807L238.17534722222223,12.445312499999972L238.56579861111112,159.17707747220993L238.95624999999998,35.03124824166295L239.34670138888887,121.0729163736105L239.73715277777777,36.26040494441983L240.12760416666666,149.95833626389503L240.51805555555555,112.46875351667403L240.90850694444444,45.63280722498891L241.29895833333333,139.20312939584255L241.68940972222225,-40.56250879168513L242.07986111111111,40.25519719719884L242.4703125,67.6041514277458L242.8607638888889,76.20832747220992L243.2512152777778,100.7916593402624L243.64166666666668,-22.12500000000003L244.03211805555557,81.58593749999999L244.42256944444446,33.18749999999997L244.81302083333333,20.895827472209902L245.20347222222222,128.44792252779007L245.5939236111111,-4.5654904246330545L245.984375,45.47917252779004L246.3748263888889,32.572908461093874L246.76527777777778,59.00000175833701L247.15572916666667,-34.10937675833705L247.54618055555554,55.92707043886183L247.93663194444443,113.08333186805248L248.32708333333332,-59.00001758337021L248.7175347222222,113.39062763750553L249.1079861111111,51.88839009404181L249.4984375,55.005209505558L249.88888888888889,60.22915846109389L250.27934027777775,73.13542252779006L250.66979166666667,62.07293307781218L251.06024305555556,67.29688203334807L251.45069444444445,70.06249120831488L251.84114583333334,39.33330988883969L252.23159722222223,84.35157305002211L252.62204861111113,107.7057218402624L253.01250000000002,68.2187429666519L253.40295138888888,94.64583626389502L253.79340277777777,82.96875527501105L254.18385416666666,35.03124824166295L254.57430555555555,46.09376406669614L254.96475694444445,56.23436620831488L255.35520833333334,-11.062510550022154L255.74565972222223,95.87500615417956L256.1361111111111,25.812507033348055L256.5265625,80.51041549444197L256.9170138888889,7.374998241662951L257.3074652777778,47.937485933303805L257.69791666666663,98.64062851667403L258.0883680555555,63.91665494441985L258.4788194444444,66.98958626389502L258.8692708333333,60.843749999999986L259.25972222222225,140.73958186805248L259.65017361111114,79.28123241662978L260.04062500000003,28.57814258337018L260.4310763888889,17.82292252779004L260.82152777777776,20.895827472209902L261.21197916666665,106.93750879168509L261.60243055555554,86.96354752779006L261.99288194444443,-0.6145862638950632L262.3833333333333,116.15625L262.7737847222222,135.2083239555359L263.1642361111111,17.82292252779004L263.5546875,111.23958362638949L263.9451388888889,-31.343767583370237L264.3355902777778,73.59635299444197L264.7260416666667,118.46094189584255L265.11649305555557,50.54946041107176" style="fill: none;" fill="none"></path></g></g></g></g></g></g><g transform="translate(48, 177)" clip-path="url(#clip_1)"><clipPath id="clip_1"><rect width="281" height="23"></rect></clipPath><g><g><line x1="0" y1="0" x2="0" y2="5" style="visibility: inherit;" fill="rgb(0, 0, 0)" stroke="rgb(204, 204, 204)" stroke-width="1px"></line><line x1="31.23611111111111" y1="0" x2="31.23611111111111" y2="5" style="visibility: inherit;" fill="rgb(0, 0, 0)" stroke="rgb(204, 204, 204)" stroke-width="1px"></line><line x1="62.47222222222222" y1="0" x2="62.47222222222222" y2="5" style="visibility: inherit;" fill="rgb(0, 0, 0)" stroke="rgb(204, 204, 204)" stroke-width="1px"></line><line x1="93.70833333333333" y1="0" x2="93.70833333333333" y2="5" style="visibility: inherit;" fill="rgb(0, 0, 0)" stroke="rgb(204, 204, 204)" stroke-width="1px"></line><line x1="124.94444444444444" y1="0" x2="124.94444444444444" y2="5" style="visibility: inherit;" fill="rgb(0, 0, 0)" stroke="rgb(204, 204, 204)" stroke-width="1px"></line><line x1="156.18055555555557" y1="0" x2="156.18055555555557" y2="5" style="visibility: inherit;" fill="rgb(0, 0, 0)" stroke="rgb(204, 204, 204)" stroke-width="1px"></line><line x1="187.41666666666666" y1="0" x2="187.41666666666666" y2="5" style="visibility: inherit;" fill="rgb(0, 0, 0)" stroke="rgb(204, 204, 204)" stroke-width="1px"></line><line x1="218.65277777777777" y1="0" x2="218.65277777777777" y2="5" style="visibility: inherit;" fill="rgb(0, 0, 0)" stroke="rgb(204, 204, 204)" stroke-width="1px"></line><line x1="249.88888888888889" y1="0" x2="249.88888888888889" y2="5" style="visibility: inherit;" fill="rgb(0, 0, 0)" stroke="rgb(204, 204, 204)" stroke-width="1px"></line><line x1="281.125" y1="0" x2="281.125" y2="5" style="visibility: inherit;" fill="rgb(0, 0, 0)" stroke="rgb(204, 204, 204)" stroke-width="1px"></line></g><g transform="translate(0, 8)"><text x="0" y="0" dx="0em" dy="0.95em" style="text-anchor: middle; visibility: hidden; font-family: &quot;Helvetica Neue&quot;, sans-serif; font-size: 12px; font-weight: 200;" fill="rgb(50, 49, 63)" stroke="none" stroke-width="1px">-2k</text><text x="31.23611111111111" y="0" dx="0em" dy="0.95em" style="text-anchor: middle; visibility: inherit; font-family: &quot;Helvetica Neue&quot;, sans-serif; font-size: 12px; font-weight: 200;" fill="rgb(50, 49, 63)" stroke="none" stroke-width="1px">0</text><text x="62.47222222222222" y="0" dx="0em" dy="0.95em" style="text-anchor: middle; visibility: inherit; font-family: &quot;Helvetica Neue&quot;, sans-serif; font-size: 12px; font-weight: 200;" fill="rgb(50, 49, 63)" stroke="none" stroke-width="1px">2k</text><text x="93.70833333333333" y="0" dx="0em" dy="0.95em" style="text-anchor: middle; visibility: inherit; font-family: &quot;Helvetica Neue&quot;, sans-serif; font-size: 12px; font-weight: 200;" fill="rgb(50, 49, 63)" stroke="none" stroke-width="1px">4k</text><text x="124.94444444444444" y="0" dx="0em" dy="0.95em" style="text-anchor: middle; visibility: inherit; font-family: &quot;Helvetica Neue&quot;, sans-serif; font-size: 12px; font-weight: 200;" fill="rgb(50, 49, 63)" stroke="none" stroke-width="1px">6k</text><text x="156.18055555555557" y="0" dx="0em" dy="0.95em" style="text-anchor: middle; visibility: inherit; font-family: &quot;Helvetica Neue&quot;, sans-serif; font-size: 12px; font-weight: 200;" fill="rgb(50, 49, 63)" stroke="none" stroke-width="1px">8k</text><text x="187.41666666666666" y="0" dx="0em" dy="0.95em" style="text-anchor: middle; visibility: inherit; font-family: &quot;Helvetica Neue&quot;, sans-serif; font-size: 12px; font-weight: 200;" fill="rgb(50, 49, 63)" stroke="none" stroke-width="1px">10k</text><text x="218.65277777777777" y="0" dx="0em" dy="0.95em" style="text-anchor: middle; visibility: inherit; font-family: &quot;Helvetica Neue&quot;, sans-serif; font-size: 12px; font-weight: 200;" fill="rgb(50, 49, 63)" stroke="none" stroke-width="1px">12k</text><text x="249.88888888888889" y="0" dx="0em" dy="0.95em" style="text-anchor: middle; visibility: inherit; font-family: &quot;Helvetica Neue&quot;, sans-serif; font-size: 12px; font-weight: 200;" fill="rgb(50, 49, 63)" stroke="none" stroke-width="1px">14k</text><text x="281.125" y="0" dx="0em" dy="0.95em" style="text-anchor: middle; visibility: hidden; font-family: &quot;Helvetica Neue&quot;, sans-serif; font-size: 12px; font-weight: 200;" fill="rgb(50, 49, 63)" stroke="none" stroke-width="1px">16k</text></g><line x1="0" y1="0" x2="281.125" y2="0" fill="rgb(0, 0, 0)" stroke="rgb(204, 204, 204)" stroke-width="1px"></line></g></g></g></g></svg>