<svg viewBox="0 0 330 200" xmlns="http://www.w3.org/2000/svg"><g><g><g><g><g><line x1="58.59375" y1="177" x2="53.59375" y2="177" style="visibility: inherit;" fill="rgb(0, 0, 0)" stroke="rgb(204, 204, 204)" stroke-width="1px"></line><line x1="58.59375" y1="164.35714285714286" x2="53.59375" y2="164.35714285714286" style="visibility: inherit;" fill="rgb(0, 0, 0)" stroke="rgb(204, 204, 204)" stroke-width="1px"></line><line x1="58.59375" y1="151.71428571428572" x2="53.59375" y2="151.71428571428572" style="visibility: inherit;" fill="rgb(0, 0, 0)" stroke="rgb(204, 204, 204)" stroke-width="1px"></line><line x1="58.59375" y1="139.07142857142856" x2="53.59375" y2="139.07142857142856" style="visibility: inherit;" fill="rgb(0, 0, 0)" stroke="rgb(204, 204, 204)" stroke-width="1px"></line><line x1="58.59375" y1="126.42857142857142" x2="53.59375" y2="126.42857142857142" style="visibility: inherit;" fill="rgb(0, 0, 0)" stroke="rgb(204, 204, 204)" stroke-width="1px"></line><line x1="58.59375" y1="113.78571428571428" x2="53.59375" y2="113.78571428571428" style="visibility: inherit;" fill="rgb(0, 0, 0)" stroke="rgb(204, 204, 204)" stroke-width="1px"></line><line x1="58.59375" y1="101.14285714285712" x2="53.59375" y2="101.14285714285712" style="visibility: inherit;" fill="rgb(0, 0, 0)" stroke="rgb(204, 204, 204)" stroke-width="1px"></line><line x1="58.59375" y1="88.5" x2="53.59375" y2="88.5" style="visibility: inherit;" fill="rgb(0, 0, 0)" stroke="rgb(204, 204, 204)" stroke-width="1px"></line><line x1="58.59375" y1="75.85714285714285" x2="53.59375" y2="75.85714285714285" style="visibility: inherit;" fill="rgb(0, 0, 0)" stroke="rgb(204, 204, 204)" stroke-width="1px"></line><line x1="58.59375" y1="63.21428571428572" x2="53.59375" y2="63.21428571428572" style="visibility: inherit;" fill="rgb(0, 0, 0)" stroke="rgb(204, 204, 204)" stroke-width="1px"></line><line x1="58.59375" y1="50.57142857142857" x2="53.59375" y2="50.57142857142857" style="visibility: inherit;" fill="rgb(0, 0, 0)" stroke="rgb(204, 204, 204)" stroke-width="1px"></line><line x1="58.59375" y1="37.928571428571416" x2="53.59375" y2="37.928571428571416" style="visibility: inherit;" fill="rgb(0, 0, 0)" stroke="rgb(204, 204, 204)" stroke-width="1px"></line><line x1="58.59375" y1="25.285714285714278" x2="53.59375" y2="25.285714285714278" style="visibility: inherit;" fill="rgb(0, 0, 0)" stroke="rgb(204, 204, 204)" stroke-width="1px"></line><line x1="58.59375" y1="12.64285714285711" x2="53.59375" y2="12.64285714285711" style="visibility: inherit;" fill="rgb(0, 0, 0)" stroke="rgb(204, 204, 204)" stroke-width="1px"></line><line x1="58.59375" y1="0" x2="53.59375" y2="0" style="visibility: inherit;" fill="rgb(0, 0, 0)" stroke="rgb(204, 204, 204)" stroke-width="1px"></line></g><g transform="translate(48.59375, 0)"><text x="0" y="177" dx="0em" dy="0.3em" style="text-anchor: end; visibility: hidden; font-family: &quot;Helvetica Neue&quot;, sans-serif; font-size: 12px; font-weight: 200;" fill="rgb(50, 49, 63)" stroke="none" stroke-width="1px">-0.1</text><text x="0" y="164.35714285714286" dx="0em" dy="0.3em" style="text-anchor: end; visibility: inherit; font-family: &quot;Helvetica Neue&quot;, sans-serif; font-size: 12px; font-weight: 200;" fill="rgb(50, 49, 63)" stroke="none" stroke-width="1px">-0.05</text><text x="0" y="151.71428571428572" dx="0em" dy="0.3em" style="text-anchor: end; visibility: hidden; font-family: &quot;Helvetica Neue&quot;, sans-serif; font-size: 12px; font-weight: 200;" fill="rgb(50, 49, 63)" stroke="none" stroke-width="1px">0</text><text x="0" y="139.07142857142856" dx="0em" dy="0.3em" style="text-anchor: end; visibility: inherit; font-family: &quot;Helvetica Neue&quot;, sans-serif; font-size: 12px; font-weight: 200;" fill="rgb(50, 49, 63)" stroke="none" stroke-width="1px">0.05</text><text x="0" y="126.42857142857142" dx="0em" dy="0.3em" style="text-anchor: end; visibility: hidden; font-family: &quot;Helvetica Neue&quot;, sans-serif; font-size: 12px; font-weight: 200;" fill="rgb(50, 49, 63)" stroke="none" stroke-width="1px">0.1</text><text x="0" y="113.78571428571428" dx="0em" dy="0.3em" style="text-anchor: end; visibility: inherit; font-family: &quot;Helvetica Neue&quot;, sans-serif; font-size: 12px; font-weight: 200;" fill="rgb(50, 49, 63)" stroke="none" stroke-width="1px">0.15</text><text x="0" y="101.14285714285712" dx="0em" dy="0.3em" style="text-anchor: end; visibility: hidden; font-family: &quot;Helvetica Neue&quot;, sans-serif; font-size: 12px; font-weight: 200;" fill="rgb(50, 49, 63)" stroke="none" stroke-width="1px">0.2</text><text x="0" y="88.5" dx="0em" dy="0.3em" style="text-anchor: end; visibility: inherit; font-family: &quot;Helvetica Neue&quot;, sans-serif; font-size: 12px; font-weight: 200;" fill="rgb(50, 49, 63)" stroke="none" stroke-width="1px">0.25</text><text x="0" y="75.85714285714285" dx="0em" dy="0.3em" style="text-anchor: end; visibility: hidden; font-family: &quot;Helvetica Neue&quot;, sans-serif; font-size: 12px; font-weight: 200;" fill="rgb(50, 49, 63)" stroke="none" stroke-width="1px">0.3</text><text x="0" y="63.21428571428572" dx="0em" dy="0.3em" style="text-anchor: end; visibility: inherit; font-family: &quot;Helvetica Neue&quot;, sans-serif; font-size: 12px; font-weight: 200;" fill="rgb(50, 49, 63)" stroke="none" stroke-width="1px">0.35</text><text x="0" y="50.57142857142857" dx="0em" dy="0.3em" style="text-anchor: end; visibility: hidden; font-family: &quot;Helvetica Neue&quot;, sans-serif; font-size: 12px; font-weight: 200;" fill="rgb(50, 49, 63)" stroke="none" stroke-width="1px">0.4</text><text x="0" y="37.928571428571416" dx="0em" dy="0.3em" style="text-anchor: end; visibility: inherit; font-family: &quot;Helvetica Neue&quot;, sans-serif; font-size: 12px; font-weight: 200;" fill="rgb(50, 49, 63)" stroke="none" stroke-width="1px">0.45</text><text x="0" y="25.285714285714278" dx="0em" dy="0.3em" style="text-anchor: end; visibility: hidden; font-family: &quot;Helvetica Neue&quot;, sans-serif; font-size: 12px; font-weight: 200;" fill="rgb(50, 49, 63)" stroke="none" stroke-width="1px">0.5</text><text x="0" y="12.64285714285711" dx="0em" dy="0.3em" style="text-anchor: end; visibility: inherit; font-family: &quot;Helvetica Neue&quot;, sans-serif; font-size: 12px; font-weight: 200;" fill="rgb(50, 49, 63)" stroke="none" stroke-width="1px">0.55</text><text x="0" y="0" dx="0em" dy="0.3em" style="text-anchor: end; visibility: hidden; font-family: &quot;Helvetica Neue&quot;, sans-serif; font-size: 12px; font-weight: 200;" fill="rgb(50, 49, 63)" stroke="none" stroke-width="1px">0.6</text></g><line x1="58.59375" y1="0" x2="58.59375" y2="177" fill="rgb(0, 0, 0)" stroke="rgb(204, 204, 204)" stroke-width="1px"></line></g></g><g transform="translate(58, 0)" clip-path="url(#clip_0)"><clipPath id="clip_0"><rect width="271" height="177"></rect></clipPath><g><g><g><line x1="0" y1="0" x2="0" y2="177" fill="rgb(0, 0, 0)" stroke="rgb(60, 60, 60)" stroke-width="1px" opacity="0.25"></line><line x1="30.15625" y1="0" x2="30.15625" y2="177" fill="rgb(0, 0, 0)" stroke="rgb(60, 60, 60)" stroke-width="1px" opacity="0.25"></line><line x1="60.3125" y1="0" x2="60.3125" y2="177" fill="rgb(0, 0, 0)" stroke="rgb(60, 60, 60)" stroke-width="1px" opacity="0.25"></line><line x1="90.46875" y1="0" x2="90.46875" y2="177" fill="rgb(0, 0, 0)" stroke="rgb(60, 60, 60)" stroke-width="1px" opacity="0.25"></line><line x1="120.625" y1="0" x2="120.625" y2="177" fill="rgb(0, 0, 0)" stroke="rgb(60, 60, 60)" stroke-width="1px" opacity="0.25"></line><line x1="150.78125" y1="0" x2="150.78125" y2="177" fill="rgb(0, 0, 0)" stroke="rgb(60, 60, 60)" stroke-width="1px" opacity="0.25"></line><line x1="180.9375" y1="0" x2="180.9375" y2="177" fill="rgb(0, 0, 0)" stroke="rgb(60, 60, 60)" stroke-width="1px" opacity="0.25"></line><line x1="211.09375" y1="0" x2="211.09375" y2="177" fill="rgb(0, 0, 0)" stroke="rgb(60, 60, 60)" stroke-width="1px" opacity="0.25"></line><line x1="241.25" y1="0" x2="241.25" y2="177" fill="rgb(0, 0, 0)" stroke="rgb(60, 60, 60)" stroke-width="1px" opacity="0.25"></line><line x1="271.40625" y1="0" x2="271.40625" y2="177" fill="rgb(0, 0, 0)" stroke="rgb(60, 60, 60)" stroke-width="1px" opacity="0.25"></line></g><g><line x1="0" y1="177" x2="271.40625" y2="177" fill="rgb(0, 0, 0)" stroke="rgb(60, 60, 60)" stroke-width="1px" opacity="0.25"></line><line x1="0" y1="164.35714285714286" x2="271.40625" y2="164.35714285714286" fill="rgb(0, 0, 0)" stroke="rgb(60, 60, 60)" stroke-width="1px" opacity="0.25"></line><line x1="0" y1="151.71428571428572" x2="271.40625" y2="151.71428571428572" fill="rgb(0, 0, 0)" stroke="rgb(60, 60, 60)" stroke-width="1px" opacity="0.25"></line><line x1="0" y1="139.07142857142856" x2="271.40625" y2="139.07142857142856" fill="rgb(0, 0, 0)" stroke="rgb(60, 60, 60)" stroke-width="1px" opacity="0.25"></line><line x1="0" y1="126.42857142857142" x2="271.40625" y2="126.42857142857142" fill="rgb(0, 0, 0)" stroke="rgb(60, 60, 60)" stroke-width="1px" opacity="0.25"></line><line x1="0" y1="113.78571428571428" x2="271.40625" y2="113.78571428571428" fill="rgb(0, 0, 0)" stroke="rgb(60, 60, 60)" stroke-width="1px" opacity="0.25"></line><line x1="0" y1="101.14285714285712" x2="271.40625" y2="101.14285714285712" fill="rgb(0, 0, 0)" stroke="rgb(60, 60, 60)" stroke-width="1px" opacity="0.25"></line><line x1="0" y1="88.5" x2="271.40625" y2="88.5" fill="rgb(0, 0, 0)" stroke="rgb(60, 60, 60)" stroke-width="1px" opacity="0.25"></line><line x1="0" y1="75.85714285714285" x2="271.40625" y2="75.85714285714285" fill="rgb(0, 0, 0)" stroke="rgb(60, 60, 60)" stroke-width="1px" opacity="0.25"></line><line x1="0" y1="63.21428571428572" x2="271.40625" y2="63.21428571428572" fill="rgb(0, 0, 0)" stroke="rgb(60, 60, 60)" stroke-width="1px" opacity="0.25"></line><line x1="0" y1="50.57142857142857" x2="271.40625" y2="50.57142857142857" fill="rgb(0, 0, 0)" stroke="rgb(60, 60, 60)" stroke-width="1px" opacity="0.25"></line><line x1="0" y1="37.928571428571416" x2="271.40625" y2="37.928571428571416" fill="rgb(0, 0, 0)" stroke="rgb(60, 60, 60)" stroke-width="1px" opacity="0.25"></line><line x1="0" y1="25.285714285714278" x2="271.40625" y2="25.285714285714278" fill="rgb(0, 0, 0)" stroke="rgb(60, 60, 60)" stroke-width="1px" opacity="0.25"></line><line x1="0" y1="12.64285714285711" x2="271.40625" y2="12.64285714285711" fill="rgb(0, 0, 0)" stroke="rgb(60, 60, 60)" stroke-width="1px" opacity="0.25"></line><line x1="0" y1="0" x2="271.40625" y2="0" fill="rgb(0, 0, 0)" stroke="rgb(60, 60, 60)" stroke-width="1px" opacity="0.25"></line></g></g></g><g><g><line x1="0" y1="151.71428571428572" x2="271.40625" y2="151.71428571428572" fill="rgb(0, 0, 0)" stroke="rgb(153, 153, 153)" stroke-width="1.5px"></line></g></g><g><g><line x1="30.15625" y1="0" x2="30.15625" y2="177" fill="rgb(0, 0, 0)" stroke="rgb(153, 153, 153)" stroke-width="1.5px"></line></g></g><g><g><g><g><g><path stroke="rgb(204, 51, 17)" stroke-width="2px" d="M30.533203125,96.92015351567949L30.91015625,93.57927942222783L31.287109375000004,93.46874568891594L31.6640625,88.52854048337068L32.041015625,85.78077928905233L32.41796875,89.46685053043848L32.794921875,103.67356448559859L33.171875,87.75411369515484L33.548828125,90.08642393262681L33.92578125,94.54446686399517L34.302734375,102.4783350646676L34.6796875,98.84941777928142L35.056640625,105.39438869365442L35.43359375,87.38442227400932L35.810546875,93.26601705220853L36.1875,99.60351849530606L36.564453125,105.43062915088633L36.94140625,102.9490349801527L37.318359375,100.23419071268918L37.6953125,100.0038179580246L38.072265625,91.92879917794906L38.44921875,91.64866957992837L38.826171875,81.74443540180131L39.20312499999999,80.9270343437998L39.580078125,82.42375879051798L39.95703125,83.39597861733229L40.333984375,99.75127559245044L40.7109375,92.87206874245453L41.087890625,104.94610246532378L41.46484375,101.93031888400111L41.841796875,92.95415488147006L42.21875,100.05962565368358L42.595703125,95.56986595902714L42.97265625,94.1250681275831L43.349609375,95.85854538902757L43.7265625,97.85286616643297L44.103515625,106.76059794618527L44.48046875,91.59926289085101L44.857421875,82.34904648588545L45.234375,82.72600047986586L45.61132812500001,88.35594545578036L45.98828125,88.27884650518376L46.365234375,87.51715094853371L46.7421875,87.94860372811581L47.119140625,79.14626787050761L47.49609375,78.13009260172072L47.873046875,64.4576484594346L48.25,57.72644359058529L48.626953125,53.51075761253327L49.00390625,67.88957108538433L49.380859375,77.22513490440227L49.7578125,82.95722263427466L50.134765625,78.19886995178757L50.51171875,84.23785253743061L50.888671875,96.19747319278287L51.265625,80.65623712300682L51.642578125,82.45830841602294L52.01953125,77.98365031156295L52.396484375,87.36619682764528L52.7734375,73.34968755039813L53.150390625,59.301651217045276L53.52734375,72.93762194791148L53.904296875,73.03796279579481L54.28125,75.84040441261924L54.658203125,72.50972568565638L55.03515625,91.86710578630503L55.412109375,93.72048156177227L55.7890625,86.9111118359281L56.16601562499999,85.61010202595502L56.54296875,68.97666816524297L56.919921875,76.89315747387188L57.296875,83.87448774590563L57.673828125,58.998460255096035L58.05078125,56.48753105352675L58.427734375,47.92736739708053L58.8046875,60.162881377383215L59.181640625,68.9883126208875L59.55859375,87.34275046866155L59.935546875,91.00193924151755L60.3125,67.5393797100444L60.689453125,68.43278054497937L61.06640625,70.5791161372969L61.443359375,78.67461165532866L61.8203125,71.24124773333564L62.197265625,74.82299881656739L62.57421875000001,79.7531468275261L62.951171875,88.46774970651951L63.328125,93.42285893144692L63.705078125,95.80114436190247L64.08203125,84.56459249112132L64.458984375,77.72639090961377L64.8359375,86.26818089316838L65.212890625,88.27468341453915L65.58984375,74.09644166831318L65.966796875,54.23716641275287L66.34375,75.9386363673699L66.720703125,88.60827946781637L67.09765625,93.34201016327029L67.474609375,83.52257319527182L67.8515625,81.42696270402944L68.228515625,74.84244713731894L68.60546875,74.65631726370371L68.982421875,80.19379035822224L69.359375,85.22305980864736L69.736328125,71.24200081553205L70.11328125,75.86839117159418L70.490234375,62.73301358806219L70.8671875,62.462413241616204L71.244140625,36.29343162188013L71.62109375,52.794842770664644L71.998046875,53.97093871974788L72.375,48.22973699757617L72.751953125,53.09974763029312L73.12890625,66.7300505813824L73.505859375,81.47376281396039L73.8828125,69.69845119938546L74.25976562500001,79.11823445965311L74.63671875,73.65452273306356L75.013671875,73.38257273037071L75.390625,70.21922963686659L75.767578125,51.35370759691094L76.14453125,65.85857575934023L76.521484375,68.07012230039172L76.8984375,55.68572301282519L77.275390625,30.361094456313538L77.65234375,32.16454311352027L78.029296875,48.588014395737105L78.40624999999999,50.84680165068799L78.783203125,55.56301263784975L79.16015625,47.987469437045064L79.537109375,40.411869704404495L79.9140625,35.578868033013435L80.291015625,46.73839124361547L80.66796875,46.193193941660525L81.044921875,43.997262726974014L81.421875,63.90550149809128L81.798828125,59.53647531893904L82.17578125,54.62486985137579L82.552734375,63.03750725105287L82.9296875,55.66723739130511L83.306640625,49.414628550974385L83.68359375,16.93902440743571L84.060546875,29.108545135718146L84.4375,33.5789812921482L84.814453125,41.271725808151984L85.19140625,32.853025153873574L85.568359375,19.998845625706025L85.9453125,31.72435277372705L86.322265625,39.605367936143494L86.69921875,33.472283140433206L87.076171875,46.598249764892614L87.453125,48.04704563290497L87.830078125,48.996593750625294L88.20703125,55.2542374355253L88.583984375,77.6834946748069L88.9609375,40.850572057580564L89.337890625,30.759860443737608L89.71484375,43.053296468399736L90.091796875,47.92906613964689L90.46875,39.28631112467559L90.845703125,41.80024210592606L91.22265625000001,24.220864650065153L91.599609375,21.55632925162834L91.9765625,20.8916828571991L92.353515625,31.322025516839147L92.73046875,39.68402911037026L93.107421875,37.78077243878906L93.484375,45.67250095248329L93.861328125,44.72889520873406L94.23828125,65.9248351157124L94.615234375,61.16816531337079L94.9921875,30.52040444358539L95.36914062499999,35.27507524303917L95.74609375,40.711668569944834L96.123046875,36.01172482573287L96.5,32.060931850521115L96.876953125,41.04381414680296L97.25390625,54.93904370495275L97.630859375,57.710646882227636L98.0078125,59.69536637766029L98.384765625,69.33082462763791L98.76171875,55.16447945825715L99.138671875,51.09788208241737L99.515625,49.57512449473002L99.892578125,33.29209823842473L100.26953125,25.777352728204562L100.646484375,42.110062073324116L101.0234375,42.59143188123855L101.400390625,58.25339333472479L101.77734375,47.02796871475218L102.154296875,33.88933882805523L102.53125,33.71743431078511L102.908203125,27.709145802012387L103.28515625,37.839517787887274L103.662109375,39.224048193059275L104.0390625,44.70619884817373L104.416015625,34.12847987398078L104.79296875,24.90543017139774L105.169921875,31.570530647427006L105.546875,41.462290719639526L105.923828125,60.779076212511626L106.30078125,62.68221666447292L106.677734375,29.612217901624774L107.0546875,36.53129926658892L107.431640625,21.94888389737315L107.80859375,33.27968063049346L108.18554687500001,31.817976647317238L108.5625,45.54044563224477L108.939453125,41.883922473493556L109.31640625,19.022985464447174L109.693359375,35.45026900451475L110.0703125,53.72285899312807L110.447265625,43.312176675064705L110.82421875,42.834416896380986L111.201171875,23.602766783914063L111.578125,49.0800244317027L111.955078125,41.98140838945767L112.33203124999999,26.137512668911086L112.708984375,47.25453154483898L113.0859375,30.520064832207368L113.462890625,42.10167926465252L113.83984375,49.7318357241183L114.216796875,45.638842300723354L114.59375,35.96786200089562L114.970703125,53.30325077396047L115.34765625,54.87044411127046L115.724609375,49.81968589218168L116.1015625,39.27382322817357L116.478515625,28.253939131911466L116.85546875,34.69249757188655L117.232421875,47.01430578947634L117.609375,38.73152881643088L117.986328125,39.61545499432631L118.36328125,42.89957747619479L118.740234375,51.85493727098864L119.1171875,60.83036475947648L119.494140625,39.152668325388476L119.87109375,50.335322051217574L120.248046875,36.27678578945509L120.625,34.422309661735454L121.001953125,35.7646081050639L121.37890625,44.12497255804564L121.755859375,47.41505689554299L122.1328125,21.284746815417662L122.509765625,13.754180082898586L122.88671875,32.77426870759459L123.263671875,34.19153235015946L123.640625,41.5442067721944L124.017578125,36.244889831340515L124.39453125,37.75519745950811L124.771484375,27.606273080480406L125.14843750000001,38.40179179217188L125.525390625,39.98250316444498L125.90234375,46.467026969402355L126.279296875,44.141855102289185L126.65625,55.38307112545277L127.033203125,28.912433609480104L127.41015625,16.18351299897273L127.787109375,23.55978257600586L128.1640625,31.370084863057173L128.541015625,34.610572589129475L128.91796875,45.51569230291091L129.294921875,31.664172731578248L129.671875,15.365676465986411L130.048828125,54.31071950397384L130.42578125,48.359899999252775L130.802734375,50.04388901598645L131.1796875,44.393215485174096L131.556640625,45.663762912946964L131.93359375,40.60703375174202L132.310546875,41.88823864769523L132.6875,19.65436854480086L133.064453125,30.79603596894114L133.44140625,35.165601967553755L133.818359375,44.770509725933664L134.1953125,49.40641661736605L134.572265625,34.07219221742892L134.94921875,42.03468677134481L135.326171875,27.21301554366363L135.703125,33.80873238961263L136.080078125,40.411466001989595L136.45703125,16.299937380778402L136.833984375,17.69041483521403L137.2109375,35.14540209296737L137.587890625,35.33918536174616L137.96484375,31.31779693133339L138.341796875,37.51049634896597L138.71875,43.96570957352449L139.095703125,41.06921988261436L139.47265625,51.01554791478503L139.84960937499997,38.31180706231706L140.2265625,45.63586028155464L140.603515625,50.700565261634296L140.98046875,58.29482751752178L141.357421875,19.323832300438767L141.734375,26.579325337915776L142.111328125,35.08002475823369L142.48828125,40.125551138160745L142.865234375,18.69709579236735L143.2421875,-6.809520257701195L143.619140625,20.30798027751038L143.99609375,37.01897115099459L144.373046875,26.11005354107803L144.75,29.121642474846936L145.126953125,33.793764815298005L145.50390625,34.99229846843403L145.880859375,20.384922246539816L146.2578125,33.366600004505216L146.634765625,42.30368116699776L147.01171875,42.60422216349147L147.388671875,62.0512232384112L147.765625,58.618233742093906L148.142578125,58.51042020937639L148.51953125000003,62.749960259323345L148.896484375,63.50245933277904L149.2734375,68.83064320411385L149.650390625,51.19655292637238L150.02734375,57.117418508742205L150.404296875,38.74408007580021L150.78125,45.94739847049189L151.158203125,55.864355612359304L151.53515625,50.00449752977346L151.912109375,56.13765401601451L152.2890625,30.924880529061028L152.666015625,33.2079300073475L153.04296875,53.04201957424908L153.419921875,57.855547194721865L153.796875,64.424041999689L154.173828125,35.428943423984606L154.55078125,34.49861804075812L154.927734375,33.14134604930402L155.3046875,36.39076094831452L155.681640625,41.23869388021569L156.05859375,36.979693250164644L156.435546875,51.03378049085285L156.81249999999997,32.36618603029268L157.189453125,39.134231108690074L157.56640625,39.89566835061598L157.943359375,40.794543465606836L158.3203125,3.666184081727039L158.697265625,-3.1128490466171854L159.07421875,1.8546012240813354L159.451171875,13.488555220085914L159.828125,30.70432698311376L160.205078125,26.832010385882654L160.58203125,24.376497979031512L160.958984375,32.88780381726076L161.3359375,31.42869363608355L161.712890625,47.96588833049091L162.08984375,40.29553685222868L162.466796875,31.43537923561135L162.84375,32.005784053518255L163.220703125,42.426809724092266L163.59765625,45.06254596977902L163.974609375,32.8214934147139L164.3515625,37.92268982561296L164.728515625,28.385430323416074L165.10546875,36.21127437790278L165.48242187500003,20.68504700207737L165.859375,3.701958411087446L166.236328125,13.759478633067374L166.61328125,25.971896836692054L166.990234375,35.737611600904614L167.3671875,9.808584922044844L167.744140625,25.194242136344343L168.12109375,26.77607163673258L168.498046875,13.874575804130757L168.875,23.611562358753645L169.251953125,33.56615894453162L169.62890625,32.62930349104323L170.005859375,36.491984041374934L170.3828125,10.49655225131292L170.759765625,21.850650984707585L171.13671875,46.53369021676622L171.513671875,29.66248457247744L171.890625,28.622184804765737L172.267578125,30.015175203069504L172.64453125,37.247782443003246L173.021484375,28.7056703004032L173.3984375,39.69457613765789L173.77539062499997,49.40347983102899L174.15234375,45.589782275154164L174.529296875,38.49162176862427L174.90625,8.204500621817317L175.283203125,32.66674826007511L175.66015625,27.551369134213218L176.037109375,34.204062404409456L176.4140625,49.7203205785775L176.791015625,67.01496221449857L177.16796875,51.108651904368585L177.544921875,55.723314925324004L177.921875,59.40292629088994L178.298828125,57.37980568017467L178.67578125,44.752883207152024L179.052734375,58.17883359699999L179.4296875,49.166909608812745L179.806640625,38.80865696115163L180.18359375,46.74471832113613L180.560546875,28.09699845789163L180.9375,40.346000292767826L181.314453125,22.722564592709546L181.69140625,33.64097810330159L182.068359375,49.332854751003794L182.44531250000003,60.69816137235257L182.822265625,51.60136192369994L183.19921875,57.51811415238019L183.576171875,55.052319816163475L183.953125,58.69170792101781L184.330078125,47.35161707945616L184.70703125,40.36640663746053L185.083984375,35.228069242938375L185.4609375,58.90559882774764L185.837890625,37.22473328793362L186.21484375,23.816362096914418L186.591796875,28.627511943948377L186.96875,28.76903485221561L187.345703125,30.981261087094282L187.72265625,42.61018401796832L188.099609375,49.61764151105413L188.4765625,46.17619545778538L188.853515625,32.64245001643587L189.23046875,27.377478825354444L189.607421875,24.012203992360554L189.984375,33.39167485464267L190.361328125,28.990361653737125L190.73828124999997,37.61455578640559L191.115234375,23.150706452342604L191.4921875,41.96057595657359L191.869140625,33.32396247806662L192.24609375,27.33705784572669L192.623046875,35.6140275579304L193,33.35450224596494L193.376953125,49.225059113866635L193.75390625,35.79626018777623L194.130859375,36.980305869942015L194.5078125,53.72308344474483L194.884765625,48.10583145602885L195.26171875,44.691384184607784L195.638671875,15.501936888502513L196.015625,18.897327217940386L196.392578125,27.85940000963103L196.76953125,30.300150526304975L197.146484375,8.272664612461796L197.5234375,28.52145514671355L197.900390625,47.446972506804514L198.27734375,45.85712846031723L198.654296875,33.70963951466473L199.03125,28.0766375334143L199.40820312500003,42.6936006298879L199.78515625,60.32974278125195L200.162109375,57.38968174317155L200.5390625,34.15285653098201L200.916015625,33.3474138392435L201.29296875,16.325963683588043L201.669921875,7.343630085131025L202.046875,24.699583284189345L202.423828125,8.75418415281689L202.80078125,18.1550344248283L203.177734375,31.001182570948572L203.5546875,41.562543928985974L203.931640625,56.18016052438158L204.30859375,40.86112947579227L204.685546875,62.54558947019238L205.0625,41.348943056657674L205.439453125,29.42045254996532L205.81640625,25.664884322402997L206.193359375,40.05852276892551L206.5703125,33.727965177533974L206.947265625,24.24901642374192L207.32421875,20.38646339842586L207.70117187499997,30.6821130210011L208.078125,46.37406436253394L208.455078125,32.958203572496046L208.83203125,29.50791197242478L209.208984375,15.06671475389598L209.5859375,49.01827576086606L209.962890625,37.03498777685829L210.33984375,24.092793265894358L210.716796875,18.09346586290488L211.09375,31.98771113733261L211.470703125,23.780907264827533L211.84765625,31.297905375306243L212.224609375,28.371261016659332L212.6015625,47.6337941095596L212.978515625,46.930482166473894L213.35546875,57.79876394972237L213.732421875,26.815932610490677L214.109375,35.334795986925826L214.486328125,32.86405124044475L214.86328125,42.52665379424809L215.240234375,56.7769593677005L215.6171875,54.06487653568445L215.994140625,58.185200518714865L216.37109375000003,56.48060196335251L216.748046875,43.53606462807821L217.125,52.84723274224109L217.501953125,47.391499752821034L217.87890625,37.36152436095904L218.255859375,41.54174514183745L218.6328125,44.340865306330926L219.009765625,57.55823345915866L219.38671875,56.3388522621178L219.763671875,39.46249755700387L220.140625,8.867290663173947L220.517578125,10.4720623333248L220.89453125,34.916965638509396L221.271484375,26.328409450767452L221.6484375,31.11898507753665L222.025390625,51.756725235119504L222.40234375,46.64093081809327L222.779296875,60.42853874870772L223.15625,53.17948895553215L223.533203125,33.93713541798613L223.91015625,29.023003002413475L224.287109375,19.09951206810632L224.66406249999997,33.925862402040195L225.041015625,40.15581765449295L225.41796875,55.73721851513534L225.794921875,13.755595553977344L226.171875,29.623980110325277L226.548828125,44.23892324124617L226.92578125,46.74182405019141L227.302734375,55.08676404408928L227.6796875,50.76929897118143L228.056640625,47.13810847345397L228.43359375,31.007095414403352L228.810546875,48.87185837081694L229.1875,50.59020591187594L229.564453125,46.292148074811564L229.94140625,30.7444424602935L230.318359375,55.89591533809768L230.6953125,36.13331643520854L231.072265625,46.430556384540836L231.44921875,39.28506641172689L231.826171875,57.30205046115877L232.203125,63.815005878763486L232.580078125,48.71936187583202L232.95703125,64.53528939491169L233.33398437500003,24.48624942953211L233.7109375,27.54896878155958L234.087890625,28.282555648829458L234.46484375,34.76878076315111L234.841796875,45.60514928157099L235.21875,13.060060447271212L235.595703125,28.9104747108654L235.97265625,21.66893393758579L236.349609375,12.760540131794954L236.7265625,33.042375706644805L237.103515625,15.085726101150158L237.48046875,20.470144196293205L237.857421875,19.272570966617565L238.234375,19.166283998536557L238.611328125,3.4926207095838038L238.98828125,18.039619508923778L239.365234375,37.493176252909365L239.7421875,1.1343993986398289L240.119140625,32.30399094746156L240.49609375,40.51767649572196L240.873046875,43.07238604702923L241.25,36.18682765155913L241.62695312499997,45.833863709934406L242.00390625,48.85269549420687L242.380859375,37.71145207244879L242.7578125,42.86881648294508L243.134765625,30.383251826717753L243.51171875,34.997982035814005L243.888671875,40.558425344328214L244.265625,37.820766277066355L244.642578125,45.493385215202466L245.01953125,43.00929497115922L245.396484375,28.82794490970184L245.7734375,26.086560682415154L246.150390625,25.028335490543014L246.52734375,10.266354062815111L246.904296875,26.918178245903476L247.28125,17.424768464767084L247.658203125,27.6280731540937L248.03515625,13.45459559026898L248.412109375,15.417656231986456L248.7890625,37.61762947554834L249.166015625,34.98964534743183L249.54296875,35.814938165294166L249.919921875,32.62671831700027L250.29687500000003,52.50231003094548L250.673828125,49.42578076916239L251.05078125,45.18811893904305L251.427734375,31.80878628586757L251.8046875,20.430282637958157L252.181640625,33.89150298309252L252.55859375,43.10481318806194L252.935546875,28.01016466176688L253.3125,41.72721999244453L253.689453125,56.252148006214384L254.06640625,31.50367350722854L254.443359375,46.018121759737L254.8203125,13.161891913798144L255.197265625,29.95590874081907L255.57421875,48.67762791061605L255.951171875,44.150569146539" style="fill: none;" fill="none"></path></g></g></g></g><g opacity="0.2"><g><g><g><path stroke="rgb(204, 51, 17)" stroke-width="2px" d="M30.533203125,96.92015351567949L30.91015625,91.57475496615683L31.287109375000004,93.36263330493654L31.6640625,82.71885916164943L32.041015625,82.1933022737503L32.41796875,94.56601404292242L32.794921875,123.98939274890083L33.171875,64.54340161596025L33.548828125,93.52612850495747L33.92578125,101.16414105892181L34.302734375,114.30717776502881L34.6796875,93.42579025881632L35.056640625,115.19047459959984L35.43359375,60.4047560436385L35.810546875,102.08149562563216L36.1875,109.10530096292496L36.564453125,114.16882929631642L36.94140625,99.22727380054339L37.318359375,96.16233789069311L37.6953125,99.65827988301004L38.072265625,79.81671386105674L38.44921875,91.2284844006811L38.826171875,66.88827967643738L39.20312499999999,79.70094243969235L39.580078125,84.66883482251849L39.95703125,84.85430421148028L40.333984375,124.28417920640535L40.7109375,82.55326902866364L41.087890625,123.05714192773614L41.46484375,97.40664517879486L41.841796875,79.48991185426712L42.21875,110.71783039825304L42.595703125,88.83522695302963L42.97265625,91.95787148390497L43.349609375,98.458761206695L43.7265625,100.8443472811154L44.103515625,120.12219547799654L44.48046875,68.85726044859204L44.857421875,68.47372192995888L45.234375,83.2914314695767L45.61132812500001,96.80086290836334L45.98828125,88.16319807938167L46.365234375,86.3746076141085L46.7421875,88.59578289730207L47.119140625,65.94276408638272L47.49609375,76.60582969869886L47.873046875,43.948982247284476L48.25,47.62963628768921L48.626953125,47.1872286455972L49.00390625,89.45779129437038L49.380859375,91.22848063281604L49.7578125,91.5553542290415L50.134765625,71.0613409280777L50.51171875,93.29632641587938L50.888671875,114.13690417579241L51.265625,57.344383018357405L51.642578125,85.16141535554614L52.01953125,71.27166315487453L52.396484375,101.44001660176686L52.7734375,52.324923634529114L53.150390625,38.22959671701702L53.52734375,93.39157804421016L53.904296875,73.18847406761986L54.28125,80.04406683785575L54.658203125,67.51370759521213L55.03515625,120.90317593727792L55.412109375,96.50054522497312L55.7890625,76.69705724716187L56.16601562499999,83.65858731099537L56.54296875,44.026517374174915L56.919921875,88.76789143681526L57.296875,94.34648315395629L57.673828125,21.68441901888164L58.05078125,52.72113725117275L58.427734375,35.08712191241128L58.8046875,78.51615234783718L59.181640625,82.22645948614392L59.55859375,114.87440724032265L59.935546875,96.49072240080153L60.3125,32.34554041283471L60.689453125,69.77288179738181L61.06640625,73.79861952577319L61.443359375,90.8178549323763L61.8203125,60.09120185034615L62.197265625,80.19562544141498L62.57421875000001,87.14836884396416L62.951171875,101.53965402500971L63.328125,100.85552276883806L63.705078125,99.3685725075858L64.08203125,67.7097646849496L64.458984375,67.46908853735242L64.8359375,99.08086586850031L65.212890625,91.28443719659532L65.58984375,52.829079048974165L65.966796875,24.448253529412398L66.34375,108.49084129929543L66.720703125,107.61274411848613L67.09765625,100.44260620645115L67.474609375,68.79341774327415L67.8515625,78.2835469671658L68.228515625,64.96567378725324L68.60546875,74.37712245328086L68.982421875,88.5L69.359375,92.76696398428508L69.736328125,50.27041232585907L70.11328125,82.80797670568738L70.490234375,43.0299472127642L70.8671875,62.05651272194726L71.244140625,-2.960040807723999L71.62109375,77.54695949384144L71.998046875,55.735082643372664L72.375,39.617934414318626L72.751953125,60.40476357936859L73.12890625,87.17550500801632L73.505859375,103.58933116282736L73.8828125,52.03548377752304L74.25976562500001,93.24790935005461L74.63671875,65.45895514317921L75.013671875,72.97464772633144L75.390625,65.47421499661037L75.767578125,23.05542453697751L76.14453125,87.61587800298419L76.521484375,71.387442111969L76.8984375,37.109124081475386L77.275390625,-7.625848378453952L77.65234375,34.86971609933036L78.029296875,73.22322131906238L78.40624999999999,54.23498253311429L78.783203125,62.63732911859239L79.16015625,36.624154635838096L79.537109375,29.0484701054437L79.9140625,28.329365525926846L80.291015625,63.477676059518544L80.66796875,45.37539798872811L81.044921875,40.70336590494426L81.421875,93.76785965476716L81.798828125,52.98293605021068L82.17578125,47.25746165003093L82.552734375,75.6564633505685L82.9296875,44.61183260168346L83.306640625,40.035715290478294L83.68359375,-31.77438180787223L84.060546875,47.362826228141785L84.4375,40.28463552679332L84.814453125,52.810842582157676L85.19140625,20.224974172455916L85.568359375,0.717576333454673L85.9453125,49.3126134957586L86.322265625,51.42689067976815L86.69921875,24.272655946867786L87.076171875,66.28719970158168L87.453125,50.22023943492344L87.830078125,50.42091592720577L88.20703125,64.64070296287537L88.583984375,111.32738053372928L88.9609375,-14.398811868258889L89.337890625,15.623793022973189L89.71484375,61.493450505392886L90.091796875,55.24272064651761L90.46875,26.322178602218628L90.845703125,45.57113857780183L91.22265625000001,-2.1482015337262794L91.599609375,17.559526153973167L91.9765625,19.894713265555225L92.353515625,46.96753950629915L92.73046875,52.22703450066703L93.107421875,34.92588743141721L93.484375,57.51009372302464L93.861328125,43.31348659311021L94.23828125,97.71874497617995L94.615234375,54.03316060985837L94.9921875,-15.451236861092696L95.36914062499999,42.40708144221986L95.74609375,48.866558560303275L96.123046875,28.961809209414895L96.5,26.134742387703483L96.876953125,54.51813759122575L97.25390625,75.78188804217747L97.630859375,61.868051648139954L98.0078125,62.672445620809285L98.384765625,83.78401200260434L98.76171875,33.91496170418603L99.138671875,44.997986018657684L99.515625,47.29098811319898L99.892578125,8.867558853966841L100.26953125,14.505234462874256L100.646484375,66.60912609100342L101.0234375,43.31348659311021L101.400390625,81.74633551495415L101.77734375,30.189831784793313L102.154296875,14.18139399800981L102.53125,33.45957753487994L102.908203125,18.696713038853233L103.28515625,53.03507576669965L103.662109375,41.30084380081723L104.0390625,52.92942483084542L104.416015625,18.261901412691373L104.79296875,11.070855617523193L105.169921875,41.56818136147092L105.546875,56.299930827958235L105.923828125,89.75425445181982L106.30078125,65.53692734241486L106.677734375,-19.992780242647456L107.0546875,46.90992131403516L107.431640625,0.07526084354947216L107.80859375,50.27587573017392L108.18554687500001,29.625420672552906L108.5625,66.12414910963604L108.939453125,36.39913773536682L109.31640625,-15.268420049122398L109.693359375,60.09119431461606L110.0703125,81.13174397604806L110.447265625,27.696153197969693L110.82421875,42.11777722835541L111.201171875,-5.24470838478635L111.578125,87.2959109033857L111.955078125,31.333484326090115L112.33203124999999,2.371669088091153L112.708984375,78.93005985873086L113.0859375,5.418364763259888L113.462890625,59.47410091332027L113.83984375,61.177070413317L114.216796875,39.49935216563088L114.59375,21.46139155115398L114.970703125,79.30633393355778L115.34765625,57.221234117235454L115.724609375,42.2435485635485L116.1015625,23.455029232161365L116.478515625,11.72411298751831L116.85546875,44.35033523184913L117.232421875,65.49701811586107L117.609375,26.307363356862766L117.986328125,40.941344261169434L118.36328125,47.8257611989975L118.740234375,65.28797696317945L119.1171875,74.29350599220821L119.494140625,6.636123674256453L119.87109375,67.10930263996124L120.248046875,15.188981396811329L120.625,31.640595470155972L121.001953125,37.77805577005657L121.37890625,56.66551923751831L121.755859375,52.35018340178898L122.1328125,-17.91071830477034L122.509765625,2.458329984119956L122.88671875,61.3044016446386L123.263671875,36.317427814006805L123.640625,52.573218405246735L124.017578125,28.295914420059745L124.39453125,40.02065890175956L124.771484375,12.382886511938892L125.14843750000001,54.59506985970906L125.525390625,42.353570222854614L125.90234375,56.19381267683846L126.279296875,40.65409730161937L126.65625,72.24489516019821L127.033203125,-10.793522664478843L127.41015625,-2.909867916788386L127.787109375,34.624186941555564L128.1640625,43.08553829363416L128.541015625,39.471304178237915L128.91796875,61.87337187358311L129.294921875,10.886893374579273L129.671875,-9.0820679324014L130.048828125,112.72828406095505L130.42578125,39.43367074217113L130.802734375,52.56987254108701L131.1796875,35.91720518895556L131.556640625,47.56958405460628L131.93359375,33.02194000993455L132.310546875,43.81004599162509L132.6875,-13.696436609540683L133.064453125,47.50853710515159L133.44140625,41.719950965472634L133.818359375,59.177871363503584L134.1953125,56.36027695451463L134.572265625,11.070855617523193L134.94921875,53.97842860221863L135.326171875,4.98050870214189L135.703125,43.702307658536085L136.080078125,50.315566420555115L136.45703125,-19.867355551038486L136.833984375,19.77613101686748L137.2109375,61.32788297959736L137.587890625,35.629860264914356L137.96484375,25.285714285714278L138.341796875,46.79954547541482L138.71875,53.648529410362244L139.095703125,36.72448534624917L139.47265625,65.93503996304104L139.84960937499997,19.256195783615112L140.2265625,56.62194011041096L140.603515625,58.29762273175376L140.98046875,69.68622090135302L141.357421875,-39.13266052518571L141.734375,37.46256489413125L142.111328125,47.83107388871056L142.48828125,47.693840708051425L142.865234375,-13.445587226322715L143.2421875,-45.06944433280401L143.619140625,60.98423108032772L143.99609375,62.08545746122087L144.373046875,9.74667712620328L144.75,33.639025875500266L145.126953125,40.80194832597459L145.50390625,36.79009894813808L145.880859375,-1.5261420863015474L146.2578125,52.83911664145333L146.634765625,55.709302910736625L147.01171875,43.05503365823199L147.388671875,91.22172485079085L147.765625,53.46874949761799L148.142578125,58.34869991030011L148.51953125000003,69.10927033424377L148.896484375,64.63120794296265L149.2734375,76.82291901111603L149.650390625,24.74541750976016L150.02734375,65.99871688229697L150.404296875,11.184072426387218L150.78125,56.75237606252942L151.158203125,70.73979132516044L151.53515625,41.21471040589469L151.912109375,65.33738874537605L152.2890625,-6.8942797013691575L152.666015625,36.63250422477722L153.04296875,82.79315392460141L153.419921875,65.07583862543106L153.796875,74.2767842071397L154.173828125,-8.063704439571922L154.55078125,33.103129965918384L154.927734375,31.105438062122886L155.3046875,41.264883296830305L155.681640625,48.51059327806743L156.05859375,30.591192305088043L156.435546875,72.11491135188511L156.81249999999997,4.364794339452487L157.189453125,49.286298726286205L157.56640625,41.03782421350479L157.943359375,42.14285613809312L158.3203125,-52.026354994092685L158.697265625,-13.281398739133579L159.07421875,9.305776630129117L159.451171875,30.939486214092796L159.828125,56.52798462765557L160.205078125,21.02353549003601L160.58203125,20.69322936875477L160.958984375,45.654762574604575L161.3359375,29.240028364317737L161.712890625,72.77168037210193L162.08984375,28.79000963483537L162.466796875,18.145142810685286L162.84375,32.8613912803786L163.220703125,58.058348229953225L163.59765625,49.016150338309146L163.974609375,14.459914582116255L164.3515625,45.574484441961545L164.728515625,14.079541070120655L165.10546875,47.95004045963287L165.48242187500003,-2.6042940616607666L165.859375,-21.772674475397395L166.236328125,28.84575896603721L166.61328125,44.29052414212907L166.990234375,50.38618374722344L167.3671875,-29.084955096244812L167.744140625,48.27272795779365L168.12109375,29.148815887314925L168.498046875,-5.477667944771895L168.875,38.21704219068798L169.251953125,48.498053823198575L169.62890625,31.22402031081063L170.005859375,42.28600486687253L170.3828125,-28.49659543378013L170.759765625,38.88179908479961L171.13671875,83.55824906485421L171.513671875,4.3556761060442L171.890625,27.061735153198242L172.267578125,32.104660800525124L172.64453125,48.09669330290387L173.021484375,15.892502086503157L173.3984375,56.17793489353997L173.77539062499997,63.96683537108558L174.15234375,39.86923594134194L174.529296875,27.844381008829373L174.90625,-37.22618109839303L175.283203125,69.36011971746173L175.66015625,19.878300445420393L176.037109375,44.18310230970383L176.4140625,72.99470783982959L176.791015625,92.95692466838018L177.16796875,27.249186439173542L177.544921875,62.64530945675713L177.921875,64.92234333923885L178.298828125,54.34512476410184L178.67578125,25.812499497617978L179.052734375,78.31775918177196L179.4296875,35.64902362653186L179.806640625,23.271277989660007L180.18359375,58.648810361112865L180.560546875,0.12541866302490234L180.9375,58.71950304508209L181.314453125,-3.7125889573778466L181.69140625,50.018598369189675L182.068359375,72.87066972255707L182.44531250000003,77.74612130437579L182.822265625,37.95616275072098L183.19921875,66.39324249540057L183.576171875,51.35362831183842L183.953125,64.15079007829938L184.330078125,30.34148081711362L184.70703125,29.88859097446712L185.083984375,27.520563151155216L185.4609375,94.4218932049615L185.837890625,4.703434978212613L186.21484375,3.7038053103855475L186.591796875,35.84423671449932L186.96875,28.98131921461652L187.345703125,34.299600439412245L187.72265625,60.0535684142794L188.099609375,60.12882775068283L188.4765625,41.01402637788226L188.853515625,12.34183185441151L189.23046875,19.480022038732272L189.607421875,18.96429174286976L189.984375,47.46088114806582L190.361328125,22.388391852378845L190.73828124999997,50.55084698540824L191.115234375,1.454932451248169L191.4921875,70.17538021292005L191.869140625,20.369042260306202L192.24609375,18.356700897216797L192.623046875,48.02948212623596L193,29.965214278016788L193.376953125,73.03089441571917L193.75390625,15.653061798640636L194.130859375,38.75637439319064L194.5078125,78.83724980694907L194.884765625,39.67995347295488L195.26171875,39.569713277476154L195.638671875,-28.28223405565535L196.015625,23.990412712097168L196.392578125,41.302509197166984L196.76953125,33.96127630131585L197.146484375,-24.768564258302973L197.5234375,58.89464094809124L197.900390625,75.83524854694095L198.27734375,43.47236239058631L198.654296875,15.48840609618594L199.03125,19.627134561538696L199.40820312500003,64.61904527459825L199.78515625,86.78395600829806L200.162109375,52.979590186050956L200.5390625,-0.7023812873023019L200.916015625,32.13924980163574L201.29296875,-9.206211549895158L201.669921875,-6.1298703125544876L202.046875,50.73351308277675L202.423828125,-15.163914544241777L202.80078125,32.25630983284543L203.177734375,50.27040479012898L203.5546875,57.404585966042106L203.931640625,78.10658541747502L204.30859375,17.882582902908325L204.685546875,95.07227946179255L205.0625,9.55397343635559L205.439453125,11.527716789926785L205.81640625,20.03153198105946L206.193359375,61.64898043870926L206.5703125,24.232128790446694L206.947265625,10.030593293053755L207.32421875,14.592633860451826L207.70117187499997,46.12558745486396L208.078125,69.91199137483325L208.455078125,12.834412387439158L208.83203125,24.33247457231792L209.208984375,-6.595081073897234L209.5859375,99.94561727132117L209.962890625,19.06005580084664L210.33984375,4.67950149944852L210.716796875,9.094474758420688L211.09375,52.829079048974165L211.470703125,11.470701456069946L211.84765625,42.573402541024336L212.224609375,23.981294478688937L212.6015625,76.52759374891009L212.978515625,45.8755142518452L213.35546875,74.1011866245951L213.732421875,-19.65831439835685L214.109375,48.11309105157852L214.486328125,29.157934120723183L214.86328125,57.02055762495313L215.240234375,78.15241772787911L215.6171875,49.99675228766033L215.994140625,64.36568649326051L216.37109375000003,53.92370413030896L216.748046875,24.119258625166736L217.125,66.81398491348538L217.501953125,39.207900268690906L217.87890625,22.316561273166116L218.255859375,47.81207631315502L218.6328125,48.53954555307115L219.009765625,77.38428568840027L219.38671875,54.50978046655655L219.763671875,14.147965499332969L220.140625,-37.025519677570884L220.517578125,12.879219838551109L220.89453125,71.58432059628623L221.271484375,13.445575169154552L221.6484375,38.3048485176904L222.025390625,82.71333547149386L222.40234375,38.96723919255393L222.779296875,81.10995064462934L223.15625,42.30591426576885L223.533203125,5.073605111667064L223.91015625,21.651804379054454L224.287109375,4.214275666645591L224.66406249999997,56.16538790294102L225.041015625,49.50075053317207L225.41796875,79.10931980609894L225.794921875,-49.21683888775962L226.171875,53.42655694484711L226.548828125,66.16133793762752L226.92578125,50.4961752636092L227.302734375,67.6041740349361L227.6796875,44.29310136181968L228.056640625,41.69132272686275L228.43359375,6.810575825827442L228.810546875,75.66900280543736L229.1875,53.167727223464425L229.564453125,39.84506131921495L229.94140625,7.422884038516429L230.318359375,93.62312465480396L230.6953125,6.489418080874827L231.072265625,61.87641630853925L231.44921875,28.56683145250591L231.826171875,84.32752653530666L232.203125,73.58443900517055L232.580078125,26.07589587143491L232.95703125,88.25918067353112L233.33398437500003,-35.587310518537265L233.7109375,32.14304780960083L234.087890625,29.382935949734275L234.46484375,44.49811843463351L234.841796875,61.85970205920083L235.21875,-35.75757280417852L235.595703125,52.686096106256755L235.97265625,10.806622777666348L236.349609375,-0.6020505768912301L236.7265625,63.465129068919595L237.103515625,-11.849248307091841L237.48046875,28.54677133900779L237.857421875,17.476211122104075L238.234375,19.006853546415073L238.611328125,-20.017874223845354L238.98828125,39.86011770793368L239.365234375,66.67351136888776L239.7421875,-53.40376588276456L240.119140625,79.05837827069419L240.49609375,52.8382048181125L240.873046875,46.90445037399019L241.25,25.858490058353965L241.62695312499997,60.30441779749734L242.00390625,53.38094317061561L242.380859375,20.999586939811707L242.7578125,50.60486309868949L243.134765625,11.654904842376709L243.51171875,41.92007734945844L243.888671875,48.89909030709947L244.265625,33.71427767617362L244.642578125,57.00231362240655L245.01953125,39.28315960509437L245.396484375,7.555919817515758L245.7734375,21.97448434148515L246.150390625,23.44099770273479L246.52734375,-11.876618078776772L246.904296875,51.89591452053615L247.28125,3.1846537930624663L247.658203125,42.93303018808365L248.03515625,-7.805620755468112L248.412109375,18.362247194562656L248.7890625,70.91758934089115L249.166015625,31.04766915525707L249.54296875,37.05287739208768L249.919921875,27.84438854455948L250.29687500000003,82.31569760186332L250.673828125,44.81098687648773L251.05078125,38.831626193864L251.427734375,11.739787306104404L251.8046875,3.3625271660940825L252.181640625,54.083333500794L252.55859375,56.924778495516094L252.935546875,5.368191872324246L253.3125,62.30280298846108L253.689453125,78.03954002686909L254.06640625,-5.619038241250166L254.443359375,67.78979413849967L254.8203125,-36.12245285511017L255.197265625,55.146933981350486L255.57421875,76.76020666531154L255.951171875,37.35998100042343" style="fill: none;" fill="none"></path></g></g></g></g></g><g><g><span fill="rgb(0, 0, 0)" stroke="none" stroke-width="1px">Alt + Scroll to Zoom</span></g></g></g><g transform="translate(58, 177)" clip-path="url(#clip_1)"><clipPath id="clip_1"><rect width="271" height="23"></rect></clipPath><g><g><line x1="0" y1="0" x2="0" y2="5" style="visibility: inherit;" fill="rgb(0, 0, 0)" stroke="rgb(204, 204, 204)" stroke-width="1px"></line><line x1="30.15625" y1="0" x2="30.15625" y2="5" style="visibility: inherit;" fill="rgb(0, 0, 0)" stroke="rgb(204, 204, 204)" stroke-width="1px"></line><line x1="60.3125" y1="0" x2="60.3125" y2="5" style="visibility: inherit;" fill="rgb(0, 0, 0)" stroke="rgb(204, 204, 204)" stroke-width="1px"></line><line x1="90.46875" y1="0" x2="90.46875" y2="5" style="visibility: inherit;" fill="rgb(0, 0, 0)" stroke="rgb(204, 204, 204)" stroke-width="1px"></line><line x1="120.625" y1="0" x2="120.625" y2="5" style="visibility: inherit;" fill="rgb(0, 0, 0)" stroke="rgb(204, 204, 204)" stroke-width="1px"></line><line x1="150.78125" y1="0" x2="150.78125" y2="5" style="visibility: inherit;" fill="rgb(0, 0, 0)" stroke="rgb(204, 204, 204)" stroke-width="1px"></line><line x1="180.9375" y1="0" x2="180.9375" y2="5" style="visibility: inherit;" fill="rgb(0, 0, 0)" stroke="rgb(204, 204, 204)" stroke-width="1px"></line><line x1="211.09375" y1="0" x2="211.09375" y2="5" style="visibility: inherit;" fill="rgb(0, 0, 0)" stroke="rgb(204, 204, 204)" stroke-width="1px"></line><line x1="241.25" y1="0" x2="241.25" y2="5" style="visibility: inherit;" fill="rgb(0, 0, 0)" stroke="rgb(204, 204, 204)" stroke-width="1px"></line><line x1="271.40625" y1="0" x2="271.40625" y2="5" style="visibility: inherit;" fill="rgb(0, 0, 0)" stroke="rgb(204, 204, 204)" stroke-width="1px"></line></g><g transform="translate(0, 8)"><text x="0" y="0" dx="0em" dy="0.95em" style="text-anchor: middle; visibility: hidden; font-family: &quot;Helvetica Neue&quot;, sans-serif; font-size: 12px; font-weight: 200;" fill="rgb(50, 49, 63)" stroke="none" stroke-width="1px">-2k</text><text x="30.15625" y="0" dx="0em" dy="0.95em" style="text-anchor: middle; visibility: inherit; font-family: &quot;Helvetica Neue&quot;, sans-serif; font-size: 12px; font-weight: 200;" fill="rgb(50, 49, 63)" stroke="none" stroke-width="1px">0</text><text x="60.3125" y="0" dx="0em" dy="0.95em" style="text-anchor: middle; visibility: inherit; font-family: &quot;Helvetica Neue&quot;, sans-serif; font-size: 12px; font-weight: 200;" fill="rgb(50, 49, 63)" stroke="none" stroke-width="1px">2k</text><text x="90.46875" y="0" dx="0em" dy="0.95em" style="text-anchor: middle; visibility: inherit; font-family: &quot;Helvetica Neue&quot;, sans-serif; font-size: 12px; font-weight: 200;" fill="rgb(50, 49, 63)" stroke="none" stroke-width="1px">4k</text><text x="120.625" y="0" dx="0em" dy="0.95em" style="text-anchor: middle; visibility: inherit; font-family: &quot;Helvetica Neue&quot;, sans-serif; font-size: 12px; font-weight: 200;" fill="rgb(50, 49, 63)" stroke="none" stroke-width="1px">6k</text><text x="150.78125" y="0" dx="0em" dy="0.95em" style="text-anchor: middle; visibility: inherit; font-family: &quot;Helvetica Neue&quot;, sans-serif; font-size: 12px; font-weight: 200;" fill="rgb(50, 49, 63)" stroke="none" stroke-width="1px">8k</text><text x="180.9375" y="0" dx="0em" dy="0.95em" style="text-anchor: middle; visibility: inherit; font-family: &quot;Helvetica Neue&quot;, sans-serif; font-size: 12px; font-weight: 200;" fill="rgb(50, 49, 63)" stroke="none" stroke-width="1px">10k</text><text x="211.09375" y="0" dx="0em" dy="0.95em" style="text-anchor: middle; visibility: inherit; font-family: &quot;Helvetica Neue&quot;, sans-serif; font-size: 12px; font-weight: 200;" fill="rgb(50, 49, 63)" stroke="none" stroke-width="1px">12k</text><text x="241.25" y="0" dx="0em" dy="0.95em" style="text-anchor: middle; visibility: inherit; font-family: &quot;Helvetica Neue&quot;, sans-serif; font-size: 12px; font-weight: 200;" fill="rgb(50, 49, 63)" stroke="none" stroke-width="1px">14k</text><text x="271.40625" y="0" dx="0em" dy="0.95em" style="text-anchor: middle; visibility: hidden; font-family: &quot;Helvetica Neue&quot;, sans-serif; font-size: 12px; font-weight: 200;" fill="rgb(50, 49, 63)" stroke="none" stroke-width="1px">16k</text></g><line x1="0" y1="0" x2="271.40625" y2="0" fill="rgb(0, 0, 0)" stroke="rgb(204, 204, 204)" stroke-width="1px"></line></g></g></g></g></svg>