<svg viewBox="0 0 330 200" xmlns="http://www.w3.org/2000/svg"><g><g><g><g><g><line x1="49.98400115966797" y1="162.34545360911983" x2="44.98400115966797" y2="162.34545360911983" style="visibility: inherit;" fill="rgb(0, 0, 0)" stroke="rgb(204, 204, 204)" stroke-width="1px"></line><line x1="49.98400115966797" y1="146.11090824820783" x2="44.98400115966797" y2="146.11090824820783" style="visibility: inherit;" fill="rgb(0, 0, 0)" stroke="rgb(204, 204, 204)" stroke-width="1px"></line><line x1="49.98400115966797" y1="129.87636288729584" x2="44.98400115966797" y2="129.87636288729584" style="visibility: inherit;" fill="rgb(0, 0, 0)" stroke="rgb(204, 204, 204)" stroke-width="1px"></line><line x1="49.98400115966797" y1="113.64181752638386" x2="44.98400115966797" y2="113.64181752638386" style="visibility: inherit;" fill="rgb(0, 0, 0)" stroke="rgb(204, 204, 204)" stroke-width="1px"></line><line x1="49.98400115966797" y1="97.40727216547187" x2="44.98400115966797" y2="97.40727216547187" style="visibility: inherit;" fill="rgb(0, 0, 0)" stroke="rgb(204, 204, 204)" stroke-width="1px"></line><line x1="49.98400115966797" y1="81.17272680455987" x2="44.98400115966797" y2="81.17272680455987" style="visibility: inherit;" fill="rgb(0, 0, 0)" stroke="rgb(204, 204, 204)" stroke-width="1px"></line><line x1="49.98400115966797" y1="64.93818144364796" x2="44.98400115966797" y2="64.93818144364796" style="visibility: inherit;" fill="rgb(0, 0, 0)" stroke="rgb(204, 204, 204)" stroke-width="1px"></line><line x1="49.98400115966797" y1="48.70363608273598" x2="44.98400115966797" y2="48.70363608273598" style="visibility: inherit;" fill="rgb(0, 0, 0)" stroke="rgb(204, 204, 204)" stroke-width="1px"></line><line x1="49.98400115966797" y1="32.46909072182399" x2="44.98400115966797" y2="32.46909072182399" style="visibility: inherit;" fill="rgb(0, 0, 0)" stroke="rgb(204, 204, 204)" stroke-width="1px"></line><line x1="49.98400115966797" y1="16.234545360911994" x2="44.98400115966797" y2="16.234545360911994" style="visibility: inherit;" fill="rgb(0, 0, 0)" stroke="rgb(204, 204, 204)" stroke-width="1px"></line><line x1="49.98400115966797" y1="0" x2="44.98400115966797" y2="0" style="visibility: inherit;" fill="rgb(0, 0, 0)" stroke="rgb(204, 204, 204)" stroke-width="1px"></line></g><g transform="translate(39.98400115966797, 0)"><text style="text-anchor: end; visibility: inherit; font-family: &quot;Helvetica Neue&quot;, sans-serif; font-size: 12px; font-weight: 200;" x="0" y="162.34545360911983" dx="0em" dy="0.3em" fill="rgb(50, 49, 63)" stroke="none" stroke-width="1px">0.58</text><text style="text-anchor: end; visibility: hidden; font-family: &quot;Helvetica Neue&quot;, sans-serif; font-size: 12px; font-weight: 200;" x="0" y="146.11090824820783" dx="0em" dy="0.3em" fill="rgb(50, 49, 63)" stroke="none" stroke-width="1px">0.6</text><text style="text-anchor: end; visibility: inherit; font-family: &quot;Helvetica Neue&quot;, sans-serif; font-size: 12px; font-weight: 200;" x="0" y="129.87636288729584" dx="0em" dy="0.3em" fill="rgb(50, 49, 63)" stroke="none" stroke-width="1px">0.62</text><text style="text-anchor: end; visibility: hidden; font-family: &quot;Helvetica Neue&quot;, sans-serif; font-size: 12px; font-weight: 200;" x="0" y="113.64181752638386" dx="0em" dy="0.3em" fill="rgb(50, 49, 63)" stroke="none" stroke-width="1px">0.64</text><text style="text-anchor: end; visibility: inherit; font-family: &quot;Helvetica Neue&quot;, sans-serif; font-size: 12px; font-weight: 200;" x="0" y="97.40727216547187" dx="0em" dy="0.3em" fill="rgb(50, 49, 63)" stroke="none" stroke-width="1px">0.66</text><text style="text-anchor: end; visibility: hidden; font-family: &quot;Helvetica Neue&quot;, sans-serif; font-size: 12px; font-weight: 200;" x="0" y="81.17272680455987" dx="0em" dy="0.3em" fill="rgb(50, 49, 63)" stroke="none" stroke-width="1px">0.68</text><text style="text-anchor: end; visibility: inherit; font-family: &quot;Helvetica Neue&quot;, sans-serif; font-size: 12px; font-weight: 200;" x="0" y="64.93818144364796" dx="0em" dy="0.3em" fill="rgb(50, 49, 63)" stroke="none" stroke-width="1px">0.7</text><text style="text-anchor: end; visibility: hidden; font-family: &quot;Helvetica Neue&quot;, sans-serif; font-size: 12px; font-weight: 200;" x="0" y="48.70363608273598" dx="0em" dy="0.3em" fill="rgb(50, 49, 63)" stroke="none" stroke-width="1px">0.72</text><text style="text-anchor: end; visibility: inherit; font-family: &quot;Helvetica Neue&quot;, sans-serif; font-size: 12px; font-weight: 200;" x="0" y="32.46909072182399" dx="0em" dy="0.3em" fill="rgb(50, 49, 63)" stroke="none" stroke-width="1px">0.74</text><text style="text-anchor: end; visibility: hidden; font-family: &quot;Helvetica Neue&quot;, sans-serif; font-size: 12px; font-weight: 200;" x="0" y="16.234545360911994" dx="0em" dy="0.3em" fill="rgb(50, 49, 63)" stroke="none" stroke-width="1px">0.76</text><text style="text-anchor: end; visibility: hidden; font-family: &quot;Helvetica Neue&quot;, sans-serif; font-size: 12px; font-weight: 200;" x="0" y="0" dx="0em" dy="0.3em" fill="rgb(50, 49, 63)" stroke="none" stroke-width="1px">0.78</text></g><line x1="49.98400115966797" y1="0" x2="49.98400115966797" y2="178.57999897003174" fill="rgb(0, 0, 0)" stroke="rgb(204, 204, 204)" stroke-width="1px"></line></g></g><g transform="translate(49, 0)" clip-path="url(#clip_0)"><clipPath id="clip_0"><rect width="280" height="178"></rect></clipPath><g><g><g><line x1="0" y1="0" x2="0" y2="178.57999897003174" fill="rgb(0, 0, 0)" stroke="rgb(60, 60, 60)" stroke-width="1px" opacity="0.25"></line><line x1="31.112888760036892" y1="0" x2="31.112888760036892" y2="178.57999897003174" fill="rgb(0, 0, 0)" stroke="rgb(60, 60, 60)" stroke-width="1px" opacity="0.25"></line><line x1="62.225777520073784" y1="0" x2="62.225777520073784" y2="178.57999897003174" fill="rgb(0, 0, 0)" stroke="rgb(60, 60, 60)" stroke-width="1px" opacity="0.25"></line><line x1="93.33866628011067" y1="0" x2="93.33866628011067" y2="178.57999897003174" fill="rgb(0, 0, 0)" stroke="rgb(60, 60, 60)" stroke-width="1px" opacity="0.25"></line><line x1="124.45155504014757" y1="0" x2="124.45155504014757" y2="178.57999897003174" fill="rgb(0, 0, 0)" stroke="rgb(60, 60, 60)" stroke-width="1px" opacity="0.25"></line><line x1="155.56444380018448" y1="0" x2="155.56444380018448" y2="178.57999897003174" fill="rgb(0, 0, 0)" stroke="rgb(60, 60, 60)" stroke-width="1px" opacity="0.25"></line><line x1="186.67733256022134" y1="0" x2="186.67733256022134" y2="178.57999897003174" fill="rgb(0, 0, 0)" stroke="rgb(60, 60, 60)" stroke-width="1px" opacity="0.25"></line><line x1="217.79022132025824" y1="0" x2="217.79022132025824" y2="178.57999897003174" fill="rgb(0, 0, 0)" stroke="rgb(60, 60, 60)" stroke-width="1px" opacity="0.25"></line><line x1="248.90311008029514" y1="0" x2="248.90311008029514" y2="178.57999897003174" fill="rgb(0, 0, 0)" stroke="rgb(60, 60, 60)" stroke-width="1px" opacity="0.25"></line><line x1="280.01599884033203" y1="0" x2="280.01599884033203" y2="178.57999897003174" fill="rgb(0, 0, 0)" stroke="rgb(60, 60, 60)" stroke-width="1px" opacity="0.25"></line></g><g><line x1="0" y1="162.34545360911983" x2="280.01599884033203" y2="162.34545360911983" fill="rgb(0, 0, 0)" stroke="rgb(60, 60, 60)" stroke-width="1px" opacity="0.25"></line><line x1="0" y1="146.11090824820783" x2="280.01599884033203" y2="146.11090824820783" fill="rgb(0, 0, 0)" stroke="rgb(60, 60, 60)" stroke-width="1px" opacity="0.25"></line><line x1="0" y1="129.87636288729584" x2="280.01599884033203" y2="129.87636288729584" fill="rgb(0, 0, 0)" stroke="rgb(60, 60, 60)" stroke-width="1px" opacity="0.25"></line><line x1="0" y1="113.64181752638386" x2="280.01599884033203" y2="113.64181752638386" fill="rgb(0, 0, 0)" stroke="rgb(60, 60, 60)" stroke-width="1px" opacity="0.25"></line><line x1="0" y1="97.40727216547187" x2="280.01599884033203" y2="97.40727216547187" fill="rgb(0, 0, 0)" stroke="rgb(60, 60, 60)" stroke-width="1px" opacity="0.25"></line><line x1="0" y1="81.17272680455987" x2="280.01599884033203" y2="81.17272680455987" fill="rgb(0, 0, 0)" stroke="rgb(60, 60, 60)" stroke-width="1px" opacity="0.25"></line><line x1="0" y1="64.93818144364796" x2="280.01599884033203" y2="64.93818144364796" fill="rgb(0, 0, 0)" stroke="rgb(60, 60, 60)" stroke-width="1px" opacity="0.25"></line><line x1="0" y1="48.70363608273598" x2="280.01599884033203" y2="48.70363608273598" fill="rgb(0, 0, 0)" stroke="rgb(60, 60, 60)" stroke-width="1px" opacity="0.25"></line><line x1="0" y1="32.46909072182399" x2="280.01599884033203" y2="32.46909072182399" fill="rgb(0, 0, 0)" stroke="rgb(60, 60, 60)" stroke-width="1px" opacity="0.25"></line><line x1="0" y1="16.234545360911994" x2="280.01599884033203" y2="16.234545360911994" fill="rgb(0, 0, 0)" stroke="rgb(60, 60, 60)" stroke-width="1px" opacity="0.25"></line><line x1="0" y1="0" x2="280.01599884033203" y2="0" fill="rgb(0, 0, 0)" stroke="rgb(60, 60, 60)" stroke-width="1px" opacity="0.25"></line></g></g></g><g><g><line x1="0" y1="633.1472690755671" x2="280.01599884033203" y2="633.1472690755671" fill="rgb(0, 0, 0)" stroke="rgb(153, 153, 153)" stroke-width="1.5px"></line></g></g><g><g><line x1="31.112888760036892" y1="0" x2="31.112888760036892" y2="178.57999897003174" fill="rgb(0, 0, 0)" stroke="rgb(153, 153, 153)" stroke-width="1.5px"></line></g></g><g><g><g><g><g><path style="fill: none;" fill="none" stroke="none" stroke-width="1px"></path></g><g><path style="fill: none;" fill="none" stroke="none" stroke-width="1px"></path></g><g><path style="fill: none;" fill="none" stroke="none" stroke-width="1px"></path></g><g><path style="fill: none;" stroke="rgb(255, 112, 67)" stroke-width="2px" d="M35.62425763024224,188.1341042420438L36.24651540544298,160.00549146002626L36.47986207114325,153.90636385625862L36.713208736843534,136.62293135795505L36.79099095874363,140.30866922900248L36.868773180643714,140.86665954005332L36.94655540254381,126.35729956346233L37.33546651204427,124.3046086989633L37.957724287245014,113.848997849093L38.0355065091451,114.25242115660276L38.50219984054566,123.4087727073444L39.124457615746394,102.68743024926744L39.35780428144667,88.16930214186894L39.43558650334676,97.54031285717022L39.980062056647405,101.29099028891956L40.21340872234768,108.79404585510258L40.36897316614787,107.00636353980029L40.99123094134861,128.89274639559932L41.224577607048886,120.39829989262452L41.30235982894897,120.73995169469762L42.0023998260498,110.11031348228566L42.15796426984999,122.57986674133741L42.235746491750085,113.98571912798172L42.31352871365017,112.62639904146488L42.85800426695082,118.24752608763299L43.24691537645128,115.79926669909474L43.402479820251465,127.17482253840129L43.48026204215155,121.31738308214341L43.79139092975193,127.92230978098164L44.18030203925238,104.9151185483784L44.25808426115248,114.10156440486203L44.49143092685276,129.77612431140494L44.958124258253314,120.61260160041198L45.0359064801534,127.05803559227726L45.19147092395359,128.73701211582L45.42481758965386,131.51009010343566L45.58038203345404,118.0984425121423L45.658164255354144,122.14573124318296L45.813728699154325,114.25739013697333L45.969293142954506,109.5496648833596L46.0470753648546,111.4462982455891L46.59155091815525,106.38347318548267L47.21380869335598,101.72049567148419L47.29159091525608,106.1565655048535L47.36937313715617,119.61038123562372L47.680502024756535,114.75164349242871L48.45832424375746,116.24554568679915L48.536106465657554,103.82401836515871L48.69167090945774,103.31524318552842L49.0027997970581,88.55319487134582L49.236146462758384,97.39075186520701L49.31392868465847,95.79781661072357L49.39171090655857,101.8438314662696L49.62505757225885,122.40198336061714L50.55844423505995,119.45612037629706L51.02513756646051,119.48775856154298L51.25848423216078,112.49565485780462L51.41404867596096,116.39303135871894L51.49183089786106,105.55478234249755L51.64739534166124,103.2789079482064L51.95852422926161,108.1324275183981L52.26965311686198,121.5333813298374L52.42521756066217,98.31660083686742L52.814128670162624,89.09114206266473L53.90307977676392,76.28046716366433L54.29199088626438,57.78735725648221L54.369773108164466,62.60719863512223L54.680901995764835,82.22037656856192L54.758684217664936,110.19352575726793L55.0698131052653,85.3026477036629L55.14759532716539,81.61227964954105L55.30315977096558,83.64299105982546L55.53650643666585,96.59834892902738L55.925417546166315,99.85786434198913L56.00319976806641,90.18571497981267L56.080981989966496,87.92913476819444L56.46989309946696,91.97282728471255L56.54767532136705,104.44757539656537L56.625457543267146,135.9141849310615L56.85880420896742,113.36539170224646L57.55884420606825,111.75950733528146L57.71440864986843,90.42703766810114L58.18110198126899,114.48750257499253L58.64779531266954,98.97561561560714L58.72557753456964,96.61148926718396L59.19227086597019,115.33164425610696L59.42561753167047,108.39862415916615L59.73674641927084,118.89168307240911L60.0478753068712,125.11469205141208L60.203439750671386,104.68862167642223L60.514568638271754,105.2855708365867L60.59235086017185,107.88258662143707L60.67013308207194,116.1310858414658L60.82569752587213,93.88926281825229L61.214608635372585,103.65315589065386L61.60351974487305,108.6413507638764L61.681301966773134,111.26841180942085L61.759084188673235,95.6880699348987L62.925817517174615,70.70503540261187L63.47029307047526,84.71179956255581L63.936986401875814,78.05565851771351L64.01476862377591,79.55157781546708L64.17033306757608,86.41098690428693L64.32589751137627,73.19936433779597L64.63702639897664,72.05012800290686L65.33706639607747,75.04352208799435L65.49263083987766,65.3655970581122L65.57041306177774,72.42324934517336L65.80375972747802,72.7909787192013L66.27045305887857,58.550508791989586L66.89271083407932,56.19086710003124L66.9704930559794,57.024143373521426L67.20383972167969,57.47842209854831L67.28162194357978,62.98246241800872L67.98166194068061,55.26355279129287L68.0594441625807,60.98718982781L68.91504860348172,83.78458280510121L69.14839526918199,87.69403062280136L69.22617749108208,82.02827925657769L69.38174193488227,73.50128873072912L69.53730637868244,82.43646031117957L70.62625748528374,84.41887206689007L71.01516859478421,76.35157324472176L71.17073303858439,88.73091442852382L71.40407970428467,82.14471934060848L71.55964414808484,76.19861634631917L71.94855525758531,75.84942123654716L72.0263374794854,76.52612340562627L72.49303081088595,66.88866956269761L72.64859525468614,51.423881583264546L72.72637747658624,68.43191983012302L72.88194192038642,65.11943014053327L72.9597241422865,56.99463918694913L73.19307080798679,66.3592846685499L73.34863525178697,62.80553307946053L73.73754636128743,55.493876187901606L73.81532858318754,55.02726604840335L74.51536858028837,55.46792931505982L74.67093302408854,59.08849675951818L74.98206191168892,59.383596600242555L75.059844133589,66.79617691605505L75.13762635548909,72.31136053907365L75.44875524308947,87.96667412793492L75.75988413068983,90.79144621843328L75.83766635258992,102.3490718925549L76.0710130182902,117.6330968730355L76.22657746209038,98.3680129382043L76.30435968399048,100.80894929578002L76.38214190589058,99.65846543696335L76.45992412779066,97.98949949477824L76.53770634969075,83.36176612857534L76.61548857159086,81.35273420517981L76.77105301539103,68.67995316138992L76.84883523729113,71.52740707592902L77.23774634679158,73.504573438365L77.31552856869168,65.91546517941467L77.62665745629204,54.41257767344733L77.86000412199232,54.68201472994454L78.0155685657925,73.68680524293639L78.48226189719307,81.72580818007197L78.63782634099324,71.7428387957104L79.0267374504937,72.37871430777811L79.33786633809407,61.191271799844145L79.41564855999417,73.79600354868307L79.57121300379436,78.41231534517358L80.50459966659545,86.72780559627225L81.04907521989611,71.61686963412319L81.12685744179619,56.86905643687072L81.28242188559639,56.43011369750869L81.36020410749647,66.34940181948743L81.43798632939657,60.94742131635148L81.51576855129666,56.72397100690914L81.67133299509685,64.08735684292354L81.90467966079711,51.17475192261392L82.21580854839749,49.91013757931029L82.29359077029757,54.44075574114501L82.60471965789795,47.27560060737213L82.83806632359823,55.02662262078121L83.1491952111986,48.409626024648645L83.38254187689887,34.20912588059676L83.46032409879896,31.556878207294005L83.53810632069906,43.56191863171816L83.61588854259915,60.733542274623815L83.69367076449923,49.55761087275636L83.84923520829943,52.601042649778364L83.92701743019951,71.91225836005822L84.0047996520996,67.25974423224038L84.23814631779989,73.30088151561446L84.31592853969998,66.58365562627603L84.39371076160006,76.42176654684339L84.54927520540026,86.86700859197855L84.70483964920044,92.57591850643229L84.78262187110053,82.99944336323135L85.32709742440117,73.89182060656583L85.56044409010146,69.21482555818244L85.87157297770182,85.74479279250853L86.1049196434021,95.32172389106174L86.26048408720229,80.14927179380435L86.41604853100247,81.62712362295677L86.72717741860284,70.11728863400138L87.03830630620321,70.28444074419278L87.27165297190348,59.305303341886614L87.34943519380359,68.29218238166551L87.42721741570367,76.50518064863039L87.50499963760376,70.44438593266024L87.97169296900431,73.08795773875707L88.43838630040487,64.75151386452887L88.59395074420505,54.399369057946146L88.67173296610514,58.51936304473492L88.98286185370551,61.21009493997728L89.2162085194058,53.55477499655177L89.29399074130588,67.15810244717522L89.52733740700616,56.25190298976675L89.60511962890625,61.2384474120728L89.68290185080635,70.69587823090085L89.83846629460653,81.39240317760857L89.9940307384067,82.38968371534546L90.46072406980726,126.66208990144386L90.69407073550754,122.58247861427671L90.77185295740763,132.62898461812205L91.00519962310791,124.8361315449859L91.082981845008,124.85399790681527L91.16076406690809,139.69756914383606L91.31632851070829,140.34566791802672L91.39411073260837,113.43567905469445L91.86080406400892,117.99215489341745L92.17193295160929,137.21229817327935L92.24971517350939,109.44943604310846L92.40527961730957,79.29153920229889L92.56084406110975,65.57324577368692L92.71640850490995,76.22931479368056L92.79419072681003,84.36170611931L92.87197294871012,83.23478976610734L92.94975517061022,89.93720287116791L93.0275373925103,57.10015928397992L93.26088405821058,56.48312093980793L93.41644850201078,56.87221097746165L93.57201294581095,67.87108712278572L93.80535961151124,64.84744279652419L93.96092405531141,61.4085132009381L94.0387062772115,48.04029147809379L94.11648849911161,53.40409870230373L94.58318183051216,49.9606988089098L94.66096405241224,56.902894033217834L94.81652849621243,59.50476615817922L95.04987516191271,58.347811970758016L95.36100404951307,58.06357678835394L95.59435071521335,78.31537845677646L95.82769738091362,66.06163520470848L95.90547960281373,88.70936344345279L96.0610440466139,88.76844448236245L96.21660849041409,84.52960567088036L96.37217293421428,77.00142856797105L96.76108404371473,82.1607130545582L96.99443070941501,77.19446033426881L97.1499951532152,74.97691621883978L98.31672848171658,61.54325839557454L98.62785736931694,55.65438014742806L98.78342181311714,55.97312495118459L98.86120403501722,41.67705539892154L99.1723329226176,56.12436833760236L99.32789736641777,59.85014305686528L99.40567958831787,65.82820551099931L99.63902625401815,52.00101757304955L99.79459069781832,65.89611753960753L99.95015514161852,82.98301046833394L100.18350180731879,85.6694620807718L100.33906625111898,69.9281607890162L100.41684847301907,65.50733369847661L100.57241291681926,63.102658117188724L100.88354180441962,70.81883282582106L101.19467069201998,58.236806687478236L101.73914624532064,67.86790052621089L101.81692846722073,70.44344277582948L101.89471068912081,70.37862597238895L101.97249291102092,65.93983295871651L102.1280573548211,50.22571720640471L102.36140402052138,56.007280731525015L102.43918624242147,62.807239260866936L102.51696846432156,63.02814861437223L102.75031513002185,48.77487748260779L102.82809735192193,69.80389332910616L102.90587957382202,88.26371840068846L102.98366179572211,80.56876951090804L103.60591957092285,68.28826616574104L103.68370179282294,68.55299648818539L103.91704845852323,84.56744845663381L104.46152401182385,76.22306081882049L104.69487067752414,82.25276899883121L105.31712845272489,92.22035479794442L105.39491067462497,86.518214908358L105.55047511842517,93.2393273534113L105.62825734032525,104.85130631457382L105.70603956222534,105.22604375159399L105.93938622792562,98.4399097585493L106.01716844982572,86.12493703709137L106.17273289362589,104.08978761786125L106.32829733742608,83.84217287389002L106.71720844692655,86.3234047814982L106.79499066882663,72.30366577994054L107.106119556427,64.35055052954668L107.1839017783271,67.33971654595635L107.26168400022718,50.31805559567101L107.33946622212729,57.779858303514075L107.57281288782755,64.07718162374985L107.65059510972765,44.7499861381751L107.72837733162774,38.778234737010905L107.96172399732801,31.045009044354572L108.0395062192281,45.6830382976932L108.66176399442884,51.804252915944474L108.97289288202921,62.33774389510151L109.1284573258294,53.06214988346173L109.28402176962959,54.33559560985114L109.36180399152967,42.87341283171338L109.59515065722995,43.719717870328736L109.82849732293023,61.77477338019004L109.90627954483033,59.31467645551169L109.98406176673042,54.957153010813386L110.0618439886305,55.20027485869991L110.29519065433078,44.893554769351994L110.91744842953153,40.93614140783296L111.0730128733317,62.511429104328016L111.22857731713188,49.39448483848582L111.38414176093208,43.29432355316956L111.46192398283216,30.185012899935657L111.69527064853244,33.76854502810153L111.85083509233263,61.363174288666286L112.00639953613282,71.82194510157173L112.39531064563327,62.49034323916533L112.93978619893392,65.41162351870884L113.01756842083401,73.90005308640198L113.25091508653429,79.30401516671519L113.40647953033448,71.09451532457854L113.87317286173503,66.78041537866847L113.95095508363512,68.26086013242764L114.1065195274353,60.26256529805828L114.26208397123548,68.2020545065946L114.57321285883586,70.90545639034953L114.88434174643623,75.45149804812684L115.03990619023641,78.00051709772761L115.42881729973686,74.59474950777549L115.50659952163696,71.72285492883476L115.58438174353707,92.66662472032738L116.1288572968377,81.32678365007503L116.20663951873779,72.87474383984197L116.67333285013835,70.85727479657547L116.98446173773873,49.896430506238374L117.0622439596388,65.9216630005218L117.1400261815389,63.67661838690918L117.84006617863973,75.63501148356303L117.9956306224399,46.25794371058288L118.22897728814019,50.99116956517136L118.69567061954073,70.11663920381663L118.77345284144084,61.89557812665166L119.0845817290412,71.82459848197266L119.31792839474149,70.58195261619018L119.39571061664157,61.22995515487979L119.47349283854167,43.150885023682974L119.70683950424194,24.218829849713586L120.56244394514296,25.607120666338858L120.79579061084323,34.7945635217352L121.02913727654351,49.13928511623686L121.1069194984436,66.4724780307281L121.1847017203437,66.59121514736448L121.41804838604398,60.30665375531912L121.49583060794406,58.222893514097876L121.57361282984415,57.86741608030911L122.74034615834555,42.39414613637297L122.97369282404581,46.71054688295149L123.129257267846,56.310682859837755L123.2070394897461,60.41857596747498L123.36260393354627,62.40364541189503L123.44038615544638,52.955645122298066L123.67373282114664,69.44275228463049L123.90707948684692,61.47893597818576L123.98486170874702,65.31121701911641L124.1404261525472,61.03370705199808L124.29599059634738,60.50614529898566L124.45155504014757,86.7424559401519L124.60711948394776,77.98148420708804L124.84046614964804,60.46766757873564L124.99603059344821,71.04229708873069L125.1515950372484,60.128530010847996L125.30715948104859,67.82507112662002L125.46272392484876,93.18145786085626L125.61828836864896,141.27779820778974L126.39611058764987,137.23221215184847L126.70723947525025,143.37937261842586L127.01836836285062,144.80317195946694L127.0961505847507,144.61398450390857L127.1739328066508,134.8563249319601L127.32949725045098,147.52283536749007L127.56284391615125,151.25352213101755L127.79619058185153,134.48894350081696L127.95175502565172,100.70279028877019L128.185101691352,105.67825625288299L128.65179502275254,95.93195690486884L128.80735946655275,94.194543980016L128.9629239103529,74.20668867993972L129.040706132253,66.96791451200156L129.2740527979533,72.26285625102668L129.35183501985338,75.2688835606557L129.42961724175348,69.39935711006567L129.66296390745376,66.64775815192536L130.28522168265448,74.22765065737309L130.67413279215495,67.25905727086918L130.82969723595514,77.50025477045776L131.2963905673557,81.03493972666364L131.60751945495605,68.09393693585493L131.68530167685614,55.107710063480226L131.76308389875624,45.600886182856016L131.84086612065633,38.07305880535216L132.30755945205686,37.00521063443648L132.54090611775715,57.13035138447343L133.0853816710578,59.81312771825854L133.240946114858,53.23372193980251L133.47429278055827,50.52159148342386L133.55207500245837,65.77376558167487L133.78542166815865,85.87293918167107L133.86320389005874,83.19447256148737L134.25211499955918,87.99383998027545L134.32989722145928,110.56115587154207L134.40767944335937,96.94686474720541L134.64102610905965,102.94154085736635L134.87437277475993,82.35129914967901L134.95215499666003,81.96807495045508L135.02993721856012,73.48519292071903L135.1077194404602,72.92997768911245L135.18550166236028,75.39102187915756L135.65219499376084,62.596803794358806L136.1188883251614,38.05111200101169L136.58558165656194,33.04755272688817L136.89671054416232,40.24380793053942L137.0522749879625,58.97237273692559L137.44118609746297,48.46557045482945L137.75231498506335,52.45398599769814L138.29679053836398,64.28933134836488L138.45235498216417,82.51562488833127L138.68570164786445,86.98077020409622L138.84126609166464,74.64768363690453L138.91904831356473,83.48701606272115L139.152394979265,81.77768791968393L139.2301772011651,55.37446651254284L139.38574164496526,68.44382406800109L139.46352386686536,74.90352462625081L139.69687053256564,57.946865927723366L141.0191683048672,43.66869707426508L141.09695052676733,79.61915157512587L141.1747327486674,77.77022581937605L141.2525149705675,64.94330138009646L141.56364385816786,50.9551785775822L141.79699052386815,38.90867673939485L142.1081194114685,37.05843224174768L142.1859016333686,64.16533282454601L142.2636838552687,34.30242139841744L142.57481274286906,53.926616723519885L142.65259496476915,62.67800178153037L142.73037718666924,67.44959974408265L142.88594163046943,74.94898089111754L143.04150607426962,74.43953699258009L143.1970705180698,80.02905996725617L143.35263496186997,86.21573632474029L143.97489273707072,113.45540262827569L144.3638038465712,91.458563956583L144.44158606847128,90.71342844046276L145.1416260655721,73.82178906705836L145.2194082874722,61.58619482752303L146.0750127283732,72.12937345368177L146.4639238378737,82.84397706440755L146.69727050357395,88.2215524542548L146.77505272547404,98.2362056358379L147.00839939117432,92.7444181296142L147.1639638349745,86.15280855785883L147.2417460568746,69.08993802373784L147.86400383207533,57.7336823506045L147.94178605397542,62.02100509498531L148.0195682758755,51.03769569492802L148.0973504977756,69.52102571437105L148.3306971634759,64.84349963682186L148.48626160727605,50.1117924830464L148.56404382917617,47.575448565012465L148.64182605107627,61.066788663025605L149.264083826277,55.596910542943945L149.65299493577746,69.9501687403386L149.73077715767755,58.282035233722794L149.96412382337783,38.08960856932592L150.50859937667846,54.508945260173974L150.66416382047865,56.52988556162791L151.4419860394796,49.90456512921398L151.83089714898006,48.02156980336153L151.90867937088012,54.74834312892156L152.0642438146803,55.08183176446002L152.1420260365804,65.5813642932235L152.60871936798097,68.13189565629378L152.68650158988103,70.6558782579878L153.1531949212816,95.06293383211454L153.23097714318172,83.48645953071814L153.93101714028253,60.615104458221595L154.24214602788288,89.10854679508682L154.3977104716831,84.97100269703598L154.70883935928344,80.07946321407789L155.4088793563843,74.89697870714744L155.56444380018448,66.95735041017817L155.79779046588476,53.58221734544884L155.95335490968492,46.24193439953842L156.031137131585,37.959207295332135L156.42004824108545,65.84033729834773L156.65339490678573,62.400745900530865L157.0423060162862,47.09730739762898L157.19787046008642,35.46052842592454L157.50899934768677,39.97384351177536L157.66456379148696,44.6083135800927L157.74234601338705,42.64541421798327L157.82012823528711,66.07113458138197L157.97569267908733,65.61699878038652L158.13125712288752,69.89538073796786L158.52016823238796,81.0159793991852L158.75351489808824,93.43781404404213L158.90907934188843,93.15024732503126L159.1424260075887,100.21630024665741L159.375772673289,75.11941798406428L159.68690156088934,79.33895688489542L159.92024822658962,160.9367105709418L160.23137711419,179.41726736247105L160.3091593360901,184.72145762785624L160.38694155799018,173.87188781395776L160.93141711129084,182.92476205479582L161.086981555091,166.6876057897975L161.2425459988912,190.8430700852176L162.0203682178921,182.35512980586833L162.09815043979222,162.1505964805556L162.40927932739257,141.0522128616076L162.72040821499294,145.50594198367074L162.95375488069323,132.28437654760526L163.03153710259332,150.5477834032061L163.1093193244934,140.11836874444614L163.18710154639348,157.51550611985638L163.3426659901937,142.17287099471255L163.57601265589395,160.29157063378798L164.1204882091946,135.91852844262368L164.1982704310947,141.79218630724966L164.58718154059514,136.27602949990717L164.74274598439536,139.46957044325063L164.82052820629542,140.77461129345772L164.89831042819554,136.12367196309668L165.59835042529636,119.59629321259104L165.90947931289674,123.88342926125588L165.9872615347968,97.13245941052553L166.06504375669692,104.79927895373743L166.14282597859702,104.34232712007926L166.2983904223972,120.423979883462L166.68730153189765,107.01839184301225L166.76508375379774,116.51896774271553L166.92064819759793,106.12957665487751L166.99843041949802,114.9792864689043L167.07621264139812,111.03267315120065L167.3095593070984,101.35673114784232L167.46512375089858,74.47079724218234L167.54290597279868,73.48926656034074L167.62068819469874,85.04142356584224L168.3207281917996,74.337198073346L168.55407485749984,64.38707239132592L169.2541148546007,111.86266545346336L169.72080818600125,96.070092337708L169.79859040790134,111.50737074442893L170.2652837393019,102.4764515344748L170.34306596120197,91.1497875409597L170.42084818310207,55.62541693181262L170.57641262690225,64.12570975420824L171.04310595830282,87.1906953922678L171.50979928970338,87.40949209259308L171.58758151160345,81.49331076179597L172.2098392868042,86.96532484500143L172.2876215087043,72.08635365022421L172.52096817440457,84.10739590587733L172.75431484010483,91.58741298455959L173.06544372770523,86.14912155430055L173.2210081715054,74.80777495131989L173.53213705910576,74.92180254026279L173.99883039050633,66.11080771486354L174.3099592781067,67.04848863691036L174.38774150000677,67.08456081145279L174.62108816570705,64.97436498155406L174.77665260950724,54.365019599012214L175.00999927520752,57.130162701487976L175.32112816280787,54.72158354433513L175.47669260660808,49.84444546001032L175.63225705040827,84.22695737263182L175.71003927230834,82.83015670485544L175.78782149420843,74.15027566939013L176.3322970475091,63.634907302412344L176.48786149130927,67.29357631021223L176.56564371320937,52.10195228536112L177.03233704460993,57.43321733584922L177.11011926651,49.56745930711364L177.1879014884101,64.31837276593211L177.34346593221028,71.1362621482472L177.49903037601047,59.88611250719059L178.4324170388116,63.867296458292344L179.1324570359124,67.69825982356262L179.44358592351279,58.851088184735886L179.83249703301325,87.8922764287738L179.91027925491332,82.66637553510023L180.2991903644138,81.88912301932832L180.37697258631388,93.91172995072988L180.45475480821398,103.56973600163596L180.76588369581435,86.80370471948274L180.84366591771445,104.75431892132441L181.31035924911498,78.495381924836L181.62148813671536,71.96587337139572L181.69927035861545,94.44346736861775L181.77705258051554,88.59635158305188L181.93261702431573,97.21812030526726L182.01039924621583,82.14637390819313L182.3993103557163,93.57172863618668L182.63265702141658,104.24173701767032L182.78822146521674,94.2428699030044L183.02156813091702,89.9908791627704L183.2549147966173,75.3207384347288L183.48826146231755,73.96008186908948L183.64382590611777,75.57501087008374L184.1105192375183,86.13148079919922L184.1883014594184,75.66856410248133L184.34386590321859,55.66836298486021L184.49943034701877,49.84634081791566L185.19947034411962,51.946491713625946L185.27725256601968,44.67437760378988L185.35503478791978,47.818270832864386L185.4328170098199,65.64487909742411L186.52176811642116,57.46296970809726L186.83289700402156,42.44730283827457L187.1440258916219,54.34743791994144L187.221808113522,51.716093795300296L187.45515477922226,48.642935803213675L187.53293700112238,71.66866164519277L187.76628366682266,82.91097951655183L187.92184811062282,66.72739892328389L188.077412554423,56.96504705052898L188.46632366392348,59.10591318129171L188.69967032962376,59.692556228073684L188.85523477342392,77.59939015262717L188.93301699532404,62.61872672156905L189.0885814391242,57.12460379253061L189.32192810482448,59.22970270600264L189.55527477052476,44.58652940201347L189.71083921432495,48.61951260265462L189.94418588002523,49.56187719157646L190.1775325457255,55.842242193545104L190.25531476762558,40.21620434930293L190.48866143332586,53.54431390710077L190.72200809902614,47.002162871679246L191.3442658742269,41.60590807878995L191.42204809612696,30.315179132647216L191.57761253992717,36.60469547038474L191.96652364942764,48.607859660477175L192.35543475892808,65.71929278059494L192.43321698082818,70.41471438505457L192.51099920272827,61.390295684077515L192.66656364652846,49.87367176226974L192.74434586842855,63.416173060566024L192.89991031222874,52.1064471484638L193.0554747560289,69.96812734956997L193.28882142172918,53.40718660219005L193.3666036436293,48.5373447472918L193.67773253122965,58.158183455147096L194.06664364073012,56.69623903606849L194.22220808453028,67.06344018586017L194.68890141593084,71.05304153356698L194.76668363783097,63.46040632807275L194.84446585973103,55.086757074826224L194.92224808163112,61.5479673991712L195.00003030353122,68.39761908328494L195.2333769692315,66.52489667211324L195.3889414130317,60.482998129926244L195.62228807873194,41.32398656287694L195.70007030063206,44.7508531425558L195.93341696633235,30.041995072109188L196.0889814101325,59.33095991038563L196.2445458539327,53.65868552260629L196.3223280758328,38.24568880921822L196.40011029773288,34.241950961726076L196.71123918533326,40.310571901240536L197.0223680729336,41.438035156361906L197.10015029483372,40.48366705192734L197.17793251673382,55.488079018737636L197.48906140433417,67.46650022992648L197.5668436262343,57.33353190214112L197.72240807003445,43.139434048873454L197.80019029193454,31.017246011457615L197.95575473573473,40.55355890284602L198.03353695763482,36.37197366375557L198.11131917953492,37.92281664794379L198.2668836233351,43.96635227656816L198.3446658452352,41.283220887206824L198.5002302890354,40.81586939765296L198.73357695473567,75.59475214456776L198.88914139853583,56.538538324291196L198.96692362043595,51.83874323384258L199.43361695183648,46.85973503586652L199.51139917373658,33.56090464408214L199.58918139563664,31.36689183087603L199.90031028323705,42.37990274009104L200.0558747270372,50.18962919487859L200.2114391708374,36.76520257235356L200.52256805843777,47.621250334109305L201.06704361173843,69.21430157529709L201.3003902774387,75.81956086085589L201.45595472123887,67.34915679297892L201.61151916503906,64.13276215724856L201.68930138693915,70.54344191216384L202.00043027453953,56.88927026492932L202.1559947183397,64.65651858621118L202.2337769402398,52.11122797090641L202.3115591621399,58.93564100859622L202.54490582784018,52.67974617365293L202.62268804974025,50.462709235249974L202.85603471544053,60.34584037395079L202.93381693734065,58.38230646991751L203.1671636030409,62.28821832223288L203.4005102687412,93.41616668221988L203.71163915634156,83.37502712747556L204.1783324877421,91.69896024129797L204.2561147096422,96.61354542829325L204.48946137534247,80.4309028434529L204.56724359724257,59.4862250617753L204.72280804104275,65.23617677651069L204.87837248484294,48.407342663448645L204.956154706743,80.89234929495667L205.11171915054322,60.71862821394883L205.1895013724433,77.19214646621953L205.34506581624348,66.73846077098061L205.42284803814357,67.31196235262048L205.5006302600437,65.13786668965359L205.57841248194376,68.00084330650814L205.73397692574397,69.76060222221881L205.88954136954413,83.38557706577534L205.96732359144423,84.70528963114232L206.2784524790446,72.27618939496097L206.35623470094467,65.68850031949665L206.51179914474488,61.952135189506265L206.74514581044514,64.20776372708228L206.90071025424535,73.83552729249546L207.1340569199456,67.85057983005846L208.06744358274673,56.30629401835468L208.37857247034708,52.48639092165028L208.61191913604736,46.76195363294292L209.00083024554783,38.31499186081257L209.156394689348,39.507641967722805L209.38974135504827,44.017396100765836L209.85643468644884,67.7251307186635L209.93421690834893,64.18358736733728L210.08978135214912,62.60798025785063L210.32312801784937,62.95500720223494L210.55647468354965,62.24508210248777L210.63425690544977,68.87393752010928L210.71203912734984,69.12117077664821L211.41207912445068,57.606791659586165L211.48986134635078,43.74323028413596L211.56764356825087,60.70326041608024L211.64542579015097,65.50478240314403L211.80099023395115,73.7950507047784L211.9565546777513,76.82309980982001L212.1899013434516,65.97530182085526L212.57881245295206,53.62287320707277L212.73437689675225,32.36821409418573L212.81215911865235,40.520194323224786L212.88994134055244,51.66295590608746L212.96772356245253,52.12574418556382L213.58998133765326,61.4012700945343L214.29002133475407,61.58051355896784L214.67893244425457,65.9499754413877L215.3011902194553,57.53750065933757L215.3789724413554,62.37325114284708L215.61231910705567,76.87022708960879L215.92344799465602,54.22878424105495L216.1567946603563,35.45591951852512L216.4679235479567,36.50837028850722L216.70127021365695,56.19834440239262L216.93461687935724,50.70711619350118L217.01239910125733,52.98855048598011L217.0901813231574,57.05692977486578L217.2457457669576,67.79346812285262L217.86800354215833,59.60970709911486L218.02356798595852,49.90136059734033L218.1791324297587,55.228710311401684L218.3346968735589,32.08816848335027L218.72360798305934,28.4931798722653L219.1125190925598,29.936253025888988L219.73477686776056,25.959351290585232L219.81255908966065,41.558029532624545L219.89034131156072,39.75078434884978L220.20147019916112,46.64288008456123L220.4348168648614,47.46179856460603L220.66816353056166,59.47802196162222L221.29042130576238,49.72521448955129L221.4459857495626,84.46708828059933L221.75711463716294,85.5779426360356L221.83489685906306,79.16267503530271L221.91267908096313,70.50864571787896L221.99046130286322,72.10681331405479L222.1460257466634,79.43347945159685L222.3015901904636,85.50240180076258L222.53493685616388,85.1546798425233L222.76828352186416,63.81490789740343L222.84606574376423,67.00210591639132L223.00163018756444,54.95853351320639L223.1571946313646,30.214875394804295L223.70167018466526,54.44530324993545L224.01279907226564,74.20226011570803L224.16836351606582,69.22305883861162L224.32392795986598,72.44513521717711L224.47949240366617,71.26344378338617L224.55727462556627,55.24819690331479L224.71283906936645,62.91767406458733L224.94618573506673,68.0111373219229L225.10175017886692,72.97220120439422L225.3350968445672,54.01480378989726L225.49066128836736,80.55003337621183L225.72400795406764,64.21071998876896L225.80179017596777,61.58657305042567L225.87957239786783,58.81729751155186L226.65739461686874,59.89460729579294L226.73517683876887,77.3328422759095L226.89074128256902,84.48534435532615L226.96852350446915,75.34486931036984L227.0463057263692,80.73429450267292L227.1240879482693,82.60215400496499L227.3574346139696,70.88171790034599L227.43521683586968,59.08079999664599L227.59078127966987,53.74809387019761L227.82412794537012,68.24522469827177L227.97969238917034,83.28262199382281L228.13525683297053,59.7896926138187L228.29082127677069,56.923425000353845L228.99086127387153,55.40113883295571L229.06864349577162,44.23014239458888L229.3019901614719,54.298744549644L229.45755460527207,52.5296354857324L229.61311904907225,59.40166185976551L229.76868349287247,55.63520653679549L229.92424793667263,62.79315243277786L230.00203015857272,64.75587047483697L230.235376824273,75.71855913190502L230.70207015567357,58.88361355679061L230.77985237757366,56.796932457530644L231.090981265174,57.482527349192225L231.3243279308743,57.387122950979204L231.55767459657457,51.299345224801954L231.71323904037476,58.951555931279046L231.79102126227482,47.939193224349594L232.10215014987523,59.6900037538682L232.41327903747558,50.081290633005864L232.64662570317586,38.61977763493209L232.72440792507595,41.883267190649434L232.80219014697605,75.40048963374096L232.87997236887614,58.06885851352476L233.11331903457642,73.81611463163499L233.42444792217677,76.13224181839179L233.58001236597696,77.07342504749447L233.89114125357733,83.26016466600696L233.96892347547745,60.189895705361224L234.1244879192776,71.82918047953996L234.2022701411777,58.8817685610271L234.59118125067815,54.11185930383023L234.82452791637843,49.627824229254344L234.90231013827855,41.03179608685008L235.0578745820787,37.191031215143L235.2134390258789,24.24442019944013L235.3690034696791,16.010656916827145L235.44678569157918,28.564517705085763L235.68013235727946,31.870242133160303L235.75791457917956,36.926277282858024L235.91347902297974,35.41584385016492L236.14682568868002,28.9148461811628L236.2246079105801,34.009339233224466L236.38017235438028,43.76388515932513L236.84686568578084,51.424578720269466L237.08021235148112,54.303184983310885L237.3135590171814,68.45878323710768L237.39134123908147,63.310361919150694L237.70247012668187,81.1351636690398L238.1691634580824,65.08401070177223L239.1803323427836,44.68644239204605L239.49146123038398,30.984541970403768L239.64702567418416,30.704749671096494L240.03593678368463,32.38626261782488L240.26928344938491,56.92751994031258L240.42484789318507,44.40210741346195L240.73597678078548,21.88709726786655L241.12488789028592,17.42037915239166L241.4360167778863,25.13838824196904L241.74714566548664,18.63116358631379L241.98049233118692,35.15538462081574L242.68053232828777,47.53185708865098L243.1472256596883,30.414544677488294L243.9250478786892,32.96281581604501L244.00283010058934,28.882198734054413L244.08061232248943,32.02624493072554L244.3139589881897,41.73612487855078L244.39174121008978,58.1264600814838L244.78065231959025,57.374919164951436L244.93621676339043,48.44842242887202L245.2473456509908,37.58603780485197L245.32512787289087,53.9930171198651L245.402910094791,67.56371765943804L245.4806923166911,82.50750629968279L245.55847453859116,91.83101619513074L245.63625676049128,82.59509637842905L245.71403898239134,52.77608127708274L246.3362967575921,52.24722867193431L246.56964342329238,49.89378091330164L247.03633675469294,53.790874889875624L247.3474656422933,69.72195182762559L248.1252878612942,53.67371380270325L248.20307008319432,49.16343697804027L248.2808523050944,50.50056010028729L248.82532785839504,45.804818972637094L249.2142389678955,57.3995988334142L249.4475856335958,59.26449515253408L249.60315007739598,58.378718352529035L249.68093229929607,44.802857752058884L249.75871452119614,46.74980621202613L249.83649674309626,46.80552519595213L250.1476256306966,40.78567293456689L250.76988340589736,26.342451087803084L250.84766562779745,52.78342382491091L251.0810122934977,42.4611474130339L251.23657673729792,47.745349359722326L251.314358959198,46.367263047682144L251.4699234029982,46.40829351543405L251.85883451249865,53.69702586683964L252.4033100657993,42.590764930768785L252.55887450959946,45.98298385342025L252.79222117529974,43.55686496640806L252.94778561909993,63.888860307100856L253.3366967286004,27.652253381078452L253.57004339430068,35.47753289931987L253.80339006000096,40.57440325792112L254.50343005710178,49.2218467632174L254.58121227900187,65.28276293309463L254.81455894470216,69.43557871682961L255.04790561040244,64.30685822950115L255.20347005420263,63.12881432118026L255.2812522761027,55.183227838180784L255.74794560750325,62.427447501507885L255.98129227320354,61.8476574143277L256.05907449510363,54.90926465777473L256.2146389389038,47.91113900360742L256.4479856046041,44.286992443189234L256.60355004840426,59.17758013198018L256.75911449220445,54.33361605055728L256.99246115790476,52.923568773271214L257.0702433798048,61.983947009221524L257.14802560170494,71.78403463543687L257.6925011550056,85.16175563077236L258.081412264506,69.45901877836299L258.2369767083062,70.52391825326377L258.31475893020627,54.055707464032864L258.3925411521064,52.64681532146267L258.70367003970676,47.96121704129712L258.7814522616069,64.61623632899537L259.1703633711073,61.568133726512514L259.2481455930074,65.31200856511181L259.55927448060777,65.65047966833717L259.7926211463081,84.56689730346615L259.87040336820814,102.25901318316916L260.02596781200833,82.91731612181421L260.57044336530896,71.81430882165566L260.648225587209,79.70290105348464L261.0371366967095,64.50225500227043L261.97052335951065,52.42346013581815L262.3594344690111,42.46256581002052L262.5149989128113,27.163451174766436L262.5927811347114,25.875540669021404L262.82612780041165,27.12641058129435L262.9039100223117,26.84909179758344L263.6039500194126,37.321303577400386L264.0706433508131,22.471241225621412L264.38177223841353,48.71471488997227" fill="none"></path></g></g></g></g><g opacity="0.2"><g><g><g><path style="fill: none;" stroke="rgb(51, 187, 238)" stroke-width="2px" d="M31.42401764763726,338.8961247324945L31.501799869537354,176.55068079991779" fill="none"></path></g><g><path style="fill: none;" stroke="rgb(204, 51, 17)" stroke-width="2px" d="M31.42401764763726,271.8159088741649L31.501799869537354,176.55068079991779" fill="none"></path></g><g><path style="fill: none;" stroke="rgb(0, 119, 187)" stroke-width="2px" d="M31.42401764763726,331.4552985382081L31.501799869537354,176.55068079991779" fill="none"></path></g><g><path style="fill: none;" stroke="rgb(255, 112, 67)" stroke-width="2px" d="M32.046275422838,227.28363505276772L32.279622088538275,156.257518451864L32.35740431043837,272.9432987186042L32.590750976138644,125.81772654706785L32.66853319803874,267.87000813159074L33.990830970340305,246.12729962816493L34.30195985794067,116.3958700680115L34.45752430174086,159.88128707486314L34.61308874554104,235.2559937591675L34.846435411241316,212.25702804865773L35.31312874264187,178.24175347089786L35.390910964541966,206.2656996270279L35.46869318644206,230.03772436525912L35.54647540834215,139.87803395788376L35.62425763024224,185.77924833068604L36.24651540544298,88.13039739627342L36.47986207114325,138.31570769275964L36.713208736843534,92.43065314692315L36.79099095874363,149.7346575181208L36.868773180643714,142.29387970654986L36.94655540254381,89.24165160510469L37.33546651204427,119.05333909771659L37.957724287245014,87.09965202597816L38.0355065091451,115.28456747646479L38.50219984054566,146.83566197280766L39.124457615746394,49.670009217757524L39.35780428144667,51.02283832491233L39.43558650334676,121.51747079641811L39.980062056647405,110.88773982574419L40.21340872234768,127.99199739741043L40.36897316614787,102.43223132269738L40.99123094134861,184.89345757592798L41.224577607048886,98.66350808416102L41.30235982894897,121.6141394619199L42.0023998260498,82.91212800236504L42.15796426984999,154.48588855963243L42.235746491750085,91.99574091759608L42.31352871365017,109.14828443929775L42.85800426695082,132.63039994645453L43.24691537645128,109.53486233587394L43.402479820251465,156.2816614268817L43.48026204215155,106.3298461152361L43.79139092975193,144.82245718225258L44.18030203925238,46.04619221204291L44.25808426115248,137.6070944420394L44.49143092685276,169.88291363335284L44.958124258253314,97.16572436146903L45.0359064801534,143.55008853091834L45.19147092395359,133.03304090456555L45.42481758965386,138.60561692383408L45.58038203345404,83.78180731287279L45.658164255354144,132.5016051578831L45.813728699154325,94.07334310243688L45.969293142954506,97.50391954257887L46.0470753648546,116.29924978522519L46.59155091815525,93.42912724600235L47.21380869335598,89.7892471787529L47.29159091525608,117.5072210422737L47.36937313715617,154.03491326877054L47.680502024756535,102.31949959566077L48.45832424375746,120.06802140647702L48.536106465657554,72.0408221333676L48.69167090945774,102.0134305376206L49.0027997970581,50.78126342658881L49.236146462758384,120.00357562947583L49.31392868465847,91.72194313077196L49.39171090655857,117.31388371127017L49.62505757225885,175.00451436175945L50.55844423505995,111.91848519603944L51.02513756646051,119.56871178286421L51.25848423216078,94.6048272318348L51.41404867596096,126.36532212071606L51.49183089786106,77.82275016245903L51.64739534166124,97.45558520982797L51.95852422926161,120.55121958583952L52.26965311686198,155.82265460525238L52.42521756066217,38.911386693081226L52.814128670162624,65.48578669383926L53.90307977676392,43.50155167480537L54.29199088626438,10.468688134589883L54.369773108164466,74.93981767868073L54.680901995764835,132.40498487509677L54.758684217664936,181.76895019382616L55.0698131052653,21.61388855584235L55.14759532716539,72.1696653046545L55.30315977096558,88.83901064699367L55.53650643666585,129.74746746267624L55.925417546166315,108.19804790753851L56.00319976806641,65.4374039783729L56.080981989966496,82.15518041889389L56.46989309946696,102.31949959566077L56.54767532136705,136.36694867920576L56.625457543267146,216.4283922453051L56.85880420896742,55.66936917015478L57.55884420606825,107.65050071660576L57.71440864986843,35.843245174497724L58.18110198126899,176.05146794173592L58.64779531266954,59.285057879671044L58.72557753456964,90.56235458918981L59.19227086597019,163.2312579110382L59.42561753167047,90.65897487197613L59.73674641927084,145.7404708255112L60.0478753068712,141.03762249946593L60.203439750671386,52.424050147533464L60.514568638271754,106.81299591188314L60.59235086017185,114.52761989299363L60.67013308207194,137.23667637242897L60.82569752587213,36.97869074106217L61.214608635372585,128.63621325384497L61.60351974487305,121.40473906938149L61.681301966773134,117.99032245620529L61.759084188673235,55.822355316459394L62.925817517174615,6.780473734589549L63.47029307047526,120.55117120312404L63.936986401875814,61.02446488340202L64.01476862377591,83.37921473747724L64.17033306757608,103.96228631660543L64.32589751137627,39.39453648972827L64.63702639897664,69.10955531683838L65.33706639607747,82.70277599254212L65.49263083987766,40.60250774677678L65.57041306177774,90.48179736793833L65.80375972747802,73.73189480434768L66.27045305887857,22.11314979673969L66.89271083407932,50.15320739712004L66.9704930559794,59.1562630910996L67.20383972167969,58.64079364052104L67.28162194357978,77.0657541962724L67.98166194068061,35.51303314143985L68.0594441625807,75.63236786786615L68.91504860348172,142.11670220251207L69.14839526918199,97.69720849086696L69.22617749108208,67.53121437289491L69.38174193488227,51.68311724288169L69.53730637868244,105.29905236222538L70.62625748528374,89.49130641691109L71.01516859478421,55.70962358942279L71.17073303858439,120.40616820487136L71.40407970428467,65.29249774555116L71.55964414808484,60.98421046413401L71.94855525758531,74.95592912293102L72.0263374794854,78.25761400907064L72.49303081088595,42.22913464075569L72.64859525468614,11.853836895676181L72.72637747658624,111.95070808454004L72.88194192038642,56.64370029421626L72.9597241422865,36.205583330625274L73.19307080798679,90.32077969086629L73.34863525178697,53.712481860402534L73.73754636128743,36.78540179277408L73.81532858318754,53.83334188363749L74.51536858028837,56.5954627268963L74.67093302408854,68.35251096793633L74.98206191168892,60.13867412864397L75.059844133589,85.7628859803582L75.13762635548909,86.42316489832757L75.44875524308947,128.024220285911L75.75988413068983,98.01924384501103L75.83766635258992,131.92178669573428L76.0710130182902,156.74061986579557L76.22657746209038,49.07407931135842L76.30435968399048,107.05461919292212L76.38214190589058,96.71470068789166L76.45992412779066,93.71908485979222L76.53770634969075,45.93350886772177L76.61548857159086,76.21218633001496L76.77105301539103,36.253869280660695L76.84883523729113,78.81324111348627L77.23774634679158,78.56358630167988L77.31552856869168,46.49707073747388L77.62665745629204,24.979922453552234L77.86000412199232,55.37142840831295L78.0155685657925,122.31472118187273L78.48226189719307,102.29535662064305L78.63782634099324,46.199226741063L79.0267374504937,74.00574097388726L79.33786633809407,32.565751646091286L79.41564855999417,106.0479684149291L79.57121300379436,90.22415940807998L80.50459966659545,108.00480734196589L81.04907521989611,32.95223277723653L81.12685744179619,19.133548647459605L81.28242188559639,55.30698263131177L81.36020410749647,91.73007142697031L81.43798632939657,47.12527191508906L81.51576855129666,45.91734904075602L81.67133299509685,82.92819106389986L81.90467966079711,18.135026165664954L82.21580854839749,46.674345006942616L82.29359077029757,66.033333884772L82.60471965789795,28.94198302309215L82.83806632359823,74.8593088401447L83.1491952111986,31.478592029562265L83.38254187689887,-2.1259616766037084L83.46032409879896,24.77052206101385L83.53810632069906,74.27944199528041L83.61588854259915,104.67089956732568L83.69367076449923,20.961544403209473L83.84923520829943,60.388328940450364L83.92701743019951,121.32423023084547L84.0047996520996,55.35526858134719L84.23814631779989,88.75845342574219L84.31592853969998,49.39616304821794L84.39371076160006,101.59472651797475L84.54927520540026,113.59344642276922L84.70483964920044,107.18341398149356L84.78262187110053,58.49593579041478L85.32709742440117,50.587974478300694L85.56044409010146,57.247710114098254L85.87157297770182,128.0403317301613L86.1049196434021,119.82639812543803L86.26048408720229,41.32723244174733L86.41604853100247,85.40853097228262L86.72717741860284,40.66685675834702L87.03830630620321,70.71213600123052L87.27165297190348,31.21277739079011L87.34943519380359,91.28707928416036L87.42721741570367,97.51993422139823L87.50499963760376,54.93651617898588L87.97169296900431,79.85211477997987L88.43838630040487,43.42089768812295L88.59395074420505,27.911140887365946L88.67173296610514,69.06126936680297L88.98286185370551,68.09492139079344L89.2162085194058,33.966963468712436L89.29399074130588,101.96519297030063L89.52733740700616,28.346004733977566L89.60511962890625,73.9976126776889L89.68290185080635,94.89478484562467L89.83846629460653,108.7618033081525L89.9940307384067,84.94144423717042L90.46072406980726,239.94273064096248L90.69407073550754,112.1439002673972L90.77185295740763,158.33516901942028L91.00519962310791,104.89641140411436L91.082981845008,124.89971290380922L91.16076406690809,177.67809483571483L91.31632851070829,142.00397047547546L91.39411073260837,44.58058299513604L91.86080406400892,129.6508955626054L92.17193295160929,186.39124129861997L92.24971517350939,38.41207706946844L92.40527961730957,2.1259597412951337L92.56084406110975,30.47198963428471L92.71640850490995,103.49519958149322L92.79419072681003,105.17020919093848L92.87197294871012,80.35132763816173L92.94975517061022,107.08679369870724L93.0275373925103,-26.920603488931818L93.26088405821058,54.904293290485285L93.41644850201078,57.86778299551507L93.57201294581095,96.01411896793883L93.80535961151124,57.11078702932846L93.96092405531141,52.609259182338675L94.0387062772115,13.834770415015214L94.11648849911161,67.12857341478392L94.58318183051216,41.150006554994064L94.66096405241224,74.66601989185659L94.81652849621243,66.16222543877439L95.04987516191271,55.38749146984779L95.36100404951307,57.33629886611715L95.59435071521335,130.1340453592524L95.82769738091362,34.707751225217805L95.90547960281373,146.65853285148532L96.0610440466139,88.91961625096062L96.21660849041409,73.68360885431225L96.37217293421428,57.73893982422817L96.76108404371473,95.36187158073687L96.99443070941501,64.48721582932913L97.1499951532152,69.3028442651265L98.31672848171658,27.1703047481451L98.62785736931694,40.58639630252648L98.78342181311714,56.788703292468924L98.86120403501722,5.097432594376869L99.1723329226176,93.09098044760799L99.32789736641777,69.38335310366251L99.40567958831787,81.12438666588315L99.63902625401815,16.621130998722663L99.79459069781832,101.44977190243755L99.95015514161852,126.70356568454137L100.18350180731879,92.54333649124429L100.33906625111898,29.650596273812397L100.41684847301907,54.19568003976504L100.57241291681926,56.949769352256425L100.88354180441962,90.56235458918981L101.19467069201998,26.04293909506353L101.73914624532064,92.51116198545917L101.81692846722073,77.03353130777182L101.89471068912081,70.21277799490225L101.97249291102092,54.58220955362573L102.1280573548211,10.017712843727963L102.36140402052138,70.80067637053395L102.43918624242147,80.20642140534L102.51696846432156,63.59339354380364L102.75031513002185,12.304763803822624L102.82809735192193,123.61123280822468L102.90587957382202,135.49722098598255L102.98366179572211,60.87955865058028L103.60591957092285,36.8659106313101L103.68370179282294,69.23036695735787L103.91704845852323,125.54392876024374L104.46152401182385,54.87211878470016L104.69487067752414,97.68109704661666L105.31712845272489,117.72460458286405L105.39491067462497,71.92804202361552L105.55047511842517,110.43676453488229L105.62825734032525,134.5630958984736L105.70603956222534,106.18489149969889L105.93938622792562,81.07610071584774L106.01716844982572,54.61438405941088L106.17273289362589,150.05678963769577L106.32829733742608,32.0342191339779L106.71720844692655,92.6721796625312L106.79499066882663,36.43109516741396L107.106119556427,44.00076453298723L107.1839017783271,74.98815201143161L107.26168400022718,6.764410673054698L107.33946622212729,76.87251363069979L107.57281288782755,80.19026157837423L107.65059510972765,-4.702873485057324L107.72837733162774,23.498201792395065L107.96172399732801,11.257858606561598L108.0395062192281,83.13763983915372L108.66176399442884,67.46672021317828L108.97289288202921,89.28998593785558L109.1284573258294,29.328512536952843L109.28402176962959,57.59398520869094L109.36180399152967,13.544909566656258L109.59515065722995,45.88517453497087L109.82849732293023,107.97258445346529L109.90627954483033,53.01998005393256L109.98406176673042,43.80747558469915L110.0618439886305,55.822355316459394L110.29519065433078,18.521555679525676L110.91744842953153,30.810233198110012L111.0730128733317,117.71652466938116L111.22857731713188,15.83191214403547L111.38414176093208,27.685725816008187L111.46192398283216,-3.358027525954469L111.69527064853244,42.937796274191385L111.85083509233263,131.9700726457697L112.00639953613282,98.582999245625L112.39531064563327,38.61339754852395L112.93978619893392,72.88635846885764L113.01756842083401,95.6195579233107L113.25091508653429,93.13123486687599L113.40647953033448,50.08871323740337L113.87317286173503,55.741846477923374L113.95095508363512,72.04890204685047L114.1065195274353,39.79717744783929L114.26208397123548,88.51697529284961L114.57321285883586,77.82270177974355L114.88434174643623,87.08354058172787L115.03990619023641,84.52274021752457L115.42881729973686,65.88034773846739L115.50659952163696,64.3744841022925L115.58438174353707,146.25584351065885L116.1288572968377,52.31131842049686L116.20663951873779,51.24835016170101L116.67333285013835,65.69513870366218L116.98446173773873,-3.7364771263323178L117.0622439596388,106.92572763891974L117.1400261815389,57.93218038980079L117.84006617863973,106.23317744973431L117.9956306224399,-28.90971368718465L118.22897728814019,63.10216383367373L118.69567061954073,119.05333909771659L118.77345284144084,40.860194089350586L119.0845817290412,97.23017013847023L119.31792839474149,67.40237120160802L119.39571061664157,37.30082286063717L119.47349283854167,-3.1083727141480892L119.70683950424194,-24.222976805389663L120.56244394514296,29.159366563682482L120.79579061084323,58.30264684212668L121.02913727654351,85.84339481889423L121.1069194984436,110.82324566602753L121.1847017203437,66.89503004722779L121.41804838604398,44.22622798706047L121.49583060794406,52.89113688264567L121.57361282984415,56.95784926573931L122.74034615834555,2.8023984862302598L122.97369282404581,57.75500288576299L123.129257267846,80.87473185407677L123.2070394897461,70.92951954182085L123.36260393354627,67.48288004014404L123.44038615544638,28.780868580589157L123.67373282114664,111.6286243476805L123.90707948684692,41.10176898767412L123.98486170874702,75.11694680000305L124.1404261525472,50.088761620118845L124.29599059634738,59.1562630910996L124.45155504014757,153.87379882626755L124.60711948394776,55.56462059117011L124.84046614964804,15.654734639997656L124.99603059344821,98.09980106626251L125.1515950372484,32.203268341817335L125.30715948104859,87.51835604562402L125.46272392484876,158.0613228498807L125.61828836864896,264.34281140866244L126.39611058764987,126.8806948058637L126.70723947525025,159.10822804714172L127.01836836285062,148.4462741879672L127.0961505847507,144.12990699306715L127.1739328066508,109.88921734394953L127.32949725045098,179.93287452459342L127.56284391615125,160.7993007181218L127.79619058185153,91.59309995948506L127.95175502565172,14.253522817376506L128.185101691352,118.4090748585666L128.65179502275254,70.99391693610657L128.80735946655275,89.74899275948489L128.9629239103529,23.063386328498922L129.040706132253,48.44592651645871L129.2740527979533,85.81112354767816L129.35183501985338,82.96046233511592L129.42961724175348,54.38088907457025L129.66296390745376,59.607189999246046L130.28522168265448,93.6224645770059L130.67413279215495,49.42838593671854L130.82969723595514,103.70459997403161L131.2963905673557,90.07920479254277L131.60751945495605,34.98154901204191L131.68530167685614,21.879606429183582L131.76308389875624,21.2755966093016L131.84086612065633,18.81146491060008L132.30755945205686,34.272887378606185L132.54090611775715,108.62492860609818L133.0853816710578,66.67759812392201L133.240946114858,36.39887227891336L133.47429278055827,43.58201213062594L133.55207500245837,104.79979112132806L133.78542166815865,137.3010737667147L133.86320389005874,76.34102950130186L134.25211499955918,100.2740719166051L134.32989722145928,168.30457268940935L134.40767944335937,62.11172126536195L134.64102610905965,118.28023168727968L134.87437277475993,29.66665933534722L134.95215499666003,80.98751196382885L135.02993721856012,51.7798826738144L135.1077194404602,71.50933800396967L135.18550166236028,81.68814206649715L135.65219499376084,29.85999666635078L136.1188883251614,-24.754412552072125L136.58558165656194,20.24485123900635L136.89671054416232,58.65700185020228L137.0522749879625,106.89350475041915L137.44118609746297,21.581617284626304L137.75231498506335,62.65922007357926L138.29679053836398,94.57265272604968L138.45235498216417,129.15158593899258L138.68570164786445,98.40582174158722L138.84126609166464,43.090782420496026L138.91904831356473,106.10438266116287L139.152394979265,77.40399776009771L139.2301772011651,-12.183954098611707L139.38574164496526,101.88463574904915L139.46352386686536,91.43208228241302L139.69687053256564,14.55954349270121L141.0191683048672,7.134877125380598L141.09695052676733,171.60625757554897L141.1747327486674,73.03934461516225L141.2525149705675,32.12280788599679L141.56364385816786,15.163504929867742L141.79699052386815,8.08506527442438L142.1081194114685,32.32417674776778L142.1859016333686,133.52427061469547L142.2636838552687,-42.10837331826022L142.57481274286906,104.13941543792775L142.65259496476915,85.07033579117278L142.73037718666924,79.65877744897631L142.88594163046943,94.13778887943806L143.04150607426962,73.13601328066403L143.1970705180698,94.33107782772616L143.35263496186997,102.04570180883665L143.97489273707072,183.154050572197L144.3638038465712,35.174837960329995L144.44158606847128,88.80683614120855L145.1416260655721,30.600832805571628L145.2194082874722,30.278749068712102L146.0750127283732,99.10640346154005L146.4639238378737,110.25963541355995L146.69727050357395,101.98125603183547L146.77505272547404,123.86088762003106L147.00839939117432,78.69247785568224L147.1639638349745,69.2867328208762L147.2417460568746,25.430849361698677L147.86400383207533,28.67621676703544L147.94178605397542,72.99105866512683L148.0195682758755,22.934494774496557L148.0973504977756,116.8146708530883L148.3306971634759,52.875025438395355L148.48626160727605,12.417495530859242L148.56404382917617,41.08565754342382L148.64182605107627,95.5873350348101L149.264083826277,41.60103022857143L149.65299493577746,106.6761212098288L149.73077715767755,28.426561955229033L149.96412382337783,-13.577134390465432L150.50859937667846,96.52141173960356L150.66416382047865,61.700903628337144L151.4419860394796,32.95223277723653L151.83089714898006,43.203514147532616L151.90867937088012,71.96026491211609L152.0642438146803,55.935135426211474L152.1420260365804,92.44671620845799L152.60871936798097,74.6579883610892L152.68650158988103,77.11404014630784L153.1531949212816,157.51372727623246L153.23097714318172,53.86551638942262L153.93101714028253,2.0937368527945353L154.24214602788288,162.01525512322226L154.3977104716831,74.38419057426509L154.70883935928344,67.56338887868006L155.4088793563843,61.63645785133593L155.56444380018448,46.64207373572657L155.79779046588476,19.359012101532812L155.95335490968492,27.460213979219503L156.031137131585,16.766037231544402L156.42004824108545,137.18031050891068L156.65339490678573,53.59979851608139L157.0423060162862,7.940110658887164L157.19787046008642,5.685282587293102L157.50899934768677,51.5221479485251L157.66456379148696,56.4666195556094L157.74234601338705,37.622906597496694L157.82012823528711,126.01096711264049L157.97569267908733,64.45499294082853L158.13125712288752,80.84255734829165L158.52016823238796,109.47046494158822L158.75351489808824,125.22179664066874L158.90907934188843,92.41444493724192L159.1424260075887,118.29634313153L159.375772673289,10.903551981201474L159.68690156088934,90.13557065606108L159.92024822658962,369.7224219597936L160.3091593360901,198.2933893033436L160.38694155799018,146.11088889512163L160.93141711129084,206.08852212299013L161.086981555091,125.14128780213272L161.2425459988912,252.6501121791927L161.47589266459147,276.6637360071051L161.55367488649156,175.10118302726121L162.0203682178921,127.58935643929942L162.09815043979222,110.45287597913257L162.40927932739257,87.06738075476208L162.72040821499294,156.901782691014L162.95375488069323,98.45410769162264L163.03153710259332,197.2787069945832L163.1093193244934,113.4324287456972L163.18710154639348,202.02988965337937L163.3426659901937,102.9153811193444L163.57601265589395,206.65222914088864L164.1204882091946,73.55476568302532L164.1982704310947,156.8212254697625L164.58718154059514,122.16173503556811L164.74274598439536,147.6409438890297L164.82052820629542,144.11384393153233L164.89831042819554,124.22322577615861L165.59835042529636,77.30737747731138L165.90947931289674,134.85300512954802L165.9872615347968,28.684248297802867L166.06504375669692,124.4165147244467L166.14282597859702,103.17311584463368L166.2983904223972,161.5724081285587L166.68730153189765,72.71726087830272L166.76508375379774,140.828270489643L166.92064819759793,79.5460457219397L166.99843041949802,137.6232058862897L167.07621264139812,100.93439921728992L167.3095593070984,76.59871584387568L167.46512375089858,5.677251056525677L167.54290597279868,70.97780549185626L167.62068819469874,114.60014558347771L168.3207281917996,46.94809441105127L168.55407485749984,38.927498137331526L169.2541148546007,233.33936086868326L169.72080818600125,55.66133763938734L169.79859040790134,151.00702616945503L170.2652837393019,79.3688682179019L170.34306596120197,62.16803874616481L170.42084818310207,-35.27146017842489L170.57641262690225,85.87556932467935L171.04310595830282,146.20750917790795L171.50979928970338,87.96933133648592L171.58758151160345,66.35546600434701L172.2098392868042,100.96667048850598L172.2876215087043,34.01524941874786L172.52096817440457,114.86586345681891L172.75431484010483,110.72667376595669L173.06544372770523,72.23406269894022L173.2210081715054,45.78845748675363L173.53213705910576,75.21356708278937L173.99883039050633,43.56594906909109L174.3099592781067,69.44775049794823L174.38774150000677,67.17685936481934L174.62108816570705,59.57496711074545L174.77665260950724,27.218687463611474L175.00999927520752,64.2053865117376L175.32112816280787,48.55870662621081L175.47669260660808,37.36522025492289L175.63225705040827,172.20213909923262L175.71003927230834,79.25613649086527L175.78782149420843,51.94090035088644L176.3322970475091,36.72903592925576L176.48786149130927,76.65508170739399L176.56564371320937,13.230857360564158L177.03233704460993,71.07442577464259L177.11011926651,29.441195881274012L177.1879014884101,102.06181325308695L177.34346593221028,88.58132430441985L177.49903037601047,31.100142429184416L178.4324170388116,74.05402692392268L179.1324570359124,77.50061804288403L179.44358592351279,36.21366324410815L179.83249703301325,162.20051254074292L179.91027925491332,69.2947643516436L180.2991903644138,79.90035234729983L180.37697258631388,124.67420106702052L180.45475480821398,128.28185824576937L180.76588369581435,43.904144250200915L180.84366591771445,150.68489404988003L181.31035924911498,11.306144556597019L181.62148813671536,55.25869668127635L181.69927035861545,151.9573110839297L181.77705258051554,73.6352261388459L181.93261702431573,119.27880255178982L182.01039924621583,43.58201213062594L182.3993103557163,122.80599927471812L182.63265702141658,131.543288712641L182.78822146521674,68.65858002597649L183.02156813091702,79.11123025804356L183.2549147966173,37.78397265728421L183.48826146231755,70.47854425095895L183.64382590611777,79.70716016444267L184.1105192375183,113.14251951462279L184.1883014594184,48.89690180732063L184.34386590321859,4.493471157210337L184.49943034701877,34.949422888972265L185.19947034411962,57.32018742186685L185.27725256601968,26.067082070081256L185.35503478791978,55.8626097357274L185.4328170098199,111.25815789535461L186.52176811642116,36.527763832915724L186.83289700402156,4.0264328048136235L187.1440258916219,84.79653800434868L187.221808113522,44.98322395324706L187.45515477922226,40.77958848538364L187.53293700112238,130.58502065011433L187.76628366682266,111.67691029771592L187.92184811062282,25.318166017377536L188.077412554423,31.98593318394248L188.46632366392348,64.58378772939997L188.69967032962376,61.19361085667239L188.85523477342392,123.41794385993657L188.93301699532404,24.287420647082257L189.0885814391242,43.06668782819378L189.32192810482448,64.61605900061603L189.55527477052476,7.118765681130299L189.71083921432495,58.93878278507833L189.94418588002523,51.97312323938701L190.1775325457255,71.91193057936522L190.25531476762558,0.23356659125954593L190.48866143332586,87.64719921691092L190.72200809902614,30.262637624461803L191.3442658742269,27.798409160329328L191.42204809612696,1.4253780213423113L191.57761253992717,52.69779955164209L191.96652364942764,79.32058226786648L192.35543475892808,109.50263944737334L192.43321698082818,82.428978205718L192.51099920272827,38.29934534243182L192.66656364652846,20.40586891607836L192.74434586842855,98.06762656047738L192.89991031222874,23.168038142052666L193.0554747560289,115.67114537304096L193.28882142172918,11.032395152488391L193.3666036436293,36.07678854205383L193.67773253122965,82.77520491759525L194.06664364073012,52.95553427693139L194.22220808453028,93.59019330578985L194.68890141593084,81.26130975065296L194.76668363783097,44.03298742148783L194.84446585973103,33.66094279338773L194.92224808163112,78.08038812231737L195.00003030353122,85.9239520401457L195.2333769692315,61.733126516837714L195.3889414130317,45.023478372515086L195.62228807873194,-7.698537695872233L195.70007030063206,53.51924129482991L195.93341696633235,-7.59383749960304L196.0889814101325,134.27318666739922L196.2445458539327,39.144930060637336L196.3223280758328,-1.1918365890947769L196.40011029773288,23.997511416007853L196.71123918533326,55.83846676070969L197.0223680729336,44.322896652562235L197.10015029483372,38.04170738257349L197.17793251673382,93.88015091957972L197.48906140433417,98.1159125105128L197.5668436262343,31.40611472179367L197.72240807003445,6.820728153857544L197.80019029193454,-0.000025159012039921436L197.95575473573473,64.95430256444133L198.03353695763482,25.67247264273766L198.11131917953492,41.89098784236131L198.2668836233351,59.43006087792371L198.3446658452352,34.4178419941434L198.5002302890354,39.62004832651695L198.73357695473567,164.58413540090845L198.88914139853583,7.779044599099677L198.96692362043595,39.81328889208959L199.43361695183648,34.119852849586124L199.51139917373658,-0.46706351140875313L199.58918139563664,25.753029863989127L199.90031028323705,70.55910147221043L200.0558747270372,70.17252357563424L200.2114391708374,2.4158689723695375L200.52256805843777,75.39882450031004L201.06704361173843,124.4648490571976L201.3003902774387,92.72056237799755L201.45595472123887,45.67577414243249L201.61151916503906,55.902912537710876L201.68930138693915,86.94656911424259L202.00043027453953,21.952083736952176L202.1559947183397,84.53072336557652L202.2337769402398,20.01135625416572L202.3115591621399,76.39739536482017L202.54490582784018,36.672670065737464L202.62268804974025,44.78993500495898L202.85603471544053,85.63399442635584L202.93381693734065,53.35817523504241L203.1671636030409,72.28234864897564L203.4005102687412,173.06383526168844L203.71163915634156,57.68257396070986L204.1783324877421,112.99756489908559L204.2561147096422,109.18858724128123L204.48946137534247,39.02407003740237L204.56724359724257,5.894682979831487L204.72280804104275,79.94868668005071L204.87837248484294,5.347087406183277L204.956154706743,164.01234846952704L205.11171915054322,9.09974758318478L205.1895013724433,119.34324832879099L205.34506581624348,39.9904180134119L205.42284803814357,68.77939166649598L205.5006302600437,59.57496711074545L205.57841248194376,75.32639557525691L205.73397692574397,74.26333055103014L205.88954136954413,118.24805718149454L205.96732359144423,88.08206306352253L206.2784524790446,40.473616192774415L206.35623470094467,48.832456030319435L206.51179914474488,52.39182725903288L206.74514581044514,69.97928301006162L206.90071025424535,98.4702675185884L207.1340569199456,52.53678187457008L208.06744358274673,26.767712172749555L208.37857247034708,42.71233282011818L208.61191913604736,32.11472797251392L209.00083024554783,16.701591454543205L209.156394689348,42.55929829109809L209.38974135504827,55.5565890604027L209.85643468644884,128.38655844203856L209.93421690834893,55.12177359650656L210.08978135214912,58.57644462895077L210.32312801784937,63.842951590179126L210.55647468354965,60.428583359718374L210.63425690544977,85.83531490541132L210.71203912734984,69.75377117327294L211.41207912445068,28.14473263763753L211.48986134635078,8.270274309229592L211.56764356825087,104.09920940137522L211.64542579015097,77.79052727395843L211.80099023395115,95.00751657266129L211.9565546777513,84.57102616755999L212.1899013434516,38.2188365038958L212.57881245295206,22.016481131237896L212.73437689675225,-22.0164830665465L212.81215911865235,61.378819891477605L212.88994134055244,80.17415013412393L212.96772356245253,53.30988928500699L213.58998133765326,85.1347331854585L214.29002133475407,62.03914719216242L214.67893244425457,77.1301999732736L215.3011902194553,36.01234276505264L215.3789724413554,74.7465771131081L215.61231910705567,113.96391287509512L215.92344799465602,-3.704302620547196L216.1567946603563,-12.578563525955303L216.4679235479567,39.20129592415563L216.70127021365695,106.57945254432703L216.93461687935724,36.65660700420264L217.01239910125733,58.82609944075719L217.0901813231574,67.46676859589374L217.2457457669576,95.26525129795057L217.86800354215833,38.66976341204224L218.02356798595852,25.060431292088253L218.1791324297587,68.859900505032L218.3346968735589,-27.121972350702805L218.72360798305934,19.294614707247092L219.1125190925598,33.62867152217166L219.73477686776056,15.783577811284573L219.81255908966065,81.47066176047586L219.89034131156072,35.126552010294574L220.20147019916112,64.27781543679072L220.4348168648614,49.55718072528998L220.66816353056166,90.22415940807998L221.29042130576238,24.77052206101385L221.4459857495626,173.36177602353024L221.75711463716294,88.42030662734783L221.83489685906306,62.747808825598156L221.91267908096313,48.36541767792269L221.99046130286322,76.19607488576466L222.1460257466634,98.180358287514L222.3015901904636,101.0310678827917L222.53493685616388,84.26495710951983L222.76828352186416,9.21243092750592L222.84606574376423,75.1572496019865L223.00163018756444,24.142417648829593L223.1571946313646,-33.09718932808232L223.70167018466526,116.44415601804694L224.01279907226564,124.754758288272L224.16836351606582,56.48268261714422L224.32392795986598,80.68952281927156L224.47949240366617,68.23982762361518L224.55727462556627,14.269682644342282L224.71283906936645,82.54170993275461L224.94618573506673,81.04387782734716L225.10175017886692,85.66616893214096L225.3350968445672,5.508153465970764L225.49066128836736,148.44622580525171L225.72400795406764,22.403010645098618L225.80179017596777,54.87211878470016L225.87957239786783,51.731499958348024L226.65739461686874,62.651140160096375L226.73517683876887,121.95238302574518L226.89074128256902,102.78658633077296L226.96852350446915,51.956963412421246L227.0463057263692,94.52431839329878L227.1240879482693,87.38148134356969L227.3574346139696,40.892416977851184L227.43521683586968,28.885568776858378L227.59078127966987,40.10319812316399L227.82412794537012,105.33930678149339L227.97969238917034,121.75909407745709L228.13525683297053,-0.32210889587156544L228.29082127677069,49.58945199650606L228.99086127387153,51.5060365042748L229.06864349577162,15.646703109230259L229.3019901614719,80.0614667898028L229.45755460527207,48.00298275636422L229.61311904907225,76.9852453577364L229.76868349287247,45.99790626200749L229.92424793667263,81.10832360434834L230.00203015857272,69.77791414829065L230.235376824273,103.76899736831733L230.70207015567357,15.80772078630227L230.77985237757366,51.457702171523934L231.090981265174,59.23677192963562L231.3243279308743,57.14300991782903L231.55767459657457,35.72243353397823L231.71323904037476,78.53141179589474L231.79102126227482,19.761653059643834L232.10215014987523,89.7570242902523L232.41327903747558,25.495295138699845L232.64662570317586,9.292988148757416L232.72440792507595,50.23361947022511L232.80219014697605,161.16163887424932L232.87997236887614,13.722087070694073L233.11331903457642,114.10891587334778L233.42444792217677,82.05856013610757L233.58001236597696,79.48164832765399L233.89114125357733,99.09029201728976L233.96892347547745,1.159563382570127L234.1244879192776,101.61083796222505L234.2022701411777,25.75298148127368L234.59118125067815,41.90700252118069L234.82452791637843,38.15443910961008L234.90231013827855,19.036976747388763L235.0578745820787,27.363593696433185L235.2134390258789,-8.882317595187573L235.3690034696791,-5.057228493132897L235.44678569157918,60.686318085007656L235.68013235727946,40.3286615772372L235.75791457917956,49.86324978333016L235.91347902297974,31.55106933733086L236.14682568868002,12.2806208288049L236.2246079105801,47.04471469383756L236.38017235438028,68.72302580297769L236.84686568578084,71.02613982460717L237.08021235148112,61.668729122551994L237.3135590171814,104.67897948080856L237.39134123908147,50.13699918743879L237.70247012668187,126.74382010380938L238.1691634580824,24.013622860258153L239.1803323427836,-7.505200364868671L239.49146123038398,-4.074769072873067L239.64702567418416,29.9888398376377L240.03593678368463,36.68878150998776L240.26928344938491,119.72169792916884L240.42484789318507,12.353098136573522L240.73597678078548,-35.722483852002284L241.12488789028592,5.991303262617805L241.4360167778863,44.886603670460744L241.74714566548664,1.981005125757946L241.98049233118692,77.43622064859831L242.68053232828777,79.199770627347L243.1472256596883,-13.383845442177346L243.9250478786892,39.48312524174716L244.00283010058934,18.441046840989657L244.08061232248943,40.07097523466339L244.3139589881897,66.58097784113569L244.39174121008978,100.06471990678217L244.78065231959025,55.45193724684897L244.93621676339043,25.608026865736463L245.2473456509908,9.792249389654756L245.32512787289087,95.97386454867082L245.402910094791,102.28732508987564L245.4806923166911,120.74446015141214L245.55847453859116,115.68725681729126L245.63625676049128,58.96297414281149L245.71403898239134,-23.522395085436813L246.3362967575921,50.89404353634089L246.56964342329238,43.87196974441579L247.03633675469294,63.76244275164309L247.3474656422933,110.48509886763317L248.1252878612942,12.610784479147327L248.20307008319432,37.622906597496694L248.2808523050944,53.921882252940904L248.82532785839504,33.78973758195917L249.2142389678955,87.06738075476208L249.4475856335958,64.03624053846723L249.60315007739598,56.1122645475338L249.68093229929607,10.066047176478861L249.75871452119614,51.731499958348024L249.83649674309626,46.94809441105127L250.1476256306966,25.382563411663256L250.76988340589736,-10.613693068151122L250.84766562779745,120.43843947608744L251.0810122934977,16.049344067341252L251.23657673729792,61.266136547156464L251.314358959198,42.84112760868962L251.4699234029982,46.51327894715513L251.85883451249865,72.3468428086923L252.4033100657993,14.172965596125039L252.55887450959946,54.66271839216175L252.79222117529974,37.34910881067259L252.94778561909993,115.91272027136446L253.3366967286004,-65.06703622678651L253.57004339430068,55.50022319688439L253.80339006000096,53.6158615776162L254.50343005710178,71.34822356146668L254.58121227900187,106.37813206527153L254.81455894470216,80.0614667898028L255.04790561040244,51.18390438469983L255.20347005420263,60.11453115362623L255.2812522761027,34.85270584075502L255.74794560750325,80.96336898881114L255.98129227320354,60.36413758271716L256.05907449510363,37.15586824509995L256.2146389389038,30.00490289917252L256.4479856046041,35.013820283257985L256.60355004840426,97.27840770579019L256.75911449220445,41.93927379239673L256.99246115790476,49.315654209681924L257.0702433798048,85.16690769124364L257.14802560170494,96.85970368614433L257.6925011550056,119.39158266154189L258.081412264506,29.280129821486497L258.2369767083062,73.24869662498517L258.31475893020627,11.918185907246425L258.3925411521064,49.04185642285782L258.70367003970676,35.97208834578461L258.7814522616069,107.23174831424444L259.1703633711073,53.768896106636305L259.2481455930074,74.8915317286453L259.55927448060777,66.51653206413451L259.7926211463081,132.9686918929953L259.87040336820814,147.5281637792776L260.02596781200833,33.42735104311615L260.57044336530896,43.404834626588126L260.648225587209,99.88759078545984L261.0371366967095,25.60807524845194L261.97052335951065,21.517219890340584L262.3594344690111,16.975437624082787L262.5149989128113,-11.982682002271673L262.5927811347114,22.580139766420956L262.82612780041165,30.327035018747523L262.9039100223117,26.139510995134373L263.6039500194126,64.11674937700322L264.0706433508131,-15.525893404019342L264.38177223841353,115.86438593861358" fill="none"></path></g></g></g></g></g></g><g transform="translate(49, 178)" clip-path="url(#clip_1)"><clipPath id="clip_1"><rect width="280" height="21"></rect></clipPath><g><g><line x1="0" y1="0" x2="0" y2="5" style="visibility: inherit;" fill="rgb(0, 0, 0)" stroke="rgb(204, 204, 204)" stroke-width="1px"></line><line x1="31.112888760036892" y1="0" x2="31.112888760036892" y2="5" style="visibility: inherit;" fill="rgb(0, 0, 0)" stroke="rgb(204, 204, 204)" stroke-width="1px"></line><line x1="62.225777520073784" y1="0" x2="62.225777520073784" y2="5" style="visibility: inherit;" fill="rgb(0, 0, 0)" stroke="rgb(204, 204, 204)" stroke-width="1px"></line><line x1="93.33866628011067" y1="0" x2="93.33866628011067" y2="5" style="visibility: inherit;" fill="rgb(0, 0, 0)" stroke="rgb(204, 204, 204)" stroke-width="1px"></line><line x1="124.45155504014757" y1="0" x2="124.45155504014757" y2="5" style="visibility: inherit;" fill="rgb(0, 0, 0)" stroke="rgb(204, 204, 204)" stroke-width="1px"></line><line x1="155.56444380018448" y1="0" x2="155.56444380018448" y2="5" style="visibility: inherit;" fill="rgb(0, 0, 0)" stroke="rgb(204, 204, 204)" stroke-width="1px"></line><line x1="186.67733256022134" y1="0" x2="186.67733256022134" y2="5" style="visibility: inherit;" fill="rgb(0, 0, 0)" stroke="rgb(204, 204, 204)" stroke-width="1px"></line><line x1="217.79022132025824" y1="0" x2="217.79022132025824" y2="5" style="visibility: inherit;" fill="rgb(0, 0, 0)" stroke="rgb(204, 204, 204)" stroke-width="1px"></line><line x1="248.90311008029514" y1="0" x2="248.90311008029514" y2="5" style="visibility: inherit;" fill="rgb(0, 0, 0)" stroke="rgb(204, 204, 204)" stroke-width="1px"></line><line x1="280.01599884033203" y1="0" x2="280.01599884033203" y2="5" style="visibility: inherit;" fill="rgb(0, 0, 0)" stroke="rgb(204, 204, 204)" stroke-width="1px"></line></g><g transform="translate(0, 8)"><text style="text-anchor: middle; visibility: hidden; font-family: &quot;Helvetica Neue&quot;, sans-serif; font-size: 12px; font-weight: 200;" x="0" y="0" dx="0em" dy="0.95em" fill="rgb(50, 49, 63)" stroke="none" stroke-width="1px">-2k</text><text style="text-anchor: middle; visibility: inherit; font-family: &quot;Helvetica Neue&quot;, sans-serif; font-size: 12px; font-weight: 200;" x="31.112888760036892" y="0" dx="0em" dy="0.95em" fill="rgb(50, 49, 63)" stroke="none" stroke-width="1px">0</text><text style="text-anchor: middle; visibility: inherit; font-family: &quot;Helvetica Neue&quot;, sans-serif; font-size: 12px; font-weight: 200;" x="62.225777520073784" y="0" dx="0em" dy="0.95em" fill="rgb(50, 49, 63)" stroke="none" stroke-width="1px">2k</text><text style="text-anchor: middle; visibility: inherit; font-family: &quot;Helvetica Neue&quot;, sans-serif; font-size: 12px; font-weight: 200;" x="93.33866628011067" y="0" dx="0em" dy="0.95em" fill="rgb(50, 49, 63)" stroke="none" stroke-width="1px">4k</text><text style="text-anchor: middle; visibility: inherit; font-family: &quot;Helvetica Neue&quot;, sans-serif; font-size: 12px; font-weight: 200;" x="124.45155504014757" y="0" dx="0em" dy="0.95em" fill="rgb(50, 49, 63)" stroke="none" stroke-width="1px">6k</text><text style="text-anchor: middle; visibility: inherit; font-family: &quot;Helvetica Neue&quot;, sans-serif; font-size: 12px; font-weight: 200;" x="155.56444380018448" y="0" dx="0em" dy="0.95em" fill="rgb(50, 49, 63)" stroke="none" stroke-width="1px">8k</text><text style="text-anchor: middle; visibility: inherit; font-family: &quot;Helvetica Neue&quot;, sans-serif; font-size: 12px; font-weight: 200;" x="186.67733256022134" y="0" dx="0em" dy="0.95em" fill="rgb(50, 49, 63)" stroke="none" stroke-width="1px">10k</text><text style="text-anchor: middle; visibility: inherit; font-family: &quot;Helvetica Neue&quot;, sans-serif; font-size: 12px; font-weight: 200;" x="217.79022132025824" y="0" dx="0em" dy="0.95em" fill="rgb(50, 49, 63)" stroke="none" stroke-width="1px">12k</text><text style="text-anchor: middle; visibility: inherit; font-family: &quot;Helvetica Neue&quot;, sans-serif; font-size: 12px; font-weight: 200;" x="248.90311008029514" y="0" dx="0em" dy="0.95em" fill="rgb(50, 49, 63)" stroke="none" stroke-width="1px">14k</text><text style="text-anchor: middle; visibility: hidden; font-family: &quot;Helvetica Neue&quot;, sans-serif; font-size: 12px; font-weight: 200;" x="280.01599884033203" y="0" dx="0em" dy="0.95em" fill="rgb(50, 49, 63)" stroke="none" stroke-width="1px">16k</text></g><line x1="0" y1="0" x2="280.01599884033203" y2="0" fill="rgb(0, 0, 0)" stroke="rgb(204, 204, 204)" stroke-width="1px"></line></g></g></g></g></svg>