<svg viewBox="0 0 330 200" xmlns="http://www.w3.org/2000/svg"><g><g><g><g><g><line x1="49.98400115966797" y1="178.57999897003174" x2="44.98400115966797" y2="178.57999897003174" style="visibility: inherit;" fill="rgb(0, 0, 0)" stroke="rgb(204, 204, 204)" stroke-width="1px"></line><line x1="49.98400115966797" y1="165.82428475788663" x2="44.98400115966797" y2="165.82428475788663" style="visibility: inherit;" fill="rgb(0, 0, 0)" stroke="rgb(204, 204, 204)" stroke-width="1px"></line><line x1="49.98400115966797" y1="153.0685705457415" x2="44.98400115966797" y2="153.0685705457415" style="visibility: inherit;" fill="rgb(0, 0, 0)" stroke="rgb(204, 204, 204)" stroke-width="1px"></line><line x1="49.98400115966797" y1="140.31285633359636" x2="44.98400115966797" y2="140.31285633359636" style="visibility: inherit;" fill="rgb(0, 0, 0)" stroke="rgb(204, 204, 204)" stroke-width="1px"></line><line x1="49.98400115966797" y1="127.55714212145125" x2="44.98400115966797" y2="127.55714212145125" style="visibility: inherit;" fill="rgb(0, 0, 0)" stroke="rgb(204, 204, 204)" stroke-width="1px"></line><line x1="49.98400115966797" y1="114.80142790930613" x2="44.98400115966797" y2="114.80142790930613" style="visibility: inherit;" fill="rgb(0, 0, 0)" stroke="rgb(204, 204, 204)" stroke-width="1px"></line><line x1="49.98400115966797" y1="102.04571369716102" x2="44.98400115966797" y2="102.04571369716102" style="visibility: inherit;" fill="rgb(0, 0, 0)" stroke="rgb(204, 204, 204)" stroke-width="1px"></line><line x1="49.98400115966797" y1="89.28999948501588" x2="44.98400115966797" y2="89.28999948501588" style="visibility: inherit;" fill="rgb(0, 0, 0)" stroke="rgb(204, 204, 204)" stroke-width="1px"></line><line x1="49.98400115966797" y1="76.53428527287075" x2="44.98400115966797" y2="76.53428527287075" style="visibility: inherit;" fill="rgb(0, 0, 0)" stroke="rgb(204, 204, 204)" stroke-width="1px"></line><line x1="49.98400115966797" y1="63.77857106072561" x2="44.98400115966797" y2="63.77857106072561" style="visibility: inherit;" fill="rgb(0, 0, 0)" stroke="rgb(204, 204, 204)" stroke-width="1px"></line><line x1="49.98400115966797" y1="51.02285684858053" x2="44.98400115966797" y2="51.02285684858053" style="visibility: inherit;" fill="rgb(0, 0, 0)" stroke="rgb(204, 204, 204)" stroke-width="1px"></line><line x1="49.98400115966797" y1="38.26714263643541" x2="44.98400115966797" y2="38.26714263643541" style="visibility: inherit;" fill="rgb(0, 0, 0)" stroke="rgb(204, 204, 204)" stroke-width="1px"></line><line x1="49.98400115966797" y1="25.511428424290273" x2="44.98400115966797" y2="25.511428424290273" style="visibility: inherit;" fill="rgb(0, 0, 0)" stroke="rgb(204, 204, 204)" stroke-width="1px"></line><line x1="49.98400115966797" y1="12.755714212145136" x2="44.98400115966797" y2="12.755714212145136" style="visibility: inherit;" fill="rgb(0, 0, 0)" stroke="rgb(204, 204, 204)" stroke-width="1px"></line><line x1="49.98400115966797" y1="0" x2="44.98400115966797" y2="0" style="visibility: inherit;" fill="rgb(0, 0, 0)" stroke="rgb(204, 204, 204)" stroke-width="1px"></line></g><g transform="translate(39.98400115966797, 0)"><text style="text-anchor: end; visibility: hidden; font-family: &quot;Helvetica Neue&quot;, sans-serif; font-size: 12px; font-weight: 200;" x="0" y="178.57999897003174" dx="0em" dy="0.3em" fill="rgb(50, 49, 63)" stroke="none" stroke-width="1px">0.65</text><text style="text-anchor: end; visibility: inherit; font-family: &quot;Helvetica Neue&quot;, sans-serif; font-size: 12px; font-weight: 200;" x="0" y="165.82428475788663" dx="0em" dy="0.3em" fill="rgb(50, 49, 63)" stroke="none" stroke-width="1px">0.7</text><text style="text-anchor: end; visibility: hidden; font-family: &quot;Helvetica Neue&quot;, sans-serif; font-size: 12px; font-weight: 200;" x="0" y="153.0685705457415" dx="0em" dy="0.3em" fill="rgb(50, 49, 63)" stroke="none" stroke-width="1px">0.75</text><text style="text-anchor: end; visibility: inherit; font-family: &quot;Helvetica Neue&quot;, sans-serif; font-size: 12px; font-weight: 200;" x="0" y="140.31285633359636" dx="0em" dy="0.3em" fill="rgb(50, 49, 63)" stroke="none" stroke-width="1px">0.8</text><text style="text-anchor: end; visibility: hidden; font-family: &quot;Helvetica Neue&quot;, sans-serif; font-size: 12px; font-weight: 200;" x="0" y="127.55714212145125" dx="0em" dy="0.3em" fill="rgb(50, 49, 63)" stroke="none" stroke-width="1px">0.85</text><text style="text-anchor: end; visibility: inherit; font-family: &quot;Helvetica Neue&quot;, sans-serif; font-size: 12px; font-weight: 200;" x="0" y="114.80142790930613" dx="0em" dy="0.3em" fill="rgb(50, 49, 63)" stroke="none" stroke-width="1px">0.9</text><text style="text-anchor: end; visibility: hidden; font-family: &quot;Helvetica Neue&quot;, sans-serif; font-size: 12px; font-weight: 200;" x="0" y="102.04571369716102" dx="0em" dy="0.3em" fill="rgb(50, 49, 63)" stroke="none" stroke-width="1px">0.95</text><text style="text-anchor: end; visibility: inherit; font-family: &quot;Helvetica Neue&quot;, sans-serif; font-size: 12px; font-weight: 200;" x="0" y="89.28999948501588" dx="0em" dy="0.3em" fill="rgb(50, 49, 63)" stroke="none" stroke-width="1px">1</text><text style="text-anchor: end; visibility: hidden; font-family: &quot;Helvetica Neue&quot;, sans-serif; font-size: 12px; font-weight: 200;" x="0" y="76.53428527287075" dx="0em" dy="0.3em" fill="rgb(50, 49, 63)" stroke="none" stroke-width="1px">1.05</text><text style="text-anchor: end; visibility: inherit; font-family: &quot;Helvetica Neue&quot;, sans-serif; font-size: 12px; font-weight: 200;" x="0" y="63.77857106072561" dx="0em" dy="0.3em" fill="rgb(50, 49, 63)" stroke="none" stroke-width="1px">1.1</text><text style="text-anchor: end; visibility: hidden; font-family: &quot;Helvetica Neue&quot;, sans-serif; font-size: 12px; font-weight: 200;" x="0" y="51.02285684858053" dx="0em" dy="0.3em" fill="rgb(50, 49, 63)" stroke="none" stroke-width="1px">1.15</text><text style="text-anchor: end; visibility: inherit; font-family: &quot;Helvetica Neue&quot;, sans-serif; font-size: 12px; font-weight: 200;" x="0" y="38.26714263643541" dx="0em" dy="0.3em" fill="rgb(50, 49, 63)" stroke="none" stroke-width="1px">1.2</text><text style="text-anchor: end; visibility: hidden; font-family: &quot;Helvetica Neue&quot;, sans-serif; font-size: 12px; font-weight: 200;" x="0" y="25.511428424290273" dx="0em" dy="0.3em" fill="rgb(50, 49, 63)" stroke="none" stroke-width="1px">1.25</text><text style="text-anchor: end; visibility: inherit; font-family: &quot;Helvetica Neue&quot;, sans-serif; font-size: 12px; font-weight: 200;" x="0" y="12.755714212145136" dx="0em" dy="0.3em" fill="rgb(50, 49, 63)" stroke="none" stroke-width="1px">1.3</text><text style="text-anchor: end; visibility: hidden; font-family: &quot;Helvetica Neue&quot;, sans-serif; font-size: 12px; font-weight: 200;" x="0" y="0" dx="0em" dy="0.3em" fill="rgb(50, 49, 63)" stroke="none" stroke-width="1px">1.35</text></g><line x1="49.98400115966797" y1="0" x2="49.98400115966797" y2="178.57999897003174" fill="rgb(0, 0, 0)" stroke="rgb(204, 204, 204)" stroke-width="1px"></line></g></g><g transform="translate(49, 0)" clip-path="url(#clip_0)"><clipPath id="clip_0"><rect width="280" height="178"></rect></clipPath><g><g><g><line x1="0" y1="0" x2="0" y2="178.57999897003174" fill="rgb(0, 0, 0)" stroke="rgb(60, 60, 60)" stroke-width="1px" opacity="0.25"></line><line x1="31.112888760036892" y1="0" x2="31.112888760036892" y2="178.57999897003174" fill="rgb(0, 0, 0)" stroke="rgb(60, 60, 60)" stroke-width="1px" opacity="0.25"></line><line x1="62.225777520073784" y1="0" x2="62.225777520073784" y2="178.57999897003174" fill="rgb(0, 0, 0)" stroke="rgb(60, 60, 60)" stroke-width="1px" opacity="0.25"></line><line x1="93.33866628011067" y1="0" x2="93.33866628011067" y2="178.57999897003174" fill="rgb(0, 0, 0)" stroke="rgb(60, 60, 60)" stroke-width="1px" opacity="0.25"></line><line x1="124.45155504014757" y1="0" x2="124.45155504014757" y2="178.57999897003174" fill="rgb(0, 0, 0)" stroke="rgb(60, 60, 60)" stroke-width="1px" opacity="0.25"></line><line x1="155.56444380018448" y1="0" x2="155.56444380018448" y2="178.57999897003174" fill="rgb(0, 0, 0)" stroke="rgb(60, 60, 60)" stroke-width="1px" opacity="0.25"></line><line x1="186.67733256022134" y1="0" x2="186.67733256022134" y2="178.57999897003174" fill="rgb(0, 0, 0)" stroke="rgb(60, 60, 60)" stroke-width="1px" opacity="0.25"></line><line x1="217.79022132025824" y1="0" x2="217.79022132025824" y2="178.57999897003174" fill="rgb(0, 0, 0)" stroke="rgb(60, 60, 60)" stroke-width="1px" opacity="0.25"></line><line x1="248.90311008029514" y1="0" x2="248.90311008029514" y2="178.57999897003174" fill="rgb(0, 0, 0)" stroke="rgb(60, 60, 60)" stroke-width="1px" opacity="0.25"></line><line x1="280.01599884033203" y1="0" x2="280.01599884033203" y2="178.57999897003174" fill="rgb(0, 0, 0)" stroke="rgb(60, 60, 60)" stroke-width="1px" opacity="0.25"></line></g><g><line x1="0" y1="178.57999897003174" x2="280.01599884033203" y2="178.57999897003174" fill="rgb(0, 0, 0)" stroke="rgb(60, 60, 60)" stroke-width="1px" opacity="0.25"></line><line x1="0" y1="165.82428475788663" x2="280.01599884033203" y2="165.82428475788663" fill="rgb(0, 0, 0)" stroke="rgb(60, 60, 60)" stroke-width="1px" opacity="0.25"></line><line x1="0" y1="153.0685705457415" x2="280.01599884033203" y2="153.0685705457415" fill="rgb(0, 0, 0)" stroke="rgb(60, 60, 60)" stroke-width="1px" opacity="0.25"></line><line x1="0" y1="140.31285633359636" x2="280.01599884033203" y2="140.31285633359636" fill="rgb(0, 0, 0)" stroke="rgb(60, 60, 60)" stroke-width="1px" opacity="0.25"></line><line x1="0" y1="127.55714212145125" x2="280.01599884033203" y2="127.55714212145125" fill="rgb(0, 0, 0)" stroke="rgb(60, 60, 60)" stroke-width="1px" opacity="0.25"></line><line x1="0" y1="114.80142790930613" x2="280.01599884033203" y2="114.80142790930613" fill="rgb(0, 0, 0)" stroke="rgb(60, 60, 60)" stroke-width="1px" opacity="0.25"></line><line x1="0" y1="102.04571369716102" x2="280.01599884033203" y2="102.04571369716102" fill="rgb(0, 0, 0)" stroke="rgb(60, 60, 60)" stroke-width="1px" opacity="0.25"></line><line x1="0" y1="89.28999948501588" x2="280.01599884033203" y2="89.28999948501588" fill="rgb(0, 0, 0)" stroke="rgb(60, 60, 60)" stroke-width="1px" opacity="0.25"></line><line x1="0" y1="76.53428527287075" x2="280.01599884033203" y2="76.53428527287075" fill="rgb(0, 0, 0)" stroke="rgb(60, 60, 60)" stroke-width="1px" opacity="0.25"></line><line x1="0" y1="63.77857106072561" x2="280.01599884033203" y2="63.77857106072561" fill="rgb(0, 0, 0)" stroke="rgb(60, 60, 60)" stroke-width="1px" opacity="0.25"></line><line x1="0" y1="51.02285684858053" x2="280.01599884033203" y2="51.02285684858053" fill="rgb(0, 0, 0)" stroke="rgb(60, 60, 60)" stroke-width="1px" opacity="0.25"></line><line x1="0" y1="38.26714263643541" x2="280.01599884033203" y2="38.26714263643541" fill="rgb(0, 0, 0)" stroke="rgb(60, 60, 60)" stroke-width="1px" opacity="0.25"></line><line x1="0" y1="25.511428424290273" x2="280.01599884033203" y2="25.511428424290273" fill="rgb(0, 0, 0)" stroke="rgb(60, 60, 60)" stroke-width="1px" opacity="0.25"></line><line x1="0" y1="12.755714212145136" x2="280.01599884033203" y2="12.755714212145136" fill="rgb(0, 0, 0)" stroke="rgb(60, 60, 60)" stroke-width="1px" opacity="0.25"></line><line x1="0" y1="0" x2="280.01599884033203" y2="0" fill="rgb(0, 0, 0)" stroke="rgb(60, 60, 60)" stroke-width="1px" opacity="0.25"></line></g></g></g><g><g><line x1="0" y1="344.40428372791837" x2="280.01599884033203" y2="344.40428372791837" fill="rgb(0, 0, 0)" stroke="rgb(153, 153, 153)" stroke-width="1.5px"></line></g></g><g><g><line x1="31.112888760036892" y1="0" x2="31.112888760036892" y2="178.57999897003174" fill="rgb(0, 0, 0)" stroke="rgb(153, 153, 153)" stroke-width="1.5px"></line></g></g><g><g><g><g><g><path style="fill: none;" fill="none" stroke="none" stroke-width="1px"></path></g><g><path style="fill: none;" fill="none" stroke="none" stroke-width="1px"></path></g><g><path style="fill: none;" fill="none" stroke="none" stroke-width="1px"></path></g><g><path style="fill: none;" stroke="rgb(255, 112, 67)" stroke-width="2px" d="M34.30195985794067,-6.1385267907458285L34.45752430174086,4.252769358985972L34.61308874554104,0.9522898236801609L34.690870967441136,5.6043537643923L34.846435411241316,-3.580705292395379L35.31312874264187,-2.2921238400882658L35.390910964541966,0.4372263922304853L35.46869318644206,-3.493322433949402L35.54647540834215,4.787705649085609L35.62425763024224,7.501093889322334L36.24651540544298,23.86634284816452L36.47986207114325,25.498122464266743L36.713208736843534,35.12828681042345L36.79099095874363,37.016767205374265L36.868773180643714,43.79479263150003L36.94655540254381,49.02366682095857L37.33546651204427,52.54711280301488L37.957724287245014,47.37311079203249L38.0355065091451,47.94655751029944L38.50219984054566,41.23350326508972L39.124457615746394,50.10390981572564L39.35780428144667,62.96930555796391L39.43558650334676,55.20766887774779L39.980062056647405,59.83284870320561L40.21340872234768,63.22278430998429L40.36897316614787,60.92525560537027L40.99123094134861,61.36875635299744L41.224577607048886,64.9866702888062L41.30235982894897,61.127171546916884L42.0023998260498,60.82908168828931L42.15796426984999,60.27096711025537L42.235746491750085,63.04167083023894L42.31352871365017,58.44861013505526L42.85800426695082,58.629056923682796L43.24691537645128,59.773642844269276L43.402479820251465,57.90371603718809L43.48026204215155,66.24093142541714L43.79139092975193,60.042966075081694L44.18030203925238,67.97357878095926L44.25808426115248,64.0399652428099L44.49143092685276,59.51672060499449L44.958124258253314,62.44797932046909L45.0359064801534,65.12965057840752L45.19147092395359,61.10505366698075L45.42481758965386,50.72540216591959L45.58038203345404,55.41383407501223L45.658164255354144,57.979223952374014L45.813728699154325,59.855802994627396L45.969293142954506,62.7484635566705L46.0470753648546,65.54376399223345L46.59155091815525,67.70707557569916L47.21380869335598,56.33903639116106L47.29159091525608,48.9656421202325L47.36937313715617,48.45797255428141L47.680502024756535,63.156475677419934L48.45832424375746,68.9904710716714L48.536106465657554,67.39225252603437L48.69167090945774,66.40359731363218L49.0027997970581,82.09338136850513L49.236146462758384,79.02998356235602L49.31392868465847,78.88210272944205L49.39171090655857,73.92515467793797L49.62505757225885,69.10150527240762L50.55844423505995,65.16406166965659L51.02513756646051,64.76706299800249L51.25848423216078,74.46154197495103L51.41404867596096,74.87183172504746L51.49183089786106,85.40439322144077L51.64739534166124,78.29667635182633L51.95852422926161,51.65398985205775L52.26965311686198,50.438545786848636L52.42521756066217,67.16338559640097L52.814128670162624,70.2705773148077L53.90307977676392,79.2229094516394L54.29199088626438,99.50219400656762L54.369773108164466,95.68132915103935L54.680901995764835,80.25892174171211L54.758684217664936,78.0178429597636L55.0698131052653,82.98301992126258L55.14759532716539,76.40376515994896L55.30315977096558,81.44215140160382L55.53650643666585,75.60240036961375L55.925417546166315,80.1059477971075L56.00319976806641,86.92736363635522L56.080981989966496,86.96508156510222L56.46989309946696,89.27525873607657L56.54767532136705,80.9162540749471L56.625457543267146,64.39566166824791L56.85880420896742,67.22423264554094L57.55884420606825,72.02489037810278L57.71440864986843,90.67511680467919L58.18110198126899,70.54993032883728L58.64779531266954,75.28242862057093L58.72557753456964,80.07467980930026L59.19227086597019,73.35296156649306L59.42561753167047,73.63222826210178L59.73674641927084,72.83296938352146L60.0478753068712,61.69046644103801L60.203439750671386,74.59505642903905L60.514568638271754,82.86380382518963L60.59235086017185,77.788767243416L60.67013308207194,76.73717452013219L60.82569752587213,79.42295655137873L61.214608635372585,79.93580349411825L61.60351974487305,78.06174586069565L61.681301966773134,79.1610292607605L61.759084188673235,94.27827764655164L62.925817517174615,111.17052250389229L63.47029307047526,111.00551034480456L63.936986401875814,102.06867463442347L64.01476862377591,98.33637460496296L64.17033306757608,102.64981964218549L64.32589751137627,104.88949527902878L64.63702639897664,101.60435212899782L65.33706639607747,98.98291453971126L65.49263083987766,98.4124745089682L65.57041306177774,100.43846648355043L65.80375972747802,100.22877658165133L66.27045305887857,109.82075981147979L66.89271083407932,112.31188899309208L66.9704930559794,107.94693733009908L67.20383972167969,118.9539911018033L67.28162194357978,115.10275949135303L67.98166194068061,123.7796162665297L68.0594441625807,117.98740039682323L68.91504860348172,91.99027785278504L69.14839526918199,91.11842200393117L69.22617749108208,97.86840297125623L69.38174193488227,94.73560875574556L69.53730637868244,101.33627388174136L70.62625748528374,96.51699148263495L71.01516859478421,100.1690881770468L71.17073303858439,90.23770165714703L71.40407970428467,93.84351987818918L71.55964414808484,92.95153558622218L71.94855525758531,91.62824216822327L72.0263374794854,99.72029966536394L72.49303081088595,109.37327079557699L72.64859525468614,121.82648793205718L72.72637747658624,120.7325766183287L72.88194192038642,130.27313448962138L72.9597241422865,110.63149569808142L73.19307080798679,111.53637250992472L73.34863525178697,114.15480910300327L73.73754636128743,103.3875506412903L73.81532858318754,109.13665439155301L74.51536858028837,112.73664502298081L74.67093302408854,119.53198408364472L74.98206191168892,118.57614110731018L75.059844133589,112.97405963266266L75.13762635548909,111.43292227716708L75.44875524308947,95.12592353359496L75.75988413068983,94.2860624909297L75.83766635258992,99.86393889287937L76.0710130182902,94.57350233406002L76.22657746209038,113.09319071954985L76.30435968399048,111.50612634187328L76.38214190589058,100.98997990003289L76.45992412779066,103.25156655519513L76.53770634969075,110.93087683679113L76.61548857159086,113.11718603351484L76.77105301539103,120.45626799152072L76.84883523729113,120.2209950497533L77.23774634679158,111.3062723351302L77.31552856869168,112.53938493148125L77.62665745629204,123.23281079460178L77.86000412199232,121.84755813384632L78.0155685657925,113.21705263941526L78.48226189719307,112.558133234895L78.63782634099324,108.5809762590266L79.0267374504937,104.77061939709722L79.33786633809407,105.64475244737595L79.41564855999417,103.06445423989106L79.57121300379436,111.53934650154748L80.50459966659545,108.19641816559496L81.04907521989611,118.17008863774464L81.12685744179619,125.60440160367136L81.28242188559639,135.2358291641789L81.36020410749647,123.46628732181712L81.43798632939657,129.8782667417268L81.51576855129666,121.22929063355492L81.67133299509685,112.70553228922972L81.90467966079711,114.12487313023244L82.21580854839749,117.15146877218454L82.29359077029757,125.2451735094271L82.60471965789795,132.54392680985563L82.83806632359823,133.43308440155647L83.1491952111986,126.69321893792153L83.38254187689887,127.9592501329205L83.46032409879896,132.7589799149227L83.53810632069906,129.10072545309896L83.61588854259915,121.02049537275369L83.69367076449923,115.37644833035628L83.84923520829943,110.37468195385175L83.92701743019951,107.1060353832482L84.0047996520996,102.80678066127395L84.23814631779989,100.61045262970815L84.31592853969998,105.5957002976468L84.39371076160006,99.96512985153005L84.54927520540026,83.57609392319225L84.70483964920044,95.05650089207985L84.78262187110053,97.91735337031292L85.32709742440117,100.9844761264644L85.56044409010146,99.75766218694179L85.87157297770182,91.25809730674715L86.1049196434021,100.42774662037495L86.26048408720229,109.9990620244501L86.41604853100247,114.3659416277602L86.72717741860284,118.17299032324652L87.03830630620321,104.76979005844322L87.27165297190348,100.44261092469904L87.34943519380359,102.47718311722322L87.42721741570367,103.69999839251527L87.50499963760376,112.89984272747606L87.97169296900431,110.84292442766203L88.43838630040487,111.35411343051142L88.59395074420505,115.6526654825681L88.67173296610514,120.11941982715942L88.98286185370551,119.30263426662009L89.2162085194058,121.68357625882024L89.29399074130588,123.90148567939882L89.52733740700616,131.33089805703614L89.60511962890625,124.1404064361458L89.68290185080635,113.24013249195642L89.83846629460653,92.91845699007973L89.9940307384067,97.67009231916231L90.46072406980726,69.30197115831949L90.69407073550754,65.31630657737475L90.77185295740763,59.31162426747301L91.00519962310791,59.70288290616085L91.082981845008,61.11920429859268L91.16076406690809,61.685570700504755L91.31632851070829,53.29505474865822L91.39411073260837,72.77257201789661L91.86080406400892,74.54984580348973L92.17193295160929,59.96192833372504L92.24971517350939,71.96622047184749L92.40527961730957,84.15179987438052L92.56084406110975,100.59317815478586L92.71640850490995,104.68805500411285L92.79419072681003,103.94905744421644L92.87197294871012,100.70734181251811L92.94975517061022,102.16439669472462L93.0275373925103,107.97869151668365L93.26088405821058,111.49942323760578L93.41644850201078,105.70603167585949L93.57201294581095,94.5474856183306L93.80535961151124,84.31387124144369L93.96092405531141,92.74087529864015L94.0387062772115,105.07721641677078L94.11648849911161,104.18312753933421L94.58318183051216,106.43667834209236L94.66096405241224,107.98368002783253L94.81652849621243,103.14977198575653L95.04987516191271,108.88049021217508L95.36100404951307,104.92194502121036L95.59435071521335,86.21628048549756L95.82769738091362,98.2187998584544L95.90547960281373,91.8457003542871L96.0610440466139,82.13205735360549L96.21660849041409,92.67216446909455L96.37217293421428,90.52725693566752L96.76108404371473,93.43912797153797L96.99443070941501,88.8160145563107L97.1499951532152,89.76212068440866L98.31672848171658,100.20603275878615L98.62785736931694,105.20511636362059L98.78342181311714,111.12829087224965L98.86120403501722,122.77238888901519L99.1723329226176,117.74235668573522L99.32789736641777,111.18487354776616L99.40567958831787,101.32889089936863L99.63902625401815,94.66139574523689L99.79459069781832,98.83990557148776L99.95015514161852,97.80720679156819L100.18350180731879,93.95207486567526L100.33906625111898,105.46242989275886L100.41684847301907,106.09106476255195L100.57241291681926,116.22010789700815L100.88354180441962,115.81702954791712L101.19467069201998,121.00884050628832L101.73914624532064,113.74461147914035L101.81692846722073,108.33376914858704L101.89471068912081,97.57303170022497L101.97249291102092,99.85644244424897L102.1280573548211,95.01966232401539L102.36140402052138,104.69236780302128L102.43918624242147,104.76865538735763L102.51696846432156,108.7279573394936L102.75031513002185,117.74263051629318L102.82809735192193,109.46843035456061L102.90587957382202,91.28096880119298L102.98366179572211,101.00484500590251L103.60591957092285,114.65226180704892L103.68370179282294,109.28936855244737L103.91704845852323,97.13057053313071L104.46152401182385,105.75471099950805L104.69487067752414,105.93357158369113L105.31712845272489,105.13402054617274L105.39491067462497,109.68224268345013L105.55047511842517,107.50680198320524L105.62825734032525,100.31663368122855L105.70603956222534,92.37941490563487L105.93938622792562,103.7669615411045L106.01716844982572,110.87062793295232L106.17273289362589,102.50030986991271L106.32829733742608,100.75997387128068L106.71720844692655,99.89779964844324L106.79499066882663,106.20363614838911L107.106119556427,110.84564512704053L107.1839017783271,112.33635060738997L107.26168400022718,127.9722919519314L107.33946622212729,121.61474282943726L107.57281288782755,122.70491283956781L107.65059510972765,137.64688101680127L107.72837733162774,137.3741716073534L107.96172399732801,141.4625281073288L108.0395062192281,119.6167727659847L108.66176399442884,110.31566071551485L108.97289288202921,113.21176782028519L109.1284573258294,111.20375997262799L109.28402176962959,117.3318706680359L109.36180399152967,120.82451636608653L109.59515065722995,121.16926485461033L109.82849732293023,123.97352063012961L109.90627954483033,120.12788229881292L109.98406176673042,112.16519861706782L110.0618439886305,123.92566560459252L110.29519065433078,128.92622849538333L110.91744842953153,126.67860403991844L111.0730128733317,114.02012836967457L111.22857731713188,119.0512769964439L111.38414176093208,126.22846459166112L111.46192398283216,138.36291574900082L111.69527064853244,142.26073445773648L111.85083509233263,128.05389813061674L112.00639953613282,118.03522277325987L112.39531064563327,120.6371004963895L112.93978619893392,128.4847876949409L113.01756842083401,125.34753024154841L113.25091508653429,122.10880512773635L113.40647953033448,124.0687111244878L113.87317286173503,123.97819064671377L113.95095508363512,122.4876506370046L114.1065195274353,128.1392428469115L114.26208397123548,133.82543834742438L114.57321285883586,129.98087724975554L114.88434174643623,128.24982140321373L115.03990619023641,123.1104875211397L115.42881729973686,123.55820598397037L115.50659952163696,116.43912141423021L115.58438174353707,108.12044633345938L116.1288572968377,120.82571736290818L116.20663951873779,126.59789294780565L116.67333285013835,120.96586401281724L116.98446173773873,125.73607141167317L117.0622439596388,126.454653751406L117.1400261815389,125.45544442178713L117.84006617863973,119.47620277124834L117.9956306224399,133.2588576680675L118.22897728814019,126.68169838699203L118.69567061954073,124.71841829157407L118.77345284144084,131.50262344808104L119.0845817290412,122.97464932432698L119.31792839474149,124.7494583407252L119.39571061664157,133.36126482845225L119.47349283854167,141.90269349038425L119.70683950424194,151.39351230790325L120.56244394514296,142.87419900060462L120.79579061084323,149.26341338396466L121.02913727654351,137.88067675128087L121.1069194984436,124.98958159262685L121.1847017203437,110.55978180149106L121.41804838604398,117.18105297528064L121.49583060794406,128.94846215822764L121.57361282984415,124.80411191452276L122.74034615834555,132.7910764376993L122.97369282404581,124.18516396333015L123.129257267846,126.82615206597637L123.2070394897461,116.82992608600956L123.36260393354627,117.18921246533948L123.44038615544638,125.01736954382648L123.67373282114664,116.80790990643607L123.90707948684692,123.72306599329764L123.98486170874702,114.94333418674796L124.1404261525472,123.57521188668021L124.29599059634738,121.39818294127193L124.45155504014757,105.27387257710733L124.60711948394776,112.78128049384269L124.84046614964804,121.46669865522382L124.99603059344821,118.02452091977113L125.1515950372484,131.2580362796881L125.30715948104859,135.60388815826914L125.46272392484876,15.379959567616424L125.61828836864896,-1.4841296360637273L126.39611058764987,17.327661732276766L126.70723947525025,24.99270199326091L127.01836836285062,31.47546015981567L127.0961505847507,30.56500330761901L127.1739328066508,50.428334015946774L127.32949725045098,53.69293913318717L127.56284391615125,43.028853866230975L127.79619058185153,57.8832575147143L127.95175502565172,74.38918235994636L128.185101691352,74.4159406214585L128.65179502275254,85.45132243710785L128.80735946655275,90.44985843549418L128.9629239103529,93.47944317316997L129.040706132253,98.55561936069888L129.2740527979533,98.79881541576201L129.35183501985338,90.8008835926201L129.42961724175348,98.14072541954901L129.66296390745376,110.91015672306108L130.28522168265448,112.93119768516651L130.67413279215495,120.82578139490764L130.82969723595514,116.16227632841415L131.2963905673557,108.72976900317983L131.60751945495605,115.88186538558416L131.68530167685614,118.00357075722367L131.76308389875624,119.10017754607068L131.84086612065633,131.08187444281526L132.30755945205686,135.76565180506222L132.54090611775715,129.16248077039637L133.0853816710578,123.78157206445042L133.240946114858,118.78998109079731L133.47429278055827,121.57676974096927L133.55207500245837,109.2856452507084L133.78542166815865,103.12303308471982L133.86320389005874,101.15360004762736L134.25211499955918,95.13541994893242L134.32989722145928,75.94816897376212L134.40767944335937,88.2449545162774L134.64102610905965,90.24789004908817L134.87437277475993,97.59455485178324L134.95215499666003,87.69970321054234L135.02993721856012,98.68944580564789L135.1077194404602,107.02412334906909L135.18550166236028,105.75057890053273L135.65219499376084,107.47601763589451L136.1188883251614,120.36903455700752L136.58558165656194,131.61995909623107L136.89671054416232,136.20685158444576L137.0522749879625,126.30306127332675L137.44118609746297,133.3182384355028L137.75231498506335,128.8841954995041L138.29679053836398,122.41997809095827L138.45235498216417,116.70301458999629L138.68570164786445,112.74103476815148L138.84126609166464,115.73358447408171L138.91904831356473,120.46572976050032L139.152394979265,124.84531255521176L139.2301772011651,140.0206304922325L139.38574164496526,136.66159856311884L139.46352386686536,131.6526083385096L139.69687053256564,134.06148689723318L141.0191683048672,133.9489558754607L141.09695052676733,117.00375962794672L141.1747327486674,123.10284267619892L141.2525149705675,128.2089489903883L141.56364385816786,140.64293516846172L141.79699052386815,138.75551493170502L142.1081194114685,145.05167530316805L142.1859016333686,133.84056236578823L142.2636838552687,150.6112841709919L142.57481274286906,137.77180251992385L142.65259496476915,134.82431720935466L142.73037718666924,129.04298212683696L142.88594163046943,122.2790031694386L143.04150607426962,113.88863659238723L143.1970705180698,94.1552864199543L143.35263496186997,94.82325180313791L143.97489273707072,86.811659988496L144.3638038465712,101.04138535965748L144.44158606847128,107.63146171398444L145.1416260655721,117.40787244727701L145.2194082874722,113.00775552620881L146.0750127283732,110.42946097199976L146.4639238378737,106.05554100411571L146.69727050357395,104.44585465467615L146.77505272547404,96.01993684313666L147.00839939117432,97.20432312412619L147.1639638349745,107.392453866753L147.2417460568746,126.11936645005898L147.86400383207533,132.9559259974175L147.94178605397542,121.00878374847217L148.0195682758755,128.8821116628293L148.0973504977756,120.95090619917498L148.3306971634759,123.24742802805984L148.48626160727605,125.67411738681864L148.56404382917617,133.05220165157922L148.64182605107627,124.57166623589995L149.264083826277,129.59671155174107L149.65299493577746,121.4362631970266L149.73077715767755,122.23338359120694L149.96412382337783,136.95926525952598L150.50859937667846,130.83526308665108L150.66416382047865,127.62532146734296L151.4419860394796,132.1163068023478L151.83089714898006,136.5991819845196L151.90867937088012,130.95743191107096L152.0642438146803,126.96379937982434L152.1420260365804,126.7048750002733L152.60871936798097,127.44977854934794L152.68650158988103,120.13470293844838L153.1531949212816,111.55262805178212L153.23097714318172,115.17112473011099L153.93101714028253,134.2123086080013L154.24214602788288,124.91415354014708L154.3977104716831,133.53727062029145L154.70883935928344,134.15205004933233L155.4088793563843,127.04402547153144L155.56444380018448,126.88174114032549L155.79779046588476,134.037406354323L155.95335490968492,135.72867637295718L156.031137131585,137.32988727660347L156.42004824108545,127.29416398568422L156.65339490678573,133.75090750059337L157.0423060162862,140.57340890497142L157.19787046008642,144.61154131935498L157.50899934768677,139.91453877013848L157.66456379148696,142.8420869664099L157.74234601338705,137.67015994218926L157.82012823528711,131.859185287215L157.97569267908733,129.93128545940198L158.13125712288752,138.61192280189218L158.52016823238796,121.66914856464149L158.75351489808824,105.3279993044351L158.90907934188843,106.77881684424368L159.1424260075887,107.83937948022204L159.375772673289,117.10403786453901L159.68690156088934,61.40246446852552L159.92024822658962,-3.1361523591465925L162.0203682178921,-0.7332045338791318L162.09815043979222,18.10436307354277L162.40927932739257,30.491340204515865L162.72040821499294,26.518904947588567L162.95375488069323,36.0621233978311L163.03153710259332,29.828860399467203L163.1093193244934,39.10615860549899L163.18710154639348,41.26166903740361L163.3426659901937,49.29881426171724L163.57601265589395,43.604757201411644L164.1204882091946,52.2270750896199L164.1982704310947,51.96347550556496L164.58718154059514,60.19735043987903L164.74274598439536,58.29922945005822L164.82052820629542,55.149388763983865L164.89831042819554,62.88027291176499L165.59835042529636,73.93549046217166L165.90947931289674,69.26235890871712L165.9872615347968,86.15880458302725L166.06504375669692,80.65440765765257L166.14282597859702,71.74655777062328L166.2983904223972,65.34681297724934L166.68730153189765,63.53737641386128L166.76508375379774,72.00636007125738L166.92064819759793,78.19486116733347L166.99843041949802,79.38732707629894L167.07621264139812,80.29759128907706L167.3095593070984,80.46775683969115L167.46512375089858,92.41005934149251L167.54290597279868,85.49445421162983L167.62068819469874,77.97377698893779L168.3207281917996,82.70292377547375L168.55407485749984,93.89219666639795L169.2541148546007,72.59366517324295L169.72080818600125,85.45885983779608L169.79859040790134,79.33015527013026L170.2652837393019,80.59848647242632L170.34306596120197,87.93417784825623L170.42084818310207,104.71091124393432L170.57641262690225,99.97630859294608L171.04310595830282,87.38831509885985L171.50979928970338,93.67130391929604L171.58758151160345,104.07328322229894L172.2098392868042,102.4507537343308L172.2876215087043,112.10656932702351L172.52096817440457,113.18915093979504L172.75431484010483,104.94522370985415L173.06544372770523,99.17732973544392L173.2210081715054,105.28834680203495L173.53213705910576,110.01804674075466L173.99883039050633,110.37619326282817L174.3099592781067,103.89410480631409L174.38774150000677,94.96822962128549L174.62108816570705,98.08880954156571L174.77665260950724,107.63411059568462L175.00999927520752,115.39494509332559L175.32112816280787,122.51118551564315L175.47669260660808,116.47951924232657L175.63225705040827,97.58897174212348L175.71003927230834,91.02345448831421L175.78782149420843,96.127329595583L176.3322970475091,101.37508621591985L176.48786149130927,106.59867966201705L176.56564371320937,105.20154064393049L177.03233704460993,112.30957398183986L177.11011926651,120.0868933603912L177.1879014884101,120.03581329332832L177.34346593221028,112.86611203851362L177.49903037601047,112.8172883637788L178.4324170388116,112.09457867565627L179.1324570359124,111.39248113067838L179.44358592351279,115.57601910333904L179.83249703301325,114.41113045808929L179.91027925491332,113.84139995128012L180.2991903644138,109.02249681748752L180.37697258631388,99.41613409126353L180.45475480821398,93.5287209165466L180.76588369581435,109.8073559796349L180.84366591771445,102.90767312656473L181.31035924911498,103.98325528539911L181.62148813671536,112.51178677879875L181.69927035861545,103.34296735846512L181.77705258051554,113.63316913149205L181.93261702431573,113.68689733427863L182.01039924621583,111.50882356237932L182.3993103557163,100.7191125885911L182.63265702141658,96.70288774863204L182.78822146521674,102.94044647819231L183.02156813091702,109.31428082572633L183.2549147966173,105.04365009001805L183.48826146231755,111.54504246724814L183.64382590611777,106.17122649522922L184.1105192375183,108.62799397081244L184.1883014594184,104.03481873066693L184.34386590321859,115.7962107346666L184.49943034701877,126.04026428206035L185.19947034411962,131.54737565699506L185.27725256601968,134.5412868250221L185.35503478791978,129.2369641307724L185.4328170098199,121.08563095264363L186.52176811642116,125.9391369755754L186.83289700402156,137.78886959470543L187.1440258916219,135.16585267804942L187.221808113522,137.34884794617415L187.45515477922226,113.7398444561171L187.53293700112238,111.12901721280932L187.76628366682266,99.52832722942493L187.92184811062282,102.97811961320868L188.077412554423,106.02486987381835L188.46632366392348,111.42708619436398L188.69967032962376,112.40197918351504L188.85523477342392,105.89607864809095L188.93301699532404,113.48160144835377L189.0885814391242,114.77099938077248L189.32192810482448,122.31188711269265L189.55527477052476,134.00212471588438L189.71083921432495,133.52560741910744L189.94418588002523,132.70377888899048L190.1775325457255,120.15255788830835L190.25531476762558,129.09117343056073L190.48866143332586,114.88436200419866L190.72200809902614,121.15679629497535L191.3442658742269,127.65337150249366L191.42204809612696,134.57964630294734L191.57761253992717,135.67011189263135L191.96652364942764,129.71667165089815L192.35543475892808,126.61596429285476L192.43321698082818,120.51607823171912L192.51099920272827,125.86744285395707L192.66656364652846,135.53025680002276L192.74434586842855,127.21739086331249L192.89991031222874,136.177164200152L193.0554747560289,131.2979590702597L193.28882142172918,121.84932117493197L193.3666036436293,126.27265465353356L193.67773253122965,125.01069239568156L194.06664364073012,118.689741569439L194.22220808453028,119.88923936352543L194.68890141593084,119.29946995856608L194.76668363783097,126.03849864463618L194.84446585973103,126.76843966903925L194.92224808163112,132.34817990068913L195.00003030353122,123.94166348248643L195.2333769692315,123.84275149224015L195.3889414130317,128.40407772485608L195.62228807873194,140.9219818488784L195.70007030063206,128.70206308278722L195.93341696633235,131.76318160421502L196.0889814101325,126.23591689554446L196.2445458539327,127.87348738793926L196.3223280758328,135.78358712288008L196.40011029773288,137.47217799075634L196.71123918533326,142.5607730802066L197.0223680729336,136.52727090927263L197.10015029483372,139.05090625210644L197.17793251673382,130.5954868855846L197.48906140433417,130.6831550403574L197.5668436262343,137.91620049704562L197.72240807003445,151.97204078983106L197.80019029193454,157.17525102451702L197.95575473573473,144.25711994372898L198.03353695763482,145.81002776959815L198.11131917953492,141.0911450576786L198.2668836233351,135.3512282282522L198.3446658452352,144.65543941447868L198.5002302890354,139.59448579739384L198.73357695473567,117.07608887815095L198.88914139853583,127.57467260522213L198.96692362043595,135.8495532935021L199.43361695183648,131.8750411811031L199.51139917373658,138.81338302546013L199.58918139563664,135.21537229631383L199.90031028323705,128.47357316321492L200.0558747270372,128.07632244745076L200.2114391708374,137.85416365123746L200.52256805843777,130.62710051252606L201.06704361173843,120.31481868002882L201.3003902774387,122.31531230841506L201.45595472123887,136.8234352752683L201.61151916503906,135.72022529536576L201.68930138693915,128.63093842673175L202.00043027453953,134.07230771501034L202.1559947183397,131.50440345276772L202.2337769402398,134.84446104768637L202.3115591621399,121.19902763329087L202.54490582784018,128.2297122559351L202.62268804974025,124.59335048253334L202.85603471544053,121.72751800311696L202.93381693734065,124.77820943637326L203.1671636030409,132.3708825547351L203.4005102687412,119.40489448368498L203.71163915634156,117.28750131989563L204.1783324877421,111.80892545660937L204.2561147096422,111.98579266817747L204.48946137534247,120.73180071360775L204.56724359724257,131.34982645937404L204.72280804104275,131.41830921741678L204.87837248484294,140.83562639937503L204.956154706743,108.46566682934531L205.11171915054322,118.11429149644667L205.1895013724433,118.29496101349332L205.34506581624348,129.93548463355887L205.42284803814357,133.83885648089742L205.5006302600437,141.40730175271383L205.57841248194376,126.11201527075517L205.73397692574397,121.35593643199871L205.88954136954413,120.83381031111699L205.96732359144423,120.77942347704716L206.2784524790446,123.8836927995196L206.35623470094467,128.27929328802514L206.51179914474488,129.62969751537153L206.74514581044514,125.875626421515L206.90071025424535,116.48162478773011L207.1340569199456,117.2532938020457L208.06744358274673,115.90710876005312L208.37857247034708,122.24435657369742L208.61191913604736,127.37454092338837L209.00083024554783,134.38390147310338L209.156394689348,130.24542354538676L209.38974135504827,124.39362095383711L209.85643468644884,129.98007159274601L209.93421690834893,138.14893546960042L210.08978135214912,134.4396734169213L210.32312801784937,128.73021481294896L210.55647468354965,128.69223825890145L210.63425690544977,113.09770226690368L210.71203912734984,110.604920039733L211.41207912445068,119.6004349092095L211.48986134635078,129.12112230910014L211.56764356825087,131.61237123059908L211.64542579015097,135.07056408644442L211.80099023395115,129.75440489711298L211.9565546777513,119.65269316265793L212.1899013434516,124.25412054256418L212.57881245295206,133.30043739540022L212.73437689675225,141.7832344988061L212.81215911865235,131.9522642844011L212.88994134055244,125.17948888506098L212.96772356245253,133.5726718175812L213.58998133765326,124.55676974373131L214.29002133475407,123.41329736104561L214.67893244425457,120.68523747421791L215.3011902194553,118.98052434555962L215.3789724413554,114.77968135777074L215.61231910705567,110.29950819715351L215.92344799465602,121.75197020645555L216.1567946603563,131.49637066391327L216.4679235479567,136.62358915995512L216.70127021365695,139.26893665567638L216.93461687935724,137.51817179585842L217.01239910125733,142.7272420944428L217.0901813231574,137.04992081929433L217.2457457669576,137.98675921698694L217.86800354215833,142.1811647738022L218.02356798595852,140.49073132964605L218.1791324297587,137.45340708499722L218.3346968735589,144.02401575041335L218.72360798305934,139.8508165782372L219.1125190925598,137.73830723546928L219.73477686776056,134.7659612895891L219.81255908966065,124.2491018577457L219.89034131156072,132.05935874852378L220.20147019916112,133.1898741202233L220.4348168648614,134.70433520112354L220.66816353056166,127.66760276283253L221.29042130576238,123.3453545254246L221.4459857495626,117.44366984375048L221.75711463716294,120.05882602302465L221.83489685906306,120.85669473410746L221.91267908096313,121.2213114408387L221.99046130286322,125.21923707963117L222.1460257466634,125.10441820623589L222.3015901904636,120.13224735573496L222.53493685616388,123.55716501748006L222.76828352186416,133.15972285459065L222.84606574376423,121.66532951017138L223.00163018756444,134.75144133491602L223.1571946313646,143.2042678175104L223.70167018466526,133.67887652619012L224.01279907226564,124.0951319842438L224.16836351606582,125.61619190098014L224.32392795986598,126.05213870982664L224.47949240366617,127.56454316575886L224.55727462556627,139.4189654919893L224.71283906936645,132.1934325011452L224.94618573506673,135.760123987678L225.10175017886692,129.72020690753268L225.3350968445672,135.30979770002426L225.49066128836736,121.70193926210072L225.72400795406764,125.07158937249412L225.80179017596777,129.69550175878527L225.87957239786783,133.2076530497306L226.65739461686874,134.21486198913007L226.73517683876887,119.89217911567903L226.89074128256902,120.11583314360297L226.96852350446915,118.40063024916512L227.0463057263692,106.89975936484224L227.1240879482693,115.71513131391949L227.3574346139696,119.46220375794292L227.43521683586968,128.74282154574982L227.59078127966987,127.6489293907598L227.82412794537012,121.62543639530125L227.97969238917034,113.12416221147913L228.13525683297053,124.4538590218351L228.29082127677069,138.7698671762797L228.99086127387153,136.2235363056676L229.06864349577162,151.2669794931625L229.3019901614719,145.30853537255194L229.45755460527207,141.3526015247505L229.61311904907225,139.4507125943697L229.76868349287247,132.7093154087528L229.92424793667263,132.4887682944615L230.00203015857272,135.70896160775393L230.235376824273,131.34077495496112L230.70207015567357,132.82937349918726L230.77985237757366,124.73544856910456L231.090981265174,137.35867505663123L231.3243279308743,148.2355096273848L231.55767459657457,146.44190698226248L231.71323904037476,138.7819265908124L231.79102126227482,146.950221921096L232.10215014987523,137.88076383373803L232.41327903747558,143.51689474431586L232.64662570317586,140.31006434213054L232.72440792507595,143.77812753751442L232.80219014697605,123.28089471589306L232.87997236887614,130.65150473061428L233.11331903457642,133.46357317367926L233.42444792217677,138.11852600861272L233.58001236597696,143.40140863205133L233.89114125357733,135.25187913580675L233.96892347547745,142.69602465284473L234.1244879192776,129.75822994512973L234.2022701411777,130.41981052457848L234.59118125067815,137.17437176521793L234.82452791637843,145.76287320204835L234.90231013827855,146.92963763586553L235.0578745820787,147.36809930423414L235.2134390258789,151.21050013528722L235.3690034696791,160.80099157575842L235.44678569157918,160.29525160531045L235.68013235727946,158.04778650080132L235.75791457917956,153.51783700746017L235.91347902297974,157.1970287475992L236.14682568868002,148.07122330271687L236.2246079105801,152.7897667324686L236.38017235438028,144.91191762863792L236.84686568578084,147.3803474266923L237.08021235148112,143.1392298064065L237.3135590171814,124.14718980523772L237.39134123908147,127.41822041241255L237.70247012668187,109.02929419184956L238.1691634580824,117.41503726458234L239.1803323427836,131.32079620131432L239.49146123038398,132.66128746609036L239.64702567418416,140.7081168011397L240.03593678368463,144.9138024223687L240.26928344938491,143.68552464586165L240.42484789318507,144.78916906181715L240.73597678078548,153.37198348581623L241.12488789028592,144.1408919360152L241.4360167778863,151.07903445193838L241.74714566548664,154.34929087434165L241.98049233118692,154.50738039518728L242.68053232828777,142.49417196328048L243.1472256596883,158.1909557583199L243.9250478786892,158.71701140914243L244.00283010058934,156.0385474372746L244.08061232248943,158.46676742993995L244.3139589881897,151.40283621830076L244.39174121008978,141.22873210303987L244.78065231959025,141.02213203054234L244.93621676339043,140.2707124211322L245.2473456509908,144.87849897625517L245.32512787289087,138.75129313238335L245.402910094791,132.90207557817757L245.4806923166911,126.63117212103894L245.55847453859116,120.06788689863362L245.63625676049128,119.80721298820103L245.71403898239134,129.01458914804866L246.3362967575921,127.3298963123751L246.56964342329238,129.5658204690101L247.03633675469294,136.87277771757425L247.3474656422933,130.40664447581716L248.1252878612942,135.45415333425302L248.20307008319432,140.83945937516063L248.2808523050944,143.6980558372789L248.82532785839504,144.08225711384569L249.2142389678955,141.0315227817971L249.4475856335958,141.05610792417343L249.60315007739598,138.11524764285753L249.68093229929607,139.20715051834077L249.75871452119614,145.61415742763978L249.83649674309626,143.6414498669805L250.1476256306966,141.73637016980192L250.76988340589736,154.78654919593066L250.84766562779745,138.45462003168055L251.0810122934977,132.19045950216366L251.23657673729792,133.21025310829322L251.314358959198,134.22656761240836L251.4699234029982,136.41039909273076L251.85883451249865,133.61007918578852L252.4033100657993,137.84320960201072L252.55887450959946,136.51477175408613L252.79222117529974,130.6321211899819L252.94778561909993,125.7177186182445L253.3366967286004,147.46088160234999L253.57004339430068,151.7373447700324L253.80339006000096,151.20874235557625L254.50343005710178,144.06627702668007L254.58121227900187,138.9061642716902L254.81455894470216,127.84661270808769L255.04790561040244,131.24856831015285L255.20347005420263,129.6021675455366L255.2812522761027,120.55800195539052L255.74794560750325,113.29830105299975L255.98129227320354,123.05576854294586L256.05907449510363,125.10784213215562L256.2146389389038,135.35489629187458L256.4479856046041,135.95988448536778L256.60355004840426,143.16817986468763L256.75911449220445,131.25702441618228L256.99246115790476,128.89860247917363L257.0702433798048,128.2404903064225L257.14802560170494,124.9834034637359L257.6925011550056,127.73928069333576L258.081412264506,135.7466394342255L258.2369767083062,141.49463684414303L258.31475893020627,145.34056548583868L258.3925411521064,143.36247140674203L258.70367003970676,141.5926781200973L258.7814522616069,133.25886124959789L259.1703633711073,129.7422146331885L259.2481455930074,130.97207277521755L259.55927448060777,129.44124210817986L259.7926211463081,112.72945293466046L259.87040336820814,100.73912582170588L260.02596781200833,108.24272641135254L260.57044336530896,113.45611934826798L260.648225587209,110.00235771988997L261.0371366967095,121.23215398745559L261.97052335951065,124.79829159403036L262.3594344690111,127.41277739430896L262.5149989128113,137.40754897354412L262.5927811347114,139.3686539129801L262.82612780041165,140.97167321353234L262.9039100223117,145.60766227747217L263.6039500194126,141.14903786569386L264.0706433508131,148.34408283077255L264.38177223841353,146.7773056120534" fill="none"></path></g></g></g></g><g opacity="0.2"><g><g><g><path style="fill: none;" stroke="rgb(51, 187, 238)" stroke-width="2px" d="M31.42401764763726,-74.25115967159999L31.501799869537354,6.552075246759813" fill="none"></path></g><g><path style="fill: none;" stroke="rgb(204, 51, 17)" stroke-width="2px" d="M31.42401764763726,-47.844426515382395L31.501799869537354,2.862218599160201" fill="none"></path></g><g><path style="fill: none;" stroke="rgb(0, 119, 187)" stroke-width="2px" d="M31.42401764763726,-51.11988935210255L31.501799869537354,3.3818074923699157" fill="none"></path></g><g><path style="fill: none;" stroke="rgb(255, 112, 67)" stroke-width="2px" d="M32.046275422838,-45.01647614946006L32.279622088538275,8.35562805465608L32.35740431043837,-35.36690296415307L32.590750976138644,41.96264374985762L32.66853319803874,-57.90909298739817L33.990830970340305,-16.76105878835918L34.30195985794067,19.19017411880546L34.45752430174086,30.13532859996414L34.61308874554104,-7.331516369360202L34.690870967441136,17.344318229232016L34.846435411241316,-26.85078474225992L35.31312874264187,0.9816018020691217L35.390910964541966,7.385242195450047L35.46869318644206,-13.513605396804167L35.54647540834215,25.92065219643129L35.62425763024224,14.430727692207626L36.24651540544298,65.68332889752581L36.47986207114325,29.66929522568583L36.713208736843534,59.751804276939L36.79099095874363,41.846409114221245L36.868773180643714,61.131535556256395L36.94655540254381,62.399381114876164L37.33546651204427,61.56092247947721L37.957724287245014,34.13608704769737L38.0355065091451,49.41370357964681L38.50219984054566,24.057887238984023L39.124457615746394,72.79964392499956L39.35780428144667,95.887044945202L39.43558650334676,35.348339483882995L39.980062056647405,71.66716214534826L40.21340872234768,71.89655980537053L40.36897316614787,55.046582433109265L40.99123094134861,62.50354218945873L41.224577607048886,74.2438486285841L41.30235982894897,51.25183482310521L42.0023998260498,60.06635551618207L42.15796426984999,58.842911466727415L42.235746491750085,70.13111322417556L42.31352871365017,46.696270394756L42.85800426695082,59.09076920624507L43.24691537645128,62.70231497295411L43.402479820251465,53.11910075545417L43.48026204215155,87.57351621187287L43.79139092975193,44.18411815977248L44.18030203925238,88.26578439894529L44.25808426115248,53.974955050608244L44.49143092685276,47.94301003052604L44.958124258253314,69.94824591279892L45.0359064801534,71.99129316225365L45.19147092395359,50.80724190359497L45.42481758965386,24.16679258440888L45.58038203345404,67.41021307213079L45.658164255354144,64.54333535570753L45.813728699154325,64.65744115186338L45.969293142954506,70.14996865957445L46.0470753648546,72.69615191425372L46.59155091815525,73.24238171296248L47.21380869335598,27.25142016769675L47.29159091525608,30.09919915278047L47.36937313715617,47.158988861843255L47.680502024756535,100.76581282468297L48.45832424375746,83.91802511588739L48.536106465657554,63.30286059040871L48.69167090945774,63.87390657506184L49.0027997970581,122.23912775075542L49.236146462758384,71.19160981739273L49.31392868465847,78.5037172530891L49.39171090655857,61.241718205369565L49.62505757225885,56.75914255920961L50.55844423505995,55.08925045869741L51.02513756646051,63.75125500899131L51.25848423216078,99.2669881824268L51.41404867596096,75.9216478471668L51.49183089786106,112.35425697886583L51.64739534166124,60.11002713752531L51.95852422926161,-16.51715460787679L52.26965311686198,47.328566132462925L52.42521756066217,109.95754866771163L52.814128670162624,78.2210073700761L53.90307977676392,102.12941054193726L54.29199088626438,151.3911818890586L54.369773108164466,85.90481017907123L54.680901995764835,40.79731701822115L54.758684217664936,72.28355241093642L55.0698131052653,95.68751186189216L55.14759532716539,59.56930190947331L55.30315977096558,94.33396530818517L55.53650643666585,60.66011925929159L55.925417546166315,91.62925954218863L56.00319976806641,104.38144900439387L56.080981989966496,87.06159114079306L56.46989309946696,95.18635263618525L56.54767532136705,59.527911187573494L56.625457543267146,22.124110278865118L56.85880420896742,74.46175055541157L57.55884420606825,84.3084238646221L57.71440864986843,138.3958029281966L58.18110198126899,19.055236107733094L58.64779531266954,87.3915612602736L58.72557753456964,92.3367033135579L59.19227086597019,56.153974318883016L59.42561753167047,74.34679322346351L59.73674641927084,70.78789061590847L60.0478753068712,33.17993400101824L60.203439750671386,107.61427422751846L60.514568638271754,104.02120374630107L60.59235086017185,64.80317542030124L60.67013308207194,74.04644438475476L60.82569752587213,86.29511769182822L61.214608635372585,81.24803463941961L61.60351974487305,73.26655924706269L61.681301966773134,81.97378643032134L61.759084188673235,132.95906622087142L62.925817517174615,154.3930280285468L63.47029307047526,110.58329062101781L63.936986401875814,79.20182454273667L64.01476862377591,88.78646812388783L64.17033306757608,113.68671281571939L64.32589751137627,110.62019557401224L64.63702639897664,93.19859438923888L65.33706639607747,92.27539273651894L65.49263083987766,96.95287884311676L65.57041306177774,105.62241036157394L65.80375972747802,99.6922390746569L66.27045305887857,134.3639482180515L66.89271083407932,118.68598821579405L66.9704930559794,96.77825318172899L67.20383972167969,147.11794719381516L67.28162194357978,105.24854053080583L67.98166194068061,145.98125335319168L68.0594441625807,103.16674840280564L68.91504860348172,25.470950062167816L69.14839526918199,88.88758799921251L69.22617749108208,115.13970658515922L69.38174193488227,86.71966910822901L69.53730637868244,118.22552023615765L70.62625748528374,84.18580271054417L71.01516859478421,109.51377687200102L71.17073303858439,64.82607565071312L71.40407970428467,103.06979497046426L71.55964414808484,90.66919855446314L71.94855525758531,88.2423063406744L72.0263374794854,120.42559980929327L72.49303081088595,134.07251009316835L72.64859525468614,153.69076950191226L72.72637747658624,117.93356510740065L72.88194192038642,154.68473986136317L72.9597241422865,60.3740640570949L73.19307080798679,113.85169787545966L73.34863525178697,120.85465220059572L73.73754636128743,75.83716333178276L73.81532858318754,123.84699459240305L74.51536858028837,121.94800895179435L74.67093302408854,136.91934630648217L74.98206191168892,116.13040765540791L75.059844133589,98.63990810144716L75.13762635548909,107.48958505794518L75.44875524308947,53.40089827868982L75.75988413068983,92.1370942002666L75.83766635258992,114.13615644804595L76.0710130182902,81.03676252697433L76.22657746209038,160.47986669523382L76.30435968399048,107.44527478475779L76.38214190589058,74.08211765204977L76.45992412779066,109.03833098601953L76.53770634969075,130.58007289539438L76.61548857159086,118.71133661160852L76.77105301539103,139.23491542143597L76.84883523729113,119.61899773612066L77.23774634679158,88.49600318276721L77.31552856869168,115.69457338976038L77.62665745629204,150.59428124151864L77.86000412199232,118.30308602323001L78.0155685657925,91.13401544903832L78.48226189719307,110.87214372653175L78.63782634099324,98.40454969087942L79.0267374504937,95.02098742653774L79.33786633809407,107.88141317033111L79.41564855999417,96.46219654885327L79.57121300379436,133.22421317817015L80.50459966659545,99.64280438071998L81.04907521989611,143.68990739032694L81.12685744179619,144.6267184097259L81.28242188559639,159.8799445236271L81.36020410749647,93.35133862196616L81.43798632939657,146.28471942113976L81.51576855129666,99.09899233542123L81.67133299509685,90.89563104520897L81.90467966079711,117.75656731059173L82.21580854839749,124.89567612650333L82.29359077029757,145.95468847767407L82.60471965789795,151.21938454298066L82.83806632359823,135.70818870202936L83.1491952111986,109.4477980541012L83.38254187689887,131.19866803044454L83.46032409879896,145.04013903684282L83.53810632069906,119.74028076252512L83.61588854259915,100.34545826325807L83.69367076449923,100.93491870941767L83.84923520829943,97.57656798692386L83.92701743019951,98.74248775241563L84.0047996520996,91.8061965150124L84.23814631779989,94.99066666993662L84.31592853969998,118.35154753340441L84.39371076160006,85.55808305167974L84.54927520540026,41.641158576306566L84.70483964920044,124.4316347377389L84.78262187110053,105.23747056550712L85.32709742440117,108.83238097227553L85.56044409010146,96.61859022069001L85.87157297770182,69.51010033571539L86.1049196434021,123.89030126983533L86.26048408720229,134.48936727544668L86.41604853100247,125.53955883338278L86.72717741860284,127.91415762593218L87.03830630620321,70.47476874031659L87.27165297190348,89.37057605935355L87.34943519380359,107.68308136072812L87.42721741570367,106.82883890118073L87.50499963760376,136.43965794753592L87.97169296900431,105.57984877795984L88.43838630040487,112.66210237374527L88.59395074420505,126.65145169405821L88.67173296610514,131.5485884170568L88.98286185370551,117.21270964730411L89.2162085194058,127.77573744170952L89.29399074130588,129.57649234628855L89.52733740700616,150.34067563540358L89.60511962890625,105.74195990440141L89.68290185080635,85.34939595860365L89.83846629460653,40.92100259203934L89.9940307384067,109.82819125727748L90.46072406980726,-3.2840755130184505L90.69407073550754,55.118111439654726L90.77185295740763,43.94733038555353L91.00519962310791,60.70400376458288L91.082981845008,64.74317255894316L91.16076406690809,63.13474309543281L91.31632851070829,31.826083327385476L91.39411073260837,122.61006282423966L91.86080406400892,79.0973897602209L92.17193295160929,22.635548758063663L92.24971517350939,102.68182918113584L92.40527961730957,115.3312717264134L92.56084406110975,142.66204286514687L92.71640850490995,115.16569363281785L92.79419072681003,102.05817044932131L92.87197294871012,92.41270288301246L92.94975517061022,105.89259050364447L93.0275373925103,122.85583734226566L93.26088405821058,120.50798589718939L93.41644850201078,90.8823714164446L93.57201294581095,65.99590335725125L93.80535961151124,58.1289291169537L93.96092405531141,114.3032095232816L94.0387062772115,136.6424451140517L94.11648849911161,101.89540546503929L94.58318183051216,112.2028812858046L94.66096405241224,111.94202241945949L94.81652849621243,90.78116030514218L95.04987516191271,123.5437870263919L95.36100404951307,94.79314077813697L95.59435071521335,38.35374382650295L95.82769738091362,128.92987256007697L95.90547960281373,75.53873044860647L96.0610440466139,57.2775757967013L96.21660849041409,119.64133534466983L96.37217293421428,85.03904157433645L96.76108404371473,100.88978731243066L96.99443070941501,76.98676706325595L97.1499951532152,92.18294027907922L98.31672848171658,126.92906756831428L98.62785736931694,117.99636587207598L98.78342181311714,126.28402920571682L98.86120403501722,152.56636210629063L99.1723329226176,104.87191841470931L99.32789736641777,94.4061177605785L99.40567958831787,76.1102022011557L99.63902625401815,77.60115013733393L99.79459069781832,109.53153747566706L99.95015514161852,95.16482094543943L100.18350180731879,84.08787609444026L100.33906625111898,134.9141923997807L100.41684847301907,107.69956466070586L100.57241291681926,142.13748161115052L100.88354180441962,114.7856653735525L101.19467069201998,134.29322512930938L101.73914624532064,95.15749165522791L101.81692846722073,94.488944822367L101.89471068912081,70.03932983057258L101.97249291102092,105.69904858287265L102.1280573548211,82.64370180284831L102.36140402052138,129.4421017510826L102.43918624242147,104.96385386827518L102.51696846432156,118.85869792164935L102.75031513002185,140.80864480141386L102.82809735192193,88.29707833930892L102.90587957382202,44.74436788706009L102.98366179572211,125.88551045496354L103.60591957092285,149.57216458293598L103.68370179282294,95.5672324312428L103.91704845852323,66.01962471146275L104.46152401182385,127.82146187255182L104.69487067752414,106.39122553396734L105.31712845272489,103.08819422597446L105.39491067462497,121.31986445107444L105.55047511842517,101.94046083204486L105.62825734032525,81.91901443168682L105.70603956222534,72.07030351897352L105.93938622792562,132.90449190018865L106.01716844982572,129.0469131135167L106.17273289362589,81.08301916768674L106.32829733742608,96.30694332673824L106.71720844692655,97.69173820281998L106.79499066882663,122.33849893650681L107.106119556427,122.72324105462187L107.1839017783271,116.15064683646915L107.26168400022718,167.98026998298218L107.33946622212729,105.34756197864257L107.57281288782755,125.49435140641432L107.65059510972765,175.87917681548754L107.72837733162774,136.6763848977697L107.96172399732801,151.92348299516624L108.0395062192281,63.7196265367093L108.66176399442884,86.51672988175032L108.97289288202921,120.62209169334524L109.1284573258294,106.06583241936991L109.28402176962959,133.0119830879586L109.36180399152967,129.7612147892125L109.59515065722995,122.05137931456986L109.82849732293023,131.1488227746078L109.90627954483033,110.28797496708086L109.98406176673042,91.79092969473783L110.0618439886305,154.0173943022091L110.29519065433078,141.72126308071637L110.91744842953153,120.92756495280352L111.0730128733317,81.63064791805415L111.22857731713188,131.92457188130916L111.38414176093208,144.59286986198563L111.46192398283216,169.411564795717L111.69527064853244,152.23415670535553L111.85083509233263,91.70259806229254L112.00639953613282,92.40024917205142L112.39531064563327,127.2945741011232L112.93978619893392,148.56481294675035L113.01756842083401,117.32017042308149L113.25091508653429,113.82181809275095L113.40647953033448,129.08355956457422L113.87317286173503,123.74657419290767L113.95095508363512,118.67377780077364L114.1065195274353,142.60007843026744L114.26208397123548,148.37481402311397L114.57321285883586,120.14372625607618L114.88434174643623,123.82053615885945L115.03990619023641,109.96037698302146L115.42881729973686,124.70379165932707L115.50659952163696,98.2233854510872L115.58438174353707,86.83529550401381L116.1288572968377,153.3349339827434L116.20663951873779,141.3672674870985L116.67333285013835,106.55508534998219L116.98446173773873,137.94169105500913L117.0622439596388,128.29330393741273L117.1400261815389,122.89874866379444L117.84006617863973,104.17700438428254L117.9956306224399,168.52479671010653L118.22897728814019,109.85259688132201L118.69567061954073,119.69493648159005L118.77345284144084,148.86149714035338L119.0845817290412,101.15396108596687L119.31792839474149,129.29069564602878L119.39571061664157,155.39645651768976L119.47349283854167,163.75780810934916L119.70683950424194,175.67784942461552L120.56244394514296,121.07567135666254L120.79579061084323,165.61161673498196L121.02913727654351,108.75545383704733L121.1069194984436,92.00489326852633L121.1847017203437,73.6379809124282L121.41804838604398,134.12302441284183L121.49583060794406,159.05795398220957L121.57361282984415,114.19988477849495L122.74034615834555,153.227473206966L122.97369282404581,102.16505339723969L123.129257267846,133.58369813644845L123.2070394897461,91.2523941301515L123.36260393354627,118.10852530070679L123.44038615544638,145.04742270906544L123.67373282114664,95.8022106919033L123.90707948684692,141.41700630096122L123.98486170874702,92.47846881696422L124.1404261525472,145.66176016515456L124.29599059634738,115.82777791725576L124.45155504014757,64.016295524316L124.60711948394776,131.9906267291904L124.84046614964804,143.6902419222453L124.99603059344821,109.21695582443141L125.1515950372484,165.1188816312194L125.30715948104859,146.72370132801922L125.46272392484876,-292.23927408604646L125.61828836864896,-44.634592758647415L126.39611058764987,65.4617471195963L126.70723947525025,44.60538508097474L127.01836836285062,48.06301575324221L127.0961505847507,28.235400187585498L127.1739328066508,101.25301294579619L127.32949725045098,62.046145821072784L127.56284391615125,15.742457756118682L127.79619058185153,95.89150030211482L127.95175502565172,116.62320358315564L128.185101691352,74.48440748988283L128.65179502275254,113.68776202946336L128.80735946655275,103.2397067730023L128.9629239103529,101.23129878309489L129.040706132253,111.54412711455407L129.2740527979533,99.42108574882386L129.35183501985338,70.33642458607541L129.42961724175348,116.92131714040984L129.66296390745376,143.58354144628237L130.28522168265448,118.10247331418361L130.67413279215495,141.02580163442315L130.82969723595514,104.22967795542911L131.2963905673557,89.71207232402149L131.60751945495605,134.18206929643367L131.68530167685614,123.43241830956813L131.76308389875624,121.90608602002439L131.84086612065633,161.73966828181648L132.30755945205686,147.75012128355178L132.54090611775715,112.26682250020163L133.0853816710578,110.01333946809754L133.240946114858,106.01790311906564L133.47429278055827,128.70737842237008L133.55207500245837,77.83611319199814L133.78542166815865,87.35464110128287L133.86320389005874,96.11437458972893L134.25211499955918,79.73658902024322L134.32989722145928,26.85338800882471L134.40767944335937,119.7089716161652L134.64102610905965,95.37283897467877L134.87437277475993,116.39260464942649L134.95215499666003,62.38155968722495L135.02993721856012,126.809107463587L135.1077194404602,128.35021998152405L135.18550166236028,102.49193669947348L135.65219499376084,111.89093027192702L136.1188883251614,153.35864013095858L136.58558165656194,160.40791192079226L136.89671054416232,147.94341990838296L137.0522749879625,100.96204620679802L137.44118609746297,151.26810455509198L137.75231498506335,117.53872620774942L138.29679053836398,105.87986308475023L138.45235498216417,102.07491225123596L138.68570164786445,102.60344227026384L138.84126609166464,123.39067784975366L138.91904831356473,132.5739591588454L139.152394979265,136.05143365627058L139.2301772011651,178.8500027225453L139.38574164496526,128.06678021068916L139.46352386686536,118.83601057518553L139.69687053256564,140.22512989980342L141.0191683048672,133.66102062758017L141.09695052676733,73.64576638252838L141.1747327486674,138.7086815078478L141.2525149705675,141.27403952384805L141.56364385816786,172.4580101223221L141.79699052386815,133.92613717288634L142.1081194114685,161.16177959883314L142.1859016333686,105.15447623775944L142.2636838552687,193.52284637007168L142.57481274286906,104.91917865117685L142.65259496476915,127.28253095206199L142.73037718666924,114.25017100822407L142.88594163046943,104.971882634316L143.04150607426962,92.42004737922025L143.1970705180698,43.66319113888932L143.35263496186997,96.53238742772527L143.97489273707072,66.31224890405647L144.3638038465712,137.4512520566863L144.44158606847128,124.49361437861461L145.1416260655721,142.4229589854882L145.2194082874722,101.74909336874242L146.0750127283732,103.83233006639011L146.4639238378737,94.86390948486797L146.69727050357395,100.32711983173303L146.77505272547404,74.46038201574552L147.00839939117432,100.2348346402525L147.1639638349745,133.46101615838535L147.2417460568746,174.0362708891942L147.86400383207533,150.44875985702885L147.94178605397542,90.43940553853733L148.0195682758755,149.02774429778566L148.0973504977756,100.65718118719131L148.3306971634759,129.123581746808L148.48626160727605,131.88333321937222L148.56404382917617,151.9306450194186L148.64182605107627,102.87236031464235L149.264083826277,142.45438977981846L149.65299493577746,100.5559700758889L149.73077715767755,124.27299057845133L149.96412382337783,174.63865643219984L150.50859937667846,115.16566322082527L150.66416382047865,119.41198330263641L151.4419860394796,143.60747568444194L151.83089714898006,148.06959926559261L151.90867937088012,116.52177958790517L152.0642438146803,116.74521649738199L152.1420260365804,126.04236030668896L152.60871936798097,129.35577731014752L152.68650158988103,101.41748100166262L153.1531949212816,89.59351117095284L153.23097714318172,124.42984043017675L153.93101714028253,182.9333449361264L154.24214602788288,101.12278879357353L154.3977104716831,155.60140293567866L154.70883935928344,135.7250977699032L155.4088793563843,108.8565889183683L155.56444380018448,126.46650116118992L155.79779046588476,152.34674190188244L155.95335490968492,140.0561608690353L156.031137131585,141.42693581653822L156.42004824108545,101.61556951532498L156.65339490678573,150.27189891418652L157.0423060162862,158.03027192898497L157.19787046008642,154.94398689210158L157.50899934768677,127.89622975630694L157.66456379148696,150.33285975331083L157.74234601338705,124.43665271651442L157.82012823528711,116.99053483551931L157.97569267908733,124.99833180745324L158.13125712288752,160.82323329744537L158.52016823238796,78.31735256256592L158.75351489808824,63.51559247849778L158.90907934188843,110.49105104752616L159.1424260075887,110.55306110039443L159.375772673289,140.80969401515785L159.68690156088934,-81.12220197892532L160.93141711129084,-0.9074999409514533L161.086981555091,13.654887349528536L161.2425459988912,-30.47820556909511L161.47589266459147,-38.08841135604942L161.55367488649156,50.48198564296413L162.0203682178921,24.654692181351407L162.09815043979222,66.30440260997115L162.40927932739257,62.186132222913244L162.72040821499294,16.354559930753254L162.95375488069323,60.48053644311348L163.03153710259332,13.879692798671414L163.1093193244934,62.844156506341875L163.18710154639348,46.77701423505286L163.3426659901937,69.86360933745199L163.57601265589395,29.035266004401905L164.1204882091946,74.28916249752659L164.1982704310947,51.28899827803657L164.58718154059514,81.26552153515244L164.74274598439536,53.44247147254511L164.82052820629542,47.08983199071892L164.89831042819554,82.66143199452178L165.59835042529636,102.2226841231766L165.90947931289674,57.30512906197774L165.9872615347968,129.39205881729407L166.06504375669692,66.57020342511031L166.14282597859702,48.95387425185456L166.2983904223972,48.971665267513146L166.68730153189765,58.90753695095749L166.76508375379774,93.67610829071572L166.92064819759793,94.02949564448198L166.99843041949802,82.43851208891878L167.07621264139812,82.62670149899672L167.3095593070984,80.90316264357543L167.46512375089858,122.96705399912653L167.54290597279868,67.79936492916978L167.62068819469874,58.73047833016339L168.3207281917996,94.80348085561378L168.55407485749984,122.52240025563113L169.2541148546007,18.096710925632834L169.72080818600125,118.37727607912612L169.79859040790134,63.64852329805994L170.2652837393019,83.8437894420024L170.34306596120197,106.70414973160744L170.42084818310207,147.63785541294695L170.57641262690225,87.86179148952782L171.04310595830282,55.17917872075306L171.50979928970338,109.74770591891755L171.58758151160345,130.68902385880813L172.2098392868042,98.2991569305974L172.2876215087043,136.81308680441165L172.52096817440457,115.95917293119268L172.75431484010483,83.85133161616196L173.06544372770523,84.41891063366107L173.2210081715054,120.9247214314974L173.53213705910576,122.12001918182034L173.99883039050633,111.29258952393438L174.3099592781067,87.30826281260012L174.38774150000677,72.1294244325468L174.62108816570705,106.07349624149978L174.77665260950724,132.05785243878597L175.00999927520752,135.25273870116845L175.32112816280787,140.71964410513186L175.47669260660808,101.04618098426741L175.63225705040827,49.253371554771064L175.71003927230834,74.224141657393L175.78782149420843,109.18671109781175L176.3322970475091,114.80262005941522L176.48786149130927,119.96438673583869L176.56564371320937,101.62665468661997L177.03233704460993,130.4970329496578L177.11011926651,139.98686714394438L177.1879014884101,119.9051137623025L177.34346593221028,94.5208622085785L177.49903037601047,112.69236230636123L178.4324170388116,110.2453677654779L179.1324570359124,109.59601089993423L179.44358592351279,126.28051662057396L179.83249703301325,111.43050791027949L179.91027925491332,112.38361975770071L180.2991903644138,96.69227847870857L180.37697258631388,74.83615259604981L180.45475480821398,78.46448578266241L180.76588369581435,151.45980655031278L180.84366591771445,85.25332447404706L181.31035924911498,106.73536764198963L181.62148813671536,134.33390116938358L181.69927035861545,79.88253617262913L181.77705258051554,139.96290249379226L181.93261702431573,113.82437270012757L182.01039924621583,105.93574512111387L182.3993103557163,73.11127561295505L182.63265702141658,86.42649749976887L182.78822146521674,118.900605647423L183.02156813091702,125.62313098898949L183.2549147966173,94.11630667729833L183.48826146231755,128.1802777669934L183.64382590611777,92.4211422109531L184.1105192375183,114.91417124819445L184.1883014594184,92.28217461086402L184.34386590321859,145.89030628938463L184.49943034701877,152.25191730902156L185.19947034411962,145.6385254028243L185.27725256601968,142.20186379943996L185.35503478791978,115.66469360705166L185.4328170098199,100.228661005759L186.52176811642116,138.35789437944703L186.83289700402156,168.10900394756845L187.1440258916219,128.45428982012888L187.221808113522,142.93451911265709L187.45515477922226,53.33104193173621L187.53293700112238,104.44864430199685L187.76628366682266,69.84542296588982L187.92184811062282,111.80516845285466L188.077412554423,113.82064723103666L188.46632366392348,125.24983898608036L188.69967032962376,114.89645626251726L188.85523477342392,89.24930823894537L188.93301699532404,132.89082170952446L189.0885814391242,118.07020619005743L189.32192810482448,141.60689878262357L189.55527477052476,163.91415616319702L189.71083921432495,132.30633362415148L189.94418588002523,130.60095072829978L190.1775325457255,88.03751198264841L190.25531476762558,151.9625776116264L190.48866143332586,78.53312564991288L190.72200809902614,137.2061922204859L191.3442658742269,144.27628101923978L191.42204809612696,152.30203627279153L191.57761253992717,138.46030676445633L191.96652364942764,114.48349181528903L192.35543475892808,118.68212589273654L192.43321698082818,104.90818471585959L192.51099920272827,139.56008044608907L192.66656364652846,160.2546810961837L192.74434586842855,105.94710400034207L192.89991031222874,159.10270522928937L193.0554747560289,118.81344487669202L193.28882142172918,97.67291317941367L193.3666036436293,137.5907214546529L193.67773253122965,121.7816857643806L194.06664364073012,102.51620546955141L194.22220808453028,122.95841699323414L194.68890141593084,117.790415858332L194.76668363783097,143.2817784499187L194.84446585973103,128.63615353575042L194.92224808163112,146.62516647206374L195.00003030353122,102.43175136615993L195.2333769692315,123.5896635171971L195.3889414130317,140.07522918838225L195.62228807873194,172.95177923383235L195.70007030063206,97.4347264535361L195.93341696633235,139.5957233013915L196.0889814101325,112.09320043456897L196.2445458539327,132.06356989339082L196.3223280758328,156.02330850872505L196.40011029773288,141.7928072932581L196.71123918533326,155.5810573126434L197.0223680729336,121.08923510535271L197.10015029483372,145.50817960263134L197.17793251673382,108.96044587302508L197.48906140433417,130.907473201502L197.5668436262343,156.42353033106275L197.72240807003445,187.9369844571361L197.80019029193454,170.4888031908488L197.95575473573473,111.20325429573401L198.03353695763482,149.78348231337014L198.11131917953492,129.01685085885248L198.2668836233351,120.66439477502243L198.3446658452352,168.462300065357L198.5002302890354,126.64492832165006L198.73357695473567,59.45784195667183L198.88914139853583,154.4375968036711L198.96692362043595,157.02264658486615L199.43361695183648,121.70538207500026L199.51139917373658,156.56664916813884L199.58918139563664,126.0090743808114L199.90031028323705,111.22320456286573L200.0558747270372,127.05986954839591L200.2114391708374,162.87291036128227L200.52256805843777,112.13507774835004L201.06704361173843,93.92858865310535L201.3003902774387,127.43401308709724L201.45595472123887,173.94564315130924L201.61151916503906,132.89742111191407L201.68930138693915,110.49144640342968L202.00043027453953,147.9952419437373L202.1559947183397,124.93385838318608L202.2337769402398,143.39072941333245L202.3115591621399,86.28419978649241L202.54490582784018,146.21925760711378L202.62268804974025,115.28892302674736L202.85603471544053,114.3946583849662L202.93381693734065,132.58407114637788L203.1671636030409,151.79839846968943L203.4005102687412,86.22857625206571L203.71163915634156,111.86968749511068L204.1783324877421,97.79079006264931L204.2561147096422,112.43834613834636L204.48946137534247,143.11037645974432L204.56724359724257,158.51836920387927L204.72280804104275,131.59353734208835L204.87837248484294,164.9318934948483L204.956154706743,25.640040740906244L205.11171915054322,142.80240941689456L205.1895013724433,118.7572435144063L205.34506581624348,159.72031197458068L205.42284803814357,143.82648764899855L205.5006302600437,160.7728254197459L205.57841248194376,86.9756772617578L205.73397692574397,109.18646780187112L205.88954136954413,119.49783635768651L205.96732359144423,120.64026285891111L206.2784524790446,131.82664526520526L206.35623470094467,139.52639916430797L206.51179914474488,133.08500228214044L206.74514581044514,116.27001390734114L206.90071025424535,92.4450156251275L207.1340569199456,119.22777786358631L208.06744358274673,112.462599702428L208.37857247034708,138.4595920826307L208.61191913604736,140.50124038042682L209.00083024554783,152.3188845166802L209.156394689348,119.65622201503717L209.38974135504827,109.42050329076167L209.85643468644884,144.2742282097407L209.93421690834893,159.0507615459647L210.08978135214912,124.94871464156085L210.32312801784937,114.12131539566748L210.55647468354965,128.5950669337764L210.63425690544977,73.19566889236138L210.71203912734984,104.22659113818236L211.41207912445068,142.61742847203368L211.48986134635078,153.4818847308844L211.56764356825087,137.9867768340073L211.64542579015097,143.91910737239743L211.80099023395115,116.151848110176L211.9565546777513,93.80525281720182L212.1899013434516,136.02787956801825L212.57881245295206,156.44741895123346L212.73437689675225,163.48832744310792L212.81215911865235,106.79757537280967L212.88994134055244,107.84986072803055L212.96772356245253,155.04846729260623L213.58998133765326,101.48761105654945L214.29002133475407,120.48747300819495L214.67893244425457,113.70489918728154L215.3011902194553,114.61864271030944L215.3789724413554,104.03090517193372L215.61231910705567,98.83600462959559L215.92344799465602,151.05560075694726L216.1567946603563,156.42955190559337L216.4679235479567,149.7426998313219L216.70127021365695,146.0376371874329L216.93461687935724,133.0384567274985L217.01239910125733,156.05578851679928L217.0901813231574,122.52325179142333L217.2457457669576,140.38386529506874L217.86800354215833,152.91346938358936L218.02356798595852,136.16538739246354L218.1791324297587,129.68174825260394L218.3346968735589,160.83635607224312L218.72360798305934,129.17277314480427L219.1125190925598,132.33298973564686L219.73477686776056,127.16056365582449L219.81255908966065,97.33941526879397L219.89034131156072,152.04361036585271L220.20147019916112,136.08254512467875L220.4348168648614,138.5794153333914L220.66816353056166,109.66258275168934L221.29042130576238,112.28593643753744L221.4459857495626,102.34291793583711L221.75711463716294,126.7502754639432L221.83489685906306,122.8982164539243L221.91267908096313,122.15426308546412L221.99046130286322,135.44880481732432L222.1460257466634,124.81062898925657L222.3015901904636,107.40986001939972L222.53493685616388,132.3205664366784L222.76828352186416,157.72996870826512L222.84606574376423,92.25440846163953L223.00163018756444,168.23512248079297L223.1571946313646,164.83267436905982L223.70167018466526,109.30607816868374L224.01279907226564,99.5730240637478L224.16836351606582,129.50815659896386L224.32392795986598,127.16760403210651L224.47949240366617,131.43436097293062L224.55727462556627,169.7510994868636L224.71283906936645,113.70532495517764L224.94618573506673,144.88628476638638L225.10175017886692,114.26575715442074L225.3350968445672,149.61198908721798L225.49066128836736,86.88325521631064L225.72400795406764,133.69357666563585L225.80179017596777,141.5267935941709L225.87957239786783,142.19426080129523L226.65739461686874,136.7920264995508L226.73517683876887,83.24446030425096L226.89074128256902,120.68810092323764L226.96852350446915,114.01190825236506L227.0463057263692,77.47226411278476L227.1240879482693,138.27118978860472L227.3574346139696,129.0499086947857L227.43521683586968,152.4893133230921L227.59078127966987,124.84996690165731L227.82412794537012,106.21301125745526L227.97969238917034,91.37179161301607L228.13525683297053,153.44336794228326L228.29082127677069,175.4005072582927L228.99086127387153,129.70819148015124L229.06864349577162,189.75892131454628L229.3019901614719,130.06255201768005L229.45755460527207,131.230478974682L229.61311904907225,134.58431351627786L229.76868349287247,115.45997527900711L229.92424793667263,131.92445023333886L230.00203015857272,143.94853097521747L230.235376824273,120.1638133771745L230.70207015567357,136.6382786710684L230.77985237757366,104.02537018928437L231.090981265174,169.65796275959087L231.3243279308743,176.06627139383264L231.55767459657457,141.85258206467182L231.71323904037476,119.18219028671061L231.79102126227482,167.85059324662595L232.10215014987523,114.67457036466196L232.41327903747558,157.93816920945994L232.64662570317586,132.1046869073574L232.72440792507595,152.6519262474112L232.80219014697605,70.83423849259863L232.87997236887614,149.51082359390443L233.11331903457642,140.65886573796303L233.42444792217677,150.02924162539983L233.58001236597696,156.91882004220196L233.89114125357733,114.39952430377882L233.96892347547745,161.7435001928814L234.1244879192776,96.65405060403697L234.2022701411777,132.1126092314242L234.59118125067815,154.45739501083995L234.82452791637843,167.73843381799514L234.90231013827855,149.91505979926256L235.0578745820787,148.4899994450064L235.2134390258789,161.04212361403165L235.3690034696791,185.34036291276482L235.44678569157918,159.00120520405744L235.68013235727946,152.2971551479826L235.75791457917956,141.9269697985197L235.91347902297974,166.61104604710079L236.14682568868002,124.72085278716379L236.2246079105801,164.8631928036127L236.38017235438028,124.75471654090035L236.84686568578084,153.69636530854675L237.08021235148112,132.28740215877116L237.3135590171814,75.55189884139313L237.39134123908147,135.78786812258596L237.70247012668187,61.97720183389653L238.1691634580824,138.87179623004448L239.1803323427836,166.90172387216947L239.49146123038398,136.09122774856002L239.64702567418416,161.29769079366804L240.03593678368463,155.6749695457269L240.26928344938491,140.54270713230807L240.42484789318507,147.61308484499148L240.73597678078548,175.33299263476763L241.12488789028592,120.52112387798346L241.4360167778863,168.83179056919377L241.74714566548664,162.71695766333792L241.98049233118692,154.91188703393462L242.68053232828777,111.75574896491402L243.1472256596883,198.35461251502204L243.9250478786892,160.06303992494807L244.00283010058934,149.18511115338492L244.08061232248943,164.67989972433995L244.3139589881897,133.3282221927898L244.39174121008978,115.19606000740782L244.78065231959025,140.4935005283155L244.93621676339043,138.34804089385148L245.2473456509908,156.668529343278L245.32512787289087,123.07349597315252L245.402910094791,117.93557229891087L245.4806923166911,110.58569316843153L245.55847453859116,103.27428520856446L245.63625676049128,119.14022173695179L245.71403898239134,152.57367619050584L246.3362967575921,123.01924097839185L246.56964342329238,135.2869217808271L247.03633675469294,155.5692270475302L247.3474656422933,113.86162739103666L248.1252878612942,148.36930945245723L248.20307008319432,154.61894351541883L248.2808523050944,151.01240052148898L248.82532785839504,145.0653201666981L249.2142389678955,133.2255513058436L249.4475856335958,141.11901439167735L249.60315007739598,130.5904129728712L249.68093229929607,142.0010230004492L249.75871452119614,162.00788685036568L249.83649674309626,138.59384582387005L250.1476256306966,136.86180681652297L250.76988340589736,188.178288412253L250.84766562779745,96.66580483916869L251.0810122934977,116.16223380564168L251.23657673729792,135.81961824283826L251.314358959198,136.82703070300906L251.4699234029982,141.99820989113567L251.85883451249865,126.44484782247378L252.4033100657993,148.67460023996003L252.55887450959946,133.1156727766562L252.79222117529974,115.580072237701L252.94778561909993,113.14314406636127L253.3366967286004,203.09552283214305L253.57004339430068,162.67961173645108L253.80339006000096,149.8561973876262L254.50343005710178,125.79071627409525L254.58121227900187,125.70288643952752L254.81455894470216,99.54832952577377L255.04790561040244,139.9532162741559L255.20347005420263,125.38949085600245L255.2812522761027,97.41652487597766L255.74794560750325,94.72276742730952L255.98129227320354,148.02238464711394L256.05907449510363,130.35852152945745L256.2146389389038,161.57422704218754L256.4479856046041,137.5078791868681L256.60355004840426,161.61218120892596L256.75911449220445,100.77972631128779L256.99246115790476,122.86406378625824L257.0702433798048,126.5565662772122L257.14802560170494,116.64943392675491L257.6925011550056,134.790795739892L258.081412264506,156.2352192730145L258.2369767083062,156.202146231085L258.31475893020627,155.18121564021294L258.3925411521064,138.30108477730974L258.70367003970676,137.06427465711667L258.7814522616069,111.9349668371812L259.1703633711073,120.7441046075716L259.2481455930074,134.11893399983998L259.55927448060777,125.52427680711192L259.7926211463081,69.96868277181191L259.87040336820814,70.05924968571175L260.02596781200833,127.44233076706757L260.57044336530896,126.79572618685229L260.648225587209,101.16515269923588L261.0371366967095,149.966045504821L261.97052335951065,133.92303514964328L262.3594344690111,134.1025115238474L262.5149989128113,162.98135952681847L262.5927811347114,144.386570110327L262.82612780041165,145.07334893273892L262.9039100223117,157.46985493573817L263.6039500194126,129.74067148822547L264.0706433508131,166.75418009017315L264.38177223841353,142.76836319120252" fill="none"></path></g></g></g></g></g></g><g transform="translate(49, 178)" clip-path="url(#clip_1)"><clipPath id="clip_1"><rect width="280" height="21"></rect></clipPath><g><g><line x1="0" y1="0" x2="0" y2="5" style="visibility: inherit;" fill="rgb(0, 0, 0)" stroke="rgb(204, 204, 204)" stroke-width="1px"></line><line x1="31.112888760036892" y1="0" x2="31.112888760036892" y2="5" style="visibility: inherit;" fill="rgb(0, 0, 0)" stroke="rgb(204, 204, 204)" stroke-width="1px"></line><line x1="62.225777520073784" y1="0" x2="62.225777520073784" y2="5" style="visibility: inherit;" fill="rgb(0, 0, 0)" stroke="rgb(204, 204, 204)" stroke-width="1px"></line><line x1="93.33866628011067" y1="0" x2="93.33866628011067" y2="5" style="visibility: inherit;" fill="rgb(0, 0, 0)" stroke="rgb(204, 204, 204)" stroke-width="1px"></line><line x1="124.45155504014757" y1="0" x2="124.45155504014757" y2="5" style="visibility: inherit;" fill="rgb(0, 0, 0)" stroke="rgb(204, 204, 204)" stroke-width="1px"></line><line x1="155.56444380018448" y1="0" x2="155.56444380018448" y2="5" style="visibility: inherit;" fill="rgb(0, 0, 0)" stroke="rgb(204, 204, 204)" stroke-width="1px"></line><line x1="186.67733256022134" y1="0" x2="186.67733256022134" y2="5" style="visibility: inherit;" fill="rgb(0, 0, 0)" stroke="rgb(204, 204, 204)" stroke-width="1px"></line><line x1="217.79022132025824" y1="0" x2="217.79022132025824" y2="5" style="visibility: inherit;" fill="rgb(0, 0, 0)" stroke="rgb(204, 204, 204)" stroke-width="1px"></line><line x1="248.90311008029514" y1="0" x2="248.90311008029514" y2="5" style="visibility: inherit;" fill="rgb(0, 0, 0)" stroke="rgb(204, 204, 204)" stroke-width="1px"></line><line x1="280.01599884033203" y1="0" x2="280.01599884033203" y2="5" style="visibility: inherit;" fill="rgb(0, 0, 0)" stroke="rgb(204, 204, 204)" stroke-width="1px"></line></g><g transform="translate(0, 8)"><text style="text-anchor: middle; visibility: hidden; font-family: &quot;Helvetica Neue&quot;, sans-serif; font-size: 12px; font-weight: 200;" x="0" y="0" dx="0em" dy="0.95em" fill="rgb(50, 49, 63)" stroke="none" stroke-width="1px">-2k</text><text style="text-anchor: middle; visibility: hidden; font-family: &quot;Helvetica Neue&quot;, sans-serif; font-size: 12px; font-weight: 200;" x="31.112888760036892" y="0" dx="0em" dy="0.95em" fill="rgb(50, 49, 63)" stroke="none" stroke-width="1px">0</text><text style="text-anchor: middle; visibility: hidden; font-family: &quot;Helvetica Neue&quot;, sans-serif; font-size: 12px; font-weight: 200;" x="62.225777520073784" y="0" dx="0em" dy="0.95em" fill="rgb(50, 49, 63)" stroke="none" stroke-width="1px">2k</text><text style="text-anchor: middle; visibility: hidden; font-family: &quot;Helvetica Neue&quot;, sans-serif; font-size: 12px; font-weight: 200;" x="93.33866628011067" y="0" dx="0em" dy="0.95em" fill="rgb(50, 49, 63)" stroke="none" stroke-width="1px">4k</text><text style="text-anchor: middle; visibility: hidden; font-family: &quot;Helvetica Neue&quot;, sans-serif; font-size: 12px; font-weight: 200;" x="124.45155504014757" y="0" dx="0em" dy="0.95em" fill="rgb(50, 49, 63)" stroke="none" stroke-width="1px">6k</text><text style="text-anchor: middle; visibility: hidden; font-family: &quot;Helvetica Neue&quot;, sans-serif; font-size: 12px; font-weight: 200;" x="155.56444380018448" y="0" dx="0em" dy="0.95em" fill="rgb(50, 49, 63)" stroke="none" stroke-width="1px">8k</text><text style="text-anchor: middle; visibility: hidden; font-family: &quot;Helvetica Neue&quot;, sans-serif; font-size: 12px; font-weight: 200;" x="186.67733256022134" y="0" dx="0em" dy="0.95em" fill="rgb(50, 49, 63)" stroke="none" stroke-width="1px">10k</text><text style="text-anchor: middle; visibility: hidden; font-family: &quot;Helvetica Neue&quot;, sans-serif; font-size: 12px; font-weight: 200;" x="217.79022132025824" y="0" dx="0em" dy="0.95em" fill="rgb(50, 49, 63)" stroke="none" stroke-width="1px">12k</text><text style="text-anchor: middle; visibility: hidden; font-family: &quot;Helvetica Neue&quot;, sans-serif; font-size: 12px; font-weight: 200;" x="248.90311008029514" y="0" dx="0em" dy="0.95em" fill="rgb(50, 49, 63)" stroke="none" stroke-width="1px">14k</text><text style="text-anchor: middle; visibility: hidden; font-family: &quot;Helvetica Neue&quot;, sans-serif; font-size: 12px; font-weight: 200;" x="280.01599884033203" y="0" dx="0em" dy="0.95em" fill="rgb(50, 49, 63)" stroke="none" stroke-width="1px">16k</text></g><line x1="0" y1="0" x2="280.01599884033203" y2="0" fill="rgb(0, 0, 0)" stroke="rgb(204, 204, 204)" stroke-width="1px"></line></g></g></g></g></svg>