<svg viewBox="0 0 330 200" xmlns="http://www.w3.org/2000/svg"><g><g><g><g><g><line x1="49.98400115966797" y1="178.57999897003174" x2="44.98400115966797" y2="178.57999897003174" style="visibility: inherit;" fill="rgb(0, 0, 0)" stroke="rgb(204, 204, 204)" stroke-width="1px"></line><line x1="49.98400115966797" y1="153.0685705457415" x2="44.98400115966797" y2="153.0685705457415" style="visibility: inherit;" fill="rgb(0, 0, 0)" stroke="rgb(204, 204, 204)" stroke-width="1px"></line><line x1="49.98400115966797" y1="127.55714212145122" x2="44.98400115966797" y2="127.55714212145122" style="visibility: inherit;" fill="rgb(0, 0, 0)" stroke="rgb(204, 204, 204)" stroke-width="1px"></line><line x1="49.98400115966797" y1="102.04571369716099" x2="44.98400115966797" y2="102.04571369716099" style="visibility: inherit;" fill="rgb(0, 0, 0)" stroke="rgb(204, 204, 204)" stroke-width="1px"></line><line x1="49.98400115966797" y1="76.53428527287075" x2="44.98400115966797" y2="76.53428527287075" style="visibility: inherit;" fill="rgb(0, 0, 0)" stroke="rgb(204, 204, 204)" stroke-width="1px"></line><line x1="49.98400115966797" y1="51.022856848580474" x2="44.98400115966797" y2="51.022856848580474" style="visibility: inherit;" fill="rgb(0, 0, 0)" stroke="rgb(204, 204, 204)" stroke-width="1px"></line><line x1="49.98400115966797" y1="25.511428424290273" x2="44.98400115966797" y2="25.511428424290273" style="visibility: inherit;" fill="rgb(0, 0, 0)" stroke="rgb(204, 204, 204)" stroke-width="1px"></line><line x1="49.98400115966797" y1="0" x2="44.98400115966797" y2="0" style="visibility: inherit;" fill="rgb(0, 0, 0)" stroke="rgb(204, 204, 204)" stroke-width="1px"></line></g><g transform="translate(39.98400115966797, 0)"><text style="text-anchor: end; visibility: hidden; font-family: &quot;Helvetica Neue&quot;, sans-serif; font-size: 12px; font-weight: 200;" x="0" y="178.57999897003174" dx="0em" dy="0.3em" fill="rgb(50, 49, 63)" stroke="none" stroke-width="1px">0.3</text><text style="text-anchor: end; visibility: inherit; font-family: &quot;Helvetica Neue&quot;, sans-serif; font-size: 12px; font-weight: 200;" x="0" y="153.0685705457415" dx="0em" dy="0.3em" fill="rgb(50, 49, 63)" stroke="none" stroke-width="1px">0.35</text><text style="text-anchor: end; visibility: inherit; font-family: &quot;Helvetica Neue&quot;, sans-serif; font-size: 12px; font-weight: 200;" x="0" y="127.55714212145122" dx="0em" dy="0.3em" fill="rgb(50, 49, 63)" stroke="none" stroke-width="1px">0.4</text><text style="text-anchor: end; visibility: inherit; font-family: &quot;Helvetica Neue&quot;, sans-serif; font-size: 12px; font-weight: 200;" x="0" y="102.04571369716099" dx="0em" dy="0.3em" fill="rgb(50, 49, 63)" stroke="none" stroke-width="1px">0.45</text><text style="text-anchor: end; visibility: inherit; font-family: &quot;Helvetica Neue&quot;, sans-serif; font-size: 12px; font-weight: 200;" x="0" y="76.53428527287075" dx="0em" dy="0.3em" fill="rgb(50, 49, 63)" stroke="none" stroke-width="1px">0.5</text><text style="text-anchor: end; visibility: inherit; font-family: &quot;Helvetica Neue&quot;, sans-serif; font-size: 12px; font-weight: 200;" x="0" y="51.022856848580474" dx="0em" dy="0.3em" fill="rgb(50, 49, 63)" stroke="none" stroke-width="1px">0.55</text><text style="text-anchor: end; visibility: inherit; font-family: &quot;Helvetica Neue&quot;, sans-serif; font-size: 12px; font-weight: 200;" x="0" y="25.511428424290273" dx="0em" dy="0.3em" fill="rgb(50, 49, 63)" stroke="none" stroke-width="1px">0.6</text><text style="text-anchor: end; visibility: hidden; font-family: &quot;Helvetica Neue&quot;, sans-serif; font-size: 12px; font-weight: 200;" x="0" y="0" dx="0em" dy="0.3em" fill="rgb(50, 49, 63)" stroke="none" stroke-width="1px">0.65</text></g><line x1="49.98400115966797" y1="0" x2="49.98400115966797" y2="178.57999897003174" fill="rgb(0, 0, 0)" stroke="rgb(204, 204, 204)" stroke-width="1px"></line></g></g><g transform="translate(49, 0)" clip-path="url(#clip_0)"><clipPath id="clip_0"><rect width="280" height="178"></rect></clipPath><g><g><g><line x1="0" y1="0" x2="0" y2="178.57999897003174" fill="rgb(0, 0, 0)" stroke="rgb(60, 60, 60)" stroke-width="1px" opacity="0.25"></line><line x1="31.112888760036892" y1="0" x2="31.112888760036892" y2="178.57999897003174" fill="rgb(0, 0, 0)" stroke="rgb(60, 60, 60)" stroke-width="1px" opacity="0.25"></line><line x1="62.225777520073784" y1="0" x2="62.225777520073784" y2="178.57999897003174" fill="rgb(0, 0, 0)" stroke="rgb(60, 60, 60)" stroke-width="1px" opacity="0.25"></line><line x1="93.33866628011067" y1="0" x2="93.33866628011067" y2="178.57999897003174" fill="rgb(0, 0, 0)" stroke="rgb(60, 60, 60)" stroke-width="1px" opacity="0.25"></line><line x1="124.45155504014757" y1="0" x2="124.45155504014757" y2="178.57999897003174" fill="rgb(0, 0, 0)" stroke="rgb(60, 60, 60)" stroke-width="1px" opacity="0.25"></line><line x1="155.56444380018448" y1="0" x2="155.56444380018448" y2="178.57999897003174" fill="rgb(0, 0, 0)" stroke="rgb(60, 60, 60)" stroke-width="1px" opacity="0.25"></line><line x1="186.67733256022134" y1="0" x2="186.67733256022134" y2="178.57999897003174" fill="rgb(0, 0, 0)" stroke="rgb(60, 60, 60)" stroke-width="1px" opacity="0.25"></line><line x1="217.79022132025824" y1="0" x2="217.79022132025824" y2="178.57999897003174" fill="rgb(0, 0, 0)" stroke="rgb(60, 60, 60)" stroke-width="1px" opacity="0.25"></line><line x1="248.90311008029514" y1="0" x2="248.90311008029514" y2="178.57999897003174" fill="rgb(0, 0, 0)" stroke="rgb(60, 60, 60)" stroke-width="1px" opacity="0.25"></line><line x1="280.01599884033203" y1="0" x2="280.01599884033203" y2="178.57999897003174" fill="rgb(0, 0, 0)" stroke="rgb(60, 60, 60)" stroke-width="1px" opacity="0.25"></line></g><g><line x1="0" y1="178.57999897003174" x2="280.01599884033203" y2="178.57999897003174" fill="rgb(0, 0, 0)" stroke="rgb(60, 60, 60)" stroke-width="1px" opacity="0.25"></line><line x1="0" y1="153.0685705457415" x2="280.01599884033203" y2="153.0685705457415" fill="rgb(0, 0, 0)" stroke="rgb(60, 60, 60)" stroke-width="1px" opacity="0.25"></line><line x1="0" y1="127.55714212145122" x2="280.01599884033203" y2="127.55714212145122" fill="rgb(0, 0, 0)" stroke="rgb(60, 60, 60)" stroke-width="1px" opacity="0.25"></line><line x1="0" y1="102.04571369716099" x2="280.01599884033203" y2="102.04571369716099" fill="rgb(0, 0, 0)" stroke="rgb(60, 60, 60)" stroke-width="1px" opacity="0.25"></line><line x1="0" y1="76.53428527287075" x2="280.01599884033203" y2="76.53428527287075" fill="rgb(0, 0, 0)" stroke="rgb(60, 60, 60)" stroke-width="1px" opacity="0.25"></line><line x1="0" y1="51.022856848580474" x2="280.01599884033203" y2="51.022856848580474" fill="rgb(0, 0, 0)" stroke="rgb(60, 60, 60)" stroke-width="1px" opacity="0.25"></line><line x1="0" y1="25.511428424290273" x2="280.01599884033203" y2="25.511428424290273" fill="rgb(0, 0, 0)" stroke="rgb(60, 60, 60)" stroke-width="1px" opacity="0.25"></line><line x1="0" y1="0" x2="280.01599884033203" y2="0" fill="rgb(0, 0, 0)" stroke="rgb(60, 60, 60)" stroke-width="1px" opacity="0.25"></line></g></g></g><g><g><line x1="0" y1="331.6485695157732" x2="280.01599884033203" y2="331.6485695157732" fill="rgb(0, 0, 0)" stroke="rgb(153, 153, 153)" stroke-width="1.5px"></line></g></g><g><g><line x1="31.112888760036892" y1="0" x2="31.112888760036892" y2="178.57999897003174" fill="rgb(0, 0, 0)" stroke="rgb(153, 153, 153)" stroke-width="1.5px"></line></g></g><g><g><g><g><g><path style="fill: none;" fill="none" stroke="none" stroke-width="1px"></path></g><g><path style="fill: none;" fill="none" stroke="none" stroke-width="1px"></path></g><g><path style="fill: none;" fill="none" stroke="none" stroke-width="1px"></path></g><g><path style="fill: none;" stroke="rgb(255, 112, 67)" stroke-width="2px" d="M35.62425763024224,187.32099877085136L36.24651540544298,175.3983917908004L36.47986207114325,163.72480569823608L36.713208736843534,151.70719456099465L36.79099095874363,155.21491340353555L36.868773180643714,156.12742669170746L36.94655540254381,151.91022653302963L37.33546651204427,150.03283835423912L37.957724287245014,148.6172076755879L38.0355065091451,152.84569657493665L38.50219984054566,158.5344412418489L39.124457615746394,138.85462511309592L39.35780428144667,128.23414632179455L39.43558650334676,135.91815763046318L39.980062056647405,136.6485355352221L40.21340872234768,124.49924164486205L40.36897316614787,130.83052669675612L40.99123094134861,135.587384413109L41.224577607048886,142.54285306912473L41.30235982894897,136.0430285355009L42.0023998260498,134.70874487693612L42.15796426984999,141.53961929303586L42.235746491750085,142.26772273739482L42.31352871365017,141.47952909991636L42.85800426695082,145.4066604809011L43.24691537645128,141.79224057121993L43.402479820251465,139.24971727877153L43.48026204215155,136.67085886526857L43.79139092975193,138.54453887177104L44.18030203925238,128.21324813044L44.25808426115248,129.40772872637638L44.49143092685276,137.4026972088038L44.958124258253314,135.0591920871385L45.0359064801534,136.71432192826674L45.19147092395359,134.65157525560988L45.42481758965386,134.92393249525702L45.58038203345404,124.85305301008178L45.658164255354144,124.7061351864636L45.813728699154325,121.03300551013379L45.969293142954506,117.90859962154241L46.0470753648546,113.51947944260246L46.59155091815525,113.82079071534945L47.21380869335598,119.2256388083326L47.29159091525608,119.52766286126516L47.36937313715617,129.927863588918L47.680502024756535,125.84099776432403L48.45832424375746,131.03793046495048L48.536106465657554,122.34559576478088L48.69167090945774,120.35280548824338L49.0027997970581,109.89579725373824L49.236146462758384,117.3389158388655L49.31392868465847,108.64568625075493L49.39171090655857,116.97611944532399L49.62505757225885,127.47026169189633L50.55844423505995,122.2151659507768L51.02513756646051,124.1176936690496L51.25848423216078,117.94991700454918L51.41404867596096,120.62329380266868L51.49183089786106,106.5064131866565L51.64739534166124,102.04383372934876L51.95852422926161,112.0449825859612L52.26965311686198,119.67323239270158L52.42521756066217,107.28026170840259L52.814128670162624,98.4895958467653L53.90307977676392,84.91973901941275L54.29199088626438,63.60111510374769L54.369773108164466,60.195450306353536L54.680901995764835,76.91168329727394L54.758684217664936,102.67522249556096L55.0698131052653,94.25428781608231L55.14759532716539,95.97182978486678L55.30315977096558,97.87299632027917L55.53650643666585,107.56326285590517L55.925417546166315,107.3340092802581L56.00319976806641,102.45011635479464L56.080981989966496,96.41595015585388L56.46989309946696,95.56585766856293L56.54767532136705,108.64889562764306L56.625457543267146,119.20413857809669L56.85880420896742,112.36636812512302L57.55884420606825,109.36446018302638L57.71440864986843,92.9300977198162L58.18110198126899,111.14898051372634L58.64779531266954,106.29794189949976L58.72557753456964,99.19142432320827L59.19227086597019,111.40586141281308L59.42561753167047,110.16240078946012L59.73674641927084,109.95290295451309L60.0478753068712,118.51422069471914L60.203439750671386,102.97888795080901L60.514568638271754,108.159998391068L60.59235086017185,112.44997254819428L60.67013308207194,113.07144061833007L60.82569752587213,105.39126179057325L61.214608635372585,105.58087253934656L61.60351974487305,106.08186776151281L61.681301966773134,107.02502874809377L61.759084188673235,93.55632733820806L62.925817517174615,74.4228886702172L63.47029307047526,80.95921861616273L63.936986401875814,89.83763587786594L64.01476862377591,95.72014521585452L64.17033306757608,90.92661826547715L64.32589751137627,86.20508624573847L64.63702639897664,84.9619629455438L65.33706639607747,91.78192386712522L65.49263083987766,84.4348496782133L65.57041306177774,84.57090684751766L65.80375972747802,79.45204789265898L66.27045305887857,74.98556547890523L66.89271083407932,69.36500098946543L66.9704930559794,68.18562255057871L67.20383972167969,61.8221070008602L67.28162194357978,63.69082240284868L67.98166194068061,58.42026778180082L68.0594441625807,59.06042175299034L68.91504860348172,79.0749009869772L69.14839526918199,79.75916993282031L69.22617749108208,80.1296042736154L69.38174193488227,72.13858783883934L69.53730637868244,75.20072769323731L70.62625748528374,83.36567867807716L71.01516859478421,78.68240641543339L71.17073303858439,80.48647813589882L71.40407970428467,81.00646620552935L71.55964414808484,75.32733034107719L71.94855525758531,74.74195201292402L72.0263374794854,72.3646562511096L72.49303081088595,69.31425019680825L72.64859525468614,54.35249140386854L72.72637747658624,62.761888249259385L72.88194192038642,54.96143531202175L72.9597241422865,60.21492504247422L73.19307080798679,71.45719191664516L73.34863525178697,72.75756576194574L73.73754636128743,69.68727747580537L73.81532858318754,62.130404424981734L74.51536858028837,69.25003940716853L74.67093302408854,67.14236081411035L74.98206191168892,69.99279856681676L75.059844133589,77.90729784248646L75.13762635548909,84.59738734553082L75.44875524308947,97.21715626357908L75.75988413068983,102.03833518573279L75.83766635258992,102.67673255732846L76.0710130182902,103.42579224417915L76.22657746209038,89.31263936745945L76.30435968399048,89.41119055942713L76.38214190589058,92.11957683694716L76.45992412779066,82.20921070674609L76.53770634969075,73.6269967940985L76.61548857159086,78.1761560430017L76.77105301539103,68.13570867270658L76.84883523729113,63.514447064051154L77.23774634679158,73.45565372485288L77.31552856869168,66.76471616362437L77.62665745629204,58.18949477238462L77.86000412199232,61.58336264247768L78.0155685657925,70.47904959903168L78.48226189719307,73.3813070438943L78.63782634099324,71.13746551538277L79.0267374504937,73.31482480050731L79.33786633809407,68.93152459390978L79.41564855999417,73.10972405886709L79.57121300379436,76.48130476184679L80.50459966659545,83.53349707784636L81.04907521989611,77.19225858211382L81.12685744179619,62.81009251605778L81.28242188559639,54.2277098237433L81.36020410749647,60.56853075230235L81.43798632939657,49.79398295399551L81.51576855129666,58.5091329586444L81.67133299509685,65.90966994603382L81.90467966079711,51.97304127480824L82.21580854839749,57.3615599052453L82.29359077029757,56.207402867346715L82.60471965789795,46.86630186135554L82.83806632359823,53.76796533284238L83.1491952111986,51.10626383448857L83.38254187689887,47.19220063901821L83.46032409879896,48.042979361694535L83.53810632069906,54.910902139731036L83.61588854259915,66.53138885960493L83.69367076449923,58.50379077591056L83.84923520829943,61.71631221772188L83.92701743019951,67.85986715887836L84.0047996520996,64.98984878224395L84.23814631779989,72.86037853558705L84.31592853969998,81.12454002576834L84.39371076160006,87.29054222437102L84.54927520540026,103.96529873807243L84.70483964920044,99.43565061467395L84.78262187110053,87.38073702390776L85.32709742440117,86.92945645004562L85.56044409010146,80.3327153393369L85.87157297770182,89.61909512577215L86.1049196434021,96.07156463695043L86.26048408720229,83.4286258932172L86.41604853100247,76.85134767488692L86.72717741860284,65.40548894415491L87.03830630620321,69.97550577606523L87.27165297190348,72.31146846065481L87.34943519380359,79.76638085286402L87.42721741570367,80.468022677179L87.50499963760376,63.76960339178851L87.97169296900431,73.22881161935346L88.43838630040487,72.39567432921783L88.59395074420505,62.72102387670414L88.67173296610514,65.3520307258753L88.98286185370551,68.97835784636142L89.2162085194058,61.59073828786063L89.29399074130588,65.04571789225001L89.52733740700616,56.362979585314065L89.60511962890625,63.077486189177876L89.68290185080635,66.6164374222964L89.83846629460653,83.50426186002386L89.9940307384067,78.87737578665109L90.46072406980726,107.15877278823105L90.69407073550754,110.32809796486552L90.77185295740763,123.59383149842401L91.00519962310791,123.1315228599114L91.082981845008,127.67274562095533L91.16076406690809,136.08125895852152L91.31632851070829,135.78665543141437L91.39411073260837,122.69370249959196L91.86080406400892,116.78016542403589L92.17193295160929,130.2766871530119L92.24971517350939,107.44379964060067L92.40527961730957,86.28629875402964L92.56084406110975,74.35751133319478L92.71640850490995,74.41477798703028L92.79419072681003,82.99526629662506L92.87197294871012,88.17443048544241L92.94975517061022,91.2451006155098L93.0275373925103,70.1505548630676L93.26088405821058,69.32801019115074L93.41644850201078,76.02386058867816L93.57201294581095,81.64131275396487L93.80535961151124,75.10696857793134L93.96092405531141,71.05557880289392L94.0387062772115,63.626660172090794L94.11648849911161,63.49291458444711L94.58318183051216,63.20459987040029L94.66096405241224,68.34532986129244L94.81652849621243,66.95161998049416L95.04987516191271,76.14796611599853L95.36100404951307,73.82011425064083L95.59435071521335,88.4809528354933L95.82769738091362,75.76162956616321L95.90547960281373,90.9949368795186L96.0610440466139,92.37090196603984L96.21660849041409,84.72722427507215L96.37217293421428,79.1076516295924L96.76108404371473,82.4380934558227L96.99443070941501,83.82260530804939L97.1499951532152,79.16871721231777L98.31672848171658,65.17793502847951L98.62785736931694,59.77580214331023L98.78342181311714,62.20052341798008L98.86120403501722,49.886798712219104L99.1723329226176,60.89653112952186L99.32789736641777,63.430129380673904L99.40567958831787,70.9670436183167L99.63902625401815,58.54191916948294L99.79459069781832,73.07864774056404L99.95015514161852,79.57418030617173L100.18350180731879,78.29116015903647L100.33906625111898,62.09491665401778L100.41684847301907,65.44973748776242L100.57241291681926,55.827085177970204L100.88354180441962,60.69448475196769L101.19467069201998,59.457464063534815L101.73914624532064,64.92019387804575L101.81692846722073,67.62183500502317L101.89471068912081,75.58555336217877L101.97249291102092,69.87917515070241L102.1280573548211,60.13738857577388L102.36140402052138,59.12043262062711L102.43918624242147,62.42053733071799L102.51696846432156,56.99369951117424L102.75031513002185,51.32876805667887L102.82809735192193,66.32027380099287L102.90587957382202,76.60634042594624L102.98366179572211,68.38922116158021L103.60591957092285,56.79635516826194L103.68370179282294,64.07713735222617L103.91704845852323,78.4269165690454L104.46152401182385,71.29706913911151L104.69487067752414,71.12675118706551L105.31712845272489,85.61903327891906L105.39491067462497,79.94911532976847L105.55047511842517,83.0234505854456L105.62825734032525,86.982498891135L105.70603956222534,87.40660231675756L105.93938622792562,83.70547229649674L106.01716844982572,72.7662775940784L106.17273289362589,82.0665171625059L106.32829733742608,73.01159412052093L106.71720844692655,83.75235617658385L106.79499066882663,72.41659822817977L107.106119556427,65.94163772966532L107.1839017783271,72.34777289011129L107.26168400022718,52.12713033348868L107.33946622212729,54.203755315708406L107.57281288782755,55.638891266363174L107.65059510972765,35.52990366074738L107.72837733162774,35.82532622108076L107.96172399732801,30.579363790530493L108.0395062192281,44.80776680327014L108.66176399442884,55.78119708736786L108.97289288202921,57.360115018703866L109.1284573258294,50.64692192171293L109.28402176962959,49.14926894178001L109.36180399152967,46.01313954402366L109.59515065722995,42.66128475194179L109.82849732293023,52.59910119766349L109.90627954483033,57.681638917447074L109.98406176673042,63.97938245239814L110.0618439886305,52.8897108855398L110.29519065433078,50.2469515694134L110.91744842953153,53.32728232738093L111.0730128733317,65.81661931075236L111.22857731713188,54.02831745671767L111.38414176093208,50.493427669454434L111.46192398283216,40.03087032775505L111.69527064853244,41.012870902742065L111.85083509233263,58.753579955150926L112.00639953613282,65.0210303292266L112.39531064563327,66.76611197683194L112.93978619893392,67.46487207389221L113.01756842083401,65.13218723141124L113.25091508653429,68.33079294601515L113.40647953033448,70.29622866113444L113.87317286173503,62.3980513193829L113.95095508363512,64.38420212867753L114.1065195274353,56.34802657009486L114.26208397123548,56.08436238784488L114.57321285883586,57.59325961134529L114.88434174643623,56.3644407852681L115.03990619023641,73.10552791437014L115.42881729973686,71.67214246106518L115.50659952163696,63.599157340407714L115.58438174353707,77.75062621104469L116.1288572968377,72.03921952232153L116.20663951873779,65.52413559153295L116.67333285013835,71.97081365588079L116.98446173773873,53.39881321215057L117.0622439596388,67.39808893530697L117.1400261815389,61.82532625551298L117.84006617863973,70.49994533320772L117.9956306224399,51.55142464955634L118.22897728814019,54.95167162347825L118.69567061954073,63.33382794441435L118.77345284144084,60.01509818435642L119.0845817290412,66.4881217860373L119.31792839474149,59.98723146045039L119.39571061664157,54.45606168892212L119.47349283854167,38.69087632135711L119.70683950424194,23.175168674446837L120.56244394514296,26.711493249385313L120.79579061084323,31.083888144043016L121.02913727654351,38.48239945264166L121.1069194984436,51.67110475672847L121.1847017203437,55.82587234245412L121.41804838604398,57.89202733479965L121.49583060794406,47.89334278294373L121.57361282984415,51.43589553358798L122.74034615834555,43.79281836235555L122.97369282404581,51.710732510427434L123.129257267846,59.64351634867323L123.2070394897461,60.843250989860636L123.36260393354627,65.6171992664237L123.44038615544638,59.857325210872006L123.67373282114664,64.06432984878941L123.90707948684692,62.91841172237335L123.98486170874702,69.99506942135102L124.1404261525472,62.884193757211335L124.29599059634738,66.07668064625487L124.45155504014757,82.21361524851342L124.60711948394776,74.58921268830163L124.84046614964804,62.30462075119405L124.99603059344821,68.78246379519561L125.1515950372484,59.64840798398289L125.30715948104859,55.84623644739614L125.46272392484876,75.14017983116028L125.61828836864896,112.66202255619314L126.39611058764987,118.80401031794545L126.70723947525025,133.02158486456273L127.01836836285062,139.43451756121914L127.0961505847507,136.48636648711368L127.1739328066508,131.38049748355309L127.32949725045098,139.86151376325552L127.56284391615125,147.42263101353865L127.79619058185153,131.9500194255208L127.95175502565172,112.13005317520027L128.185101691352,112.07696956008657L128.65179502275254,103.78609261384564L128.80735946655275,104.35173686008358L128.9629239103529,96.70161565702318L129.040706132253,84.07197250995871L129.2740527979533,88.12860281086306L129.35183501985338,90.02518153230594L129.42961724175348,77.1258846437254L129.66296390745376,65.61691317894963L130.28522168265448,73.45882755612953L130.67413279215495,68.66342413315355L130.82969723595514,78.72165695057471L131.2963905673557,82.1163602867254L131.60751945495605,81.53332957747024L131.68530167685614,67.97500925372977L131.76308389875624,61.13158323689947L131.84086612065633,54.318041158914184L132.30755945205686,46.681398646522865L132.54090611775715,62.648380182685585L133.0853816710578,67.25208959264937L133.240946114858,64.66461829106916L133.47429278055827,57.90681660254107L133.55207500245837,67.73562748831574L133.78542166815865,75.36534555734228L133.86320389005874,76.95718151273917L134.25211499955918,80.44078706666534L134.32989722145928,92.81438102028753L134.40767944335937,86.4281332629844L134.64102610905965,93.09468250432768L134.87437277475993,78.57834127107397L134.95215499666003,78.41752125194385L135.02993721856012,67.39016979515434L135.1077194404602,66.54345199215875L135.18550166236028,76.41239110260891L135.65219499376084,76.68353210648677L136.1188883251614,56.396647726877134L136.58558165656194,55.035751557472395L136.89671054416232,59.15816036180027L137.0522749879625,73.49423768890972L137.44118609746297,62.975823186426055L137.75231498506335,66.19446066655195L138.29679053836398,59.66375497001228L138.45235498216417,72.69245048088153L138.68570164786445,75.84362459840727L138.84126609166464,67.71629952238328L138.91904831356473,68.65463306814472L139.152394979265,69.60045216693925L139.2301772011651,42.05350187737184L139.38574164496526,48.8544650653794L139.46352386686536,60.62738987857436L139.69687053256564,58.48718555039294L141.0191683048672,55.262409329277446L141.09695052676733,82.84208567010569L141.1747327486674,76.30155834652876L141.2525149705675,73.00325411672245L141.56364385816786,58.71897011445918L141.79699052386815,51.632792153192554L142.1081194114685,49.14504205076494L142.1859016333686,63.79176243392695L142.2636838552687,37.963485876252804L142.57481274286906,47.67545402848157L142.65259496476915,53.52663427436599L142.73037718666924,52.994345429195846L142.88594163046943,68.6939483349922L143.04150607426962,66.38741186441196L143.1970705180698,74.71871807035247L143.35263496186997,79.78527905562268L143.97489273707072,94.1454633659332L144.3638038465712,82.90646309801043L144.44158606847128,83.7876648183444L145.1416260655721,77.604202736643L145.2194082874722,70.63420635213657L146.0750127283732,78.28111945294874L146.4639238378737,86.47082139186824L146.69727050357395,86.36763252069642L146.77505272547404,94.77631277040958L147.00839939117432,92.19481030857544L147.1639638349745,84.8223771026406L147.2417460568746,59.95238272690166L147.86400383207533,49.56616355595344L147.94178605397542,54.85584512796994L148.0195682758755,48.100357431345145L148.0973504977756,59.502847817524284L148.3306971634759,58.46949099371005L148.48626160727605,55.38211219362L148.56404382917617,43.85788328906381L148.64182605107627,58.17578904982443L149.264083826277,54.26932758689017L149.65299493577746,63.97563964503867L149.73077715767755,50.454355305832195L149.96412382337783,38.882879788304535L150.50859937667846,50.485669654198944L150.66416382047865,49.901672788235686L151.4419860394796,43.09364511500337L151.83089714898006,43.198247719970965L151.90867937088012,45.401481888241136L152.0642438146803,53.61648377625802L152.1420260365804,56.172384845213855L152.60871936798097,58.30662447560162L152.68650158988103,57.119853435536626L153.1531949212816,69.41874851083041L153.23097714318172,62.410289189321546L153.93101714028253,45.50490121022969L154.24214602788288,60.58536433743555L154.3977104716831,65.26793926252628L154.70883935928344,67.74037872055776L155.4088793563843,66.38366229312413L155.56444380018448,56.97279897712946L155.79779046588476,51.85267100659864L155.95335490968492,52.29733344290224L156.031137131585,44.60957386687127L156.42004824108545,60.38352146696285L156.65339490678573,53.38702805563602L157.0423060162862,50.78867541060353L157.19787046008642,48.715771577829315L157.50899934768677,51.17595205860195L157.66456379148696,44.896184982865265L157.74234601338705,44.04207446992959L157.82012823528711,50.68995918612681L157.97569267908733,50.385482486347115L158.13125712288752,47.09723083357747L158.52016823238796,47.01080159136859L158.75351489808824,62.54097592344253L158.90907934188843,70.07198448056153L159.1424260075887,78.06601263415251L159.375772673289,58.222470832451776L159.68690156088934,71.32953504118244L159.92024822658962,121.66845147711716L160.23137711419,141.7055168854425L160.3091593360901,151.72301248412577L160.38694155799018,160.95477634004456L160.93141711129084,169.19092645229662L161.086981555091,165.82297937688796L161.2425459988912,183.8042737761883L162.0203682178921,178.856570001251L162.09815043979222,163.20811294413681L162.40927932739257,154.97998970200132L162.72040821499294,150.09478549532162L162.95375488069323,134.4815775648382L163.03153710259332,147.59529428082772L163.1093193244934,143.50019197562546L163.18710154639348,150.10739054160308L163.3426659901937,132.1405196835041L163.57601265589395,141.21462203880466L164.1204882091946,135.8206376242577L164.1982704310947,146.67918839857387L164.58718154059514,141.34762580750365L164.74274598439536,145.98611121961463L164.82052820629542,144.95103359331L164.89831042819554,129.06575093023338L165.59835042529636,128.2779863005021L165.90947931289674,123.04068361350639L165.9872615347968,102.19375243882921L166.06504375669692,106.6329203449622L166.14282597859702,107.05701911471614L166.2983904223972,117.45980732249679L166.68730153189765,110.81289972551069L166.76508375379774,109.75898963697075L166.92064819759793,103.85440589277434L166.99843041949802,114.39352541808134L167.07621264139812,110.69493631534216L167.3095593070984,100.42132702766328L167.46512375089858,86.83788472353574L167.54290597279868,80.1721368627024L167.62068819469874,84.85803903468529L168.3207281917996,84.8972494456256L168.55407485749984,75.33619912677483L169.2541148546007,105.48961658688232L169.72080818600125,95.75740832571118L169.79859040790134,105.22997366089098L170.2652837393019,99.31826308663352L170.34306596120197,94.4519820054267L170.42084818310207,75.57369689804594L170.57641262690225,76.05742457598153L171.04310595830282,89.6697295563911L171.50979928970338,88.90586082735945L171.58758151160345,80.51608332142553L172.2098392868042,90.89982573933548L172.2876215087043,80.65104343920578L172.52096817440457,84.14772657936847L172.75431484010483,91.35638354783335L173.06544372770523,93.38990286207715L173.2210081715054,81.73281928644336L173.53213705910576,77.55738195753936L173.99883039050633,70.0975980151737L174.3099592781067,67.738945344164L174.38774150000677,74.963105981778L174.62108816570705,74.65046025914633L174.77665260950724,59.76384436585468L175.00999927520752,69.23078162563087L175.32112816280787,64.37445210724825L175.47669260660808,63.10322421776637L175.63225705040827,91.14292076883225L175.71003927230834,95.76229206476575L175.78782149420843,82.80276184152594L176.3322970475091,73.16900795497078L176.48786149130927,73.9401633511832L176.56564371320937,67.14641563339292L177.03233704460993,60.840865680981L177.11011926651,58.642905098271L177.1879014884101,68.64527724584165L177.34346593221028,75.2104411528819L177.49903037601047,68.48993088454823L178.4324170388116,73.63057957488883L179.1324570359124,81.25940520469479L179.44358592351279,67.23935793159396L179.83249703301325,79.62337595940808L179.91027925491332,76.45244449142903L180.2991903644138,84.5418623396187L180.37697258631388,80.74999083355918L180.45475480821398,94.2464889924226L180.76588369581435,83.60435177926222L180.84366591771445,84.24024450988075L181.31035924911498,75.83796198208591L181.62148813671536,71.08878998107815L181.69927035861545,86.15524723998668L181.77705258051554,73.68338643972909L181.93261702431573,81.64715170312188L182.01039924621583,73.77991529083984L182.3993103557163,89.24970340146058L182.63265702141658,90.94981259585651L182.78822146521674,79.46730606951473L183.02156813091702,79.245317721349L183.2549147966173,71.87533864718928L183.48826146231755,66.27149608001257L183.64382590611777,71.36984793004049L184.1105192375183,77.57407531758969L184.1883014594184,81.93399781231535L184.34386590321859,66.27122457133518L184.49943034701877,56.3877643759683L185.19947034411962,57.51760207114016L185.27725256601968,50.66119509680291L185.35503478791978,48.473177843973986L185.4328170098199,61.892102519341066L186.52176811642116,55.44721455959392L186.83289700402156,49.41381646915207L187.1440258916219,55.472732198385344L187.221808113522,47.14222205357163L187.45515477922226,57.14431868382893L187.53293700112238,64.46025257094134L187.76628366682266,74.64057197086488L187.92184811062282,74.45823631501358L188.077412554423,65.7653095621293L188.46632366392348,66.14413440730455L188.69967032962376,70.36347585530905L188.85523477342392,82.93810290475876L188.93301699532404,73.5911428938913L189.0885814391242,69.06739443995006L189.32192810482448,69.91391748191062L189.55527477052476,55.09793996200854L189.71083921432495,51.101586494805346L189.94418588002523,50.91606663429394L190.1775325457255,57.80155796705206L190.25531476762558,43.17175655565583L190.48866143332586,55.85297695940433L190.72200809902614,47.84045389651166L191.3442658742269,46.16654973367599L191.42204809612696,38.22094710720688L191.57761253992717,47.08855234521724L191.96652364942764,54.20104006106983L192.35543475892808,64.50373503266465L192.43321698082818,73.16879730248404L192.51099920272827,68.15971294216028L192.66656364652846,50.7283225526396L192.74434586842855,57.256979766103L192.89991031222874,51.29149256222536L193.0554747560289,61.10824136706323L193.28882142172918,56.74889504460853L193.3666036436293,49.14863386791228L193.67773253122965,57.74309381965679L194.06664364073012,61.61014482683363L194.22220808453028,62.8683648722551L194.68890141593084,60.989189260594L194.76668363783097,55.07151874690345L194.84446585973103,52.46952536944414L194.92224808163112,62.746371605302926L195.00003030353122,65.3709479501009L195.2333769692315,67.84818921231685L195.3889414130317,62.77302884001068L195.62228807873194,41.69166903612066L195.70007030063206,44.39759074244046L195.93341696633235,41.123810928137374L196.0889814101325,52.565091967168186L196.2445458539327,51.64584389542328L196.3223280758328,39.63661773982858L196.40011029773288,36.510809610961985L196.71123918533326,44.65414665976908L197.0223680729336,43.992270227102864L197.10015029483372,41.08427204584416L197.17793251673382,49.85386432418116L197.48906140433417,51.04555773346296L197.5668436262343,46.86962756813625L197.72240807003445,42.62027176563814L197.80019029193454,34.9762739675773L197.95575473573473,41.68490649169942L198.03353695763482,35.66197682277132L198.11131917953492,34.100371117780554L198.2668836233351,43.21324689386353L198.3446658452352,40.93570145679513L198.5002302890354,46.74329794912188L198.73357695473567,72.94219083512449L198.88914139853583,55.947708784037005L198.96692362043595,49.75384563032466L199.43361695183648,51.384123258890895L199.51139917373658,47.262786615593654L199.58918139563664,56.09064424785598L199.90031028323705,64.49627639325634L200.0558747270372,67.21247229278386L200.2114391708374,51.57786373784248L200.52256805843777,58.30448872090287L201.06704361173843,74.75427447540648L201.3003902774387,66.30249860502279L201.45595472123887,60.42967637361966L201.61151916503906,63.75398915011385L201.68930138693915,63.54334187481636L202.00043027453953,57.098063674050834L202.1559947183397,61.97109476929677L202.2337769402398,46.053277221771936L202.3115591621399,54.80175152168509L202.54490582784018,56.81587901555022L202.62268804974025,55.980239494336445L202.85603471544053,62.219953118700545L202.93381693734065,57.61571883059166L203.1671636030409,59.5819369231759L203.4005102687412,74.74126226637321L203.71163915634156,67.10349545888528L204.1783324877421,70.40081255572123L204.2561147096422,74.97639218632797L204.48946137534247,60.968706873396215L204.56724359724257,47.916766963732215L204.72280804104275,56.61001565960164L204.87837248484294,48.01484397965774L204.956154706743,70.72607845537611L205.11171915054322,58.15817435856067L205.1895013724433,68.92962138078984L205.34506581624348,60.98568537003709L205.42284803814357,59.4731987074305L205.5006302600437,52.2055481812847L205.57841248194376,63.14443979233053L205.73397692574397,64.14654886606951L205.88954136954413,68.0864191865677L205.96732359144423,70.01132608012223L206.2784524790446,61.42477073290914L206.35623470094467,56.36413251541694L206.51179914474488,61.62806380832484L206.74514581044514,64.03908934837446L206.90071025424535,68.69924380549337L207.1340569199456,66.06613822014872L208.06744358274673,66.87035630322812L208.37857247034708,63.7135407229823L208.61191913604736,58.89304037088867L209.00083024554783,55.07868957831275L209.156394689348,53.80606942108149L209.38974135504827,53.209599101601086L209.85643468644884,57.3877358655768L209.93421690834893,49.30927721390131L210.08978135214912,51.305059082119925L210.32312801784937,50.990963516936176L210.55647468354965,46.32887436478174L210.63425690544977,54.51853546687133L210.71203912734984,55.82250643701589L211.41207912445068,44.671070165186705L211.48986134635078,38.348240948313816L211.56764356825087,49.625290581308974L211.64542579015097,58.19260221032752L211.80099023395115,62.56542923146348L211.9565546777513,67.46094313078433L212.1899013434516,71.87911050186023L212.57881245295206,58.227810193826485L212.73437689675225,47.45168163199571L212.81215911865235,49.62410475070854L212.88994134055244,52.232301400634924L212.96772356245253,48.50127917173961L213.58998133765326,54.54613571797694L214.29002133475407,51.648599889641744L214.67893244425457,62.35132438883066L215.3011902194553,67.06729717571017L215.3789724413554,66.62558581315982L215.61231910705567,72.04731732663026L215.92344799465602,58.50054941183019L216.1567946603563,42.336456941232L216.4679235479567,47.05149116688199L216.70127021365695,56.64535971582046L216.93461687935724,57.69009701486084L217.01239910125733,52.4747945853951L217.0901813231574,54.323924213595376L217.2457457669576,54.745272355900894L217.86800354215833,51.01074703672887L218.02356798595852,50.43138649691494L218.1791324297587,48.989744075985726L218.3346968735589,36.99550934304685L218.72360798305934,46.51000848507482L219.1125190925598,45.94467350549564L219.73477686776056,52.847770677061064L219.81255908966065,59.35184858440991L219.89034131156072,48.886748732684794L220.20147019916112,49.91925553792066L220.4348168648614,54.22518834798775L220.66816353056166,54.493307499046324L221.29042130576238,52.9087701248866L221.4459857495626,68.82007625274983L221.75711463716294,69.12191976731712L221.83489685906306,68.25343592242146L221.91267908096313,62.64204363808376L221.99046130286322,59.95594944086817L222.1460257466634,64.09667361053177L222.3015901904636,71.95676621255166L222.53493685616388,71.72974704047394L222.76828352186416,56.683378287780755L222.84606574376423,64.25546337189313L223.00163018756444,54.81639847918815L223.1571946313646,39.107619382713864L223.70167018466526,64.05720266073068L224.01279907226564,75.1336442486503L224.16836351606582,74.14260455180376L224.32392795986598,63.07382155561373L224.47949240366617,57.83423746278102L224.55727462556627,53.8294810083361L224.71283906936645,55.568032809842734L224.94618573506673,54.204438921736894L225.10175017886692,57.03577867469255L225.3350968445672,50.76613455010944L225.49066128836736,68.37655884996948L225.72400795406764,63.71550318873477L225.80179017596777,59.61000579025878L225.87957239786783,56.03807209574701L226.65739461686874,64.2155848704906L226.73517683876887,68.18717686937592L226.89074128256902,72.30661961233284L226.96852350446915,68.80182084662843L227.0463057263692,70.63503445399402L227.1240879482693,69.03273490167433L227.3574346139696,65.07934396245206L227.43521683586968,61.217610445199966L227.59078127966987,57.35958250090552L227.82412794537012,59.900001254246064L227.97969238917034,72.82358212999237L228.13525683297053,53.486423078365064L228.29082127677069,44.1865436071117L228.99086127387153,45.25969444826751L229.06864349577162,38.30143591677282L229.3019901614719,37.548891798161065L229.45755460527207,41.3524136353318L229.61311904907225,47.960584416235406L229.76868349287247,51.845796701474L229.92424793667263,62.82642383340439L230.00203015857272,60.91103206404969L230.235376824273,60.939806902473165L230.70207015567357,48.651468128173946L230.77985237757366,59.92412696862425L231.090981265174,52.22460470320051L231.3243279308743,48.6135401387879L231.55767459657457,41.16488801366273L231.71323904037476,46.132904840320975L231.79102126227482,38.58042731497309L232.10215014987523,52.99764405180112L232.41327903747558,43.95130832054181L232.64662570317586,44.23441940986365L232.72440792507595,44.72346481862502L232.80219014697605,59.280268870854215L232.87997236887614,48.543162865645485L233.11331903457642,46.19413167310344L233.42444792217677,50.020686514744966L233.58001236597696,55.09833456936305L233.89114125357733,61.38940904596163L233.96892347547745,47.76579618259515L234.1244879192776,60.57248872125382L234.2022701411777,55.11223780019921L234.59118125067815,41.64535838366186L234.82452791637843,37.386099681420404L234.90231013827855,45.0054863251049L235.0578745820787,47.08888149099769L235.2134390258789,34.94823821151675L235.3690034696791,28.1195240071915L235.44678569157918,34.25710291067634L235.68013235727946,43.13369141295544L235.75791457917956,49.02711486966598L235.91347902297974,45.56862742147564L236.14682568868002,38.619553357960854L236.2246079105801,37.05863697814539L236.38017235438028,44.60791029462928L236.84686568578084,40.93269568914985L237.08021235148112,48.221836717987884L237.3135590171814,62.234500463543014L237.39134123908147,49.571653494650036L237.70247012668187,70.67438482659516L238.1691634580824,56.26143001449785L239.1803323427836,46.041204224865L239.49146123038398,41.81740900716562L239.64702567418416,35.49912969688921L240.03593678368463,36.99741126625074L240.26928344938491,48.07270522280615L240.42484789318507,46.38478741945991L240.73597678078548,25.2137851113487L241.12488789028592,31.017103267857607L241.4360167778863,42.042234269234484L241.74714566548664,39.2431316254615L241.98049233118692,46.86900888053435L242.68053232828777,46.13793239617877L243.1472256596883,28.565750598982618L243.9250478786892,34.95203090818828L244.00283010058934,47.04271800658381L244.08061232248943,38.695430357600316L244.3139589881897,45.755845849066105L244.39174121008978,54.109134423895796L244.78065231959025,55.446740082909415L244.93621676339043,49.53761971996616L245.2473456509908,39.65776127682608L245.32512787289087,53.08318465061471L245.402910094791,62.46622282554354L245.4806923166911,75.54707667331829L245.55847453859116,82.10040598453293L245.63625676049128,75.88241086404226L245.71403898239134,60.52197723132956L246.3362967575921,58.21996006516565L246.56964342329238,53.95139364201276L247.03633675469294,55.087958314945865L247.3474656422933,58.391326427206494L248.1252878612942,52.731005927257954L248.20307008319432,44.15098322531668L248.2808523050944,52.286454789668724L248.82532785839504,45.09497122582087L249.2142389678955,51.62096673753524L249.4475856335958,59.299023881329546L249.60315007739598,67.51313946173802L249.68093229929607,60.53493036566951L249.75871452119614,56.95148421380675L249.83649674309626,57.79326875917069L250.1476256306966,60.06763744393861L250.76988340589736,47.03754696082265L250.84766562779745,60.2078587614067L251.0810122934977,52.07279618604443L251.23657673729792,54.52174842227022L251.314358959198,58.899516201082164L251.4699234029982,56.95542478657633L251.85883451249865,55.248420012494506L252.4033100657993,56.34170449179476L252.55887450959946,56.214019584286845L252.79222117529974,61.95788967472063L252.94778561909993,72.50910069554546L253.3366967286004,39.75050836739351L253.57004339430068,38.8998070218112L253.80339006000096,33.24748164479624L254.50343005710178,38.82554934419164L254.58121227900187,56.44136191767856L254.81455894470216,65.68554161650539L255.04790561040244,61.726182514668125L255.20347005420263,59.0749476276343L255.2812522761027,58.84546671304204L255.74794560750325,67.27920225915386L255.98129227320354,65.05238370698814L256.05907449510363,61.80170265558475L256.2146389389038,50.47239877694511L256.4479856046041,51.64192869213581L256.60355004840426,54.17384910610045L256.75911449220445,54.970696109133286L256.99246115790476,62.048002593297895L257.0702433798048,62.66548186491296L257.14802560170494,75.1473627937874L257.6925011550056,73.53078051600585L258.081412264506,61.70950705066669L258.2369767083062,62.574218274242014L258.31475893020627,51.28088629970256L258.3925411521064,47.78831846608776L258.70367003970676,46.64072524130145L258.7814522616069,60.80089099555434L259.1703633711073,64.50337808689653L259.2481455930074,64.82875370895721L259.55927448060777,65.35671599513262L259.7926211463081,76.72585624988555L259.87040336820814,77.62917240021085L260.02596781200833,73.97569491775128L260.57044336530896,64.54779617052165L260.648225587209,69.11978239577019L261.0371366967095,62.0386800442876L261.97052335951065,52.01174949359128L262.3594344690111,46.77316915650934L262.5149989128113,33.58034657633314L262.5927811347114,37.347846047173846L262.82612780041165,46.9153165475044L262.9039100223117,45.73999096729685L263.6039500194126,50.21988656664985L264.0706433508131,45.67286937901051L264.38177223841353,57.94696071844349" fill="none"></path></g></g></g></g><g opacity="0.2"><g><g><g><path style="fill: none;" fill="none" stroke="none" stroke-width="1px"></path></g><g><path style="fill: none;" fill="none" stroke="none" stroke-width="1px"></path></g><g><path style="fill: none;" fill="none" stroke="none" stroke-width="1px"></path></g><g><path style="fill: none;" stroke="rgb(255, 112, 67)" stroke-width="2px" d="M32.35740431043837,233.2455419451224L32.590750976138644,150.18723496804623L32.66853319803874,233.61745020236918L33.990830970340305,212.3574449922448L34.30195985794067,163.64367494239997L34.45752430174086,188.692102068072L35.46869318644206,208.37371726035576L35.54647540834215,162.96878720908634L35.62425763024224,180.82015546698779L36.24651540544298,144.933380778094L36.47986207114325,133.884658256208L36.713208736843534,120.9791771454091L36.79099095874363,164.1856318561514L36.868773180643714,158.46144099497093L36.94655540254381,141.1224235760454L37.33546651204427,145.23003455970442L37.957724287245014,144.9954972729363L38.0355065091451,163.66415741940182L38.50219984054566,173.08932051146945L39.124457615746394,88.50204300449336L39.35780428144667,101.06031039601953L39.43558650334676,155.57887069037696L39.980062056647405,138.5173322917409L40.21340872234768,93.41303239011161L40.36897316614787,147.03034849039102L40.99123094134861,147.7587613306434L41.224577607048886,160.33985292260002L41.30235982894897,119.41186469586535L42.0023998260498,131.2946969382115L42.15796426984999,159.01787401718988L42.235746491750085,144.13073226395665L42.31352871365017,139.462765111036L42.85800426695082,155.45507867458474L43.24691537645128,132.5439607693656L43.402479820251465,132.74411729852332L43.48026204215155,130.07228689650452L43.79139092975193,143.33875835921444L44.18030203925238,101.77838315879511L44.25808426115248,132.46406846486096L44.49143092685276,157.85957245583913L44.958124258253314,129.06282162683468L45.0359064801534,140.94933372028288L45.19147092395359,129.3735865730017L45.42481758965386,135.62081808854956L45.58038203345404,99.08450406215664L45.658164255354144,124.3302137836877L45.813728699154325,111.63449939170138L45.969293142954506,109.91412338350827L46.0470753648546,102.28895489620517L46.59155091815525,114.59176155006898L47.21380869335598,133.05512554063097L47.29159091525608,120.30045750103054L47.36937313715617,156.53905332607278L47.680502024756535,115.38385710278149L48.45832424375746,144.3354201800086L48.536106465657554,100.10435502729217L48.69167090945774,115.25381542251432L49.0027997970581,83.13925305712365L49.236146462758384,136.38376374637522L49.31392868465847,86.40215574090875L49.39171090655857,138.29135598088374L49.62505757225885,154.32182138912268L50.55844423505995,108.76885336097756L51.02513756646051,128.98572722564728L51.25848423216078,102.16831052164486L51.41404867596096,127.46371343904974L51.49183089786106,70.38528449335257L51.64739534166124,90.62534750236367L51.95852422926161,137.635110799021L52.26965311686198,139.19177905116211L52.42521756066217,75.57013387214339L52.814128670162624,75.99675330403953L53.90307977676392,50.198290411391554L54.29199088626438,9.052749995744051L54.369773108164466,51.48131155430819L54.680901995764835,119.68382393950174L54.758684217664936,168.59687617371765L55.0698131052653,72.70748342268858L55.14759532716539,100.36653681531446L55.30315977096558,102.73754699273954L55.53650643666585,132.35793061076077L55.925417546166315,106.7474138322501L56.00319976806641,89.95360741028198L56.080981989966496,80.97621529094907L56.46989309946696,93.39070998755872L56.54767532136705,142.12471161546665L56.625457543267146,146.21203780007556L56.85880420896742,94.87043589847538L57.55884420606825,101.68342171196764L57.71440864986843,50.879184513239494L58.18110198126899,157.7659795486777L58.64779531266954,93.88549790082037L58.72557753456964,81.0078437632311L59.19227086597019,142.65917197304742L59.42561753167047,106.98073463931506L59.73674641927084,109.41685689285146L60.0478753068712,140.420225873396L60.203439750671386,63.22833904379348L60.514568638271754,121.41700339657055L60.59235086017185,123.42681033813659L60.67013308207194,114.66160269102633L60.82569752587213,85.73984336652649L61.214608635372585,106.06603313852091L61.60351974487305,107.3637736858457L61.681301966773134,109.43831255361584L61.759084188673235,59.093707004728174L62.925817517174615,25.46579827062496L63.47029307047526,97.68384933194501L63.936986401875814,112.55500958307809L64.01476862377591,110.77183281020965L64.17033306757608,78.66133044582828L64.32589751137627,74.12401321302637L64.63702639897664,81.78115991052613L65.33706639607747,109.2322865098904L65.49263083987766,65.63575237633545L65.57041306177774,84.91903889281956L65.80375972747802,66.35432693698857L66.27045305887857,63.55709268357087L66.89271083407932,54.98355661968884L66.9704930559794,65.16792469449496L67.20383972167969,45.53965974019263L67.28162194357978,68.47233974815018L67.98166194068061,44.93440026388831L68.0594441625807,60.698395793151334L68.91504860348172,130.2863265002745L69.14839526918199,81.51002179068938L69.22617749108208,81.07744160824778L69.38174193488227,51.69182336693899L69.53730637868244,83.03588269434816L70.62625748528374,104.25749276384171L71.01516859478421,66.69922934482534L71.17073303858439,85.10259047402923L71.40407970428467,82.33696948689725L71.55964414808484,60.796018289329425L71.94855525758531,73.24413344373502L72.0263374794854,66.28182474668057L72.49303081088595,61.50911869131838L72.64859525468614,16.06955698349978L72.72637747658624,84.27917056896051L72.88194192038642,35.00226925553119L72.9597241422865,73.65712830295584L73.19307080798679,100.22299221034228L73.34863525178697,76.08485684654046L73.73754636128743,61.83127292870614L73.81532858318754,42.79449081806993L74.51536858028837,87.46718372102015L74.67093302408854,61.7494038446839L74.98206191168892,77.28626740737174L75.059844133589,98.15827641617511L75.13762635548909,101.71544554015317L75.44875524308947,129.5075970183004L75.75988413068983,114.37437662711535L75.83766635258992,104.31021195297716L76.0710130182902,105.342425393096L76.22657746209038,53.20104891065715L76.30435968399048,89.66335535310941L76.38214190589058,99.04957588867984L76.45992412779066,56.85136996790423L76.53770634969075,51.6675241848685L76.61548857159086,89.81617561581814L76.77105301539103,42.44502661134632L76.84883523729113,51.68993782339912L77.23774634679158,98.89240671103232L77.31552856869168,49.64448802653067L77.62665745629204,36.247914059568416L77.86000412199232,70.26731637413921L78.0155685657925,93.24061159818581L78.48226189719307,80.80736790815128L78.63782634099324,65.3961058748141L79.0267374504937,78.886075070986L79.33786633809407,57.71589168094327L79.41564855999417,83.80056183575083L79.57121300379436,85.1082318986526L80.50459966659545,101.5780745696745L81.04907521989611,60.96681203965227L81.12685744179619,26.010172937786393L81.28242188559639,32.26780535479625L81.36020410749647,76.7929088577613L81.43798632939657,22.22494428145953L81.51576855129666,80.80875165381362L81.67133299509685,84.84556351874905L81.90467966079711,16.313126632063813L82.21580854839749,71.14926415892592L82.29359077029757,53.254239485677545L82.60471965789795,22.9650505328585L82.83806632359823,71.42738183105953L83.1491952111986,44.29571800773982L83.38254187689887,37.17721331680039L83.46032409879896,50.21988292612255L83.53810632069906,72.48398568922659L83.61588854259915,96.26494740618608L83.69367076449923,37.96342414894889L83.84923520829943,69.9362514229258L83.92701743019951,83.57949706169512L84.0047996520996,57.64627862993028L84.23814631779989,92.99885146318022L84.31592853969998,102.2702059027803L84.39371076160006,103.06760834819782L84.54927520540026,146.6313127357639L84.70483964920044,87.84555452668995L84.78262187110053,56.535602248958L85.32709742440117,85.77475633400701L85.56044409010146,63.4535094368473L85.87157297770182,113.38033023768298L86.1049196434021,112.58162007658458L86.26048408720229,51.07890006850481L86.41604853100247,60.0219418422199L86.72717741860284,36.11875432708601L87.03830630620321,81.66889403992131L87.27165297190348,78.28854024079669L87.34943519380359,98.84140579947758L87.42721741570367,82.26332684686757L87.50499963760376,21.04304301386759L87.97169296900431,97.43226612333646L88.43838630040487,70.26391023097038L88.59395074420505,37.966313288243896L88.67173296610514,72.0840375748221L88.98286185370551,78.25710944646646L89.2162085194058,42.68789678408106L89.29399074130588,73.88603937109684L89.52733740700616,34.14629331240681L89.60511962890625,80.25802088020318L89.68290185080635,75.67161869137902L89.83846629460653,126.71545677363966L89.9940307384067,67.03847512204243L90.46072406980726,179.52291671754054L90.69407073550754,118.43751007162777L90.77185295740763,157.53711409852556L91.00519962310791,121.94860502684887L91.082981845008,139.29245795259442L91.16076406690809,157.59628063008773L91.31632851070829,135.0328478300263L91.39411073260837,89.19251688400362L91.86080406400892,101.6490865723461L92.17193295160929,164.8104918616728L92.24971517350939,49.020859706708706L92.40527961730957,32.15020217949382L92.56084406110975,43.83509796814053L92.71640850490995,74.56130725431768L92.79419072681003,104.95032357277684L92.87197294871012,101.42645558067262L92.94975517061022,99.10208219386722L93.0275373925103,16.175542777637105L93.26088405821058,67.22334962492928L93.41644850201078,93.15665929267188L93.57201294581095,96.01479356122873L93.80535961151124,58.3874188890769L93.96092405531141,60.6892113713925L94.0387062772115,44.618145953060804L94.11648849911161,63.150697226739666L94.58318183051216,62.46688357360418L94.66096405241224,81.49901264937584L94.81652849621243,63.385508221440986L95.04987516191271,99.67883042712887L95.36100404951307,67.86379577664734L95.59435071521335,125.9939170437101L95.82769738091362,43.216457215101514L95.90547960281373,129.97268762080878L96.0610440466139,95.89160978528808L96.21660849041409,65.16920199818327L96.37217293421428,64.72874510966375L96.76108404371473,90.95975777276074L96.99443070941501,87.36518189791069L97.1499951532152,67.26072596380868L98.31672848171658,29.379456771612325L98.62785736931694,45.95326283926502L98.78342181311714,68.40470347665479L98.86120403501722,18.379439055841374L99.1723329226176,89.06734112254907L99.32789736641777,69.91289501262526L99.40567958831787,90.25188823349536L99.63902625401815,26.749518889370876L99.79459069781832,110.274049315679L99.95015514161852,96.19442199539571L100.18350180731879,75.0082723092491L100.33906625111898,20.65328291697702L100.41684847301907,74.03378083104491L100.57241291681926,31.205423218039186L100.88354180441962,73.14879184700031L101.19467069201998,56.2922758963346L101.73914624532064,78.89778368812885L101.81692846722073,74.5345751128409L101.89471068912081,95.9624697279968L101.97249291102092,55.278157591800195L102.1280573548211,35.21089552462212L102.36140402052138,56.51832823717319L102.43918624242147,70.86457749639527L102.51696846432156,43.10794722558015L102.75031513002185,36.83380109660001L102.82809735192193,104.67932230690668L102.90587957382202,102.92549310687684L102.98366179572211,47.36392311503508L103.60591957092285,27.133470295678904L103.68370179282294,82.7066120506969L103.91704845852323,115.1439673053195L104.46152401182385,53.05379404259034L104.69487067752414,70.69095543076263L105.31712845272489,122.70070880932019L105.39491067462497,65.441389331764L105.55047511842517,90.88981018982938L105.62825734032525,97.11259046334385L105.70603956222534,88.4917637510017L105.93938622792562,74.23532110586498L106.01716844982572,44.77595378255248L106.17273289362589,105.86321556001255L106.32829733742608,49.8425917461893L106.71720844692655,111.23494663320042L106.79499066882663,43.41158055948742L107.106119556427,49.37403417652692L107.1839017783271,88.73927175260468L107.26168400022718,0.3881908380735126L107.33946622212729,59.517254825373854L107.57281288782755,59.311000691704066L107.65059510972765,-15.92334220557916L107.72837733162774,36.58122949823263L107.96172399732801,17.15642077428282L108.0395062192281,81.21424995686374L108.66176399442884,83.85912012746138L108.97289288202921,61.40012210991577L109.1284573258294,33.46974812549766L109.28402176962959,45.31719601447833L109.36180399152967,37.98866610278935L109.59515065722995,34.08483067540496L109.82849732293023,78.02717957657404L109.90627954483033,70.68642404386837L109.98406176673042,80.09353761834046L110.0618439886305,24.51435908279555L110.29519065433078,43.48487346160246L110.91744842953153,61.20898273655767L111.0730128733317,97.77332141411199L111.22857731713188,23.865367161162823L111.38414176093208,41.448638498485394L111.46192398283216,13.260127521057967L111.69527064853244,43.52553429568039L111.85083509233263,104.14706681878789L112.00639953613282,81.05767381307152L112.39531064563327,71.23128530291109L112.93978619893392,69.25280271370126L113.01756842083401,59.16350252769665L113.25091508653429,76.51512571754607L113.40647953033448,75.3252260959059L113.87317286173503,42.188835985862084L113.95095508363512,69.46620366562706L114.1065195274353,35.78571259635501L114.26208397123548,55.40971987169631L114.57321285883586,61.45410339674322L114.88434174643623,53.220238877974396L115.03990619023641,115.94126330876298L115.42881729973686,68.00451206630969L115.50659952163696,42.9426580459141L115.58438174353707,113.96025652416913L116.1288572968377,57.425335503844906L116.20663951873779,48.853867455458214L116.67333285013835,88.46605041127629L116.98446173773873,5.8782853863782805L117.0622439596388,103.21829977142603L117.1400261815389,47.56619327767703L117.84006617863973,92.6958567811171L117.9956306224399,3.0674873842704358L118.22897728814019,63.65194768842433L118.69567061954073,84.78140942040396L118.77345284144084,51.523401752037316L119.0845817290412,83.05076936471549L119.31792839474149,43.35328076971376L119.39571061664157,40.30335326995839L119.47349283854167,-1.6478008291029482L119.70683950424194,-16.525165126722072L120.56244394514296,35.759953638640724L120.79579061084323,42.27161742966172L121.02913727654351,57.41310988282821L121.1069194984436,85.41729377323519L121.1847017203437,66.45675452799415L121.41804838604398,63.178737083897374L121.49583060794406,22.309520032821325L121.57361282984415,60.50029207349267L122.74034615834555,24.23633264663968L122.97369282404581,71.9704487825401L123.129257267846,79.94127997749443L123.2070394897461,63.91303464471376L123.36260393354627,77.83239076410649L123.44038615544638,45.11942682673805L123.67373282114664,74.82887196502644L123.90707948684692,59.98632939891007L123.98486170874702,88.10224695005176L124.1404261525472,44.68946207565821L124.29599059634738,74.245357063416L124.45155504014757,123.50349417742416L124.60711948394776,55.080510052030206L124.84046614964804,30.87180365944917L124.99603059344821,85.35744297184L125.1515950372484,36.27692710048862L125.30715948104859,46.117548423175975L125.46272392484876,124.50795667431478L125.61828836864896,208.66986924408863L126.39611058764987,134.5196302492619L126.70723947525025,169.40036101765094L127.01836836285062,155.8434094078241L127.0961505847507,128.94287672810367L127.1739328066508,118.31601416127526L127.32949725045098,161.56205008035894L127.56284391615125,166.76940433365812L127.79619058185153,92.35995632308368L127.95175502565172,61.41633170196029L128.185101691352,111.94114351287395L128.65179502275254,82.57206939552806L128.80735946655275,105.79906146166746L128.9629239103529,77.12710624421032L129.040706132253,51.7562663792136L129.2740527979533,98.50837927474286L129.35183501985338,94.87799327863122L129.42961724175348,44.12021039856725L129.66296390745376,36.1686908189005L130.28522168265448,93.52408178101328L130.67413279215495,56.39333494767412L130.82969723595514,104.4578469709512L131.2963905673557,90.80245174114663L131.60751945495605,80.04151790503433L131.68530167685614,33.28307931504867L131.76308389875624,43.621180012340886L131.84086612065633,36.884102532325414L132.30755945205686,27.14137741374941L132.54090611775715,103.50339699585649L133.0853816710578,79.03168769145354L133.240946114858,58.044006668876506L133.47429278055827,40.615501961787714L133.55207500245837,92.88479128501322L133.78542166815865,94.887649086275L133.86320389005874,81.03024219576541L134.25211499955918,89.35435430251198L134.32989722145928,124.47492925037415L134.40767944335937,70.08752067401302L134.64102610905965,110.15250778733761L134.87437277475993,41.43510516178779L134.95215499666003,78.00602803573544L135.02993721856012,39.174277633475896L135.1077194404602,64.37693917951157L135.18550166236028,101.66423174465038L135.65219499376084,77.37730570715654L136.1188883251614,4.4882140295841L136.58558165656194,51.553600860668126L136.89671054416232,69.70624552305195L137.0522749879625,110.17622914154911L137.44118609746297,36.06215760889677L137.75231498506335,74.43004909434738L138.29679053836398,42.95351512726475L138.45235498216417,106.02921942150421L138.68570164786445,83.90659324787697L138.84126609166464,46.92075955917605L138.91904831356473,71.05556480979048L139.152394979265,72.02053733431745L139.2301772011651,-28.431399397357637L139.38574164496526,66.2562178489292L139.46352386686536,90.7509946497032L139.69687053256564,53.011004369031895L141.0191683048672,47.01111358912783L141.09695052676733,153.41072370944912L141.1747327486674,59.56618772143321L141.2525149705675,64.56382087390863L141.56364385816786,22.169503218988297L141.79699052386815,33.50125494980935L142.1081194114685,42.779588941706294L142.1859016333686,101.26860213319209L142.2636838552687,-28.123812504415156L142.57481274286906,72.52565011905963L142.65259496476915,68.4981595298496L142.73037718666924,51.632367921447354L142.88594163046943,108.86481840356012L143.04150607426962,60.485633493069656L143.1970705180698,96.03618839800795L143.35263496186997,92.74918421010412L143.97489273707072,130.88913781117623L144.3638038465712,54.14902113133256L144.44158606847128,86.0424122806935L145.1416260655721,61.782461680617104L145.2194082874722,52.799945140534646L146.0750127283732,97.84742023403038L146.4639238378737,107.42596621066946L146.69727050357395,86.10360120976215L146.77505272547404,116.29176152323427L147.00839939117432,85.58947126922037L147.1639638349745,65.9583932056045L147.2417460568746,-3.6829409604871444L147.86400383207533,22.99074866658762L147.94178605397542,68.39065313608336L148.0195682758755,30.814963645319295L148.0973504977756,88.67861503340617L148.3306971634759,55.82542139825664L148.48626160727605,47.48237782612972L148.56404382917617,14.370621430074777L148.64182605107627,94.8112845729095L149.264083826277,44.27379096109047L149.65299493577746,88.81136338101287L149.73077715767755,15.857190039321665L149.96412382337783,9.274727129577087L150.50859937667846,80.17394692671894L150.66416382047865,48.4073889924081L151.4419860394796,25.673816299864285L151.83089714898006,43.46589637823325L151.90867937088012,51.038938710256204L152.0642438146803,74.6363640520023L152.1420260365804,62.71221711773778L152.60871936798097,63.76754367221655L152.68650158988103,54.0832399913845L153.1531949212816,100.88816331202693L153.23097714318172,44.47761213535395L153.93101714028253,2.248766132055124L154.24214602788288,99.17202977679858L154.3977104716831,77.24933204238472L154.70883935928344,74.06665619502267L155.4088793563843,62.91220638093631L155.56444380018448,32.89304551022488L155.79779046588476,38.75170299659274L155.95335490968492,53.43509960554398L156.031137131585,24.938758439233425L156.42004824108545,100.74461870705476L156.65339490678573,35.48496840174275L157.0423060162862,44.14022148968414L157.19787046008642,43.41179344343547L157.50899934768677,57.47086225673546L157.66456379148696,28.828026522172564L157.74234601338705,41.85664579092327L157.82012823528711,67.70002719661021L157.97569267908733,49.60641221182192L158.13125712288752,38.683519309230974L158.52016823238796,46.78965345916862L158.75351489808824,102.27832590479886L158.90907934188843,89.34171811959547L159.1424260075887,98.52048324778924L159.375772673289,7.448426151231871L159.68690156088934,104.86682744715159L159.92024822658962,250.4715864146156L160.23137711419,192.97473406902228L160.3091593360901,177.35496741456447L160.38694155799018,184.5762646404204L160.93141711129084,190.26491908827248L161.086981555091,157.20534967148285L161.2425459988912,229.8133509046471L161.55367488649156,188.2176445718493L162.0203682178921,137.54398126325844L162.09815043979222,123.16811072326456L162.40927932739257,133.9265355699891L162.72040821499294,137.59492135082803L162.95375488069323,94.53176794911727L163.03153710259332,181.14960858259448L163.1093193244934,133.02197646872L163.18710154639348,167.0133541321294L163.3426659901937,86.16834834196253L163.57601265589395,164.432698883862L164.1204882091946,122.01894796568376L164.1982704310947,174.46316707022282L164.58718154059514,127.7056560460108L164.74274598439536,157.85469133103024L164.82052820629542,142.3025609480678L164.89831042819554,88.41977856456755L165.59835042529636,126.26231808421477L165.90947931289674,109.63989844642475L165.9872615347968,48.85231644383671L166.06504375669692,117.99150299446262L166.14282597859702,108.14216863590144L166.2983904223972,144.07761771891768L166.68730153189765,93.80533188838251L166.76508375379774,107.06233001540411L166.92064819759793,88.74623609890524L166.99843041949802,141.3601693280306L167.07621264139812,101.23128661829784L167.3095593070984,74.13404917057738L167.46512375089858,52.08167469980731L167.54290597279868,63.11636208711815L167.62068819469874,96.84794530392267L168.3207281917996,84.99757786365444L168.55407485749984,50.87215934295378L169.2541148546007,182.64373457199721L169.72080818600125,70.85542348662904L169.79859040790134,129.46760524805921L170.2652837393019,84.1918577382666L170.34306596120197,82.00053681899368L170.42084818310207,27.26947272649153L170.57641262690225,77.29514770920478L171.04310595830282,124.49979105430737L171.50979928970338,86.95133550289766L171.58758151160345,59.04900137563726L172.2098392868042,117.46890331398762L172.2876215087043,54.42729086342905L172.52096817440457,93.09475568177763L172.75431484010483,109.80131009703702L173.06544372770523,98.59310708606755L173.2210081715054,51.90561967476833L173.53213705910576,66.87361171027247L173.99883039050633,51.010108141291454L174.3099592781067,61.70381626780818L174.38774150000677,93.4477020616515L174.62108816570705,73.85048775177216L174.77665260950724,21.673179500101412L175.00999927520752,93.45401255011161L175.32112816280787,51.94847017231194L175.47669260660808,59.85050944005292L175.63225705040827,162.8886211966485L175.71003927230834,107.58196452660269L175.78782149420843,49.64296742690172L176.3322970475091,48.51894018118733L176.48786149130927,75.91333320839573L176.56564371320937,49.76312520958075L177.03233704460993,44.706736087443005L177.11011926651,53.018941899094955L177.1879014884101,94.23853551667197L177.34346593221028,92.00884986876083L177.49903037601047,51.29403450400763L178.4324170388116,86.78405433771769L179.1324570359124,100.77942523256125L179.44358592351279,31.365998538855536L179.83249703301325,111.31059646474031L179.91027925491332,68.33892233670673L180.2991903644138,105.24040836399023L180.37697258631388,71.04765769171996L180.45475480821398,128.78023339179197L180.76588369581435,56.37411456836429L180.84366591771445,85.86731523342075L181.31035924911498,54.33888320100232L181.62148813671536,58.93699400696936L181.69927035861545,124.70607559996972L181.77705258051554,41.77140097572476L181.93261702431573,102.02418808881367L182.01039924621583,53.64986909713585L182.3993103557163,128.8325420190276L182.63265702141658,95.29991405767393L182.78822146521674,50.08680004659749L183.02156813091702,78.67731194792844L183.2549147966173,53.017634183414074L183.48826146231755,51.932838408126415L183.64382590611777,84.41509696979169L184.1105192375183,93.44894895334723L184.1883014594184,93.08981373298356L184.34386590321859,26.194591260784563L184.49943034701877,31.09876836006515L185.19947034411962,60.408539091882275L185.27725256601968,33.11757725143454L185.35503478791978,42.874656830507774L185.4328170098199,96.22735818335862L186.52176811642116,38.9565581786039L186.83289700402156,33.9760469779504L187.1440258916219,70.97579415325616L187.221808113522,25.82678862253593L187.45515477922226,82.73687198331287L187.53293700112238,83.17967059526096L187.76628366682266,100.68914723259093L187.92184811062282,73.99169063331578L188.077412554423,43.52255392040766L188.46632366392348,67.11344068374932L188.69967032962376,81.15958440020326L188.85523477342392,115.1130383088668L188.93301699532404,49.674900019109515L189.0885814391242,57.492393947481276L189.32192810482448,72.07993195582395L189.55527477052476,17.18801883457226L189.71083921432495,40.87604150221077L189.94418588002523,50.44137346807432L190.1775325457255,75.41959450887806L190.25531476762558,5.738207748560086L190.48866143332586,88.3006547896362L190.72200809902614,27.338660009608418L191.3442658742269,41.8834995803704L191.42204809612696,17.89038380318084L191.57761253992717,69.77826112147868L191.96652364942764,72.39989652974606L192.35543475892808,90.86543497777743L192.43321698082818,95.34025556582978L192.51099920272827,55.34287431200799L192.66656364652846,6.126295185858822L192.74434586842855,73.96197811656626L192.89991031222874,36.02748793735688L193.0554747560289,86.22654168976216L193.28882142172918,45.59455338679746L193.3666036436293,29.701702244977838L193.67773253122965,79.73390060009923L194.06664364073012,71.50484117615787L194.22220808453028,66.08779623402751L194.68890141593084,56.180907179510825L194.76668363783097,39.929863589097494L194.84446585973103,45.8117558377956L194.92224808163112,89.04193190274943L195.00003030353122,72.086500946221L195.2333769692315,74.18675315371655L195.3889414130317,49.787120271725485L195.62228807873194,-12.24960391404636L195.70007030063206,51.32128364935828L195.93341696633235,32.747128769831534L196.0889814101325,81.84011355814026L196.2445458539327,49.293746516118745L196.3223280758328,8.908384266972263L196.40011029773288,28.5127453951076L196.71123918533326,65.49065675974174L197.0223680729336,42.29871451504948L197.10015029483372,33.64352225109323L197.17793251673382,72.29278549188335L197.48906140433417,54.09476613657188L197.5668436262343,36.18459629101923L197.72240807003445,31.747364925794358L197.80019029193454,15.417432626631467L197.95575473573473,58.85041106409736L198.03353695763482,20.250993079143967L198.11131917953492,30.10466114664763L198.2668836233351,66.53053402199043L198.3446658452352,35.1081029897056L198.5002302890354,61.60330463233508L198.73357695473567,139.97779220535887L198.88914139853583,12.463607023425254L198.96692362043595,33.905491155167454L199.43361695183648,55.55554537611191L199.51139917373658,36.71744481299331L199.58918139563664,78.67865007560192L199.90031028323705,86.00392590408495L200.0558747270372,74.16245397164606L200.2114391708374,11.573295940679344L200.52256805843777,75.5160309373456L201.06704361173843,116.84465154831781L201.3003902774387,44.67678027475284L201.45595472123887,45.40277536159522L201.61151916503906,72.25997095189078L201.68930138693915,63.004354718450244L202.00043027453953,40.606408776006646L202.1559947183397,74.43981134396518L202.2337769402398,5.324057233621289L202.3115591621399,77.18663771968342L202.54490582784018,61.969465022984465L202.62268804974025,53.84207289023419L202.85603471544053,78.18562605790986L202.93381693734065,45.8347777161778L203.1671636030409,64.61293624192348L203.4005102687412,113.5297139452303L203.71163915634156,47.56059747104251L204.1783324877421,78.8377200027856L204.2561147096422,86.68401408812956L204.48946137534247,25.126978261303947L204.56724359724257,14.520522141495945L204.72280804104275,78.85359506291178L204.87837248484294,26.022216086847635L204.956154706743,128.83774246975858L205.11171915054322,26.00044110016117L205.1895013724433,96.49072603909147L205.34506581624348,40.659386467079L205.42284803814357,55.60317055649038L205.5006302600437,33.60967370335297L205.57841248194376,91.13398807824498L205.73397692574397,66.710664254035L205.88954136954413,78.16743968634772L205.96732359144423,74.9366216547333L206.2784524790446,39.45418961317168L206.35623470094467,43.41538205855977L206.51179914474488,75.0969840916016L206.74514581044514,70.20822587255849L206.90071025424535,80.62326891107521L207.1340569199456,59.32876129537013L208.06744358274673,68.92812428092944L208.37857247034708,55.63613715644584L208.61191913604736,46.5587351995174L209.00083024554783,45.31883826207758L209.156394689348,50.549792221617935L209.38974135504827,51.683399244994675L209.85643468644884,68.07841320827629L209.93421690834893,28.638772692354365L210.08978135214912,56.411703791191755L210.32312801784937,50.18728127007802L210.55647468354965,34.39989891852187L210.63425690544977,75.47357579570553L210.71203912734984,59.15900155279496L211.41207912445068,16.13767984687641L211.48986134635078,22.169898574891818L211.56764356825087,78.4800901760546L211.64542579015097,80.11394406536088L211.80099023395115,73.75426420725267L211.9565546777513,79.9871868802922L212.1899013434516,83.18395868621457L212.57881245295206,23.297970615619192L212.73437689675225,19.87859823001591L212.81215911865235,55.18272475908775L212.88994134055244,58.90594336254634L212.96772356245253,38.95464222307143L213.58998133765326,70.01322417614288L214.29002133475407,44.23462031464891L214.67893244425457,89.73658743123929L215.3011902194553,79.1341456944517L215.3789724413554,65.49537061859147L215.61231910705567,85.92000401056362L215.92344799465602,23.838178839797337L216.1567946603563,0.97708866237042L216.4679235479567,59.1159381713033L216.70127021365695,81.19337212395838L216.93461687935724,60.36328604692494L217.01239910125733,39.13030189220689L217.0901813231574,59.055327070093654L217.2457457669576,55.82338379475385L217.86800354215833,41.455146664897256L218.02356798595852,48.948965756252306L218.1791324297587,45.300986422433795L218.3346968735589,6.305634706096299L218.72360798305934,70.8549368947478L219.1125190925598,44.49814023034466L219.73477686776056,70.51085561071066L219.81255908966065,75.99395540072227L219.89034131156072,22.109500357630196L220.20147019916112,52.561150174805505L220.4348168648614,65.24285984420925L220.66816353056166,55.179349027911485L221.29042130576238,48.85438445933207L221.4459857495626,109.53263534859914L221.75711463716294,69.8942524611744L221.83489685906306,66.03122992783084L221.91267908096313,48.28406836250085L221.99046130286322,53.08298955546603L222.1460257466634,74.69162264251808L222.3015901904636,92.06853340419683L222.53493685616388,71.14886880302241L222.76828352186416,18.183950767544502L222.84606574376423,83.63030029529811L223.00163018756444,30.664485106039137L223.1571946313646,-1.0867299780156827L223.70167018466526,127.89617197352104L224.01279907226564,103.47514425475073L224.16836351606582,71.60681258727476L224.32392795986598,34.751917732622076L224.47949240366617,44.42761481955429L224.55727462556627,43.58243513379543L224.71283906936645,60.016498095548286L224.94618573506673,50.71538552120978L225.10175017886692,64.28038110307374L225.3350968445672,34.72387787546438L225.49066128836736,113.43668365993159L225.72400795406764,51.789172155183905L225.80179017596777,49.10519216212987L225.87957239786783,46.89849798060834L226.65739461686874,85.13954104501254L226.73517683876887,78.34936422595439L226.89074128256902,82.8471154564112L226.96852350446915,59.83402614007518L227.0463057263692,75.32571268778715L227.1240879482693,64.93290081584558L227.3574346139696,54.96372800052744L227.43521683586968,51.33652005764026L227.59078127966987,47.48797363276424L227.82412794537012,66.40021863379006L227.97969238917034,105.89139227113685L228.13525683297053,4.008069490749165L228.29082127677069,20.39076659703636L228.99086127387153,48.00558574645629L229.06864349577162,20.497208571062345L229.3019901614719,35.62334296797653L229.45755460527207,51.08455669912449L229.61311904907225,64.86903563143L229.76868349287247,61.786962655518764L229.92424793667263,90.92276158378856L230.00203015857272,56.01008301719543L230.235376824273,61.01343362427565L230.70207015567357,17.209063933436823L230.77985237757366,88.76769175966962L231.090981265174,32.52369186035472L231.3243279308743,39.37384112877834L231.55767459657457,22.105881330513313L231.71323904037476,58.844663197499955L231.79102126227482,19.25576062200102L232.10215014987523,89.88724844247493L232.41327903747558,20.80427846013103L232.64662570317586,44.95882109392912L232.72440792507595,45.974794530010854L232.80219014697605,96.52703795823062L232.87997236887614,21.069927215307303L233.11331903457642,40.18362125517544L233.42444792217677,59.81176456150746L233.58001236597696,68.09060841730042L233.89114125357733,77.4864999665109L233.96892347547745,12.906800991276867L234.1244879192776,93.34121446963664L234.2022701411777,41.14099078155772L234.59118125067815,7.187400018927548L234.82452791637843,26.487854105222453L234.90231013827855,64.50135464115168L235.0578745820787,52.419703997321264L235.2134390258789,3.883745265086816L235.3690034696791,10.646764174772017L235.44678569157918,49.96144181318746L235.68013235727946,65.84638583693658L235.75791457917956,64.10672862544848L235.91347902297974,36.71933035653319L236.14682568868002,20.838826483700586L236.2246079105801,33.06469079633993L236.38017235438028,63.92437831794568L236.84686568578084,31.52885475911529L237.08021235148112,66.87269935049511L237.3135590171814,98.0889674850879L237.39134123908147,17.170988118728104L237.70247012668187,124.67034150868957L238.1691634580824,19.382730691017713L239.1803323427836,19.89051973110682L239.49146123038398,31.00990451774976L239.64702567418416,19.332429255292283L240.03593678368463,40.83109257717922L240.26928344938491,76.41126876288928L240.42484789318507,42.06588029986577L240.73597678078548,-28.956857805135087L241.12488789028592,45.866162892519185L241.4360167778863,70.25244490976814L241.74714566548664,32.08101489637693L241.98049233118692,66.38148484636149L242.68053232828777,44.26731320667116L243.1472256596883,-16.396522398113518L243.9250478786892,51.29272678832672L244.00283010058934,77.97938713023638L244.08061232248943,17.337068010201193L244.3139589881897,63.82146413505885L244.39174121008978,75.48285145344208L244.78065231959025,58.86929691148883L244.93621676339043,34.41784199414337L245.2473456509908,14.377981132278848L245.32512787289087,87.4350686568569L245.402910094791,86.47477957918704L245.4806923166911,109.0173041343505L245.55847453859116,98.86853329685792L245.63625676049128,59.972309470331226L245.71403898239134,21.21894597894368L246.3362967575921,52.329745323273016L246.56964342329238,43.029332224763834L247.03633675469294,57.99610778056481L247.3474656422933,66.84371672156747L248.1252878612942,38.24783710354632L248.20307008319432,22.197117308249886L248.2808523050944,73.10283932621365L248.82532785839504,26.693986590921895L249.2142389678955,68.3191545415305L249.4475856335958,78.9450135126038L249.60315007739598,88.53075192548778L249.68093229929607,42.67965513409217L249.75871452119614,47.782452956905246L249.83649674309626,59.94715875246851L250.1476256306966,65.88710749499965L250.76988340589736,13.697208678401267L250.84766562779745,93.90698397357733L251.0810122934977,31.257458137341615L251.23657673729792,60.78792869930345L251.314358959198,70.10099318672546L251.4699234029982,51.981041416363894L251.85883451249865,50.88067470087586L252.4033100657993,59.139112109648394L252.55887450959946,55.887309803154594L252.79222117529974,76.65483841145333L252.94778561909993,99.50668334313627L253.3366967286004,-44.0695196893368L253.57004339430068,36.72310144361299L253.80339006000096,18.78477009293232L254.50343005710178,53.09825637574062L254.58121227900187,101.51527380499917L254.81455894470216,89.3387985683079L255.04790561040244,51.59529570249373L255.20347005420263,52.29118291668304L255.2812522761027,58.25828956858709L255.74794560750325,88.858760471447L255.98129227320354,59.354581077069554L256.05907449510363,53.4841237375811L256.2146389389038,21.48389525829063L256.4479856046041,54.634426944883614L256.60355004840426,60.65232162439435L256.75911449220445,57.009603565292L256.99246115790476,80.15684018089335L257.0702433798048,64.24543772360062L257.14802560170494,107.08498694987537L257.6925011550056,69.39440095114838L258.081412264506,31.462191671382442L258.2369767083062,64.7867711915042L258.31475893020627,22.384424770543035L258.3925411521064,38.85181927616233L258.70367003970676,43.70435681204404L258.7814522616069,97.03277418882065L259.1703633711073,73.9770016409002L259.2481455930074,65.66129845010168L259.55927448060777,66.7076230547771L259.7926211463081,105.81628985546337L259.87040336820814,79.94050447168367L260.02596781200833,64.62747317437616L260.57044336530896,40.42445382440738L260.648225587209,80.81820978350565L261.0371366967095,43.920129899390986L261.97052335951065,26.35565317348218L262.3594344690111,33.369114842054245L262.5149989128113,-0.17637739216027626L262.5927811347114,46.98781800281242L262.82612780041165,71.3957837707701L262.9039100223117,42.73266323715711L263.6039500194126,61.68267993296587L264.0706433508131,34.03833073875188L264.38177223841353,89.35290973286449" fill="none"></path></g></g></g></g></g></g><g transform="translate(49, 178)" clip-path="url(#clip_1)"><clipPath id="clip_1"><rect width="280" height="21"></rect></clipPath><g><g><line x1="0" y1="0" x2="0" y2="5" style="visibility: inherit;" fill="rgb(0, 0, 0)" stroke="rgb(204, 204, 204)" stroke-width="1px"></line><line x1="31.112888760036892" y1="0" x2="31.112888760036892" y2="5" style="visibility: inherit;" fill="rgb(0, 0, 0)" stroke="rgb(204, 204, 204)" stroke-width="1px"></line><line x1="62.225777520073784" y1="0" x2="62.225777520073784" y2="5" style="visibility: inherit;" fill="rgb(0, 0, 0)" stroke="rgb(204, 204, 204)" stroke-width="1px"></line><line x1="93.33866628011067" y1="0" x2="93.33866628011067" y2="5" style="visibility: inherit;" fill="rgb(0, 0, 0)" stroke="rgb(204, 204, 204)" stroke-width="1px"></line><line x1="124.45155504014757" y1="0" x2="124.45155504014757" y2="5" style="visibility: inherit;" fill="rgb(0, 0, 0)" stroke="rgb(204, 204, 204)" stroke-width="1px"></line><line x1="155.56444380018448" y1="0" x2="155.56444380018448" y2="5" style="visibility: inherit;" fill="rgb(0, 0, 0)" stroke="rgb(204, 204, 204)" stroke-width="1px"></line><line x1="186.67733256022134" y1="0" x2="186.67733256022134" y2="5" style="visibility: inherit;" fill="rgb(0, 0, 0)" stroke="rgb(204, 204, 204)" stroke-width="1px"></line><line x1="217.79022132025824" y1="0" x2="217.79022132025824" y2="5" style="visibility: inherit;" fill="rgb(0, 0, 0)" stroke="rgb(204, 204, 204)" stroke-width="1px"></line><line x1="248.90311008029514" y1="0" x2="248.90311008029514" y2="5" style="visibility: inherit;" fill="rgb(0, 0, 0)" stroke="rgb(204, 204, 204)" stroke-width="1px"></line><line x1="280.01599884033203" y1="0" x2="280.01599884033203" y2="5" style="visibility: inherit;" fill="rgb(0, 0, 0)" stroke="rgb(204, 204, 204)" stroke-width="1px"></line></g><g transform="translate(0, 8)"><text style="text-anchor: middle; visibility: hidden; font-family: &quot;Helvetica Neue&quot;, sans-serif; font-size: 12px; font-weight: 200;" x="0" y="0" dx="0em" dy="0.95em" fill="rgb(50, 49, 63)" stroke="none" stroke-width="1px">-2k</text><text style="text-anchor: middle; visibility: inherit; font-family: &quot;Helvetica Neue&quot;, sans-serif; font-size: 12px; font-weight: 200;" x="31.112888760036892" y="0" dx="0em" dy="0.95em" fill="rgb(50, 49, 63)" stroke="none" stroke-width="1px">0</text><text style="text-anchor: middle; visibility: inherit; font-family: &quot;Helvetica Neue&quot;, sans-serif; font-size: 12px; font-weight: 200;" x="62.225777520073784" y="0" dx="0em" dy="0.95em" fill="rgb(50, 49, 63)" stroke="none" stroke-width="1px">2k</text><text style="text-anchor: middle; visibility: inherit; font-family: &quot;Helvetica Neue&quot;, sans-serif; font-size: 12px; font-weight: 200;" x="93.33866628011067" y="0" dx="0em" dy="0.95em" fill="rgb(50, 49, 63)" stroke="none" stroke-width="1px">4k</text><text style="text-anchor: middle; visibility: inherit; font-family: &quot;Helvetica Neue&quot;, sans-serif; font-size: 12px; font-weight: 200;" x="124.45155504014757" y="0" dx="0em" dy="0.95em" fill="rgb(50, 49, 63)" stroke="none" stroke-width="1px">6k</text><text style="text-anchor: middle; visibility: inherit; font-family: &quot;Helvetica Neue&quot;, sans-serif; font-size: 12px; font-weight: 200;" x="155.56444380018448" y="0" dx="0em" dy="0.95em" fill="rgb(50, 49, 63)" stroke="none" stroke-width="1px">8k</text><text style="text-anchor: middle; visibility: inherit; font-family: &quot;Helvetica Neue&quot;, sans-serif; font-size: 12px; font-weight: 200;" x="186.67733256022134" y="0" dx="0em" dy="0.95em" fill="rgb(50, 49, 63)" stroke="none" stroke-width="1px">10k</text><text style="text-anchor: middle; visibility: inherit; font-family: &quot;Helvetica Neue&quot;, sans-serif; font-size: 12px; font-weight: 200;" x="217.79022132025824" y="0" dx="0em" dy="0.95em" fill="rgb(50, 49, 63)" stroke="none" stroke-width="1px">12k</text><text style="text-anchor: middle; visibility: inherit; font-family: &quot;Helvetica Neue&quot;, sans-serif; font-size: 12px; font-weight: 200;" x="248.90311008029514" y="0" dx="0em" dy="0.95em" fill="rgb(50, 49, 63)" stroke="none" stroke-width="1px">14k</text><text style="text-anchor: middle; visibility: hidden; font-family: &quot;Helvetica Neue&quot;, sans-serif; font-size: 12px; font-weight: 200;" x="280.01599884033203" y="0" dx="0em" dy="0.95em" fill="rgb(50, 49, 63)" stroke="none" stroke-width="1px">16k</text></g><line x1="0" y1="0" x2="280.01599884033203" y2="0" fill="rgb(0, 0, 0)" stroke="rgb(204, 204, 204)" stroke-width="1px"></line></g></g></g></g></svg>