<svg viewBox="0 0 330 200" xmlns="http://www.w3.org/2000/svg"><g><g><g><g><g><line x1="49.98400115966797" y1="178.57999897003174" x2="44.98400115966797" y2="178.57999897003174" style="visibility: inherit;" fill="rgb(0, 0, 0)" stroke="rgb(204, 204, 204)" stroke-width="1px"></line><line x1="49.98400115966797" y1="166.67466570536294" x2="44.98400115966797" y2="166.67466570536294" style="visibility: inherit;" fill="rgb(0, 0, 0)" stroke="rgb(204, 204, 204)" stroke-width="1px"></line><line x1="49.98400115966797" y1="154.7693324406942" x2="44.98400115966797" y2="154.7693324406942" style="visibility: inherit;" fill="rgb(0, 0, 0)" stroke="rgb(204, 204, 204)" stroke-width="1px"></line><line x1="49.98400115966797" y1="142.8639991760254" x2="44.98400115966797" y2="142.8639991760254" style="visibility: inherit;" fill="rgb(0, 0, 0)" stroke="rgb(204, 204, 204)" stroke-width="1px"></line><line x1="49.98400115966797" y1="130.9586659113566" x2="44.98400115966797" y2="130.9586659113566" style="visibility: inherit;" fill="rgb(0, 0, 0)" stroke="rgb(204, 204, 204)" stroke-width="1px"></line><line x1="49.98400115966797" y1="119.05333264668785" x2="44.98400115966797" y2="119.05333264668785" style="visibility: inherit;" fill="rgb(0, 0, 0)" stroke="rgb(204, 204, 204)" stroke-width="1px"></line><line x1="49.98400115966797" y1="107.14799938201907" x2="44.98400115966797" y2="107.14799938201907" style="visibility: inherit;" fill="rgb(0, 0, 0)" stroke="rgb(204, 204, 204)" stroke-width="1px"></line><line x1="49.98400115966797" y1="95.24266611735027" x2="44.98400115966797" y2="95.24266611735027" style="visibility: inherit;" fill="rgb(0, 0, 0)" stroke="rgb(204, 204, 204)" stroke-width="1px"></line><line x1="49.98400115966797" y1="83.33733285268148" x2="44.98400115966797" y2="83.33733285268148" style="visibility: inherit;" fill="rgb(0, 0, 0)" stroke="rgb(204, 204, 204)" stroke-width="1px"></line><line x1="49.98400115966797" y1="71.43199958801267" x2="44.98400115966797" y2="71.43199958801267" style="visibility: inherit;" fill="rgb(0, 0, 0)" stroke="rgb(204, 204, 204)" stroke-width="1px"></line><line x1="49.98400115966797" y1="59.52666632334396" x2="44.98400115966797" y2="59.52666632334396" style="visibility: inherit;" fill="rgb(0, 0, 0)" stroke="rgb(204, 204, 204)" stroke-width="1px"></line><line x1="49.98400115966797" y1="47.62133305867516" x2="44.98400115966797" y2="47.62133305867516" style="visibility: inherit;" fill="rgb(0, 0, 0)" stroke="rgb(204, 204, 204)" stroke-width="1px"></line><line x1="49.98400115966797" y1="35.71599979400639" x2="44.98400115966797" y2="35.71599979400639" style="visibility: inherit;" fill="rgb(0, 0, 0)" stroke="rgb(204, 204, 204)" stroke-width="1px"></line><line x1="49.98400115966797" y1="23.810666529337567" x2="44.98400115966797" y2="23.810666529337567" style="visibility: inherit;" fill="rgb(0, 0, 0)" stroke="rgb(204, 204, 204)" stroke-width="1px"></line><line x1="49.98400115966797" y1="11.905333264668798" x2="44.98400115966797" y2="11.905333264668798" style="visibility: inherit;" fill="rgb(0, 0, 0)" stroke="rgb(204, 204, 204)" stroke-width="1px"></line><line x1="49.98400115966797" y1="0" x2="44.98400115966797" y2="0" style="visibility: inherit;" fill="rgb(0, 0, 0)" stroke="rgb(204, 204, 204)" stroke-width="1px"></line></g><g transform="translate(39.98400115966797, 0)"><text style="text-anchor: end; visibility: hidden; font-family: &quot;Helvetica Neue&quot;, sans-serif; font-size: 12px; font-weight: 200;" x="0" y="178.57999897003174" dx="0em" dy="0.3em" fill="rgb(50, 49, 63)" stroke="none" stroke-width="1px">0.38</text><text style="text-anchor: end; visibility: inherit; font-family: &quot;Helvetica Neue&quot;, sans-serif; font-size: 12px; font-weight: 200;" x="0" y="166.67466570536294" dx="0em" dy="0.3em" fill="rgb(50, 49, 63)" stroke="none" stroke-width="1px">0.4</text><text style="text-anchor: end; visibility: hidden; font-family: &quot;Helvetica Neue&quot;, sans-serif; font-size: 12px; font-weight: 200;" x="0" y="154.7693324406942" dx="0em" dy="0.3em" fill="rgb(50, 49, 63)" stroke="none" stroke-width="1px">0.42</text><text style="text-anchor: end; visibility: hidden; font-family: &quot;Helvetica Neue&quot;, sans-serif; font-size: 12px; font-weight: 200;" x="0" y="142.8639991760254" dx="0em" dy="0.3em" fill="rgb(50, 49, 63)" stroke="none" stroke-width="1px">0.44</text><text style="text-anchor: end; visibility: inherit; font-family: &quot;Helvetica Neue&quot;, sans-serif; font-size: 12px; font-weight: 200;" x="0" y="130.9586659113566" dx="0em" dy="0.3em" fill="rgb(50, 49, 63)" stroke="none" stroke-width="1px">0.46</text><text style="text-anchor: end; visibility: hidden; font-family: &quot;Helvetica Neue&quot;, sans-serif; font-size: 12px; font-weight: 200;" x="0" y="119.05333264668785" dx="0em" dy="0.3em" fill="rgb(50, 49, 63)" stroke="none" stroke-width="1px">0.48</text><text style="text-anchor: end; visibility: hidden; font-family: &quot;Helvetica Neue&quot;, sans-serif; font-size: 12px; font-weight: 200;" x="0" y="107.14799938201907" dx="0em" dy="0.3em" fill="rgb(50, 49, 63)" stroke="none" stroke-width="1px">0.5</text><text style="text-anchor: end; visibility: inherit; font-family: &quot;Helvetica Neue&quot;, sans-serif; font-size: 12px; font-weight: 200;" x="0" y="95.24266611735027" dx="0em" dy="0.3em" fill="rgb(50, 49, 63)" stroke="none" stroke-width="1px">0.52</text><text style="text-anchor: end; visibility: hidden; font-family: &quot;Helvetica Neue&quot;, sans-serif; font-size: 12px; font-weight: 200;" x="0" y="83.33733285268148" dx="0em" dy="0.3em" fill="rgb(50, 49, 63)" stroke="none" stroke-width="1px">0.54</text><text style="text-anchor: end; visibility: hidden; font-family: &quot;Helvetica Neue&quot;, sans-serif; font-size: 12px; font-weight: 200;" x="0" y="71.43199958801267" dx="0em" dy="0.3em" fill="rgb(50, 49, 63)" stroke="none" stroke-width="1px">0.56</text><text style="text-anchor: end; visibility: inherit; font-family: &quot;Helvetica Neue&quot;, sans-serif; font-size: 12px; font-weight: 200;" x="0" y="59.52666632334396" dx="0em" dy="0.3em" fill="rgb(50, 49, 63)" stroke="none" stroke-width="1px">0.58</text><text style="text-anchor: end; visibility: hidden; font-family: &quot;Helvetica Neue&quot;, sans-serif; font-size: 12px; font-weight: 200;" x="0" y="47.62133305867516" dx="0em" dy="0.3em" fill="rgb(50, 49, 63)" stroke="none" stroke-width="1px">0.6</text><text style="text-anchor: end; visibility: hidden; font-family: &quot;Helvetica Neue&quot;, sans-serif; font-size: 12px; font-weight: 200;" x="0" y="35.71599979400639" dx="0em" dy="0.3em" fill="rgb(50, 49, 63)" stroke="none" stroke-width="1px">0.62</text><text style="text-anchor: end; visibility: inherit; font-family: &quot;Helvetica Neue&quot;, sans-serif; font-size: 12px; font-weight: 200;" x="0" y="23.810666529337567" dx="0em" dy="0.3em" fill="rgb(50, 49, 63)" stroke="none" stroke-width="1px">0.64</text><text style="text-anchor: end; visibility: hidden; font-family: &quot;Helvetica Neue&quot;, sans-serif; font-size: 12px; font-weight: 200;" x="0" y="11.905333264668798" dx="0em" dy="0.3em" fill="rgb(50, 49, 63)" stroke="none" stroke-width="1px">0.66</text><text style="text-anchor: end; visibility: hidden; font-family: &quot;Helvetica Neue&quot;, sans-serif; font-size: 12px; font-weight: 200;" x="0" y="0" dx="0em" dy="0.3em" fill="rgb(50, 49, 63)" stroke="none" stroke-width="1px">0.68</text></g><line x1="49.98400115966797" y1="0" x2="49.98400115966797" y2="178.57999897003174" fill="rgb(0, 0, 0)" stroke="rgb(204, 204, 204)" stroke-width="1px"></line></g></g><g transform="translate(49, 0)" clip-path="url(#clip_0)"><clipPath id="clip_0"><rect width="280" height="178"></rect></clipPath><g><g><g><line x1="0" y1="0" x2="0" y2="178.57999897003174" fill="rgb(0, 0, 0)" stroke="rgb(60, 60, 60)" stroke-width="1px" opacity="0.25"></line><line x1="31.112888760036892" y1="0" x2="31.112888760036892" y2="178.57999897003174" fill="rgb(0, 0, 0)" stroke="rgb(60, 60, 60)" stroke-width="1px" opacity="0.25"></line><line x1="62.225777520073784" y1="0" x2="62.225777520073784" y2="178.57999897003174" fill="rgb(0, 0, 0)" stroke="rgb(60, 60, 60)" stroke-width="1px" opacity="0.25"></line><line x1="93.33866628011067" y1="0" x2="93.33866628011067" y2="178.57999897003174" fill="rgb(0, 0, 0)" stroke="rgb(60, 60, 60)" stroke-width="1px" opacity="0.25"></line><line x1="124.45155504014757" y1="0" x2="124.45155504014757" y2="178.57999897003174" fill="rgb(0, 0, 0)" stroke="rgb(60, 60, 60)" stroke-width="1px" opacity="0.25"></line><line x1="155.56444380018448" y1="0" x2="155.56444380018448" y2="178.57999897003174" fill="rgb(0, 0, 0)" stroke="rgb(60, 60, 60)" stroke-width="1px" opacity="0.25"></line><line x1="186.67733256022134" y1="0" x2="186.67733256022134" y2="178.57999897003174" fill="rgb(0, 0, 0)" stroke="rgb(60, 60, 60)" stroke-width="1px" opacity="0.25"></line><line x1="217.79022132025824" y1="0" x2="217.79022132025824" y2="178.57999897003174" fill="rgb(0, 0, 0)" stroke="rgb(60, 60, 60)" stroke-width="1px" opacity="0.25"></line><line x1="248.90311008029514" y1="0" x2="248.90311008029514" y2="178.57999897003174" fill="rgb(0, 0, 0)" stroke="rgb(60, 60, 60)" stroke-width="1px" opacity="0.25"></line><line x1="280.01599884033203" y1="0" x2="280.01599884033203" y2="178.57999897003174" fill="rgb(0, 0, 0)" stroke="rgb(60, 60, 60)" stroke-width="1px" opacity="0.25"></line></g><g><line x1="0" y1="178.57999897003174" x2="280.01599884033203" y2="178.57999897003174" fill="rgb(0, 0, 0)" stroke="rgb(60, 60, 60)" stroke-width="1px" opacity="0.25"></line><line x1="0" y1="166.67466570536294" x2="280.01599884033203" y2="166.67466570536294" fill="rgb(0, 0, 0)" stroke="rgb(60, 60, 60)" stroke-width="1px" opacity="0.25"></line><line x1="0" y1="154.7693324406942" x2="280.01599884033203" y2="154.7693324406942" fill="rgb(0, 0, 0)" stroke="rgb(60, 60, 60)" stroke-width="1px" opacity="0.25"></line><line x1="0" y1="142.8639991760254" x2="280.01599884033203" y2="142.8639991760254" fill="rgb(0, 0, 0)" stroke="rgb(60, 60, 60)" stroke-width="1px" opacity="0.25"></line><line x1="0" y1="130.9586659113566" x2="280.01599884033203" y2="130.9586659113566" fill="rgb(0, 0, 0)" stroke="rgb(60, 60, 60)" stroke-width="1px" opacity="0.25"></line><line x1="0" y1="119.05333264668785" x2="280.01599884033203" y2="119.05333264668785" fill="rgb(0, 0, 0)" stroke="rgb(60, 60, 60)" stroke-width="1px" opacity="0.25"></line><line x1="0" y1="107.14799938201907" x2="280.01599884033203" y2="107.14799938201907" fill="rgb(0, 0, 0)" stroke="rgb(60, 60, 60)" stroke-width="1px" opacity="0.25"></line><line x1="0" y1="95.24266611735027" x2="280.01599884033203" y2="95.24266611735027" fill="rgb(0, 0, 0)" stroke="rgb(60, 60, 60)" stroke-width="1px" opacity="0.25"></line><line x1="0" y1="83.33733285268148" x2="280.01599884033203" y2="83.33733285268148" fill="rgb(0, 0, 0)" stroke="rgb(60, 60, 60)" stroke-width="1px" opacity="0.25"></line><line x1="0" y1="71.43199958801267" x2="280.01599884033203" y2="71.43199958801267" fill="rgb(0, 0, 0)" stroke="rgb(60, 60, 60)" stroke-width="1px" opacity="0.25"></line><line x1="0" y1="59.52666632334396" x2="280.01599884033203" y2="59.52666632334396" fill="rgb(0, 0, 0)" stroke="rgb(60, 60, 60)" stroke-width="1px" opacity="0.25"></line><line x1="0" y1="47.62133305867516" x2="280.01599884033203" y2="47.62133305867516" fill="rgb(0, 0, 0)" stroke="rgb(60, 60, 60)" stroke-width="1px" opacity="0.25"></line><line x1="0" y1="35.71599979400639" x2="280.01599884033203" y2="35.71599979400639" fill="rgb(0, 0, 0)" stroke="rgb(60, 60, 60)" stroke-width="1px" opacity="0.25"></line><line x1="0" y1="23.810666529337567" x2="280.01599884033203" y2="23.810666529337567" fill="rgb(0, 0, 0)" stroke="rgb(60, 60, 60)" stroke-width="1px" opacity="0.25"></line><line x1="0" y1="11.905333264668798" x2="280.01599884033203" y2="11.905333264668798" fill="rgb(0, 0, 0)" stroke="rgb(60, 60, 60)" stroke-width="1px" opacity="0.25"></line><line x1="0" y1="0" x2="280.01599884033203" y2="0" fill="rgb(0, 0, 0)" stroke="rgb(60, 60, 60)" stroke-width="1px" opacity="0.25"></line></g></g></g><g><g><line x1="0" y1="404.78133099873855" x2="280.01599884033203" y2="404.78133099873855" fill="rgb(0, 0, 0)" stroke="rgb(153, 153, 153)" stroke-width="1.5px"></line></g></g><g><g><line x1="31.112888760036892" y1="0" x2="31.112888760036892" y2="178.57999897003174" fill="rgb(0, 0, 0)" stroke="rgb(153, 153, 153)" stroke-width="1.5px"></line></g></g><g><g><g><g><g><path style="fill: none;" fill="none" stroke="none" stroke-width="1px"></path></g><g><path style="fill: none;" fill="none" stroke="none" stroke-width="1px"></path></g><g><path style="fill: none;" fill="none" stroke="none" stroke-width="1px"></path></g><g><path style="fill: none;" stroke="rgb(255, 112, 67)" stroke-width="2px" d="M35.62425763024224,180.56154730510949L36.24651540544298,169.33026633264495L36.47986207114325,157.28482790448328L36.713208736843534,145.72279726956117L36.79099095874363,145.86705800537976L36.868773180643714,148.4389687718121L36.94655540254381,148.24305033670294L37.33546651204427,142.9672480406611L37.957724287245014,141.3350696144086L38.0355065091451,145.80737013858817L38.50219984054566,153.4536879467126L39.124457615746394,131.82195527900572L39.35780428144667,122.40251222684185L39.43558650334676,130.66139156745095L39.980062056647405,129.62978355128357L40.21340872234768,114.39119029185065L40.36897316614787,121.82292063289705L40.99123094134861,126.22540014471303L41.224577607048886,136.0815972182741L41.30235982894897,126.59216230110482L42.0023998260498,125.82119583123578L42.15796426984999,133.46775448867604L42.235746491750085,133.87783640064526L42.31352871365017,134.0332835613048L42.85800426695082,134.84201772104535L43.24691537645128,131.65992116976582L43.402479820251465,124.94630627781487L43.48026204215155,119.03893136157245L43.79139092975193,124.2701610131571L44.18030203925238,117.01948703383212L44.25808426115248,120.63935202238797L44.49143092685276,126.83800810468531L44.958124258253314,126.74138326773414L45.0359064801534,127.89159294729245L45.19147092395359,125.89590376157707L45.42481758965386,123.17163954957397L45.58038203345404,110.2357972036948L45.658164255354144,108.8105501265323L45.813728699154325,105.92724776535199L45.969293142954506,103.80105280864223L46.0470753648546,100.58303071763706L46.59155091815525,100.45307597765212L47.21380869335598,106.99234882922943L47.29159091525608,107.46421617692965L47.36937313715617,116.71459821787668L47.680502024756535,111.74964983211525L48.45832424375746,120.58570838955397L48.536106465657554,110.39770419671623L48.69167090945774,108.60172777678753L49.0027997970581,98.22672450924341L49.236146462758384,106.54158928153215L49.31392868465847,95.79297484138894L49.39171090655857,108.64158905600408L49.62505757225885,116.37630175426659L50.55844423505995,110.11250987337529L51.02513756646051,110.03286040943911L51.25848423216078,102.1364693957639L51.41404867596096,106.54162110042884L51.49183089786106,87.54566033348382L51.64739534166124,86.57220892324223L51.95852422926161,101.41445705648492L52.26965311686198,106.12704531403648L52.42521756066217,97.19084570916004L52.814128670162624,87.9662834902547L53.90307977676392,69.58343377534702L54.29199088626438,47.521431125273836L54.369773108164466,45.01058267337737L54.680901995764835,62.796435240661296L54.758684217664936,89.50040066274718L55.0698131052653,84.07469588347836L55.14759532716539,85.21493758382994L55.30315977096558,87.45192636139542L55.53650643666585,95.63496095027755L55.925417546166315,99.12567745312496L56.00319976806641,94.37552069960385L56.080981989966496,87.57990718997911L56.46989309946696,84.44620965352418L56.54767532136705,100.67575692834086L56.625457543267146,110.277154524525L56.85880420896742,103.61310066340533L57.55884420606825,95.27878337489123L57.71440864986843,81.5385621396086L58.18110198126899,95.94833043632559L58.64779531266954,94.21672573194672L58.72557753456964,89.28944790975626L59.19227086597019,103.36815188773731L59.42561753167047,103.86109802846471L59.73674641927084,102.93778272613793L60.0478753068712,111.76415959576804L60.203439750671386,92.4788579912386L60.514568638271754,91.83170617692535L60.59235086017185,98.08707023581063L60.67013308207194,97.77566105471695L60.82569752587213,94.56645123056838L61.214608635372585,91.06258169869398L61.60351974487305,93.35066539896742L61.681301966773134,95.49693292161945L61.759084188673235,79.8136217341387L62.925817517174615,61.18938315872035L63.47029307047526,68.0452050991611L63.936986401875814,79.82297366941349L64.01476862377591,88.7325989397943L64.17033306757608,82.10550141972854L64.32589751137627,77.85172370985711L64.63702639897664,75.17658659175142L65.33706639607747,79.47102388918366L65.49263083987766,73.61109953120807L65.57041306177774,73.12653843006662L65.80375972747802,68.1201446169931L66.27045305887857,66.21647544508676L66.89271083407932,61.548802355971006L66.9704930559794,60.980584922420974L67.20383972167969,52.41763017634763L67.28162194357978,52.01573672542476L67.98166194068061,46.07645042325328L68.0594441625807,45.02371270711424L68.91504860348172,65.36139778515877L69.14839526918199,66.0267704900138L69.22617749108208,68.45167908564068L69.38174193488227,61.634222648035646L69.53730637868244,60.96068626308747L70.62625748528374,71.4535049080119L71.01516859478421,63.68798931377458L71.17073303858439,66.4332368371338L71.40407970428467,67.17578673135527L71.55964414808484,63.81832389440163L71.94855525758531,65.02184646310532L72.0263374794854,61.06157804760919L72.49303081088595,56.587917800892825L72.64859525468614,41.244287581990875L72.72637747658624,46.19577685005535L72.88194192038642,37.30358567509896L72.9597241422865,46.649722037841315L73.19307080798679,63.02248130840938L73.34863525178697,64.01486105359884L73.73754636128743,61.08097342747486L73.81532858318754,49.37672653677521L74.51536858028837,54.98681167137187L74.67093302408854,53.03326941933307L74.98206191168892,56.73969670048092L75.059844133589,64.68988890025477L75.13762635548909,69.46518212710843L75.44875524308947,82.04204483662518L75.75988413068983,87.49879612150951L75.83766635258992,85.77185544425357L76.0710130182902,84.90189902698953L76.22657746209038,71.12712104735209L76.30435968399048,72.60670629220476L76.38214190589058,74.97151188204654L76.45992412779066,65.35785721264973L76.53770634969075,56.00628366629407L76.61548857159086,61.61866298906911L76.77105301539103,54.874349491925116L76.84883523729113,50.25751053978851L77.23774634679158,62.29430606551135L77.31552856869168,54.709639979458316L77.62665745629204,42.47253320468195L77.86000412199232,48.763198306854804L78.0155685657925,60.53952837116155L78.48226189719307,66.93409271563628L78.63782634099324,62.494558731224004L79.0267374504937,63.19389000733048L79.33786633809407,57.78915660946191L79.41564855999417,60.786456193459244L79.57121300379436,65.53186706632972L80.50459966659545,73.20688762450536L81.04907521989611,66.6213791854739L81.12685744179619,51.118389543135194L81.28242188559639,41.226263286650266L81.36020410749647,49.551453059939575L81.43798632939657,38.4501684779751L81.51576855129666,51.400316660835216L81.67133299509685,54.764100179710155L81.90467966079711,39.68901516437677L82.21580854839749,46.37851978058353L82.29359077029757,43.584793034553485L82.60471965789795,34.36924209087928L82.83806632359823,37.73298683079503L83.1491952111986,34.00667916877498L83.38254187689887,33.06985244191213L83.46032409879896,35.80472017267928L83.53810632069906,44.93316595284668L83.61588854259915,57.56503775199366L83.69367076449923,50.26386496677435L83.84923520829943,54.26061974325329L83.92701743019951,61.37910137929073L84.0047996520996,53.66827875477381L84.23814631779989,61.819427387253526L84.31592853969998,75.04462130355554L84.39371076160006,77.41801013046074L84.54927520540026,93.61788526727943L84.70483964920044,84.06148578686975L84.78262187110053,72.00970967637252L85.32709742440117,71.61174022888396L85.56044409010146,68.09303596366675L85.87157297770182,76.52357874461846L86.1049196434021,80.5639675672472L86.26048408720229,71.00507007634855L86.41604853100247,58.944857833086104L86.72717741860284,45.389888459741314L87.03830630620321,50.523918152451586L87.27165297190348,56.77909766072173L87.34943519380359,66.63485349706235L87.42721741570367,67.64432756618746L87.50499963760376,50.30897802222151L87.97169296900431,63.62068982862927L88.43838630040487,61.575837552914564L88.59395074420505,50.057777300148274L88.67173296610514,54.437696138196046L88.98286185370551,57.74947951134335L89.2162085194058,51.11666622982959L89.29399074130588,50.4016314797812L89.52733740700616,40.843675623313004L89.60511962890625,48.28901706278032L89.68290185080635,50.789662348964356L89.83846629460653,71.59798773824343L89.9940307384067,65.52763085768193L90.46072406980726,95.5529486426629L90.69407073550754,99.27579283497691L90.77185295740763,113.1967769440897L91.00519962310791,113.95965155439278L91.082981845008,121.71006469022372L91.16076406690809,130.69770293052377L91.31632851070829,128.15246437668412L91.39411073260837,114.93215216607011L91.86080406400892,106.5767248824494L92.17193295160929,119.92137272424759L92.24971517350939,96.71268194219053L92.40527961730957,72.9564983331475L92.56084406110975,60.37117497100748L92.71640850490995,56.114738269969365L92.79419072681003,66.15716912504656L92.87197294871012,72.56456826689212L92.94975517061022,75.42244973446093L93.0275373925103,55.71558591133618L93.26088405821058,55.57843950480782L93.41644850201078,64.95845169987558L93.57201294581095,69.14717337297996L93.80535961151124,62.86610574445427L93.96092405531141,58.2106067020415L94.0387062772115,51.575993031705494L94.11648849911161,49.19860113935724L94.58318183051216,49.278105353324435L94.66096405241224,57.88960450786884L94.81652849621243,57.64104915716166L95.04987516191271,66.96917360503306L95.36100404951307,65.33417169105437L95.59435071521335,77.88535577459376L95.82769738091362,61.38273665741106L95.90547960281373,79.24925354284362L96.0610440466139,82.50546258827347L96.21660849041409,73.51613681545015L96.37217293421428,69.34117079093242L96.76108404371473,67.09439326414913L96.99443070941501,72.40209352873399L97.1499951532152,64.27710352720177L98.31672848171658,49.746483676410406L98.62785736931694,44.03828820443715L98.78342181311714,44.6734058907692L98.86120403501722,31.38837487536344L99.1723329226176,45.33553159333769L99.32789736641777,47.906088249075054L99.40567958831787,56.2990878279208L99.63902625401815,45.95016591630477L99.79459069781832,63.30937884876148L99.95015514161852,67.7640228876109L100.18350180731879,66.04671483337425L100.33906625111898,47.32496504019733L100.41684847301907,53.16976151015609L100.57241291681926,44.292591580150855L100.88354180441962,46.03445246745119L101.19467069201998,50.3368627895662L101.73914624532064,55.74187529846219L101.81692846722073,57.66497351346301L101.89471068912081,66.45866965209872L101.97249291102092,63.651190422816086L102.1280573548211,55.54584835498743L102.36140402052138,53.52814776978961L102.43918624242147,52.2516579032324L102.51696846432156,47.30312397097072L102.75031513002185,39.79568626466573L102.82809735192193,50.391377984252756L102.90587957382202,60.20675362254971L102.98366179572211,52.8834463157869L103.60591957092285,43.610480895235526L103.68370179282294,49.88838093477702L103.91704845852323,65.46058824817254L104.46152401182385,58.461437461914215L104.69487067752414,58.79561494042112L105.31712845272489,77.8653730585567L105.39491067462497,67.90317833311543L105.55047511842517,70.09121440518575L105.62825734032525,70.85130369804943L105.70603956222534,67.71553391974649L105.93938622792562,66.63910792862566L106.01716844982572,56.439637745307834L106.17273289362589,68.17964077251037L106.32829733742608,60.126018206428355L106.71720844692655,73.61797288648278L106.79499066882663,61.2483594189801L107.106119556427,54.399009023939215L107.1839017783271,60.509493023651984L107.26168400022718,41.53161335315846L107.33946622212729,42.034767778526884L107.57281288782755,45.79337680220425L107.65059510972765,25.74677065463689L107.72837733162774,26.73603403934601L107.96172399732801,18.008504420737665L108.0395062192281,31.8589138425196L108.66176399442884,44.95366147264011L108.97289288202921,46.93456624542864L109.1284573258294,42.028134697170316L109.28402176962959,38.48879528836352L109.36180399152967,35.665227298685494L109.59515065722995,28.67506435672533L109.82849732293023,36.141289539492874L109.90627954483033,43.02621153894614L109.98406176673042,52.05366867719607L110.0618439886305,38.73089041290072L110.29519065433078,33.70196103019725L110.91744842953153,42.97987744606519L111.0730128733317,57.2591649466072L111.22857731713188,43.7132303697432L111.38414176093208,38.77109923776874L111.46192398283216,28.306218683340717L111.69527064853244,28.158102739865143L111.85083509233263,42.64126196829642L112.00639953613282,44.90023707212271L112.39531064563327,51.031437920209584L112.93978619893392,49.88567748544506L113.01756842083401,46.47815335403175L113.25091508653429,46.31151767723762L113.40647953033448,52.09260917772326L113.87317286173503,42.15904965622906L113.95095508363512,45.04638660803428L114.1065195274353,33.71257479484447L114.26208397123548,32.556378191092165L114.57321285883586,35.42890209318088L114.88434174643623,38.08168300271626L115.03990619023641,55.642373352559915L115.42881729973686,53.01674311226945L115.50659952163696,46.95878577392068L115.58438174353707,54.99736074836257L116.1288572968377,50.06716270835619L116.20663951873779,50.49501240775356L116.67333285013835,57.17980889401461L116.98446173773873,38.905248011639316L117.0622439596388,54.457272764954055L117.1400261815389,45.23490236034496L117.84006617863973,54.478066242019636L117.9956306224399,37.3808694769738L118.22897728814019,42.32607766478236L118.69567061954073,49.64525224088683L118.77345284144084,48.37956957579462L119.0845817290412,53.23106478438574L119.31792839474149,45.12655699612378L119.39571061664157,38.85801121302649L119.47349283854167,26.68436562927178L119.70683950424194,11.333664485651667L120.56244394514296,15.223023537969965L120.79579061084323,22.65425676685149L121.02913727654351,27.474592925752432L121.1069194984436,45.065414341107726L121.1847017203437,48.10682809568746L121.41804838604398,46.75073205279625L121.49583060794406,36.650517337316245L121.57361282984415,36.91063764270584L122.74034615834555,29.90738294693179L122.97369282404581,37.533437010392106L123.129257267846,44.79878877342685L123.2070394897461,47.26461745803127L123.36260393354627,51.67935625918933L123.44038615544638,46.93144955805124L123.67373282114664,51.804892375627816L123.90707948684692,50.76206960375228L123.98486170874702,60.19450791228887L124.1404261525472,48.34441365045561L124.29599059634738,53.54264625685795L124.45155504014757,69.79057804269844L124.60711948394776,59.263120636882945L124.84046614964804,47.8141277067468L124.99603059344821,54.77599276376186L125.1515950372484,47.93328819298878L125.30715948104859,42.72962558947165L125.46272392484876,63.142758142407956L125.61828836864896,98.85632333084015L126.39611058764987,103.11452476316005L126.70723947525025,122.81024781301159L127.01836836285062,130.86147294762992L127.0961505847507,129.35547652352543L127.1739328066508,124.40454411994587L127.32949725045098,131.4734413190743L127.56284391615125,140.63317662589066L127.79619058185153,126.21736376054498L127.95175502565172,105.57226039152417L128.185101691352,106.99078338946397L128.65179502275254,94.01345811951138L128.80735946655275,94.68411221450681L128.9629239103529,88.80075508202327L129.040706132253,75.37078379715193L129.2740527979533,77.23102649962578L129.35183501985338,82.26907017140911L129.42961724175348,68.76947219556996L129.66296390745376,56.86785295986611L130.28522168265448,63.81126797152727L130.67413279215495,63.58303804161672L130.82969723595514,72.10768279163575L131.2963905673557,67.29464646795938L131.60751945495605,66.92393604478919L131.68530167685614,55.459596618126795L131.76308389875624,48.27380273136009L131.84086612065633,44.366715285516875L132.30755945205686,36.72028320382273L132.54090611775715,48.46060116902606L133.0853816710578,53.44530816528642L133.240946114858,51.75069154425765L133.47429278055827,43.26066514906091L133.55207500245837,53.5813002497063L133.78542166815865,62.058903048073915L133.86320389005874,62.65994624444468L134.25211499955918,65.67582865151779L134.32989722145928,79.72239399334705L134.40767944335937,74.0009268371934L134.64102610905965,79.32932197574497L134.87437277475993,67.25982962488025L134.95215499666003,70.70893312612134L135.02993721856012,58.29053068253587L135.1077194404602,54.914138139363416L135.18550166236028,63.31922669670132L135.65219499376084,65.21557645500044L136.1188883251614,42.01628159913395L136.58558165656194,40.44171368893245L136.89671054416232,47.62829250227779L137.0522749879625,62.26245797489062L137.44118609746297,51.20195426797787L137.75231498506335,54.62147761924571L138.29679053836398,44.267704146038625L138.45235498216417,56.2684670674287L138.68570164786445,63.073311276450596L138.84126609166464,58.03434402236489L138.91904831356473,60.08490166898305L139.152394979265,57.5235298662443L139.2301772011651,29.159327520578216L139.38574164496526,32.57488829218619L139.46352386686536,44.39977578540265L139.69687053256564,39.404106898935936L141.0191683048672,39.2157119946923L141.09695052676733,69.85095210630168L141.1747327486674,58.85348983953793L141.2525149705675,59.240122328523555L141.56364385816786,41.31588324016107L141.79699052386815,35.72318263152354L142.1081194114685,34.65249214002836L142.1859016333686,49.72021347163141L142.2636838552687,20.14194194617866L142.57481274286906,29.884818297639754L142.65259496476915,37.261670294088105L142.73037718666924,37.20237004725465L142.88594163046943,54.417736051264114L143.04150607426962,46.53401951488934L143.1970705180698,56.87574697358555L143.35263496186997,62.441284182494556L143.97489273707072,78.5118883391031L144.3638038465712,69.48316460887692L144.44158606847128,69.93785586427458L145.1416260655721,64.01538267627511L145.2194082874722,58.781384112492745L146.0750127283732,66.34869916175045L146.4639238378737,75.5830388856785L146.69727050357395,75.36910653462458L146.77505272547404,81.46467540478216L147.00839939117432,80.51565793536093L147.1639638349745,73.7813952496996L147.2417460568746,47.670620028560705L147.86400383207533,39.32813310651096L147.94178605397542,43.563538485828616L148.0195682758755,36.28220053228469L148.0973504977756,47.244555172683675L148.3306971634759,43.28814276706933L148.48626160727605,39.97553725133085L148.56404382917617,27.116172861259543L148.64182605107627,45.87639160134995L149.264083826277,39.885017450021905L149.65299493577746,51.42138735329904L149.73077715767755,34.48615996911886L149.96412382337783,24.02888971080489L150.50859937667846,37.00067950903281L150.66416382047865,34.64173255578277L151.4419860394796,28.52495282973834L151.83089714898006,24.505332229554L151.90867937088012,30.443358565019196L152.0642438146803,39.591511178337385L152.1420260365804,42.69586109859807L152.60871936798097,45.76422758543839L152.68650158988103,42.127556165421055L153.1531949212816,56.34433273986011L153.23097714318172,49.80434252510426L153.93101714028253,32.32452417475315L154.24214602788288,42.78768380279985L154.3977104716831,45.20796650899885L154.70883935928344,51.22946513410555L155.4088793563843,51.4004085755863L155.56444380018448,42.9507360665412L155.79779046588476,42.57885697922035L155.95335490968492,42.41602201598252L156.031137131585,32.25609730320758L156.42004824108545,42.40992139336478L156.65339490678573,39.251165108700235L157.0423060162862,40.697138696725375L157.19787046008642,35.99186284971731L157.50899934768677,37.99360156844281L157.66456379148696,31.840986267732745L157.74234601338705,32.209676632927625L157.82012823528711,36.799220835676465L157.97569267908733,37.08061611852207L158.13125712288752,27.64831726002936L158.52016823238796,30.23892368088022L158.75351489808824,47.894312020797486L158.90907934188843,55.275049968901214L159.1424260075887,64.63577849307772L159.375772673289,45.991898417565864L159.68690156088934,61.167196507245805L159.92024822658962,114.46489996097561L160.23137711419,135.40846460495786L160.3091593360901,147.95783600623525L160.38694155799018,158.09597084776988L160.93141711129084,164.33984873350357L161.086981555091,162.8005080594167L161.2425459988912,181.73126941975798L161.55367488649156,191.52159502355101L162.0203682178921,173.04975514460227L162.09815043979222,155.3677056545217L162.40927932739257,148.99663924672106L162.72040821499294,140.3734846706639L162.95375488069323,127.33162904352969L163.03153710259332,140.15264008184596L163.1093193244934,134.4095884669872L163.18710154639348,139.9448117821068L163.3426659901937,122.18951700026585L163.57601265589395,132.2737221865828L164.1204882091946,126.50277272174898L164.1982704310947,140.55566796434687L164.58718154059514,136.84832327320976L164.74274598439536,138.0043929424297L164.82052820629542,139.09115973812675L164.89831042819554,126.5141735475165L165.59835042529636,122.52592902459233L165.90947931289674,116.09061841315184L165.9872615347968,96.73458401436302L166.06504375669692,99.04510222507258L166.14282597859702,99.78871007507195L166.2983904223972,106.90960893257785L166.68730153189765,99.75146010662975L166.76508375379774,97.26314926569496L166.92064819759793,91.94943642746145L166.99843041949802,103.13173085829536L167.07621264139812,101.46084767032855L167.3095593070984,88.03949315179551L167.46512375089858,76.33351246920276L167.54290597279868,68.49769854906356L167.62068819469874,71.45956940523617L168.3207281917996,72.18363462155051L168.55407485749984,60.96048809579467L169.2541148546007,95.91658165978104L169.72080818600125,83.84407368911994L169.79859040790134,91.82124194441367L170.2652837393019,87.20036616928734L170.34306596120197,86.64919584643651L170.42084818310207,69.8279103953202L170.57641262690225,67.51405976342292L171.04310595830282,75.93305800244316L171.50979928970338,76.64794618601049L171.58758151160345,66.34251612056379L172.2098392868042,74.85838570085261L172.2876215087043,65.82743536457458L172.52096817440457,65.91546179382662L172.75431484010483,76.50282429321504L173.06544372770523,76.37890595104327L173.2210081715054,62.90821686515228L173.53213705910576,56.8005093216577L173.99883039050633,48.68532811809226L174.3099592781067,49.489868181809726L174.38774150000677,58.966166758339256L174.62108816570705,59.61153511349663L174.77665260950724,45.24197276121063L175.00999927520752,56.59725227205445L175.32112816280787,49.87004041266192L175.47669260660808,47.821004633217996L175.63225705040827,78.59367956364838L175.71003927230834,82.69125181494955L175.78782149420843,71.34976487780878L176.3322970475091,60.86042603149123L176.48786149130927,59.95129671678127L176.56564371320937,54.883565966005946L177.03233704460993,51.69288736514444L177.11011926651,47.296302164921485L177.1879014884101,61.36164491229363L177.34346593221028,64.91160181545094L177.49903037601047,60.9010062666827L178.4324170388116,63.616277413254906L179.1324570359124,73.19361315316758L179.44358592351279,55.2978749820241L179.83249703301325,68.81071371754884L179.91027925491332,65.55140230696666L180.2991903644138,71.47852504026389L180.37697258631388,64.83107070268304L180.45475480821398,78.3184945731743L180.76588369581435,62.94868674994717L180.84366591771445,64.92427295129272L181.31035924911498,58.90055053202151L181.62148813671536,55.405833006738376L181.69927035861545,67.78480887387882L181.77705258051554,49.05090471548402L181.93261702431573,57.802578066139375L182.01039924621583,54.23804678092745L182.3993103557163,73.37378367976885L182.63265702141658,73.38570786067466L182.78822146521674,58.549084021492675L183.02156813091702,59.102570394676974L183.2549147966173,56.22481242363445L183.48826146231755,50.01378056047827L183.64382590611777,56.20488153183936L184.1105192375183,58.31151329689909L184.1883014594184,66.57505804798926L184.34386590321859,48.0765477711235L184.49943034701877,40.165925997166624L185.19947034411962,41.169009765788616L185.27725256601968,33.027228131473294L185.35503478791978,30.8903865529698L185.4328170098199,48.09057093430769L186.52176811642116,41.26127015603811L186.83289700402156,33.198109452608634L187.1440258916219,37.30911689599728L187.221808113522,31.23933059537802L187.45515477922226,42.62640115844272L187.53293700112238,47.793552893517045L187.76628366682266,58.57123983462071L187.92184811062282,61.976020725429365L188.077412554423,54.084193608265L188.46632366392348,51.766980493583986L188.69967032962376,60.56854519354806L188.85523477342392,72.3563780516508L188.93301699532404,61.270542601845776L189.0885814391242,54.937689235149435L189.32192810482448,57.946342849396984L189.55527477052476,38.8058890411304L189.71083921432495,32.82659523465475L189.94418588002523,30.930338419257595L190.1775325457255,41.09162688934546L190.25531476762558,26.466650909217407L190.48866143332586,41.952803697110795L190.72200809902614,34.2993484805678L191.3442658742269,34.02370953645689L191.42204809612696,26.495842492854223L191.57761253992717,37.85675384576058L191.96652364942764,43.48135713895985L192.35543475892808,54.10008656458241L192.43321698082818,62.09505182567892L192.51099920272827,55.26333356788365L192.66656364652846,35.02987078504677L192.74434586842855,44.24163282815127L192.89991031222874,34.760194053148126L193.0554747560289,45.448290094869435L193.28882142172918,43.433713330869466L193.3666036436293,37.93788479122239L193.67773253122965,43.24930217845687L194.06664364073012,50.390366515546674L194.22220808453028,51.2600765726239L194.68890141593084,50.7951515666702L194.76668363783097,41.12164150340084L194.84446585973103,40.060650256787L194.92224808163112,52.67939931840618L195.00003030353122,54.17368461061905L195.2333769692315,54.79505592677424L195.3889414130317,50.804524878372916L195.62228807873194,26.8639598098419L195.70007030063206,32.75486330284804L195.93341696633235,30.880418191062063L196.0889814101325,37.80160476242031L196.2445458539327,39.31803625489431L196.3223280758328,24.575797705510098L196.40011029773288,21.352251393596134L196.71123918533326,30.887792174547087L197.0223680729336,28.773000940068272L197.10015029483372,29.934104428682787L197.17793251673382,36.69308061038009L197.48906140433417,37.03250661013729L197.5668436262343,32.32980650296352L197.72240807003445,27.090015417621004L197.80019029193454,20.383769476818486L197.95575473573473,26.620375830346603L198.03353695763482,20.782886409710244L198.11131917953492,17.59133220226019L198.2668836233351,30.304443721077632L198.3446658452352,30.431165436170886L198.5002302890354,37.12014825835317L198.73357695473567,65.30085952888665L198.88914139853583,48.136149347564384L198.96692362043595,39.91838145027265L199.43361695183648,41.35608913296619L199.51139917373658,35.56624865870637L199.58918139563664,44.877876130520036L199.90031028323705,49.44554377442924L200.0558747270372,51.69089580829397L200.2114391708374,37.577287258650784L200.52256805843777,42.35115079371806L201.06704361173843,63.044881588526025L201.3003902774387,56.79422515721744L201.45595472123887,51.022259605596815L201.61151916503906,54.20187907663875L201.68930138693915,54.00221910488749L202.00043027453953,47.33047445975717L202.1559947183397,50.59497546638737L202.2337769402398,33.752568374991455L202.3115591621399,44.60765597618476L202.54490582784018,46.26762383142329L202.62268804974025,46.531840940035266L202.85603471544053,52.97120924175759L202.93381693734065,48.192195313053276L203.1671636030409,47.10250916243726L203.4005102687412,64.09145314029466L203.71163915634156,56.45812856678525L204.1783324877421,57.7617951513333L204.2561147096422,63.1480435759492L204.48946137534247,43.38227069782414L204.56724359724257,27.096398025852125L204.72280804104275,36.249136618342675L204.87837248484294,30.616586283052442L204.956154706743,56.348473126778444L205.11171915054322,44.31297621770793L205.1895013724433,55.778307124358946L205.34506581624348,43.345450982411506L205.42284803814357,41.624723895368675L205.5006302600437,31.429956190249698L205.57841248194376,43.20487561455724L205.73397692574397,45.76349009524526L205.88954136954413,50.97839967825277L205.96732359144423,57.05607937366L206.2784524790446,45.92525183252553L206.35623470094467,41.41859886044787L206.51179914474488,44.06761277008053L206.74514581044514,46.95795420755269L206.90071025424535,50.594311204254126L207.1340569199456,51.152815131050176L208.06744358274673,53.57557083142186L208.37857247034708,50.392359999434404L208.61191913604736,45.43195311986614L209.00083024554783,43.0618582717033L209.156394689348,40.11486187519148L209.38974135504827,39.22725454117321L209.85643468644884,34.48863639615311L209.93421690834893,27.34620537441694L210.08978135214912,33.76038984220341L210.32312801784937,33.3839656035569L210.55647468354965,27.127778142929685L210.63425690544977,33.86220342783895L210.71203912734984,37.1344485489856L211.41207912445068,23.56335408438875L211.48986134635078,21.14702496267472L211.56764356825087,30.828180313201358L211.64542579015097,38.822756949950644L211.80099023395115,37.56642833623326L211.9565546777513,42.36656350965296L212.1899013434516,52.41573060837203L212.57881245295206,39.6383997642981L212.73437689675225,32.85597943944657L212.81215911865235,37.28382277316976L212.88994134055244,41.18762976819957L212.96772356245253,36.467327219485895L213.58998133765326,41.43692829940355L214.29002133475407,37.56422760692237L214.67893244425457,49.77596970732856L215.3011902194553,55.08802550125566L215.3789724413554,52.45555524865563L215.61231910705567,55.336964744544034L215.92344799465602,44.63113278614614L216.1567946603563,28.210052161606257L216.4679235479567,29.192485674177675L216.70127021365695,35.589010689951664L216.93461687935724,40.75894824216758L217.01239910125733,34.64902920238433L217.0901813231574,39.66161705894075L217.2457457669576,40.94579314651233L217.86800354215833,34.16606415023293L218.02356798595852,34.07888470592815L218.1791324297587,36.95503883591422L218.3346968735589,25.513615535675854L218.72360798305934,36.63943722655836L219.1125190925598,36.62387811826005L219.73477686776056,45.649926837548094L219.81255908966065,51.33648737846708L219.89034131156072,37.129965584507715L220.20147019916112,37.20723542916207L220.4348168648614,42.921422422488604L220.66816353056166,44.35825454938603L221.29042130576238,40.47777979367959L221.4459857495626,56.55702339462806L221.75711463716294,54.905669537655115L221.83489685906306,53.81127708942857L221.91267908096313,50.10880301993038L221.99046130286322,44.263950435601004L222.1460257466634,46.53658001718472L222.3015901904636,56.240371216754525L222.53493685616388,55.72343768709372L222.76828352186416,39.298492390028855L222.84606574376423,50.191532284529615L223.00163018756444,37.52808579233468L223.1571946313646,23.31205357414771L223.70167018466526,51.33545668447978L224.01279907226564,64.24090175979963L224.16836351606582,66.09896815206906L224.32392795986598,48.84938092500548L224.47949240366617,44.55487361766163L224.55727462556627,39.84088563764189L224.71283906936645,39.76705342251714L224.94618573506673,36.282281691178014L225.10175017886692,41.35034106698623L225.3350968445672,37.350974753897304L225.49066128836736,56.232135910707726L225.72400795406764,52.07010783913097L225.80179017596777,47.7417705099827L225.87957239786783,43.82819248291432L226.65739461686874,49.726302202294875L226.73517683876887,52.573128316799824L226.89074128256902,56.4204703733685L226.96852350446915,50.230799413279726L227.0463057263692,49.938940062946756L227.1240879482693,47.8174329460482L227.3574346139696,48.92392718115508L227.43521683586968,45.90944620456102L227.59078127966987,43.405175799598936L227.82412794537012,41.37229289618617L227.97969238917034,56.33562413748918L228.13525683297053,39.25078926209025L228.29082127677069,26.02424299112124L228.99086127387153,24.507795935827858L229.06864349577162,20.432163880129764L229.3019901614719,20.963341115188967L229.45755460527207,24.05179118545766L229.61311904907225,33.36309694316935L229.76868349287247,41.08677666029948L229.92424793667263,50.961238175477874L230.00203015857272,46.95610834742513L230.235376824273,43.76278169941736L230.70207015567357,31.395738121754363L230.77985237757366,43.714598511518034L231.090981265174,36.948378600247224L231.3243279308743,29.400183037130205L231.55767459657457,18.19158919278547L231.71323904037476,25.752770718600686L231.79102126227482,21.250969932065715L232.10215014987523,36.81545436403283L232.41327903747558,25.06976562444342L232.64662570317586,28.909320618332202L232.72440792507595,31.507338930347288L232.80219014697605,44.991277191143126L232.87997236887614,34.37986860580011L233.11331903457642,30.676467420664437L233.42444792217677,28.909801491608192L233.58001236597696,37.09494892869537L233.89114125357733,47.32445592587081L233.96892347547745,33.55001261399963L234.1244879192776,51.16443439360786L234.2022701411777,42.908837011397736L234.59118125067815,28.539883097556668L234.82452791637843,26.374626770464914L234.90231013827855,34.59845110867636L235.0578745820787,32.05495122047074L235.2134390258789,21.200574148435123L235.3690034696791,14.406852782014425L235.44678569157918,22.839053196223574L235.68013235727946,30.713904469953462L235.75791457917956,38.40373403586449L235.91347902297974,32.24705767557856L236.14682568868002,25.717920086329514L236.2246079105801,26.552668752141983L236.38017235438028,31.113890037349222L236.84686568578084,23.71003494767791L237.08021235148112,32.496747638218636L237.3135590171814,46.759718243041334L237.39134123908147,31.424807989133598L237.70247012668187,58.852849933004094L238.1691634580824,43.07520598271731L239.1803323427836,34.87404324167386L239.49146123038398,28.175893773387997L239.64702567418416,19.69426045394269L240.03593678368463,21.733792290682942L240.26928344938491,33.99641012944787L240.42484789318507,35.52504512284841L240.73597678078548,15.517935001675795L241.12488789028592,22.076399777389298L241.4360167778863,33.29688485528561L241.74714566548664,31.514069265183622L241.98049233118692,37.96845683513229L242.68053232828777,37.93954202089856L243.1472256596883,16.208507235979198L243.9250478786892,22.712322661291324L244.00283010058934,36.1469888053046L244.08061232248943,27.615920980645797L244.3139589881897,34.50025617689994L244.39174121008978,42.52501074927392L244.78065231959025,45.158496060886705L244.93621676339043,33.72846580017665L245.2473456509908,24.929457941886426L245.32512787289087,38.194138851063286L245.402910094791,46.30268427420481L245.4806923166911,58.96292079478373L245.55847453859116,65.201470488743L245.63625676049128,59.26746232248942L245.71403898239134,46.88798947965293L246.3362967575921,45.79307123853954L246.56964342329238,41.25387025971793L247.03633675469294,42.56687325803503L247.3474656422933,44.428587127390756L248.1252878612942,40.57979445215125L248.20307008319432,28.561219507087202L248.2808523050944,38.77257888389323L248.82532785839504,32.94204667903912L249.2142389678955,37.85681052549262L249.4475856335958,49.231303810870685L249.60315007739598,57.67008227890581L249.68093229929607,51.884313358335746L249.75871452119614,47.27132569549997L249.83649674309626,43.67580461117515L250.1476256306966,45.67892857924437L250.76988340589736,29.09119368860786L250.84766562779745,37.643554320521986L251.0810122934977,32.513607073267025L251.23657673729792,39.51185825777304L251.314358959198,46.506696668263345L251.4699234029982,46.75019481215929L251.85883451249865,46.329558599819535L252.4033100657993,50.83945214915882L252.55887450959946,44.57356486526555L252.79222117529974,52.016238523008965L252.94778561909993,57.04061242490616L253.3366967286004,26.94526507797434L253.57004339430068,26.250287288367076L253.80339006000096,19.06977740863755L254.50343005710178,23.584743372729974L254.58121227900187,39.306556080890175L254.81455894470216,49.07722319688989L255.04790561040244,44.370208532681715L255.20347005420263,40.363583388355465L255.2812522761027,41.125253510114675L255.74794560750325,53.12623569352556L255.98129227320354,49.37233064842212L256.05907449510363,46.32477927246296L256.2146389389038,34.26002519088581L256.4479856046041,35.24995938753227L256.60355004840426,33.5671617374594L256.75911449220445,39.02645589057968L256.99246115790476,47.45868613510896L257.0702433798048,47.364994455232136L257.14802560170494,61.51391576873456L257.6925011550056,59.95653087336919L258.081412264506,46.87231439061475L258.2369767083062,49.01104505038214L258.31475893020627,37.608605280222264L258.3925411521064,33.62684078349332L258.70367003970676,32.65071710229799L258.7814522616069,47.70677115195221L259.1703633711073,51.446338918850344L259.2481455930074,50.66190636447011L259.55927448060777,46.93835588072852L259.7926211463081,54.523001812922956L259.87040336820814,54.04724440240196L260.02596781200833,53.77486557789139L260.57044336530896,47.53873117359478L260.648225587209,54.77545973190847L261.0371366967095,47.967760289978145L261.97052335951065,37.69483240172954L262.3594344690111,34.46711132004978L262.5149989128113,22.83036118942161L262.5927811347114,26.16580182173513L262.82612780041165,34.4997614754908L262.9039100223117,32.85519758533994L263.6039500194126,36.30089018529756L264.0706433508131,32.99359186865655L264.38177223841353,40.48423395886894" fill="none"></path></g></g></g></g><g opacity="0.2"><g><g><g><path style="fill: none;" fill="none" stroke="none" stroke-width="1px"></path></g><g><path style="fill: none;" fill="none" stroke="none" stroke-width="1px"></path></g><g><path style="fill: none;" fill="none" stroke="none" stroke-width="1px"></path></g><g><path style="fill: none;" stroke="rgb(255, 112, 67)" stroke-width="2px" d="M32.35740431043837,223.7210495344798L32.590750976138644,143.36003793454182L32.66853319803874,218.76049873828887L33.990830970340305,211.81570988329258L34.30195985794067,157.99368052363403L34.45752430174086,180.56420438663176L35.31312874264187,193.13095672408744L35.390910964541966,170.47774518760053L35.46869318644206,203.87882860938709L35.54647540834215,155.10005545973766L35.62425763024224,179.07605688810347L36.24651540544298,140.6317527369658L36.47986207114325,126.49414748716366L36.713208736843534,116.15966074832289L36.79099095874363,146.23599363074987L36.868773180643714,155.01736778624849L36.94655540254381,147.74188145828245L37.33546651204427,129.4704957052072L37.957724287245014,137.15934943930316L38.0355065091451,157.2496156445344L38.50219984054566,173.01709588128043L39.124457615746394,76.47521889813748L39.35780428144667,98.30167788203558L39.43558650334676,151.7929920283954L39.980062056647405,126.99023804744076L40.21340872234768,75.40043880573914L40.36897316614787,140.83844531019525L40.99123094134861,137.4900291719439L41.224577607048886,161.30070847431833L41.30235982894897,102.31145348556839L42.0023998260498,123.84851448241884L42.15796426984999,153.0331119871141L42.235746491750085,134.92711932134625L42.31352871365017,134.43102876106914L42.85800426695082,136.91133963982261L43.24691537645128,123.5178347497781L43.402479820251465,107.76805936137842L43.48026204215155,103.92362362416594L43.79139092975193,137.65540451892224L44.18030203925238,98.46705322901394L44.25808426115248,129.90156795968346L44.49143092685276,142.69862524827334L44.958124258253314,126.49414748716366L45.0359064801534,130.83465604432422L45.19147092395359,120.7894963312151L45.42481758965386,116.20101345523199L45.58038203345404,77.13661384407696L45.658164255354144,105.16374358288468L45.813728699154325,98.54968768151612L45.969293142954506,98.36071769696198L46.0470753648546,92.34901692660647L46.59155091815525,100.12055833419159L47.21380869335598,123.72450958267856L47.29159091525608,108.67159205789798L47.36937313715617,140.38372519715625L47.680502024756535,99.04574276113522L48.45832424375746,143.19469806822144L48.536106465657554,84.32946571954079L48.69167090945774,104.00632903798413L49.0027997970581,71.68000796826692L49.236146462758384,127.81699060002958L49.31392868465847,68.29029234409347L49.39171090655857,141.51758058513906L49.62505757225885,136.16725702039398L50.55844423505995,94.0852274456023L51.02513756646051,109.82905982378554L51.25848423216078,81.93182477394753L51.41404867596096,117.81316585350055L51.49183089786106,38.94033723274882L51.64739534166124,84.08142043940227L51.95852422926161,139.39159729758907L52.26965311686198,118.18523377370838L52.42521756066217,74.32562323268274L52.814128670162624,64.36322215437883L53.90307977676392,22.546889487084997L54.29199088626438,-8.929031171480602L54.369773108164466,38.586027381874345L54.680901995764835,108.3054316672486L54.758684217664936,157.82834065731367L55.0698131052653,70.19184272940964L55.14759532716539,88.13249552885718L55.30315977096558,93.17575173886628L55.53650643666585,116.57304589478181L55.925417546166315,108.05743960809707L56.00319976806641,82.22120502066616L56.080981989966496,70.19184272940964L56.46989309946696,76.42795866166995L56.54767532136705,142.20260564931226L56.625457543267146,134.84443164785705L56.85880420896742,86.5616603568397L57.55884420606825,73.95360853346193L57.71440864986843,46.38119890769323L58.18110198126899,132.8188763628006L58.64779531266954,89.78603611469282L58.72557753456964,76.68192921169594L59.19227086597019,139.39159729758907L59.42561753167047,105.1224086163046L59.73674641927084,100.57527844723057L60.0478753068712,134.34837656823797L60.203439750671386,43.13319303160634L60.514568638271754,90.17582662357597L60.59235086017185,114.09278823701536L60.67013308207194,96.97885250949867L60.82569752587213,86.35498552393926L61.214608635372585,82.09716464026786L61.60351974487305,99.20522831888414L61.681301966773134,100.9886281130315L61.759084188673235,39.68443759250647L62.925817517174615,13.535192640123142L63.47029307047526,85.58732600726387L63.936986401875814,109.95897225308426L64.01476862377591,111.52982516543071L64.17033306757608,65.14862200005857L64.32589751137627,66.96750245221455L64.63702639897664,68.33166279133155L65.33706639607747,90.45928160040717L65.49263083987766,58.61720055119217L65.57041306177774,71.8866828011674L65.80375972747802,55.3101903408369L66.27045305887857,61.34552122942618L66.89271083407932,49.60553918488833L66.9704930559794,59.52667625792819L67.20383972167969,30.507436359882263L67.28162194357978,50.98740437235165L67.98166194068061,30.879486539761075L68.0594441625807,42.33005285692229L68.91504860348172,117.39981618769963L69.14839526918199,67.72927217966053L69.22617749108208,74.65633844598148L69.38174193488227,44.19026827565838L69.53730637868244,59.23729601120954L70.62625748528374,98.30167788203558L71.01516859478421,43.81821809577957L71.17073303858439,73.45755345384286L71.40407970428467,69.07576315108922L71.55964414808484,55.22752040767671L71.94855525758531,68.10132235953932L72.0263374794854,50.92836455742524L72.49303081088595,45.141078948974496L72.64859525468614,1.9842515414554498L72.72637747658624,58.865245831330725L72.88194192038642,14.550968398253104L72.9597241422865,70.56385742863046L73.19307080798679,104.91576926406213L73.34863525178697,66.55408182509765L73.73754636128743,53.573979821841064L73.81532858318754,19.428849261283858L74.51536858028837,69.34144231825807L74.67093302408854,48.03470401287086L74.98206191168892,66.22340209245692L75.059844133589,85.03219563206034L75.13762635548909,81.68381497446698L75.44875524308947,114.22270066631407L75.75988413068983,101.46108855507481L75.83766635258992,81.35309976116825L76.0710130182902,82.67592513370516L76.22657746209038,35.8813368218741L76.30435968399048,76.39254896497732L76.38214190589058,81.02238454786952L76.45992412779066,40.759217684904826L76.53770634969075,32.0782360512417L76.61548857159086,75.97916381851842L76.77105301539103,37.61754734086992L76.84883523729113,38.44431763378773L77.23774634679158,93.0930818057061L77.31552856869168,35.30261180909483L77.62665745629204,11.161217293421629L77.86000412199232,64.85924175333992L78.0155685657925,90.67184622253706L78.48226189719307,83.29598511306453L78.63782634099324,51.13503939032569L79.0267374504937,64.9832821337382L79.33786633809407,43.95996332452418L79.41564855999417,68.45570317172985L79.57121300379436,77.67403937093415L80.50459966659545,92.84510748688356L81.04907521989611,49.77091453186668L81.12685744179619,11.45059754014028L81.28242188559639,15.915093256712112L81.36020410749647,70.8532731560071L81.43798632939657,10.045102234443192L81.51576855129666,84.53610507178325L81.67133299509685,63.37107651448264L81.90467966079711,1.1161108012995271L82.21580854839749,63.49508141422291L82.29359077029757,36.436431716419605L82.60471965789795,10.789238074858844L82.83806632359823,46.33986394111312L83.1491952111986,24.472105471292963L83.38254187689887,30.672776226202615L83.46032409879896,42.80247781830761L83.53810632069906,68.29029234409347L83.61588854259915,89.88644637685732L83.69367076449923,31.58221645228062L83.84923520829943,64.4871915734611L83.92701743019951,79.59329460459666L84.0047996520996,33.93845146997782L84.23814631779989,82.67592513370516L84.31592853969998,108.88417442035689L84.39371076160006,83.4908448868481L84.54927520540026,135.06881132910382L84.70483964920044,59.60934619108836L84.78262187110053,41.17260283136375L85.32709742440117,70.59344829740968L85.56044409010146,59.0896609932355L85.87157297770182,98.09496756847712L86.1049196434021,90.90218665432928L86.26048408720229,46.546538774013584L86.41604853100247,28.086165296055214L86.72717741860284,10.706532661040654L87.03830630620321,63.66045676120129L87.27165297190348,72.7843434487865L87.34943519380359,91.85296184698737L87.42721741570367,70.2272879067603L87.50499963760376,5.952692178408171L87.97169296900431,97.68161790267621L88.43838630040487,56.34363546665517L88.59395074420505,20.586299286842404L88.67173296610514,65.64467707967765L88.98286185370551,66.22340209245692L89.2162085194058,34.14516178353628L89.29399074130588,48.572058578412026L89.52733740700616,16.387553698755454L89.60511962890625,67.33955263209339L89.68290185080635,57.18811060791931L89.83846629460653,124.84064238198602L89.9940307384067,49.99529421311345L90.46072406980726,172.37929557291673L90.69407073550754,108.8015044871967L90.77185295740763,148.81666155068083L91.00519962310791,115.91163320851336L91.082981845008,141.5411929630438L91.16076406690809,153.69454241371156L91.31632851070829,121.6399144826957L91.39411073260837,81.10508996168771L91.86080406400892,85.19753549838072L92.17193295160929,154.0665748532614L92.24971517350939,37.32816709415127L92.40527961730957,12.171103262322163L92.56084406110975,28.168870709873403L92.71640850490995,45.22371340147666L92.79419072681003,91.85292636632937L92.87197294871012,88.959301302433L92.94975517061022,82.73496494863156L93.0275373925103,5.291261751810708L93.26088405821058,55.22752040767671L93.41644850201078,88.95926582177498L93.57201294581095,79.86493452231097L93.80535961151124,46.79461953481015L93.96092405531141,46.29849349387504L94.0387062772115,34.59988189657528L94.11648849911161,43.115523663918026L94.58318183051216,49.48153428514806L94.66096405241224,79.9240098178954L94.81652849621243,57.005065893252635L95.04987516191271,90.83722156951542L95.36100404951307,61.15066145564262L95.59435071521335,110.00030721966434L95.82769738091362,19.15717386291155L95.90547960281373,124.96464728172629L96.0610440466139,90.83718608885741L96.21660849041409,50.51497941096633L96.37217293421428,58.65860647908828L96.76108404371473,61.34552122942618L96.99443070941501,85.98300630537646L97.1499951532152,43.48753836313884L98.31672848171658,12.566712599118745L98.62785736931694,29.43262078682588L98.78342181311714,46.29849349387504L98.86120403501722,-2.6042845555146528L99.1723329226176,81.02238454786952L99.32789736641777,54.48342004791907L99.40567958831787,77.77441415244066L99.63902625401815,19.47018422786394L99.79459069781832,107.72672439479834L99.95015514161852,79.16220460979143L100.18350180731879,61.652606324491146L100.33906625111898,-0.5787292704582114L100.41684847301907,68.12495247777309L100.57241291681926,21.5784094460806L100.88354180441962,50.491384773390564L101.19467069201998,61.34552122942618L101.73914624532064,69.5717827500503L101.81692846722073,62.585641188144905L101.89471068912081,88.95926582177498L101.97249291102092,56.46764036639544L102.1280573548211,34.806556729475716L102.36140402052138,48.36541922616959L102.43918624242147,48.98547920552895L102.51696846432156,34.641216863155364L102.75031513002185,20.586263806184405L102.82809735192193,77.50277423472635L102.90587957382202,85.32154039812099L102.98366179572211,34.14516178353628L103.60591957092285,19.88356937432286L103.68370179282294,65.95176217474261L103.91704845852323,105.30548881162929L104.46152401182385,40.55257833266239L104.69487067752414,59.65068115766846L105.31712845272489,126.65952283414202L105.39491067462497,42.41272279008248L105.55047511842517,75.68978357179975L105.62825734032525,72.79615850790339L105.70603956222534,59.69198064359054L105.93938622792562,63.88483644244806L106.01716844982572,30.342061012903883L106.17273289362589,98.2190079488754L106.32829733742608,39.51906224552809L106.71720844692655,108.14009180092825L106.79499066882663,29.59799613380426L107.106119556427,36.87344698111227L107.1839017783271,76.14450368483875L107.26168400022718,-7.027445305506404L107.33946622212729,43.32219849681849L107.57281288782755,55.4106006030014L107.65059510972765,-25.546858598391196L107.72837733162774,29.267280920505527L107.96172399732801,-4.322790226164159L108.0395062192281,67.29821766551328L108.66176399442884,78.45943921661387L108.97289288202921,52.00314464982361L109.1284573258294,29.47395575340599L109.28402176962959,29.43262078682588L109.36180399152967,28.440510627587713L109.59515065722995,10.789202594200816L109.82849732293023,55.24526073668105L109.90627954483033,60.64279131690664L109.98406176673042,75.15239352560059L110.0618439886305,4.64164638433013L110.29519065433078,20.834344566980946L110.91744842953153,66.71945717207602L111.0730128733317,93.79584719888365L111.22857731713188,9.052992075204997L111.38414176093208,26.125575095812593L111.46192398283216,1.5295314284164476L111.69527064853244,27.77911568164825L111.85083509233263,79.69959465599061L112.00639953613282,50.680319277286685L112.39531064563327,66.71945717207602L112.93978619893392,46.95399865058505L113.01756842083401,37.7592570889565L113.25091508653429,45.88514382807412L113.40647953033448,66.88479703839639L113.87317286173503,16.741863549629926L113.95095508363512,52.434270125286844L114.1065195274353,4.712536739031435L114.26208397123548,29.59799613380426L114.57321285883586,42.77888318073187L114.88434174643623,44.869403550602186L115.03990619023641,100.57524296657257L115.42881729973686,46.29849349387504L115.50659952163696,31.45817607188235L115.58438174353707,75.56581415271751L116.1288572968377,37.45217199389154L116.20663951873779,51.58975950336469L116.67333285013835,74.28432374676066L116.98446173773873,-7.854215598424219L117.0622439596388,94.25053183126465L117.1400261815389,21.637449261006992L117.84006617863973,78.12872400331514L117.9956306224399,-6.366050359566941L118.22897728814019,54.979475127538166L118.69567061954073,68.37296227725363L118.77345284144084,45.1410434683165L119.0845817290412,65.64467707967765L119.31792839474149,24.389400057474774L119.39571061664157,22.818564885457334L119.47349283854167,-4.464570935566769L119.70683950424194,-27.94446406332648L120.56244394514296,25.174799903154508L120.79579061084323,41.66869339164086L121.02913727654351,39.80847797290474L121.1069194984436,90.07538088075344L121.1847017203437,55.88895083427417L121.41804838604398,43.280863530238406L121.49583060794406,10.806907442547157L121.57361282984415,37.57621237428984L122.74034615834555,11.98802306699747L122.97369282404581,57.046365379174716L123.129257267846,63.388781362828965L123.2070394897461,53.573979821841064L123.36260393354627,62.97543169702806L123.44038615544638,34.78289113058395L123.67373282114664,64.27466243198921L123.90707948684692,48.09377930845528L123.98486170874702,84.32946571954079L124.1404261525472,18.02335395558677L124.29599059634738,66.84346207181629L124.45155504014757,111.36446755878134L124.60711948394776,32.32631681203827L124.84046614964804,18.519373554547855L124.99603059344821,72.58944819434493L125.1515950372484,30.424730946064074L125.30715948104859,29.414915938479567L125.46272392484876,115.37422542198516L125.61828836864896,190.23729617953305L126.39611058764987,114.01006508286815L126.70723947525025,173.20606586583455L127.01836836285062,151.46229455542564L127.0961505847507,125.50205506825448L127.1739328066508,111.73649999833117L127.32949725045098,149.56076191043846L127.56284391615125,164.07036411913242L127.79619058185153,89.33135148231182L127.95175502565172,52.74724500958125L128.185101691352,110.6203849393527L128.65179502275254,60.808131183227005L128.80735946655275,96.40012749671939L128.9629239103529,73.74689821990347L129.040706132253,41.007262965043395L129.2740527979533,81.99086458887393L129.35183501985338,95.16000753800066L129.42961724175348,34.227796236038444L129.66296390745376,26.414955342531243L130.28522168265448,81.57751492307301L130.67413279215495,62.999061815261825L130.82969723595514,93.91985209862392L131.2963905673557,54.97943964688015L131.60751945495605,65.97539229297638L131.68530167685614,26.125575095812593L131.76308389875624,29.88737638052291L131.84086612065633,34.369576945441054L132.30755945205686,17.155213215430848L132.54090611775715,78.50077418319397L133.0853816710578,66.19977197422315L133.240946114858,47.41464403351151L133.47429278055827,21.53707447950049L133.55207500245837,79.98890394139323L133.78542166815865,83.75070522610353L133.86320389005874,64.19784680740047L134.25211499955918,73.39262384968701L134.32989722145928,115.66360566870381L134.40767944335937,59.36130091094981L134.64102610905965,92.96318711673639L134.87437277475993,36.37739190149318L134.95215499666003,79.53421930901224L135.02993721856012,26.515330124037746L135.1077194404602,46.274898856299274L135.18550166236028,84.82548531850188L135.65219499376084,70.06780234901139L136.1188883251614,-17.344191715342845L136.58558165656194,36.412837078843836L136.89671054416232,66.01672725955648L137.0522749879625,99.70717318773268L137.44118609746297,22.901234818617496L137.75231498506335,63.37107651448264L138.29679053836398,17.7753086754482L138.45235498216417,86.97504550329863L138.68570164786445,80.48499450167031L138.84126609166464,45.1410434683165L138.91904831356473,65.33170219538326L139.152394979265,50.969699524005335L139.2301772011651,-43.41669200445341L139.38574164496526,41.31434806010836L139.46352386686536,74.65633844598148L139.69687053256564,26.621594694773677L141.0191683048672,38.733662399848384L141.09695052676733,148.23791879757255L141.1747327486674,30.714075712124696L141.2525149705675,60.22940617044773L141.56364385816786,-4.54720538806896L141.79699052386815,21.41303409910222L142.1081194114685,31.91289618492135L142.1859016333686,88.27427623825979L142.2636838552687,-55.540539287986974L142.57481274286906,54.814099780559786L142.65259496476915,56.13696063375471L142.73037718666924,37.05063738720753L142.88594163046943,98.46701774835594L143.04150607426962,26.36180531683428L143.1970705180698,83.3373200796446L143.35263496186997,76.68192921169594L143.97489273707072,119.63204630565656L144.3638038465712,46.38119890769323L144.44158606847128,71.10128295548765L145.1416260655721,48.861438825130676L145.2194082874722,45.38905326779704L146.0750127283732,85.71133090700414L146.4639238378737,99.21111810811358L146.69727050357395,74.82171379295987L146.77505272547404,97.06152244265884L147.00839939117432,78.08738903673503L147.1639638349745,56.55031029955562L147.2417460568746,-19.139513010581084L147.86400383207533,17.98205446966469L147.94178605397542,54.40075011475889L148.0195682758755,17.65130377570793L148.0973504977756,75.29413875434517L148.3306971634759,33.164795722098944L148.48626160727605,31.49951103846243L148.56404382917617,-5.787325346787668L148.64182605107627,93.87851713204384L149.264083826277,24.554775404453153L149.65299493577746,80.93971461470932L149.73077715767755,-8.846325757662413L149.96412382337783,-2.7283249359129513L150.50859937667846,70.19184272940964L150.66416382047865,28.605850493908065L151.4419860394796,12.873833174841707L151.83089714898006,14.220253184954373L151.90867937088012,45.63709854793558L152.0642438146803,62.999061815261825L152.1420260365804,50.6390197913646L152.60871936798097,53.61531478842116L152.68650158988103,32.822336410999355L153.1531949212816,92.7210671064853L153.23097714318172,33.0703462104799L153.93101714028253,-12.40141672881424L154.24214602788288,69.55996769093342L154.3977104716831,51.40078951881057L154.70883935928344,66.63678723891584L155.4088793563843,51.837804783503245L155.56444380018448,21.330399646600057L155.79779046588476,41.62732294440275L155.95335490968492,41.99937312428156L156.031137131585,6.259706312157135L156.42004824108545,68.39070260625799L156.65339490678573,31.1687958251637L157.0423060162862,44.39697858921684L157.19787046008642,23.952384792782112L157.50899934768677,43.11548818326003L157.66456379148696,16.098173452036804L157.74234601338705,33.15305162429809L157.82012823528711,48.54257415160683L157.97569267908733,37.80062753619461L158.13125712288752,3.513716266234809L158.52016823238796,36.86755719188284L158.75351489808824,93.06948716813034L158.90907934188843,74.1602833663624L159.1424260075887,88.58725112255416L159.375772673289,-1.7125491777829893L159.68690156088934,99.9965179537933L159.92024822658962,250.83873904720951L160.93141711129084,180.3161768468222L161.086981555091,158.86176804280294L161.2425459988912,230.169765569528L161.55367488649156,188.99715848048533L162.0203682178921,125.78551004508567L162.09815043979222,110.1243121194046L162.40927932739257,132.69487146306034L162.72040821499294,118.30925641377763L162.95375488069323,93.96118706520402L163.03153710259332,172.958002845367L163.1093193244934,119.71473397914573L163.18710154639348,154.10789207951248L163.3426659901937,76.7587093556267L163.57601265589395,158.07636819712323L164.1204882091946,111.73653547898917L164.1982704310947,176.51307607618983L164.58718154059514,127.36227048699058L164.74274598439536,140.96245020993553L164.82052820629542,141.87189043601353L164.89831042819554,94.33320176442483L165.59835042529636,112.32113254066888L165.90947931289674,99.62446777391449L165.9872615347968,47.20793371995305L166.06504375669692,104.95706874998422L166.14282597859702,101.69139350620904L166.2983904223972,125.12998714804665L166.68730153189765,81.43576969432843L166.76508375379774,90.89626138444183L166.92064819759793,78.35313916521993L166.99843041949802,131.74407853007324L167.07621264139812,97.18552734239911L167.3095593070984,53.69802020223935L167.46512375089858,46.38119890769323L167.54290597279868,48.448053678671755L167.62068819469874,79.03816422939315L168.3207281917996,74.03631394728012L168.55407485749984,32.24361139822008L169.2541148546007,185.3593975761733L169.72080818600125,52.953919842481696L169.79859040790134,112.23257281827927L170.2652837393019,75.37684416816336L170.34306596120197,85.2389059456188L170.42084818310207,26.786970041752056L170.57641262690225,61.59356650956474L171.04310595830282,97.47490758911775L171.50979928970338,78.4771440649602L171.58758151160345,39.97381783922512L172.2098392868042,96.64810181554192L172.2876215087043,42.71977240448942L172.52096817440457,66.14069667863873L172.75431484010483,103.59290841086721L173.06544372770523,76.06183375167859L173.2210081715054,28.440510627587713L173.53213705910576,41.17260283136375L173.99883039050633,27.92086091039286L174.3099592781067,51.54846001744261L174.38774150000677,83.21335066056236L174.62108816570705,61.26285129626601L174.77665260950724,8.474302543083724L175.00999927520752,85.65222013076169L175.32112816280787,32.656996544679004L175.47669260660808,42.578098137060834L175.63225705040827,157.33230331802358L175.71003927230834,93.1757872195243L175.78782149420843,42.33008833758029L176.3322970475091,34.02115688379601L176.48786149130927,57.62509039195399L176.56564371320937,41.91666771046337L177.03233704460993,43.52883784906092L177.11011926651,36.04667668819445L177.1879014884101,97.35090268937748L177.34346593221028,73.99494350004204L177.49903037601047,50.6390197913646L178.4324170388116,70.56389290928848L179.1324570359124,97.69932275102254L179.44358592351279,9.507712188244L179.83249703301325,103.38626905862478L179.91027925491332,57.21174072615308L180.2991903644138,86.64436577065788L180.37697258631388,47.82210391008297L180.45475480821398,112.82902041973387L180.76588369581435,23.62166957948338L180.84366591771445,69.97924262662177L181.31035924911498,43.48753836313884L181.62148813671536,46.463833360195395L181.69927035861545,99.45912790759412L181.77705258051554,1.1161108012995271L181.93261702431573,80.1956497356097L182.01039924621583,45.11741335008273L182.3993103557163,122.33675460598579L182.63265702141658,73.41621848726277L182.78822146521674,20.586334767500404L183.02156813091702,60.51878641716637L183.2549147966173,48.861438825130676L183.48826146231755,34.121496184644485L183.64382590611777,72.0461683589163L184.1105192375183,63.70179172778137L184.1883014594184,87.71914586305627L184.34386590321859,0.7440606214206866L184.49943034701877,19.924868860244942L185.19947034411962,43.73561912393541L185.27725256601968,12.194697899897932L185.35503478791978,25.42280970263505L185.4328170098199,92.10100712712592L186.52176811642116,23.787009445803733L186.83289700402156,12.566748079776744L187.1440258916219,47.8280291799704L187.221808113522,15.708453904469678L187.45515477922226,71.76271338208511L187.53293700112238,61.014841496785465L187.76628366682266,86.14831069103882L187.92184811062282,70.68789780902875L188.077412554423,33.89122671416828L188.46632366392348,45.837883591606584L188.69967032962376,83.08927479950607L188.85523477342392,102.51812831846885L188.93301699532404,32.905006344159546L189.0885814391242,38.733697880506384L189.32192810482448,65.64464159901965L189.55527477052476,-10.169151130199339L189.71083921432495,17.52726339530966L189.94418588002523,26.078350340003084L190.1775325457255,67.09150735195482L190.25531476762558,-10.954550975879044L190.48866143332586,81.57751492307301L190.72200809902614,14.716308264573485L191.3442658742269,33.318426971276466L191.42204809612696,7.234147103706988L191.57761253992717,66.92613200497647L191.96652364942764,57.87313567209253L192.35543475892808,81.27042982800805L192.43321698082818,82.55192023396489L192.51099920272827,37.78288720719027L192.66656364652846,-16.741872064987803L192.74434586842855,67.8119421128207L192.89991031222874,10.499857828140193L193.0554747560289,72.7961230272454L193.28882142172918,38.27897776746738L193.3666036436293,23.87560464885135L193.67773253122965,56.83972602693227L194.06664364073012,68.6623425239723L194.22220808453028,53.485420099451446L194.68890141593084,49.60553918488833L194.76668363783097,16.369848850409113L194.84446585973103,37.34587194249761L194.92224808163112,84.9672305472465L195.00003030353122,57.9971405718328L195.2333769692315,56.38497043323525L195.3889414130317,40.593877818584474L195.62228807873194,-34.3932155790327L195.70007030063206,47.8280291799704L195.93341696633235,26.084240129232512L196.0889814101325,55.5109753845079L196.2445458539327,43.19815811642022L196.3223280758328,-13.145446127255866L196.40011029773288,13.104102645317909L196.71123918533326,55.28656022260313L197.0223680729336,23.361844720885955L197.10015029483372,32.905041824817545L197.17793251673382,53.987400448957985L197.48906140433417,37.90100231770111L197.5668436262343,20.296919040123754L197.72240807003445,13.68286313875521L197.80019029193454,3.2243715001741577L197.95575473573473,42.578098137060834L198.03353695763482,5.846392127014241L198.11131917953492,9.42504225508381L198.2668836233351,62.833721948941474L198.3446658452352,30.755410678704806L198.5002302890354,54.23537476778051L198.73357695473567,137.4073769791127L198.88914139853583,4.216481659412352L198.96692362043595,18.891423734426667L199.43361695183648,45.03477889758054L199.51139917373658,20.751674633820784L199.58918139563664,68.7037129712104L199.90031028323705,61.13292112663828L200.0558747270372,57.436120407399855L200.2114391708374,1.4645308629445708L200.52256805843777,54.56612546173726L201.06704361173843,115.99432088200254L201.3003902774387,40.800552651484935L201.45595472123887,36.25342248241091L201.61151916503906,62.33763138866436L201.68930138693915,53.49134536933889L202.00043027453953,30.259355599085694L202.1559947183397,58.9479157644909L202.2337769402398,-9.342416317939524L202.3115591621399,72.38277336144449L202.54490582784018,50.51501489162433L202.62268804974025,47.20789823929502L202.85603471544053,69.44774236965202L202.93381693734065,35.96404223569229L203.1671636030409,44.31430865605668L203.4005102687412,107.56138452847796L203.71163915634156,36.92659700680926L204.1783324877421,61.09751142994564L204.2561147096422,76.92993901117649L204.48946137534247,-7.192785171826756L204.56724359724257,-14.57457155118675L204.72280804104275,59.668421486672784L204.87837248484294,16.204473503430762L204.956154706743,122.18913732834076L205.11171915054322,13.517523272434829L205.1895013724433,85.11486556522054L205.34506581624348,11.53326747330047L205.42284803814357,37.22186704275734L205.5006302600437,5.344411777507702L205.57841248194376,73.33358403476058L205.73397692574397,52.31026522554657L205.88954136954413,64.32188718779875L205.96732359144423,72.60715304269127L206.2784524790446,17.44459346214947L206.35623470094467,29.88734089986488L206.51179914474488,50.845694624265064L206.74514581044514,54.353525358949355L206.90071025424535,59.898726437807L207.1340569199456,52.581869662602884L208.06744358274673,59.77472153806673L208.37857247034708,42.24741840442013L208.61191913604736,32.739666477839165L209.00083024554783,36.99745188085254L209.156394689348,32.57432661151881L209.38974135504827,36.95611691427246L209.85643468644884,22.363844772418332L209.93421690834893,9.070732404209338L210.08978135214912,50.17248461920872L210.32312801784937,32.420801804315346L210.55647468354965,11.119953288157575L210.63425690544977,51.093704423745606L210.71203912734984,45.50720385896588L211.41207912445068,-11.161261289437505L211.48986134635078,14.964318064054027L211.56764356825087,55.59953510689752L211.64542579015097,59.27863097778963L211.80099023395115,34.351836616436714L211.9565546777513,54.648759914239434L212.1899013434516,78.12872400331514L212.57881245295206,6.944802337646365L212.73437689675225,15.501672629595191L212.81215911865235,48.613429025650134L212.88994134055244,51.17637435690578L212.96772356245253,24.389400057474774L213.58998133765326,54.15274031527835L214.29002133475407,27.65507530124998L214.67893244425457,81.02238454786952L215.3011902194553,68.68008285297662L215.3789724413554,45.71980396175377L215.61231910705567,62.70968156854319L215.92344799465602,17.237918629249037L216.1567946603563,-13.806876553853328L216.4679235479567,31.706256832678918L216.70127021365695,51.95591989401407L216.93461687935724,53.98736496829997L217.01239910125733,19.015464114824937L217.0901813231574,52.48742015098382L217.2457457669576,44.23163872289649L217.86800354215833,16.818643693560688L218.02356798595852,33.85581701747563L218.1791324297587,44.31430865605668L218.3346968735589,-3.7617700617312266L218.72360798305934,65.10728703347847L219.1125190925598,36.584066734393645L219.73477686776056,68.74504793779049L219.81255908966065,65.88679708992876L219.89034131156072,0.77947031811334L220.20147019916112,37.40494723808203L220.4348168648614,57.5424204587938L220.66816353056166,48.03470401287086L221.29042130576238,30.548735845804345L221.4459857495626,97.69928727036452L221.75711463716294,50.680319277286685L221.83489685906306,51.011034490585416L221.91267908096313,40.635212785164555L221.99046130286322,29.308615887085608L222.1460257466634,52.35160019212667L222.3015901904636,81.06964478433706L222.53493685616388,54.40075011475889L222.76828352186416,-2.7283249359129513L222.84606574376423,78.06375891850126L223.00163018756444,5.125886404832357L223.1571946313646,-13.062776194095704L223.70167018466526,123.03946677817633L224.01279907226564,97.26230748632986L224.16836351606582,70.85323767534912L224.32392795986598,4.712536739031435L224.47949240366617,33.56643677075701L224.55727462556627,27.77911568164825L224.71283906936645,39.57813754111251L224.94618573506673,27.36573053518933L225.10175017886692,54.3180801815987L225.3350968445672,27.117720735708787L225.49066128836736,104.54371908418332L225.72400795406764,41.42064811150229L225.80179017596777,36.666772148211834L225.87957239786783,33.81444657023755L226.65739461686874,64.81790678675983L226.73517683876887,59.857355990568905L226.89074128256902,66.26473705903702L226.96852350446915,34.39317158301682L227.0463057263692,49.19215403842941L227.1240879482693,42.389092671848715L227.3574346139696,51.75513485034307L227.43521683586968,38.19623687299119L227.59078127966987,36.99745188085254L227.82412794537012,36.17071706859272L227.97969238917034,94.62258201114346L228.13525683297053,-4.464499974250771L228.29082127677069,-7.818770421073566L228.99086127387153,20.627634253422485L229.06864349577162,10.003767267863083L229.3019901614719,22.322474325180224L229.45755460527207,31.95426663215946L229.61311904907225,57.18811060791931L229.76868349287247,60.8495016304651L229.92424793667263,76.22720909865694L230.00203015857272,36.708107114791915L230.235376824273,35.59195657515545L230.70207015567357,-0.2480495378174794L230.77985237757366,75.23509893941878L231.090981265174,19.63552409418432L231.3243279308743,10.086472681681272L231.55767459657457,-10.488051284381186L231.71323904037476,45.09970850173639L231.79102126227482,9.732127350148772L232.10215014987523,76.64059424511588L232.41327903747558,-4.984149691445623L232.64662570317586,38.733662399848384L232.72440792507595,38.15493738706911L232.80219014697605,79.49288434243215L232.87997236887614,7.22825731447756L233.11331903457642,21.20050495763033L233.42444792217677,24.389400057474774L233.58001236597696,58.03844005775488L233.89114125357733,73.49888842042293L233.96892347547745,-1.6949152907526752L234.1244879192776,96.23478763039903L234.2022701411777,21.78508427898103L234.59118125067815,-8.226230297645031L234.82452791637843,20.834344566980946L234.90231013827855,55.64090555413563L235.0578745820787,25.54685008303332L235.2134390258789,-6.572725192467402L235.3690034696791,-2.9763702160514924L235.44678569157918,44.414683437563184L235.68013235727946,50.86343495326939L235.75791457917956,58.07984598565099L235.91347902297974,16.493853750149384L236.14682568868002,9.011692589282916L236.2246079105801,28.688555907726254L236.38017235438028,42.784772969961296L236.84686568578084,4.765651284070401L237.08021235148112,54.979475127538166L237.3135590171814,83.25465014648444L237.39134123908147,-7.812916112502137L237.70247012668187,129.03349818084354L238.1691634580824,2.704650821663307L239.1803323427836,13.88957345231367L239.49146123038398,11.037212393681358L239.64702567418416,-2.007854694389067L240.03593678368463,26.952380869388435L240.26928344938491,65.37300168130534L240.42484789318507,39.43639231236793L240.73597678078548,-35.67463502367349L241.12488789028592,38.857667299588655L241.4360167778863,62.006951656023645L241.74714566548664,26.952345388730436L241.98049233118692,54.48342004791907L242.68053232828777,37.86555714035046L243.1472256596883,-39.395101341803695L243.9250478786892,39.35375785986574L244.00283010058934,70.52252246205039L244.08061232248943,5.78731683142982L244.3139589881897,52.115334490447L244.39174121008978,63.05810163018825L244.78065231959025,51.89684459842965L244.93621676339043,4.482231787897234L245.2473456509908,2.415270574944657L245.32512787289087,72.13472808130592L245.402910094791,67.05017238537475L245.4806923166911,91.35690676736829L245.55847453859116,81.16416525727213L245.63625676049128,44.08400370492245L245.71403898239134,15.212398824850567L246.3362967575921,42.991483283519756L246.56964342329238,29.63933110038434L247.03633675469294,45.92647879465423L247.3474656422933,49.19218951908741L248.1252878612942,30.731816041129036L248.20307008319432,-2.190934889713759L248.2808523050944,64.90057671992001L248.82532785839504,18.02335395558677L249.2142389678955,50.43230947780614L249.4475856335958,78.3354343168736L249.60315007739598,79.26254391063992L249.68093229929607,37.08015729467073L249.75871452119614,35.46798715607318L249.83649674309626,34.47587699683501L250.1476256306966,50.80435965768497L250.76988340589736,-13.352156440814326L250.84766562779745,59.526640777270174L251.0810122934977,19.387514294703777L251.23657673729792,57.41841555905353L251.314358959198,64.40452164030091L251.4699234029982,47.3732381056154L251.85883451249865,45.25326878959788L252.4033100657993,62.37900183590247L252.55887450959946,28.540920889752215L252.79222117529974,71.05994798890758L252.94778561909993,69.89657269346156L253.3366967286004,-50.06026781328518L253.57004339430068,24.472034509976965L253.80339006000096,0.6968713462691767L254.50343005710178,35.13727194277445L254.58121227900187,79.53425478967023L254.81455894470216,74.0776134332022L255.04790561040244,32.32628133138027L255.20347005420263,30.111756061769682L255.2812522761027,43.074153216679946L255.74794560750325,83.83337515926371L255.98129227320354,39.76714300632466L256.05907449510363,38.526952086289924L256.2146389389038,3.389711366494538L256.4479856046041,37.7829226878483L256.60355004840426,29.26135565061807L256.75911449220445,52.99525480906179L256.99246115790476,69.0343927038511L257.0702433798048,47.12526378679286L257.14802560170494,97.71702759936886L257.6925011550056,55.97162076743436L258.081412264506,13.393482892036559L258.2369767083062,54.48345552857708L258.31475893020627,8.432967576503643L258.3925411521064,23.43862486481669L258.70367003970676,30.153091028349763L258.7814522616069,86.23098062419899L259.1703633711073,61.014841496785465L259.2481455930074,48.654763992230215L259.55927448060777,37.41083702731146L259.7926211463081,73.92997841522816L259.87040336820814,52.829914942741425L260.02596781200833,53.07792474222197L260.57044336530896,31.58221645228062L260.648225587209,73.2922135875225L261.0371366967095,30.548771326462344L261.97052335951065,11.409298054218198L262.3594344690111,26.208280509630782L262.5149989128113,-6.944810853004242L262.5927811347114,34.700256678081786L262.82612780041165,55.82402123011832L262.9039100223117,28.647220941146173L263.6039500194126,45.11744883074073L264.0706433508131,24.531145286219385L264.38177223841353,59.65068115766846" fill="none"></path></g></g></g></g></g></g><g transform="translate(49, 178)" clip-path="url(#clip_1)"><clipPath id="clip_1"><rect width="280" height="21"></rect></clipPath><g><g><line x1="0" y1="0" x2="0" y2="5" style="visibility: inherit;" fill="rgb(0, 0, 0)" stroke="rgb(204, 204, 204)" stroke-width="1px"></line><line x1="31.112888760036892" y1="0" x2="31.112888760036892" y2="5" style="visibility: inherit;" fill="rgb(0, 0, 0)" stroke="rgb(204, 204, 204)" stroke-width="1px"></line><line x1="62.225777520073784" y1="0" x2="62.225777520073784" y2="5" style="visibility: inherit;" fill="rgb(0, 0, 0)" stroke="rgb(204, 204, 204)" stroke-width="1px"></line><line x1="93.33866628011067" y1="0" x2="93.33866628011067" y2="5" style="visibility: inherit;" fill="rgb(0, 0, 0)" stroke="rgb(204, 204, 204)" stroke-width="1px"></line><line x1="124.45155504014757" y1="0" x2="124.45155504014757" y2="5" style="visibility: inherit;" fill="rgb(0, 0, 0)" stroke="rgb(204, 204, 204)" stroke-width="1px"></line><line x1="155.56444380018448" y1="0" x2="155.56444380018448" y2="5" style="visibility: inherit;" fill="rgb(0, 0, 0)" stroke="rgb(204, 204, 204)" stroke-width="1px"></line><line x1="186.67733256022134" y1="0" x2="186.67733256022134" y2="5" style="visibility: inherit;" fill="rgb(0, 0, 0)" stroke="rgb(204, 204, 204)" stroke-width="1px"></line><line x1="217.79022132025824" y1="0" x2="217.79022132025824" y2="5" style="visibility: inherit;" fill="rgb(0, 0, 0)" stroke="rgb(204, 204, 204)" stroke-width="1px"></line><line x1="248.90311008029514" y1="0" x2="248.90311008029514" y2="5" style="visibility: inherit;" fill="rgb(0, 0, 0)" stroke="rgb(204, 204, 204)" stroke-width="1px"></line><line x1="280.01599884033203" y1="0" x2="280.01599884033203" y2="5" style="visibility: inherit;" fill="rgb(0, 0, 0)" stroke="rgb(204, 204, 204)" stroke-width="1px"></line></g><g transform="translate(0, 8)"><text style="text-anchor: middle; visibility: hidden; font-family: &quot;Helvetica Neue&quot;, sans-serif; font-size: 12px; font-weight: 200;" x="0" y="0" dx="0em" dy="0.95em" fill="rgb(50, 49, 63)" stroke="none" stroke-width="1px">-2k</text><text style="text-anchor: middle; visibility: inherit; font-family: &quot;Helvetica Neue&quot;, sans-serif; font-size: 12px; font-weight: 200;" x="31.112888760036892" y="0" dx="0em" dy="0.95em" fill="rgb(50, 49, 63)" stroke="none" stroke-width="1px">0</text><text style="text-anchor: middle; visibility: inherit; font-family: &quot;Helvetica Neue&quot;, sans-serif; font-size: 12px; font-weight: 200;" x="62.225777520073784" y="0" dx="0em" dy="0.95em" fill="rgb(50, 49, 63)" stroke="none" stroke-width="1px">2k</text><text style="text-anchor: middle; visibility: inherit; font-family: &quot;Helvetica Neue&quot;, sans-serif; font-size: 12px; font-weight: 200;" x="93.33866628011067" y="0" dx="0em" dy="0.95em" fill="rgb(50, 49, 63)" stroke="none" stroke-width="1px">4k</text><text style="text-anchor: middle; visibility: inherit; font-family: &quot;Helvetica Neue&quot;, sans-serif; font-size: 12px; font-weight: 200;" x="124.45155504014757" y="0" dx="0em" dy="0.95em" fill="rgb(50, 49, 63)" stroke="none" stroke-width="1px">6k</text><text style="text-anchor: middle; visibility: inherit; font-family: &quot;Helvetica Neue&quot;, sans-serif; font-size: 12px; font-weight: 200;" x="155.56444380018448" y="0" dx="0em" dy="0.95em" fill="rgb(50, 49, 63)" stroke="none" stroke-width="1px">8k</text><text style="text-anchor: middle; visibility: inherit; font-family: &quot;Helvetica Neue&quot;, sans-serif; font-size: 12px; font-weight: 200;" x="186.67733256022134" y="0" dx="0em" dy="0.95em" fill="rgb(50, 49, 63)" stroke="none" stroke-width="1px">10k</text><text style="text-anchor: middle; visibility: inherit; font-family: &quot;Helvetica Neue&quot;, sans-serif; font-size: 12px; font-weight: 200;" x="217.79022132025824" y="0" dx="0em" dy="0.95em" fill="rgb(50, 49, 63)" stroke="none" stroke-width="1px">12k</text><text style="text-anchor: middle; visibility: inherit; font-family: &quot;Helvetica Neue&quot;, sans-serif; font-size: 12px; font-weight: 200;" x="248.90311008029514" y="0" dx="0em" dy="0.95em" fill="rgb(50, 49, 63)" stroke="none" stroke-width="1px">14k</text><text style="text-anchor: middle; visibility: hidden; font-family: &quot;Helvetica Neue&quot;, sans-serif; font-size: 12px; font-weight: 200;" x="280.01599884033203" y="0" dx="0em" dy="0.95em" fill="rgb(50, 49, 63)" stroke="none" stroke-width="1px">16k</text></g><line x1="0" y1="0" x2="280.01599884033203" y2="0" fill="rgb(0, 0, 0)" stroke="rgb(204, 204, 204)" stroke-width="1px"></line></g></g></g></g></svg>