<svg viewBox="0 0 330 200" xmlns="http://www.w3.org/2000/svg"><g><g><g><g><g><line x1="59.98000144958496" y1="178.57999897003174" x2="54.98000144958496" y2="178.57999897003174" style="visibility: inherit;" fill="rgb(0, 0, 0)" stroke="rgb(204, 204, 204)" stroke-width="1px"></line><line x1="59.98000144958496" y1="165.8242847578866" x2="54.98000144958496" y2="165.8242847578866" style="visibility: inherit;" fill="rgb(0, 0, 0)" stroke="rgb(204, 204, 204)" stroke-width="1px"></line><line x1="59.98000144958496" y1="153.0685705457415" x2="54.98000144958496" y2="153.0685705457415" style="visibility: inherit;" fill="rgb(0, 0, 0)" stroke="rgb(204, 204, 204)" stroke-width="1px"></line><line x1="59.98000144958496" y1="140.31285633359636" x2="54.98000144958496" y2="140.31285633359636" style="visibility: inherit;" fill="rgb(0, 0, 0)" stroke="rgb(204, 204, 204)" stroke-width="1px"></line><line x1="59.98000144958496" y1="127.55714212145124" x2="54.98000144958496" y2="127.55714212145124" style="visibility: inherit;" fill="rgb(0, 0, 0)" stroke="rgb(204, 204, 204)" stroke-width="1px"></line><line x1="59.98000144958496" y1="114.80142790930611" x2="54.98000144958496" y2="114.80142790930611" style="visibility: inherit;" fill="rgb(0, 0, 0)" stroke="rgb(204, 204, 204)" stroke-width="1px"></line><line x1="59.98000144958496" y1="102.04571369716098" x2="54.98000144958496" y2="102.04571369716098" style="visibility: inherit;" fill="rgb(0, 0, 0)" stroke="rgb(204, 204, 204)" stroke-width="1px"></line><line x1="59.98000144958496" y1="89.28999948501587" x2="54.98000144958496" y2="89.28999948501587" style="visibility: inherit;" fill="rgb(0, 0, 0)" stroke="rgb(204, 204, 204)" stroke-width="1px"></line><line x1="59.98000144958496" y1="76.53428527287073" x2="54.98000144958496" y2="76.53428527287073" style="visibility: inherit;" fill="rgb(0, 0, 0)" stroke="rgb(204, 204, 204)" stroke-width="1px"></line><line x1="59.98000144958496" y1="63.77857106072564" x2="54.98000144958496" y2="63.77857106072564" style="visibility: inherit;" fill="rgb(0, 0, 0)" stroke="rgb(204, 204, 204)" stroke-width="1px"></line><line x1="59.98000144958496" y1="51.02285684858049" x2="54.98000144958496" y2="51.02285684858049" style="visibility: inherit;" fill="rgb(0, 0, 0)" stroke="rgb(204, 204, 204)" stroke-width="1px"></line><line x1="59.98000144958496" y1="38.26714263643535" x2="54.98000144958496" y2="38.26714263643535" style="visibility: inherit;" fill="rgb(0, 0, 0)" stroke="rgb(204, 204, 204)" stroke-width="1px"></line><line x1="59.98000144958496" y1="25.511428424290244" x2="54.98000144958496" y2="25.511428424290244" style="visibility: inherit;" fill="rgb(0, 0, 0)" stroke="rgb(204, 204, 204)" stroke-width="1px"></line><line x1="59.98000144958496" y1="12.755714212145108" x2="54.98000144958496" y2="12.755714212145108" style="visibility: inherit;" fill="rgb(0, 0, 0)" stroke="rgb(204, 204, 204)" stroke-width="1px"></line><line x1="59.98000144958496" y1="0" x2="54.98000144958496" y2="0" style="visibility: inherit;" fill="rgb(0, 0, 0)" stroke="rgb(204, 204, 204)" stroke-width="1px"></line></g><g transform="translate(49.98000144958496, 0)"><text style="text-anchor: end; visibility: hidden; font-family: &quot;Helvetica Neue&quot;, sans-serif; font-size: 12px; font-weight: 200;" x="0" y="178.57999897003174" dx="0em" dy="0.3em" fill="rgb(50, 49, 63)" stroke="none" stroke-width="1px">-0.1</text><text style="text-anchor: end; visibility: inherit; font-family: &quot;Helvetica Neue&quot;, sans-serif; font-size: 12px; font-weight: 200;" x="0" y="165.8242847578866" dx="0em" dy="0.3em" fill="rgb(50, 49, 63)" stroke="none" stroke-width="1px">-0.05</text><text style="text-anchor: end; visibility: hidden; font-family: &quot;Helvetica Neue&quot;, sans-serif; font-size: 12px; font-weight: 200;" x="0" y="153.0685705457415" dx="0em" dy="0.3em" fill="rgb(50, 49, 63)" stroke="none" stroke-width="1px">0</text><text style="text-anchor: end; visibility: inherit; font-family: &quot;Helvetica Neue&quot;, sans-serif; font-size: 12px; font-weight: 200;" x="0" y="140.31285633359636" dx="0em" dy="0.3em" fill="rgb(50, 49, 63)" stroke="none" stroke-width="1px">0.05</text><text style="text-anchor: end; visibility: hidden; font-family: &quot;Helvetica Neue&quot;, sans-serif; font-size: 12px; font-weight: 200;" x="0" y="127.55714212145124" dx="0em" dy="0.3em" fill="rgb(50, 49, 63)" stroke="none" stroke-width="1px">0.1</text><text style="text-anchor: end; visibility: inherit; font-family: &quot;Helvetica Neue&quot;, sans-serif; font-size: 12px; font-weight: 200;" x="0" y="114.80142790930611" dx="0em" dy="0.3em" fill="rgb(50, 49, 63)" stroke="none" stroke-width="1px">0.15</text><text style="text-anchor: end; visibility: hidden; font-family: &quot;Helvetica Neue&quot;, sans-serif; font-size: 12px; font-weight: 200;" x="0" y="102.04571369716098" dx="0em" dy="0.3em" fill="rgb(50, 49, 63)" stroke="none" stroke-width="1px">0.2</text><text style="text-anchor: end; visibility: inherit; font-family: &quot;Helvetica Neue&quot;, sans-serif; font-size: 12px; font-weight: 200;" x="0" y="89.28999948501587" dx="0em" dy="0.3em" fill="rgb(50, 49, 63)" stroke="none" stroke-width="1px">0.25</text><text style="text-anchor: end; visibility: hidden; font-family: &quot;Helvetica Neue&quot;, sans-serif; font-size: 12px; font-weight: 200;" x="0" y="76.53428527287073" dx="0em" dy="0.3em" fill="rgb(50, 49, 63)" stroke="none" stroke-width="1px">0.3</text><text style="text-anchor: end; visibility: inherit; font-family: &quot;Helvetica Neue&quot;, sans-serif; font-size: 12px; font-weight: 200;" x="0" y="63.77857106072564" dx="0em" dy="0.3em" fill="rgb(50, 49, 63)" stroke="none" stroke-width="1px">0.35</text><text style="text-anchor: end; visibility: hidden; font-family: &quot;Helvetica Neue&quot;, sans-serif; font-size: 12px; font-weight: 200;" x="0" y="51.02285684858049" dx="0em" dy="0.3em" fill="rgb(50, 49, 63)" stroke="none" stroke-width="1px">0.4</text><text style="text-anchor: end; visibility: inherit; font-family: &quot;Helvetica Neue&quot;, sans-serif; font-size: 12px; font-weight: 200;" x="0" y="38.26714263643535" dx="0em" dy="0.3em" fill="rgb(50, 49, 63)" stroke="none" stroke-width="1px">0.45</text><text style="text-anchor: end; visibility: hidden; font-family: &quot;Helvetica Neue&quot;, sans-serif; font-size: 12px; font-weight: 200;" x="0" y="25.511428424290244" dx="0em" dy="0.3em" fill="rgb(50, 49, 63)" stroke="none" stroke-width="1px">0.5</text><text style="text-anchor: end; visibility: inherit; font-family: &quot;Helvetica Neue&quot;, sans-serif; font-size: 12px; font-weight: 200;" x="0" y="12.755714212145108" dx="0em" dy="0.3em" fill="rgb(50, 49, 63)" stroke="none" stroke-width="1px">0.55</text><text style="text-anchor: end; visibility: hidden; font-family: &quot;Helvetica Neue&quot;, sans-serif; font-size: 12px; font-weight: 200;" x="0" y="0" dx="0em" dy="0.3em" fill="rgb(50, 49, 63)" stroke="none" stroke-width="1px">0.6</text></g><line x1="59.98000144958496" y1="0" x2="59.98000144958496" y2="178.57999897003174" fill="rgb(0, 0, 0)" stroke="rgb(204, 204, 204)" stroke-width="1px"></line></g></g><g transform="translate(59, 0)" clip-path="url(#clip_0)"><clipPath id="clip_0"><rect width="270" height="178"></rect></clipPath><g><g><g><line x1="0" y1="0" x2="0" y2="178.57999897003174" fill="rgb(0, 0, 0)" stroke="rgb(60, 60, 60)" stroke-width="1px" opacity="0.25"></line><line x1="30.002222061157227" y1="0" x2="30.002222061157227" y2="178.57999897003174" fill="rgb(0, 0, 0)" stroke="rgb(60, 60, 60)" stroke-width="1px" opacity="0.25"></line><line x1="60.00444412231445" y1="0" x2="60.00444412231445" y2="178.57999897003174" fill="rgb(0, 0, 0)" stroke="rgb(60, 60, 60)" stroke-width="1px" opacity="0.25"></line><line x1="90.00666618347168" y1="0" x2="90.00666618347168" y2="178.57999897003174" fill="rgb(0, 0, 0)" stroke="rgb(60, 60, 60)" stroke-width="1px" opacity="0.25"></line><line x1="120.0088882446289" y1="0" x2="120.0088882446289" y2="178.57999897003174" fill="rgb(0, 0, 0)" stroke="rgb(60, 60, 60)" stroke-width="1px" opacity="0.25"></line><line x1="150.01111030578613" y1="0" x2="150.01111030578613" y2="178.57999897003174" fill="rgb(0, 0, 0)" stroke="rgb(60, 60, 60)" stroke-width="1px" opacity="0.25"></line><line x1="180.01333236694336" y1="0" x2="180.01333236694336" y2="178.57999897003174" fill="rgb(0, 0, 0)" stroke="rgb(60, 60, 60)" stroke-width="1px" opacity="0.25"></line><line x1="210.0155544281006" y1="0" x2="210.0155544281006" y2="178.57999897003174" fill="rgb(0, 0, 0)" stroke="rgb(60, 60, 60)" stroke-width="1px" opacity="0.25"></line><line x1="240.0177764892578" y1="0" x2="240.0177764892578" y2="178.57999897003174" fill="rgb(0, 0, 0)" stroke="rgb(60, 60, 60)" stroke-width="1px" opacity="0.25"></line><line x1="270.01999855041504" y1="0" x2="270.01999855041504" y2="178.57999897003174" fill="rgb(0, 0, 0)" stroke="rgb(60, 60, 60)" stroke-width="1px" opacity="0.25"></line></g><g><line x1="0" y1="178.57999897003174" x2="270.01999855041504" y2="178.57999897003174" fill="rgb(0, 0, 0)" stroke="rgb(60, 60, 60)" stroke-width="1px" opacity="0.25"></line><line x1="0" y1="165.8242847578866" x2="270.01999855041504" y2="165.8242847578866" fill="rgb(0, 0, 0)" stroke="rgb(60, 60, 60)" stroke-width="1px" opacity="0.25"></line><line x1="0" y1="153.0685705457415" x2="270.01999855041504" y2="153.0685705457415" fill="rgb(0, 0, 0)" stroke="rgb(60, 60, 60)" stroke-width="1px" opacity="0.25"></line><line x1="0" y1="140.31285633359636" x2="270.01999855041504" y2="140.31285633359636" fill="rgb(0, 0, 0)" stroke="rgb(60, 60, 60)" stroke-width="1px" opacity="0.25"></line><line x1="0" y1="127.55714212145124" x2="270.01999855041504" y2="127.55714212145124" fill="rgb(0, 0, 0)" stroke="rgb(60, 60, 60)" stroke-width="1px" opacity="0.25"></line><line x1="0" y1="114.80142790930611" x2="270.01999855041504" y2="114.80142790930611" fill="rgb(0, 0, 0)" stroke="rgb(60, 60, 60)" stroke-width="1px" opacity="0.25"></line><line x1="0" y1="102.04571369716098" x2="270.01999855041504" y2="102.04571369716098" fill="rgb(0, 0, 0)" stroke="rgb(60, 60, 60)" stroke-width="1px" opacity="0.25"></line><line x1="0" y1="89.28999948501587" x2="270.01999855041504" y2="89.28999948501587" fill="rgb(0, 0, 0)" stroke="rgb(60, 60, 60)" stroke-width="1px" opacity="0.25"></line><line x1="0" y1="76.53428527287073" x2="270.01999855041504" y2="76.53428527287073" fill="rgb(0, 0, 0)" stroke="rgb(60, 60, 60)" stroke-width="1px" opacity="0.25"></line><line x1="0" y1="63.77857106072564" x2="270.01999855041504" y2="63.77857106072564" fill="rgb(0, 0, 0)" stroke="rgb(60, 60, 60)" stroke-width="1px" opacity="0.25"></line><line x1="0" y1="51.02285684858049" x2="270.01999855041504" y2="51.02285684858049" fill="rgb(0, 0, 0)" stroke="rgb(60, 60, 60)" stroke-width="1px" opacity="0.25"></line><line x1="0" y1="38.26714263643535" x2="270.01999855041504" y2="38.26714263643535" fill="rgb(0, 0, 0)" stroke="rgb(60, 60, 60)" stroke-width="1px" opacity="0.25"></line><line x1="0" y1="25.511428424290244" x2="270.01999855041504" y2="25.511428424290244" fill="rgb(0, 0, 0)" stroke="rgb(60, 60, 60)" stroke-width="1px" opacity="0.25"></line><line x1="0" y1="12.755714212145108" x2="270.01999855041504" y2="12.755714212145108" fill="rgb(0, 0, 0)" stroke="rgb(60, 60, 60)" stroke-width="1px" opacity="0.25"></line><line x1="0" y1="0" x2="270.01999855041504" y2="0" fill="rgb(0, 0, 0)" stroke="rgb(60, 60, 60)" stroke-width="1px" opacity="0.25"></line></g></g></g><g><g><line x1="0" y1="153.0685705457415" x2="270.01999855041504" y2="153.0685705457415" fill="rgb(0, 0, 0)" stroke="rgb(153, 153, 153)" stroke-width="1.5px"></line></g></g><g><g><line x1="30.002222061157227" y1="0" x2="30.002222061157227" y2="178.57999897003174" fill="rgb(0, 0, 0)" stroke="rgb(153, 153, 153)" stroke-width="1.5px"></line></g></g><g><g><g><g><g><path style="fill: none;" stroke="rgb(255, 112, 67)" stroke-width="2px" d="M30.377249836921692,86.18920792767237L30.752277612686157,89.79769743950648L31.127305388450626,91.76478983482794L31.502333164215088,88.57896434668012L31.877360939979553,86.6130001337819L32.25238871574402,89.48127535244814L32.627416491508484,100.59283276144825L33.00244426727295,88.4230045396016L33.377472043037415,90.18190307760788L33.75249981880188,92.57578131572302L34.127527594566345,99.00390465629948L34.50255537033081,101.03795428616222L34.877583146095276,105.36310939391707L35.25261092185974,92.75693834497777L35.62763869762421,91.48639710017756L36.00266647338867,96.497590137314L36.37769424915314,95.0371385606668L36.7527220249176,99.18983572109441L37.12774980068207,98.25269151193443L37.50277757644653,95.5811850904718L37.877805352211,91.34742787075668L38.252833127975464,91.54297644495851L38.62786090373993,84.77935930272554L39.00288867950439,80.06299794447658L39.37791645526886,81.57001278725896L39.752944231033325,83.0924403604832L40.12797200679779,94.98067832824694L40.502999782562256,92.05741936257766L40.87802755832672,99.61121535860256L41.25305533409119,99.23604318124728L41.62808310985565,93.57719937588607L42.00311088562012,97.66140643016878L42.37813866138458,94.91676025400554L42.75316643714905,89.73589594490683L43.12819421291351,92.11268886288289L43.50322198867798,92.82808579412867L43.878249764442444,100.79908017402566L44.25327754020691,97.15931353455633L44.628305315971375,94.18635267540662L45.00333309173584,91.36224619026163L45.37836086750031,92.40919836751777L45.75338864326477,91.73591162924944L46.128416419029236,91.24256797457267L46.5034441947937,90.7210512221086L46.87847197055817,83.72462683259268L47.25349974632263,83.54134375200661L47.6285275220871,70.00854158434393L48.00355529785156,68.77514217265218L48.37858307361603,69.61844072349045L48.75361084938049,74.35324689038517L49.12863862514496,74.54487974010794L49.503666400909424,70.02606501703966L49.87869417667389,77.71087376658636L50.253721952438354,83.20827658450439L50.62874972820282,88.43759058824823L51.003777503967285,74.00306687237277L51.37880527973175,63.58476768762242L51.753833055496216,76.82015835071165L52.12886083126068,80.4084311265777L52.50388860702515,79.21296888726208L52.87891638278961,70.70191233835588L53.25394415855408,74.97670828530306L53.62897193431854,74.65779750675046L54.00399971008301,73.53450202842878L54.37902748584747,73.608767489735L54.75405526161194,80.378067017544L55.129083037376404,86.42400542498861L55.50411081314087,79.92788453200446L55.87913858890533,75.29637946644776L56.2541663646698,69.67935538156348L56.629194140434265,79.84590615128307L57.00422191619873,78.08088812647013L57.379249691963196,69.6086448884352L57.75427746772766,69.19265544861328L58.12930524349213,64.99596156978969L58.50433301925659,71.84939216783663L58.87936079502106,58.18124892725109L59.25438857078552,67.34240620507514L59.62941634654999,71.01925028380184L60.00444412231445,54.67564466107876L60.37947189807892,50.12045522578441L60.754499673843384,64.58511732131073L61.12952744960785,56.70260712967264L61.504555225372314,57.7521941871354L61.87958300113678,64.259957864356L62.25461077690125,57.253703717940695L62.62963855266571,59.61475856490651L63.004666328430176,34.67612366480111L63.37969410419464,35.39361490803438L63.754721879959106,32.51262875565641L64.12974965572357,36.21082285891646L64.50477743148804,31.27580330922504L64.8798052072525,33.80414136534563L65.25483298301697,45.82790469751541L65.62986075878143,28.327581356883627L66.0048885345459,41.73197543751422L66.37991631031036,55.11899584705675L66.75494408607483,50.28405918417343L67.1299718618393,60.519621967894L67.50499963760376,56.35211959058731L67.88002741336823,48.61998929914935L68.25505518913269,48.93404400733013L68.63008296489716,49.87090226470369L69.00511074066162,53.61429131963129L69.38013851642609,44.65630559747194L69.75516629219055,34.5233139716116L70.13019406795502,34.31890595084138L70.50522184371948,18.738964052514206L70.88024961948395,12.531971251194449L71.25527739524841,25.58618995906633L71.63030517101288,24.793870685491925L72.00533294677734,26.059042567513245L72.38036072254181,33.60015023830147L72.75538849830627,44.96910538796942L73.13041627407074,48.64018213828197L73.5054440498352,36.61447430526604L73.88047182559968,50.2021160277437L74.25549960136414,44.0605541147238L74.6305273771286,45.740246589369946L75.00555515289307,41.229398262158895L75.38058292865753,30.89982198799632L75.755610704422,42.73302232435151L76.13063848018646,45.41676233682068L76.50566625595093,33.0055012677513L76.8806940317154,19.307402548550044L77.25572180747986,18.54737443679784L77.63074958324432,29.676362998986036L78.00577735900877,40.85048784734326L78.38080513477325,51.22913013169931L78.75583291053772,47.686377128940336L79.13086068630219,44.295200212034615L79.50588846206665,33.477498277528355L79.88091623783112,48.325171551497476L80.25594401359558,38.70352214501881L80.63097178936005,24.26244150125038L81.00599956512451,36.687302123433454L81.38102734088898,58.93063622813645L81.75605511665344,59.535868633280174L82.13108289241791,57.641539311542004L82.50611066818237,50.27951224414889L82.88113844394684,55.0506214222474L83.2561662197113,30.848814648449945L83.63119399547577,41.23996511970688L84.00622177124023,37.2108499502265L84.3812495470047,42.23347126666391L84.75627732276917,33.75678290486391L85.13130509853363,34.056984605071534L85.5063328742981,42.80442638277489L85.88136065006256,54.12447539660508L86.25638842582703,40.22521225235556L86.63141620159149,43.56089172092993L87.00644397735596,56.13198662359714L87.38147175312042,69.05602360801309L87.75649952888489,74.50470903557579L88.13152730464935,89.80617829249012L88.50655508041382,68.41102402509436L88.88158285617828,45.68764722519043L89.25661063194275,48.292015986960195L89.63163840770721,43.11260915752203L90.00666618347168,43.40452930315098L90.38169395923615,37.64728049744417L90.75672173500062,32.07401787562961L91.13174951076508,25.60141306747599L91.50677728652954,34.99281807382587L91.881805062294,40.15936770369126L92.25683283805847,43.91702092542101L92.63186061382294,53.31004947818967L93.0068883895874,40.12210427620178L93.38191616535187,40.36677981149052L93.75694394111633,40.37417466576116L94.1319717168808,48.29849762355846L94.50699949264526,31.751292918502685L94.88202726840971,33.43621742751711L95.2570550441742,35.239034745380366L95.63208281993866,29.714511823487072L96.00711059570312,34.77831802806824L96.38213837146759,42.22568998051349L96.75716614723206,46.001096406977865L97.13219392299652,45.88672664073897L97.50722169876099,58.40686689647194L97.88224947452545,59.69803800231304L98.25727725028992,48.715783029248286L98.63230502605438,43.823965213855985L99.00733280181885,46.351442593420984L99.38236057758331,38.35118802837843L99.75738835334778,27.97513672261917L100.13241612911224,31.083826506315063L100.50744390487671,33.99842726228209L100.88247168064117,45.65360116988049L101.25749945640564,42.15919786292085L101.6325272321701,33.25675275452292L102.00755500793457,30.906076914937557L102.38258278369904,30.840989638149665L102.7576105594635,30.941600007839554L103.13263833522797,38.347367402246164L103.50766611099243,50.011908937907094L103.8826938867569,39.14465457717324L104.25772166252136,29.92597756512788L104.63274943828583,23.700750211102672L105.0077772140503,19.370927317559364L105.38280498981476,49.04940413637337L105.75783276557922,53.63181951864813L106.13286054134369,32.132191268718174L106.50788831710815,34.02808853138626L106.88291609287262,36.843641398417674L107.25794386863708,42.91887480966187L107.63297164440156,43.38969276363417L108.00799942016602,52.734550783863284L108.38302719593048,48.94678510161103L108.75805497169495,35.75133957514586L109.13308274745941,32.070288884750966L109.50811052322388,41.51098755076376L109.88313829898834,52.17039344712626L110.25816607475281,48.28362279079147L110.63319385051727,38.067958597599926L111.00822162628174,47.79244546957739L111.3832494020462,44.290866056445054L111.75827717781065,27.562956776204004L112.13330495357513,38.86178814129076L112.5083327293396,53.36400011750439L112.88336050510406,54.82474802494326L113.25838828086853,55.643179032607165L113.633416056633,49.02419481081216L114.00844383239746,32.024028369285105L114.38347160816193,39.126428150727634L114.75849938392639,40.783822759285556L115.13352715969086,38.40665205281397L115.50855493545532,26.786176371310148L115.88358271121979,25.90953879343988L116.25861048698425,39.31012152798655L116.63363826274872,40.87387447397941L117.00866603851318,41.04501339298241L117.38369381427765,41.83094482937065L117.75872159004211,56.56667327457478L118.13374936580658,52.813317544630195L118.50877714157104,60.52197538727721L118.88380491733551,49.24656191641296L119.25883269309998,54.02895347774128L119.63386046886444,48.737736942301154L120.0088882446289,50.17637864867015L120.38391602039337,47.51972864151503L120.75894379615784,43.75779303913856L121.1339715719223,57.10835754660867L121.50899934768677,66.83930456745756L121.88402712345123,49.1811244693865L122.2590548992157,55.2245336744072L122.63408267498016,42.628749482761094L123.00911045074463,46.89346269866138L123.3841382265091,46.34343104437349L123.75916600227356,46.572181911914186L124.13419377803802,45.80206915982669L124.5092215538025,47.991672010902136L124.88424932956696,46.92324488846978L125.25927710533142,51.44849863461525L125.63430488109589,48.773380785269126L126.00933265686035,56.18369086257296L126.38436043262482,28.48235863550744L126.75938820838928,13.637245944384262L127.13441598415375,9.401745145842199L127.50944375991821,13.306929751954073L127.88447153568268,17.483781278306708L128.25949931144714,24.08874880899475L128.6345270872116,24.142413826464207L129.00955486297607,13.53661443123005L129.38458263874054,36.91418992838081L129.759610414505,48.38285733475578L130.13463819026947,38.755667616919965L130.50966596603394,43.43891007342316L130.8846937417984,47.892826546899414L131.25972151756287,34.829648325999926L131.63474929332733,43.664098457845256L132.0097770690918,40.09934945875301L132.38480484485626,39.473554738341704L132.75983262062073,45.81836708505L133.1348603963852,53.845682320426064L133.50988817214966,54.36004764442079L133.88491594791412,39.262120360984454L134.2599437236786,35.71894994628997L134.63497149944305,27.093940865227353L135.00999927520752,32.39818870717974L135.38502705097198,39.17142848468853L135.76005482673645,27.263514130792316L136.13508260250092,28.423252696494274L136.51011037826538,38.46399890135672L136.88513815402985,41.842048757943445L137.2601659297943,33.88602564011265L137.63519370555878,38.04007705630116L138.01022148132324,36.37144426938943L138.3852492570877,30.726420658225152L138.76027703285217,38.49925644642906L139.1353048086166,36.42720667047152L139.5103325843811,42.644027328773234L139.88536036014557,47.06995766876622L140.26038813591003,56.68289985332842L140.6354159116745,30.784234783232364L141.01044368743896,42.04695123625774L141.38547146320343,37.90131339992567L141.7604992389679,47.45571670403328L142.13552701473236,30.308723927143888L142.51055479049683,16.140448051421515L142.8855825662613,36.52478734175605L143.26061034202576,42.464074510449564L143.63563811779022,33.48544486870131L144.0106658935547,37.0693229680771L144.38569366931915,37.01990299530266L144.76072144508362,41.7583682577897L145.13574922084808,34.757455103323736L145.51077699661255,43.9315106329297L145.885804772377,48.667919700561185L146.26083254814148,42.12991168848396L146.63586032390594,54.29572900315647L147.0108880996704,47.93900194493929L147.38591587543488,46.868565581620345L147.76094365119937,46.826912474556394L148.1359714269638,49.42704208614964L148.51099920272827,48.50525608697035L148.88602697849274,49.856046260852025L149.2610547542572,55.31509683098018L149.63608253002167,42.39646305353705L150.01111030578613,48.902661111453995L150.3861380815506,48.61721512068087L150.76116585731506,48.628567718917026L151.13619363307953,59.74215693029683L151.511221408844,41.00002490173392L151.88624918460846,42.93694593141487L152.26127696037292,51.83730098555216L152.6363047361374,56.263126075580544L153.01133251190186,59.63977253770129L153.38636028766632,40.755208841872445L153.7613880634308,36.408348206384574L154.13641583919525,54.34556924003671L154.51144361495972,69.68445328250529L154.88647139072418,77.44532172512653L155.26149916648865,82.54257790894526L155.6365269422531,81.90679512094005L156.01155471801755,63.5942680961125L156.38658249378204,69.12086455987553L156.7616102695465,57.80026614270463L157.13663804531097,61.1574634682042L157.51166582107544,46.7771541276083L157.8866935968399,37.04902908967986L158.26172137260437,26.235248788690427L158.63674914836884,38.05191862196793L159.0117769241333,43.24831327629289L159.38680469989777,50.72673717924832L159.76183247566223,36.112283937743086L160.1368602514267,38.310844830196146L160.51188802719116,50.110646048702336L160.88691580295563,56.862071775478725L161.2619435787201,54.633234617444074L161.63697135448456,53.51462628665942L162.01199913024902,50.190825326638986L162.3870269060135,52.0998316689616L162.76205468177795,63.49010482673464L163.13708245754242,50.397490337781164L163.51211023330688,50.35598656523919L163.88713800907135,41.833342120054965L164.26216578483582,48.091218565917984L164.6371935606003,35.6766815457749L165.01222133636475,20.899742418911984L165.3872491121292,15.313974047246973L165.76227688789368,24.597161017705673L166.13730466365814,20.197868964990164L166.5123324394226,12.44561407721747L166.88736021518707,11.725881129637969L167.26238799095154,11.752775775431815L167.637415766716,7.589714953170187L168.01244354248047,17.41196715908194L168.38747131824493,32.51201430202741L168.7624990940094,34.21971874062416L169.13752686977386,40.31835866359535L169.51255464553833,40.814555942298995L169.8875824213028,34.476518632809615L170.26261019706726,45.19241852414325L170.63763797283173,28.908994934400198L171.0126657485962,19.92361365777765L171.38769352436066,20.416672221354332L171.76272130012512,33.510584866806255L172.1377490758896,27.738144742468478L172.51277685165405,32.10967469101041L172.8878046274185,37.45983526217151L173.26283240318298,31.011063043727916L173.63786017894745,38.4478894642898L174.0128879547119,25.965641604431653L174.38791573047638,37.8718489740308L174.76294350624084,31.639705714925128L175.1379712820053,34.40629339729344L175.51299905776978,36.964308433073L175.88802683353424,43.373119605449176L176.2630546092987,41.923405062364964L176.63808238506317,35.476785914459754L177.01311016082764,43.10244521330347L177.3881379365921,40.39687638570834L177.76316571235657,28.814539712545354L178.13819348812103,37.348098748408404L178.5132212638855,41.78809739315241L178.88824903964996,39.68051305929879L179.26327681541443,49.52616282090125L179.6383045911789,33.36908705056604L180.01333236694336,37.46687400073216L180.38836014270782,16.78300737157221L180.7633879184723,15.356153427689065L181.13841569423676,34.283092772832674L181.51344347000125,44.67124686639565L181.8884712457657,40.15110157828806L182.26349902153015,37.71218545652644L182.63852679729462,44.167904217230046L183.01355457305908,35.39538633903183L183.38858234882355,37.1197732965974L183.763610124588,36.894574135980065L184.13863790035248,31.43508403122297L184.51366567611694,51.358132237197566L184.8886934518814,31.008600978110195L185.26372122764587,31.58759408976593L185.63874900341034,31.160317960788234L186.0137767791748,43.76816612644686L186.38880455493927,39.921157366171826L186.76383233070374,37.54834253198001L187.1388601064682,38.347716125350615L187.51388788223267,41.44004955584222L187.88891565799713,30.373489618913396L188.2639434337616,39.51722068747381L188.63897120952606,29.49387713049427L189.01399898529053,35.44679898009392L189.389026761055,26.698267667219653L189.76405453681943,27.499208250357384L190.13908231258392,29.95249617641457L190.5141100883484,27.752215538778216L190.88913786411285,24.206707754531237L191.26416563987732,24.324267798570816L191.63919341564178,28.59069588816766L192.01422119140625,23.90572749783351L192.38924896717072,44.14556020606216L192.76427674293518,40.5621552599587L193.13930451869965,42.90421779674631L193.5143322944641,50.25354474253916L193.88936007022858,28.527031754031754L194.26438784599304,30.250569458154843L194.6394156217575,15.353401122810624L195.01444339752197,13.603226323730127L195.38947117328644,19.836828851017458L195.7644989490509,19.47111562634845L196.13952672481537,7.062975162604545L196.51455450057983,21.400544145896106L196.8895822763443,16.50710068599929L197.26461005210876,17.773995613975217L197.63963782787323,14.193112486382148L198.0146656036377,19.235859854063932L198.3896933794022,24.811227159757124L198.76472115516663,38.20395996611913L199.1397489309311,33.07308105729689L199.51477670669556,26.024295137605236L199.88980448246002,20.439634815775776L200.2648322582245,10.755602759775599L200.63986003398895,-1.1422659547695844L201.01488780975342,12.031700844870073L201.38991558551788,1.3351036780508139L201.76494336128235,3.718461089196552L202.1399711370468,21.831621950303713L202.51499891281128,33.426695900523356L202.89002668857574,50.406350520557396L203.2650544643402,40.775947355065114L203.64008224010468,54.09120907098635L204.01511001586914,41.7363063207313L204.3901377916336,28.20114311390003L204.76516556739807,17.815570913752452L205.14019334316254,21.861316825881886L205.515221118927,10.132278490664817L205.89024889469147,17.139714513783332L206.26527667045593,22.60358480865105L206.64030444622037,18.975803196244584L207.01533222198486,36.64321805635237L207.39035999774933,32.077735395478015L207.7653877735138,28.75075808760272L208.14041554927826,16.840895618489697L208.51544332504272,35.07977277634316L208.8904711008072,24.90770394166404L209.26549887657166,26.92383502674204L209.64052665233612,23.340855011481068L210.0155544281006,23.197254332485613L210.39058220386505,11.55346873939257L210.76560997962952,14.864684136570304L211.14063775539398,23.183168584623957L211.51566553115845,26.865101104846588L211.8906933069229,35.2237195362506L212.26572108268738,39.2365693103481L212.64074885845184,28.030929703645512L213.0157766342163,25.260522278713154L213.39080440998077,24.233421036436567L213.76583218574524,34.016344020519966L214.1408599615097,45.33448870363904L214.51588773727417,54.55678693644073L214.89091551303864,48.06577125947919L215.26594328880313,44.61539865982104L215.64097106456757,42.14005005341221L216.01599884033203,42.60213750173588L216.3910266160965,49.50569942757602L216.76605439186096,38.343637901384824L217.14108216762543,39.78243620375778L217.5161099433899,42.5142844578433L217.89113771915436,42.18373903196729L218.26616549491882,46.27042445451727L218.6411932706833,38.957886616451134L219.01622104644775,15.809427406262728L219.39124882221222,10.819363659817668L219.76627659797668,25.43539070484033L220.14130437374115,17.77599449299484L220.51633214950562,21.57114717572074L220.89135992527008,38.79943344927801L221.26638770103455,46.226313728878864L221.641415476799,49.859295748503314L222.01644325256348,45.05863594479854L222.39147102832794,33.24473981394678L222.7664988040924,33.3836668612621L223.14152657985687,28.021678254744415L223.5165543556213,38.24004808657659L223.8915821313858,38.45627329905059L224.26660990715027,48.356115328839564L224.64163768291473,22.165042844091715L225.0166654586792,28.8872848831989L225.39169323444366,40.89271899587476L225.76672101020813,36.23869282485387L226.1417487859726,39.37605527598123L226.51677656173706,45.635768456456276L226.89180433750153,37.202368372374764L227.266832113266,31.854786681529447L227.64185988903046,38.858950406044755L228.01688766479492,31.15057122052562L228.3919154405594,30.84467564711369L228.76694321632385,17.433738389777602L229.14197099208832,32.36538364621825L229.51699876785278,34.91986684587249L229.89202654361725,41.497752643058135L230.2670543193817,42.41057709147242L230.64208209514618,53.0352927844453L231.01710987091064,50.1143636171239L231.3921376466751,45.91441946499191L231.76716542243958,52.11196254348779L232.14219319820407,34.434127198706534L232.5172209739685,26.643418047588625L232.89224874973297,27.486925557746474L233.26727652549744,27.201694822920047L233.6423043012619,32.02266322179719L234.01733207702637,15.624771624198644L234.39235985279083,19.4910272945055L234.7673876285553,20.18710517787312L235.14241540431976,17.131677495870576L235.51744318008423,30.737280295491786L235.8924709558487,21.673395439925912L236.26749873161316,20.3907591201567L236.64252650737762,14.57949154652718L237.0175542831421,13.902789473423837L237.39258205890656,0.23868911177032714L237.76760983467102,11.347299366367764L238.1426376104355,25.751919378092055L238.51766538619995,9.729303531708979L238.89269316196442,18.656012894748045L239.26772093772888,19.737584027866006L239.64274871349335,25.56311741192704L240.0177764892578,21.84570642949504L240.39280426502225,25.208449030362175L240.76783204078674,29.873595485905156L241.1428598165512,28.235339319350658L241.51788759231567,39.517336586566984L241.89291536808014,33.17752058018635L242.2679431438446,37.262781941584365L242.64297091960907,36.046874864985625L243.01799869537354,38.251746943321535L243.393026471138,41.51942578054903L243.76805424690247,40.98957128938238L244.14308202266693,29.373445883911188L244.5181097984314,27.508934492125036L244.89313757419586,27.98924072599644L245.26816534996033,10.88838308160669L245.6431931257248,22.015636045791155L246.01822090148926,17.402636489837107L246.39324867725372,21.654735080872285L246.7682764530182,13.73016474485425L247.14330422878265,18.11910977228868L247.51833200454712,27.305323068849788L247.89335978031158,22.649660920338334L248.26838755607605,29.36082894224336L248.64341533184052,22.433234025408836L249.018443107605,37.33906685446277L249.39347088336945,40.501474901941975L249.7684986591339,35.19166169965317L250.14352643489838,30.43882786314566L250.51855421066284,24.142333718130004L250.8935819864273,25.661705385209757L251.26860976219177,25.09320341053703L251.64363753795624,16.751972026900148L252.0186653137207,24.449598964180183L252.39369308948517,31.168433480220585L252.76872086524963,26.421170167578026L253.1437486410141,42.892527114009795L253.51877641677856,27.98465619637625L253.89380419254303,38.62828790000191L254.2688319683075,51.224953633051456L254.64385974407196,38.44900112712921" fill="none"></path></g></g></g></g><g opacity="0.2"><g><g><g><path style="fill: none;" stroke="rgb(255, 112, 67)" stroke-width="2px" d="M30.377249836921692,86.18920792767237L30.752277612686157,92.39220139851523L31.127305388450626,94.19603931884191L31.502333164215088,83.45725301632518L31.877360939979553,82.92700471971659L32.25238871574402,95.41016209257116L32.627416491508484,125.09618999657383L33.00244426727295,60.37704443236761L33.377472043037415,94.3609939665896L33.75249981880188,98.38649637178477L34.127527594566345,114.84437572522597L34.50255537033081,106.10434920797101L34.877583146095276,116.21872788335597L35.25261092185974,60.94396198902814L35.62763869762421,88.26751788252227L36.00266647338867,109.22885451652787L36.37769424915314,91.31931571982125L36.7527220249176,109.77644905340362L37.12774980068207,95.86112632452667L37.50277757644653,88.75851189970969L37.877805352211,80.52920157682955L38.252833127975464,92.04283983226658L38.62786090373993,67.48536110579312L39.00288867950439,68.00127014790077L39.37791645526886,85.42463522824373L39.752944231033325,86.98688408102309L40.12797200679779,125.3936078794978L40.502999782562256,84.57863441868521L40.87802755832672,118.93737374645082L41.25305533409119,98.27615025821149L41.62808310985565,79.09853781294073L42.00311088562012,108.11136584921795L42.37813866138458,87.89416505562798L42.75316643714905,76.4797687349739L43.12819421291351,98.19415192322076L43.50322198867798,94.65856771097555L43.878249764442444,121.19447200417274L44.25327754020691,87.84622054932743L44.628305315971375,86.57940899845534L45.00333309173584,84.13617033865548L45.37836086750031,95.08804967167316L45.75338864326477,90.01316245504933L46.128416419029236,89.98024147308271L46.5034441947937,89.38663739293425L46.87847197055817,65.82275267750354L47.25349974632263,83.07237404424352L47.6285275220871,35.38191432369001L48.00355529785156,65.61922041716957L48.37858307361603,71.77620434473971L48.75361084938049,86.46828357757221L49.12863862514496,75.03521429347468L49.503666400909424,58.46368912526539L49.87869417667389,97.37413816132087L50.253721952438354,97.274584503614L50.62874972820282,101.81793471544373L51.003777503967285,37.06917927496289L51.37880527973175,36.927269314591854L51.753833055496216,110.68580184500297L52.12886083126068,89.5898123123554L52.50388860702515,76.15411711843954L52.87891638278961,48.924511473019635L53.25394415855408,85.91470928265564L53.62897193431854,73.8417944836935L54.00399971008301,70.660304704042L54.37902748584747,73.79879192618701L54.75405526161194,97.6988013880964L55.129083037376404,101.8938620564159L55.50411081314087,63.306137482609074L55.87913858890533,63.445660101562694L56.2541663646698,55.30696991356939L56.629194140434265,105.8592513567799L57.00422191619873,73.56470321630944L57.379249691963196,47.930556319565L57.75427746772766,68.12825542291377L58.12930524349213,54.25780178758784L58.50433301925659,89.38539430273758L58.87936079502106,23.208313020297453L59.25438857078552,90.7832321221366L59.62941634654999,80.42726057770523L60.00444412231445,12.856952694240874L60.37947189807892,38.46500610135263L60.754499673843384,101.59612104607078L61.12952744960785,36.533479628684574L61.504555225372314,60.43779238754388L61.87958300113678,80.91149552954202L62.25461077690125,39.32666908708927L62.62963855266571,65.65603413418627L63.004666328430176,-29.13483182690581L63.37969410419464,37.2294732848479L63.754721879959106,25.140995148683544L64.12974965572357,45.67346186334217L64.50477743148804,18.648475706990922L64.8798052072525,40.273447637055966L65.25483298301697,76.59333471826147L65.62986075878143,-16.450826052062325L66.0048885345459,76.03005139471412L66.37991631031036,89.37261746435539L66.75494408607483,37.91281555209844L67.1299718618393,86.70954951769839L67.50499963760376,45.6886526536353L67.88002741336823,28.835641685114297L68.25505518913269,49.737621712604124L68.63008296489716,52.268059158125695L69.00511074066162,63.19257149932149L69.38013851642609,21.73533857173331L69.75516629219055,8.595837178040114L70.13019406795502,33.795883292713995L70.50522184371948,-21.125727139291L70.88024961948395,-3.3499783009368684L71.25527739524841,58.988265585258034L71.63030517101288,22.766548416097066L72.00533294677734,29.296261724713588L72.38036072254181,52.895724669962476L72.75538849830627,74.05906536167498L73.13041627407074,58.03343546025609L73.5054440498352,5.844068853527801L73.88047182559968,84.96907118241064L74.25549960136414,28.346023810591078L74.6305273771286,50.038107405279476L75.00555515289307,29.687405567266524L75.38058292865753,4.46934034698964L75.755610704422,73.01085521345966L76.13063848018646,52.283698525309376L76.50566625595093,1.248573478922566L76.8806940317154,-15.742181006986215L77.25572180747986,16.602676172207794L77.63074958324432,58.15231593924682L78.00577735900877,69.44193185434989L78.38080513477325,77.78515789843226L78.75583291053772,38.6214682001727L79.13086068630219,35.61813187304813L79.50588846206665,5.798040302759716L79.88091623783112,86.31619320268537L80.25594401359558,14.084426332712212L80.63097178936005,-12.688223918214135L81.00599956512451,68.47902734531824L81.38102734088898,115.84507473803495L81.75605511665344,61.08448820373688L82.13108289241791,52.794483146667474L82.50611066818237,31.442154730071877L82.88113844394684,67.25854846514004L83.2561662197113,-31.076804819024687L83.63119399547577,67.82799782018276L84.00622177124023,26.901476972089995L84.3812495470047,55.08494716174745L84.75627732276917,12.067320512927239L85.13130509853363,34.82511635756009L85.5063328742981,65.18667064672054L85.88136065006256,83.08929831811365L86.25638842582703,4.660905488243827L86.63141620159149,52.09595769212196L87.00644397735596,88.29788425711224L87.38147175312042,102.12500080301332L87.75649952888489,88.44636320788037L88.13152730464935,128.95833628438123L88.50655508041382,13.666839262612001L88.88158285617828,-12.455085583104648L89.25661063194275,54.95586345924653L89.63163840770721,29.85996321315892L90.00666618347168,44.15147088573906L90.38169395923615,22.916099389603573L90.75672173500062,17.813605686716272L91.13174951076508,9.039837063695074L91.50677728652954,59.02278319683502L91.881805062294,53.37911568900519L92.25683283805847,53.53179909774731L92.63186061382294,77.34416880004261L93.0068883895874,6.377860147271804L93.38191616535187,40.99283571851058L93.75694394111633,40.393096018859296L94.1319717168808,68.57461223799358L94.50699949264526,-10.588351860625835L94.88202726840971,37.747465548447195L95.2570550441742,39.85193741991307L95.63208281993866,15.578810824051857L96.00711059570312,47.73517447324218L96.38213837146759,61.28142106168123L96.75716614723206,55.66130003910558L97.13219392299652,45.59408656271137L97.50722169876099,90.44238591381003L97.88224947452545,63.00178186387804L98.25727725028992,20.615280091050465L98.63230502605438,31.307178704008777L99.00733280181885,52.8185466357955L99.38236057758331,17.880785778322945L99.75738835334778,1.425738541690663L100.13241612911224,39.038089689508524L100.50744390487671,41.45607118947166L100.88247168064117,75.47591447793485L101.25749945640564,33.21800221272878L101.6325272321701,10.477898544778668L102.00755500793457,24.89135830760003L102.38258278369904,30.674449595407594L102.7576105594635,31.199033658398378L103.13263833522797,57.29664411604823L103.50766611099243,79.85819137256975L103.8826938867569,11.338405874797303L104.25772166252136,6.337974819004643L104.63274943828583,7.772143565038164L105.0077772140503,8.2921278141514L105.38280498981476,124.98828254465546L105.75783276557922,65.35693218717326L106.13286054134369,-22.879313043380193L106.50788831710815,38.87915661629145L106.88291609287262,44.047849624024764L107.25794386863708,58.46368912526539L107.63297164440156,44.59438354265933L108.00799942016602,76.64541525555275L108.38302719593048,39.25495760858834L108.75805497169495,1.9879042245107428L109.13308274745941,22.651515054167533L109.50811052322388,65.66708129049054L109.88313829898834,79.4448163634417L110.25816607475281,38.33846940323019L110.63319385051727,11.92894594669346L111.00822162628174,72.67467344449489L111.3832494020462,35.33130876803881L111.75827717781065,-15.239060207758001L112.13330495357513,67.77232106476902L112.5083327293396,90.47108343030726L112.88336050510406,58.562391247180074L113.25838828086853,57.7373138885158L113.633416056633,32.0880750404541L114.00844383239746,-11.474618148358758L114.38347160816193,57.29947243135804L114.75849938392639,45.02462960467051L115.13352715969086,32.3241405298493L115.50855493545532,-2.947353931185461L115.88358271121979,23.66646968849787L116.25861048698425,73.59844532207568L116.63363826274872,44.875078631164L117.00866603851318,41.48290977292248L117.38369381427765,43.84192241927519L117.75872159004211,94.27125958098664L118.13374936580658,43.20953544559055L118.50877714157104,80.2462636038722L118.88380491733551,20.395948800571773L119.25883269309998,66.2657489674034L119.63386046886444,35.19900139432451L120.0088882446289,53.85745831727981L120.38391602039337,40.72210816057361L120.75894379615784,34.132057458680634L121.1339715719223,91.26869875967282L121.50899934768677,91.73806224713854L121.88402712345123,3.998805997809626L122.2590548992157,70.68791879330361L122.63408267498016,10.399678899865876L123.00911045074463,57.80566484183676L123.3841382265091,44.936054676284584L123.75916600227356,47.15749107120871L124.13419377803802,43.83156713580212L124.5092215538025,53.594250124507994L124.88424932956696,44.18944025847375L125.25927710533142,63.02735074663872L125.63430488109589,41.92850628818783L126.00933265686035,75.14459102478453L126.38436043262482,-42.39756261452851L127.13441598415375,-1.4357106340572727L127.50944375991821,23.299199260119366L127.88447153568268,28.17117005925894L128.25949931144714,40.98900380744564L128.6345270872116,24.27972751885045L129.00955486297607,-13.600644519564867L129.38458263874054,96.73083328230041L129.759610414505,77.72795294039145L130.13463819026947,14.122395705446905L130.50966596603394,55.422010878497034L130.8846937417984,59.28914663383689L131.25972151756287,1.404647824837241L131.63474929332733,66.26897263861675L132.0097770690918,30.97815895929631L132.38480484485626,37.872321983979674L132.75983262062073,62.05295810741042L133.1348603963852,74.38532521806091L133.50988817214966,55.676163900478514L133.88491594791412,0.6307690556794512L134.2599437236786,26.65297297773006L134.63497149944305,5.024967451405274L135.00999927520752,45.97026770491547L135.38502705097198,56.50224485489787L135.76005482673645,-3.20549092419472L136.13508260250092,31.39069763862844L136.51011037826538,64.15544559636054L136.88513815402985,50.485528640099574L137.2601659297943,13.528799228296577L137.63519370555878,48.66912676533872L138.01022148132324,32.101882085084924L138.3852492570877,16.28239227236361L138.76027703285217,58.38775798279414L139.1353048086166,31.125413827363104L139.5103325843811,58.55112360392958L139.88536036014557,58.39466910810769L140.26038813591003,81.27971633268862L140.6354159116745,-35.483168011782055L141.01044368743896,70.86507625307358L141.38547146320343,27.293791676357216L141.7604992389679,71.9027486458603L142.13552701473236,-13.565609904114012L142.51055479049683,-20.112186662615585L142.8855825662613,88.68258075723844L143.26061034202576,57.661040611128044L143.63563811779022,10.51165585654121L144.0106658935547,46.239459457227184L144.38569366931915,36.893451178844145L144.76072144508362,53.882768698103575L145.13574922084808,16.844086569298724L145.51077699661255,67.40533955032002L145.885804772377,60.7870589163157L146.26083254814148,25.400987273240162L146.63586032390594,85.42463522824373L147.0108880996704,31.673924525515304L147.38591587543488,44.12961986907115L147.76094365119937,46.720333883883995L148.1359714269638,56.0800427649238L148.51099920272827,46.14666486487096L148.88602697849274,53.312338556300176L149.2610547542572,69.28327248906601L149.63608253002167,9.341311146129215L150.01111030578613,65.55019279701372L150.3861380815506,47.8868390802329L150.76116585731506,48.657615826147634L151.13619363307953,88.17870726119388L151.511221408844,-6.955821819037368L151.88624918460846,47.89298230273383L152.26127696037292,74.61080733403867L152.6363047361374,67.5875682098525L153.01133251190186,68.27966152796758L153.38636028766632,-7.565080472365821L153.7613880634308,25.285953911310628L154.13641583919525,100.2418750165345L154.51144361495972,108.9323451918822L154.88647139072418,97.30320218863069L155.26149916648865,95.5850234469014L155.6365269422531,80.28000570963843L156.01155471801755,16.737659801269047L156.38658249378204,83.26187117000234L156.7616102695465,28.834037452505754L157.13663804531097,69.74758758576364L157.51166582107544,9.98198538779161L157.8866935968399,12.157492070923553L158.26172137260437,-1.4341748284320772L158.63674914836884,68.28745460106592L159.0117769241333,56.544426288604726L159.38680469989777,69.86192147186382L159.76183247566223,-1.2819932175674467L160.1368602514267,43.93634405323439L160.51188802719116,80.30301998502249L160.88691580295563,74.13707212263972L161.2619435787201,48.93026694261519L161.63697135448456,50.65242205237416L162.01199913024902,41.686153119326946L162.3870269060135,56.98444220323188L162.76205468177795,92.63461158986217L163.13708245754242,16.897170702345136L163.51211023330688,50.249790079624574L163.88713800907135,20.026291030775837L164.26216578483582,64.10336505906925L164.6371935606003,3.9113715191454332L165.01222133636475,-16.910290435943665L165.3872491121292,1.0215631603177258L165.76227688789368,48.35022661115687L166.13730466365814,8.941317413735874L166.5123324394226,-7.390226721033713L166.88736021518707,9.884286861632063L167.26238799095154,11.821591612890131L167.637415766716,-3.062387293114938L168.01244354248047,42.54434913790959L168.38747131824493,71.14878973184169L168.7624990940094,38.58925429703356L169.13752686977386,55.92306366222992L169.51255464553833,42.08418527819899L169.8875824213028,18.25926302596676L170.26261019706726,72.61139369093644L170.63763797283173,-12.755708129746608L171.0126657485962,-3.0674508898792965L171.38769352436066,21.678270467659104L171.76272130012512,67.01422611975967L172.1377490758896,12.968093321120278L172.51277685165405,43.29519082268888L172.8878046274185,51.14939202610333L173.26283240318298,14.510467936749365L173.63786017894745,57.476637494126166L174.0128879547119,-5.972921424885158L174.38791573047638,68.33648633610117L174.76294350624084,15.693403212088981L175.1379712820053,41.48521348136035L175.51299905776978,43.509549752380934L175.88802683353424,59.77146563014122L176.2630546092987,38.21399311760496L176.63808238506317,18.981699909677417L177.01311016082764,62.61436349041605L177.3881379365921,33.47408639623902L177.76316571235657,-0.8214035899607381L178.13819348812103,59.18307720672L178.5132212638855,53.14880566920556L178.88824903964996,34.287797272676926L179.26327681541443,74.71841256678078L179.6383045911789,-7.972327464989235L180.01333236694336,47.951958759342375L180.38836014270782,-36.141192295210686L180.7633879184723,11.705235329283425L181.13841569423676,82.71180946022862L181.51344347000125,71.25161267875079L181.8884712457657,28.585320574197766L182.26349902153015,31.471684774865935L182.63852679729462,60.686273572909386L183.01355457305908,12.948979383784462L183.38858234882355,41.53199472894477L183.763610124588,36.31835279617991L184.13863790035248,17.46578372759194L184.51366567611694,102.33561145462002L184.8886934518814,-21.060128471298384L185.26372122764587,33.06907468507015L185.63874900341034,30.06703847062832L186.0137767791748,76.02810502718906L186.38880455493927,30.077743492016083L186.76383233070374,31.47697646157465L187.1388601064682,40.39308841586117L187.51388788223267,49.3524614295911L187.88891565799713,2.057273979583101L188.2639434337616,62.913457834430915L188.63897120952606,3.846958918863436L189.01399898529053,50.678652395973415L189.389026761055,4.313235589082382L189.76405453681943,29.548590027140335L190.13908231258392,36.22977026479586L190.5141100883484,22.122315971302925L190.88913786411285,15.134750114411759L191.26416563987732,24.6250709005796L191.63919341564178,39.50728591101506L192.01422119140625,11.918210513313142L192.38924896717072,95.93360190434115L192.76427674293518,31.393229437010632L193.13930451869965,48.896897383758045L193.5143322944641,69.05840621593796L193.88936007022858,-27.065006817985363L194.26438784599304,34.660617889701086L194.6394156217575,-22.764264475454382L195.01444339752197,9.125021054908416L195.38947117328644,35.78686521087374L195.7644989490509,18.535358300593884L196.13952672481537,-24.68596787451949L196.51455450057983,58.08635232734328L196.8895822763443,3.9861546088968396L197.26461005210876,21.015623561358495L197.63963782787323,5.030639288021234L198.0146656036377,32.13883265606822L198.3896933794022,39.07702464300763L198.76472115516663,72.47219800090302L199.1397489309311,19.944604418709048L199.51477670669556,7.988433656258962L199.88980448246002,6.1500591168599215L200.2648322582245,-14.023112714473996L200.63986003398895,-31.585567042876363L201.01488780975342,45.74017817206203L201.38991558551788,-26.034481243454678L201.76494336128235,9.81680265009959L202.1399711370468,68.17810828174866L202.51499891281128,63.095230314074726L202.89002668857574,93.85251305366934L203.2650544643402,16.134453134463797L203.64008224010468,88.16122036546103L204.01511001586914,10.123583625238751L204.3901377916336,-6.431534272974233L204.76516556739807,-8.758188559223072L205.14019334316254,32.213243198910504L205.515221118927,-19.879033121509792L205.89024889469147,35.069773234858815L206.26527667045593,36.58409278733393L206.64030444622037,9.693329960229448L207.01533222198486,81.84916568773133L207.39035999774933,20.395948800571773L207.7653877735138,20.23795849912466L208.14041554927826,-13.633094115646486L208.51544332504272,81.74793176743448L208.8904711008072,-1.1197604431555703L209.26549887657166,32.0825476608029L209.64052665233612,14.173016467094413L210.0155544281006,22.82982056665736L210.39058220386505,-18.239705073539312L210.76560997962952,23.337153426857753L211.14063775539398,44.46783163854059L211.51566553115845,36.28613129004262L211.8906933069229,56.6110741703413L212.26572108268738,49.5043237145336L212.64074885845184,-0.6411517099458877L213.0157766342163,18.171828547302567L213.39080440998077,21.605357715451305L213.76583218574524,59.048093577658776L214.1408599615097,74.294438978239L214.51588773727417,78.15405536841375L214.89091551303864,31.45708701842807L215.26594328880313,35.78686521087374L215.64097106456757,35.80632888612422L216.01599884033203,43.78448937129005L216.3910266160965,67.16997353675413L216.76605439186096,9.783060544333352L217.14108216762543,43.46391655751637L217.5161099433899,49.504316111535445L217.89113771915436,41.337966216291676L218.26616549491882,56.72710352502776L218.6411932706833,20.247158126879754L219.01622104644775,-43.42097178279576L219.39124882221222,-1.9488065668514025L219.76627659797668,62.833694780894746L220.14130437374115,-1.822247059734508L220.51633214950562,31.281875926183147L220.89135992527008,82.8817744837537L221.26638770103455,65.22961238024187L221.641415476799,59.155075364553014L222.01644325256348,32.77509715880666L222.39147102832794,3.0163009595609367L222.7664988040924,33.73914211755999L223.14152657985687,14.301856873654714L223.5165543556213,64.38598370610453L223.8915821313858,39.009532828477006L224.26660990715027,73.68702785345972L224.64163768291473,-44.85054831794989L225.0166654586792,46.087612378280994L225.39169323444366,71.611249696992L225.76672101020813,24.33034828049793L226.1417487859726,47.40368375413266L226.51677656173706,61.65261463710243L226.89180433750153,15.623668513105684L227.266832113266,18.171828547302567L227.64185988903046,56.78063623496469L228.01688766479492,11.426996009179504L228.3919154405594,30.06197487386396L228.76694321632385,-16.881079717071657L229.14197099208832,70.57126599276927L229.51699876785278,41.45607118947166L229.89202654361725,58.32871309920229L230.2670543193817,44.74623822460367L230.64208209514618,80.22095322304845L231.01710987091064,42.64052706444022L231.3921376466751,35.16794314690338L231.76716542243958,67.96973291159651L232.14219319820407,-10.798483523349404L232.5172209739685,6.709183600422136L232.89224874973297,29.645224133559623L233.26727652549744,26.471869561922972L233.6423043012619,44.35816599330121L234.01733207702637,-26.332822890653233L234.39235985279083,29.383688600379656L234.7673876285553,21.968172786917023L235.14241540431976,9.313697056867625L235.51744318008423,65.55019279701372L235.8924709558487,-1.5185376958457937L236.26749873161316,17.108853376690234L236.64252650737762,-0.28990840165644727L237.0175542831421,12.171299115554348L237.39258205890656,-34.723902205058465L237.76760983467102,39.771109946636614L238.1426376104355,62.60929229065353L238.51766538619995,-31.268065840353103L238.89269316196442,41.49695251049576L239.26772093772888,22.505020485915225L239.64274871349335,40.469019558332434L240.0177764892578,12.33389683387719L240.39280426502225,33.812761948595266L240.76783204078674,41.81039371200973L241.1428598165512,24.04350236649418L241.51788759231567,68.38479578631268L241.89291536808014,16.955713788059427L242.2679431438446,47.71581723996573L242.64297091960907,32.935710494613744L243.01799869537354,43.89339471671491L243.393026471138,49.88049725373958L243.76805424690247,39.63382260913755L244.14308202266693,-0.3489532852482853L244.5181097984314,22.73817402702099L244.89313757419586,29.218209345759988L245.26816534996033,-32.867903915959914L245.6431931257248,50.487148078704365L246.01822090148926,5.599267519264316L246.39324867725372,32.53465994547827L246.7682764530182,-6.546582840900072L247.14330422878265,29.34918619479896L247.51833200454712,50.81026029385839L247.89335978031158,10.737130369520827L248.26838755607605,46.53282114064095L248.64341533184052,4.707466248882042L249.018443107605,75.47890245620572L249.39347088336945,48.59318801986933L249.7684986591339,21.605342509455L250.14352643489838,18.277662281476978L250.51855421066284,8.031375389780322L250.8935819864273,29.549350326954823L251.26860976219177,23.638566685306785L251.64363753795624,-4.590894040128063L252.0186653137207,44.14566219515649L252.39369308948517,48.36004208176172L252.76872086524963,14.274257990389401L253.1437486410141,85.0380988025665L253.51877641677856,-10.160394301056243L253.89380419254303,65.86234909184121L254.2688319683075,83.45627983256264L254.64385974407196,5.758930480303292" fill="none"></path></g></g></g></g></g></g><g transform="translate(59, 178)" clip-path="url(#clip_1)"><clipPath id="clip_1"><rect width="270" height="21"></rect></clipPath><g><g><line x1="0" y1="0" x2="0" y2="5" style="visibility: inherit;" fill="rgb(0, 0, 0)" stroke="rgb(204, 204, 204)" stroke-width="1px"></line><line x1="30.002222061157227" y1="0" x2="30.002222061157227" y2="5" style="visibility: inherit;" fill="rgb(0, 0, 0)" stroke="rgb(204, 204, 204)" stroke-width="1px"></line><line x1="60.00444412231445" y1="0" x2="60.00444412231445" y2="5" style="visibility: inherit;" fill="rgb(0, 0, 0)" stroke="rgb(204, 204, 204)" stroke-width="1px"></line><line x1="90.00666618347168" y1="0" x2="90.00666618347168" y2="5" style="visibility: inherit;" fill="rgb(0, 0, 0)" stroke="rgb(204, 204, 204)" stroke-width="1px"></line><line x1="120.0088882446289" y1="0" x2="120.0088882446289" y2="5" style="visibility: inherit;" fill="rgb(0, 0, 0)" stroke="rgb(204, 204, 204)" stroke-width="1px"></line><line x1="150.01111030578613" y1="0" x2="150.01111030578613" y2="5" style="visibility: inherit;" fill="rgb(0, 0, 0)" stroke="rgb(204, 204, 204)" stroke-width="1px"></line><line x1="180.01333236694336" y1="0" x2="180.01333236694336" y2="5" style="visibility: inherit;" fill="rgb(0, 0, 0)" stroke="rgb(204, 204, 204)" stroke-width="1px"></line><line x1="210.0155544281006" y1="0" x2="210.0155544281006" y2="5" style="visibility: inherit;" fill="rgb(0, 0, 0)" stroke="rgb(204, 204, 204)" stroke-width="1px"></line><line x1="240.0177764892578" y1="0" x2="240.0177764892578" y2="5" style="visibility: inherit;" fill="rgb(0, 0, 0)" stroke="rgb(204, 204, 204)" stroke-width="1px"></line><line x1="270.01999855041504" y1="0" x2="270.01999855041504" y2="5" style="visibility: inherit;" fill="rgb(0, 0, 0)" stroke="rgb(204, 204, 204)" stroke-width="1px"></line></g><g transform="translate(0, 8)"><text style="text-anchor: middle; visibility: hidden; font-family: &quot;Helvetica Neue&quot;, sans-serif; font-size: 12px; font-weight: 200;" x="0" y="0" dx="0em" dy="0.95em" fill="rgb(50, 49, 63)" stroke="none" stroke-width="1px">-2k</text><text style="text-anchor: middle; visibility: hidden; font-family: &quot;Helvetica Neue&quot;, sans-serif; font-size: 12px; font-weight: 200;" x="30.002222061157227" y="0" dx="0em" dy="0.95em" fill="rgb(50, 49, 63)" stroke="none" stroke-width="1px">0</text><text style="text-anchor: middle; visibility: hidden; font-family: &quot;Helvetica Neue&quot;, sans-serif; font-size: 12px; font-weight: 200;" x="60.00444412231445" y="0" dx="0em" dy="0.95em" fill="rgb(50, 49, 63)" stroke="none" stroke-width="1px">2k</text><text style="text-anchor: middle; visibility: hidden; font-family: &quot;Helvetica Neue&quot;, sans-serif; font-size: 12px; font-weight: 200;" x="90.00666618347168" y="0" dx="0em" dy="0.95em" fill="rgb(50, 49, 63)" stroke="none" stroke-width="1px">4k</text><text style="text-anchor: middle; visibility: hidden; font-family: &quot;Helvetica Neue&quot;, sans-serif; font-size: 12px; font-weight: 200;" x="120.0088882446289" y="0" dx="0em" dy="0.95em" fill="rgb(50, 49, 63)" stroke="none" stroke-width="1px">6k</text><text style="text-anchor: middle; visibility: hidden; font-family: &quot;Helvetica Neue&quot;, sans-serif; font-size: 12px; font-weight: 200;" x="150.01111030578613" y="0" dx="0em" dy="0.95em" fill="rgb(50, 49, 63)" stroke="none" stroke-width="1px">8k</text><text style="text-anchor: middle; visibility: hidden; font-family: &quot;Helvetica Neue&quot;, sans-serif; font-size: 12px; font-weight: 200;" x="180.01333236694336" y="0" dx="0em" dy="0.95em" fill="rgb(50, 49, 63)" stroke="none" stroke-width="1px">10k</text><text style="text-anchor: middle; visibility: hidden; font-family: &quot;Helvetica Neue&quot;, sans-serif; font-size: 12px; font-weight: 200;" x="210.0155544281006" y="0" dx="0em" dy="0.95em" fill="rgb(50, 49, 63)" stroke="none" stroke-width="1px">12k</text><text style="text-anchor: middle; visibility: hidden; font-family: &quot;Helvetica Neue&quot;, sans-serif; font-size: 12px; font-weight: 200;" x="240.0177764892578" y="0" dx="0em" dy="0.95em" fill="rgb(50, 49, 63)" stroke="none" stroke-width="1px">14k</text><text style="text-anchor: middle; visibility: hidden; font-family: &quot;Helvetica Neue&quot;, sans-serif; font-size: 12px; font-weight: 200;" x="270.01999855041504" y="0" dx="0em" dy="0.95em" fill="rgb(50, 49, 63)" stroke="none" stroke-width="1px">16k</text></g><line x1="0" y1="0" x2="270.01999855041504" y2="0" fill="rgb(0, 0, 0)" stroke="rgb(204, 204, 204)" stroke-width="1px"></line></g></g></g></g></svg>