<svg viewBox="0 0 330 200" xmlns="http://www.w3.org/2000/svg"><g><g><g><g><g><line x1="49.98400115966797" y1="178.57999897003174" x2="44.98400115966797" y2="178.57999897003174" style="visibility: inherit;" fill="rgb(0, 0, 0)" stroke="rgb(204, 204, 204)" stroke-width="1px"></line><line x1="49.98400115966797" y1="156.25749909877774" x2="44.98400115966797" y2="156.25749909877774" style="visibility: inherit;" fill="rgb(0, 0, 0)" stroke="rgb(204, 204, 204)" stroke-width="1px"></line><line x1="49.98400115966797" y1="133.9349992275238" x2="44.98400115966797" y2="133.9349992275238" style="visibility: inherit;" fill="rgb(0, 0, 0)" stroke="rgb(204, 204, 204)" stroke-width="1px"></line><line x1="49.98400115966797" y1="111.61249935626982" x2="44.98400115966797" y2="111.61249935626982" style="visibility: inherit;" fill="rgb(0, 0, 0)" stroke="rgb(204, 204, 204)" stroke-width="1px"></line><line x1="49.98400115966797" y1="89.28999948501585" x2="44.98400115966797" y2="89.28999948501585" style="visibility: inherit;" fill="rgb(0, 0, 0)" stroke="rgb(204, 204, 204)" stroke-width="1px"></line><line x1="49.98400115966797" y1="66.9674996137619" x2="44.98400115966797" y2="66.9674996137619" style="visibility: inherit;" fill="rgb(0, 0, 0)" stroke="rgb(204, 204, 204)" stroke-width="1px"></line><line x1="49.98400115966797" y1="44.644999742507906" x2="44.98400115966797" y2="44.644999742507906" style="visibility: inherit;" fill="rgb(0, 0, 0)" stroke="rgb(204, 204, 204)" stroke-width="1px"></line><line x1="49.98400115966797" y1="22.322499871253996" x2="44.98400115966797" y2="22.322499871253996" style="visibility: inherit;" fill="rgb(0, 0, 0)" stroke="rgb(204, 204, 204)" stroke-width="1px"></line><line x1="49.98400115966797" y1="0" x2="44.98400115966797" y2="0" style="visibility: inherit;" fill="rgb(0, 0, 0)" stroke="rgb(204, 204, 204)" stroke-width="1px"></line></g><g transform="translate(39.98400115966797, 0)"><text style="text-anchor: end; visibility: hidden; font-family: &quot;Helvetica Neue&quot;, sans-serif; font-size: 12px; font-weight: 200;" x="0" y="178.57999897003174" dx="0em" dy="0.3em" fill="rgb(50, 49, 63)" stroke="none" stroke-width="1px">0.35</text><text style="text-anchor: end; visibility: inherit; font-family: &quot;Helvetica Neue&quot;, sans-serif; font-size: 12px; font-weight: 200;" x="0" y="156.25749909877774" dx="0em" dy="0.3em" fill="rgb(50, 49, 63)" stroke="none" stroke-width="1px">0.4</text><text style="text-anchor: end; visibility: hidden; font-family: &quot;Helvetica Neue&quot;, sans-serif; font-size: 12px; font-weight: 200;" x="0" y="133.9349992275238" dx="0em" dy="0.3em" fill="rgb(50, 49, 63)" stroke="none" stroke-width="1px">0.45</text><text style="text-anchor: end; visibility: inherit; font-family: &quot;Helvetica Neue&quot;, sans-serif; font-size: 12px; font-weight: 200;" x="0" y="111.61249935626982" dx="0em" dy="0.3em" fill="rgb(50, 49, 63)" stroke="none" stroke-width="1px">0.5</text><text style="text-anchor: end; visibility: hidden; font-family: &quot;Helvetica Neue&quot;, sans-serif; font-size: 12px; font-weight: 200;" x="0" y="89.28999948501585" dx="0em" dy="0.3em" fill="rgb(50, 49, 63)" stroke="none" stroke-width="1px">0.55</text><text style="text-anchor: end; visibility: inherit; font-family: &quot;Helvetica Neue&quot;, sans-serif; font-size: 12px; font-weight: 200;" x="0" y="66.9674996137619" dx="0em" dy="0.3em" fill="rgb(50, 49, 63)" stroke="none" stroke-width="1px">0.6</text><text style="text-anchor: end; visibility: hidden; font-family: &quot;Helvetica Neue&quot;, sans-serif; font-size: 12px; font-weight: 200;" x="0" y="44.644999742507906" dx="0em" dy="0.3em" fill="rgb(50, 49, 63)" stroke="none" stroke-width="1px">0.65</text><text style="text-anchor: end; visibility: inherit; font-family: &quot;Helvetica Neue&quot;, sans-serif; font-size: 12px; font-weight: 200;" x="0" y="22.322499871253996" dx="0em" dy="0.3em" fill="rgb(50, 49, 63)" stroke="none" stroke-width="1px">0.7</text><text style="text-anchor: end; visibility: hidden; font-family: &quot;Helvetica Neue&quot;, sans-serif; font-size: 12px; font-weight: 200;" x="0" y="0" dx="0em" dy="0.3em" fill="rgb(50, 49, 63)" stroke="none" stroke-width="1px">0.75</text></g><line x1="49.98400115966797" y1="0" x2="49.98400115966797" y2="178.57999897003174" fill="rgb(0, 0, 0)" stroke="rgb(204, 204, 204)" stroke-width="1px"></line></g></g><g transform="translate(49, 0)" clip-path="url(#clip_0)"><clipPath id="clip_0"><rect width="280" height="178"></rect></clipPath><g><g><g><line x1="0" y1="0" x2="0" y2="178.57999897003174" fill="rgb(0, 0, 0)" stroke="rgb(60, 60, 60)" stroke-width="1px" opacity="0.25"></line><line x1="31.112888760036892" y1="0" x2="31.112888760036892" y2="178.57999897003174" fill="rgb(0, 0, 0)" stroke="rgb(60, 60, 60)" stroke-width="1px" opacity="0.25"></line><line x1="62.225777520073784" y1="0" x2="62.225777520073784" y2="178.57999897003174" fill="rgb(0, 0, 0)" stroke="rgb(60, 60, 60)" stroke-width="1px" opacity="0.25"></line><line x1="93.33866628011067" y1="0" x2="93.33866628011067" y2="178.57999897003174" fill="rgb(0, 0, 0)" stroke="rgb(60, 60, 60)" stroke-width="1px" opacity="0.25"></line><line x1="124.45155504014757" y1="0" x2="124.45155504014757" y2="178.57999897003174" fill="rgb(0, 0, 0)" stroke="rgb(60, 60, 60)" stroke-width="1px" opacity="0.25"></line><line x1="155.56444380018448" y1="0" x2="155.56444380018448" y2="178.57999897003174" fill="rgb(0, 0, 0)" stroke="rgb(60, 60, 60)" stroke-width="1px" opacity="0.25"></line><line x1="186.67733256022134" y1="0" x2="186.67733256022134" y2="178.57999897003174" fill="rgb(0, 0, 0)" stroke="rgb(60, 60, 60)" stroke-width="1px" opacity="0.25"></line><line x1="217.79022132025824" y1="0" x2="217.79022132025824" y2="178.57999897003174" fill="rgb(0, 0, 0)" stroke="rgb(60, 60, 60)" stroke-width="1px" opacity="0.25"></line><line x1="248.90311008029514" y1="0" x2="248.90311008029514" y2="178.57999897003174" fill="rgb(0, 0, 0)" stroke="rgb(60, 60, 60)" stroke-width="1px" opacity="0.25"></line><line x1="280.01599884033203" y1="0" x2="280.01599884033203" y2="178.57999897003174" fill="rgb(0, 0, 0)" stroke="rgb(60, 60, 60)" stroke-width="1px" opacity="0.25"></line></g><g><line x1="0" y1="178.57999897003174" x2="280.01599884033203" y2="178.57999897003174" fill="rgb(0, 0, 0)" stroke="rgb(60, 60, 60)" stroke-width="1px" opacity="0.25"></line><line x1="0" y1="156.25749909877774" x2="280.01599884033203" y2="156.25749909877774" fill="rgb(0, 0, 0)" stroke="rgb(60, 60, 60)" stroke-width="1px" opacity="0.25"></line><line x1="0" y1="133.9349992275238" x2="280.01599884033203" y2="133.9349992275238" fill="rgb(0, 0, 0)" stroke="rgb(60, 60, 60)" stroke-width="1px" opacity="0.25"></line><line x1="0" y1="111.61249935626982" x2="280.01599884033203" y2="111.61249935626982" fill="rgb(0, 0, 0)" stroke="rgb(60, 60, 60)" stroke-width="1px" opacity="0.25"></line><line x1="0" y1="89.28999948501585" x2="280.01599884033203" y2="89.28999948501585" fill="rgb(0, 0, 0)" stroke="rgb(60, 60, 60)" stroke-width="1px" opacity="0.25"></line><line x1="0" y1="66.9674996137619" x2="280.01599884033203" y2="66.9674996137619" fill="rgb(0, 0, 0)" stroke="rgb(60, 60, 60)" stroke-width="1px" opacity="0.25"></line><line x1="0" y1="44.644999742507906" x2="280.01599884033203" y2="44.644999742507906" fill="rgb(0, 0, 0)" stroke="rgb(60, 60, 60)" stroke-width="1px" opacity="0.25"></line><line x1="0" y1="22.322499871253996" x2="280.01599884033203" y2="22.322499871253996" fill="rgb(0, 0, 0)" stroke="rgb(60, 60, 60)" stroke-width="1px" opacity="0.25"></line><line x1="0" y1="0" x2="280.01599884033203" y2="0" fill="rgb(0, 0, 0)" stroke="rgb(60, 60, 60)" stroke-width="1px" opacity="0.25"></line></g></g></g><g><g><line x1="0" y1="334.8374980688095" x2="280.01599884033203" y2="334.8374980688095" fill="rgb(0, 0, 0)" stroke="rgb(153, 153, 153)" stroke-width="1.5px"></line></g></g><g><g><line x1="31.112888760036892" y1="0" x2="31.112888760036892" y2="178.57999897003174" fill="rgb(0, 0, 0)" stroke="rgb(153, 153, 153)" stroke-width="1.5px"></line></g></g><g><g><g><g><g><path style="fill: none;" stroke="rgb(255, 112, 67)" stroke-width="2px" d="M31.501799869537354,97.66093693673609L31.890710979037813,122.00921341061698L32.279622088538275,111.11981217603334L32.66853319803874,111.30875089647154L33.0574443075392,121.12016271172482L33.44635541703966,122.56907607940653L33.835266526540124,149.62011595275192L34.22417763604058,139.3247779117695L34.61308874554104,135.24870068208216L35.001999855041504,141.72741496838262L35.390910964541966,149.1435572323896L35.77982207404242,158.37548870076333L36.16873318354289,164.92694501793008L36.55764429304335,162.24029600114756L36.94655540254381,165.96206735363475L37.33546651204427,171.43983711491262L37.72437762154473,166.7456783633764L38.11328873104519,173.6737484186484L38.50219984054566,173.03499310222355L38.89111095004612,161.1729699914046L39.280022059546575,127.61163633021866L39.66893316904704,137.12397102614767L40.0578442785475,120.986177772786L40.446755388047954,104.27001732237461L40.835666497548424,113.05622380075992L41.224577607048886,121.79975720163705L41.61348871654934,151.9845054583487L42.0023998260498,128.87655468696298L42.391310935550266,152.5898491210703L42.78022204505073,156.19689811543861L43.16913315455119,140.27043467634488L43.55804426405165,138.9381876445977L43.94695537355211,143.20760071243814L44.33586648305257,125.18155782866248L44.72477759255303,136.86363706498503L45.113688702053494,135.92867114717845L45.50259981155396,164.56615590023637L45.89151092105442,148.117957682259L46.280422030554874,143.9831880847488L46.669333140055336,139.36745845442346L47.058244249555806,143.88954155078255L47.44715535905626,143.78058128936155L47.83606646855672,140.71527394864498L48.224977578057185,142.61839455348223L48.61388868755764,138.94623635173937L49.0027997970581,131.35257522587307L49.39171090655857,103.96344241044451L49.78062201605903,98.83210209201758L50.16953312555949,97.71892377814811L50.55844423505995,112.26407601319796L50.94735534456041,110.4008150810711L51.33626645406087,100.6602912192595L51.72517756356134,114.01799222651513L52.114088673061794,135.5575845251646L52.502999782562256,144.88394083568795L52.89191089206272,125.60301535681185L53.28082200156317,97.02923904519014L53.66973311106364,125.20952301073059L54.058644220564105,123.5667524382491L54.44755533006456,118.52743950984323L54.83646643956502,88.28286639230251L55.225377549065485,106.9854757395666L55.61428865856594,91.48400632033726L56.00319976806641,83.40008725685567L56.39211087756687,97.67506982414447L56.78102198706733,103.2716553242329L57.16993309656779,121.81970670160783L57.55884420606825,119.79778291872665L57.947755315568706,100.58404151509518L58.336666425069176,107.34206818891207L58.72557753456964,127.09856846741609L59.11448864407009,132.37993512842726L59.503399753570555,125.42417879484016L59.89231086307102,116.57727175219446L60.28122197257148,100.35936614916126L60.67013308207194,107.25520114010867L61.059044191572404,83.65047633769957L61.44795530107286,86.65398588735934L61.83686641057332,102.55354233227482L62.225777520073784,79.26187549769587L62.614688629574246,67.36898596226303L63.00359973907471,100.4487945057801L63.39251084857517,92.43446740885534L63.781421958075626,81.95525374628507L64.17033306757608,86.36855072280471L64.55924417707655,76.99646333025078L64.94815528657702,84.37133453412152L65.33706639607747,56.21988244998883L65.72597750557793,54.92131659965254L66.1148886150784,38.74168871423544L66.50379972457885,32.83354194671671L66.89271083407932,25.698188820283292L67.28162194357978,31.457842800980558L67.67053305308025,67.04926351305654L68.0594441625807,44.02667614469814L68.44835527208116,65.63188266789324L68.83726638158161,83.33157659728539L69.22617749108208,83.96045585293066L69.61508860058255,101.74945123735773L70.00399971008301,83.61223119772986L70.39291081958346,71.616998591986L70.78182192908393,80.6901838675348L71.17073303858439,87.63695856019106L71.55964414808484,88.36282432340577L71.94855525758531,70.2286416498488L72.33746636708578,55.9953866251205L72.72637747658624,46.5333069427937L73.1152885860867,25.24330065163437L73.50419969558716,9.189048207378107L73.89311080508762,26.208870860549695L74.28202191458809,39.00617678886465L74.67093302408854,43.55275543151717L75.059844133589,45.42783319437089L75.44875524308947,65.94235470722657L75.83766635258992,60.107142555303696L76.22657746209038,45.830633175555164L76.61548857159086,66.23196789369803L77.00439968109131,55.08819403489048L77.39331079059177,67.76053731068586L77.78222190009224,53.27494708557707L78.1711330095927,38.491371434758065L78.56004411909315,42.23674533977788L78.94895522859362,55.19735297778004L79.33786633809407,36.849279231967984L79.72677744759453,19.176571728155636L80.115688557095,26.071840232359477L80.50459966659545,36.55542432530146L80.89351077609591,55.816945529709045L81.28242188559639,77.87390499541455L81.67133299509685,63.83211577148103L82.0602441045973,60.94211567994577L82.44915521409777,52.28044085441954L82.83806632359823,67.0610042540689L83.22697743309868,52.871546378481455L83.61588854259915,36.67050760644639L84.0047996520996,62.58302246795097L84.39371076160006,110.52369621242597L84.78262187110053,105.52779121573946L85.17153298060099,99.47148692452232L85.56044409010146,80.31909233919056L85.94935519960192,87.28302283169532L86.33826630910238,49.42717217587614L86.72717741860284,71.17011435437192L87.1160885281033,60.729593500709484L87.50499963760376,63.00516016760639L87.89391074710421,43.558314200830665L88.28282185660468,39.283662310327315L88.67173296610514,59.34670276138853L89.0606440756056,88.07211536503976L89.44955518510606,76.45404506635245L89.83846629460653,79.71247056157094L90.22737740410699,90.24453277332718L90.61628851360746,107.45004506211646L91.00519962310791,114.59362051872111L91.39411073260837,154.07992649110545L91.78302184210884,123.85143310591764L92.17193295160929,75.75719456357788L92.56084406110975,74.49452257019404L92.94975517061022,68.98175512867678L93.33866628011067,81.74507505562774L93.72757738961113,65.23401740455662L94.11648849911161,53.43724523205694L94.50539960861207,42.86448640188652L94.89431071811252,40.153827122108424L95.28322182761299,45.410909460420925L95.67213293711345,39.93116854113612L96.0610440466139,71.2249506600908L96.44995515611437,45.9835516455704L96.83886626561483,51.705803671928976L97.22777737511528,52.85802899967281L97.61668848461575,73.72402133029794L98.0055995941162,47.70570517882888L98.39451070361666,51.11451518304732L98.78342181311714,51.83549625739781L99.1723329226176,43.31832588763703L99.56124403211805,45.333949153392865L99.95015514161852,60.29918800181228L100.33906625111898,69.73995325368426L100.72797736061943,73.83960246796526L101.1168884701199,95.60511465348095L101.50579957962036,86.2262502376144L101.89471068912081,65.73037848050558L102.28362179862128,62.15762496559083L102.67253290812174,60.4849021889721L103.06144401762221,53.94302043194068L103.45035512712268,45.09499105043335L103.83926623662313,53.82986788446081L104.22817734612359,53.41446588925781L104.61708845562406,71.26159287408788L105.00599956512451,74.75941951580307L105.39491067462497,61.59280071164038L105.78382178412544,53.95551867074191L106.17273289362589,40.39950744524518L106.56164400312635,33.677037413397045L106.95055511262682,50.9720034186187L107.33946622212729,84.30337789641942L107.72837733162774,66.77473898770128L108.11728844112821,51.670063613197556L108.50619955062866,39.7643734161808L108.89511066012912,31.95092008543847L109.28402176962959,84.32990918043201L109.67293287913004,94.53523641951371L110.0618439886305,60.130056905852385L110.45075509813097,53.87457115360576L110.83966620763142,42.65620569933151L111.22857731713188,55.760300257599056L111.61748842663236,67.92641956393517L112.00639953613282,90.13385822595365L112.39531064563327,91.50222942277081L112.78422175513374,64.48331159337503L113.1731328646342,53.021936596420844L113.56204397413465,67.74348877226012L113.95095508363512,77.28284870639135L114.33986619313558,62.84709285898883L114.72877730263603,44.14162368531572L115.1176884121365,64.32061766838353L115.50659952163696,71.59837522219613L115.89551063113741,41.54758154438662L116.2844217406379,62.28125952982303L116.67333285013835,82.98846170084131L117.0622439596388,84.93342668436837L117.45115506913928,87.1159373065216L117.84006617863973,76.45106280311454L118.22897728814019,56.057314434319025L118.61788839764066,59.64579899642027L119.00679950714111,65.36222763746284L119.39571061664157,57.20090478910127L119.78462172614203,33.84672590427036L120.17353283564249,36.39566120422191L120.56244394514296,56.48615664465014L120.95135505464343,46.88617058683556L121.34026616414388,52.00630301223377L121.72917727364434,44.18787386527683L122.11808838314481,68.79697862781317L122.50699949264526,53.04937563581757L122.89591060214572,67.1160430812856L123.28482171164619,63.24103873316787L123.67373282114664,75.21547952873334L124.0626439306471,68.71604238286925L124.45155504014757,53.14053903294378L124.84046614964804,43.43522796617273L125.22937725914849,42.306578788959825L125.61828836864896,61.78154246837396L126.00719947814942,87.54520847353965L126.39611058764987,68.99360149349437L126.78502169715034,80.5961428324779L127.1739328066508,64.74396869603231L127.56284391615125,64.84605985274627L127.95175502565172,63.61266455527769L128.34066613515216,66.64624237628678L128.72957724465263,63.600204428106096L129.1184883541531,64.77043874256867L129.50739946365357,72.5316355343001L129.89631057315404,75.14986214834704L130.28522168265448,65.00983720533122L130.67413279215495,80.79345374910852L131.06304390165542,51.64363492459319L131.45195501115586,37.9158543097798L131.84086612065633,30.06178140725163L132.2297772301568,23.182582429808434L132.61868833965724,22.16927004591153L133.0075994491577,31.621261322566284L133.39651055865818,42.686115768834924L133.78542166815865,23.52260627785526L134.17433277765912,60.03703335255672L134.56324388715956,73.04870609877042L134.95215499666003,45.72667768553521L135.3410661061605,56.39981549523364L135.72997721566094,59.86715702212908L136.1188883251614,44.08992197920804L136.50779943466185,63.93496420200155L136.89671054416232,57.12056742114119L137.2856216536628,49.08470789481089L137.67453276316323,47.48866921656838L138.06344387266373,53.93298284638573L138.45235498216417,63.15890050595429L138.84126609166464,45.41124946378113L139.2301772011651,49.45235140538358L139.61908831066555,40.26071049935706L140.00799942016602,49.333476847479886L140.39691052966648,52.62091657272788L140.78582163916693,38.65585521532449L141.1747327486674,43.47511605937419L141.56364385816786,50.076472847137666L141.9525549676683,56.42834537607003L142.34146607716877,34.896745207282635L142.73037718666924,57.15083200252907L143.11928829616969,44.82515276947919L143.50819940567015,38.76326408188763L143.89711051517062,45.120504632427696L144.28602162467106,37.071441868529945L144.67493273417156,63.74249218222816L145.06384384367203,72.8379780377125L145.45275495317247,88.77411818825945L145.84166606267294,57.55597449557514L146.2305771721734,69.509978702378L146.61948828167385,64.35243200741981L147.00839939117432,93.31406709200256L147.3973105006748,70.49049271643885L147.78622161017523,43.364604223490204L148.1751327196757,73.74337643478367L148.56404382917617,85.43003605601852L148.9529549386766,68.48089320505801L149.34186604817708,75.37368665451369L149.73077715767755,72.11545810443802L150.119688267178,67.40811421649477L150.50859937667846,59.41862768278925L150.89751048617893,86.4810044620092L151.28642159567937,83.21304256692751L151.67533270517984,70.8446068043751L152.0642438146803,93.8748672508963L152.45315492418075,82.9286730726461L152.84206603368122,69.83117157944938L153.23097714318172,66.71158472471316L153.61988825268216,68.1276280571982L154.00879936218263,69.71826677248383L154.3977104716831,61.88860092908281L154.78662158118354,65.78001706705766L155.175532690684,63.72412635168307L155.56444380018448,68.81726304604537L155.95335490968492,64.73801381012589L156.3422660191854,69.54624812866577L156.73117712868586,99.66201482269587L157.1200882381863,74.44482817504255L157.50899934768677,68.16195153711426L157.89791045718724,74.09893151496486L158.28682156668768,74.78326463907094L158.67573267618815,71.28024031434241L159.06464378568862,51.250492786012174L159.45355489518906,39.91074175296265L159.84246600468953,79.66088083893686L160.23137711419,112.16161988164129L160.62028822369044,119.84809509378985L161.0091993331909,125.37467077132469L161.39811044269138,101.90555540424937L161.78702155219182,92.34932149495155L162.17593266169231,99.25575405458173L162.56484377119278,91.86291936529412L162.95375488069323,75.01032398479347L163.3426659901937,58.910690706248445L163.73157709969416,51.67859789840021L164.1204882091946,27.4866169298773L164.50939931869507,51.686043332378105L164.89831042819554,53.62789463698438L165.28722153769598,75.97016890289729L165.67613264719645,51.0008605606787L166.06504375669692,50.78301330468936L166.45395486619736,71.79648792507247L166.84286597569783,80.44586026001893L167.2317770851983,76.06104908618082L167.62068819469874,77.33903429123308L168.0095993041992,67.29326197399175L168.39851041369968,66.05671264128979L168.78742152320012,82.21822430740369L169.1763326327006,73.48966807498196L169.56524374220106,79.83374738605804L169.9541548517015,68.9002762089427L170.34306596120197,72.58869283494666L170.73197707070247,65.03520874882669L171.1208881802029,38.91953701062846L171.50979928970338,24.622811511437362L171.89871039920385,29.900565716922813L172.2876215087043,25.232211310128292L172.67653261820476,19.187396012279464L173.06544372770523,30.000011932533454L173.45435483720567,25.229042338080575L173.84326594670614,25.631975842393018L174.2321770562066,31.061751991412336L174.62108816570705,38.01495584138135L175.00999927520752,37.41376004756657L175.398910384708,47.95858659248344L175.78782149420843,57.568960878797085L176.1767326037089,60.39663175253091L176.56564371320937,61.94435194868147L176.9545548227098,35.95047305041132L177.34346593221028,22.537840043121605L177.73237704171075,27.70451882937138L178.1212881512112,32.20343419813358L178.51019926071166,27.896074427880194L178.89911037021213,26.553921353742L179.28802147971257,44.18275781312022L179.67693258921307,37.25594602796832L180.06584369871354,44.111413752731465L180.45475480821398,31.492079129901214L180.84366591771445,36.58196509427657L181.23257702721492,39.64420426144207L181.62148813671536,29.462505502206568L182.01039924621583,31.040520895387147L182.3993103557163,40.30214008370211L182.78822146521674,50.93141883906985L183.1771325747172,46.289985104363694L183.56604368421768,52.05058564895347L183.95495479371812,54.16380596244642L184.34386590321859,45.21639296878243L184.73277701271905,35.87092214375903L185.1216881222195,43.56362134151314L185.51059923171997,30.762190303863463L185.89951034122043,57.11526440786416L186.28842145072088,35.091949309306756L186.67733256022134,47.18528419473091L187.0662436697218,29.744475014822598L187.45515477922226,29.37639721757901L187.84406588872272,62.192372278159496L188.23297699822322,80.33585058691791L188.62188810772366,78.07282429181568L189.01079921722413,65.02057482589066L189.3997103267246,84.55976767871738L189.78862143622504,60.238419520313286L190.1775325457255,61.170972874871836L190.56644365522598,51.822707576810814L190.95535476472642,51.896646826985645L191.3442658742269,88.90103192669429L191.73317698372736,57.90858075480975L192.1220880932278,56.27238964196687L192.51099920272827,60.06179335201905L192.89991031222874,81.57934626045402L193.28882142172918,73.52814003983359L193.67773253122965,66.53208748867358L194.06664364073012,63.256764305063584L194.45555475023056,55.93598181586174L194.84446585973103,40.21797092560456L195.2333769692315,65.32033307465389L195.62228807873194,36.84698476007557L196.0111991882324,57.594739080306155L196.40011029773288,31.628308760511317L196.78902140723332,31.62696815888279L197.17793251673382,34.23960194460372L197.5668436262343,24.80495827839823L197.95575473573473,23.061945403654477L198.3446658452352,14.640008186776726L198.73357695473567,29.344030286740093L199.1224880642361,22.405156615311995L199.51139917373658,63.67669412522571L199.90031028323705,67.82484411454149L200.2892213927375,66.53849123850571L200.67813250223796,81.64363961988242L201.06704361173843,40.03325408839146L201.45595472123887,41.851868170817596L201.84486583073934,29.39453333543679L202.2337769402398,27.40728594996247L202.62268804974025,32.06440203645906L203.01159915924072,35.93557906525001L203.4005102687412,18.146252347829062L203.78942137824163,35.97209335865389L204.1783324877421,26.984042006241197L204.56724359724257,14.69705636360112L204.956154706743,5.862713686542975L205.34506581624348,20.083531780408492L205.73397692574397,31.552870668967586L206.12288803524442,58.405608751746556L206.51179914474488,43.03906877280298L206.90071025424535,35.91091556783161L207.2896213637458,26.865384373568133L207.67853247324626,11.10206432436118L208.06744358274673,-7.176453870191608L208.45635469224717,12.612557987482603L208.84526580174764,0.1822150329248302L209.2341769112481,-5.096167792813276L209.62308802074855,23.815914036726014L210.01199913024902,35.49346683132555L210.4009102397495,73.26143100977184L210.78982134924993,73.4094710953843L211.1787324587504,86.75811223743622L211.56764356825087,69.00018285896495L211.9565546777513,52.48608443518751L212.34546578725178,26.125676668925166L212.73437689675225,26.712260524351365L213.1232880062527,20.512906678605844L213.51219911575316,23.859021420305538L213.90111022525363,23.775736561447957L214.29002133475407,26.45390874637326L214.67893244425457,56.30761298862144L215.06784355375504,45.18964357770503L215.45675466325548,33.536789812667166L215.84566577275595,12.911838196325249L216.23457688225642,50.05565618249349L216.62348799175686,33.264412915313386L217.01239910125733,41.689541206260714L217.4013102107578,36.77012212678221L217.79022132025824,42.11927396871229L218.1791324297587,30.98071038533655L218.56804353925918,29.99145252668282L218.95695464875962,43.51803448557294L219.3458657582601,43.31199667364254L219.73477686776056,60.23932392763393L220.123687977261,68.70126042313305L220.51259908676147,51.48707840482713L220.90151019626194,47.299343291907974L221.29042130576238,46.21743470807692L221.67933241526285,66.4354073945094L222.06824352476332,87.14518641600013L222.45715463426376,102.38400121091686L222.84606574376423,93.62675390863502L223.23497685326473,88.0521382596669L223.62388796276517,80.6836540088544L224.01279907226564,84.89421707090463L224.4017101817661,89.71378591372869L224.79062129126655,65.37540631303577L225.17953240076702,52.2320975405589L225.56844351026749,57.8537757329391L225.95735461976793,60.974782593115336L226.3462657292684,52.98843812582507L226.73517683876887,42.10618949442474L227.1240879482693,9.365613685449347L227.51299905776978,5.464412801228065L227.90191016727024,26.629838321432374L228.29082127677069,24.374041632144724L228.67973238627116,23.5361971339955L229.06864349577162,51.546406358272776L229.45755460527207,55.008536330980974L229.84646571477253,62.550753821160555L230.235376824273,70.58719839734282L230.62428793377345,61.87863104805143L231.01319904327391,62.26316404369935L231.40211015277438,55.96832862640228L231.79102126227482,51.56679828151775L232.17993237177532,48.83769508407818L232.5688434812758,54.71624796489712L232.95775459077623,23.13670808705649L233.3466657002767,21.862473516079774L233.73557680977717,45.52651929772304L234.1244879192776,46.67272009739179L234.51339902877808,41.473134630874455L234.90231013827855,60.78402692116539L235.291221247779,33.7347297154096L235.68013235727946,26.607505584822633L236.06904346677993,49.97119079445062L236.45795457628037,35.48123894213319L236.84686568578084,45.54855311937101L237.2357767952813,23.340477492603924L237.62468790478175,43.365774996336L238.01359901428222,53.134172341253574L238.4025101237827,54.893126752678555L238.79142123328313,53.84291545558591L239.1803323427836,82.09869467141935L239.56924345228407,79.06650378872779L239.9581545617845,58.71566850392567L240.34706567128498,77.41294609370712L240.73597678078548,54.87582744237815L241.12488789028592,45.392310330481536L241.5137989997864,39.432413127096936L241.90271010928686,29.808052957220866L242.2916212187873,35.022666597654535L242.68053232828777,23.61314316326775L243.06944343778824,33.530600335010234L243.45835454728868,27.31948816038451L243.84726565678915,31.528335427135545L244.23617676628962,47.311314292813336L244.62508787579006,41.33489501616211L245.01399898529053,34.46158727849402L245.402910094791,23.20972713279133L245.79182120429144,15.642357728179718L246.1807323137919,-0.5143119131056721L246.56964342329238,16.70568565279504L246.95855453279282,39.88970838411487L247.3474656422933,19.968728007335812L247.73637675179376,41.11572895566067L248.1252878612942,46.55055664027313L248.51419897079467,63.43904278470613L248.90311008029514,39.07868504402296L249.29202118979558,38.29058754587359L249.68093229929607,47.91695096637662L250.06984340879654,43.77409902543235L250.45875451829698,61.96549527733289L250.84766562779745,42.873023304800114L251.23657673729792,41.80279007682094L251.62548784679836,38.419702185160816L252.01439895629883,42.14787227123293L252.4033100657993,45.463158282423734L252.79222117529974,45.49461400502682L253.1811322848002,30.843782667332533L253.57004339430068,31.84697469688456L253.95895450380112,33.50169216727329L254.3478656133016,13.371985628899807L254.73677672280206,23.205141666140406L255.1256878323025,27.13886513847598L255.51459894180297,30.489930355233923L255.90351005130344,13.297401046637987L256.2924211608039,24.6449911933195L256.6813322703043,49.605579027257164L257.0702433798048,36.18913683829521L257.45915448930526,35.09288802703762L257.8480655988057,25.23178649144006L258.2369767083062,47.762370846778964L258.6258878178067,44.82040567889527L259.01479892730714,48.16879060153025L259.4037100368076,53.45122484294788L259.7926211463081,30.36662522398882L260.1815322558085,34.11749617341218L260.57044336530896,29.757667627718234L260.95935447480946,20.001843265567288L261.3482655843099,20.3179157073545L261.73717669381034,32.99084867350311L262.12608780331084,28.512003477202512L262.5149989128113,45.665297138508805L262.9039100223117,38.06053652162271L263.2928211318122,55.94080603818307L263.68173224131266,85.17523212075255L264.0706433508131,63.201186414765615" fill="none"></path></g></g></g></g><g opacity="0.2"><g><g><g><path style="fill: none;" stroke="rgb(255, 112, 67)" stroke-width="2px" d="M31.501799869537354,97.66093693673609L31.890710979037813,139.5156241953373L32.279622088538275,97.66093693673609L32.66853319803874,111.61249935626982L33.0574443075392,139.5156241953373L33.44635541703966,125.56406177580357L33.835266526540124,209.27343629300594L34.22417763604058,115.5986714520624L34.61308874554104,125.56406177580357L35.001999855041504,157.45334540541683L35.390910964541966,167.41874903440475L35.77982207404242,181.37031145393848L36.16873318354289,181.37031145393848L36.55764429304335,155.46025935752056L36.94655540254381,175.39106661549638L37.33546651204427,185.35647024448429L37.72437762154473,154.79591508188412L38.11328873104519,191.33571508292638L38.50219984054566,171.40490782495056L38.89111095004612,130.87893572811572L39.280022059546575,41.85468725860119L39.66893316904704,161.43950419596266L40.0578442785475,79.72320242140981L40.446755388047954,61.51973551792764L40.835666497548424,135.52946540479147L41.224577607048886,144.16614056676627L41.61348871654934,229.20424355098177L42.0023998260498,69.75781209766865L42.391310935550266,213.25959508355174L42.78022204505073,165.42567629175522L43.16913315455119,99.52114348530769L43.55804426405165,135.52946540479147L43.94695537355211,154.1315441957542L44.33586648305257,79.05884484052663L44.72477759255303,166.75439145352158L45.113688702053494,133.5363793568952L45.50259981155396,237.84091871295658L45.89151092105442,106.03185310006153L46.280422030554874,133.40351316281726L46.669333140055336,127.5571345184531L47.058244249555806,155.46025935752056L47.44715535905626,143.5017829858831L47.83606646855672,132.87202177601202L48.224977578057185,147.48794177642893L48.61388868755764,129.55022056634937L49.0027997970581,111.922538216114L49.39171090655857,33.88236967750956L49.78062201605903,85.70244725985191L50.16953312555949,94.87061380863194L50.55844423505995,149.4810278243252L50.94735534456041,105.63325451782772L51.33626645406087,75.73703032561724L51.72517756356134,148.19659252375365L52.114088673061794,190.67134419679647L52.502999782562256,168.7474641961711L52.89191089206272,76.26854832291599L53.28082200156317,23.916979353768397L53.66973311106364,197.31494661612174L54.058644220564105,119.36336441040041L54.44755533006456,105.63325451782772L54.83646643956502,10.895506903273713L55.225377549065485,154.84019494307893L55.61428865856594,51.820104192835856L56.00319976806641,62.71561109610957L56.39211087756687,134.20073693777837L56.78102198706733,117.59174419471194L57.16993309656779,169.27895558297635L57.55884420606825,114.62424840084154L57.947755315568706,51.42147900010855L58.336666425069176,124.63395850151775L58.72557753456964,177.6498983567953L59.11448864407009,145.8934676160132L59.503399753570555,107.62635387097076L59.89231086307102,93.9405238395929L60.28122197257148,58.862305194394935L60.67013308207194,124.89970419492039L61.059044191572404,23.25262177288522L61.44795530107286,94.3391224218267L61.83686641057332,143.2360372924805L62.225777520073784,19.665048259326454L62.614688629574246,36.938425193769575L63.00359973907471,185.09072455108168L63.39251084857517,71.92805750608443L63.781421958075626,55.14189209725174L64.17033306757608,97.66093693673609L64.55924417707655,53.01592655003077L64.94815528657702,103.24155658245088L65.33706639607747,-15.811768968105326L65.72597750557793,51.5986516658748L66.1148886150784,-2.657430323532708L66.50379972457885,17.716255377871732L66.89271083407932,7.440826194286387L67.28162194357978,46.19517807543275L67.67053305308025,158.1177029863L68.0594441625807,-14.881652388572775L68.44835527208116,120.91353209912782L68.83726638158161,128.62011729206358L69.22617749108208,85.56958106577397L69.61508860058255,147.26648924946787L70.00399971008301,37.20418419241895L70.39291081958346,40.92457067906864L70.78182192908393,103.90591416333406L71.17073303858439,105.41180199086666L71.55964414808484,90.2201107424497L71.94855525758531,23.828366410391766L72.33746636708578,19.576488536936836L72.72637747658624,22.32250519335267L73.1152885860867,-29.231840000833813L73.50419969558716,-31.88927032436652L73.89311080508762,69.75781209766865L74.28202191458809,71.75088484031818L74.67093302408854,55.18617195844655L75.059844133589,50.22563003242013L75.44875524308947,118.43324783086786L75.83766635258992,45.176475163017074L76.22657746209038,9.30105935335149L76.61548857159086,118.43324783086786L77.00439968109131,26.574409677301105L77.39331079059177,100.18550106619087L77.78222190009224,16.210394160832635L78.1711330095927,0.664357580883177L78.56004411909315,51.820104192835856L78.94895522859362,88.35990419387812L79.33786633809407,-10.098283128312602L79.72677744759453,-26.042918290495862L80.115688557095,43.714893807172786L80.50459966659545,63.379968676992746L80.89351077609591,105.10176313102248L81.28242188559639,134.3114632012589L81.67133299509685,27.90312483906746L82.0602441045973,53.54741793683601L82.44915521409777,30.11765010867805L82.83806632359823,104.88031060406142L83.22697743309868,16.56471288187163L83.61588854259915,-4.7833958707536794L84.0047996520996,128.8858629854662L84.39371076160006,233.19040234152757L84.78262187110053,92.74467487190448L85.17153298060099,83.97510690535825L85.56044409010146,31.31349907636647L85.94935519960192,105.10176313102248L86.33826630910238,-47.43530690431598L86.72717741860284,126.8041906046868L87.1160885281033,34.01523587158749L87.50499963760376,68.8276955181361L87.89391074710421,-6.200697365403158L88.28282185660468,28.346029892989577L88.67173296610514,110.68238277673727L89.0606440756056,161.5723703900406L89.44955518510606,46.72666946223799L89.83846629460653,88.04986533403394L90.22737740410699,117.19311900198463L90.61628851360746,151.4741138722215L91.00519962310791,132.87202177601202L91.39411073260837,255.11428234215293L91.78302184210884,46.505216935276934L92.17193295160929,-47.302440710238045L92.56084406110975,71.26369992520125L92.94975517061022,54.87613309860237L93.33866628011067,114.40282248437397L93.72757738961113,22.986862774235846L94.11648849911161,23.25262177288522L94.50539960861207,15.811768968105326L94.89431071811252,33.21801209662638L95.28322182761299,58.862305194394935L95.67213293711345,25.910052096417928L96.0610440466139,151.29694120645524L96.44995515611437,-18.602092096209475L96.83886626561483,66.34743786036964L97.22777737511528,55.80624967813492L97.61668848461575,127.11422946453098L98.0055995941162,-18.86785109485885L98.39451070361666,59.836701635122296L98.78342181311714,53.68028413091395L99.1723329226176,21.525281418391558L99.56124403211805,50.491362420575996L99.95015514161852,98.59102690577514L100.33906625111898,93.89621736790458L100.72797736061943,84.32945223689075L101.1168884701199,151.29694120645524L101.50579957962036,62.22837296000563L101.89471068912081,13.287204838650553L102.28362179862128,53.015953160524276L102.67253290812174,56.20487487086223L103.06144401762221,37.20418419241895L103.45035512712268,22.455371387430603L103.83926623662313,76.17996199003287L104.22817734612359,52.35156896914759L104.61708845562406,116.92737330858199L105.00599956512451,83.70937451720238L105.39491067462497,27.90312483906746L105.78382178412544,34.4138610643148L106.17273289362589,5.713485839792725L106.56164400312635,16.476126548988503L106.95055511262682,95.22495914016444L107.33946622212729,169.58899444282054L107.72837733162774,21.92388000062536L108.11728844112821,13.021445840001178L108.50619955062866,9.30105935335149L108.89511066012912,11.958489676884199L109.28402176962959,218.35301650890287L109.67293287913004,120.64779971097195L110.0618439886305,-27.90312483906746L110.45075509813097,37.86854177330213L110.83966620763142,13.95156241953373L111.22857731713188,89.28999416291717L111.61748842663236,99.05609850078817L112.00639953613282,146.95645038962368L112.39531064563327,95.00350661320338L112.78422175513374,-4.650503066182239L113.1731328646342,23.69550021631383L113.56204397413465,105.41180199086666L113.95095508363512,101.69138889372347L114.33986619313558,25.910052096417928L114.72877730263603,-3.7204130971431937L115.1176884121365,115.9529901731014L115.50659952163696,90.2201107424497L115.89551063113741,-35.34395103335385L116.2844217406379,115.33291245341303L116.67333285013835,135.97237045871358L117.0622439596388,89.91004527211201L117.45115506913928,92.70036840021616L117.84006617863973,49.16264725880964L118.22897728814019,3.875445832312039L118.61788839764066,68.8277221286296L119.00679950714111,79.98896142005918L119.39571061664157,36.318374084574714L119.78462172614203,-25.910052096417928L120.17353283564249,42.917670032211674L120.56244394514296,107.89208625912663L120.95135505464343,22.32250519335267L121.34026616414388,65.1072824209929L121.72917727364434,24.182711741924265L122.11808838314481,131.76475914120672L122.50699949264526,12.755686841351803L122.89591060214572,103.10869038837295L123.28482171164619,53.32599202036846L123.67373282114664,105.85470704478878L124.0626439306471,52.08580997049822L124.45155504014757,13.287204838650553L124.84046614964804,18.60206548571597L125.22937725914849,39.41868285153603L125.61828836864896,111.61249935626982L126.00719947814942,153.46718661487103L126.39611058764987,21.52525480789805L126.78502169715034,110.28378419450347L127.1739328066508,24.182711741924265L127.56284391615125,65.1072824209929L127.95175502565172,60.45675274431716L128.34066613515216,74.40831516385089L128.72957724465263,55.80624967813492L129.1184883541531,67.76473935501912L129.50739946365357,92.39035615086549L129.89631057315404,81.84916796863078L130.28522168265448,39.06436413049704L130.67413279215495,121.1792910977772L131.06304390165542,-22.94255630254753L131.45195501115586,2.7903231281041485L131.84086612065633,9.965416934234668L132.2297772301568,5.580646256208297L132.61868833965724,19.576488536936836L133.0075994491577,55.80624967813492L133.39651055865818,70.99796753704538L133.78542166815865,-25.51142690369062L134.17433277765912,153.46718661487103L134.56324388715956,106.34191857039922L134.95215499666003,-24.182711741924265L135.3410661061605,83.70937451720238L135.72997721566094,68.73910918525297L136.1188883251614,3.7204130971431937L136.50779943466185,114.7128480389714L136.89671054416232,39.68444185018541L137.2856216536628,28.523202558755827L137.67453276316323,43.4048549473286L138.06344387266373,70.42216967855182L138.45235498216417,86.7654300334624L138.84126609166464,0L139.2301772011651,59.79239516343398L139.61908831066555,16.741885547637878L140.00799942016602,72.5481352257728L140.39691052966648,61.032550602810716L140.78582163916693,2.9231893221820826L141.1747327486674,55.80624967813492L141.56364385816786,66.9674889695645L141.9525549676683,72.68100141985073L142.34146607716877,-20.196566256625204L142.73037718666924,114.09278362452979L143.11928829616969,13.287204838650553L143.50819940567015,23.252595162391714L143.89711051517062,61.386895934343215L144.28602162467106,16.47615315948201L144.67493273417156,131.98621166816778L145.06384384367203,96.11076924800868L145.45275495317247,129.55022056634937L145.84166606267294,-22.322478582859162L146.2305771721734,100.09691473330774L146.61948828167385,51.15572000145917L147.00839939117432,167.41874903440475L147.3973105006748,12.09138248145564L147.78622161017523,-26.042918290495862L148.1751327196757,151.4741138722215L148.56404382917617,115.33291245341303L148.9529549386766,25.11280171096331L149.34186604817708,93.01040726006035L149.73077715767755,63.77856725922655L150.119688267178,55.3633446242128L150.50859937667846,38.975777797613915L150.89751048617893,155.72601835616993L151.28642159567937,74.85124682826651L151.67533270517984,39.19725693506848L152.0642438146803,152.80282903398785L152.45315492418075,54.92043957029068L152.84206603368122,36.31834747408121L153.23097714318172,58.729439000317L153.61988825268216,71.75088484031818L154.00879936218263,73.78826405465603L154.3977104716831,41.85468725860119L154.78662158118354,75.73705693611075L155.175532690684,58.463680001667626L155.56444380018448,81.84916796863078L155.95335490968492,54.300361850602314L156.3422660191854,81.84916796863078L156.73117712868586,176.71979508250948L157.1200882381863,9.921137073039858L157.50899934768677,52.085836580991725L157.89791045718724,89.28999416291717L158.28682156668768,76.53428071107186L158.67573267618815,62.31698590338226L159.06464378568862,0L159.45355489518906,10.895506903273713L159.84246600468953,181.37031145393848L160.23137711419,195.3218738734722L160.62028822369044,139.5156241953373L161.0091993331909,139.5156241953373L161.39811044269138,41.85468725860119L161.78702155219182,67.89760554909705L162.17593266169231,116.92737330858199L162.56484377119278,72.9467338080066L162.95375488069323,31.88927032436652L163.3426659901937,17.716255377871732L163.73157709969416,33.173705624938066L164.1204882091946,-34.4138610643148L164.50939931869507,113.60557209891935L164.89831042819554,58.59654619574556L165.28722153769598,133.13776746941463L165.67613264719645,-12.888579645923244L166.06504375669692,50.22560342192662L166.45395486619736,125.56406177580357L166.84286597569783,102.5771723910742L167.2317770851983,64.84155003283703L167.62068819469874,80.60903913974755L168.0095993041992,41.58895487044532L168.39851041369968,62.892730540888806L168.78742152320012,123.57098903315404L169.1763326327006,51.15574661195268L169.56524374220106,96.06646277632036L169.9541548517015,40.92459728956214L170.34306596120197,82.02631402390352L170.73197707070247,45.707966549822316L171.1208881802029,-27.90312483906746L171.50979928970338,-11.958489676884199L171.89871039920385,43.4048549473286L172.2876215087043,13.287204838650553L172.67653261820476,3.7204130971431937L173.06544372770523,57.666456226706515L173.45435483720567,13.021472450494684L173.84326594670614,26.662969399690724L174.2321770562066,44.955022636056015L174.62108816570705,55.80624967813492L175.00999927520752,35.875469030652596L175.398910384708,74.93983316114964L175.78782149420843,82.15920682847496L176.1767326037089,67.63184655044768L176.56564371320937,65.90453280644752L176.9545548227098,-30.560555162600167L177.34346593221028,-11.781317011117949L177.73237704171075,40.92459728956214L178.1212881512112,43.714893807172786L178.51019926071166,16.874751741715812L178.89911037021213,23.11972896831378L179.28802147971257,89.28999416291717L179.67693258921307,19.53218206524852L180.06584369871354,61.65262832249908L180.45475480821398,-0.7972503854546176L180.84366591771445,49.60555231273176L181.23257702721492,47.479613376004295L181.62148813671536,3.4104008477925163L182.01039924621583,35.07821864519798L182.3993103557163,64.00001978618761L182.78822146521674,78.12875487148759L183.1771325747172,34.4138610643148L183.56604368421768,66.79034291429176L183.95495479371812,59.57094263647292L184.34386590321859,22.322478582859162L184.73277701271905,11.958489676884199L185.1216881222195,63.247075872421306L185.51059923171997,-1.993072742649531L185.89951034122043,124.54537216863463L186.28842145072088,-21.259522419742183L186.67733256022134,78.12872826099408L187.0662436697218,-14.881652388572775L187.45515477922226,28.434589615379195L187.84406588872272,146.15922661466257L188.23297699822322,126.75991074349199L188.62188810772366,72.28237622712342L189.01079921722413,31.623537936210653L189.3997103267246,134.5550689640641L189.78862143622504,-1.993072742649531L190.1775325457255,63.55711473226549L190.56644365522598,27.90312483906746L190.95535476472642,52.085836580991725L191.3442658742269,183.5848500287958L191.73317698372736,-21.392388613820117L192.1220880932278,52.085836580991725L192.51099920272827,69.75781209766865L192.89991031222874,136.63671473435002L193.28882142172918,52.92736682764115L193.67773253122965,48.6311558720044L194.06664364073012,54.87613309860237L194.45555475023056,37.20415758192544L194.84446585973103,0L195.2333769692315,129.55022056634937L195.62228807873194,-36.00830861423702L196.0111991882324,110.68240938723078L196.40011029773288,-34.81248625704211L196.78902140723332,31.623537936210653L197.17793251673382,40.92459728956214L197.5668436262343,0.664357580883177L197.95575473573473,18.60206548571597L198.3446658452352,-6.909361417974651L198.73357695473567,66.9674889695645L199.1224880642361,4.650529676675745L199.51139917373658,169.27895558297635L199.90031028323705,78.43879373133177L200.2892213927375,63.247075872421306L200.67813250223796,120.29346768468619L201.06704361173843,-66.43602419325276L201.45595472123887,46.50519032478343L201.84486583073934,-2.4802842682599646L202.2337769402398,22.322478582859162L202.62268804974025,43.98065280582216L203.01159915924072,45.84083274390025L203.4005102687412,-27.371633452262216L203.78942137824163,81.5834089699814L204.1783324877421,3.986145485299062L204.56724359724257,-16.741885547637878L204.956154706743,-16.741885547637878L205.34506581624348,56.470607259018095L205.73397692574397,60.89968440873278L206.12288803524442,127.11421615928421L206.51179914474488,3.7204130971431937L206.90071025424535,17.671975516676923L207.2896213637458,3.7204130971431937L207.67853247324626,-29.231840000833813L208.06744358274673,-53.94604312956332L208.45635469224717,63.247075872421306L208.84526580174764,-31.623537936210653L209.2341769112481,-18.60206548571597L209.62308802074855,97.79380313081403L210.01199913024902,65.37304141964228L210.4009102397495,169.89903330266472L210.78982134924993,73.78826405465603L211.1787324587504,120.91353209912782L211.56764356825087,23.562634022235898L211.9565546777513,10.231149322390536L212.34546578725178,-41.323195871795946L212.73437689675225,28.213163698911643L213.1232880062527,4.650503066182239L213.51219911575316,32.42078832166527L213.90111022525363,23.562634022235898L214.29002133475407,33.306598429509506L214.67893244425457,132.69484911024577L215.06784355375504,16.741885547637878L215.45675466325548,3.7204130971431937L215.84566577275595,-39.86161451595166L216.23457688225642,145.0962438410521L216.62348799175686,-9.699657935585293L217.01239910125733,63.247075872421306L217.4013102107578,24.182711741924265L217.79022132025824,55.80624967813492L218.1791324297587,2.480257657766458L218.56804353925918,27.46021978514534L218.95695464875962,78.12875487148759L219.3458657582601,42.78480383813374L219.73477686776056,103.55159544229507L220.123687977261,90.35297693652764L220.51259908676147,7.440826194286387L220.90151019626194,36.58410647273058L221.29042130576238,43.44913480852341L221.67933241526285,118.16751544271199L222.06824352476332,140.1356886097789L222.45715463426376,141.37584404915563L222.84606574376423,71.21942006400644L223.23497685326473,73.78826405465603L223.62388796276517,61.82977437777183L224.01279907226564,95.66786419408656L224.4017101817661,102.04570761476246L224.79062129126655,3.100335377454826L225.17953240076702,18.60206548571597L225.56844351026749,72.2380697554351L225.95735461976793,68.96056171221403L226.3462657292684,32.5536279052497L226.73517683876887,14.261574668884407L227.1240879482693,-74.40831516385089L227.51299905776978,-4.517663482597811L227.90191016727024,80.7862118055138L228.29082127677069,18.602092096209475L228.67973238627116,21.392388613820117L229.06864349577162,123.21665700686827L229.45755460527207,63.86715359210967L229.84646571477253,81.84916796863078L230.235376824273,91.15020071148875L230.62428793377345,39.59585551730228L231.01319904327391,63.247075872421306L231.40211015277438,39.86161451595166L231.79102126227482,40.304519569873776L232.17993237177532,41.85468725860119L232.5688434812758,69.75781209766865L232.95775459077623,-57.666456226706515L233.3466657002767,18.60206548571597L233.73557680977717,106.07615957174984L234.1244879192776,49.60552570223825L234.51339902877808,28.168857227223327L234.90231013827855,110.19517125112684L235.291221247779,-35.47681722743178L235.68013235727946,8.370942773818939L236.06904346677993,109.75229280769823L236.45795457628037,-1.5944741604157286L236.84686568578084,71.30797978639606L237.2357767952813,-33.48374448478225L237.62468790478175,94.60488142047608L238.01359901428222,78.12875487148759L238.4025101237827,59.39379658120018L238.79142123328313,51.15572000145917L239.1803323427836,154.3972898891568L239.56924345228407,71.30797978639606L239.9581545617845,6.643602419325276L240.34706567128498,125.25402291595938L240.73597678078548,-2.7903231281041485L241.12488789028592,21.12665622566425L241.5137989997864,24.182711741924265L241.90271010928686,5.182021063480988L242.2916212187873,48.365396873355024L242.68053232828777,-5.5806196457147905L243.06944343778824,58.906585055589744L243.45835454728868,11.426998290078956L243.84726565678915,42.29759231252331L244.23617676628962,87.69552000250144L244.62508787579006,26.042918290495862L245.01399898529053,16.874725131222306L245.402910094791,-5.5806196457147905L246.1807323137919,-41.85468725860119L246.56964342329238,60.76681821465485L246.95855453279282,99.2111046254635L247.3474656422933,-31.003460216522285L247.73637675179376,95.22495914016444L248.1252878612942,60.45675274431716L248.51419897079467,106.6519308197499L248.90311008029514,-23.25262177288522L249.29202118979558,36.2740676128864L249.68093229929607,72.54810861527929L250.06984340879654,33.173705624938066L250.45875451829698,108.512163978815L250.84766562779745,-5.979244838442099L251.23657673729792,39.06436413049704L251.62548784679836,29.763331387639056L252.01439895629883,51.687211388264416L252.4033100657993,53.94604312956332L252.79222117529974,45.57510035574438L253.1811322848002,-6.64357580883177L253.57004339430068,34.4138610643148L253.95895450380112,37.735648968730686L254.3478656133016,-38.134274161457995L254.73677672280206,48.36542348384853L255.1256878323025,37.20415758192544L255.51459894180297,39.06436413049704L255.90351005130344,-30.693447967171608L256.2924211608039,53.68028413091395L256.6813322703043,113.47270590484142L257.0702433798048,1.8602331590651033L257.45915448930526,32.28789551709383L257.8480655988057,0L258.2369767083062,105.41180199086666L258.6258878178067,37.29274391480857L259.01479892730714,56.73636625766747L259.4037100368076,66.9674889695645L259.7926211463081,-28.700375224522077L260.1815322558085,43.71492041766629L260.57044336530896,18.602092096209475L260.95935447480946,-4.960568536519929L261.3482655843099,21.12665622566425L261.73717669381034,65.41732128083709L262.12608780331084,17.051897796988555L262.5149989128113,89.55575316156653L262.9039100223117,18.602092096209475L263.2928211318122,101.69138889372347L263.68173224131266,159.9779095348716L264.0706433508131,6.975781209766865" fill="none"></path></g></g></g></g></g></g><g transform="translate(49, 178)" clip-path="url(#clip_1)"><clipPath id="clip_1"><rect width="280" height="21"></rect></clipPath><g><g><line x1="0" y1="0" x2="0" y2="5" style="visibility: inherit;" fill="rgb(0, 0, 0)" stroke="rgb(204, 204, 204)" stroke-width="1px"></line><line x1="31.112888760036892" y1="0" x2="31.112888760036892" y2="5" style="visibility: inherit;" fill="rgb(0, 0, 0)" stroke="rgb(204, 204, 204)" stroke-width="1px"></line><line x1="62.225777520073784" y1="0" x2="62.225777520073784" y2="5" style="visibility: inherit;" fill="rgb(0, 0, 0)" stroke="rgb(204, 204, 204)" stroke-width="1px"></line><line x1="93.33866628011067" y1="0" x2="93.33866628011067" y2="5" style="visibility: inherit;" fill="rgb(0, 0, 0)" stroke="rgb(204, 204, 204)" stroke-width="1px"></line><line x1="124.45155504014757" y1="0" x2="124.45155504014757" y2="5" style="visibility: inherit;" fill="rgb(0, 0, 0)" stroke="rgb(204, 204, 204)" stroke-width="1px"></line><line x1="155.56444380018448" y1="0" x2="155.56444380018448" y2="5" style="visibility: inherit;" fill="rgb(0, 0, 0)" stroke="rgb(204, 204, 204)" stroke-width="1px"></line><line x1="186.67733256022134" y1="0" x2="186.67733256022134" y2="5" style="visibility: inherit;" fill="rgb(0, 0, 0)" stroke="rgb(204, 204, 204)" stroke-width="1px"></line><line x1="217.79022132025824" y1="0" x2="217.79022132025824" y2="5" style="visibility: inherit;" fill="rgb(0, 0, 0)" stroke="rgb(204, 204, 204)" stroke-width="1px"></line><line x1="248.90311008029514" y1="0" x2="248.90311008029514" y2="5" style="visibility: inherit;" fill="rgb(0, 0, 0)" stroke="rgb(204, 204, 204)" stroke-width="1px"></line><line x1="280.01599884033203" y1="0" x2="280.01599884033203" y2="5" style="visibility: inherit;" fill="rgb(0, 0, 0)" stroke="rgb(204, 204, 204)" stroke-width="1px"></line></g><g transform="translate(0, 8)"><text style="text-anchor: middle; visibility: hidden; font-family: &quot;Helvetica Neue&quot;, sans-serif; font-size: 12px; font-weight: 200;" x="0" y="0" dx="0em" dy="0.95em" fill="rgb(50, 49, 63)" stroke="none" stroke-width="1px">-2k</text><text style="text-anchor: middle; visibility: inherit; font-family: &quot;Helvetica Neue&quot;, sans-serif; font-size: 12px; font-weight: 200;" x="31.112888760036892" y="0" dx="0em" dy="0.95em" fill="rgb(50, 49, 63)" stroke="none" stroke-width="1px">0</text><text style="text-anchor: middle; visibility: inherit; font-family: &quot;Helvetica Neue&quot;, sans-serif; font-size: 12px; font-weight: 200;" x="62.225777520073784" y="0" dx="0em" dy="0.95em" fill="rgb(50, 49, 63)" stroke="none" stroke-width="1px">2k</text><text style="text-anchor: middle; visibility: inherit; font-family: &quot;Helvetica Neue&quot;, sans-serif; font-size: 12px; font-weight: 200;" x="93.33866628011067" y="0" dx="0em" dy="0.95em" fill="rgb(50, 49, 63)" stroke="none" stroke-width="1px">4k</text><text style="text-anchor: middle; visibility: inherit; font-family: &quot;Helvetica Neue&quot;, sans-serif; font-size: 12px; font-weight: 200;" x="124.45155504014757" y="0" dx="0em" dy="0.95em" fill="rgb(50, 49, 63)" stroke="none" stroke-width="1px">6k</text><text style="text-anchor: middle; visibility: inherit; font-family: &quot;Helvetica Neue&quot;, sans-serif; font-size: 12px; font-weight: 200;" x="155.56444380018448" y="0" dx="0em" dy="0.95em" fill="rgb(50, 49, 63)" stroke="none" stroke-width="1px">8k</text><text style="text-anchor: middle; visibility: inherit; font-family: &quot;Helvetica Neue&quot;, sans-serif; font-size: 12px; font-weight: 200;" x="186.67733256022134" y="0" dx="0em" dy="0.95em" fill="rgb(50, 49, 63)" stroke="none" stroke-width="1px">10k</text><text style="text-anchor: middle; visibility: inherit; font-family: &quot;Helvetica Neue&quot;, sans-serif; font-size: 12px; font-weight: 200;" x="217.79022132025824" y="0" dx="0em" dy="0.95em" fill="rgb(50, 49, 63)" stroke="none" stroke-width="1px">12k</text><text style="text-anchor: middle; visibility: inherit; font-family: &quot;Helvetica Neue&quot;, sans-serif; font-size: 12px; font-weight: 200;" x="248.90311008029514" y="0" dx="0em" dy="0.95em" fill="rgb(50, 49, 63)" stroke="none" stroke-width="1px">14k</text><text style="text-anchor: middle; visibility: hidden; font-family: &quot;Helvetica Neue&quot;, sans-serif; font-size: 12px; font-weight: 200;" x="280.01599884033203" y="0" dx="0em" dy="0.95em" fill="rgb(50, 49, 63)" stroke="none" stroke-width="1px">16k</text></g><line x1="0" y1="0" x2="280.01599884033203" y2="0" fill="rgb(0, 0, 0)" stroke="rgb(204, 204, 204)" stroke-width="1px"></line></g></g></g></g></svg>