<svg viewBox="0 0 330 200" xmlns="http://www.w3.org/2000/svg"><g><g><g><g><g><line x1="49.98400115966797" y1="178.57999897003174" x2="44.98400115966797" y2="178.57999897003174" style="visibility: inherit;" fill="rgb(0, 0, 0)" stroke="rgb(204, 204, 204)" stroke-width="1px"></line><line x1="49.98400115966797" y1="156.25749909877777" x2="44.98400115966797" y2="156.25749909877777" style="visibility: inherit;" fill="rgb(0, 0, 0)" stroke="rgb(204, 204, 204)" stroke-width="1px"></line><line x1="49.98400115966797" y1="133.93499922752378" x2="44.98400115966797" y2="133.93499922752378" style="visibility: inherit;" fill="rgb(0, 0, 0)" stroke="rgb(204, 204, 204)" stroke-width="1px"></line><line x1="49.98400115966797" y1="111.61249935626982" x2="44.98400115966797" y2="111.61249935626982" style="visibility: inherit;" fill="rgb(0, 0, 0)" stroke="rgb(204, 204, 204)" stroke-width="1px"></line><line x1="49.98400115966797" y1="89.28999948501585" x2="44.98400115966797" y2="89.28999948501585" style="visibility: inherit;" fill="rgb(0, 0, 0)" stroke="rgb(204, 204, 204)" stroke-width="1px"></line><line x1="49.98400115966797" y1="66.96749961376186" x2="44.98400115966797" y2="66.96749961376186" style="visibility: inherit;" fill="rgb(0, 0, 0)" stroke="rgb(204, 204, 204)" stroke-width="1px"></line><line x1="49.98400115966797" y1="44.644999742507935" x2="44.98400115966797" y2="44.644999742507935" style="visibility: inherit;" fill="rgb(0, 0, 0)" stroke="rgb(204, 204, 204)" stroke-width="1px"></line><line x1="49.98400115966797" y1="22.32249987125394" x2="44.98400115966797" y2="22.32249987125394" style="visibility: inherit;" fill="rgb(0, 0, 0)" stroke="rgb(204, 204, 204)" stroke-width="1px"></line><line x1="49.98400115966797" y1="0" x2="44.98400115966797" y2="0" style="visibility: inherit;" fill="rgb(0, 0, 0)" stroke="rgb(204, 204, 204)" stroke-width="1px"></line></g><g transform="translate(39.98400115966797, 0)"><text style="text-anchor: end; visibility: hidden; font-family: &quot;Helvetica Neue&quot;, sans-serif; font-size: 12px; font-weight: 200;" x="0" y="178.57999897003174" dx="0em" dy="0.3em" fill="rgb(50, 49, 63)" stroke="none" stroke-width="1px">0.3</text><text style="text-anchor: end; visibility: inherit; font-family: &quot;Helvetica Neue&quot;, sans-serif; font-size: 12px; font-weight: 200;" x="0" y="156.25749909877777" dx="0em" dy="0.3em" fill="rgb(50, 49, 63)" stroke="none" stroke-width="1px">0.35</text><text style="text-anchor: end; visibility: hidden; font-family: &quot;Helvetica Neue&quot;, sans-serif; font-size: 12px; font-weight: 200;" x="0" y="133.93499922752378" dx="0em" dy="0.3em" fill="rgb(50, 49, 63)" stroke="none" stroke-width="1px">0.4</text><text style="text-anchor: end; visibility: inherit; font-family: &quot;Helvetica Neue&quot;, sans-serif; font-size: 12px; font-weight: 200;" x="0" y="111.61249935626982" dx="0em" dy="0.3em" fill="rgb(50, 49, 63)" stroke="none" stroke-width="1px">0.45</text><text style="text-anchor: end; visibility: hidden; font-family: &quot;Helvetica Neue&quot;, sans-serif; font-size: 12px; font-weight: 200;" x="0" y="89.28999948501585" dx="0em" dy="0.3em" fill="rgb(50, 49, 63)" stroke="none" stroke-width="1px">0.5</text><text style="text-anchor: end; visibility: inherit; font-family: &quot;Helvetica Neue&quot;, sans-serif; font-size: 12px; font-weight: 200;" x="0" y="66.96749961376186" dx="0em" dy="0.3em" fill="rgb(50, 49, 63)" stroke="none" stroke-width="1px">0.55</text><text style="text-anchor: end; visibility: hidden; font-family: &quot;Helvetica Neue&quot;, sans-serif; font-size: 12px; font-weight: 200;" x="0" y="44.644999742507935" dx="0em" dy="0.3em" fill="rgb(50, 49, 63)" stroke="none" stroke-width="1px">0.6</text><text style="text-anchor: end; visibility: inherit; font-family: &quot;Helvetica Neue&quot;, sans-serif; font-size: 12px; font-weight: 200;" x="0" y="22.32249987125394" dx="0em" dy="0.3em" fill="rgb(50, 49, 63)" stroke="none" stroke-width="1px">0.65</text><text style="text-anchor: end; visibility: hidden; font-family: &quot;Helvetica Neue&quot;, sans-serif; font-size: 12px; font-weight: 200;" x="0" y="0" dx="0em" dy="0.3em" fill="rgb(50, 49, 63)" stroke="none" stroke-width="1px">0.7</text></g><line x1="49.98400115966797" y1="0" x2="49.98400115966797" y2="178.57999897003174" fill="rgb(0, 0, 0)" stroke="rgb(204, 204, 204)" stroke-width="1px"></line></g></g><g transform="translate(49, 0)" clip-path="url(#clip_0)"><clipPath id="clip_0"><rect width="280" height="178"></rect></clipPath><g><g><g><line x1="0" y1="0" x2="0" y2="178.57999897003174" fill="rgb(0, 0, 0)" stroke="rgb(60, 60, 60)" stroke-width="1px" opacity="0.25"></line><line x1="31.112888760036892" y1="0" x2="31.112888760036892" y2="178.57999897003174" fill="rgb(0, 0, 0)" stroke="rgb(60, 60, 60)" stroke-width="1px" opacity="0.25"></line><line x1="62.225777520073784" y1="0" x2="62.225777520073784" y2="178.57999897003174" fill="rgb(0, 0, 0)" stroke="rgb(60, 60, 60)" stroke-width="1px" opacity="0.25"></line><line x1="93.33866628011067" y1="0" x2="93.33866628011067" y2="178.57999897003174" fill="rgb(0, 0, 0)" stroke="rgb(60, 60, 60)" stroke-width="1px" opacity="0.25"></line><line x1="124.45155504014757" y1="0" x2="124.45155504014757" y2="178.57999897003174" fill="rgb(0, 0, 0)" stroke="rgb(60, 60, 60)" stroke-width="1px" opacity="0.25"></line><line x1="155.56444380018448" y1="0" x2="155.56444380018448" y2="178.57999897003174" fill="rgb(0, 0, 0)" stroke="rgb(60, 60, 60)" stroke-width="1px" opacity="0.25"></line><line x1="186.67733256022134" y1="0" x2="186.67733256022134" y2="178.57999897003174" fill="rgb(0, 0, 0)" stroke="rgb(60, 60, 60)" stroke-width="1px" opacity="0.25"></line><line x1="217.79022132025824" y1="0" x2="217.79022132025824" y2="178.57999897003174" fill="rgb(0, 0, 0)" stroke="rgb(60, 60, 60)" stroke-width="1px" opacity="0.25"></line><line x1="248.90311008029514" y1="0" x2="248.90311008029514" y2="178.57999897003174" fill="rgb(0, 0, 0)" stroke="rgb(60, 60, 60)" stroke-width="1px" opacity="0.25"></line><line x1="280.01599884033203" y1="0" x2="280.01599884033203" y2="178.57999897003174" fill="rgb(0, 0, 0)" stroke="rgb(60, 60, 60)" stroke-width="1px" opacity="0.25"></line></g><g><line x1="0" y1="178.57999897003174" x2="280.01599884033203" y2="178.57999897003174" fill="rgb(0, 0, 0)" stroke="rgb(60, 60, 60)" stroke-width="1px" opacity="0.25"></line><line x1="0" y1="156.25749909877777" x2="280.01599884033203" y2="156.25749909877777" fill="rgb(0, 0, 0)" stroke="rgb(60, 60, 60)" stroke-width="1px" opacity="0.25"></line><line x1="0" y1="133.93499922752378" x2="280.01599884033203" y2="133.93499922752378" fill="rgb(0, 0, 0)" stroke="rgb(60, 60, 60)" stroke-width="1px" opacity="0.25"></line><line x1="0" y1="111.61249935626982" x2="280.01599884033203" y2="111.61249935626982" fill="rgb(0, 0, 0)" stroke="rgb(60, 60, 60)" stroke-width="1px" opacity="0.25"></line><line x1="0" y1="89.28999948501585" x2="280.01599884033203" y2="89.28999948501585" fill="rgb(0, 0, 0)" stroke="rgb(60, 60, 60)" stroke-width="1px" opacity="0.25"></line><line x1="0" y1="66.96749961376186" x2="280.01599884033203" y2="66.96749961376186" fill="rgb(0, 0, 0)" stroke="rgb(60, 60, 60)" stroke-width="1px" opacity="0.25"></line><line x1="0" y1="44.644999742507935" x2="280.01599884033203" y2="44.644999742507935" fill="rgb(0, 0, 0)" stroke="rgb(60, 60, 60)" stroke-width="1px" opacity="0.25"></line><line x1="0" y1="22.32249987125394" x2="280.01599884033203" y2="22.32249987125394" fill="rgb(0, 0, 0)" stroke="rgb(60, 60, 60)" stroke-width="1px" opacity="0.25"></line><line x1="0" y1="0" x2="280.01599884033203" y2="0" fill="rgb(0, 0, 0)" stroke="rgb(60, 60, 60)" stroke-width="1px" opacity="0.25"></line></g></g></g><g><g><line x1="0" y1="312.51499819755554" x2="280.01599884033203" y2="312.51499819755554" fill="rgb(0, 0, 0)" stroke="rgb(153, 153, 153)" stroke-width="1.5px"></line></g></g><g><g><line x1="31.112888760036892" y1="0" x2="31.112888760036892" y2="178.57999897003174" fill="rgb(0, 0, 0)" stroke="rgb(153, 153, 153)" stroke-width="1.5px"></line></g></g><g><g><g><g><g><path style="fill: none;" stroke="rgb(255, 112, 67)" stroke-width="2px" d="M31.501799869537354,145.0962491631508L31.890710979037813,134.27478779246462L32.279622088538275,147.43402454196467L32.66853319803874,142.9706974735496L33.0574443075392,130.76903388570136L33.44635541703966,138.4729182264274L33.835266526540124,165.49523161796665L34.22417763604058,149.7525304766714L34.61308874554104,151.12835753041L35.001999855041504,152.082141178692L35.390910964541966,160.80504189828656L35.77982207404242,158.96942417805894L36.16873318354289,165.61665580776506L36.55764429304335,138.6758406425598L36.94655540254381,138.73802062479655L37.33546651204427,148.41482307999578L37.72437762154473,147.47887103915684L38.11328873104519,152.0485890532803L38.50219984054566,150.0912703775002L38.89111095004612,147.81336606692236L39.280022059546575,149.6652616122812L39.66893316904704,148.3804636516623L40.0578442785475,142.22729359263346L40.446755388047954,133.6214025347315L40.835666497548424,132.92526304206882L41.224577607048886,133.73186812157874L41.61348871654934,148.9498461394449L42.0023998260498,150.48072464591587L42.391310935550266,159.42268131008444L42.78022204505073,150.16930023242975L43.16913315455119,142.86292490013224L43.55804426405165,156.5588076190613L43.94695537355211,153.33776843013868L44.33586648305257,145.7946121676136L44.72477759255303,148.21198574466396L45.113688702053494,151.69247412929553L45.50259981155396,161.86151189861482L45.89151092105442,158.19589597238956L46.280422030554874,156.08304387814198L46.669333140055336,152.99574882558343L47.058244249555806,148.16238902239314L47.44715535905626,144.68720644362386L47.83606646855672,144.8021475272104L48.224977578057185,139.65759965271306L48.61388868755764,130.73148495826015L49.0027997970581,123.75355644819501L49.39171090655857,101.8725286618614L49.78062201605903,95.20052883666558L50.16953312555949,103.47132485733665L50.55844423505995,109.0695468513153L50.94735534456041,110.82955042907358L51.33626645406087,110.4397215995321L51.72517756356134,128.80306145327313L52.114088673061794,133.38144728370878L52.502999782562256,141.2470914362302L52.89191089206272,121.85556513314948L53.28082200156317,111.13648699251397L53.66973311106364,126.77756235921788L54.058644220564105,140.41928715976954L54.44755533006456,133.89273538640623L54.83646643956502,122.44835937859902L55.225377549065485,126.63442333333012L55.61428865856594,123.98141830923342L56.00319976806641,127.47532994249053L56.39211087756687,115.84915760012655L56.78102198706733,128.2493383936401L57.16993309656779,132.28636044150755L57.55884420606825,121.32449363089322L57.947755315568706,119.118139036321L58.336666425069176,108.64555966083007L58.72557753456964,121.50179361258998L59.11448864407009,119.4198595625798L59.503399753570555,108.33977120210731L59.89231086307102,106.64581163060258L60.28122197257148,102.11730461852748L60.67013308207194,114.19438803572271L61.059044191572404,96.74187909474219L61.44795530107286,109.28401726497721L61.83686641057332,105.7565704293856L62.225777520073784,85.44790783439166L62.614688629574246,80.91453610771882L63.00359973907471,107.83581163641848L63.39251084857517,98.18133134182438L63.781421958075626,96.72830317035708L64.17033306757608,107.70610205482195L64.55924417707655,97.3039893536666L64.94815528657702,98.1883701802421L65.33706639607747,57.006755656132185L65.72597750557793,62.41931341346046L66.1148886150784,62.129198119789535L66.50379972457885,70.19698042395127L66.89271083407932,64.06230694174302L67.28162194357978,64.18170470768956L67.67053305308025,77.68400133868327L68.0594441625807,52.195764699433326L68.44835527208116,75.68720689422092L68.83726638158161,97.80473797253356L69.22617749108208,86.87435849838204L69.61508860058255,100.62111957443904L70.00399971008301,101.35746386920012L70.39291081958346,85.76974213704497L70.78182192908393,87.4123301326234L71.17073303858439,87.28655953984705L71.55964414808484,95.25470338491071L71.94855525758531,78.59401783131672L72.33746636708578,59.384053275818175L72.72637747658624,60.73092687982205L73.1152885860867,45.2336920425476L73.50419969558716,38.01156923443634L73.89311080508762,59.73887191325285L74.28202191458809,52.361182601362344L74.67093302408854,53.155006106212696L75.059844133589,68.27476436584261L75.44875524308947,88.03208471459175L75.83766635258992,87.30277980669906L76.22657746209038,72.70235041689878L76.61548857159086,87.81784808556073L77.00439968109131,77.7771468707379L77.39331079059177,82.31905355572151L77.78222190009224,77.22118460352382L78.1711330095927,66.67336138534547L78.56004411909315,87.83899487106962L78.94895522859362,86.24296844906158L79.33786633809407,68.28131976971711L79.72677744759453,48.04883432963908L80.115688557095,43.520448458211604L80.50459966659545,56.38169229674362L80.89351077609591,73.12122849550991L81.28242188559639,84.06795474354315L81.67133299509685,83.57515479595249L82.0602441045973,83.06526123344463L82.44915521409777,66.51925884428849L82.83806632359823,79.66961476523113L83.22697743309868,66.0379910311361L83.61588854259915,39.90190172596729L84.0047996520996,62.79685273575949L84.39371076160006,98.99094535189494L84.78262187110053,98.28740224332246L85.17153298060099,93.14553438994653L85.56044409010146,78.9941631228482L85.94935519960192,88.33415520040752L86.33826630910238,55.932836286124726L86.72717741860284,62.69260146672137L87.1160885281033,59.71210202934104L87.50499963760376,68.63333017415049L87.89391074710421,60.93429117115842L88.28282185660468,57.92515888668265L88.67173296610514,69.2775984944856L89.0606440756056,84.83273341319705L89.44955518510606,67.2673607789305L89.83846629460653,67.44446105485703L90.22737740410699,88.74189547313895L90.61628851360746,109.80465300029279L91.00519962310791,123.08192338248604L91.39411073260837,138.67688112707663L91.78302184210884,107.54944962810711L92.17193295160929,81.5098000993077L92.56084406110975,87.0065862068158L92.94975517061022,78.76201117791479L93.33866628011067,71.78872565183778L93.72757738961113,66.25220784089109L94.11648849911161,58.78666709301254L94.50539960861207,47.4948030144206L94.89431071811252,66.86223274216962L95.28322182761299,76.64922711626596L95.67213293711345,80.6368812724171L96.0610440466139,98.14012468994841L96.44995515611437,80.84287758887126L96.83886626561483,71.45535172202092L97.22777737511528,66.01251946290142L97.61668848461575,77.78067922815045L98.0055995941162,56.185672619398545L98.39451070361666,58.16993590655635L98.78342181311714,53.846707813290664L99.1723329226176,53.35189701497572L99.56124403211805,62.143712447459805L99.95015514161852,76.65427828533562L100.33906625111898,80.20491594244574L100.72797736061943,78.57608009671898L101.1168884701199,100.31743492566181L101.50579957962036,104.18830566677912L101.89471068912081,89.1119087511015L102.28362179862128,82.1923684086183L102.67253290812174,88.5427889015074L103.06144401762221,73.07119891591732L103.45035512712268,53.882327755736085L103.83926623662313,60.43421998947201L104.22817734612359,63.4897479879174L104.61708845562406,81.89094681850416L105.00599956512451,74.38690657833773L105.39491067462497,59.58256944543422L105.78382178412544,56.29986780753973L106.17273289362589,63.653457009999784L106.56164400312635,64.3233387272985L106.95055511262682,71.33897040021708L107.33946622212729,84.22398765282348L107.72837733162774,66.97901417936548L108.11728844112821,56.60852225246762L108.50619955062866,45.75447503483639L108.89511066012912,43.613192607378124L109.28402176962959,90.07660165893307L109.67293287913004,95.95394856816199L110.0618439886305,63.24098459683472L110.45075509813097,67.94716010212186L110.83966620763142,73.94449796871505L111.22857731713188,84.35496601489525L111.61748842663236,82.47472453845742L112.00639953613282,88.7146888788237L112.39531064563327,83.64917075767752L112.78422175513374,63.280063511171605L113.1731328646342,62.74807744004387L113.56204397413465,71.77451165512682L113.95095508363512,96.90814415576105L114.33986619313558,95.29016354343025L114.72877730263603,81.84295032334884L115.1176884121365,90.46955037840935L115.50659952163696,77.33149337740163L115.89551063113741,54.555901676015566L116.2844217406379,67.71385416008503L116.67333285013835,85.53791811605754L117.0622439596388,90.51264202062382L117.45115506913928,85.33393198858175L117.84006617863973,83.83198927678795L118.22897728814019,57.487369745544754L118.61788839764066,66.94663048125908L119.00679950714111,69.13048629219334L119.39571061664157,71.31051758001988L119.78462172614203,56.32520967534647L120.17353283564249,56.44073869293976L120.56244394514296,78.04238331617056L120.95135505464343,79.46056749993777L121.34026616414388,71.41979340630746L121.72917727364434,75.6136837943935L122.11808838314481,93.0474125024198L122.50699949264526,85.27090824612037L122.89591060214572,94.50240998410229L123.28482171164619,72.65169663541685L123.67373282114664,83.2076395572133L124.0626439306471,70.9776150194995L124.45155504014757,77.16883113460686L124.84046614964804,76.91584568248274L125.22937725914849,71.68100310260309L125.61828836864896,94.9242774463601L126.00719947814942,103.79541361974341L126.39611058764987,76.71977604869971L126.78502169715034,90.70637711482561L127.1739328066508,72.8844154040662L127.56284391615125,81.85037069123442L127.95175502565172,74.13993378256457L128.34066613515216,81.5334142246194L128.72957724465263,75.34951108531557L129.1184883541531,82.0110636445731L129.50739946365357,84.40492081665373L129.89631057315404,89.30597656285384L130.28522168265448,90.73896348377723L130.67413279215495,100.26345484049772L131.06304390165542,58.49874152686611L131.45195501115586,29.77671149351093L131.84086612065633,20.11510086119395L132.2297772301568,27.35647565673989L132.61868833965724,38.661413732385796L133.0075994491577,55.76299554969222L133.39651055865818,46.017735576605645L133.78542166815865,33.086753375089216L134.17433277765912,75.88699169066902L134.56324388715956,91.67576302062174L134.95215499666003,78.98284106614958L135.3410661061605,83.62154854152931L135.72997721566094,91.31276537674869L136.1188883251614,72.1878590420241L136.50779943466185,74.29284938614549L136.89671054416232,67.87844592172327L137.2856216536628,70.36674383261811L137.67453276316323,81.43408459012538L138.06344387266373,92.52781083566478L138.45235498216417,96.32245194624436L138.84126609166464,69.57942788623544L139.2301772011651,59.610784185169265L139.61908831066555,44.95102000769219L140.00799942016602,56.88754772312282L140.39691052966648,69.65166668802944L140.78582163916693,50.34090512550287L141.1747327486674,47.17219860141597L141.56364385816786,68.15487382985705L141.9525549676683,75.1392802192539L142.34146607716877,66.04766637412023L142.73037718666924,72.23027829981702L143.11928829616969,71.27415403367442L143.50819940567015,62.22321204394001L143.89711051517062,78.32315307545886L144.28602162467106,74.60949491706366L144.67493273417156,82.65510574054719L145.06384384367203,85.91342690273066L145.45275495317247,98.18781379748732L145.84166606267294,58.835872496236206L146.2305771721734,74.36306228002212L146.61948828167385,64.9668476356639L147.00839939117432,84.2971157049157L147.3973105006748,54.85972924570929L147.78622161017523,34.73967698428845L148.1751327196757,65.74987376654873L148.56404382917617,80.11830625359977L148.9529549386766,64.9231237314773L149.34186604817708,71.77021581822162L149.73077715767755,72.163047028937L150.119688267178,75.71248602853174L150.50859937667846,58.24565431075668L150.89751048617893,70.88950434461246L151.28642159567937,78.67363741858324L151.67533270517984,72.59637915994318L152.0642438146803,87.48029573173534L152.45315492418075,70.16660864717647L152.84206603368122,72.49108667378513L153.23097714318172,72.8555950133196L153.61988825268216,82.70085054890109L154.00879936218263,88.03719331930589L154.3977104716831,96.23000993164835L154.78662158118354,104.95203383693186L155.175532690684,82.25584834619579L155.56444380018448,95.12241021725767L155.95335490968492,92.96078476134909L156.3422660191854,92.10353219915754L156.73117712868586,98.96702310603351L157.1200882381863,71.85424351058018L157.50899934768677,75.88248922078311L157.89791045718724,89.84301260425359L158.28682156668768,101.97150107756336L158.67573267618815,105.37757922999633L159.06464378568862,82.03910492120922L159.45355489518906,70.70994965299016L159.84246600468953,96.83968395560582L160.23137711419,113.01336897966904L160.62028822369044,124.64224851197051L161.0091993331909,130.38982269495216L161.39811044269138,137.13591873325907L161.78702155219182,113.93380702336272L162.17593266169231,120.59958110404868L162.56484377119278,100.04042154943352L162.95375488069323,110.08751890814496L163.3426659901937,84.64147075080079L163.73157709969416,62.94809112592998L164.1204882091946,51.00957745668819L164.50939931869507,67.69051632751551L164.89831042819554,72.23537369536103L165.28722153769598,78.07315962255127L165.67613264719645,66.41472970541273L166.06504375669692,74.41084211147576L166.45395486619736,83.8190732124754L166.84286597569783,95.8107717755803L167.2317770851983,95.54658888237756L167.62068819469874,88.03858882008413L168.0095993041992,88.04175153846509L168.39851041369968,90.13490143234982L168.78742152320012,105.05632210455626L169.1763326327006,83.82432240754044L169.56524374220106,80.97307742585161L169.9541548517015,70.15504564604774L170.34306596120197,77.05656133543553L170.73197707070247,60.89221225602272L171.1208881802029,43.25878406744144L171.50979928970338,35.28481156118909L171.89871039920385,51.98486676719648L172.2876215087043,49.39964310209089L172.67653261820476,36.21530476529415L173.06544372770523,39.62948214316896L173.45435483720567,41.03883959756374L173.84326594670614,29.76828992500674L174.2321770562066,43.44469551254511L174.62108816570705,68.08839304847633L175.00999927520752,72.73924561799804L175.398910384708,82.09446981596764L175.78782149420843,77.49531349272188L176.1767326037089,73.05596309639473L176.56564371320937,88.07209560211828L176.9545548227098,67.50558255462172L177.34346593221028,52.97962243232034L177.73237704171075,50.114872425314985L178.1212881512112,71.83881042968629L178.51019926071166,61.06103839467799L178.89911037021213,63.76619605957673L179.28802147971257,75.94777040211943L179.67693258921307,57.51873677476122L180.06584369871354,73.76452163597209L180.45475480821398,55.47604091328432L180.84366591771445,74.03821927124851L181.23257702721492,66.56280239165022L181.62148813671536,72.94914477488598L182.01039924621583,75.79852898875416L182.3993103557163,88.99856439842752L182.78822146521674,85.42142389916985L183.1771325747172,68.56182347940974L183.56604368421768,78.96022565767264L183.95495479371812,76.20010710358882L184.34386590321859,56.007556422519784L184.73277701271905,72.46018440244428L185.1216881222195,71.96217456161202L185.51059923171997,75.96009912402369L185.89951034122043,93.8191994257982L186.28842145072088,69.02416000310451L186.67733256022134,71.93102885754607L187.0662436697218,43.00643144569395L187.45515477922226,43.81534982454406L187.84406588872272,70.88137025747909L188.23297699822322,84.71638934972805L188.62188810772366,82.08118475785496L189.01079921722413,77.57288245555507L189.3997103267246,82.95626450142804L189.78862143622504,72.97487691214928L190.1775325457255,71.46103675747646L190.56644365522598,74.72857932423672L190.95535476472642,66.05107058998738L191.3442658742269,99.37053346914028L191.73317698372736,68.65958301984605L192.1220880932278,68.33345516691895L192.51099920272827,55.491493161924126L192.89991031222874,71.58508083942104L193.28882142172918,70.6360226979659L193.67773253122965,71.34756217547314L194.06664364073012,72.73035330086563L194.45555475023056,80.21500637839546L194.84446585973103,54.38893376099209L195.2333769692315,58.96894535040791L195.62228807873194,50.500806563530915L196.0111991882324,60.35513369417093L196.40011029773288,55.417865022585545L196.78902140723332,58.31483464628016L197.17793251673382,63.53406404660832L197.5668436262343,61.18830786534458L197.95575473573473,48.56817957138006L198.3446658452352,51.7346282892527L198.73357695473567,62.02632483641348L199.1224880642361,54.702821132495856L199.51139917373658,79.6677772885775L199.90031028323705,69.21653484734763L200.2892213927375,71.89510453132446L200.67813250223796,85.8186332530792L201.06704361173843,58.04456504588465L201.45595472123887,63.33974020392395L201.84486583073934,34.04147034131276L202.2337769402398,33.884750871137385L202.62268804974025,39.52197549126481L203.01159915924072,42.703945752071604L203.4005102687412,27.56783025035753L203.78942137824163,53.797973965371696L204.1783324877421,43.51588477859954L204.56724359724257,45.9240352530328L204.956154706743,41.12151620351827L205.34506581624348,49.42967960413287L205.73397692574397,55.66460437047478L206.12288803524442,70.34052827669568L206.51179914474488,62.59737120496952L206.90071025424535,50.68273903244578L207.2896213637458,42.58283717852035L207.67853247324626,34.363208627522425L208.06744358274673,18.870121659898672L208.45635469224717,39.5293015698214L208.84526580174764,20.580791244433357L209.2341769112481,26.297394761075594L209.62308802074855,54.45268496902386L210.01199913024902,69.99187252842677L210.4009102397495,94.58099054336645L210.78982134924993,76.8899478562654L211.1787324587504,96.97067322437312L211.56764356825087,78.08541166376058L211.9565546777513,53.529822281010496L212.34546578725178,42.669688036745214L212.73437689675225,51.065525714822996L213.1232880062527,28.701094565457083L213.51219911575316,40.58650988843448L213.90111022525363,48.348050184206585L214.29002133475407,49.83396677774533L214.67893244425457,73.98907418852686L215.06784355375504,66.78882235847331L215.45675466325548,59.296949251306245L215.84566577275595,43.67994408749615L216.23457688225642,75.31423405464679L216.62348799175686,62.20951242084496L217.01239910125733,67.07485396693521L217.4013102107578,63.385659617143446L217.79022132025824,56.29002179960554L218.1791324297587,31.58631300935093L218.56804353925918,37.34667315094305L218.95695464875962,42.35956633381258L219.3458657582601,51.626629009411715L219.73477686776056,56.23610283556023L220.123687977261,63.78184435683029L220.51259908676147,48.47273778881382L220.90151019626194,47.919865924479694L221.29042130576238,48.82914241562068L221.67933241526285,60.198643252120746L222.06824352476332,69.2445085946291L222.45715463426376,81.67262979553419L222.84606574376423,72.57466159876022L223.23497685326473,75.52927558511973L223.62388796276517,74.16885859950438L224.01279907226564,70.57712110855513L224.4017101817661,81.06262407260114L224.79062129126655,65.95055696670681L225.17953240076702,69.37263207345994L225.56844351026749,67.17219095736294L225.95735461976793,72.3418590733362L226.3462657292684,83.42046720938407L226.73517683876887,75.4866317393804L227.1240879482693,42.77507787775724L227.51299905776978,34.937026810806145L227.90191016727024,55.001799151987214L228.29082127677069,39.02357704563991L228.67973238627116,44.26222759102939L229.06864349577162,72.59658765279548L229.45755460527207,81.99190247776127L229.84646571477253,89.26985187706036L230.235376824273,79.51810495375582L230.62428793377345,67.70255803885303L231.01319904327391,64.43437516362144L231.40211015277438,60.96442983986353L231.79102126227482,79.37828319067239L232.17993237177532,76.93628759034804L232.5688434812758,93.86767951351248L232.95775459077623,53.37746102661515L233.3466657002767,65.29839747394594L233.73557680977717,82.93000677888438L234.1244879192776,70.2552864892811L234.51339902877808,73.86164488140429L234.90231013827855,83.42419666527964L235.291221247779,74.61811149955581L235.68013235727946,68.28653626540033L236.06904346677993,74.18850943011232L236.45795457628037,64.05726333758149L236.84686568578084,56.250186834451895L237.2357767952813,39.267764630984715L237.62468790478175,63.77838090548852L238.01359901428222,75.65161182644759L238.4025101237827,86.75849459955217L238.79142123328313,82.4604581535988L239.1803323427836,98.31871946760462L239.56924345228407,89.50903267071375L239.9581545617845,90.10088002633127L240.34706567128498,97.7138006739996L240.73597678078548,67.11990846167504L241.12488789028592,58.36510775905896L241.5137989997864,61.130854575636945L241.90271010928686,58.58919853710266L242.2916212187873,63.731331684109676L242.68053232828777,43.03499693640907L243.06944343778824,45.57827689449783L243.45835454728868,48.71370150105818L243.84726565678915,46.17648103467266L244.23617676628962,67.00335577883622L244.62508787579006,43.89409146359469L245.01399898529053,44.453577377414746L245.402910094791,40.674095950713706L245.79182120429144,42.835353005485615L246.1807323137919,22.435124186527275L246.56964342329238,36.34263246728389L246.95855453279282,55.75107059892038L247.3474656422933,31.198799618509582L247.73637675179376,42.81795694211161L248.1252878612942,39.70966209749906L248.51419897079467,45.01687802461609L248.90311008029514,44.73814287464049L249.29202118979558,45.93164458302141L249.68093229929607,45.9185705927338L250.06984340879654,47.52088871274535L250.45875451829698,61.87159904049645L250.84766562779745,57.72788152612324L251.23657673729792,69.03619251163141L251.62548784679836,71.89612351014316L252.01439895629883,74.9542857797879L252.4033100657993,78.11142708989216L252.79222117529974,79.68445181247603L253.1811322848002,63.30438354916346L253.57004339430068,61.19740194936546L253.95895450380112,62.55743513870246L254.3478656133016,36.61530124031023L254.73677672280206,53.50776734644134L255.1256878323025,45.13674309888313L255.51459894180297,50.051513742073325L255.90351005130344,38.077912036654936L256.2924211608039,44.88908581116638L256.6813322703043,61.41681297283141L257.0702433798048,53.56762222319932L257.45915448930526,64.4768082136089L257.8480655988057,53.1541611230266L258.2369767083062,73.76269998326661L258.6258878178067,77.60316058065818L259.01479892730714,71.21686735371023L259.4037100368076,65.84104172453736L259.7926211463081,58.49103117780554L260.1815322558085,61.91835339309681L260.57044336530896,57.45657842576048L260.95935447480946,41.1370395443991L261.3482655843099,58.152809468294635L261.73717669381034,69.69019190296882L262.12608780331084,63.00097359332473L262.5149989128113,86.24398786767827L262.9039100223117,60.96398521452447L263.2928211318122,69.7076722847555L263.68173224131266,86.31807392812266L264.0706433508131,68.20463549096338" fill="none"></path></g></g></g></g><g opacity="0.2"><g><g><g><path style="fill: none;" stroke="rgb(255, 112, 67)" stroke-width="2px" d="M31.501799869537354,145.0962491631508L31.890710979037813,126.49415706694131L32.279622088538275,163.6983279541135L32.66853319803874,135.79520311504604L33.0574443075392,107.89207827597858L33.44635541703966,154.39728190600877L33.835266526540124,225.0852039305866L34.22417763604058,113.47271122694012L34.61308874554104,154.39728190600877L35.001999855041504,154.39728190600877L35.390910964541966,182.30040674507623L35.77982207404242,154.39728190600877L36.16873318354289,182.30040674507623L36.55764429304335,70.68790738880638L36.94655540254381,138.89555179774763L37.33546651204427,172.99937400221825L37.72437762154473,145.0962491631508L38.11328873104519,163.6983279541135L38.50219984054566,145.0962491631508L38.89111095004612,141.9959004804492L39.280022059546575,154.39728190600877L39.66893316904704,145.0962491631508L40.0578442785475,126.49415706694131L40.446755388047954,111.61250467836852L40.835666497548424,131.14468674361706L41.224577607048886,135.79520311504604L41.61348871654934,187.88103969603776L42.0023998260498,154.39728190600877L42.391310935550266,182.30040674507623L42.78022204505073,126.49415706694131L43.16913315455119,124.1689055338502L43.55804426405165,191.60145279318095L43.94695537355211,145.0962491631508L44.33586648305257,126.49415706694131L44.72477759255303,154.39728190600877L45.113688702053494,160.59797927141193L45.50259981155396,187.88103969603776L45.89151092105442,148.81666226029398L46.280422030554874,150.67686880886558L46.669333140055336,145.0962491631508L47.058244249555806,135.79520311504604L47.44715535905626,135.79520311504604L47.83606646855672,145.0962491631508L48.224977578057185,126.49415706694131L48.61388868755764,107.89207827597858L49.0027997970581,105.89900553332905L49.39171090655857,45.88514453768724L49.78062201605903,78.12876019358627L50.16953312555949,124.63396382361645L50.55844423505995,123.39382168948649L50.94735534456041,115.33290447026496L51.33626645406087,109.44225926995274L51.72517756356134,175.78968382507563L52.114088673061794,145.0962491631508L52.502999782562256,161.37306311577564L52.89191089206272,72.2381016880273L53.28082200156317,83.70937983930106L53.66973311106364,166.7986766368151L54.058644220564105,175.32462553530937L54.44755533006456,117.19312432408333L54.83646643956502,93.16541870683439L55.225377549065485,137.34538410902022L55.61428865856594,117.19312432408333L56.00319976806641,136.41526752948766L56.39211087756687,86.1010511641844L56.78102198706733,159.9779148569703L57.16993309656779,142.61596489489082L57.55884420606825,93.27615827556167L57.947755315568706,113.47269792169337L58.336666425069176,81.84917329072947L58.72557753456964,154.39728190600877L59.11448864407009,114.09277564138173L59.503399753570555,79.98894013166436L59.89231086307102,102.31144532501703L60.28122197257148,90.53012831389908L60.67013308207194,145.0962491631508L61.059044191572404,52.085815292596905L61.44795530107286,141.37582276076083L61.83686641057332,96.73082567930224L62.225777520073784,33.48374980688092L62.614688629574246,69.31491236584522L63.00359973907471,176.71978709936144L63.39251084857517,73.47823051691053L63.781421958075626,93.01041258215905L64.17033306757608,135.79520311504604L64.55924417707655,70.68790738880638L64.94815528657702,100.45125208169219L65.33706639607747,-48.36541816174983L65.72597750557793,76.26852703452117L66.1148886150784,61.386874645948396L66.50379972457885,90.84016717374327L66.89271083407932,48.3654021954537L67.28162194357978,64.48721002340322L67.67053305308025,112.23258239805689L68.0594441625807,-13.021467128396012L68.44835527208116,135.79520311504604L68.83726638158161,154.39728190600877L69.22617749108208,58.90659037768843L69.61508860058255,135.7952164202928L70.00399971008301,103.24156190454958L70.39291081958346,45.88514453768724L70.78182192908393,91.61525101810697L71.17073303858439,86.96474795192474L71.55964414808484,115.64294333010915L71.94855525758531,35.96400746464738L72.33746636708578,10.231154644489209L72.72637747658624,64.17719777405254L73.1152885860867,5.580624967813463L73.50419969558716,19.532187387347193L73.89311080508762,115.33293108075847L74.28202191458809,33.48374980688092L74.67093302408854,55.18617728054524L75.059844133589,106.96197500169278L75.44875524308947,138.58551293790345L75.83766635258992,85.43669358330122L76.22657746209038,35.34395635545252L76.61548857159086,126.49415706694131L77.00439968109131,52.085815292596905L77.39331079059177,93.94051585644485L77.78222190009224,64.17717116355904L78.1711330095927,39.68444717228408L78.56004411909315,141.9959004804492L78.94895522859362,82.15918554008014L79.33786633809407,22.32251051545134L79.72677744759453,-3.720407775044521L80.115688557095,31.93358211815351L80.50459966659545,89.28999948501585L80.89351077609591,115.9529954952001L81.28242188559639,112.07754966288805L81.67133299509685,82.31421827524899L82.0602441045973,81.76058695784634L82.44915521409777,24.182690453529432L82.83806632359823,113.31767849177128L83.22697743309868,31.158498273789803L83.61588854259915,-26.973002937436235L84.0047996520996,121.37859571099278L84.39371076160006,191.60145279318095L84.78262187110053,96.48723322174378L85.17153298060099,79.98894013166436L85.56044409010146,42.78478254973891L85.94935519960192,112.23256909281014L86.33826630910238,-26.97302954792974L86.72717741860284,79.98894013166436L87.1160885281033,52.08584190309041L87.50499963760376,91.46024489343164L87.89391074710421,41.234614861011494L88.28282185660468,50.2256353545188L88.67173296610514,98.32529983971797L89.0606440756056,124.63395051836972L89.44955518510606,22.32251051545134L89.83846629460653,67.89761087119574L90.22737740410699,143.2360426145792L90.61628851360746,163.6983279541135L91.00519962310791,157.05472553478822L91.39411073260837,178.57999364793304L91.78302184210884,27.903103550672625L92.17193295160929,14.881657710671448L92.56084406110975,101.0713164961338L92.94975517061022,57.6664615488052L93.33866628011067,53.94604845166201L93.72757738961113,52.085815292596905L94.11648849911161,39.68444717228408L94.50539960861207,18.602097418308148L94.89431071811252,116.41804047971962L95.28322182761299,101.69139421582217L95.67213293711345,90.84016717374327L96.0610440466139,142.926003754735L96.44995515611437,36.58408518433575L96.83886626561483,47.43531222641465L97.22777737511528,52.08584190309041L97.61668848461575,107.89209158122533L98.0055995941162,0.9301219016312245L98.39451070361666,63.2471078050135L98.78342181311714,42.78478254973891L99.1723329226176,52.085815292596905L99.56124403211805,84.63949641883362L99.95015514161852,113.78273678153755L100.33906625111898,89.28999948501585L100.72797736061943,74.40834709644308L101.1168884701199,155.94744959473618L101.50579957962036,114.09277564138173L101.89471068912081,50.53564760386948L102.28362179862128,64.48721002340322L102.67253290812174,104.791729593277L103.06144401762221,33.48374980688092L103.45035512712268,4.783401192852352L103.83926623662313,77.19867022454723L104.22817734612359,71.30798510849475L104.61708845562406,128.97444133520128L105.00599956512451,55.18617728054524L105.39491067462497,21.702432795762974L105.78382178412544,47.900357210934175L106.17273289362589,82.46922439992433L106.56164400312635,66.03737771213063L106.95055511262682,89.28999948501585L107.33946622212729,117.19312432408333L107.72837733162774,22.853975291763078L108.11728844112821,30.073348959088406L108.50619955062866,17.98201969861978L108.89511066012912,38.13425287306316L109.28402176962959,208.96340275526046L109.67293287913004,110.99242695868016L110.0618439886305,-20.4622933226824L110.45075509813097,79.98894013166436L110.83966620763142,89.28999948501585L111.22857731713188,110.99242695868016L111.61748842663236,77.66371520906675L112.00639953613282,104.68100332979647L112.39531064563327,70.68793399929989L112.78422175513374,11.161244613528254L113.1731328646342,61.386874645948396L113.56204397413465,94.87061913073065L113.95095508363512,161.21804368585353L114.33986619313558,91.15020603358745L114.72877730263603,47.43531222641465L115.1176884121365,112.54259464740757L115.50659952163696,43.71489912927146L115.89551063113741,-3.7204343855380273L116.2844217406379,101.38135535597799L116.67333285013835,131.14468674361706L117.0622439596388,103.24156190454958L117.45115506913928,72.08306895285845L117.84006617863973,79.98894013166436L118.22897728814019,-9.921105140447679L118.61788839764066,91.1502193388342L119.00679950714111,74.71835934579376L119.39571061664157,76.88860475420954L119.78462172614203,17.98201969861978L120.17353283564249,56.73634496927265L120.56244394514296,133.31491884678607L120.95135505464343,83.0893021196127L121.34026616414388,50.84571307420718L121.72917727364434,86.34467023223637L122.11808838314481,137.6554229688644L122.50699949264526,65.37302013124746L122.89591060214572,118.12322759836911L123.28482171164619,16.741864259243044L123.67373282114664,110.2173298090697L124.0626439306471,39.684420561790574L124.45155504014757,93.01041258215905L124.84046614964804,76.26852703452117L125.22937725914849,58.28651265800006L125.61828836864896,154.39728190600877L126.00719947814942,126.49415706694131L126.39611058764987,7.44083151638506L126.78502169715034,126.49415706694131L127.1739328066508,27.283025830984258L127.56284391615125,104.791729593277L127.95175502565172,54.41109343618153L128.34066613515216,100.45125208169219L128.72957724465263,59.52664148688329L129.1184883541531,99.05610382288687L129.50739946365357,90.53012831389908L129.89631057315404,101.84640034049751L130.28522168265448,94.40557414621112L130.67413279215495,124.63395051836972L131.06304390165542,-48.36541816174983L131.84086612065633,-4.606244493382263L132.2297772301568,45.88511792719373L132.61868833965724,67.58757201135155L133.0075994491577,99.52113550215964L133.39651055865818,21.082355076074606L133.78542166815865,0.000005322098672877473L134.17433277765912,185.40076873302456L134.56324388715956,132.07479001790284L134.95215499666003,46.50522225737561L135.3410661061605,95.49069685041901L135.72997721566094,110.99242695868016L136.1188883251614,23.252600484490387L136.50779943466185,79.67892788231369L136.89671054416232,51.46579079389555L137.2856216536628,76.7335986295342L137.67453276316323,109.75229812979693L138.06344387266373,120.91353742122652L138.45235498216417,106.03187172740698L138.84126609166464,1.151547818098777L139.2301772011651,34.10382752656929L139.61908831066555,7.440804905891554L140.00799942016602,87.42976632595075L140.39691052966648,102.31145863026379L140.78582163916693,0.930095291137718L141.1747327486674,39.06436945259571L141.56364385816786,121.8436406955123L141.9525549676683,93.01041258215905L142.34146607716877,42.78478254973891L142.73037718666924,88.04984404563912L143.11928829616969,68.82770084023478L143.50819940567015,39.06439606308922L143.89711051517062,119.51837585717445L144.28602162467106,65.10728774309159L144.67493273417156,103.24156190454958L145.06384384367203,94.25055471628903L145.45275495317247,129.59451905488964L145.84166606267294,-41.854681936502516L146.2305771721734,114.09277564138173L146.61948828167385,40.92457600116731L147.00839939117432,133.75783720595496L147.3973105006748,-20.462266712188892L147.78622161017523,-16.741880225539205L148.1751327196757,145.0962491631508L148.56404382917617,116.88308546423914L148.9529549386766,26.042923612594535L149.34186604817708,89.28999948501585L149.73077715767755,73.16819165706634L150.119688267178,84.79450254350895L150.50859937667846,13.552942548905094L150.89751048617893,103.24156190454958L151.28642159567937,98.59104553312059L151.67533270517984,57.046383829116834L152.0642438146803,125.5640537926555L152.45315492418075,25.865750946828285L152.84206603368122,78.43877244293695L153.23097714318172,73.78826937675471L153.61988825268216,107.89209158122533L154.00879936218263,101.69139421582217L154.3977104716831,117.19312432408333L154.78662158118354,127.26924091130502L155.175532690684,24.182690453529432L155.56444380018448,128.04432475566873L155.95335490968492,87.42979293644426L156.3422660191854,89.91006389945747L156.73117712868586,116.52876674320015L157.1200882381863,2.480262979865131L157.50899934768677,86.18963749706752L157.89791045718724,125.56406709790227L158.28682156668768,133.00489329218865L158.67573267618815,114.09277564138173L159.06464378568862,22.32251051545134L159.45355489518906,41.72182638662193L159.84246600468953,163.6983279541135L160.23137711419,154.39728190600877L160.62028822369044,154.39728190600877L161.0091993331909,145.0962491631508L161.39811044269138,154.39728190600877L161.78702155219182,54.566126171350376L162.17593266169231,137.6554229688644L162.56484377119278,47.43531222641465L162.95375488069323,135.7952164202928L163.3426659901937,19.532187387347193L163.73157709969416,7.44083151638506L164.1204882091946,20.462277356386238L164.50939931869507,110.37234923899179L164.89831042819554,83.8643859639764L165.28722153769598,93.01041258215905L165.67613264719645,36.58408518433575L166.06504375669692,94.87064574122415L166.45395486619736,107.89209158122533L166.84286597569783,126.49415706694131L167.2317770851983,94.87061913073065L167.62068819469874,68.82772745072829L168.0095993041992,88.04984404563912L168.39851041369968,95.49068354517226L168.78742152320012,143.2360426145792L169.1763326327006,29.49760432158186L169.56524374220106,73.67754311327418L169.9541548517015,42.47474368989472L170.34306596120197,94.71559970080855L170.73197707070247,19.532187387347193L171.1208881802029,-1.860201226472924L171.50979928970338,14.881657710671448L171.89871039920385,94.7156130060553L172.2876215087043,42.78478254973891L172.67653261820476,2.4802895903586375L173.06544372770523,48.3654021954537L173.45435483720567,44.6449890983105L173.84326594670614,0.9301219016312245L174.2321770562066,78.43877244293695L174.62108816570705,131.14468674361706L175.00999927520752,84.63946980834011L175.398910384708,106.03185842216023L175.78782149420843,65.72736546277996L176.1767326037089,61.69691350579258L176.56564371320937,126.49415706694131L176.9545548227098,14.881657710671448L177.34346593221028,15.811774290204L177.73237704171075,42.78478254973891L178.1212881512112,127.4242603412271L178.51019926071166,33.48374980688092L178.89911037021213,70.68793399929989L179.28802147971257,107.11699443161487L179.67693258921307,10.364020838567143L180.06584369871354,115.33291777551173L180.45475480821398,8.68096034526829L180.84366591771445,121.53361514091489L181.23257702721492,47.43531222641465L181.62148813671536,89.28999948501585L182.01039924621583,83.0893021196127L182.3993103557163,122.77374396979812L182.78822146521674,76.26852703452117L183.1771325747172,25.422845892906167L183.56604368421768,105.5668134376407L183.95495479371812,69.13773970007897L184.34386590321859,4.340496138930234L184.73277701271905,114.55783393114801L185.1216881222195,70.68790738880638L185.51059923171997,86.18966410756103L185.89951034122043,139.51561621218923L186.28842145072088,5.580624967813463L186.67733256022134,79.3688890224695L187.0662436697218,-31.00348150491712L187.45515477922226,45.88514453768724L187.84406588872272,140.13570723712436L188.23297699822322,120.11631364626541L188.62188810772366,75.33843706548213L189.01079921722413,66.03740432262414L189.3997103267246,96.73082567930224L189.78862143622504,47.43531222641465L190.1775325457255,67.58754540085805L190.56644365522598,83.0893021196127L190.95535476472642,43.84776532334939L191.3442658742269,184.6256715834141L191.73317698372736,-9.921105140447679L192.1220880932278,67.49898567846843L192.51099920272827,22.63252276480202L192.89991031222874,112.76404717436863L193.28882142172918,68.20764973103992L193.67773253122965,73.16819165706634L194.06664364073012,76.26852703452117L194.45555475023056,99.3661293774843L194.84446585973103,-11.692725356136151L195.2333769692315,70.68790738880638L195.62228807873194,28.833220130205177L196.0111991882324,85.56958638787266L196.40011029773288,42.78478254973891L196.78902140723332,65.72736546277996L197.17793251673382,76.88860475420954L197.5668436262343,55.18617728054524L197.95575473573473,16.276819274723522L198.3446658452352,59.836680346727476L198.73357695473567,88.3598829054833L199.1224880642361,35.96403407514089L199.51139917373658,143.54608147442337L199.90031028323705,42.47474368989472L200.2892213927375,78.74881130278114L200.67813250223796,121.44502880803176L201.06704361173843,-13.021467128396012L201.45595472123887,76.88860475420954L201.84486583073934,-40.924565356969964L202.2337769402398,33.48374980688092L202.62268804974025,53.94604845166201L203.01159915924072,50.84571307420718L203.4005102687412,-11.161233969330908L203.78942137824163,120.91353742122652L204.1783324877421,17.206909243762567L204.56724359724257,52.085815292596905L204.956154706743,28.833220130205177L205.34506581624348,70.68793399929989L205.73397692574397,71.61802396833893L206.12288803524442,107.89209158122533L206.51179914474488,42.78480916023241L206.90071025424535,20.19654496823037L207.2896213637458,21.85746553093182L207.67853247324626,13.331490021944035L208.06744358274673,-20.772332182526583L208.45635469224717,92.39033486247068L208.84526580174764,-27.903119516968786L209.2341769112481,40.92457600116731L209.62308802074855,126.49415706694131L210.01199913024902,109.75228482455017L210.4009102397495,157.49763058871034L210.78982134924993,31.623543258309326L211.1787324587504,148.3516039705277L211.56764356825087,29.76333670973773L211.9565546777513,-9.301027420759311L212.34546578725178,14.881657710671448L212.73437689675225,72.54811393737798L213.1232880062527,-28.523197236657154L213.51219911575316,70.99794624865056L213.90111022525363,68.20764973103992L214.29002133475407,53.636009591817825L214.67893244425457,135.79520311504604L215.06784355375504,48.3654021954537L215.45675466325548,40.1273522262062L215.84566577275595,3.7204184192418666L216.23457688225642,156.25748845458037L216.62348799175686,28.67821400552984L217.01239910125733,79.52389514714484L217.4013102107578,53.94604845166201L217.79022132025824,38.13427948355667L218.1791324297587,-31.62353261411198L218.56804353925918,52.085815292596905L218.95695464875962,55.18615067005173L219.3458657582601,75.33843706548213L219.73477686776056,68.03045045478017L220.123687977261,83.08927550911919L220.51259908676147,9.301038064956657L220.90151019626194,46.50522225737561L221.29042130576238,51.15572532355786L221.67933241526285,89.28999948501585L222.06824352476332,92.39033486247068L222.45715463426376,113.47269792169337L222.84606574376423,49.29551877498625L223.23497685326473,83.0893021196127L223.62388796276517,70.68793399929989L224.01279907226564,61.386874645948396L224.4017101817661,107.89207827597858L224.79062129126655,27.283025830984258L225.17953240076702,78.12876019358627L225.56844351026749,61.541880770623735L225.95735461976793,85.56958638787266L226.3462657292684,111.76751080304386L226.73517683876887,55.18617728054524L227.1240879482693,-40.92459196746347L227.51299905776978,14.881657710671448L227.90191016727024,106.34191058725116L228.29082127677069,-1.860201226472924L228.67973238627116,57.6664615488052L229.06864349577162,145.0962491631508L229.45755460527207,106.03187172740698L229.84646571477253,107.89207827597858L230.235376824273,54.566126171350376L230.62428793377345,37.469895292179984L231.01319904327391,56.07201399888298L231.40211015277438,52.085815292596905L231.79102126227482,126.49415706694131L232.17993237177532,70.68790738880638L232.5688434812758,137.19035137385137L232.95775459077623,-50.225624710321426L233.3466657002767,95.80072240501644L233.73557680977717,128.04433806091546L234.1244879192776,37.824240623712484L234.51339902877808,83.0893021196127L234.90231013827855,107.89207827597858L235.291221247779,52.085815292596905L235.68013235727946,52.085815292596905L236.06904346677993,89.28999948501585L236.45795457628037,38.13425287306316L236.84686568578084,36.27407293498507L237.2357767952813,-4.18547937005755L237.62468790478175,126.49415706694131L238.01359901428222,106.03187172740698L238.4025101237827,115.17788504034289L238.79142123328313,71.46299123317009L239.1803323427836,138.89555179774763L239.56924345228407,66.96752090215669L239.9581545617845,91.61525101810697L240.34706567128498,117.19312432408333L240.73597678078548,-11.161260579824415L241.12488789028592,35.96403407514089L241.5137989997864,68.20762312054642L241.90271010928686,52.085815292596905L242.2916212187873,76.88860475420954L242.68053232828777,-9.921105140447679L243.06944343778824,52.085815292596905L243.45835454728868,56.73637157976616L243.84726565678915,39.68444717228408L244.23617676628962,120.2934730067849L244.62508787579006,-15.236019008500108L245.01399898529053,45.88514453768724L245.402910094791,31.003465538620958L245.79182120429144,48.3654021954537L246.1807323137919,-29.763326065540383L246.56964342329238,71.92803621768961L246.95855453279282,105.41180731296537L247.3474656422933,-31.623559224605486L247.73637675179376,72.54811393737798L248.1252878612942,31.75640945238726L248.51419897079467,58.59655151784425L248.90311008029514,44.02493798911564L249.29202118979558,48.985479915142065L249.68093229929607,45.88511792719373L250.06984340879654,51.62077030807738L250.45875451829698,98.59103222787384L250.84766562779745,47.12527336657047L251.23657673729792,97.97098111867898L251.62548784679836,79.21388289779416L252.01439895629883,82.77926325976851L252.4033100657993,86.18966410756103L252.79222117529974,83.70937983930106L253.1811322848002,21.39239393591879L253.57004339430068,55.8062283897401L253.95895450380112,66.03737771213063L254.3478656133016,-29.763326065540383L254.73677672280206,96.730838984549L255.1256878323025,23.71764546900991L255.51459894180297,62.62703008532513L255.90351005130344,7.44083151638506L256.2924211608039,62.31696461498744L256.6813322703043,103.70662019431586L257.0702433798048,33.48374980688092L257.45915448930526,92.39034816771743L257.8480655988057,24.182690453529432L258.2369767083062,126.49415706694131L258.6258878178067,87.42981954693776L259.01479892730714,54.876138420701054L259.4037100368076,52.085815292596905L259.7926211463081,39.684420561790574L260.1815322558085,70.68790738880638L260.57044336530896,46.04015066236258L260.95935447480946,-0.6200723975896949L261.3482655843099,101.69138091057542L261.73717669381034,99.2111099475622L262.12608780331084,45.88514453768724L262.5149989128113,145.71632688283916L262.9039100223117,-3.7204343855380273L263.2928211318122,92.08030930787325L263.68173224131266,128.81942190527917L264.0706433508131,21.857438920438312" fill="none"></path></g></g></g></g></g></g><g transform="translate(49, 178)" clip-path="url(#clip_1)"><clipPath id="clip_1"><rect width="280" height="21"></rect></clipPath><g><g><line x1="0" y1="0" x2="0" y2="5" style="visibility: inherit;" fill="rgb(0, 0, 0)" stroke="rgb(204, 204, 204)" stroke-width="1px"></line><line x1="31.112888760036892" y1="0" x2="31.112888760036892" y2="5" style="visibility: inherit;" fill="rgb(0, 0, 0)" stroke="rgb(204, 204, 204)" stroke-width="1px"></line><line x1="62.225777520073784" y1="0" x2="62.225777520073784" y2="5" style="visibility: inherit;" fill="rgb(0, 0, 0)" stroke="rgb(204, 204, 204)" stroke-width="1px"></line><line x1="93.33866628011067" y1="0" x2="93.33866628011067" y2="5" style="visibility: inherit;" fill="rgb(0, 0, 0)" stroke="rgb(204, 204, 204)" stroke-width="1px"></line><line x1="124.45155504014757" y1="0" x2="124.45155504014757" y2="5" style="visibility: inherit;" fill="rgb(0, 0, 0)" stroke="rgb(204, 204, 204)" stroke-width="1px"></line><line x1="155.56444380018448" y1="0" x2="155.56444380018448" y2="5" style="visibility: inherit;" fill="rgb(0, 0, 0)" stroke="rgb(204, 204, 204)" stroke-width="1px"></line><line x1="186.67733256022134" y1="0" x2="186.67733256022134" y2="5" style="visibility: inherit;" fill="rgb(0, 0, 0)" stroke="rgb(204, 204, 204)" stroke-width="1px"></line><line x1="217.79022132025824" y1="0" x2="217.79022132025824" y2="5" style="visibility: inherit;" fill="rgb(0, 0, 0)" stroke="rgb(204, 204, 204)" stroke-width="1px"></line><line x1="248.90311008029514" y1="0" x2="248.90311008029514" y2="5" style="visibility: inherit;" fill="rgb(0, 0, 0)" stroke="rgb(204, 204, 204)" stroke-width="1px"></line><line x1="280.01599884033203" y1="0" x2="280.01599884033203" y2="5" style="visibility: inherit;" fill="rgb(0, 0, 0)" stroke="rgb(204, 204, 204)" stroke-width="1px"></line></g><g transform="translate(0, 8)"><text style="text-anchor: middle; visibility: hidden; font-family: &quot;Helvetica Neue&quot;, sans-serif; font-size: 12px; font-weight: 200;" x="0" y="0" dx="0em" dy="0.95em" fill="rgb(50, 49, 63)" stroke="none" stroke-width="1px">-2k</text><text style="text-anchor: middle; visibility: hidden; font-family: &quot;Helvetica Neue&quot;, sans-serif; font-size: 12px; font-weight: 200;" x="31.112888760036892" y="0" dx="0em" dy="0.95em" fill="rgb(50, 49, 63)" stroke="none" stroke-width="1px">0</text><text style="text-anchor: middle; visibility: hidden; font-family: &quot;Helvetica Neue&quot;, sans-serif; font-size: 12px; font-weight: 200;" x="62.225777520073784" y="0" dx="0em" dy="0.95em" fill="rgb(50, 49, 63)" stroke="none" stroke-width="1px">2k</text><text style="text-anchor: middle; visibility: hidden; font-family: &quot;Helvetica Neue&quot;, sans-serif; font-size: 12px; font-weight: 200;" x="93.33866628011067" y="0" dx="0em" dy="0.95em" fill="rgb(50, 49, 63)" stroke="none" stroke-width="1px">4k</text><text style="text-anchor: middle; visibility: hidden; font-family: &quot;Helvetica Neue&quot;, sans-serif; font-size: 12px; font-weight: 200;" x="124.45155504014757" y="0" dx="0em" dy="0.95em" fill="rgb(50, 49, 63)" stroke="none" stroke-width="1px">6k</text><text style="text-anchor: middle; visibility: hidden; font-family: &quot;Helvetica Neue&quot;, sans-serif; font-size: 12px; font-weight: 200;" x="155.56444380018448" y="0" dx="0em" dy="0.95em" fill="rgb(50, 49, 63)" stroke="none" stroke-width="1px">8k</text><text style="text-anchor: middle; visibility: hidden; font-family: &quot;Helvetica Neue&quot;, sans-serif; font-size: 12px; font-weight: 200;" x="186.67733256022134" y="0" dx="0em" dy="0.95em" fill="rgb(50, 49, 63)" stroke="none" stroke-width="1px">10k</text><text style="text-anchor: middle; visibility: hidden; font-family: &quot;Helvetica Neue&quot;, sans-serif; font-size: 12px; font-weight: 200;" x="217.79022132025824" y="0" dx="0em" dy="0.95em" fill="rgb(50, 49, 63)" stroke="none" stroke-width="1px">12k</text><text style="text-anchor: middle; visibility: hidden; font-family: &quot;Helvetica Neue&quot;, sans-serif; font-size: 12px; font-weight: 200;" x="248.90311008029514" y="0" dx="0em" dy="0.95em" fill="rgb(50, 49, 63)" stroke="none" stroke-width="1px">14k</text><text style="text-anchor: middle; visibility: hidden; font-family: &quot;Helvetica Neue&quot;, sans-serif; font-size: 12px; font-weight: 200;" x="280.01599884033203" y="0" dx="0em" dy="0.95em" fill="rgb(50, 49, 63)" stroke="none" stroke-width="1px">16k</text></g><line x1="0" y1="0" x2="280.01599884033203" y2="0" fill="rgb(0, 0, 0)" stroke="rgb(204, 204, 204)" stroke-width="1px"></line></g></g></g></g></svg>