<svg viewBox="0 0 330 200" xmlns="http://www.w3.org/2000/svg"><g><g><g><g><g><line x1="39.98800086975098" y1="178.57999897003174" x2="34.98800086975098" y2="178.57999897003174" style="visibility: inherit;" fill="rgb(0, 0, 0)" stroke="rgb(204, 204, 204)" stroke-width="1px"></line><line x1="39.98800086975098" y1="156.25749909877777" x2="34.98800086975098" y2="156.25749909877777" style="visibility: inherit;" fill="rgb(0, 0, 0)" stroke="rgb(204, 204, 204)" stroke-width="1px"></line><line x1="39.98800086975098" y1="133.93499922752378" x2="34.98800086975098" y2="133.93499922752378" style="visibility: inherit;" fill="rgb(0, 0, 0)" stroke="rgb(204, 204, 204)" stroke-width="1px"></line><line x1="39.98800086975098" y1="111.61249935626985" x2="34.98800086975098" y2="111.61249935626985" style="visibility: inherit;" fill="rgb(0, 0, 0)" stroke="rgb(204, 204, 204)" stroke-width="1px"></line><line x1="39.98800086975098" y1="89.28999948501585" x2="34.98800086975098" y2="89.28999948501585" style="visibility: inherit;" fill="rgb(0, 0, 0)" stroke="rgb(204, 204, 204)" stroke-width="1px"></line><line x1="39.98800086975098" y1="66.96749961376192" x2="34.98800086975098" y2="66.96749961376192" style="visibility: inherit;" fill="rgb(0, 0, 0)" stroke="rgb(204, 204, 204)" stroke-width="1px"></line><line x1="39.98800086975098" y1="44.644999742507935" x2="34.98800086975098" y2="44.644999742507935" style="visibility: inherit;" fill="rgb(0, 0, 0)" stroke="rgb(204, 204, 204)" stroke-width="1px"></line><line x1="39.98800086975098" y1="22.32249987125394" x2="34.98800086975098" y2="22.32249987125394" style="visibility: inherit;" fill="rgb(0, 0, 0)" stroke="rgb(204, 204, 204)" stroke-width="1px"></line><line x1="39.98800086975098" y1="0" x2="34.98800086975098" y2="0" style="visibility: inherit;" fill="rgb(0, 0, 0)" stroke="rgb(204, 204, 204)" stroke-width="1px"></line></g><g transform="translate(29.988000869750977, 0)"><text style="text-anchor: end; visibility: hidden; font-family: &quot;Helvetica Neue&quot;, sans-serif; font-size: 12px; font-weight: 200;" x="0" y="178.57999897003174" dx="0em" dy="0.3em" fill="rgb(50, 49, 63)" stroke="none" stroke-width="1px">0.9</text><text style="text-anchor: end; visibility: inherit; font-family: &quot;Helvetica Neue&quot;, sans-serif; font-size: 12px; font-weight: 200;" x="0" y="156.25749909877777" dx="0em" dy="0.3em" fill="rgb(50, 49, 63)" stroke="none" stroke-width="1px">1</text><text style="text-anchor: end; visibility: hidden; font-family: &quot;Helvetica Neue&quot;, sans-serif; font-size: 12px; font-weight: 200;" x="0" y="133.93499922752378" dx="0em" dy="0.3em" fill="rgb(50, 49, 63)" stroke="none" stroke-width="1px">1.1</text><text style="text-anchor: end; visibility: inherit; font-family: &quot;Helvetica Neue&quot;, sans-serif; font-size: 12px; font-weight: 200;" x="0" y="111.61249935626985" dx="0em" dy="0.3em" fill="rgb(50, 49, 63)" stroke="none" stroke-width="1px">1.2</text><text style="text-anchor: end; visibility: hidden; font-family: &quot;Helvetica Neue&quot;, sans-serif; font-size: 12px; font-weight: 200;" x="0" y="89.28999948501585" dx="0em" dy="0.3em" fill="rgb(50, 49, 63)" stroke="none" stroke-width="1px">1.3</text><text style="text-anchor: end; visibility: inherit; font-family: &quot;Helvetica Neue&quot;, sans-serif; font-size: 12px; font-weight: 200;" x="0" y="66.96749961376192" dx="0em" dy="0.3em" fill="rgb(50, 49, 63)" stroke="none" stroke-width="1px">1.4</text><text style="text-anchor: end; visibility: hidden; font-family: &quot;Helvetica Neue&quot;, sans-serif; font-size: 12px; font-weight: 200;" x="0" y="44.644999742507935" dx="0em" dy="0.3em" fill="rgb(50, 49, 63)" stroke="none" stroke-width="1px">1.5</text><text style="text-anchor: end; visibility: inherit; font-family: &quot;Helvetica Neue&quot;, sans-serif; font-size: 12px; font-weight: 200;" x="0" y="22.32249987125394" dx="0em" dy="0.3em" fill="rgb(50, 49, 63)" stroke="none" stroke-width="1px">1.6</text><text style="text-anchor: end; visibility: hidden; font-family: &quot;Helvetica Neue&quot;, sans-serif; font-size: 12px; font-weight: 200;" x="0" y="0" dx="0em" dy="0.3em" fill="rgb(50, 49, 63)" stroke="none" stroke-width="1px">1.7</text></g><line x1="39.98800086975098" y1="0" x2="39.98800086975098" y2="178.57999897003174" fill="rgb(0, 0, 0)" stroke="rgb(204, 204, 204)" stroke-width="1px"></line></g></g><g transform="translate(39, 0)" clip-path="url(#clip_0)"><clipPath id="clip_0"><rect width="290" height="178"></rect></clipPath><g><g><g><line x1="0" y1="0" x2="0" y2="178.57999897003174" fill="rgb(0, 0, 0)" stroke="rgb(60, 60, 60)" stroke-width="1px" opacity="0.25"></line><line x1="32.22355545891656" y1="0" x2="32.22355545891656" y2="178.57999897003174" fill="rgb(0, 0, 0)" stroke="rgb(60, 60, 60)" stroke-width="1px" opacity="0.25"></line><line x1="64.44711091783311" y1="0" x2="64.44711091783311" y2="178.57999897003174" fill="rgb(0, 0, 0)" stroke="rgb(60, 60, 60)" stroke-width="1px" opacity="0.25"></line><line x1="96.67066637674967" y1="0" x2="96.67066637674967" y2="178.57999897003174" fill="rgb(0, 0, 0)" stroke="rgb(60, 60, 60)" stroke-width="1px" opacity="0.25"></line><line x1="128.89422183566623" y1="0" x2="128.89422183566623" y2="178.57999897003174" fill="rgb(0, 0, 0)" stroke="rgb(60, 60, 60)" stroke-width="1px" opacity="0.25"></line><line x1="161.1177772945828" y1="0" x2="161.1177772945828" y2="178.57999897003174" fill="rgb(0, 0, 0)" stroke="rgb(60, 60, 60)" stroke-width="1px" opacity="0.25"></line><line x1="193.34133275349933" y1="0" x2="193.34133275349933" y2="178.57999897003174" fill="rgb(0, 0, 0)" stroke="rgb(60, 60, 60)" stroke-width="1px" opacity="0.25"></line><line x1="225.56488821241592" y1="0" x2="225.56488821241592" y2="178.57999897003174" fill="rgb(0, 0, 0)" stroke="rgb(60, 60, 60)" stroke-width="1px" opacity="0.25"></line><line x1="257.78844367133246" y1="0" x2="257.78844367133246" y2="178.57999897003174" fill="rgb(0, 0, 0)" stroke="rgb(60, 60, 60)" stroke-width="1px" opacity="0.25"></line><line x1="290.011999130249" y1="0" x2="290.011999130249" y2="178.57999897003174" fill="rgb(0, 0, 0)" stroke="rgb(60, 60, 60)" stroke-width="1px" opacity="0.25"></line></g><g><line x1="0" y1="178.57999897003174" x2="290.011999130249" y2="178.57999897003174" fill="rgb(0, 0, 0)" stroke="rgb(60, 60, 60)" stroke-width="1px" opacity="0.25"></line><line x1="0" y1="156.25749909877777" x2="290.011999130249" y2="156.25749909877777" fill="rgb(0, 0, 0)" stroke="rgb(60, 60, 60)" stroke-width="1px" opacity="0.25"></line><line x1="0" y1="133.93499922752378" x2="290.011999130249" y2="133.93499922752378" fill="rgb(0, 0, 0)" stroke="rgb(60, 60, 60)" stroke-width="1px" opacity="0.25"></line><line x1="0" y1="111.61249935626985" x2="290.011999130249" y2="111.61249935626985" fill="rgb(0, 0, 0)" stroke="rgb(60, 60, 60)" stroke-width="1px" opacity="0.25"></line><line x1="0" y1="89.28999948501585" x2="290.011999130249" y2="89.28999948501585" fill="rgb(0, 0, 0)" stroke="rgb(60, 60, 60)" stroke-width="1px" opacity="0.25"></line><line x1="0" y1="66.96749961376192" x2="290.011999130249" y2="66.96749961376192" fill="rgb(0, 0, 0)" stroke="rgb(60, 60, 60)" stroke-width="1px" opacity="0.25"></line><line x1="0" y1="44.644999742507935" x2="290.011999130249" y2="44.644999742507935" fill="rgb(0, 0, 0)" stroke="rgb(60, 60, 60)" stroke-width="1px" opacity="0.25"></line><line x1="0" y1="22.32249987125394" x2="290.011999130249" y2="22.32249987125394" fill="rgb(0, 0, 0)" stroke="rgb(60, 60, 60)" stroke-width="1px" opacity="0.25"></line><line x1="0" y1="0" x2="290.011999130249" y2="0" fill="rgb(0, 0, 0)" stroke="rgb(60, 60, 60)" stroke-width="1px" opacity="0.25"></line></g></g></g><g><g><line x1="0" y1="379.48249781131744" x2="290.011999130249" y2="379.48249781131744" fill="rgb(0, 0, 0)" stroke="rgb(153, 153, 153)" stroke-width="1.5px"></line></g></g><g><g><line x1="32.22355545891656" y1="0" x2="32.22355545891656" y2="178.57999897003174" fill="rgb(0, 0, 0)" stroke="rgb(153, 153, 153)" stroke-width="1.5px"></line></g></g><g><g><g><g><g><path style="fill: none;" stroke="rgb(255, 112, 67)" stroke-width="2px" d="M32.62634990215302,21.155651019388927L33.02914434538947,17.15783846585012L33.43193878862593,31.118885119462647L33.83473323186239,32.3370884010578L34.23752767509884,45.68360505279023L34.6403221183353,37.6229870480995L35.04311656157176,14.48040196442301L35.44591100480821,25.071820689998845L35.848705448044676,31.216854139300153L36.25149989128113,28.024093094038108L36.65429433451758,18.572326583931442L37.05708877775404,15.149790517230656L37.459883220990505,11.167034885396276L37.86267766422696,45.85798002595442L38.26547210746342,35.716073011914574L38.66826655069987,10.520543963884933L39.07106099393633,12.882874294951051L39.47385543717278,17.226086526511693L39.876649880409246,30.667998226468058L40.2794443236457,16.103008982273735L40.68223876688216,49.72692508931689L41.08503321011861,48.472830375520374L41.48782765335507,51.29560967205815L41.89062209659152,52.52261893351991L42.29341653982799,43.06784538047813L42.69621098306444,25.387875568370077L43.0990054263009,4.867155911315336L43.50179986953735,26.089039510701866L43.90459431277381,-0.2668171775024746L44.30738875601027,27.122985531128506L44.71018319924673,35.07996539822352L45.11297764248318,32.14680534097536L45.51577208571964,46.34079415040247L45.91856652895609,63.278518222687225L46.32136097219255,26.750003325495214L46.72415541542901,31.818866465540424L47.12694985866547,19.174741897727728L47.52974430190192,32.96423545338325L47.93253874513838,24.443369593522846L48.33533318837483,26.46712178024697L48.7381276316113,31.701699903820156L49.14092207484775,44.32967913243613L49.54371651808421,36.140168575080196L49.94651096132066,41.47051497675261L50.34930540455712,41.22072342400503L50.75209984779357,67.12292450267195L51.15489429103004,94.96128600756714L51.55768873426649,99.06173657079819L51.96048317750295,79.59199800298005L52.3632776207394,73.50214100608018L52.76607206397586,86.3947132015196L53.168866507212314,72.43086034873183L53.57166095044878,62.62056068801304L53.97445539368524,60.33643508735376L54.37724983692169,12.482179533212076L54.780044280158144,43.726322666383254L55.1828387233946,57.24283779763914L55.58563316663107,39.878338273006705L55.98842760986752,39.37953444312893L56.39122205310398,73.61045698721561L56.79401649634043,79.50951339525454L57.19681093957689,69.64793416006961L57.599605382813344,71.40308473040632L58.00239982604981,75.08538590164547L58.40519426928626,78.79727733378265L58.80798871252272,57.956856302589344L59.210783155759174,38.73552287978097L59.61357759899563,39.80008038368442L60.016372042232085,53.95561094148326L60.41916648546855,63.28902027231352L60.821960928705,51.03560884939759L61.22475537194146,42.48839890119169L61.627549815177915,63.96080241879059L62.030344258414374,55.67571105653796L62.43313870165083,54.75475471441908L62.83593314488729,51.5007341376662L63.238727588123744,82.08376060188812L63.6415220313602,52.51667176951341L64.04431647459666,57.1015993493574L64.44711091783311,81.58159406850656L64.84990536106957,90.36851238272897L65.25269980430603,84.0211412838513L65.65549424754249,96.19483479423525L66.05828869077894,111.7954650887974L66.4610831340154,105.58428340975813L66.86387757725186,107.66117175511623L67.26667202048831,109.2856704995829L67.66946646372477,122.49811671544272L68.07226090696123,126.9126464047583L68.47505535019768,122.98535500500256L68.87784979343414,125.31455335417044L69.2806442366706,131.20905948871737L69.68343867990706,134.79880124362415L70.08623312314351,116.49281128326108L70.48902756637997,138.6201271324058L70.89182200961642,121.56068029408962L71.29461645285288,95.92321159868972L71.69741089608935,101.95581266846804L72.1002053393258,100.45772150857395L72.50299978256226,114.50689726973118L72.90579422579872,100.95625223109042L73.30858866903516,104.26362748205207L73.71138311227162,89.16333134448709L74.11417755550808,88.37660710007226L74.51697199874454,95.3396175664079L74.91976644198101,122.8099616588855L75.32256088521746,107.88090389685532L75.72535532845392,129.86626407605453L76.12814977169037,150.9220387826185L76.53094421492683,132.54152213343394L76.93373865816328,141.0136221630927L77.33653310139974,127.26390636407442L77.7393275446362,118.86016508868474L78.14212198787266,106.5971154299596L78.5449164311091,104.98172201777217L78.94771087434556,109.90398027910544L79.35050531758203,71.14929099630162L79.75329976081849,85.57649577936648L80.15609420405494,86.14182650653237L80.5588886472914,94.37727032978427L80.96168309052786,88.25388353855921L81.36447753376432,95.16251613722245L81.76727197700076,96.4962427927631L82.17006642023722,114.83081698024242L82.57286086347368,135.3113586424761L82.97565530671014,139.9542461494949L83.37844974994658,135.60411906191257L83.78124419318304,117.75425831936732L84.18403863641952,96.55054334789361L84.58683307965597,102.35266692334686L84.98962752289242,118.92601667658067L85.39242196612888,141.40885769651914L85.79521640936534,108.65652506996508L86.1980108526018,109.34370155960983L86.60080529583824,127.28589353466855L87.0035997390747,104.44167282383032L87.40639418231116,86.6768060958008L87.80918862554762,99.81194297273866L88.21198306878406,65.31130057723746L88.61477751202054,87.19253548156719L89.017571955257,80.58514417989151L89.42036639849346,126.97176633524853L89.82316084172992,98.14047905236498L90.22595528496636,87.98207072758015L90.62874972820282,80.0821920799904L91.03154417143928,105.87874849753592L91.43433861467572,123.37135305591936L91.83713305791218,125.24275731131421L92.23992750114864,113.34418239798568L92.6427219443851,133.0606941525391L93.04551638762157,101.90849694019663L93.44831083085802,91.33352972220347L93.85110527409448,73.07948931431542L94.25389971733094,66.90010111146486L94.6566941605674,23.399715773275176L95.05948860380384,46.18904783256107L95.4622830470403,86.7413531387814L95.86507749027676,70.81781146137799L96.26787193351322,72.54231150878735L96.67066637674967,62.88130703301191L97.07346081998612,79.35906424428002L97.4762552632226,98.86568271389272L97.87904970645906,129.14148292567737L98.2818441496955,136.19212426916175L98.68463859293196,116.89019280164804L99.08743303616842,97.23840459743731L99.49022747940488,83.01622673620396L99.89302192264132,102.80772414211454L100.29581636587778,119.8365226502624L100.69861080911424,115.01283608942072L101.1014052523507,109.60014369464396L101.50419969558715,136.68362860560444L101.9069941388236,109.58743449411486L102.30978858206008,105.86383088376823L102.71258302529654,107.46386728118864L103.11537746853298,130.89975888633353L103.51817191176944,122.64976883865816L103.9209663550059,118.57202436803709L104.32376079824236,121.9050407003084L104.7265552414788,97.42061169390392L105.12934968471527,117.58047789279038L105.53214412795172,112.36092442768384L105.93493857118818,114.58887810854979L106.33773301442463,129.42162620669978L106.7405274576611,139.14157633659363L107.14332190089756,152.99389979681186L107.54611634413402,151.30893381262456L107.94891078737048,124.57060255726556L108.35170523060692,112.51992691022986L108.75449967384338,110.26529818734079L109.15729411707984,114.99216544272221L109.56008856031629,130.48245029290908L109.96288300355275,150.38395872717044L110.3656774467892,140.71500011746872L110.76847189002567,143.1132149324723L111.17126633326214,90.5779481725902L111.57406077649858,117.18051928099635L111.97685521973504,138.55055394742274L112.3796496629715,142.1388061986363L112.78244410620796,141.50289020846162L113.1852385494444,96.64327968786864L113.58803299268087,83.48918212533526L113.99082743591732,117.54166395682148L114.39362187915378,103.03348902216706L114.79641632239023,94.69646794242772L115.19921076562669,84.93744330962643L115.60200520886316,81.73059042420735L116.00479965209962,79.53590479741959L116.40759409533607,79.27323412129758L116.81038853857252,100.90959995837355L117.21318298180898,110.9368698884875L117.61597742504544,124.40543196859304L118.01877186828189,111.96533285488428L118.42156631151835,115.57591518936185L118.8243607547548,134.9535470983263L119.22715519799127,80.52547696559573L119.62994964122771,73.68351840474969L120.03274408446417,117.3077007876868L120.43553852770064,75.93674733654386L120.8383329709371,64.94819346547335L121.24112741417355,57.258985516844646L121.64392185741,79.58180883856134L122.04671630064647,82.46862158000107L122.44951074388293,110.59283035141975L122.85230518711937,96.13430881995102L123.25509963035583,93.33593345618567L123.65789407359229,108.48490568970477L124.06068851682875,128.47140584080125L124.46348296006519,138.492099115587L124.86627740330167,106.67741623366355L125.26907184653813,108.22707747553706L125.67186628977458,125.25560494193994L126.07466073301104,120.45529647428256L126.47745517624749,79.70548053853165L126.88024961948395,84.99594024510863L127.2830440627204,72.74479583373585L127.68583850595685,83.94935860305984L128.0886329491933,88.7194753341241L128.49142739242976,106.83841489371015L128.89422183566623,107.86466122942089L129.2970162789027,96.50433715123575L129.69981072213915,92.35514745006095L130.10260516537562,80.23611766289946L130.50539960861207,55.98331422540922L130.9081940518485,81.34145144255561L131.31098849508498,67.5333663950389L131.71378293832143,87.21324560932976L132.11657738155787,60.25030478458065L132.51937182479435,71.45808650002476L132.9221662680308,58.55129697743699L133.32496071126727,72.45807959812763L133.7277551545037,74.2011172426235L134.13054959774018,52.80100795633906L134.53334404097663,45.34717851611782L134.9361384842131,64.7026989404788L135.33893292744955,55.10954616803501L135.741727370686,95.44834998812087L136.14452181392247,111.9552313070013L136.5473162571589,141.67948570193087L136.95011070039536,129.88182441843884L137.35290514363183,115.48128230955727L137.75569958686827,111.54218433370023L138.15849403010475,109.9408073112123L138.5612884733412,134.53624742679986L138.96408291657767,99.24165983592623L139.3668773598141,98.51927151176884L139.76967180305058,119.39589280471804L140.17246624628703,118.91055660260456L140.57526068952347,92.23599993350973L140.97805513275995,97.19584433849629L141.3808495759964,102.32875819471991L141.78364401923284,118.9027956576912L142.1864384624693,119.39802164492862L142.58923290570576,107.93658615836549L142.99202734894223,97.06960174061953L143.3948217921787,107.01030340486399L143.79761623541515,132.01777421859865L144.2004106786516,142.93650205444447L144.60320512188807,172.4766170396859L145.0059995651245,163.1138300461018L145.40879400836096,146.42297560673944L145.81158845159743,153.01022590881126L146.21438289483388,152.62213963409252L146.61717733807032,134.111540838657L147.0199717813068,122.37167362484001L147.42276622454324,119.06669331594753L147.8255606677797,101.68994135784125L148.22835511101616,113.77905878624557L148.6311495542526,124.77054773286889L149.03394399748908,126.40096135468116L149.43673844072552,112.88590241617689L149.83953288396202,90.14234875728515L150.24232732719847,94.42307959742054L150.6451217704349,66.63080005898158L151.04791621367139,110.41520188060652L151.45071065690783,99.37239563672243L151.85350510014428,100.60209660636366L152.25629954338075,71.42466645175361L152.6590939866172,95.58414102679663L153.06188842985367,133.13343195463588L153.4646828730901,94.59361536302669L153.86747731632656,57.40680096488872L154.27027175956303,70.66756225632369L154.67306620279948,75.90935343643196L155.07586064603592,95.76353760540458L155.4786550892724,107.9852938587135L155.88144953250884,141.02799025513718L156.2842439757453,89.52220990681185L156.68703841898176,85.02288009052018L157.0898328622182,99.20027621423462L157.49262730545468,80.40713649748128L157.89542174869112,49.85876989414183L158.29821619192757,41.80666803304922L158.70101063516407,42.91578383141584L159.1038050784005,61.5074410323344L159.50659952163699,52.85301305804117L159.90939396487343,80.50106797112771L160.31218840810988,73.83896890387952L160.71498285134635,107.11641709103398L161.1177772945828,109.83621537203894L161.52057173781927,98.35283066503445L161.9233661810557,76.8769580391481L162.32616062429216,55.464863363109785L162.72895506752863,81.68587939865878L163.13174951076508,83.21292081495855L163.53454395400152,86.6923432055904L163.937338397238,70.15348714935855L164.34013284047444,68.30568365426195L164.74292728371088,99.75929201535659L165.14572172694736,109.21496022748214L165.5485161701838,81.57006726589358L165.95131061342028,55.98791490155672L166.35410505665672,57.20445803419685L166.75689949989317,15.237090749890456L167.15969394312964,34.13134971226049L167.56248838636608,54.644315619185505L167.9652828296026,58.06396392866856L168.36807727283903,57.46322211248281L168.77087171607548,71.02710633283579L169.17366615931195,101.08681902061188L169.5764606025484,109.43505965621097L169.97925504578484,124.157339456871L170.3820494890213,102.32486424519944L170.78484393225776,96.63375525023059L171.18763837549423,96.16689618270769L171.59043281873068,112.81320864038912L171.99322726196712,108.41237179448422L172.3960217052036,105.05447168139293L172.79881614844004,80.34269703170276L173.20161059167648,72.12880806232187L173.60440503491296,71.82418441427092L174.0071994781494,56.1675439222015L174.40999392138588,76.29202370538954L174.81278836462232,47.52312288284011L175.21558280785877,63.686072778208626L175.61837725109524,75.86243426457281L176.02117169433168,90.28051669104849L176.42396613756813,68.61910200836273L176.82676058080463,101.24163069937457L177.22955502404108,141.98619623875925L177.63234946727755,145.39439994347669L178.035143910514,143.59599822132648L178.43793835375044,141.4695222403947L178.8407327969869,141.944337251083L179.24352724022336,146.66408822982584L179.64632168345983,151.5987979573363L180.04911612669628,160.67161117998575L180.45191056993272,129.81974914324942L180.8547050131692,115.4584547186333L181.25749945640564,106.37909418337824L181.66029389964208,92.5071988086167L182.06308834287856,108.77938224377634L182.465882786115,124.41585448269271L182.86867722935145,98.38874531904082L183.27147167258792,126.97687705294743L183.67426611582437,144.72644791471947L184.07706055906084,129.64793527107022L184.47985500229728,112.83950552305824L184.88264944553373,134.48861465662253L185.2854438887702,126.09607870674465L185.68823833200665,84.57814758909718L186.09103277524315,100.33977212479859L186.4938272184796,109.70060292312533L186.89662166171604,131.02372326612596L187.2994161049525,116.62649670386301L187.70221054818896,116.78730729648356L188.1050049914254,116.95454015353484L188.50779943466188,110.24270885918078L188.91059387789832,91.89629774576392L189.3133883211348,97.75797731465413L189.71618276437124,119.60040475139391L190.11897720760768,90.2429266922877L190.52177165084416,96.72980631765338L190.9245660940806,110.83056162919796L191.32736053731705,98.43021486877615L191.73015498055352,116.74668182385511L192.13294942378997,124.03816915495L192.53574386702644,111.23321373254294L192.93853831026289,130.6869377301239L193.34133275349933,104.37187532793025L193.7441271967358,135.09214032523266L194.14692163997225,143.72209447483635L194.5497160832087,110.42455511335724L194.9525105264452,77.99721972495087L195.35530496968164,90.27564313628868L195.7580994129181,102.38311601815317L196.16089385615456,99.54661317868084L196.563688299391,115.43135280761634L196.96648274262748,126.56896934279601L197.36927718586392,120.0495639753628L197.7720716291004,153.80565859434063L198.17486607233684,103.19098485351206L198.57766051557329,124.20783213563121L198.98045495880976,138.5275514898732L199.3832494020462,147.41529512677926L199.78604384528265,119.99977217928571L200.18883828851912,130.18972260236706L200.59163273175557,138.54567500107953L200.994427174992,132.6995440688933L201.39722161822849,133.1900575586134L201.80001606146493,146.01559826643484L202.2028105047014,114.10509971872628L202.60560494793785,116.39279420710066L203.0083993911743,93.41171585101407L203.41119383441077,104.17064289557625L203.8139882776472,91.90244052232413L204.2167827208837,95.55491691636341L204.61957716412016,91.97819649103506L205.0223716073566,126.29010042364254L205.42516605059308,88.26442252387312L205.82796049382952,105.40111504680088L206.23075493706597,124.7849865599228L206.63354938030244,72.81462939443354L207.03634382353889,81.32852872598582L207.43913826677536,96.91265082263327L207.8419327100118,85.43576188679812L208.24472715324825,115.12448589619262L208.64752159648472,97.10493278020574L209.05031603972117,127.16743968419249L209.4531104829576,126.66620467599438L209.85590492619409,87.60040961110205L210.25869936943053,92.90716435558919L210.661493812667,113.14551536029332L211.06428825590345,113.73821686952974L211.4670826991399,119.33609615518068L211.86987714237637,123.18364129472839L212.2726715856128,120.56545092651008L212.67546602884926,134.47916651005846L213.07826047208576,151.12478769496082L213.4810549153222,67.51370219194516L213.88384935855868,94.38842987016592L214.28664380179512,121.68314754215066L214.68943824503157,100.14017351229501L215.09223268826804,102.98638256100999L215.4950271315045,127.4765420976976L215.89782157474096,115.10132014263688L216.3006160179774,149.9915109998259L216.70341046121385,152.0821481480894L217.10620490445032,121.7450466025091L217.50899934768677,104.91377234336682L217.9117937909232,64.22173113377772L218.3145882341597,94.18094022251644L218.71738267739613,72.77795230679324L219.12017712063258,98.46165903275514L219.52297156386905,104.45549856201349L219.9257660071055,131.63972432804778L220.32856045034197,132.65745088075576L220.7313548935784,144.79149339824488L221.13414933681486,128.20953468847785L221.53694378005133,118.9379347693016L221.93973822328778,139.53850576179306L222.34253266652428,98.95449713966305L222.74532710976072,101.74867532907824L223.14812155299717,111.36791226873942L223.55091599623364,144.60276701521698L223.9537104394701,118.85491273069701L224.35650488270653,133.9770868373869L224.759299325943,105.52591280173806L225.16209376917945,120.22096278072678L225.56488821241592,114.59516752008358L225.96768265565237,132.2520560114229L226.3704770988888,116.85435053692333L226.7732715421253,119.54164868798497L227.17606598536173,117.66423681252896L227.57886042859818,57.80429408094787L227.98165487183465,74.35799988187591L228.3844493150711,114.16135717796266L228.78724375830757,119.31518031034611L229.190038201544,128.6862485820715L229.59283264478046,123.00163992041612L229.99562708801693,78.94514392158449L230.39842153125338,79.34465727147206L230.80121597448982,90.4611700309484L231.20401041772632,67.15621407151707L231.60680486096277,91.01875785101814L232.00959930419924,89.88901324927195L232.4123937474357,95.78512742164915L232.81518819067213,113.19481571583276L233.2179826339086,102.67766952545792L233.62077707714505,111.22090349845868L234.02357152038152,110.87827805687466L234.42636596361797,110.99209397387148L234.8291604068544,116.43195016639919L235.2319548500909,145.95858165787084L235.63474929332733,151.34954781036842L236.03754373656378,134.77791426635454L236.44033817980025,147.98847528882425L236.8431326230367,148.52222997339797L237.24592706627314,93.00308298490924L237.6487215095096,73.41416247966906L238.05151595274606,48.81979469167396L238.45431039598253,62.92442340940059L238.85710483921898,99.53958353029375L239.25989928245542,96.11323342895498L239.6626937256919,107.74800752952433L240.06548816892834,108.54424650613822L240.46828261216484,105.66458243338622L240.8710770554013,66.42904198800188L241.27387149863773,113.73268777839398L241.6766659418742,122.93493080875334L242.07946038511065,84.76293565110929L242.4822548283471,91.39838266477169L242.88504927158357,89.50926322158897L243.28784371482,72.86839479195665L243.6906381580565,92.04765296662184L244.09343260129293,104.41435270992878L244.49622704452938,83.12545687415998L244.89902148776585,97.04130009336072L245.3018159310023,80.62470861763308L245.70461037423874,96.59296711036275L246.1074048174752,81.9215306379151L246.51019926071166,87.92909248311281L246.91299370394813,85.1323856570604L247.31578814718458,91.5880228918632L247.71858259042102,74.88506805565163L248.1213770336575,78.12308312207678L248.52417147689394,86.62860585423962L248.92696592013039,49.73679846400873L249.3297603633669,96.09120305744692L249.73255480660333,101.58297562906151L250.1353492498398,115.1827873180028L250.53814369307625,86.53277025980988L250.9409381363127,90.01246068827838L251.34373257954917,126.40138986248769L251.7465270227856,103.20918576040948L252.1493214660221,113.06579931060998L252.55211590925853,127.73310681055861L252.95491035249498,101.7052681608723L253.35770479573145,137.48072514009166L253.7604992389679,126.0773093555494L254.16329368220434,141.1710568116596L254.5660881254408,149.50176262753084L254.96888256867726,167.72160561236714L255.3716770119137,156.53189148716154L255.77447145515018,123.34365583063172L256.1772658983866,156.3749314242779L256.5800603416231,150.27533040258285L256.9828547848595,139.21861473974386L257.385649228096,146.45449626466836L257.78844367133246,151.33565021863419L258.19123811456893,151.0115653913778L258.5940325578054,138.00766545063829L258.9968270010418,137.09009114059674L259.3996214442783,86.25696072647416L259.80241588751477,110.18836884411954L260.20521033075124,102.12865732711413L260.60800477398766,116.36283239145875L261.01079921722413,118.16398000139854L261.4135936604606,102.04081820373972L261.816388103697,114.53838433657172L262.2191825469335,129.32156760464179L262.62197699016997,118.79196536112593L263.0247714334064,114.99664053950184L263.42756587664286,148.95050973743048L263.83036031987933,128.56801706174406L264.23315476311575,127.8979799685369L264.6359492063522,111.94088297633311L265.0387436495887,116.74460395873189L265.4415380928251,121.92681751324528L265.8443325360616,100.638312593702L266.24712697929806,113.87916937099492L266.64992142253453,91.3644201915708L267.05271586577095,107.9718195973733L267.4555103090074,107.82171743957795L267.8583047522439,104.82788641972205L268.26109919548037,119.0818413751717L268.66389363871684,142.5212458553654L269.06668808195326,140.47533516279762L269.46948252518973,129.5349521486749L269.8722769684262,123.1073176654851L270.2750714116626,139.80236941134825L270.6778658548991,135.6457642766125L271.08066029813557,104.16918528638561L271.483454741372,120.2867654767451L271.88624918460846,90.99095581072325L272.28904362784493,125.2453362754589L272.69183807108135,89.82720940420056L273.0946325143178,75.27371999419024L273.4974269575543,89.34347119380784" fill="none"></path></g></g></g></g><g opacity="0.2"><g><g><g><path style="fill: none;" stroke="rgb(255, 112, 67)" stroke-width="2px" d="M32.62634990215302,21.155651019388927L33.02914434538947,14.283411239855837L33.43193878862593,48.37419430250827L33.83473323186239,34.29554016598752L34.23752767509884,70.70705097783497L34.6403221183353,20.961234753830468L35.04311656157176,-36.55394081729162L35.44591100480821,49.480259465105775L35.848705448044676,45.8172718129496L36.25149989128113,20.274231642973263L36.65429433451758,-4.719142173132894L37.05708877775404,6.6249644296733265L37.459883220990505,1.1707978491014046L37.86267766422696,133.40416778095752L38.26547210746342,10.021847146764543L38.66826655069987,-53.49034907246201L39.07106099393633,18.896579783648463L39.47385543717278,28.298386465415547L39.876649880409246,64.97137198645783L40.2794443236457,-21.094042404822687L40.68223876688216,135.64378674594474L41.08503321011861,45.267099859702796L41.48782765335507,58.51321809637932L41.89062209659152,55.66059980297646L42.29341653982799,18.884551840583526L42.69621098306444,-19.838346437238158L43.0990054263009,-47.62970720357836L43.50179986953735,80.38251997482286L43.90459431277381,-67.69747867163213L44.30738875601027,97.2008840807984L44.71018319924673,55.438615066145275L45.11297764248318,24.64194499466197L45.51577208571964,82.65827598999189L45.91856652895609,106.61658144017588L46.32136097219255,-66.71493941989178L46.72415541542901,44.78853674448197L47.12694985866547,-13.177793133549244L47.52974430190192,68.24749628401656L47.93253874513838,2.6409477838547843L48.33533318837483,31.64532128619507L48.7381276316113,45.095488787079404L49.14092207484775,76.64108458780953L49.54371651808421,15.185533580219555L49.94651096132066,55.1093634299894L50.34930540455712,40.58157738406601L50.75209984779357,133.39935128163285L51.15489429103004,166.19180836610334L51.55768873426649,109.55363482947484L51.96048317750295,29.774417319233862L52.3632776207394,57.919910533158486L52.76607206397586,119.38317858386534L53.168866507212314,36.70128844193579L53.57166095044878,37.51876280245534L53.97445539368524,54.491999980638695L54.37724983692169,-109.96340449688273L54.780044280158144,123.67129994947612L55.1828387233946,91.82779967394077L55.58563316663107,-4.5525338732887235L55.98842760986752,38.10323568183202L56.39122205310398,161.19776382875224L56.79401649634043,94.60354025160336L57.19681093957689,44.41492541565077L57.599605382813344,75.89402159310816L58.00239982604981,84.50735935227777L58.40519426928626,88.29496394552487L58.80798871252272,4.632077960478341L59.210783155759174,-10.446465469548997L59.61357759899563,42.52398374707917L60.016372042232085,90.17563396360296L60.41916648546855,87.1705907633949L60.821960928705,19.682573930349832L61.22475537194146,20.6184915974668L61.627549815177915,118.90264629212504L62.030344258414374,34.47649152183169L62.43313870165083,52.3982863515476L62.83593314488729,43.174610313312996L63.238727588123744,160.33712724776515L63.6415220313602,-23.137196096251444L64.04431647459666,68.83314002510753L64.44711091783311,144.21901827841305L64.84990536106957,112.85176600516346L65.25269980430603,67.78000313409444L65.65549424754249,127.34389398978814L66.05828869077894,151.71309207020593L66.4610831340154,89.69161569721331L66.86387757725186,112.97534513700762L67.26667202048831,113.44230607705961L67.66946646372477,156.30505205067388L68.07226090696123,138.20818678417874L68.47505535019768,112.93652042698164L68.87784979343414,131.2743171016846L69.2806442366706,146.29144351269895L69.68343867990706,143.98394117877666L70.08623312314351,69.65292949856214L70.48902756637997,195.23770754356053L70.89182200961642,77.91035190708237L71.29461645285288,30.324136894091055L71.69741089608935,117.39154280786516L72.1002053393258,96.62452740194121L72.50299978256226,150.45478827425777L72.90579422579872,66.28396118915924L73.30858866903516,112.72627091778682L73.71138311227162,50.52591880744353L74.11417755550808,86.3636009373169L74.51697199874454,113.15600377742322L74.91976644198101,193.09884921223565L75.32256088521746,69.68164222105565L75.72535532845392,186.1206198370662L76.12814977169037,204.79784666169127L76.53094421492683,85.51094750438176L76.93373865816328,162.6913443030381L77.33653310139974,92.08224921284989L77.7393275446362,97.3573537826166L78.14212198787266,75.21941897222499L78.5449164311091,100.8483844257338L78.94771087434556,122.49865533212537L79.35050531758203,-28.013063431940196L79.75329976081849,122.49165677233316L80.15609420405494,87.58834890095338L80.5588886472914,115.44945577077408L80.96168309052786,72.5858582613676L81.36447753376432,112.83976467259203L81.76727197700076,99.90887434199345L82.17006642023722,161.74383776599905L82.57286086347368,187.71530688142997L82.97565530671014,151.83408998417997L83.37844974994658,124.47336683425542L83.78124419318304,72.08148296744548L84.18403863641952,42.296197922663566L84.58683307965597,117.19866995093008L84.98962752289242,161.3325592836094L85.39242196612888,198.9361270678206L85.79521640936534,24.85251382977887L86.1980108526018,111.10199300464382L86.60080529583824,173.19491855270138L87.0035997390747,45.9897344213652L87.40639418231116,41.22150653191022L87.80918862554762,133.42106544433415L88.21198306878406,-22.966143843991688L88.61477751202054,143.18046393784152L89.017571955257,63.67868743289927L89.42036639849346,245.66209135198068L89.82316084172992,24.36932048868792L90.22595528496636,61.98955974708093L90.62874972820282,59.86862358313269L91.03154417143928,171.8848839573766L91.43433861467572,168.13001027114248L91.83713305791218,130.03115467654163L92.23992750114864,82.89907434573217L92.6427219443851,183.50970465618283L93.04551638762157,22.198782364843566L93.44831083085802,64.27516164484737L93.85110527409448,26.372531829363425L94.25389971733094,51.08878396609293L94.6566941605674,-87.90554066145216L95.05948860380384,104.50054160703283L95.4622830470403,190.5033015913523L95.86507749027676,30.07394503414298L96.26787193351322,76.95482230625112L96.67066637674967,38.161512662611244L97.07346081998612,121.52101241119021L97.4762552632226,148.77763531051735L97.87904970645906,206.60874396579533L98.2818441496955,154.232733258362L98.68463859293196,67.50197669793857L99.08743303616842,46.95500346281983L99.49022747940488,46.62567199518344L99.89302192264132,153.4486018462061L100.29581636587778,163.4084305768044L100.69861080911424,102.67037830563007L101.1014052523507,95.75058557420087L101.50419969558715,205.9826522745745L101.9069941388236,40.255891554040005L102.30978858206008,96.33617609430482L102.71258302529654,111.55791058989061L103.11537746853298,190.86561676569L103.51817191176944,101.54036369887672L103.9209663550059,108.13822267986433L104.32376079824236,130.4332924544118L104.7265552414788,34.77184138926029L105.12934968471527,169.16390777535037L105.53214412795172,99.00555452942194L105.93493857118818,120.28958521368361L106.33773301442463,167.37445852901254L106.7405274576611,164.01219606397328L107.14332190089756,188.4381011060534L107.54611634413402,146.99757956838732L107.94891078737048,56.154730056898586L108.35170523060692,81.68563584183596L108.75449967384338,104.4963371490588L109.15729411707984,127.0868898435024L109.56008856031629,170.1177343045972L109.96288300355275,201.30632372444418L110.3656774467892,115.97485335456633L110.76847189002567,149.24957241285506L111.17126633326214,-43.84502976461695L111.97685521973504,193.23046471311878L112.3796496629715,151.3201349125955L112.78244410620796,139.8757599702568L113.1852385494444,-18.139851857705537L113.58803299268087,49.83154458988503L113.99082743591732,204.67239149005488L114.39362187915378,65.91114817513323L114.79641632239023,73.36437485939365L115.19921076562669,59.966842914665165L115.60200520886316,73.5251554611599L116.00479965209962,73.92032128973136L116.40759409533607,78.6011337080175L116.81038853857252,156.27097731373883L117.21318298180898,136.59383458511365L117.61597742504544,158.86769579633645L118.01877186828189,80.13461661731634L118.42156631151835,124.81438030854116L118.8243607547548,184.53545934937773L119.22715519799127,-58.74065266228067L119.62994964122771,56.17686998749599L120.03274408446417,228.92971905577136L120.43553852770064,-29.919891565135174L120.8383329709371,36.83157341814359L121.24112741417355,37.58446411092288L121.64392185741,136.69963790729548L122.04671630064647,89.85516379030423L122.44951074388293,182.5547737914555L122.85230518711937,59.13901707217158L123.25509963035583,86.17567763217403L123.65789407359229,147.24686667155618L124.06068851682875,179.61124074698768L124.46348296006519,164.13223600018108L124.86627740330167,25.272587080272416L125.26907184653813,112.19222492360495L125.67186628977458,168.82681934885684L126.07466073301104,108.17265665846173L126.47745517624749,-24.561842087108715L126.88024961948395,98.53273928079852L127.2830440627204,41.3975615569492L127.68583850595685,112.61868469254006L128.0886329491933,100.92486298407147L128.49142739242976,153.19968728994633L128.89422183566623,110.49053708485155L129.2970162789027,67.43646166292558L129.69981072213915,81.73853750292687L130.10260516537562,49.22692756692393L130.50539960861207,-6.072791367314835L130.9081940518485,146.22579542521842L131.31098849508498,32.20235874676655L131.71378293832143,137.5685237412696L132.11657738155787,-8.740280457392998L132.51937182479435,100.13564896765581L132.9221662680308,25.526451188324387L133.32496071126727,108.04162658843575L133.7277551545037,78.66106053939413L134.13054959774018,-1.9558553064313458L134.53334404097663,26.274924539181598L134.9361384842131,114.22803411882592L135.33893292744955,30.563365230714453L135.741727370686,198.66400816122317L136.14452181392247,154.191699877375L136.5473162571589,217.7354960576405L136.95011070039536,99.69492597420123L137.35290514363183,78.6343436039136L137.75569958686827,101.46314004672087L138.15849403010475,105.84333371986412L138.5612884733412,197.46906395031397L138.96408291657767,8.932732868530678L139.3668773598141,96.67088288162952L139.76967180305058,172.81329746532472L140.17246624628703,117.66871770822883L140.57526068952347,23.98330866988269L140.97805513275995,109.88669176620215L141.3808495759964,115.46244169160525L141.78364401923284,161.3110979205964L142.1864384624693,120.66516571903429L142.58923290570576,78.60999500235516L142.99202734894223,69.26404374645821L143.3948217921787,132.44576424682757L143.79761623541515,196.0048614608593L144.2004106786516,170.87445690844143L144.60320512188807,248.06146641473413L145.0059995651245,139.15709037212687L145.40879400836096,103.71577154303276L145.81158845159743,169.86514750023355L146.21438289483388,151.62913596319294L146.61717733807032,86.74812256848577L147.0199717813068,92.33265395674601L147.42276622454324,110.61017786365676L147.8255606677797,57.227718376067514L148.22835511101616,144.71171156568582L148.6311495542526,152.89467781337487L149.03394399748908,130.57273144038584L149.43673844072552,78.30466619986163L149.83953288396202,31.947989039337955L150.24232732719847,105.3762663378381L150.6451217704349,-4.481829792041964L151.04791621367139,222.44717664839416L151.45071065690783,71.11695901980903L151.85350510014428,103.74855567103276L152.25629954338075,-3.2321744064834093L152.6590939866172,157.40144429888178L153.06188842985367,229.2115108767584L153.86747731632656,-37.74380242394108L154.27027175956303,104.59812228672115L154.67306620279948,89.32162339549899L155.07586064603592,146.56481311249118L155.4786550892724,139.25733210116584L155.88144953250884,225.57496074990092L156.2842439757453,-42.26660173178564L156.68703841898176,73.51036002677029L157.0898328622182,135.47624707882784L157.49262730545468,32.320775442870456L157.89542174869112,-28.305911912979184L158.29821619192757,21.203603128687632L158.70101063516407,45.75369934396258L159.1038050784005,109.0782649734748L159.50659952163699,30.708764967233947L159.90939396487343,151.24466755301108L160.31218840810988,56.79253036526228L160.71498285134635,192.26405142044337L161.1177772945828,116.79541453233264L161.52057173781927,68.97007762469195L161.9233661810557,21.926237690350035L162.32616062429216,0.6773328575169444L162.72895506752863,148.77808768890696L163.13174951076508,87.1201904886936L163.53454395400152,95.59520690261644L163.937338397238,27.83520421544148L164.34013284047444,63.57767399954861L164.74292728371088,180.24023298200072L165.14572172694736,133.4093568271913L165.5485161701838,10.834558228946435L165.95131061342028,-9.469620863419038L166.35410505665672,60.3172498931587L166.75689949989317,-92.14560347579021L167.15969394312964,82.476446487862L167.56248838636608,107.13122838459151L167.9652828296026,66.8138825568476L168.36807727283903,55.92609269669077L168.77087171607548,105.73327271872125L169.17366615931195,178.00117283737714L169.5764606025484,130.7958604284378L169.97925504578484,161.82751446283024L170.3820494890213,46.46169813419641L170.78484393225776,82.07180732360223L171.18763837549423,94.97233508110989L171.59043281873068,155.40644229545302L171.99322726196712,97.15186755175944L172.3960217052036,96.46254932796717L172.79881614844004,17.11221314157038L173.20161059167648,51.111775432482546L173.60440503491296,71.0447381404324L174.0071994781494,16.1066025919599L174.40999392138588,127.7849096986713L174.81278836462232,-26.088406268095866L175.21558280785877,105.04251752827963L175.61837725109524,107.01832006064345L176.02117169433168,127.17233613815176L176.42396613756813,13.19363169928431L176.82676058080463,184.7135101614297L177.22955502404108,246.2400845761885L177.63234946727755,154.11503504558277L178.035143910514,138.99439381482816L178.43793835375044,136.02846804007464L178.8407327969869,143.15925537451685L179.24352724022336,158.74060407934942L179.64632168345983,164.22533281171357L180.04911612669628,183.88638949701405L180.45191056993272,50.8785078464046L180.8547050131692,78.71193980297855L181.25749945640564,83.14756313409583L181.66029389964208,57.01291847248308L182.06308834287856,150.41532491238763L182.465882786115,164.4251909231941L182.86867722935145,31.792690199234045L183.27147167258792,200.1258689272493L183.67426611582437,190.1426096571185L184.07706055906084,91.06626057077187L184.47985500229728,69.83145929949723L184.88264944553373,189.88259852506653L185.2854438887702,104.62193867840946L185.68823833200665,-21.654565840043517L186.09103277524315,140.66933810760753L186.4938272184796,133.6523372433991L186.89662166171604,185.5835934676116L187.2994161049525,79.78804154988774L187.70221054818896,117.19877639290411L188.1050049914254,117.38244201908594L188.50779943466188,93.06901953305777L188.91059387789832,44.95298959435212L189.3133883211348,112.75636738594267L189.71618276437124,175.4890358083899L190.11897720760768,15.125393864894875L190.52177165084416,113.32790756547519L190.9245660940806,146.91043020215355L191.32736053731705,66.7012137273411L191.73015498055352,163.61337129254468L192.13294942378997,142.69503531529602L192.53574386702644,78.46893277627723L192.93853831026289,180.46354824350723L193.34133275349933,37.039028825520234L193.7441271967358,213.69666179519857L194.14692163997225,165.8037209288046L194.5497160832087,25.225513117259425L194.9525105264452,-4.975214952145905L195.35530496968164,121.69267670480062L195.7580994129181,133.3627352425679L196.16089385615456,92.28879986344731L196.563688299391,156.07593570158295L196.96648274262748,155.06699884028416L197.36927718586392,103.36823849783792L197.7720716291004,240.17801457670745L198.17486607233684,-26.317735501134848L198.57766051557329,177.98403567955896L198.98045495880976,175.16768748880546L199.3832494020462,170.15653240412968L199.78604384528265,49.851156523599315L200.18883828851912,156.26294094469986L200.59163273175557,159.92620800703784L200.994427174992,117.74093858760546L201.39722161822849,134.44514367643814L201.80001606146493,178.83255118075385L202.2028105047014,32.45510521409125L202.60560494793785,122.24636124319028L203.0083993911743,34.60959721035118L203.41119383441077,131.69971245087945L203.8139882776472,60.511559716743136L204.2167827208837,104.90057715591598L204.61957716412016,82.82637447747243L205.0223716073566,214.08461618002977L205.42516605059308,-9.032596728561856L205.82796049382952,149.24909342397194L206.23075493706597,174.38286420381837L206.63354938030244,-60.162903708722354L207.03634382353889,103.11320352807167L207.43913826677536,136.78803796672406L207.8419327100118,56.06962969866481L208.24472715324825,191.08958398428743L208.64752159648472,50.99796235175526L209.05031603972117,204.08894311467822L209.4531104829576,125.38368520661913L209.85590492619409,-12.357977049601118L210.25869936943053,106.48565781212392L210.661493812667,164.92976579581753L211.06428825590345,115.25477340028056L211.4670826991399,133.65949546615235L211.86987714237637,133.0284276126458L212.2726715856128,113.8662378491116L212.67546602884926,170.0804530031946L213.07826047208576,193.71625257732663L213.4810549153222,-146.42355929086006L213.88384935855868,163.15330247031088L214.28664380179512,191.52265646085888L214.68943824503157,45.01775953554693L215.09223268826804,110.26903133690348L215.4950271315045,190.13997521826136L215.89782157474096,83.43660631456339L216.3006160179774,239.26570041733075L216.70341046121385,157.43150085129736L217.10620490445032,44.120932683391004L217.50899934768677,61.8472734383017L217.9117937909232,-39.89776221033088L218.3145882341597,170.83813358480506L218.71738267739613,18.013723440583448L219.12017712063258,164.179043858259L219.52297156386905,119.79204881659265L219.9257660071055,201.19651552298964L220.32856045034197,135.26152700672392L220.7313548935784,175.83909685046785L221.13414933681486,85.78096418199218L221.53694378005133,95.21451718251251L221.93973822328778,192.24957531197583L222.34253266652428,-4.888571185288754L222.74532710976072,108.89819176391634L223.14812155299717,135.98083525669801L223.55091599623364,229.6414167046026L223.9537104394701,52.97339233720999L224.35650488270653,172.67047894667536L224.759299325943,32.72735717315621L225.16209376917945,157.82146432838832L225.56488821241592,100.2003390773701L225.96768265565237,177.43106962449397L226.3704770988888,77.45595111996545L226.7732715421253,126.41768915280105L227.17606598536173,112.86046763654008L227.57886042859818,-95.360470417297L227.98165487183465,116.71427913763134L228.3844493150711,216.00695823093903L228.78724375830757,132.50236476651588L229.190038201544,152.6641777186216L229.59283264478046,108.45632451924098L229.99562708801693,-33.78304334944721L230.39842153125338,80.36689961513454L230.80121597448982,118.90520089950166L231.20401041772632,7.525383698452629L231.60680486096277,152.0762986960761L232.00959930419924,86.99831442843384L232.4123937474357,110.87162596235808L232.81518819067213,157.74131352194675L233.2179826339086,75.76724920204322L233.62077707714505,133.08063740090554L234.02357152038152,110.0015958771632L234.42636596361797,111.28331690739708L234.8291604068544,130.3510128084897L235.2319548500909,221.50893056309536L235.63474929332733,165.14351458490844L236.03754373656378,92.37576295622654L236.44033817980025,181.79058694418268L236.8431326230367,149.8879581520759L237.24592706627314,-49.054805572825245L237.6487215095096,23.29162211216834L238.05151595274606,-14.110278047003874L238.45431039598253,99.01420293981155L238.85710483921898,193.22748433784605L239.25989928245542,87.34616679955076L239.6626937256919,137.51812346656828L240.06548816892834,110.58159819363078L240.46828261216484,98.29633165648681L240.8710770554013,-33.963675379369306L241.27387149863773,234.7694184662654L241.6766659418742,146.4808836159717L242.07946038511065,-12.908468328769999L242.4822548283471,108.37662609118902L242.88504927158357,84.67553767123883L243.28784371482,30.289090874143L243.6906381580565,141.12198260215303L244.09343260129293,136.05726059404867L244.49622704452938,28.65315756484415L244.89902148776585,132.64803060797044L245.3018159310023,38.61926637190999L245.70461037423874,137.45125129638646L246.1074048174752,44.3814494148196L246.51019926071166,103.30075428630545L246.91299370394813,77.9763991519655L247.31578814718458,108.1061836456825L247.71858259042102,32.14690247829901L248.1213770336575,86.4082533454208L248.52417147689394,108.39184729347474L248.92696592013039,-44.65896492950017L249.3297603633669,214.699092390835L249.73255480660333,115.63487768952734L250.1353492498398,149.98088199540058L250.53814369307625,13.225431239024573L250.9409381363127,98.91601021877258L251.34373257954917,219.5104292797705L251.7465270227856,43.86685569139098L252.1493214660221,138.28610230916576L252.55211590925853,165.26262315384352L252.95491035249498,35.10734649139019L253.35770479573145,229.0200616812259L253.7604992389679,96.89917430542175L254.16329368220434,179.79171311394873L254.5660881254408,170.81769672579208L254.96888256867726,214.34106150595187L255.3716770119137,127.90055890345053L255.77447145515018,38.42429128598789L256.1772658983866,240.89267929556465L256.5800603416231,134.66816622251608L256.9828547848595,110.92758783020224L257.385649228096,164.96908279997336L257.78844367133246,163.82515090511612L258.19123811456893,150.18232343124475L258.5940325578054,104.7343414029809L258.9968270010418,134.74227644693167L259.3996214442783,-43.81072883848708L259.80241588751477,171.42211417005188L260.20521033075124,81.50612145264114L260.60800477398766,152.78408460236187L261.01079921722413,122.77261036277474L261.4135936604606,60.786180009730174L261.816388103697,146.5161425198678L262.2191825469335,167.14757746137616L262.62197699016997,91.84967349960311L263.0247714334064,105.28547133399394L263.42756587664286,235.82891526522653L263.83036031987933,76.41494861399133L264.23315476311575,126.18354342043739L264.6359492063522,71.11115793222461L265.0387436495887,129.0359754403857L265.4415380928251,135.18664507799664L265.8443325360616,46.167013529105475L266.24712697929806,147.75879934563415L266.64992142253453,33.75550681076669L267.05271586577095,150.46548569264738L267.4555103090074,107.43764821731881L267.8583047522439,97.16751452194126L268.26109919548037,155.55370476651797L268.66389363871684,202.49609219436638L269.06668808195326,135.24042488537327L269.46948252518973,101.54158778157802L269.8722769684262,106.66080808038367L270.2750714116626,182.52031320236458L270.6778658548991,125.01018031976196L271.08066029813557,23.629468937726813L271.483454741372,161.52712190688214L271.88624918460846,16.031215063855996L272.28904362784493,212.89266564964004L272.69183807108135,-0.7978198500156566L273.0946325143178,38.03543214437747L273.4974269575543,125.34400896080095" fill="none"></path></g></g></g></g></g></g><g transform="translate(39, 178)" clip-path="url(#clip_1)"><clipPath id="clip_1"><rect width="290" height="21"></rect></clipPath><g><g><line x1="0" y1="0" x2="0" y2="5" style="visibility: inherit;" fill="rgb(0, 0, 0)" stroke="rgb(204, 204, 204)" stroke-width="1px"></line><line x1="32.22355545891656" y1="0" x2="32.22355545891656" y2="5" style="visibility: inherit;" fill="rgb(0, 0, 0)" stroke="rgb(204, 204, 204)" stroke-width="1px"></line><line x1="64.44711091783311" y1="0" x2="64.44711091783311" y2="5" style="visibility: inherit;" fill="rgb(0, 0, 0)" stroke="rgb(204, 204, 204)" stroke-width="1px"></line><line x1="96.67066637674967" y1="0" x2="96.67066637674967" y2="5" style="visibility: inherit;" fill="rgb(0, 0, 0)" stroke="rgb(204, 204, 204)" stroke-width="1px"></line><line x1="128.89422183566623" y1="0" x2="128.89422183566623" y2="5" style="visibility: inherit;" fill="rgb(0, 0, 0)" stroke="rgb(204, 204, 204)" stroke-width="1px"></line><line x1="161.1177772945828" y1="0" x2="161.1177772945828" y2="5" style="visibility: inherit;" fill="rgb(0, 0, 0)" stroke="rgb(204, 204, 204)" stroke-width="1px"></line><line x1="193.34133275349933" y1="0" x2="193.34133275349933" y2="5" style="visibility: inherit;" fill="rgb(0, 0, 0)" stroke="rgb(204, 204, 204)" stroke-width="1px"></line><line x1="225.56488821241592" y1="0" x2="225.56488821241592" y2="5" style="visibility: inherit;" fill="rgb(0, 0, 0)" stroke="rgb(204, 204, 204)" stroke-width="1px"></line><line x1="257.78844367133246" y1="0" x2="257.78844367133246" y2="5" style="visibility: inherit;" fill="rgb(0, 0, 0)" stroke="rgb(204, 204, 204)" stroke-width="1px"></line><line x1="290.011999130249" y1="0" x2="290.011999130249" y2="5" style="visibility: inherit;" fill="rgb(0, 0, 0)" stroke="rgb(204, 204, 204)" stroke-width="1px"></line></g><g transform="translate(0, 8)"><text style="text-anchor: middle; visibility: hidden; font-family: &quot;Helvetica Neue&quot;, sans-serif; font-size: 12px; font-weight: 200;" x="0" y="0" dx="0em" dy="0.95em" fill="rgb(50, 49, 63)" stroke="none" stroke-width="1px">-2k</text><text style="text-anchor: middle; visibility: hidden; font-family: &quot;Helvetica Neue&quot;, sans-serif; font-size: 12px; font-weight: 200;" x="32.22355545891656" y="0" dx="0em" dy="0.95em" fill="rgb(50, 49, 63)" stroke="none" stroke-width="1px">0</text><text style="text-anchor: middle; visibility: hidden; font-family: &quot;Helvetica Neue&quot;, sans-serif; font-size: 12px; font-weight: 200;" x="64.44711091783311" y="0" dx="0em" dy="0.95em" fill="rgb(50, 49, 63)" stroke="none" stroke-width="1px">2k</text><text style="text-anchor: middle; visibility: hidden; font-family: &quot;Helvetica Neue&quot;, sans-serif; font-size: 12px; font-weight: 200;" x="96.67066637674967" y="0" dx="0em" dy="0.95em" fill="rgb(50, 49, 63)" stroke="none" stroke-width="1px">4k</text><text style="text-anchor: middle; visibility: hidden; font-family: &quot;Helvetica Neue&quot;, sans-serif; font-size: 12px; font-weight: 200;" x="128.89422183566623" y="0" dx="0em" dy="0.95em" fill="rgb(50, 49, 63)" stroke="none" stroke-width="1px">6k</text><text style="text-anchor: middle; visibility: hidden; font-family: &quot;Helvetica Neue&quot;, sans-serif; font-size: 12px; font-weight: 200;" x="161.1177772945828" y="0" dx="0em" dy="0.95em" fill="rgb(50, 49, 63)" stroke="none" stroke-width="1px">8k</text><text style="text-anchor: middle; visibility: hidden; font-family: &quot;Helvetica Neue&quot;, sans-serif; font-size: 12px; font-weight: 200;" x="193.34133275349933" y="0" dx="0em" dy="0.95em" fill="rgb(50, 49, 63)" stroke="none" stroke-width="1px">10k</text><text style="text-anchor: middle; visibility: hidden; font-family: &quot;Helvetica Neue&quot;, sans-serif; font-size: 12px; font-weight: 200;" x="225.56488821241592" y="0" dx="0em" dy="0.95em" fill="rgb(50, 49, 63)" stroke="none" stroke-width="1px">12k</text><text style="text-anchor: middle; visibility: hidden; font-family: &quot;Helvetica Neue&quot;, sans-serif; font-size: 12px; font-weight: 200;" x="257.78844367133246" y="0" dx="0em" dy="0.95em" fill="rgb(50, 49, 63)" stroke="none" stroke-width="1px">14k</text><text style="text-anchor: middle; visibility: hidden; font-family: &quot;Helvetica Neue&quot;, sans-serif; font-size: 12px; font-weight: 200;" x="290.011999130249" y="0" dx="0em" dy="0.95em" fill="rgb(50, 49, 63)" stroke="none" stroke-width="1px">16k</text></g><line x1="0" y1="0" x2="290.011999130249" y2="0" fill="rgb(0, 0, 0)" stroke="rgb(204, 204, 204)" stroke-width="1px"></line></g></g></g></g></svg>